/* XPM */
static char *output_onlinepngtools1709395523[] = {
/* columns rows colors chars-per-pixel */
"128 128 81 1 ",
"  c #052A75",
". c #073078",
"X c #0E337A",
"o c #0A3A7E",
"O c #12357D",
"+ c #16397F",
"@ c #0B3F80",
"# c #193B80",
"$ c #0D4784",
"% c #0E4B87",
"& c #104F89",
"* c #135B8F",
"= c #135D91",
"- c #254587",
"; c #274788",
": c #2A498A",
"> c #304E8C",
", c #26508C",
"< c #32518E",
"1 c #375591",
"2 c #425E98",
"3 c #466299",
"4 c #48639A",
"5 c #4C689E",
"6 c #5C75A5",
"7 c #6077A7",
"8 c #647BA9",
"9 c #758AB4",
"0 c #7B8DB5",
"q c #31C6C9",
"w c #33CCCC",
"e c #3CCECE",
"r c #4AC7CD",
"t c #47C8CC",
"y c #44D0D0",
"u c #4BD2D2",
"i c #53D4D4",
"p c #5BD6D6",
"a c #5DD8D8",
"s c #63D5D7",
"d c #64D9D9",
"f c #6ADBDB",
"g c #74DDDD",
"h c #7CDEDE",
"j c #7DE0E0",
"k c #8395BB",
"l c #889ABE",
"z c #8A9DC0",
"x c #9AA9C8",
"c c #A1B0CC",
"v c #ACB8D1",
"b c #9ECEDC",
"n c #82DFDF",
"m c #A2D0DB",
"M c #84E1E1",
"N c #8BE2E2",
"B c #94E4E4",
"V c #9BE6E6",
"C c #A5E4E6",
"Z c #A2E8E8",
"A c #ACEBEB",
"S c #B4ECEC",
"D c #BCEEEE",
"F c #BEF0F0",
"G c #C1CBDD",
"H c #CDD4E4",
"J c #D5DBE8",
"K c #CCE7EC",
"L c #C1EFEF",
"P c #CEEEF0",
"I c #C4F1F1",
"U c #CCF3F3",
"Y c #D4F5F5",
"T c #DCF7F7",
"R c #E1E5EF",
"E c #E9EDF4",
"W c #EEF1F6",
"Q c #E4F9F9",
"! c #ECFBFB",
"~ c #F4FCFC",
"^ c #FFFFFF",
/* pixels */
"^^^^^^^^^^^^^^^^^^^^^^^^^^^^^^^^^^^^^^^^^^^^^^^^^^^^^^^^^^^^DhpeephL^^^^^^^^^^^^^^^^^^^^^^^^^^^^^^^^^^^^^^^^^^^^^^^^^^^^^^^^^^^^",
"^^^^^^^^^^^^^^^^^^^^^^^^^^^^^^^^^^^^^^^^^^^^^^^^^^^^^^^^^^ZuwwwwwwwwuZ~^^^^^^^^^^^^^^^^^^^^^^^^^^^^^^^^^^^^^^^^^^^^^^^^^^^^^^^^^",
"^^^^^^^^^^^^^^^^^^^^^^^^^^^^^^^^^^^^^^^^^^^^^^^^^^^^^^^^UiwwwwwwwwwwwwiD^^^^^^^^^^^^^^^^^^^^^^^^^^^^^^^^^^^^^^^^^^^^^^^^^^^^^^^^",
"^^^^^^^^^^^^^^^^^^^^^^^^^^^^^^^^^^^^^^^^^^^^^^^^^^^^^^TfwwwwwwwwwwwwwwwwfT^^^^^^^^^^^^^^^^^^^^^^^^^^^^^^^^^^^^^^^^^^^^^^^^^^^^^^",
"^^^^^^^^^^^^^^^^^^^^^^^^^^^^^^^^^^^^^^^^^^^^^^^^^^^^~Newwwwwwwwwwwwwwwwwwwj!^^^^^^^^^^^^^^^^^^^^^^^^^^^^^^^^^^^^^^^^^^^^^^^^^^^^",
"^^^^^^^^^^^^^^^^^^^^^^^^^^^^^^^^^^^^^^^^^^^^^^^^^^~ZewwwwwwwwwdNNdwwwwwwwwwyZ~^^^^^^^^^^^^^^^^^^^^^^^^^^^^^^^^^^^^^^^^^^^^^^^^^^",
"^^^^^^^^^^^^^^^^^^^^^^^^^^^^^^^^^^^^^^^^^^^^^^^^^DuwwwwwwwwwdY^^^^YdwwwwwwwwwuD^^^^^^^^^^^^^^^^^^^^^^^^^^^^^^^^^^^^^^^^^^^^^^^^^",
"^^^^^^^^^^^^^^^^^^^^^^^^^^^^^^^^^^^^^^^^^^^^^^^TgwwwwwwwwwuS^^^^^^^^LuwwwwwwwwwfY^^^^^^^^^^^^^^^^^^^^^^^^^^^^^^^^^^^^^^^^^^^^^^^",
"^^^^^^^^^^^^^^^^^^^^^^^^^^^^^^^^^^^^^^^^^^^^^~NwwwwwwwwweV~^^^^^^^^^^~Zewwwwwwwwwj!^^^^^^^^^^^^^^^^^^^^^^^^^^^^^^^^^^^^^^^^^^^^^",
"^^^^^^^^^^^^^^^^^^^^^^^^^^^^^^^^^^^^^^^^^^^^Zewwwwwwwwwj!^^^^^^^^^^^^^^~NwwwwwwwwweV~^^^^^^^^^^^^^^^^^^^^^^^^^^^^^^^^^^^^^^^^^^^",
"^^^^^^^^^^^^^^^^^^^^^^^^^^^^^^^^^^^^^^^^^^LiwwwwwwwwwdT^^^^^^^^^^^^^^^^^^TfwwwwwwwwwuS^^^^^^^^^^^^^^^^^^^^^^^^^^^^^^^^^^^^^^^^^^",
"^^^^^^^^^^^^^^^^^^^^^^^^^^^^^^^^^^^^^^^^YswwwwwwwwwuD^^^^^^^^^^^^^^^^^^^^^^UiwwwwwwwwwsY^^^^^^^^^^^^^^^^^^^^^^^^^^^^^^^^^^^^^^^^",
"^^^^^^^^^^^^^^^^^^^^^^^^^^^^^^^^^^^^^^!newwwwwwwwyZ~^^^^^^^^^^^^^^^^^^^^^^^^^AywwwwwwwwwgQ^^^^^^^^^^^^^^^^^^^^^^^^^^^^^^^^^^^^^^",
"^^^^^^^^^^^^^^^^^^^^^^^^^^^^^^^^^^^^~Zewwwwwwwwwj!^^^^^^^^^^^^^^^^^^^^^^^^^^^^~NewwwwwwwweB~^^^^^^^^^^^^^^^^^^^^^^^^^^^^^^^^^^^^",
"^^^^^^^^^^^^^^^^^^^^^^^^^^^^^^^^^^^LiwwwwwwwwwfT^^^^^^^^^^^^^^^^^^^^^^^^^^^^^^^^QfwwwwwwwwwuS^^^^^^^^^^^^^^^^^^^^^^^^^^^^^^^^^^^",
"^^^^^^^^^^^^^^^^^^^^^^^^^^^^^^^^^YdwwwwwwwwwiD^^^^^^^^^^^^^^^^^^^^^^^^^^^^^^^^^^^^UiwwwwwwwwwpY^^^^^^^^^^^^^^^^^^^^^^^^^^^^^^^^^",
"^^^^^^^^^^^^^^^^^^^^^^^^^^^^^^^!MwwwwwwwwwyC~^^^^^^^^^^^^^^^^^TgfT^^^^^^^^^^^^^^^^^^AywwwwwwwwwhQ^^^^^^^^^^^^^^^^^^^^^^^^^^^^^^^",
"^^^^^^^^^^^^^^^^^^^^^^^^^^^^^~ZewwwwwwwwwM!^^^^^^^^^^^^^^^^^~Nwwwwj!^^^^^^^^^^^^^^^^^~BwwwwwwwwweB~^^^^^^^^^^^^^^^^^^^^^^^^^^^^^",
"^^^^^^^^^^^^^^^^^^^^^^^^^^^^DuwwwwwwwwwfT^^^^^^^^^^^^^^^^^~AywwwwwweV~^^^^^^^^^^^^^^^^^QgwwwwwwwwwuA^^^^^^^^^^^^^^^^^^^^^^^^^^^^",
"^^^^^^^^^^^^^^^^^^^^^^^^^^UawwwwwwwwwiU^^^^^^^^^^^^^^^^^^DuwwwwwwwwwwiD^^^^^^^^^^^^^^^^^^UiwwwwwwwwwaU^^^^^^^^^^^^^^^^^^^^^^^^^^",
"^^^^^^^^^^^^^^^^^^^^^^^^!jwwwwwwwwwyZ^^^^^^^^^^^^^^^^^^QfwwwwwwwwwwwwwwfT^^^^^^^^^^^^^^^^^^SywwwwwwwwwfQ^^^^^^^^^^^^^^^^^^^^^^^^",
"^^^^^^^^^^^^^^^^^^^^^^~BewwwwwwwweN~^^^^^^^^^^^^^^^^^!MwwwwwwwwwwwwwwwwwwM!^^^^^^^^^^^^^^^^^~BwwwwwwwwweB~^^^^^^^^^^^^^^^^^^^^^^",
"^^^^^^^^^^^^^^^^^^^^^SywwwwwwwwwgQ^^^^^^^^^^^^^^^^^~ZewwwwwwwwwMMwwwwwwwwweC~^^^^^^^^^^^^^^^^^QgwwwwwwwwwyS^^^^^^^^^^^^^^^^^^^^^",
"^^^^^^^^^^^^^^^^^^^UpwwwwwwwwwiI^^^^^^^^^^^^^^^^^^LiwwwwwwwwwdT^^QfwwwwwwwwwuS^^^^^^^^^^^^^^^^^^UpwwwwwwwwwiI^^^^^^^^^^^^^^^^^^^",
"^^^^^^^^^^^^^^^^^QhwwwwwwwwwyZ^^^^^^^^^^^^^^^^^^YdwwwwwwwwwiF^^^^^^UpwwwwwwwwwpY^^^^^^^^^^^^^^^^^^SuwwwwwwwwwfQ^^^^^^^^^^^^^^^^^",
"^^^^^^^^^^^^^^^~VewwwwwwwweN~^^^^^^^^^^^^^^^^^!MewwwwwwwwyV~^^^^^^^^~AtwwwwwwwwwgQ^^^^^^^^^^^^^^^^^~VewwwwwwwwwN~^^^^^^^^^^^^^^^",
"^^^^^^^^^^^^^^SywwwwwwwwwfQ^^^^^^^^^^^^^^^^^~Zewwwwwwwwwj!^^^^^^^^^^^^~NewwwwwwwweB~^^^^^^^^^^^^^^^^^QhwwwwwwwwwtZ^^^^^^^^^^^^^^",
"^^^^^^^^^^^^UiwwwwwwwwwpU^^^^^^^^^^^^^^^^^^DuwwwwwwwwwfT^^^^^^^^^^^^^^^^TfwwwwwwwwwuS~^^^^^^^^^^^^^^^^^YdwwwwwwwwwiI^^^^^^^^^^^^",
"^^^^^^^^^^QgwwwwwwwwwuA^^^^^^^^^^^^^^^^^^TswwwwwwwwwiD^^^^^^^^^^^^^^^^^^^^UiwwwwwwwwwpY^^^^^^^^^^^^^^^^^^DuwwwwwwwwwfT^^^^^^^^^^",
"^^^^^^^^~BwwwwwwwwweB~^^^^^^^^^^^^^^^^^!MwwwwwwwwweC~^^^^^^^^^^^^^^^^^^^^^^^AywwwwwwwwwhQ^^^^^^^^^^^^^^^^^~ZewwwwwwwweM!^^^^^^^^",
"^^^^^^^AywwwwwwwwwgQ^^^^^^^^^^^^^^^^^~VewwwwwwwweM!^^^^^^^^^^^^^^^^^^^^^^^^^^~BewwwwwwwweB~^^^^^^^^^^^^^^^^^QMewwwwwwwwyZ~^^^^^^",
"^^^^^IiwwwwwwwwwaY^^^^^^^^^^^^^^^^^^SuwwwwwwwwwfQ^^^^^^^^^^^^^^^^^^^^^^^^^^^^^^TfwwwwwwwwwuS~^^^^^^^^^^^^^^^^^YawwwwwwwwwiI^^^^^",
"^^^~NwwwwwwwwwuA^^^^^^^^^^^^^^^^^^YpwwwwwwwwwiL^^^^^^^^^^^^^^^^^^^^^^^^^^^^^^^^^^UpwwwwwwwwwpU^^^^^^^^^^^^^^^^^^Duwwwwwwwwwj~^^^",
"^^~pwwwwwwwweV~^^^^^^^^^^^^^^^^^QhwwwwwwwwwyA^^^^^^^^^^^^^^^^^^^^^^^^^^^^^^^^^^^^^^AywwwwwwwwwgQ^^^^^^^^^^^^^^^^^~Vewwwwwwwwp~^^",
"^^dwwwwwwwwh!^^^^^^^^^^^^^^^^^~BewwwwwwwwwB~^^^^^^^^^^^^^^^^^^^^^^^^^^^^^^^^^^^^^^^^~BewwwwwwwweB~^^^^^^^^^^^^^^^^^!nwwwwwwwws^^",
"^ZwwwwwwwpY^^^^^^^^^^^^^^^^^^SywwwwwwwwwgQ^^^^^^^^^^^^^^^^^^^^^^^^^^^^^^^^^^^^^^^^^^^^QjwwwwwwwwwtZ^^^^^^^^^^^^^^^^^^YdwwwwwwwZ^",
"~ewwwwwuD^^^^^^^^^^^^^^^^^^IpwwwwwwwwwpU^^^^^^^^^^^^^^^^^^^^^^^^^^^^^^^^^^^^^^^^^^^^^^^^UpwwwwwwwwwpU^^^^^^^^^^^^^^^^^^Duwwwwwy~",
"Awwwwwi~^^^^^^^^^^^^^^^^^QgwwwwwwwwwyS^^^^^^^^^^^^^^^^^^^^^^^^^^^^^^^^^^^^^^^^^^^^^^^^^^^^SywwwwwwwwwgT^^^^^^^^^^^^^^^^^~pwwwwwS",
"gwwwwwQ^^^^^^^^^^^^^^^^~NewwwwwwwweB~^^^^^^^^^^^^^^^^^^^^^^^^^^^^^^^^^^^^^^^^^^^^^^^^^^^^^^~BewwwwwwwweN!^^^^^^^^^^^^^^^^Twwwwwg",
"uwwwwf^^^^^^^^^^^^^^^~AywwwwwwwwwhQ^^^^^^^^^^^^^^^^^^^^^^^^^^^^^^^^^^^^^^^^^^^^^^^^^^^^^^^^^^QhwwwwwwwwwtA^^^^^^^^^^^^^^^^fwwwwu",
"ewwwwB^^^^^^^^^^^^^^IpwwwwwwwwwaY^^^^^^^^^^^^^^^^^^^^^^^^^^^^^^^^^^^^^^^^^^^^^^^^^^^^^^^^^^^^^^YawwwwwwwwwiI^^^^^^^^^^^^^^Nwwwwe",
"ewwwwN^^^^^^^^^^^^TfwwwwwwwwwuS^^^^^^^^^^^^^^^^^^^^^^^^^^^^^^^^^^^^^^^^^^^^^^^^^^^^^^^^^^^^^^^^^^SuwwwwwwwwwfT^^^^^^^^^^^^Nwwwwy",
"iwwwwp^^^^^^^^^^!NewwwwwwwweV~^^^^^^^^^^^^^^^^^^^^^^^^^^^^^^^^^^^^^^^^^^^^^^^^^^^^^^^^^^^^^^^^^^^^~VewwwwwwwweN!^^^^^^^^^^pwwwwi",
"MwwwwwI^^^^^^^^Ztwwwwwwwwwh!^^^^^^^^^^^^^^^^^^^^^^^^^^^^^^^^^^^^^^^^^^^^^^^^^^^^^^^^^^^^^^^^^^^^^^^^!hwwwwwwwwwyA~^^^^^^^DwwwwwM",
"DwwwwweU^^^^^IiwwwwwwwwwdY^^^^^^^^^^^^^^^^^^^^^^^^^^^^^^^^^^^^^^^^^^^^^^^^^^^^^^^^^^^^^^^^^^^^^^^^^^^^YdwwwwwwwwwiI^^^^^UywwwwwI",
"^iwwwwwwhCmCdwwwwwwwwwuD^^^^^^^^^^^^^^^^^^^^^^^^^^^^^^^^^^^^^^^^^^^^^^^^^^^^^^^^^^^^^^^^^^^^^^^^^^^^^^^^DuwwwwwwwwwsZbCgwwwwwwi~",
"^IwwwwwwwwwwwwwwwwwweV~^^^^^^^^^^^^^^^^^^^^^^^^^^^^^^^^^^^^^^^^^^^^^^^^^^^^^^^^^^^^^^^^^^^^^^^^^^^^^^^^^^~AewwwwwwwwwwwwwwwwwwI^",
"^^Nwwwwwwwwwwwwwwwwj!^^^^^^^^^^^^^^^^^^^^^^^^^^^^^^^^^^^^^^^^^^^^^^^^^^^^^^^^^^^^^^^^^^^^^^^^^^^^^^^^^^^^^^!MwwwwwwwwwwwwwwwwV^^",
"^^^NwwwwwwwwwwwwwdY^^^^^^^^^^^^^^^^^^^^^^^^^^^^^^^^^^^^^^^^^^^^^^^^^^^^^^^^^^^^^^^^^^^^^^^^^^^^^^^^^^^^^^^^^^YdwwwwwwwwwwwwwN^^^",
"^^^^SywwwwwwwwwuD^^^^^^^^^^^^^^^^^^^^^^^^^^^^^^^^^^^^^^^^^^^^^^^^^^^^^^^^^^^^^^^^^^^^^^^^^^^^^^^^^^^^^^^^^^^^^^DuwwwwwwwwwyD^^^^",
"^^^^^~ZtwwwwqsD^^^^^^^^^^^^^^^^^^^^^^^^^^^^^^^^^^^^^^^^^^^^^^^^^^^^^^^^^^^^^^^^^^^^^^^^^^^^^^^^^^^^^^^^^^^^^^^^^^IsqwwwwrA~^^^^^",
"^^^^^^^c.$%$ R^^^^^^^^^^^^^^^^^^^^^^^^^^^^^^^^^^^^^^^^^^^^^^^^^^^^^^^^^^^^^^^^^^^^^^^^^^^^^^^^^^^^^^^^^^^^^^^^^^^^R o%@ c^^^^^^^",
"^^^^^^^x     R^^^^^^^^^^^^^^^^^^^^^^^^^^^^^^^^^^^^^^^^^^^^^^^^^^^^^^^^^^^^^^^^^^^^^^^^^^^^^^^^^^^^^^^^^^^^^^^^^^^^R     c^^^^^^^",
"^^^^^^^c     R^^^^^^^^^^^^^^^^^^^^^^^^UVNNVD~^^^^^^^^^^^^^^^^^^^^^^^^^^^^^^^^^^^^^^~DVMNZU~^^^^^^^^^^^^^^^^^^^^^^^R     c^^^^^^^",
"^^^^^^^c     R^^^^^^^^^^^^^^^^^^^^^~VtwwwwwwehQ^^^^^^^^^^^^^^^^^^^^^^^^^^^^^^^^^^QjewwwwwwyV~^^^^^^^^^^^^^^^^^^^^^R     c^^^^^^^",
"^^^^^^^c     R^^^^^^^^^^^^^^^^^^^^YywwwwwwwwwwwS^^^^^^^^^^^^^^^^^^^^^^^^^^^^^^^^AwwwwwwwwwwwuY^^^^^^^^^^^^^^^^^^^^R     c^^^^^^^",
"^^^^^^^c     R^^^^^^^^^^^^^^^^^^^IewwwwwwwwwwwwwV^^^^^^^^^^^^^^^^^^^^^^^^^^^^^^BwwwwwwwwwwwwweI^^^^^^^^^^^^^^^^^^^R     c^^^^^^^",
"^^^^^^^c     R^^^^^^^^^^^^^^^^^^TewwwwwwwwwwwwwwwS^^^^^^^^^^^^^^^^^^^^^^^^^^^^SwwwwwwwwwwwwwwweT^^^^^^^^^^^^^^^^^^R     c^^^^^^^",
"^^^^^^^c     R^^^^^^^^^^^^^^^^^^pwwwwwwwyywwwwwwwt!^^^^^^^^^^^^^^^^^^^^^^^^^^!ewwwwwwwuywwwwwwwd^^^^^^^^^^^^^^^^^^R     c^^^^^^^",
"^^^^^^^c     R^^^^^^^^^^^^^^^^^IwwwwwwhT^^!BewwwwwN^^^^^^^^^^^^^^^^^^^^^^^^^^NwwwwweB!^^TgwwwwwwI^^^^^^^^^^^^^^^^^R     c^^^^^^^",
"^^^^^^^c     R^^^^^^^^^^^^^^^^^gwwwwwB^^^^^^Iwwwwwy~^^^^^^^^^^^^^^^^^^^^^^^^^ywwwweI^^^^^^Bwwwwwg^^^^^^^^^^^^^^^^^R     c^^^^^^^",
"^^^^^^^c     R^^^^^^^^^^^^^^^^~ewwwwp^^^^^^^^NwwwwwwwwwwwwwwwwwwwwwwwwwwwwwwwwwwwwN^^^^^^^~pwwwwe~^^^^^^^^^^^^^^^^R     c^^^^^^^",
"^^^^^^^c     R^^^^^^^^^^^^^^^^QwwwwwZ^^^^^^^^TwwwwwwwwwwwwwwwwwwwwwwwwwwwwwwwwwwwwT^^^^^^^^Zwwwww!^^^^^^^^^^^^^^^^R     c^^^^^^^",
"^^^^^^^c     R^^^^^^^^^^^^^^^^YwwwwwU^^^^^^^^~wwwwwwwwwwwwwwwwwwwwwwwwwwwwwwwwwwww~^^^^^^^^UwwwwwY^^^^^^^^^^^^^^^^R     c^^^^^^^",
"^^^^^^^c     R^^^^^^^^^^^^^^^^TwwwwwD^^^^^^^^^iwwwwwwwwwwwwwwwwwwwwwwwwwwwwwwwwwwi^^^^^^^^^DwwwwwT^^^^^^^^^^^^^^^^R     c^^^^^^^",
"^^^^^^^c     R^^^^^^^^^^^^^^^^~wwwwwM^^^^^^^^^DwwwwwwwwwwwwwwwwwwwwwwwwwwwwwwwwwwD^^^^^^^^^Mwwwww~^^^^^^^^^^^^^^^^R     c^^^^^^^",
"^^^^^^^c     R^^^^^^^^^^^^^^^^^iwwwweT^^^^^^^^^TZZVZZZZVZVVZZZZVZVVZZVVZZZVZVZVZT^^^^^^^^^Twwwwwi^^^^^^^^^^^^^^^^^R     c^^^^^^^",
"^^^^^^^c     R^^^^^^^^^^^^^^^^^BwwwwwuT^^^^^^^^^^^^^^^^^^^^^^^^^^^^^^^^^^^^^^^^^^^^^^^^^^YuwwwwwB^^^^^^^^^^^^^^^^^R     c^^^^^^^",
"^^^^^^^c     R^^^^^^^^^^^^^^^^^!ewwwwwwgZD~^^^^^^^^^^^^^^^^^^^^^^^^^^^^^^^^^^^^^^^^^^~DZgwwwwwwe!^^^^^^^^^^^^^^^^^R     c^^^^^^^",
"^^^^^^^c     R^^^^^^^^^^^^^^^^^^VwwwwwwwwwyT^^^^^^^^^^^^^^^^^^^^^^^^^^^^^^^^^^^^^^^^TywwwwwwwwwC^^^^^^^^^^^^^^^^^^R     c^^^^^^^",
"^^^^^^^c     R^^^^^^^^^^^^^^^^^^^gwwwwwwwwwg^^^^^^^^^^^^^^^^^^^^^^^^^^^^^^^^^^^^^^^^gwwwwwwwwwh^^^^^^^^^^^^^^^^^^^R     c^^^^^^^",
"^^^^^^^c     R^^^^^^^^^^^^^^^^^^^Twwwwwwwwwi^^^^^^^^^^^^^^^^^^^^^^^^^^^^^^^^^^^^^^^^iwwwwwwwwwT^^^^^^^^^^^^^^^^^^^R     c^^^^^^^",
"^^^^^^^c     R^^^^^^^^^^^^^^^^^^~iwwwwwwwwwM^^^^^^^^^^^^^^^^^^^^^^^^^^^^^^^^^^^^^^^^Mwwwwwwwwwi~^^^^^^^^^^^^^^^^^^R     c^^^^^^^",
"^^^^^^^c     R^^^^^^^^^^^^^^^^^^hwwwwwwwwwf~^^^^^^^^^^^^^^^^^^^^^^^^^^^^^^^^^^^^^^^^~fwwwwwwwwwh^^^^^^^^^^^^^^^^^^R     c^^^^^^^",
"^^^^^^^c     R^^^^^^^^^^^^^^^^^YwwwwwwuAT~^^^^^^^^^^^^^^^^^^^^^^^^^^^^^^^^^^^^^^^^^^^^~TAuwwwwwwT^^^^^^^^^^^^^^^^^R     c^^^^^^^",
"^^^^^^^c     R^^^^^^^^^^^^^^^^^Mwwwwwf~^^^^^^^^^^^^^^^^^^^^~^^^^^^^^^^^^^^^^^^^^^^^^^^^^^~fwwwwwM^^^^^^^^^^^^^^^^^R     c^^^^^^^",
"^^^^^^^c     R^^^^^^^^^^^^^^^^^ywwwwu~^^^^^^^^^AfffffffdfffffffffdffdfffffffffffZ^^^^^^^^^~ywwwwy^^^^^^^^^^^^^^^^^R     c^^^^^^^",
"^^^^^^^c     R^^^^^^^^^^^^^^^^!wwwwwB^^^^^^^^^BwwwwwwwwwwwwwwwwwwwwwwwwwwwwwwwwwwV^^^^^^^^^Bwwwww!^^^^^^^^^^^^^^^^R     c^^^^^^^",
"^^^^^^^c     R^^^^^^^^^^^^^^^^TwwwwwI^^^^^^^^^ywwwwwwwwwwwwwwwwwwwwwwwwwwwwwwwwwwt^^^^^^^^^IwwwwwY^^^^^^^^^^^^^^^^R     c^^^^^^^",
"^^^^^^^c     R^^^^^^^^^^^^^^^^YwwwwwI^^^^^^^^~wwwwwwwwwwwwwwwwwwwwwwwwwwwwwwwwwwww~^^^^^^^^IwwwwwT^^^^^^^^^^^^^^^^R     c^^^^^^^",
"^^^^^^^c     R^^^^^^^^^^^^^^^^!wwwwwV^^^^^^^^UwwwwwwwwwwwwwwwwwwwwwwwwwwwwwwwwwwwwU^^^^^^^^Bwwwww!^^^^^^^^^^^^^^^^R     c^^^^^^^",
"^^^^^^^c     R^^^^^^^^^^^^^^^^^ywwwwy~^^^^^^^fwwwwwdffdfffffdffffffdfffffffdfwwwwwf^^^^^^^~ywwwwu^^^^^^^^^^^^^^^^^R     c^^^^^^^",
"^^^^^^^c     R^^^^^^^^^^^^^^^^^Mwwwwwf~^^^^^Bwwwwwi^^^^^^^^^^^^^^^^^^^^^^^^^^iwwwwwB^^^^^~fwwwwwM^^^^^^^^^^^^^^^^^R     c^^^^^^^",
"^^^^^^^c     R^^^^^^^^^^^^^^^^^TwwwwwwuZPKSswwwwwwA^^^^^^^^^^^^^^^^^^^^^^^^^^ZwwwwwwdSKPZuwwwwwwT^^^^^^^^^^^^^^^^^R     c^^^^^^^",
"^^^^^^^c     R^^^^^^^^^^^^^^^^^^hwwwwwwwwwwwwwwwwi~^^^^^^^^^^^^^^^^^^^^^^^^^^~iwwwwwwwwwwwwwwwwn^^^^^^^^^^^^^^^^^^R     c^^^^^^^",
"^^^^^^^c     R^^^^^^^^^^^^^^^^^^~iwwwwwwwwwwwwwweY^^^^^^^^^^^^^^^^^^^^^^^^^^^^Tewwwwwwwwwwwwwwi~^^^^^^^^^^^^^^^^^^R     c^^^^^^^",
"^^^^^^^c     R^^^^^^^^^^^^^^^^^^^QiwwwwwwwwwwwweI^^^^^^^^^^^^^^^^^^^^^^^^^^^^^^IewwwwwwwwwwwwiQ^^^^^^^^^^^^^^^^^^^R     c^^^^^^^",
"^^^^^^^c     R^^^^^^^^^^^^^^^^^^^^~gwwwwwwwwwwpT^^^^^^^^^^^^^^^^^^^^^^^^^^^^^^^^Tpwwwwwwwwwwg~^^^^^^^^^^^^^^^^^^^^R     c^^^^^^^",
"^^^^^^^c     R^^^^^^^^^^^^^^^^^^^^^^UgwwwwwwsS^^^^^^^^^^^^^^^^^^^^^^^^^^^^^^^^^^^~DdwwwwwwgY^^^^^^^^^^^^^^^^^^^^^^R     c^^^^^^^",
"^^^^^^^c     R^^^^^^^^^^^^^^^^^^^^^^^^8%==&,^^^^^^^^^^^^^^^^^^^^^^^^^^^^^^^^^^^^^^^^,&=*%8^^^^^^^^^^^^^^^^^^^^^^^^R     c^^^^^^^",
"^^^^^^^c     R^^^^^^^^^^^^^^^^^^^^^^^^8    -^^^^^^^^^^^^^^^^^^^^^^^^^^^^^^^^^^^^^^^^-    8^^^^^^^^^^^^^^^^^^^^^^^^R     c^^^^^^^",
"^^^^^^^c     R^^^^^^^^^^^^^^^^^^^^^^^^8    -^^^^^^^^^^^^^^^^^^^^^^^^^^^^^^^^^^^^^^^^-    8^^^^^^^^^^^^^^^^^^^^^^^^R     c^^^^^^^",
"^^^^^^^c     R^^^^^^^^^^^^^^^^^^^^^^^^8    -^^^^^^^^^^^^^^^^^^^^^^^^^^^^^^^^^^^^^^^^-    8^^^^^^^^^^^^^^^^^^^^^^^^R     c^^^^^^^",
"^^^^^^^c     R^^^^^^^^^^^^^^^^^^^^^^^^8    -^^^^^^^^^^^^^^^^^^^^^^^^^^^^^^^^^^^^^^^^-    8^^^^^^^^^^^^^^^^^^^^^^^^R     c^^^^^^^",
"^^^^^^^c     R^^^^^^^^^^^^^^^^^^^^^^^^8    -^^^^^^^^^^^^^^^^^^^^^^^^^^^^^^^^^^^^^^^^-    8^^^^^^^^^^^^^^^^^^^^^^^^R     c^^^^^^^",
"^^^^^^^c     R^^^^^^^^^^^^^^^^^^^^^^^^8    -^^^^^^^^^^^^^^^^^^^^^^^^^^^^^^^^^^^^^^^^-    8^^^^^^^^^^^^^^^^^^^^^^^^R     c^^^^^^^",
"^^^^^^^c     R^^^^^^^^^^^^^^^^^^^^^^^^8    -^^^^^^^^^^^^^^^^^^^^^^^^^^^^^^^^^^^^^^^^-    8^^^^^^^^^^^^^^^^^^^^^^^^R     c^^^^^^^",
"^^^^^^^c     R^^^^^^^^^^^^^^^^^^^^^^^^8    -^^^^^^^^^^^^^^^^^^^^^^^^^^^^^^^^^^^^^^^^-    8^^^^^^^^^^^^^^^^^^^^^^^^R     c^^^^^^^",
"^^^^^^^c     R^^^^^^^^^^^^^^^^^^^^^^^^8    -^^^^^^^^^^^^^^^^^^^^^^^^^^^^^^^^^^^^^^^^-    8^^^^^^^^^^^^^^^^^^^^^^^^R     c^^^^^^^",
"^^^^^^^c     R^^^^^^^^^^^^^^^^^^^^^^^^8    -^^^^^^^^^^^^^^^^^^^^^^^^^^^^^^^^^^^^^^^^-    8^^^^^^^^^^^^^^^^^^^^^^^^R     c^^^^^^^",
"^^^^^^^c     R^^^^^^^^^^^^^^^^^^^^^^^^8    -^^^^^^^^^^^^^^^^^^^^^^^^^^^^^^^^^^^^^^^^-    8^^^^^^^^^^^^^^^^^^^^^^^^R     c^^^^^^^",
"^^^^^^^c     R^^^^^^^^^^^^^^^^^^^^^^^^8    -^^^^^^^^^^^^^^^^^^^^^^^^^^^^^^^^^^^^^^^^-    8^^^^^^^^^^^^^^^^^^^^^^^^R     c^^^^^^^",
"^^^^^^^c     R^^^^^^^^^^^^^^^^^^^^^^^^8    -^^^^^^^^^^^^^^^^^^^^^^^^^^^^^^^^^^^^^^^^-    8^^^^^^^^^^^^^^^^^^^^^^^^R     c^^^^^^^",
"^^^^^^^c     R^^^^^^^^^^^^^^^^^^^^^^^^8    -^^^^^^^^^^^^^^^^^^^^^^^^^^^^^^^^^^^^^^^^-    8^^^^^^^^^^^^^^^^^^^^^^^^R     c^^^^^^^",
"^^^^^^^c     R^^^^^^^^^^^^^^^^^^^^^^^^8    -^^^^^^^^^^^^^^^^^^^^^^^^^^^^^^^^^^^^^^^^-    8^^^^^^^^^^^^^^^^^^^^^^^^R     c^^^^^^^",
"^^^^^^^c     R^^^^^^^^^^^^^^^^^^^^^^^^8    -^^^^^^^^^^^^^^^^^^^^^^^^^^^^^^^^^^^^^^^^-    8^^^^^^^^^^^^^^^^^^^^^^^^R     c^^^^^^^",
"^^^^^^^c     R^^^^^^^^^^^^^^^^^^^^^^^^8    -^^^^^^^^^^^^^^^^^^^^^^^^^^^^^^^^^^^^^^^^-    8^^^^^^^^^^^^^^^^^^^^^^^^R     c^^^^^^^",
"^^^^^^^c     R^^^^^^^^^^^^^^^^^^^^^^^^8    -^^^^^^^^^^^^^^^^^^^^^^^^^^^^^^^^^^^^^^^^-    8^^^^^^^^^^H63333334434332     >33435x^",
"^^^^^^^c     R^^^^^^^^^^^^^^^^^^^^^^^^8    -^^^^^^^^^^^^^^^^^^^^^^^^^^^^^^^^^^^^^^^^-    8^^^^^^^^^JX                          k",
"^^^^^^^c     R^^^^^^^^^^^^^^^^^^^^^^^^8    -^^^^^^^^^^^^^^^^^^^^^^^^^^^^^^^^^^^^^^^^-    8^^^^^^^^^9                           #",
"^^^^^^^c     R^^^^^^^^^^^^^^^^^^^^^^^^8    -^^^^^^^^^^^^^^^^^^^^^^^^^^^^^^^^^^^^^^^^-    8^^^^^^^^^8                            ",
"^^^^^^^c     R^^^^^^^^^^^^^^^^^^^^^^^^8    -^^^^^^^^^^^^^^^^^^^^^^^^^^^^^^^^^^^^^^^^-    8^^^^^^^^^8                            ",
"^^^^^^^c     R^^^^^^^^^^^^^^^^^^^^^^^^8    -^^^^^^^^^^^^^^^^^^^^^^^^^^^^^^^^^^^^^^^^-    8^^^^^^^^^7    X34343433333:#-233;     ",
"^^^^^^^c     R^^^^^^^^^^^^^^^^^^^^^^^^8    -^^^^^^^^^^^^^^^^^^^^^^^^^^^^^^^^^^^^^^^^-    8^^^^^^^^^8    ;^^^^^^^^^^^^^^^^^k     ",
"^^^^^^^c     R^^^^^^^^^^^^^^^^^^^^^^^^8    -^^^^^^^^^^^^^^^^^^^^^^^^^^^^^^^^^^^^^^^^-    8^^^^^^^^^8    ;^^^^^^^^^^^^^^^^^k     ",
"^^^^^^^c     R^^^^^^^^^^^^^^^^^^^^^^^^8    -^^^^^^^^^^^^^^^^^^^^^^^^^^^^^^^^^^^^^^^^-    8^^^^^^^^^8    -^^^^^^^^^^^^^^^^^k     ",
"^^^^^^^c     R^^^^^^^^^^^^^^^^^^^^^^^^8    -^^^^^^^^^^^^^^^^^^^^^^^^^^^^^^^^^^^^^^^^-    8^^^^^^^^^8    ;^^^^^^^^^^^^^^^^^k     ",
"^^^^^^^c     R^^^^^^^^^^^^^^^^^^^^^^^^8    -^^^^^^^^^^^^^^^^^^^^^^^^^^^^^^^^^^^^^^^^-    8^^^^^^^^^7    ;^^^^^^^^^^^^^^^^^k     ",
"^^^^^^^c     R^^^^^^^^^^^^^^^^^^^^^^^^8    -^^^^^^^^^^^^^^^^^^^^^^^^^^^^^^^^^^^^^^^^-    8^^^^^^^^^8    -^^^^^^^^^^^^^^^^^k     ",
"^^^^^^^c     R^^^^^^^^^^^^^^^^^^^^^^^^8    -^^^^^^^^^^^^^^^^^^^^^^^^^^^^^^^^^^^^^^^^-    8^^^^^^^^^7    ;^^^^^^^^^^^^^^^^^k     ",
"^^^^^^^c     R^^^^^^^^^^^^^^^^^^^^^^^^8    -^^^^^^^^^^^^^^^^^^^^^^^^^^^^^^^^^^^^^^^^-    8^^^^^^^^^8    ;^^^^^^^^^^^^^^^^^k     ",
"^^^^^^^c     R^^^^^^^^^^^^^^^^^^^^^^^^8    -^^^^^^^^^^^^^^^^^^^^^^^^^^^^^^^^^^^^^^^^-    8^^^^^^^^^8    -^^^^^^^^^^^^^^^^^k     ",
"^^^^^^^c     0zzzzzzzzzzzzzzzzzzzzzzzz1    +zzzzzzzzzzzzzzzzzzzzzzzzzzzzzzzzzzzzzzzz+    1zzzzllllz1    X55555555555557lzz3     ",
"^^^^^^^c                                                                                                                        ",
"^^^^^^^c                                                                                                                        ",
"^^^^^^^v                                                                                                                       X",
"^^^^^^^EO                                                                                                                      6",
"^^^^^^^^G<                                                                                                                   X6W"
};
