/* XPM */
static char *output_onlinepngtools1710187624[] = {
/* columns rows colors chars-per-pixel */
"64 64 93 2 ",
"   c #7C81DC",
".  c #7C80DD",
"X  c #7C81DD",
"o  c #7E83DE",
"O  c #7F84DE",
"+  c #8286DE",
"@  c #8388DF",
"#  c #8488DF",
"$  c #858ADF",
"%  c #868AE0",
"&  c #878CE1",
"*  c #8A8EE1",
"=  c #8C91E1",
"-  c #8D92E2",
";  c #8F93E2",
":  c #9296E3",
">  c #9599E3",
",  c #979BE4",
"<  c #999DE4",
"1  c #9B9FE5",
"2  c #9CA0E5",
"3  c #9EA3E6",
"4  c #9FA3E6",
"5  c #9FA3E7",
"6  c #A1A5E7",
"7  c #A2A6E7",
"8  c #A4A8E7",
"9  c #A5A8E8",
"0  c #A5A9E8",
"q  c #A8ABE8",
"w  c #A9ACE9",
"e  c #ACAFEA",
"r  c #AEB1EA",
"t  c #AFB2EA",
"y  c #AFB2EB",
"u  c #B0B3EA",
"i  c #B1B4EB",
"p  c #B2B5EB",
"a  c #B3B6EB",
"s  c #B5B6EC",
"d  c #B7BAEC",
"f  c #B8BAEC",
"g  c #B9BCED",
"h  c #BABDED",
"j  c #BDBFEE",
"k  c #BDC0EE",
"l  c #BEC0EE",
"z  c #C0C2EF",
"x  c #C2C5EF",
"c  c #C3C5EF",
"v  c #C5C7F0",
"b  c #C6C9F0",
"n  c #C9CBF0",
"m  c #CBCDF1",
"M  c #CBCDF2",
"N  c #CCCEF2",
"B  c #CFD1F2",
"V  c #D1D3F3",
"C  c #D2D4F3",
"Z  c #D3D5F4",
"A  c #D5D6F4",
"S  c #D6D7F4",
"D  c #D7D9F5",
"F  c #D9DAF5",
"G  c #DBDCF6",
"H  c #DDDEF6",
"J  c #DFE0F7",
"K  c #E1E2F7",
"L  c #E2E3F8",
"P  c #E3E4F8",
"I  c #E5E6F9",
"U  c #E6E7F8",
"Y  c #E7E8F9",
"T  c #E9EAF9",
"R  c #EBECFA",
"E  c #EEEEFA",
"W  c #EEEFFB",
"Q  c #EFF0FB",
"!  c #F0F1FB",
"~  c #F2F2FC",
"^  c #F3F4FC",
"/  c #F4F4FC",
"(  c #F5F4FC",
")  c #F4F5FC",
"_  c #F6F7FD",
"`  c #F7F7FD",
"'  c #F7F8FD",
"]  c #F8F8FD",
"[  c #FAFBFF",
"{  c #FBFCFE",
"}  c #FDFDFD",
"|  c #FCFCFE",
" . c white",
/* pixels */
" . . . . . . . . . . . . . . . . . . . . . . . . . . . . . . . . . . . . . .' c > $ $ : d E  . . . . . . . . . . . . . . . . . .",
" . . . . . . . . . . . . . . . . . . . . . . . . . . . . . . . . . . . . .Y - .   o . . . o g  . . . . . . . . . . . . . . . . .",
" . . . . . . . . . . . . . . . . . . . . . . . . . . . . . . .{  . . . .) $ . < G { { K p o   6 '  . . . . . . . . . . . . . . .",
" . . . . . . . . . . . . . . . . . . . . . . . . . . . . . . . . . . . .w   7 {  . . . . .I -   7  . . . . . . . . . . . . . . .",
" . . . . . . . . . . . . . . . . . . . . . . . . . . . . . . . . . . .E   $ Q  . . . . . . .( $ o b  . . . . . . . . . . . . . .",
" . . . . . . . . . . . . . . . . . . . . . . . . . . . . . . . . . . .j   p  . . . . . . . . .H   @ '  . . . . . . . . . . . . .",
" . . . . . . . . . . . . . . . . . . . . . . . . . . . . . . . . . . .1 . C  . .T I {  . . . . .6 o n  . . . . . . . . . . . . .",
" . . . . . . . . . . . . . . . . . . . . . . . . . . . . . . . . . . .$   ` A -   . $ S  . . . .S   4  . . . . . . . . . . . . .",
" . . . . . . . . . . . . . . . . . . . . . . . . . . . . . . . . . .{ . $ d . o . . . o E  . . .(   @  . . . . . . . . . . . . .",
" . . . . . . . . . . . . . . . . . . . . . . . . . . . . . . . . . .' . .   $ A { C o   z  . . . .$ o Q  . . . . . . . . . . . .",
" . . . . . . . . . . . . . . . . . . . . . . . . . . . . . . . . . .{ .     H  . . .1 . d  . . . .1   K  . . . . . . . . . . . .",
" . . . . . . . . . . . . . . . . . . . . . . . . . . . . . . . . . .Y   o f  . . . .* . n  . . . .6   H  . . . . . . . . . . . .",
" . . . . . . . . . . . . . . . . . . . . . . . . . . . . . . . . . .1     B  . . .C   @ Q  . . . .4 . H  .}  . . . . . . . . . .",
" . . . . . . . . . . . . . . . . . . . . . . . . . . . . . . . . .n       4  . .) * o 7  . . . . .4   K  . . . . . . . . . . . .",
" . . . . . . . . . . . . . . . . . . . . . . . . . . . . . . . .~ $   + $ o K { 4 .   P  . . . . .>   I  . . . . . . . . . . . .",
" . . . . . . . . . . . . . . . . . . . . . . . . . . . . . . . .8 o   e f . : q . . r  . . . . . .@ . {  . . . . . . . . . . . .",
" . . . . . .{  . . . . . . . . . . . . . . . . . . . . . . . .D     . D { - . . o * `  . . . . .`   *  . . . . . . . . . . . . .",
" . . . . . . . . . . . . . . . . . . . . . . . . . . . . . .{ -   . *  .{ 7   . . D  . . . . . .J   1  . . . . . . . . . . . . .",
" . . . . . . . . . . . . . . . . . . . . . . . . . . . . . .d     . d ' ,   . . . 1 ~  . . . . .b   p  . . . . . . . . . . . . .",
" . . . . . . . . . . . . . . . . . . . . . . . . . . . . .P . . . . n -     . 4 - . $ V  . . . .8   V  . . . . . . . . . . . . .",
" . . . . . . . . . . . . . . . . . . . . . . . . . . . .{ : X X . . $ .     : { ( 7   o 4 I  . .% . ~  . . . . . . . . . . . . .",
" . . . . . . . . . . . . . . . . . . . . . . . . . . . .b X X X . o       $ T  . . .V @   o e F   :  . . . . . . . . . . . . . .",
" . . . . . . . . . . . . . . . . . . . . . . .{  . . .Q % .   o   .       D  . . . . .( g +       r  . . . . . . . . . . . . . .",
" . . . . . . . . . . . . . . . . . . . . . . . . . . .0 . . . . o . o   l  . . . . . . . .Q r     $ d '  . . . . . . . . . . . .",
" . . . . . . . . . . . . . . . . . . . . . . . . . .S     o . o . . . 7  . . . . . . . . . .E       . - I  . . . . . . . . . . .",
" . . . . . . . . . . . . . . . . . . . . . . . . .` *   . . .   o   - '  . . . . . . . . . .c . w I 1   + P  . . . . . . . . . .",
" . . . . . . . . . . . . . . . . . . . . . . . . .s       o     . & I  . . . . . . . . . . .> o G  . .r   $ E  . . . . . . . . .",
" . . . . . . . . . . . . . . . . . . . . . . . .I             . . Z {  . . . . . . . . . .Y o $  . . . .q   - {  . . . . . . . .",
" . . . . . . . . . . . . . . . . . . . . . . . .>   .   . . . . g  . . . . . . . . . . . .d o s  . . . .{ , . t  . . . . . . . .",
" . . . . . . . . . . . . . . . . . . . . . . .c     o o   . . 6  . . . . . . . . . . . . .*   K  . . . . .E + . D  . . . . . . .",
" . . . . . . . . . . . . . . . . . . . . . .E +   . . . o . - `  . . . . . . . . . . . .D o :  . . . . . . .b . - {  . . . . . .",
" . . . . . . . . . . . . . . . . . . . . . .6     . . . . $ Y  . . . . . . . . . . . . .6 . b  . . . . . . . ., . c  . . . . . .",
" . . . . . . . . . . . . . . . . . . . .{ Z . o o       . V  . . . . . . . . . . . . .E o + `  . . . . . . . .H   $ `  . . . . .",
" . . . . . . . . . . . . . . . . . . . .' & .           f  . . . . . . . . . . . . . .g   r  . . . . . . . . . .8 o g  . . . . .",
" . . . . . . . . . . . . . . . . . . . .y   . . . .   3  . . . . . . . . . . . . . . .*   K  . . . . . . . . . .I . + {  . . . .",
" . . . . . . . . . . . . . . . . . . .P     o   . . - (  . . . . . . . . . . . . . .D   >  . . . . . . . . . . . .4 o b  . . . .",
" . . . . . . . . .{  . . . . . . . . .:       . . o Y  . . . . . . . . . . . . . . .q   v  . . . . . . . . . . . .S   -  . . . .",
" . . . . . . . . . . . . . . . . . .l .     o . o C  . . . . . . . . . . . . . . .{ + o ~  . . . . . . . . . . . . .: . V  . . .",
" . . . . . . . . . . . . . . . . .E + .     . . d  . . . . . . . . . . . . . . . .B o 7  . . . . . . . . . . . . . .n o 4  . . .",
" . . . . . . . . . . . . . . . . .3     . . . 4 {  . . . . . . . . . . . . . . . .7 . n  . . . . . . . . . . . . . .` + o !  . .",
" . . . . . . . . . . . . . . . .B   o . . . - )  . . . . . . . . . . . . . . . . .* . E  . . . . . . . . . . . . . . .r   T  . .",
" . . . . . . . . . . . . . . .` &   . . . $ P  . . . . .}  . . . . . . . . . . .E o $  . . . . . . . . . . . . . . . . .(  . . .",
" . . . . . . . . . . . . . . .r     . . . B  . . . . . . . . . . . . . . . . . .C   8  . . . . . . . . . . . . . . . . . . . . .",
" . . . . . . . . . . . . . .H       . . d  . . . . . . . . . . . . . . . . . . .j o j  . . . . . . . . . . . . . . . . . . . . .",
" . . . . . . . . . . . . .{ -     . . 2 {  . . . . . . . . . . . . . . . . . . .p o n  . . . . . . . . . . . . . . . . . . . . .",
" . . . . . . . . . . . . .l o .   . * !  . . . . . . . . . . . . . . . . . . . .6 . F  . . . . . . . . . . . . . . . . . . . . .",
" . . . . . . . . . . . .Y @ . .   $ P  . . . . . . . . . . . . . . . . . . . . .1 . K  . . . . . . . . . . . . . . . . . . . . .",
" . . . . . . . . . . . .3 . . o o n  . . . . . . . . . . . . . . . . . . . . . .4 . K  . . . . . . . . . . . . . . . . . . . . .",
" . . . . . . . . . . .n o   . . p  . . . . . . . . . . . . . . . . . . . . . . .6   K  . . . . . . . . . . . . . . . . . . . . .",
" . . . . . . . . . .` $     o 1 {  . . . . . . . . . . . . . . . . . . . . . . .8   S  . . . . . . . . . . . . . . . . . . . . .",
" . . . . . . . . . .w     . % ~  . . . . . . . . . . . . . . . . . . . . . . . .f   c  . . . . . . . . . . . . . . . . . . . . .",
" . . . . . . . . .H       + K  . . . . . . . . . . . . . . . . . . . . . . . . .V   r  . . . . . . . . . . . . . . . . . . . . .",
" . . . . . . . .{ -     . n  . . . . . . . . . . . . . . . . . . . . . . . . . .Y   =  . . . . . . . . . . . . . . . . . . . . .",
" . . . . . . . .f .     p  . . . . . . . . . . . . . . . . . . . . . . . . . . . .:   J  . . . . . . . . . . . . . . . . . . . .",
" . . . . . . .I % o   1  . . . . . . . . . . . . . . . . . . . . . . . . . . . . .z   3  . . . . . . . . . . . . . . . . . . . .",
" . . . . . .{ 1 . . @ ~  . . . . . . . . . . . . . . . . . . . . . . . . . . . . .{ -   r  . . . . . . . . . . . . . . . . . . .",
" . . . . . .n . .   K  . . . . . . . . . . . . . . . . . . . . . . . . . . . . . . .K $   E  . . . . . . . . . . . . . . . . . .",
" . . . . .~ +   . n  . . . . . . . . . . . .|  . . . . . . . . . . . . . . . . . . . .Y V  . . . . . . . . . . . . . . . . . . .",
" . . . . .8 o . w  . . . . . . . . . . . . . . . . . . . . . . . . . . . . . . . . . . . . . . . . . . . . . . . . . . . . . . .",
" . . . .G   o > {  . . . . . . . . . . . . . . . . . . . . . . . . . . . . . . . . . . . . . . . . . . . . . . . . . . . . . . .",
" . . .{ -   $ ~  . . . . . . . . . . . . . . . . . . . . . . . . . . . . . . . . . . .}  . . . . . . . . . . . . . . . . . . . .",
" . . .p   o K  . . . . . . . . . . . . . . . . . . . . . . . . . . . . . . . . . . . . . . . . . . . . . .}  . . . . . . . . . .",
" . .Q   o b  . . . . . . . . . . . . . . . . . . . . . . . . . . . . . . . . . . . . . . . . . . . . . . . . . . . . . . . . . .",
" . .E + p {  . . . . . . . . . . . . . . . . . . . . . . . . . . . . . . . . . . . . . . . . . . . . . . . . . . . . . . . . . ."
};
