/* XPM */
static char *f0e26b0998e54a3bc592a923bc9bf29dYTfb3Lv68IQp2AHI[] = {
/* columns rows colors chars-per-pixel */
"64 64 38 1 ",
"  c #BD9BF4",
". c #BE9CF4",
"X c #C1A1F5",
"o c #C3A4F5",
"O c #C5A7F5",
"+ c #C5A8F5",
"@ c #CAAFF6",
"# c #CBB1F6",
"$ c #CCB1F6",
"% c #CDB4F7",
"& c #D0B7F7",
"* c #D2BBF7",
"= c #D2BBF8",
"- c #D3BDF8",
"; c #D4BDF8",
": c #D7C3F8",
"> c #D8C3F8",
", c #DAC7F9",
"< c #DDCBF9",
"1 c #DDCCF9",
"2 c #E1D1FA",
"3 c #E3D4FA",
"4 c #E5D7FB",
"5 c #E6D9FB",
"6 c #E8DCFB",
"7 c #EADFFC",
"8 c #EBE1FC",
"9 c #ECE2FC",
"0 c #EDE4FC",
"q c #F0E9FD",
"w c #F3EDFD",
"e c #F4EEFD",
"r c #F6F2FE",
"t c #F7F4FE",
"y c #F8F4FE",
"u c #FBFAFE",
"i c #FCFBFF",
"p c white",
/* pixels */
"pppppppppppppppppppppppppppppppppppppppppppppppppppppppppppppppp",
"pppppppppppppppppppppppppppppppppppppppppppppppppppppppppppppppp",
"pppppppppppppppppppppppppppppppppppppppppppppppppppppppppppppppp",
"pppppppppppppppppppppppppppppppppppppppppppppppppppppppppppppppp",
"pppppppppppppppppppppppppppppppppppppppppppppppppppppppppppppppp",
"pppppppppppppppppppppppppppppppppppppppppppppppppppppppppppppppp",
"pppppppppppppppppppppppppppppppppppppppppppppppppppppppppppppppp",
"pppppppppppppppppppppppppppppppppppppppppppppppppppppppppppppppp",
"pppppppppppppppppppppppppppppppppppppppppppppppppppppppppppppppp",
"pppppppppppppp0&:ippppppppppppppppppppppppppppi:%0pppppppppppppp",
"pppppppppppppp+  1pppppppppppppppppppppppppppp1  +pppppppppppppp",
"ppppppppppppppX51*pppppppppppppppppppppppppppp*15Xpppppppppppppp",
"pppppppppppppp@ey@pppppppppppppppppppppppppppp@ye@pppppppppppppp",
"pppppppppppppp-0pOppppppppppppy::yppppppppppppOp0-pppppppppppppp",
"pppppppppppppp<:2otppppppppppp*  :pppppppppppto2:<pppppppppppppp",
"pppppppppppppp5   0ppppppppppp@11$ppppppppppp0   5pppppppppppppp",
"pppppppppppppp0   5ppppppppppp@wr$ppppppppppp5   0pppppppppppppp",
"ppppppppppppppu   2ppppppppppp@yy$ppppppppppp1   upppppppppppppp",
"ppppppppppppppp+  ,ppppppppppp@44$ppppppppppp,  +ppppppppppppppp",
"ppppppppppppppp-  ;ppppppppppp@  $ppppppppppp-  -ppppppppppppppp",
"ppppppppppppppp1  %ppppppppppp@  $ppppppppppp%  1ppppppppppppppp",
"ppppppppppppppp9  +ppppppppppp$  %ppppppppppp+  9ppppppppppppppp",
"pppppppppppppppy  Xppppppppppp%  =pppppppppppX  yppppppppppppppp",
"ppppppppppppppppo  ipppppppppp*  :ppppppppppi  opppppppppppppppp",
"pppppppppppppppp&  rpppppppppp:  ,ppppppppppr  *pppppppppppppppp",
"pppppppppppppppp<  qpppppppppp,  <ppppppppppq  <pppppppppppppppp",
"pppppppppppppppp6  7pppppppppp<  1pppppppppp6  6pppppppppppppppp",
"ppppppppppppppppr  4pppppppppp1  2pppppppppp4  rpppppppppppppppp",
"pppppppppppppppppX 1pppppppppp2  4pppppppppp1 Xppppppppppppppppp",
"ppppppppppppppppp$ >pppppppppp4  6pppppppppp: $ppppppppppppppppp",
"ppppppppppppppppp, *pppppppppp6  8pppppppppp* ,ppppppppppppppppp",
"ppppppppppppppppp5 #pppppppppp8  0pppppppppp# 5ppppppppppppppppp",
"pppppppppppppppppw Opppppppppp0  qppppppppppO wppppppppppppppppp",
"pppppppppppppppppp..ppppppppppq  epppppppppp..pppppppppppppppppp",
"pppppppppppppppppp@ upppppppppe  ypppppppppu @pppppppppppppppppp",
"pppppppppppppppppp: epppppppppy  upppppppppe :pppppppppppppppppp",
"pppppppppppppppppp3 0pppppppppu  pppppppppp0 3pppppppppppppppppp",
"pppppppppppppppppp0 6pppppppppp .pppppppppp6 qpppppppppppppppppp",
"ppppppppppppppppppi.2pppppppppp.Xpppppppppp2.ipppppppppppppppppp",
"ppppppppppppppppppp+<ppppppppppX+pppppppppp<+ppppppppppppppppppp",
"ppppppppppppppppppp-:pppppppppp+@pppppppppp:;ppppppppppppppppppp",
"ppppppppppppppppppp2&pppppppppp@$pppppppppp%2ppppppppppppppppppp",
"ppppppppppppppppppp9@pppppppppp$%pppppppppp@9ppppppppppppppppppp",
"pppppppppppppppppppyopppppppppp%=ppppppppppoyppppppppppppppppppp",
"ppppppppppppppppppppOpppppppppp*:ppppppppppOpppppppppppppppppppp",
"pppppppppppppppppppp*yppppppppp:,pppppppppy*pppppppppppppppppppp",
"pppppppppppppppppppp<wppppppppp,<pppppppppw1pppppppppppppppppppp",
"pppppppppppppppppppp69ppppppppp<1ppppppppp96pppppppppppppppppppp",
"ppppppppppppppppppppr5ppppppppp12ppppppppp5rpppppppppppppppppppp",
"ppppppppppppppppppppp4ppppppppp25ppppppppp4ppppppppppppppppppppp",
"ppppppppppppppppppppp7ppppppppp46ppppppppp7ppppppppppppppppppppp",
"pppppppppppppppppppppqppppppppp68pppppppppqppppppppppppppppppppp",
"ppppppppppppppppppppprppppppppp80ppppppppprppppppppppppppppppppp",
"ppppppppppppppppppppppppppppppp0qppppppppppppppppppppppppppppppp",
"pppppppppppppppppppppppppppppppqrppppppppppppppppppppppppppppppp",
"pppppppppppppppppppppppppppppppeyppppppppppppppppppppppppppppppp",
"pppppppppppppppppppppppppppppppyuppppppppppppppppppppppppppppppp",
"pppppppppppppppppppppppppppppppupppppppppppppppppppppppppppppppp",
"pppppppppppppppppppppppppppppppppppppppppppppppppppppppppppppppp",
"pppppppppppppppppppppppppppppppppppppppppppppppppppppppppppppppp",
"pppppppppppppppppppppppppppppppppppppppppppppppppppppppppppppppp",
"pppppppppppppppppppppppppppppppppppppppppppppppppppppppppppppppp",
"pppppppppppppppppppppppppppppppppppppppppppppppppppppppppppppppp",
"pppppppppppppppppppppppppppppppppppppppppppppppppppppppppppppppp"
};
