/* XPM */
static char *output_onlinepngtools_1_1709395523[] = {
/* columns rows colors chars-per-pixel */
"128 128 74 1 ",
"  c #5F76EF",
". c #5D7BEE",
"X c #6766F6",
"o c #6864F7",
"O c #636EF3",
"+ c #6E6AF8",
"@ c #746FF7",
"# c #726EF9",
"$ c #6172F1",
"% c #777FF6",
"& c #7B77F9",
"* c #7D79F9",
"= c #817DF9",
"- c #5785E9",
"; c #5884EA",
": c #35C7CE",
"> c #33CCCC",
", c #3CCECE",
"< c #4ECBD7",
"1 c #44D0D0",
"2 c #4BD2D2",
"3 c #53D4D4",
"4 c #5BD6D6",
"5 c #5DD8D8",
"6 c #62D7D7",
"7 c #64D4DA",
"8 c #6BD7DB",
"9 c #64D9D9",
"0 c #6ADBDB",
"q c #74DDDD",
"w c #7CDEDE",
"e c #7DE0E0",
"r c #8683FA",
"t c #8C89F9",
"y c #918EFA",
"u c #9492FA",
"i c #9D9AFA",
"p c #A19EFB",
"a c #9EA0FA",
"s c #AEABFC",
"d c #B4B2FB",
"f c #B8B6FC",
"g c #B9B8FB",
"h c #82DFDF",
"j c #B2D9F1",
"k c #84E1E1",
"l c #8BE2E2",
"z c #94E4E4",
"x c #9BE6E6",
"c c #A2E7E7",
"v c #A6E6EA",
"b c #ABE5EC",
"n c #A2E8E8",
"m c #ACEBEB",
"M c #B4ECEC",
"N c #BCEEEE",
"B c #BEF0F0",
"V c #C7C6FC",
"C c #CDCCFC",
"Z c #DAD9FD",
"A c #E1DFFD",
"S c #C1EFEF",
"D c #D3EDF6",
"F c #C4F1F1",
"G c #CCF3F3",
"H c #D4F4F5",
"J c #DCF7F7",
"K c #E5E5FE",
"L c #EDEDFE",
"P c #E4F9F9",
"I c #ECFBFB",
"U c #F4F4FE",
"Y c #F4FCFC",
"T c #FFFFFF",
/* pixels */
"TTTTTTTTTTTTTTTTTTTTTTTTTTTTTTTTTTTTTTTTTTTTTTTTTTTTTTTTTTTTNq41,4wNTYTTTTTTTTTTTTTTTTTTTTTTTTTTTTTTTTTTTTTTTTTTTTTTTTTTTTTTTTTT",
"TTTTTTTTTTTTTTTTTTTTTTTTTTTTTTTTTTTTTTTTTTTTTTTTTTTTTTTTTTv2>>>>>>>>2vTTTTTTTTTTTTTTTTTTTTTTTTTTTTTTTTTTTTTTTTTTTTTTTTTTTTTTTTTT",
"TTTTTTTTTTTTTTTTTTTTTTTTTTTTTTTTTTTTTTTTTTTTTTTTTTTTTTTTG3>>>>>>>>>>>>3NTTTTTTTTTTTTTTTTTTTTTTTTTTTTTTTTTTTTTTTTTTTTTTTTTTTTTTTT",
"TTTTTTTTTTTTTTTTTTTTTTTTTTTTTTTTTTTTTTTTTTTTTTTTTTTTTTJ8>>>>>>>>>>>>>>>>8JTTTTTTTTTTTTTTTTTTTTTTTTTTTTTTTTTTTTTTTTTTTTTTTTTTTTTT",
"TTTTTTTTTTTTTTTTTTTTTTTTTTTTTTTTTTTTTTTTTTTTTTTTTTTTYl,>>>>>>>>>>>>>>>>>>>eITTTTTTTTTTTTTTTTTTTTTTTTTTTTTTTTTTTTTTTTTTTTTTTTTTTT",
"TTTTTTTTTTTTTTTTTTTTTTTTTTTTTTTTTTTTTTTTTTTTTTTTTTYv,>>>>>>>>>9ll6>>>>>>>>>1cYTTTTTTTTTTTTTTTTTTTTTTTTTTTTTTTTTTTTTTTTTTTTTTTTTT",
"TTTTTTTTTTTTTTTTTTTTTTTTTTTTTTTTTTTTTTTTTTTTTTTTTN2>>>>>>>>>9HTTTTH9>>>>>>>>>2NTTTTTTTTTTTTTTTTTTTTTTTTTTTTTTTTTTTTTTTTTTTTTTTTT",
"TTTTTTTTTTTTTTTTTTTTTTTTTTTTTTTTTTTTTTTTTTTTTTTJq>>>>>>>>>2MTTTTTTTTS3>>>>>>>>>8JTTTTTTTTTTTTTTTTTTTTTTTTTTTTTTTTTTTTTTTTTTTTTTT",
"TTTTTTTTTTTTTTTTTTTTTTTTTTTTTTTTTTTTTTTTTTTTTYl>>>>>>>>>,xYTTTTTTTTTTYv,>>>>>>>>>eITTTTTTTTTTTTTTTTTTTTTTTTTTTTTTTTTTTTTTTTTTTTT",
"TTTTTTTTTTTTTTTTTTTTTTTTTTTTTTTTTTTTTTTTTTTYv,>>>>>>>>>eITTTTTTTTTTTTTTYl>>>>>>>>>,xYTTTTTTTTTTTTTTTTTTTTTTTTTTTTTTTTTTTTTTTTTTT",
"TTTTTTTTTTTTTTTTTTTTTTTTTTTTTTTTTTTTTTTTTTS3>>>>>>>>>9JTTTTTTTTTTTTTTTTTTJ0>>>>>>>>>2NTTTTTTTTTTTTTTTTTTTTTTTTTTTTTTTTTTTTTTTTTT",
"TTTTTTTTTTTTTTTTTTTTTTTTTTTTTTTTTTTTTTTTJ9>>>>>>>>>2NTTTTTTTTTTTTTTTTTTTTTTG3>>>>>>>>>4HTTTTTTTTTTTTTTTTTTTTTTTTTTTTTTTTTTTTTTTT",
"TTTTTTTTTTTTTTTTTTTTTTTTTTTTTTTTTTTTTTIh>>>>>>>>>1nYTTTTTTTTTTTTTTTTTTTTTTTTTm1>>>>>>>>>qITTTTTTTTTTTTTTTTTTTTTTTTTTTTTTTTTTTTTT",
"TTTTTTTTTTTTTTTTTTTTTTTTTTTTTTTTTTTTYc,>>>>>>>>>eITTTTTTTTTTTTTTTTTTTTTTTTTTTTYl>>>>>>>>>,zYTTTTTTTTTTTTTTTTTTTTTTTTTTTTTTTTTTTT",
"TTTTTTTTTTTTTTTTTTTTTTTTTTTTTTTTTTTS3>>>>>>>>>8JTTTTTTTTTTTTTTTTTTTTTTTTTTTTTTTTJq>>>>>>>>>2MTTTTTTTTTTTTTTTTTTTTTTTTTTTTTTTTTTT",
"TTTTTTTTTTTTTTTTTTTTTTTTTTTTTTTTTH9>>>>>>>>>3NTTTTTTTTTTTTTTTTTTTTTTTTTTTTTTTTTTTTG3>>>>>>>>>4HTTTTTTTTTTTTTTTTTTTTTTTTTTTTTTTTT",
"TTTTTTTTTTTTTTTTTTTTTTTTTTTTTTTIh>>>>>>>>>1cYTTTTTTTTTTTTTTTTTJq8JTTTTTTTTTTTTTTTTTTm1>>>>>>>>>qPTTTTTTTTTTTTTTTTTTTTTTTTTTTTTTT",
"TTTTTTTTTTTTTTTTTTTTTTTTTTTTTYn,>>>>>>>>>kITTTTTTTTTTTTTTTTTYl>>>>eITTTTTTTTTTTTTTTTTYz>>>>>>>>>,zYTTTTTTTTTTTTTTTTTTTTTTTTTTTTT",
"TTTTTTTTTTTTTTTTTTTTTTTTTTTTN2>>>>>>>>>8JTTTTTTTTTTTTTTTTTYm1>>>>>>,xYTTTTTTTTTTTTTTTTTPq>>>>>>>>>2mTTTTTTTTTTTTTTTTTTTTTTTTTTTT",
"TTTTTTTTTTTTTTTTTTTTTTTTTTG5>>>>>>>>>3GTTTTTTTTTTTTTTTTTTN2>>>>>>>>>>3NTTTTTTTTTTTTTTTTTTG3>>>>>>>>>5GTTTTTTTTTTTTTTTTTTTTTTTTTT",
"TTTTTTTTTTTTTTTTTTTTTTTTIe>>>>>>>>>1vTTTTTTTTTTTTTTTTTTP0>>>>>>>>>>>>>>8JTTTTTTTTTTTTTTTTTTM1>>>>>>>>>0PTTTTTTTTTTTTTTTTTTTTTTTT",
"TTTTTTTTTTTTTTTTTTTTTTYz,>>>>>>>>>zYTTTTTTTTTTTTTTTTTIk>>>>>>>>>>>>>>>>>>kITTTTTTTTTTTTTTTTTYz>>>>>>>>>,zYTTTTTTTTTTTTTTTTTTTTTT",
"TTTTTTTTTTTTTTTTTTTTTM1>>>>>>>>>qPTTTTTTTTTTTTTTTTTYc,>>>>>>>>>kk>>>>>>>>>,cYTTTTTTTTTTTTTTTTTPq>>>>>>>>>1MTTTTTTTTTTTTTTTTTTTTT",
"TTTTTTTTTTTTTTTTTTTG4>>>>>>>>>3FTTTTTTTTTTTTTTTTTTS3>>>>>>>>>9JTTP0>>>>>>>>>2MTTTTTTTTTTTTTTTTTTG4>>>>>>>>>3FTTTTTTTTTTTTTTTTTTT",
"TTTTTTTTTTTTTTTTTPe>>>>>>>>>1vTTTTTTTTTTTTTTTTTTH9>>>>>>>>>3BTTTTTTG3>>>>>>>>>4HTTTTTTTTTTTTTTTTTTM2>>>>>>>>>0PTTTTTTTTTTTTTTTTT",
"TTTTTTTTTTTTTTTYx,>>>>>>>>,lYTTTTTTTTTTTTTTTTTIk,>>>>>>>>1xYTTTTTTTTYm1>>>>>>>>>qPTTTTTTTTTTTTTTTTTYx,>>>>>>>>>lYTTTTTTTTTTTTTTT",
"TTTTTTTTTTTTTTM1>>>>>>>>>0PTTTTTTTTTTTTTTTTTYc,>>>>>>>>>wITTTTTTTTTTTTYl>>>>>>>>>,zYTTTTTTTTTTTTTTTTTPw>>>>>>>>>1vTTTTTTTTTTTTTT",
"TTTTTTTTTTTTG3>>>>>>>>>4GTTTTTTTTTTTTTTTTTTN2>>>>>>>>>8JTTTTTTTTTTTTTTTTPq>>>>>>>>>2MYTTTTTTTTTTTTTTTTTH9>>>>>>>>>3FTTTTTTTTTTTT",
"TTTTTTTTTTPq>>>>>>>>>1mTTTTTTTTTTTTTTTTTTJ6>>>>>>>>>3NTTTTTTTTTTTTTTTTTTTTG3>>>>>>>>>6HTTTTTTTTTTTTTTTTTTN2>>>>>>>>>0JTTTTTTTTTT",
"TTTTTTTTIz,>>>>>>>>,zYTTTTTTTTTTTTTTTTTIk>>>>>>>>>1cYTTTTTTTTTTTTTTTTTTTTTTTm1>>>>>>>>>qPTTTTTTTTTTTTTTTTTYc,>>>>>>>>,kITTTTTTTT",
"TTTTTTTm1>>>>>>>>>qPTTTTTTTTTTTTTTTTTYx,>>>>>>>>>kITTTTTTTTTTTTTTTTTTTTTTTTTTYz,>>>>>>>>,zYTTTTTTTTTTTTTTTTTIk>>>>>>>>>1nYTTTTTT",
"TTTTTF3>>>>>>>>>6HTTTTTTTTTTTTTTTTTTM2>>>>>>>>>0PTTTTTTTTTTTTTTTTTTTTTTTTTTTTTTJ0>>>>>>>>>2MTTTTTTTTTTTTTTTTTTH5>>>>>>>>>3FTTTTT",
"TTTYl>>>>>>>>>2mTTTTTTTTTTTTTTTTTTH6>>>>>>>>>3STTTTTTTTTTTTTTTTTTTTTTTTTTTTTTTTTTG4>>>>>>>>>4GTTTTTTTTTTTTTTTTTTN2>>>>>>>>>eYTTT",
"TTY4>>>>>>>>,xYTTTTTTTTTTTTTTTTTPq>>>>>>>>>1mTTTTTTTTTTTTTTTTTTTTTTTTTTTTTTTTTTTTTTm1>>>>>>>>>qPTTTTTTTTTTTTTTTTTYx,>>>>>>>>4YTT",
"TT9>>>>>>>>wITTTTTTTTTTTTTTTTTYz,>>>>>>>>>zYTTTTTTTTTTTTTTTTTTTTTTTTTTTTTTTTTTTTTTTTYz,>>>>>>>>,zYTTTTTTTTTTTTTTTTTIh>>>>>>>>9TT",
"Tn>>>>>>>4HTTTTTTTTTTTTTTTTTTM1>>>>>>>>>qPTTTTTTTTTTTTTTTTTTTTTTTTTTTTTTTTTTTTTTTTTTTTPe>>>>>>>>>1vTTTTTTTTTTTTTTTTTTH9>>>>>>>vT",
"Y,>>>>>2NTTTTTTTTTTTTTTTTTTG4>>>>>>>>>4GTTTTTTTTTTTTTTTTTTTTTTTTTTTTTTTTTTTTTTTTTTTTTTTTG4>>>>>>>>>4GTTTTTTTTTTTTTTTTTTN2>>>>>,Y",
"m>>>>>3YTTTTTTTTTTTTTTTTTJq>>>>>>>>>1MTTTTTTTTTTTTTTTTTTTTTTTTTTTTTTTTTTTTTTTTTTTTTTTTTTTTM1>>>>>>>>>qJTTTTTTTTTTTTTTTTTY4>>>>>M",
"q>>>>>PTTTTTTTTTTTTTTTTYz>>>>>>>>>,zYTTTTTTTTTTTTTTTTTTTTTTTTTTTTTTTTTTTTTTTTTTTTTTTTTTTTTTYz,>>>>>>>>,lYTTTTTTTTTTTTTTTTJ>>>>>q",
"2>>>>0TTTTTTTTTTTTTTTTm1>>>>>>>>>wPTTTTTTTTTTTTTTTTTTTTTTTTTTTTTTTTTTTTTTTTTTTTTTTTTTTTTTTTTTPw>>>>>>>>>1mTTTTTTTTTTTTTTTT0>>>>2",
",>>>>zTTTTTTTTTTTTTTF3>>>>>>>>>5HTTTTTTTTTTTTTTTTTTTTTTTTTTTTTTTTTTTTTTTTTTTTTTTTTTTTTTTTTTTTTTH5>>>>>>>>>3FTTTTTTTTTTTTTTz>>>>,",
",>>>>lTTTTTTTTTTTTJq>>>>>>>>>2MTTTTTTTTTTTTTTTTTTTTTTTTTTTTTTTTTTTTTTTTTTTTTTTTTTTTTTTTTTTTTTTTTTM2>>>>>>>>>0JTTTTTTTTTTTTk>>>>1",
"3>>>>4TTTTTTTTTTIl,>>>>>>>>,xYTTTTTTTTTTTTTTTTTTTTTTTTTTTTTTTTTTTTTTTTTTTTTTTTTTTTTTTTTTTTTTTTTTTTYx,>>>>>>>>,lITTTTTTTTTT4>>>>3",
"e>>>>>FTTTTTTTYv1>>>>>>>>>wITTTTTTTTTTTTTTTTTTTTTTTTTTTTTTTTTTTTTTTTTTTTTTTTTTTTTTTTTTTTTTTTTTTTTTTTIw>>>>>>>>>1mYTTTTTTTN>>>>>h",
"S>>>>>,HTTTTTF3>>>>>>>>>9HTTTTTTTTTTTTTTTTTTTTTTTTTTTTTTTTTTTTTTTTTTTTTTTTTTTTTTTTTTTTTTTTTTTTTTTTTTTTH9>>>>>>>>>3FTTTTTG,>>>>>F",
"T3>>>>>>wbjv9>>>>>>>>>2NTTTTTTTTTTTTTTTTTTTTTTTTTTTTTTTTTTTTTTTTTTTTTTTTTTTTTTTTTTTTTTTTTTTTTTTTTTTTTTTTN2>>>>>>>>>9vjbq>>>>>>3Y",
"TF>>>>>>>>>>>>>>>>>>,xYTTTTTTTTTTTTTTTTTTTTTTTTTTTTTTTTTTTTTTTTTTTTTTTTTTTTTTTTTTTTTTTTTTTTTTTTTTTTTTTTTTYm,>>>>>>>>>>>>>>>>>>GT",
"TTl>>>>>>>>>>>>>>>>eITTTTTTTTTTTTTTTTTTTTTTTTTTTTTTTTTTTTTTTTTTTTTTTTTTTTTTTTTTTTTTTTTTTTTTTTTTTTTTTTTTTTTTIk>>>>>>>>>>>>>>>>xTT",
"TTTl>>>>>>>>>>>>>9HTTTTTTTTTTTTTTTTTTTTTTTTTTTTTTTTTTTTTTTTTTTTTTTTTTTTTTTTTTTTTTTTTTTTTTTTTTTTTTTTTTTTTTTTTTH9>>>>>>>>>>>>>lTTT",
"TTTTm1>>>>>>>>>2NTTTTTTTTTTTTTTTTTTTTTTTTTTTTTTTTTTTTTTTTTTTTTTTTTTTTTTTTTTTTTTTTTTTTTTTTTTTTTTTTTTTTTTTTTTTTTTN2>>>>>>>>>1NTTTT",
"TTTTTYv<>>>>:7NTTTTTTTTTTTTTTTTTTTTTTTTTTTTTTTTTTTTTTTTTTTTTTTTTTTTTTTTTTTTTTTTTTTTTTTTTTTTTTTTTTTTTTTTTTTTTTTTTTF8>>>>><mYTTTTT",
"TTTTTTTVX . XLTTTTTTTTTTTTTTTTTTTTTTTTTTTTTTTTTTTTTTTTTTTTTTTTTTTTTTTTTTTTTTTTTTTTTTTTTTTTTTTTTTTTTTTTTTTTTTTTTTTTLoO.$XVTTTTTTT",
"TTTTTTTVoooooLTTTTTTTTTTTTTTTTTTTTTTTTTTTTTTTTTTTTTTTTTTTTTTTTTTTTTTTTTTTTTTTTTTTTTTTTTTTTTTTTTTTTTTTTTTTTTTTTTTTTLoooooVTTTTTTT",
"TTTTTTTVoooooLTTTTTTTTTTTTTTTTTTTTTTTTGxlkxNYTTTTTTTTTTTTTTTTTTTTTTTTTTTTTTTTTTTTTTYNxklnGYTTTTTTTTTTTTTTTTTTTTTTTLoooooVTTTTTTT",
"TTTTTTTVoooooLTTTTTTTTTTTTTTTTTTTTTYx1>>>>>>,wPTTTTTTTTTTTTTTTTTTTTTTTTTTTTTTTTTTPe,>>>>>>1xYTTTTTTTTTTTTTTTTTTTTTLoooooVTTTTTTT",
"TTTTTTTVoooooLTTTTTTTTTTTTTTTTTTTTH1>>>>>>>>>>,MTTTTTTTTTTTTTTTTTTTTTTTTTTTTTTTTm>>>>>>>>>>>2HTTTTTTTTTTTTTTTTTTTTLoooooVTTTTTTT",
"TTTTTTTVoooooLTTTTTTTTTTTTTTTTTTTS,>>>>>>>>>>>>>xTTTTTTTTTTTTTTTTTTTTTTTTTTTTTTz>>>>>>>>>>>>>,FTTTTTTTTTTTTTTTTTTTLoooooVTTTTTTT",
"TTTTTTTVoooooLTTTTTTTTTTTTTTTTTTJ1>>>>>>>>>>>>>>>MTTTTTTTTTTTTTTTTTTTTTTTTTTTTM>>>>>>>>>>>>>>>,JTTTTTTTTTTTTTTTTTTLoooooVTTTTTTT",
"TTTTTTTVoooooLTTTTTTTTTTTTTTTTTT4>>>>>>>11>>>>>>>1ITTTTTTTTTTTTTTTTTTTTTTTTTTI,>>>>>>>21>>>>>>>9TTTTTTTTTTTTTTTTTTLoooooVTTTTTTT",
"TTTTTTTVoooooLTTTTTTTTTTTTTTTTTN>>>>>>wJTTIz,>>>>>lTTTTTTTTTTTTTTTTTTTTTTTTTTl>>>>>,zITTJq>>>>>>FTTTTTTTTTTTTTTTTTLoooooVTTTTTTT",
"TTTTTTTVoooooLTTTTTTTTTTTTTTTTTq>>>>>zTTTTTTS>>>>>1TTTTTTTTTTTTTTTTTTTTTTTTTT1>>>>,FTTTTTTz>>>>>qTTTTTTTTTTTTTTTTTLoooooVTTTTTTT",
"TTTTTTTVoooooLTTTTTTTTTTTTTTTTT,>>>>4TTTTTTTTl>>>>>>>>>>>>>>>>>>>>>>>>>>>>>>>>>>>>lTTTTTTTY4>>>>,YTTTTTTTTTTTTTTTTLoooooVTTTTTTT",
"TTTTTTTVoooooLTTTTTTTTTTTTTTTTP>>>>>vTTTTTTTTJ>>>>>>>>>>>>>>>>>>>>>>>>>>>>>>>>>>>>JTTTTTTTTv>>>>>ITTTTTTTTTTTTTTTTLoooooVTTTTTTT",
"TTTTTTTVoooooLTTTTTTTTTTTTTTTTH>>>>>FTTTTTTTTY>>>>>>>>>>>>>>>>>>>>>>>>>>>>>>>>>>>>YTTTTTTTTF>>>>>HTTTTTTTTTTTTTTTTLooooXVTTTTTTT",
"TTTTTTTVoooooLTTTTTTTTTTTTTTTTJ>>>>>NTTTTTTTTT3>>>>>>>>>>>>>>>>>>>>>>>>>>>>>>>>>>3TTTTTTTTTN>>>>>JTTTTTTTTTTTTTTTTLoooooVTTTTTTT",
"TTTTTTTVoooooLTTTTTTTTTTTTTTTTY>>>>>kTTTTTTTTTN>>>>>>>>>>>>>>>>>>>>>>>>>>>>>>>>>>NTTTTTTTTTh>>>>>YTTTTTTTTTTTTTTTTLoooooVTTTTTTT",
"TTTTTTTVoooooLTTTTTTTTTTTTTTTTT3>>>>>JTTTTTTTTTJvnnxnxxnnnnxxnxnnxxnnxxnnnxnxnxvJTTTTTTTTTJ>>>>>4TTTTTTTTTTTTTTTTTLoooooVTTTTTTT",
"TTTTTTTVoooooLTTTTTTTTTTTTTTTTTz>>>>>2JTTTTTTTTTTTTTTTTTTTTTTTTTTTTTTTTTTTTTTTTTTTTTTTTTTJ2>>>>>zTTTTTTTTTTTTTTTTTLoooooVTTTTTTT",
"TTTTTTTVoooooLTTTTTTTTTTTTTTTTTI,>>>>>>qvNYTTTTTTTTTTTTTTTTTTTTTTTTTTTTTTTTTTTTTTTTTTYNnq>>>>>>,ITTTTTTTTTTTTTTTTTLoooooVTTTTTTT",
"TTTTTTTVoooooLTTTTTTTTTTTTTTTTTTn>>>>>>>>>1JTTTTTTTTTTTTTTTTTTTTTTTTTTTTTTTTTTTTTTTTJ1>>>>>>>>>cTTTTTTTTTTTTTTTTTTLoooooVTTTTTTT",
"TTTTTTTVoooooLTTTTTTTTTTTTTTTTTTTq>>>>>>>>>qTTTTTTTTTTTTTTTTTTTTTTTTTTTTTTTTTTTTTTTTq>>>>>>>>>qTTTTTTTTTTTTTTTTTTTLoooooVTTTTTTT",
"TTTTTTTVoooooLTTTTTTTTTTTTTTTTTTTJ>>>>>>>>>3TTTTTTTTTTTTTTTTTTTTTTTTTTTTTTTTTTTTTTTT3>>>>>>>>>JTTTTTTTTTTTTTTTTTTTLoooooVTTTTTTT",
"TTTTTTTVoooooLTTTTTTTTTTTTTTTTTTY3>>>>>>>>>kTTTTTTTTTTTTTTTTTTTTTTTTTTTTTTTTTTTTTTTTk>>>>>>>>>3YTTTTTTTTTTTTTTTTTTLoooooVTTTTTTT",
"TTTTTTTVoooooLTTTTTTTTTTTTTTTTTTw>>>>>>>>>0YTTTTTTTTTTTTTTTTTTTTTTTTTTTTTTTTTTTTTTTTY0>>>>>>>>>eTTTTTTTTTTTTTTTTTTLoooooVTTTTTTT",
"TTTTTTTVoooooLTTTTTTTTTTTTTTTTTH>>>>>>2mJYTTTTTTTTTTTTTTTTTTTTTTTTTTTTTTTTTTTTTTTTTTTTYJm2>>>>>>JTTTTTTTTTTTTTTTTTLoooooVTTTTTTT",
"TTTTTTTVoooooLTTTTTTTTTTTTTTTTTk>>>>>0YTTTTTTTTTTTTTTTTTTTTTTTTTTTTTTTTYTTTTTTTTTTTTTTTTTY8>>>>>kTTTTTTTTTTTTTTTTTLoooooVTTTTTTT",
"TTTTTTTVoooooLTTTTTTTTTTTTTTTTT1>>>>2YTTTTTTTTYm00008000000909008000000000008000mTTTTTTTTTY1>>>>1TTTTTTTTTTTTTTTTTLoooooVTTTTTTT",
"TTTTTTTVoooooLTTTTTTTTTTTTTTTTI>>>>>zTTTTTTTTTx>>>>>>>>>>>>>>>>>>>>>>>>>>>>>>>>>>zTTTTTTTTTz>>>>>ITTTTTTTTTTTTTTTTLoooooVTTTTTTT",
"TTTTTTTVoooooLTTTTTTTTTTTTTTTTJ>>>>>FTTTTTTTTT1>>>>>>>>>>>>>>>>>>>>>>>>>>>>>>>>>>1TTTTTTTTTF>>>>>HTTTTTTTTTTTTTTTTLoooooVTTTTTTT",
"TTTTTTTVoooooLTTTTTTTTTTTTTTTTH>>>>>FTTTTTTTTY>>>>>>>>>>>>>>>>>>>>>>>>>>>>>>>>>>>>YTTTTTTTTF>>>>>JTTTTTTTTTTTTTTTTLoooooVTTTTTTT",
"TTTTTTTVoooooLTTTTTTTTTTTTTTTTI>>>>>zTTTTTTTTG>>>>>>>>>>>>>>>>>>>>>>>>>>>>>>>>>>>>GTTTTTTTTz>>>>>ITTTTTTTTTTTTTTTTLoooooVTTTTTTT",
"TTTTTTTVoooooLTTTTTTTTTTTTTTTTT1>>>>1YTTTTTTT8>>>>>90809000008000008000008009>>>>>0YTTTTTTY1>>>>2TTTTTTTTTTTTTTTTTLoooooVTTTTTTT",
"TTTTTTTVoooooLTTTTTTTTTTTTTTTTTk>>>>>8YTTTTTl>>>>>3TTTTTTTTTTTTTYTTTTTYTTTTTT3>>>>>zTTTTTY8>>>>>kTTTTTTTTTTTTTTTTTLoooooVTTTTTTT",
"TTTTTTTVoooooLTTTTTTTTTTTTTTTTTJ>>>>>>2vHDM6>>>>>>mTTTTTTTTTTTTTTTTTTTTTTTTTTv>>>>>>9MDDn2>>>>>>JTTTTTTTTTTTTTTTTTLoooooVTTTTTTT",
"TTTTTTTVoooooLTTTTTTTTTTTTTTTTTTw>>>>>>>>>>>>>>>>3YTTTTTTTTTTTTTTTTTTTTTTTTTTY3>>>>>>>>>>>>>>>>hTTTTTTTTTTTTTTTTTTLoooooVTTTTTTT",
"TTTTTTTVoooooLTTTTTTTTTTTTTTTTTTY3>>>>>>>>>>>>>>,HTTTTTTTTTTTTTTTTTTTTTTTTTTTTJ,>>>>>>>>>>>>>>3YTTTTTTTTTTTTTTTTTTLoooooVTTTTTTT",
"TTTTTTTVoooooLTTTTTTTTTTTTTTTTTTTP3>>>>>>>>>>>>,FTTTTTTTTTTTTTTTTTTTTTTTTTTTTTTF,>>>>>>>>>>>>3PTTTTTTTTTTTTTTTTTTTLoooooVTTTTTTT",
"TTTTTTTVoooooLTTTTTTTTTTTTTTTTTTTTYq>>>>>>>>>>4JTTTTTTTTTTTTTTTTTTTTTTTTTTTTTTTTJ4>>>>>>>>>>qYTTTTTTTTTTTTTTTTTTTTLoooooVTTTTTTT",
"TTTTTTTVoooooLTTTTTTTTTTTTTTTTTTTTTTGq,>>>>>8MTTTTTTTTTTTTTTTTTTTTTTTTTTTTTTTTTTTYN91:,>>,qHTTTTTTTTTTTTTTTTTTTTTTLoooooVTTTTTTT",
"TTTTTTTVoooooLTTTTTTTTTTTTTTTTTTTTTTTTi.--.%TTTTTTTTTTTTTTTTTTTTTTTTTTTTTTTTTTTTTTTT;.;; aTTTTTTTTTTTTTTTTTTTTTTTTLoooooVTTTTTTT",
"TTTTTTTVoooooLTTTTTTTTTTTTTTTTTTTTTTTTpoooo&TTTTTTTTTTTTTTTTTTTTTTTTTTTTTTTTTTTTTTTT&oooopTTTTTTTTTTTTTTTTTTTTTTTTLoooooVTTTTTTT",
"TTTTTTTVoooooLTTTTTTTTTTTTTTTTTTTTTTTTpoooo&TTTTTTTTTTTTTTTTTTTTTTTTTTTTTTTTTTTTTTTT&ooooiTTTTTTTTTTTTTTTTTTTTTTTTLoooooVTTTTTTT",
"TTTTTTTVoooooLTTTTTTTTTTTTTTTTTTTTTTTTpoooo&TTTTTTTTTTTTTTTTTTTTTTTTTTTTTTTTTTTTTTTT&oooopTTTTTTTTTTTTTTTTTTTTTTTTLoooooVTTTTTTT",
"TTTTTTTVoooooLTTTTTTTTTTTTTTTTTTTTTTTTpoooo&TTTTTTTTTTTTTTTTTTTTTTTTTTTTTTTTTTTTTTTT&oooopTTTTTTTTTTTTTTTTTTTTTTTTLoooooVTTTTTTT",
"TTTTTTTVoooooLTTTTTTTTTTTTTTTTTTTTTTTTpoooo&TTTTTTTTTTTTTTTTTTTTTTTTTTTTTTTTTTTTTTTT&oooopTTTTTTTTTTTTTTTTTTTTTTTTLoooooVTTTTTTT",
"TTTTTTTVoooooLTTTTTTTTTTTTTTTTTTTTTTTTpoooX&TTTTTTTTTTTTTTTTTTTTTTTTTTTTTTTTTTTTTTTT&oooopTTTTTTTTTTTTTTTTTTTTTTTTLoooooVTTTTTTT",
"TTTTTTTVoooooLTTTTTTTTTTTTTTTTTTTTTTTTpoooo&TTTTTTTTTTTTTTTTTTTTTTTTTTTTTTTTTTTTTTTT&oooopTTTTTTTTTTTTTTTTTTTTTTTTLoooooVTTTTTTT",
"TTTTTTTVoooooLTTTTTTTTTTTTTTTTTTTTTTTTpoooo&TTTTTTTTTTTTTTTTTTTTTTTTTTTTTTTTTTTTTTTT&oooopTTTTTTTTTTTTTTTTTTTTTTTTLoooooVTTTTTTT",
"TTTTTTTVoooooLTTTTTTTTTTTTTTTTTTTTTTTTpoooo&TTTTTTTTTTTTTTTTTTTTTTTTTTTTTTTTTTTTTTTT&oooopTTTTTTTTTTTTTTTTTTTTTTTTLoooooVTTTTTTT",
"TTTTTTTVoooooLTTTTTTTTTTTTTTTTTTTTTTTTpoooo&TTTTTTTTTTTTTTTTTTTTTTTTTTTTTTTTTTTTTTTT&oooopTTTTTTTTTTTTTTTTTTTTTTTTLoooooVTTTTTTT",
"TTTTTTTVoooooLTTTTTTTTTTTTTTTTTTTTTTTTpoooo&TTTTTTTTTTTTTTTTTTTTTTTTTTTTTTTTTTTTTTTT&oooopTTTTTTTTTTTTTTTTTTTTTTTTLoooooVTTTTTTT",
"TTTTTTTVoooooLTTTTTTTTTTTTTTTTTTTTTTTTpoooo&TTTTTTTTTTTTTTTTTTTTTTTTTTTTTTTTTTTTTTTT&oooopTTTTTTTTTTTTTTTTTTTTTTTTLoooooVTTTTTTT",
"TTTTTTTVoooooLTTTTTTTTTTTTTTTTTTTTTTTTpoooo&TTTTTTTTTTTTTTTTTTTTTTTTTTTTTTTTTTTTTTTT&oooopTTTTTTTTTTTTTTTTTTTTTTTTLoooooVTTTTTTT",
"TTTTTTTVoooooLTTTTTTTTTTTTTTTTTTTTTTTTpoooo&TTTTTTTTTTTTTTTTTTTTTTTTTTTTTTTTTTTTTTTT&oooopTTTTTTTTTTTTTTTTTTTTTTTTLoooooVTTTTTTT",
"TTTTTTTVoooooLTTTTTTTTTTTTTTTTTTTTTTTTpoooo&TTTTTTTTTTTTTTTTTTTTTTTTTTTTTTTTTTTTTTTT&oooopTTTTTTTTTTTTTTTTTTTTTTTTLoooooVTTTTTTT",
"TTTTTTTVoooooLTTTTTTTTTTTTTTTTTTTTTTTTpoooo&TTTTTTTTTTTTTTTTTTTTTTTTTTTTTTTTTTTTTTTT&oooopTTTTTTTTTTTTTTTTTTTTTTTTLoooooVTTTTTTT",
"TTTTTTTVoooooLTTTTTTTTTTTTTTTTTTTTTTTTpoooo&TTTTTTTTTTTTTTTTTTTTTTTTTTTTTTTTTTTTTTTT&oooopTTTTTTTTTTTTTTTTTTTTTTTTLoooooVTTTTTTT",
"TTTTTTTVoooooLTTTTTTTTTTTTTTTTTTTTTTTTpoooo&TTTTTTTTTTTTTTTTTTTTTTTTTTTTTTTTTTTTTTTT&oooopTTTTTTTTTTAiyyyyyyyyyyyytooooo=yyyyyVT",
"TTTTTTTVoooooLTTTTTTTTTTTTTTTTTTTTTTTTpoooo&TTTTTTTTTTTTTTTTTTTTTTTTTTTTTTTTTTTTTTTT&oooopTTTTTTTTTK+ooooooooooooooooooooooooood",
"TTTTTTTVoooooLTTTTTTTTTTTTTTTTTTTTTTTTpoooo&TTTTTTTTTTTTTTTTTTTTTTTTTTTTTTTTTTTTTTTT&oooopTTTTTTTTTsooooooooooooooooooooooooooo#",
"TTTTTTTVoooooLTTTTTTTTTTTTTTTTTTTTTTTTpoooo&TTTTTTTTTTTTTTTTTTTTTTTTTTTTTTTTTTTTTTTT&oooopTTTTTTTTTpoooooooooooooooooooooooooooo",
"TTTTTTTVoooooLTTTTTTTTTTTTTTTTTTTTTTTTpoooo&TTTTTTTTTTTTTTTTTTTTTTTTTTTTTTTTTTTTTTTT&oooopTTTTTTTTTpoooooooooooooooooooooooooooo",
"TTTTTTTVoooooLTTTTTTTTTTTTTTTTTTTTTTTTpoooo&TTTTTTTTTTTTTTTTTTTTTTTTTTTTTTTTTTTTTTTT&oooopTTTTTTTTTpoooo+yyyyyyyyyyt*@&tyy*ooooo",
"TTTTTTTVoooooLTTTTTTTTTTTTTTTTTTTTTTTTpoooo&TTTTTTTTTTTTTTTTTTTTTTTTTTTTTTTTTTTTTTTT&oooopTTTTTTTTTpoooo*TTTTTTTTTTTTTTTTTdooooo",
"TTTTTTTVoooooLTTTTTTTTTTTTTTTTTTTTTTTTpoooo&TTTTTTTTTTTTTTTTTTTTTTTTTTTTTTTTTTTTTTTT&oooopTTTTTTTTTpoooo*TTTTTTTTTTTTTTTTTdooooo",
"TTTTTTTVoooooLTTTTTTTTTTTTTTTTTTTTTTTTpoooo&TTTTTTTTTTTTTTTTTTTTTTTTTTTTTTTTTTTTTTTT&oooopTTTTTTTTTpoooo*TTTTTTTTTTTTTTTTTdooooo",
"TTTTTTTVoooooLTTTTTTTTTTTTTTTTTTTTTTTTpoooo&TTTTTTTTTTTTTTTTTTTTTTTTTTTTTTTTTTTTTTTT&oooopTTTTTTTTTpoooo*TTTTTTTTTTTTTTTTTdooooo",
"TTTTTTTVoooooLTTTTTTTTTTTTTTTTTTTTTTTTpoooo&TTTTTTTTTTTTTTTTTTTTTTTTTTTTTTTTTTTTTTTT&oooopTTTTTTTTTpoooo*TTTTTTTTTTTTTTTTTdooooo",
"TTTTTTTVoooooLTTTTTTTTTTTTTTTTTTTTTTTTpoooo&TTTTTTTTTTTTTTTTTTTTTTTTTTTTTTTTTTTTTTTT&oooopTTTTTTTTTpoooo*TTTTTTTTTTTTTTTTTdooooo",
"TTTTTTTVoooooLTTTTTTTTTTTTTTTTTTTTTTTTpoooo&TTTTTTTTTTTTTTTTTTTTTTTTTTTTTTTTTTTTTTTT&oooopTTTTTTTTTpoooo*TTTTTTTTTTTTTTTTTdooooo",
"TTTTTTTVoooooLTTTTTTTTTTTTTTTTTTTTTTTTpoooo&TTTTTTTTTTTTTTTTTTTTTTTTTTTTTTTTTTTTTTTT&oooopTTTTTTTTTpXooo*TTTTTTTTTTTTTTTTTdooooo",
"TTTTTTTVoooooLTTTTTTTTTTTTTTTTTTTTTTTTpoooo*TTTTTTTTTTTTTTTTTTTTTTTTTTTTTTTTTTTTTTTT&oooopTTTTTTTTTpoooo*TTTTTTTTTTTTTTTTTdooooo",
"TTTTTTTVooooosfggggggggggggggggggggfggroooo#gggggggggggggggggggggggggggggggggggggggg@oooorfgggfggfgroooo+uuuuuuuuuuuuupfggyooooo",
"TTTTTTTVooooooXooooooooooooooooooooooooooooooooooooooooooooooooooooooooooooooooooooooooooooooXooXoXooooooooooooooooooooooooooooo",
"TTTTTTTVoooooooooooooooooooooooooooooooooooooooooooooooooooooooooooooooooooooooooooooooooooooooooooooooooooooooooooooooooooooooo",
"TTTTTTTCooooooooooooooooooooooooooooooooooooooooooooooooooooooooooooooooooooooooooooooooooooooooooooooooooooooooooooooooooooooo+",
"TTTTTTTU#ooooooooooooooooooooooooooooooooooooooooooooooooooooooooooooooooooooooooooooooooooooooooooooooooooooooooooooooooooooooi",
"TTTTTTTTZrooooooooooooooooooooooooooooooooooooooooooooooooooooooooooooooooooooooooooooooooooooooooooooooooooooooooooooooooooo+iU"
};
