/* XPM */
static char *player__38_1710156995[] = {
/* columns rows colors chars-per-pixel */
"64 64 140 2 ",
"   c #001564",
".  c #001B66",
"X  c #001768",
"o  c #001C6A",
"O  c #002066",
"+  c #00236D",
"@  c #012571",
"#  c #042974",
"$  c #0A2C76",
"%  c #0C2E79",
"&  c #0D307A",
"*  c #14337D",
"=  c #17387E",
"-  c #19387E",
";  c #143383",
":  c #193682",
">  c #1D3B82",
",  c #17368C",
"<  c #19368E",
"1  c #1E3994",
"2  c #213C86",
"3  c #243D89",
"4  c #203A97",
"5  c #243C9C",
"6  c #254386",
"7  c #284487",
"8  c #2A438C",
"9  c #2C4989",
"0  c #324E8D",
"q  c #2F4491",
"w  c #28409F",
"e  c #344694",
"r  c #374996",
"t  c #3D4C9B",
"y  c #355290",
"u  c #3B5592",
"i  c #3E5995",
"p  c #2B41A5",
"a  c #2E43A9",
"s  c #3345AE",
"d  c #3647B2",
"f  c #3748B3",
"g  c #3849B6",
"h  c #3B4ABB",
"j  c #424F9E",
"k  c #405793",
"l  c #425A95",
"z  c #42509E",
"x  c #455E98",
"c  c #4B639B",
"v  c #50669D",
"b  c #52699F",
"n  c #4652A1",
"m  c #4A54A4",
"M  c #4F58A7",
"N  c #545AAB",
"B  c #595EAE",
"V  c #404DBF",
"C  c #566CA1",
"Z  c #586EA2",
"A  c #5D72A5",
"S  c #5E61B1",
"D  c #6175A7",
"F  c #6579A9",
"G  c #687EAC",
"H  c #6465B6",
"J  c #6766B8",
"K  c #6D6ABD",
"L  c #3E4CC0",
"P  c #424EC4",
"I  c #4650C9",
"U  c #4952CD",
"Y  c #4C54D2",
"T  c #5358DA",
"R  c #585BDE",
"E  c #746EC2",
"W  c #7770C5",
"Q  c #7971C5",
"!  c #7E74C8",
"~  c #5A5CE5",
"^  c #5D5DE8",
"/  c #605FEC",
"(  c #6361EF",
")  c #6663F5",
"_  c #6864F7",
"`  c #6B66FB",
"'  c #6F68FF",
"]  c #7169FF",
"[  c #8176CB",
"{  c #8679CE",
"}  c #8C7CD2",
"|  c #917FD6",
" . c #6E81AE",
".. c #7385B1",
"X. c #7589B4",
"o. c #7C8EB7",
"O. c #8495BB",
"+. c #8B9ABE",
"@. c #8E9EC1",
"#. c #919FC1",
"$. c #9280D7",
"%. c #9582D9",
"&. c #9C86DD",
"*. c #95A3C5",
"=. c #9AA7C6",
"-. c #9BA8C8",
";. c #A2AECC",
":. c #A5B2CD",
">. c #A9B4CF",
",. c #AAB5D0",
"<. c #AEB9D3",
"1. c #B2BCD4",
"2. c #A38BE3",
"3. c #AA8FE7",
"4. c #AE91EA",
"5. c #B395EE",
"6. c #B696F0",
"7. c #B897F1",
"8. c #BB9AF3",
"9. c #C09DF7",
"0. c #C39EF9",
"q. c #C6A1FB",
"w. c #CAA2FD",
"e. c #BBC4D9",
"r. c #BFC9DC",
"t. c #C3CBDE",
"y. c #C7CFE0",
"u. c #CCD2E2",
"i. c #D3D9E7",
"p. c #D6DBE8",
"a. c #D9DEEA",
"s. c #DDE2EC",
"d. c #E1E5EE",
"f. c #E6E9F1",
"g. c #EAEDF4",
"h. c #EEF0F5",
"j. c #F0F3F7",
"k. c #F4F6F9",
"l. c #F7F8FB",
"z. c #FFFFFF",
/* pixels */
"z.z.z.z.z.z.z.z.z.z.z.z.z.z.z.z.z.z.z.z.z.z.z.z.z.z.z.z.z.z.z.z.z.z.z.z.z.z.z.z.z.z.z.z.z.z.z.z.z.z.z.z.z.z.z.z.z.z.z.z.z.z.z.z.",
"z.z.z.z.z.z.z.z.z.z.z.z.z.z.z.z.z.z.z.z.z.z.z.z.z.z.z.z.z.z.z.z.z.z.z.z.z.z.z.z.z.z.z.z.z.z.z.z.z.z.z.z.z.z.z.z.z.z.z.z.z.z.z.z.",
"z.z.z.z.z.z.z.z.z.z.z.z.z.z.z.z.z.z.z.z.z.z.z.z.z.z.z.z.z.z.z.z.z.z.z.z.z.z.z.z.z.z.z.z.z.z.z.z.z.z.z.z.z.z.z.z.z.z.z.z.z.z.z.z.",
"z.z.z.z.z.z.z.z.z.z.z.z.z.z.z.z.z.z.z.z.z.z.z.z.z.z.z.z.z.z.z.z.z.z.z.z.z.z.z.z.z.z.z.z.z.z.z.z.z.z.z.z.z.z.z.z.z.z.z.z.z.z.z.z.",
"z.z.z.z.z.z.z.z.z.z.z.z.z.z.z.z.z.z.z.z.z.z.z.z.z.z.z.z.z.z.z.z.z.z.z.l.z.l.z.z.z.z.z.z.z.z.z.z.z.z.z.z.z.z.z.z.z.z.z.z.z.z.z.z.",
"z.z.z.z.z.z.z.z.z.z.z.z.z.z.z.z.z.z.z.z.z.z.z.z.z.z.z.z.z.z.z.z.z.z.z.z.z.z.z.z.z.z.z.z.z.z.z.z.z.z.z.z.z.z.z.z.z.z.z.z.z.z.z.z.",
"z.z.z.z.z.z.z.z.z.z.z.z.z.z.z.z.z.z.z.z.z.z.z.z.z.z.z.z.z.z.z.z.z.z.l.1.o. .O.u.z.z.z.z.z.z.z.z.z.z.z.z.z.z.z.z.z.z.z.z.z.z.z.z.",
"z.z.z.z.z.z.z.z.z.z.z.z.z.z.z.z.z.z.z.z.z.z.z.z.z.z.z.z.z.z.z.z.z.u.0 o       + Z g.z.z.z.z.z.z.z.z.z.z.z.z.z.z.z.z.z.z.z.z.z.z.",
"z.z.z.z.z.z.z.z.z.z.z.z.z.z.z.z.z.z.z.z.z.z.z.z.z.z.z.z.z.z.z.z.u.% X 2 H K m %   y j.z.l.z.z.z.z.z.z.z.z.z.z.z.z.z.z.z.z.z.z.z.",
"z.z.z.z.z.z.z.z.z.z.z.z.z.z.z.z.z.z.z.z.z.z.z.z.z.z.z.z.z.z.z.z.0   z 8.w.0.q.&.2   l l.z.z.z.z.z.z.z.z.z.z.z.z.z.z.z.z.z.z.z.z.",
"z.z.z.z.z.z.z.z.z.z.z.z.z.z.z.z.z.z.z.z.z.z.z.z.z.z.z.z.z.z.z.1.o : 6.0.7.7.8.0.2.: X c z.z.z.z.z.z.z.z.z.z.z.z.z.z.z.z.z.z.z.z.",
"z.z.z.z.z.z.z.z.z.z.z.z.z.z.z.z.z.z.z.z.z.z.z.z.z.z.z.z.z.l.z.O.  B q.7.8.8.9.7.q.&.* o A z.z.z.z.z.z.z.z.z.z.z.z.z.z.z.z.z.z.z.",
"z.z.z.z.z.z.z.z.z.z.z.z.z.z.z.z.z.z.z.z.z.z.z.z.z.z.z.z.z.z.z.X.  H w.8.8.8.8.8.7.q.%.& X ..z.z.z.z.z.z.z.z.z.z.z.z.z.z.z.z.z.z.",
"z.z.z.z.z.z.z.z.z.z.z.z.z.z.z.z.z.z.z.z.z.z.z.z.z.z.z.z.z.l.z.*.  j q.7.8.8.8.8.8.8.q.} $ o e.z.l.z.z.z.z.z.z.z.z.z.z.z.z.z.z.z.",
"z.z.z.z.z.z.z.z.z.z.z.z.z.z.z.z.z.z.z.z.z.z.z.z.z.z.z.z.z.z.z.i.# # $.w.7.8.8.9.8.8.6.w.J   Z z.z.z.z.z.z.z.l.z.z.z.z.z.z.z.z.z.",
"z.z.z.z.z.z.z.z.z.z.z.z.z.z.z.z.z.z.z.z.z.z.z.z.z.z.z.z.z.z.z.z.G   > 2.0.8.8.8.8.8.9.q.[ @ > =.;.,.1.1.u.j.z.z.z.z.z.z.z.z.z.z.",
"z.z.z.z.z.z.z.l.z.z.z.z.z.z.z.z.z.z.z.z.z.z.z.z.z.z.z.z.z.z.z.z.z.l   > 4.9.8.0.0.w.2.e # + +   X . . + @ > o.l.z.z.z.z.z.z.z.z.",
"z.z.z.z.z.z.z.z.z.z.z.z.z.z.z.z.z.z.z.z.z.z.z.z.z.z.z.z.z.z.z.z.z.k.y X 3 5.q.2.%.{ * O $ 5 p p w 5 4 1 ; + X i j.z.z.z.z.z.z.z.",
"z.z.z.z.z.z.e.1.z.z.z.z.z.z.z.z.z.z.z.z.z.z.z.z.z.z.z.z.z.z.z.z.z.z.g.9 X 8 j $ @ @ + 1 / ' ] ' ' ` ` _ ) Y : X A z.z.z.z.z.z.z.",
"z.z.z.z.z.l.- o u.z.l.z.z.z.z.z.z.z.z.z.z.z.z.z.z.z.z.z.z.z.z.z.z.l.z.d.2 + O % : # ; ) ` _ ) ) ) ) _ _ _ ' R $ @ t.z.z.z.z.z.z.",
"z.z.z.z.z.z. .  u z.z.z.z.z.z.z.z.z.z.z.z.z.z.z.z.z.z.z.z.z.z.z.z.z.z.u.* + m 5.N . g ] ) ) _ _ _ _ _ _ _ ) ] a   O.z.l.z.z.z.z.",
"z.z.z.z.z.z.j.6   O.z.d.p.g.z.z.z.z.z.z.z.z.z.z.z.z.z.z.z.z.z.z.z.z.z.C   m q.w.j . I ' ) _ _ _ _ _ _ _ _ ) ] h . G z.z.z.z.z.z.",
"z.z.z.z.z.z.z.1.@ % l % @ = v r.z.z.z.z.z.z.z.z.z.z.z.z.z.z.z.z.z.z.i.$ # 2.8.q.M . g ' ) ) _ ) _ _ _ _ _ ) ' f   X.z.l.z.z.z.z.",
"z.z.z.z.z.z.z.l.9 @ o $ : #   + +.z.z.z.z.z.z.z.z.z.z.z.z.z.z.z.l.z...  m w.6.w.[ + ; ( ' ) ) ) ) ) ) ) ) ` ) ; . >.z.z.z.z.z.z.",
"z.z.z.z.z.z.z...o $ K 5.6.2.B + o 1.z.l.z.z.z.z.z.z.z.z.z.z.z.z.z.f.= @ %.0.7.8.9.3 O 4 ^ ' ' ] ' ' ' ] ] _ w o 9 l.z.z.z.z.z.z.",
"z.z.z.z.z.z.i.# @ { w.8.8.9.w.H o 2 g.z.z.z.z.z.z.z.z.z.z.z.z.z.z.+.  r 0.8.8.8.0.2.: . $ 4 p p s f g g s ; . % u.z.z.z.z.z.z.z.",
"z.z.z.z.l.z.@.  z q.8.8.8.8.8.0.q X D z.z.z.z.z.z.z.z.z.z.z.z.z.k.7 o { q.8.8.8.8.0.3.t # + .       .     o 0 u.z.l.z.z.z.z.z.z.",
"z.z.z.z.z.z.G   K q.8.8.8.8.8.0.&.$ o ,.z.l.z.z.z.z.z.z.z.z.l.z.;.  3 8.8.8.8.8.8.8.w.Q X y ;.*.+.O.o...O.1.l.z.z.z.z.z.z.z.z.z.",
"z.z.z.z.z.z. .  J w.8.8.8.8.8.8.w.J . > g.z.z.z.z.z.z.z.z.z.z.z.i X E q.8.8.8.8.8.8.8.2 X >.z.z.z.z.z.z.z.z.z.z.z.z.z.z.z.z.z.z.",
"z.z.z.z.l.z.;.  8 9.8.8.8.8.8.8.8.9.e   A z.l.z.z.z.z.z.z.z.z.e.o : 5.9.8.8.8.8.8.q.[ o 9 k.z.l.l.z.z.l.l.z.z.z.z.z.z.z.z.z.z.z.",
"z.z.z.z.z.z.g.6 o K w.7.8.8.8.9.8.q.&.$ + t.z.z.z.z.z.z.z.l.z.F   S q.8.8.9.8.8.8.9.e   +.z.l.z.z.z.z.z.z.z.z.z.z.z.z.z.z.z.z.z.",
"z.z.z.z.z.z.z.:.o % 2.0.8.8.8.8.8.8.w.M o 6 l i k k i k i i k * + } q.8.8.8.8.8.q.| + - g.z.z.z.z.z.z.z.z.z.z.z.z.z.z.z.z.z.z.z.",
"z.z.z.z.z.z.z.z.A   e 0.8.8.8.8.8.8.q.! + # . O o o o . + o . @ # $.q.8.8.8.8.8.0.n   ..z.z.z.z.z.z.z.z.z.z.z.z.z.z.z.z.z.z.z.z.",
"z.z.z.z.z.z.z.z.f.> o K q.8.8.8.8.8.q.Q O 4 R T T T T T T T R 5 . H w.8.8.8.6.0.2.$ $ p.z.z.z.z.z.z.z.z.z.z.z.z.z.z.z.z.z.z.z.z.",
"z.z.z.z.z.z.z.z.z.,.o $ 2.0.8.8.8.8.w.t O h ] ` ' ` ' ' ` ` ] U O = 2.w.8.8.q.q.t   A z.l.z.z.z.z.z.z.z.z.z.z.z.z.z.z.z.z.z.z.z.",
"z.z.z.z.z.z.z.z.z.z.A   8 5.q.q.q.q.K + $ ^ ` ) ) _ ) ) ) ) ) ` 1 O : ! 5.6.%.r o % p.z.z.z.z.z.z.z.z.z.z.z.z.z.z.z.z.z.z.z.z.z.",
"z.z.z.z.z.z.z.z.z.z.h.7 o : K $.{ n # # h ' _ _ _ _ _ _ _ _ _ ` ( 1 + @ ; : # + > e.z.z.z.z.z.z.z.z.z.z.z.z.z.z.z.z.z.z.z.z.z.z.",
"z.z.z.z.z.z.z.z.z.l.z.s.: @ . O . . @ , _ ` _ _ _ _ _ _ _ _ _ ) ' h # @ o + + + c z.z.z.z.z.z.z.z.z.z.z.z.z.z.z.z.z.z.z.z.z.z.z.",
"z.z.z.z.z.z.z.z.z.z.z.#.@ @ t E E m # + 5 ` _ _ _ _ _ _ _ _ ) ' h + @ e K W m $ X C z.z.z.z.z.z.z.z.z.z.z.z.z.z.z.z.z.z.z.z.z.z.",
"z.z.z.z.z.z.z.z.z.z.u.# + E q.q.q.w.$.* O P ' ) _ _ _ _ ) ) ` ~ # @ K q.q.q.w.%.*   =.z.z.z.z.z.z.z.z.z.z.z.z.z.z.z.z.z.z.z.z.z.",
"z.z.z.z.z.z.z.z.z.z.G   m w.7.7.8.6.w.W + < ` _ ` _ ` _ ` _ ] d O n w.8.8.7.6.w.Q o 0 z.z.z.z.z.z.z.z.z.z.z.z.z.z.z.z.z.z.z.z.z.",
"z.z.z.z.z.z.z.z.z.g.> + %.0.8.8.8.8.8.4.& # , < , , , , , , < % + { q.8.8.9.8.8.7.> o e.z.l.z.z.z.z.z.z.z.z.z.z.z.z.z.z.z.z.z.z.",
"z.z.z.z.z.z.z.z.z.;.X 8 9.8.8.9.8.8.8.5.= + + + o + + + + o + @ + $.q.8.8.8.8.7.q.B   F z.z.z.z.z.z.z.z.z.z.z.z.z.z.z.z.z.z.z.z.",
"z.z.z.z.z.z.z.z.z.c   K w.7.8.8.8.8.q.&.@ 2 e.t.t.t.t.t.t.t.u.c X K w.7.8.8.8.8.0.%.@ = f.z.z.z.z.z.z.z.z.z.z.z.z.z.z.z.z.z.z.z.",
"z.z.z.z.z.z.z.z.u.# & 4.0.8.8.8.8.8.q.S   F z.z.z.z.z.z.z.z.z.;.. 8 9.8.8.8.8.9.8.0.e X =.z.l.z.z.z.z.z.z.z.z.z.z.z.z.z.z.z.z.z.",
"z.z.z.z.z.z.l.z.o.  m 0.7.8.9.8.8.8.6.> o e.z.l.z.z.l.z.z.z.z.g.> + %.0.8.8.8.8.8.w.E   i z.z.z.z.z.z.z.z.z.z.z.z.z.z.z.z.z.z.z.",
"z.z.z.z.z.z.z.k.6 o } q.8.8.8.8.8.q.[ o 0 l.z.z.z.z.z.z.z.z.l.z...  N q.8.8.8.8.8.9.4.* @ y.z.z.z.z.z.z.z.z.z.z.z.z.z.z.z.z.z.z.",
"z.z.z.z.z.l.z.<.o 3 8.8.8.8.8.8.8.0.t   +.z.z.z.z.z.z.z.z.z.z.z.t.+ * 5.9.8.8.8.8.7.q.N   G z.z.z.z.z.z.z.z.z.z.z.z.z.z.z.z.z.z.",
"z.z.z.z.z.z.z.b   H q.8.8.8.8.8.0.2.$ % s.z.z.z.z.z.z.z.z.z.z.z.z.u . Q w.8.8.8.8.8.w.| + > g.z.z.z.z.z.z.z.z.z.z.z.z.z.z.z.z.z.",
"z.z.z.z.z.z.f.* # 2.0.8.8.8.8.8.q.H   C z.z.z.z.z.z.z.z.z.z.z.z.z.*.. r q.8.8.8.8.8.8.9.3 o 1.z.z.z.z.z.z.z.z.z.z.z.z.z.z.z.z.z.",
"z.z.z.z.z.z.u.+ 2 7.8.8.8.8.8.8.7.3 o 1.z.l.z.z.z.z.z.z.z.z.z.z.z.d.* @ &.9.8.8.8.8.7.q.N   #.z.l.z.z.z.z.z.z.z.z.z.z.z.z.z.z.z.",
"z.z.z.z.z.z.u.# : 6.8.8.8.8.8.q.} o 9 k.z.z.z.z.z.z.z.z.z.z.z.z.z.z.D   S w.7.8.8.8.7.q.n   =.z.z.z.z.z.z.z.z.z.z.z.z.z.z.z.z.z.",
"z.z.z.z.z.z.k.6 o { w.7.8.8.8.q.j   o.z.z.z.z.z.z.z.z.z.z.z.z.z.z.z.e.o : 6.q.6.8.7.0.5.* @ u.z.z.z.z.z.z.z.z.z.z.z.z.z.z.z.z.z.",
"z.z.z.z.z.z.z.O.  2 2.q.q.q.q.K + % s.z.z.z.z.z.z.z.z.z.z.z.z.z.z.z.z.y X z 8.w.w.q.7.t   x z.z.z.z.z.z.z.z.z.z.z.z.z.z.z.z.z.z.",
"z.z.z.z.z.z.z.l.u   % B ! E r + o #.z.l.z.z.z.z.z.z.z.z.z.z.z.z.z.z.z.u.% X 3 J [ H 2 X & p.z.z.z.z.z.z.z.z.z.z.z.z.z.z.z.z.z.z.",
"z.z.z.z.z.z.z.z.g.C +         * =.z.z.z.z.z.z.z.z.z.z.z.z.z.z.z.z.z.l.z.t.9         o 0 i.z.l.z.z.z.z.z.z.z.z.z.z.z.z.z.z.z.z.z.",
"z.z.z.z.z.z.z.z.z.z.e.X.Z A #.f.z.z.z.z.z.z.z.z.z.z.z.z.z.z.z.z.z.z.z.z.z.k.;.F b G >.l.z.z.z.z.z.z.z.z.z.z.z.z.z.z.z.z.z.z.z.z.",
"z.z.z.z.z.z.z.z.z.z.z.z.z.z.z.z.z.z.z.z.z.z.z.z.z.z.z.z.z.z.z.z.z.z.z.z.z.z.z.z.z.z.z.z.z.z.z.z.z.z.z.z.z.z.z.z.z.z.z.z.z.z.z.z.",
"z.z.z.z.z.z.z.z.z.z.z.l.z.l.z.z.z.z.z.z.z.z.z.z.z.z.z.z.z.z.z.z.z.z.z.z.z.z.z.l.z.l.z.z.z.z.z.z.z.z.z.z.z.z.z.z.z.z.z.z.z.z.z.z.",
"z.z.z.z.z.z.z.z.z.z.z.z.z.z.z.z.z.z.z.z.z.z.z.z.z.z.z.z.z.z.z.z.z.z.z.z.z.z.z.z.z.z.z.z.z.z.z.z.z.z.z.z.z.z.z.z.z.z.z.z.z.z.z.z.",
"z.z.z.z.z.z.z.z.z.z.z.z.z.z.z.z.z.z.z.z.z.z.z.z.z.z.z.z.z.z.z.z.z.z.z.z.z.z.z.z.z.z.z.z.z.z.z.z.z.z.z.z.z.z.z.z.z.z.z.z.z.z.z.z.",
"z.z.z.z.z.z.z.z.z.z.z.z.z.z.z.z.z.z.z.z.z.z.z.z.z.z.z.z.z.z.z.z.z.z.z.z.z.z.z.z.z.z.z.z.z.z.z.z.z.z.z.z.z.z.z.z.z.z.z.z.z.z.z.z.",
"z.z.z.z.z.z.z.z.z.z.z.z.z.z.z.z.z.z.z.z.z.z.z.z.z.z.z.z.z.z.z.z.z.z.z.z.z.z.z.z.z.z.z.z.z.z.z.z.z.z.z.z.z.z.z.z.z.z.z.z.z.z.z.z.",
"z.z.z.z.z.z.z.z.z.z.z.z.z.z.z.z.z.z.z.z.z.z.z.z.z.z.z.z.z.z.z.z.z.z.z.z.z.z.z.z.z.z.z.z.z.z.z.z.z.z.z.z.z.z.z.z.z.z.z.z.z.z.z.z."
};
