/* XPM */
static char *player__17_1710156992[] = {
/* columns rows colors chars-per-pixel */
"64 64 153 2 ",
"   c #00025B",
".  c #001565",
"X  c #001A66",
"o  c #001768",
"O  c #001C6A",
"+  c #002166",
"@  c #00236D",
"#  c #012571",
"$  c #042974",
"%  c #0A2C76",
"&  c #062A78",
"*  c #0B2D7A",
"=  c #122F79",
"-  c #0B3077",
";  c #0F317A",
":  c #13327D",
">  c #1A367E",
",  c #17397E",
"<  c #193A7F",
"1  c #0E2F80",
"2  c #0F3082",
"3  c #143383",
"4  c #1B3783",
"5  c #1D3A83",
"6  c #143389",
"7  c #1A378F",
"8  c #1D3993",
"9  c #213C81",
"0  c #243E8A",
"q  c #283F8E",
"w  c #203997",
"e  c #243D9B",
"r  c #254285",
"t  c #2A448B",
"y  c #2E4A8A",
"u  c #344E8D",
"i  c #37518F",
"p  c #2E4490",
"a  c #324593",
"s  c #364997",
"d  c #384997",
"f  c #3B4B9A",
"g  c #3B5592",
"h  c #3F5894",
"j  c #2D42A6",
"k  c #3445B2",
"l  c #3948B7",
"z  c #3D4CBC",
"x  c #414E9D",
"c  c #435B96",
"v  c #42509E",
"b  c #475E98",
"n  c #485F98",
"m  c #4C639B",
"M  c #50679D",
"N  c #53689E",
"B  c #4552A1",
"V  c #4B55A4",
"C  c #5057A7",
"Z  c #5259AA",
"A  c #595EAE",
"S  c #5C5EB1",
"D  c #566DA1",
"F  c #5B6FA3",
"G  c #5D72A5",
"H  c #5E61B2",
"J  c #6075A7",
"K  c #6377A8",
"L  c #667AA9",
"P  c #6B7EAC",
"I  c #6464B6",
"U  c #6766B9",
"Y  c #6967BA",
"T  c #6D6ABD",
"R  c #706CBE",
"E  c #3F4CC1",
"W  c #4450C5",
"Q  c #4953CD",
"!  c #4D55D2",
"~  c #5057D6",
"^  c #5156D8",
"/  c #5459DB",
"(  c #736EC1",
")  c #7771C4",
"_  c #7971C5",
"`  c #7E74C9",
"'  c #5A5CE4",
"]  c #5E5FEA",
"[  c #615FEE",
"{  c #6663F5",
"}  c #6864F7",
"|  c #6C66FB",
" . c #6F68FF",
".. c #726AFF",
"X. c #8276CC",
"o. c #8678CE",
"O. c #8A7BD1",
"+. c #907FD5",
"@. c #6E82AE",
"#. c #7081AE",
"$. c #7486B1",
"%. c #7488B4",
"&. c #7A8BB4",
"*. c #7F91B8",
"=. c #8090B7",
"-. c #8190B8",
";. c #8798BD",
":. c #8B9BBE",
">. c #9280D7",
",. c #9582D9",
"<. c #9A85DC",
"1. c #9F88DF",
"2. c #95A3C4",
"3. c #98A6C6",
"4. c #9DABC9",
"5. c #A3AFCC",
"6. c #A4B1CD",
"7. c #ABB6D0",
"8. c #AFBAD3",
"9. c #B3BDD5",
"0. c #9F88E0",
"q. c #A48BE3",
"w. c #A98EE7",
"e. c #AB8FE8",
"r. c #AD91EA",
"t. c #B294EE",
"y. c #B797F0",
"u. c #B897F1",
"i. c #BB9AF3",
"p. c #C09DF7",
"a. c #C39FF9",
"s. c #C6A0FB",
"d. c #CAA3FE",
"f. c #D7AAFF",
"g. c #B7C0D7",
"h. c #BCC5DA",
"j. c #C4CCDF",
"k. c #C8CFE0",
"l. c #CBD2E2",
"z. c #D1D7E5",
"x. c #D3D9E6",
"c. c #D7DCE9",
"v. c #D9DDEA",
"b. c #DDE2EC",
"n. c #E1E5EF",
"m. c #E3E7F0",
"M. c #E6E9F1",
"N. c #EAEDF3",
"B. c #EEF1F6",
"V. c #F0F2F7",
"C. c #F3F5F9",
"Z. c #F7F8FB",
"A. c #FFFFFF",
/* pixels */
"A.A.A.A.A.A.A.A.A.A.A.A.A.A.A.A.A.A.A.A.A.A.A.A.A.A.A.A.A.A.A.A.A.A.A.A.A.A.A.A.A.A.A.A.A.A.A.A.A.A.A.A.A.A.A.A.A.A.A.A.A.A.A.A.",
"A.A.A.A.A.A.A.A.A.A.A.A.A.A.A.A.A.A.A.A.A.A.A.A.A.A.A.A.A.A.A.A.A.A.A.A.A.A.A.A.A.A.A.A.A.A.A.A.A.A.A.A.A.A.A.A.A.A.A.A.A.A.A.A.",
"A.A.A.A.A.A.A.A.A.A.A.A.A.A.A.A.A.A.A.A.A.A.A.A.A.A.A.A.A.A.A.A.A.A.A.Z.A.A.A.A.Z.A.A.A.A.A.A.A.A.A.A.A.A.A.A.A.A.A.A.A.A.A.A.A.",
"A.A.A.A.A.A.A.A.A.A.A.A.A.A.A.A.A.A.A.A.A.A.A.A.A.A.A.A.A.A.A.A.A.A.A.A.Z.V.C.A.A.A.A.A.A.A.A.A.A.A.A.A.A.A.A.A.A.A.A.A.A.A.A.A.",
"A.A.A.A.A.A.A.A.A.A.A.A.A.A.A.A.A.A.A.A.A.A.A.A.A.A.A.A.A.A.A.A.A.A.b.@.y < r N g.A.A.A.A.A.A.A.A.A.A.A.A.A.A.A.A.A.A.A.A.A.A.A.",
"A.A.A.A.A.A.A.A.A.A.A.A.A.A.A.A.A.A.A.A.A.A.A.A.A.A.A.A.A.A.A.Z.A.h.: . O & @ X X $.A.A.A.A.A.A.A.A.A.A.A.A.A.A.A.A.A.A.A.A.A.A.",
"A.A.A.A.A.A.A.A.A.A.A.A.A.A.A.A.A.A.A.A.A.A.A.A.A.A.A.A.A.A.A.A.z.% O f >.w.1.H $ o P A.A.A.A.A.A.A.A.A.A.A.A.A.A.A.A.A.A.A.A.A.",
"A.A.A.A.A.A.A.A.A.A.A.A.A.A.A.A.A.A.A.A.A.A.A.A.A.A.A.A.A.A.A.A.M . v a.s.p.s.d.X.& X P A.A.A.A.A.A.A.A.A.A.A.A.A.A.A.A.A.A.A.A.",
"A.A.A.A.A.A.A.A.A.A.A.A.A.A.A.A.A.A.A.A.A.A.A.A.A.A.A.A.A.A.A.n.: & q.a.i.i.i.u.d.X.& X P A.A.A.A.A.A.A.A.A.A.A.A.A.A.A.A.A.A.A.",
"A.A.A.A.A.A.A.A.A.A.A.A.A.A.A.A.A.A.A.A.A.A.A.A.A.A.A.A.A.A.A.j.+ t i.i.i.i.i.i.i.d.X.$ X @.A.A.A.A.A.A.A.A.A.A.A.A.A.A.A.A.A.A.",
"A.A.A.A.A.A.A.A.A.A.A.A.A.A.A.A.A.A.A.A.A.A.A.A.A.A.A.A.A.A.A.j.@ 0 u.i.i.i.i.i.i.u.d.X.% o 2.A.Z.A.A.A.A.A.A.A.A.A.A.A.A.A.A.A.",
"A.A.A.A.A.A.A.A.A.A.Z.A.A.A.A.A.A.A.A.A.A.A.A.A.A.A.A.A.A.A.A.N., # <.s.i.i.i.i.i.i.i.d.( + 5 B.A.A.A.A.A.Z.Z.A.A.A.A.A.A.A.A.A.",
"A.A.A.A.A.A.A.A.A.A.A.A.A.A.A.A.A.A.A.A.A.A.A.A.A.A.A.A.A.A.A.A.K . p i.p.u.i.i.i.i.u.p.d.a X 7.A.A.A.A.A.A.A.A.A.A.A.A.A.A.A.A.",
"A.A.A.A.A.A.A.A.A.h.&.Z.A.A.A.A.A.A.A.A.A.A.A.A.A.A.A.A.A.A.A.A.m.9 X s i.a.i.i.i.i.s.r.A > $ 4 u c M J $.3.b.A.A.A.A.A.A.A.A.A.",
"A.A.A.A.A.A.A.Z.A.m   4.A.Z.A.A.A.A.A.A.A.A.A.A.A.A.A.A.A.A.A.A.A.x.> O d i.d.a.i.i.+.3 X @ * $ + X X . . . % &.A.A.A.A.A.A.A.A.",
"A.A.A.A.A.A.A.A.A.2.o c A.A.Z.A.A.A.A.A.A.A.A.A.A.A.A.A.A.A.A.A.Z.A.z.> X f o.x 4 4 & @ 8 ! ' ' / ~ Q W z e $ o P A.A.A.A.A.A.A.",
"A.A.A.A.A.A.A.A.A.N.: @ z.A.A.A.A.A.A.A.A.A.A.A.A.A.A.A.A.A.A.A.A.Z.A.x.r @ # . # $ # 8 }  .| }  . . . . . .Q % X 6.A.A.A.A.A.A.",
"A.A.A.A.A.A.A.A.Z.A.@.. G 8.5.x.A.A.Z.A.A.A.A.A.A.A.A.A.A.A.A.A.A.A.Z.A.P O - I >.; $ '  .{ } } } } } } { { ..z O h A.A.A.A.A.A.",
"A.A.A.A.A.A.A.A.A.A.*.# # . o % m c.A.A.A.A.A.A.A.A.A.A.A.A.A.A.A.A.A.k.$ # X.f.0.@ 6 } } } } } } } } } } } } ] & ; N.A.A.A.A.A.",
"A.A.A.A.A.A.A.A.A.-.O # 4 x d % o = k.A.A.A.A.A.A.A.A.A.A.A.A.A.A.Z.A.G . C d.p.,.$ 2 } } } } } } } } } } } } { * * b.A.A.A.A.A.",
"A.A.A.A.A.A.A.A.g.O $ Y u.s.s.r.f X r V.A.A.A.A.A.A.A.A.A.A.A.A.A.A.l.# % q.p.i.t.3 @ /  .{ } } } { } } } } | ' # 5 B.A.A.A.A.A.",
"A.A.A.A.A.A.A.A.b X H d.i.u.y.s.i.q X 2.A.Z.A.A.A.A.A.A.A.A.A.A.A.A.G o C s.u.u.s.Z + 7 [  .| | } } } } } | ..j X D A.A.A.A.A.A.",
"A.A.A.A.A.A.A.n.; * e.s.u.i.i.u.d._ X g A.A.A.A.A.A.A.A.A.A.A.A.A.z.$ % q.a.u.i.i.t.5 O 3 E / ' ] { { } } ] j @ # l.A.Z.A.A.A.A.",
"A.A.A.A.A.A.A.l.# 9 u.i.i.i.i.i.p.t.3 @ h.A.A.A.A.A.A.A.A.A.A.A.A.J . V s.i.i.i.i.s.q.q $ @ @ # & * 2 7 7 & O # 6.A.A.A.A.A.A.A.",
"A.A.A.A.A.A.A.b.% * r.p.i.i.i.i.u.d.A . J A.A.A.A.A.A.A.A.A.A.A.z.$ % 1.a.u.p.i.i.i.d.w.* & y r , % $ @ + % c j.A.A.A.A.A.A.A.A.",
"A.A.A.A.A.A.A.A.h X ) d.i.i.i.i.i.s.<.# : n.A.A.A.A.A.A.A.A.Z.A.K . C a.u.i.i.i.i.u.s.I X c A.C.N.n.z.j.h.c.A.A.Z.A.A.A.A.A.A.A.",
"A.A.A.A.A.A.A.A.3.X a p.i.i.p.i.i.u.a.d o :.A.Z.A.A.A.A.A.Z.A.x.% $ 1.a.i.p.p.u.i.p.r.: O g.A.A.A.A.A.A.A.A.A.A.A.A.A.A.A.A.A.A.",
"A.A.A.A.A.A.A.A.N.4 @ >.s.i.i.i.i.u.s.X.X g A.A.A.A.A.A.A.A.A.*.. B a.u.u.u.p.i.u.d.I o b A.A.A.A.A.A.Z.A.A.A.A.A.A.A.A.A.A.A.A.",
"A.A.A.A.A.A.A.Z.A.@.. C d.u.i.i.i.i.a.r.* % c n c b m b b b m < O X.d.u.i.i.i.u.i.t., O 9.A.A.A.A.A.A.A.A.A.A.A.A.A.A.A.A.A.A.A.",
"A.A.A.A.A.A.A.A.A.k.@ : r.i.i.i.i.i.i.t.3 # + X X X X X X X X $ @ O.a.i.i.p.p.u.d.U o c A.A.A.A.A.A.A.A.A.A.A.A.A.A.A.A.A.A.A.A.",
"A.A.A.A.A.A.A.A.A.A.c . R d.y.i.i.u.s.<.# ; ! ! ! ! ! ! ! ! ~ e X H d.u.u.i.i.i.t.> X 9.A.A.A.A.A.A.A.A.A.A.A.A.A.A.A.A.A.A.A.A.",
"A.A.A.A.A.A.A.A.A.A.5.o 4 r.d.i.p.s.s.f + j .. . .|  . . .| ..~ @ : e.d.a.d.a.d.Z o h A.A.A.A.A.A.A.A.A.A.A.A.A.A.A.A.A.A.A.A.A.",
"A.A.A.A.A.A.A.A.A.A.Z.c O 5 o.u.i.<.s @ * ] } { { { { { { } } } w + 4 o.` H I C # & h.A.A.A.A.A.A.A.A.A.A.A.A.A.A.A.A.A.A.A.A.A.",
"A.A.A.A.A.A.A.A.A.A.A.v.: # O % * # @ 1 ~ | { } } } } } } } } } [ 8 # # + X X @ O D A.A.A.A.A.A.A.A.A.A.A.A.A.A.A.A.A.A.A.A.A.A.",
"A.A.A.A.A.A.A.A.A.A.A.D # $ a B s & # 3 ] } } } } } } } } } } {  .k # $ a I H t # # :.A.Z.A.A.A.A.A.A.A.A.A.A.A.A.A.A.A.A.A.A.A.",
"A.A.A.A.A.A.A.A.Z.A.&.. : O.a.d.a.q.t + 8  .} } } } } } } } } | ! @ $ R a.d.d.a.Y # O 9.A.Z.A.A.A.A.A.A.A.A.A.A.A.A.A.A.A.A.A.A.",
"A.A.A.A.A.A.A.Z.A.9.@ # O.d.u.i.i.a.r.: # ~  .} } } } } } } }  .e X I d.u.i.i.i.d.H O , v.A.A.A.A.A.A.A.A.A.A.A.A.A.A.A.A.A.A.A.",
"A.A.A.A.A.A.A.A.N.5 O H d.i.i.i.i.u.a.A X l ..} } |  .}  .} } } 3 $ 1.p.u.i.i.i.i.a.f O y V.A.Z.A.A.A.A.A.A.A.A.A.A.A.A.A.A.A.A.",
"A.A.A.A.A.A.Z.A.m o a p.i.i.i.i.i.i.d.T + 3 8 8 8 8 8 8 8 8 8 8 $ : t.i.i.i.i.i.i.i.u.0 X D A.A.A.A.A.A.A.A.A.A.A.A.A.A.A.A.A.A.",
"A.A.A.A.A.Z.A.2.X ; w.a.i.i.p.i.i.i.d.Z @ # O + O + O O + O O O $ # ,.a.i.i.i.i.i.u.a.0.= X *.A.Z.A.A.A.A.A.A.A.A.A.A.A.A.A.A.A.",
"A.A.A.A.Z.A.l.$ @ ` d.u.i.i.i.i.i.p.r.: # 2.h.9.g.g.g.g.g.g.9.l.D o v s.i.i.i.i.i.p.i.d.X.# # 7.A.Z.A.A.A.A.A.A.A.A.A.A.A.A.A.A.",
"A.A.A.A.A.C.t X Z d.u.i.i.i.i.i.i.a.x o c A.A.A.A.A.A.A.A.A.A.A.c.% + R d.i.i.i.i.i.i.u.d.I O = x.A.A.A.A.A.A.A.A.A.A.A.A.A.A.A.",
"A.A.A.A.A.L o 0 i.i.i.i.i.i.i.i.d.T O : c.A.Z.A.Z.A.A.A.A.A.Z.Z.A.4.O & O.a.i.i.i.i.i.i.i.a.B X i A.A.A.A.A.A.A.A.A.A.A.A.A.A.A.",
"A.A.A.A.j.@ % <.a.i.i.i.i.i.i.a.<.% O 4.A.A.A.A.A.A.A.A.A.A.A.A.Z.A.$.X : w.p.i.i.i.i.i.i.i.y.5 X 7.A.A.A.A.A.A.A.A.A.A.A.A.A.A.",
"A.A.Z.A.$.. C d.u.i.i.i.i.i.i.i.0 X K A.Z.A.A.A.A.A.A.A.A.A.A.A.A.A.A.m o q i.i.i.i.i.i.i.u.d.I . @.A.Z.A.A.A.A.A.A.A.A.A.A.A.A.",
"A.A.A.A.N o X.s.i.i.i.i.i.i.a.Z X t C.A.A.A.A.A.A.A.A.A.A.A.A.A.A.A.A.N.r X V a.i.i.p.i.i.i.s.) . G A.A.A.A.A.A.A.A.A.A.A.A.A.A.",
"A.A.A.A.F . ) s.u.i.i.i.i.d.` @ $ j.A.A.A.A.A.A.A.A.A.A.A.A.A.A.A.A.Z.A.l.% + U d.i.i.i.i.u.d.H . $.A.A.A.A.A.A.A.A.A.A.A.A.A.A.",
"A.A.Z.A.;.. v d.i.u.i.u.a.w.: X :.A.Z.A.A.A.A.A.A.A.A.A.A.A.A.A.A.A.A.A.A.5.@ # o.d.i.u.u.d.t.> X 9.A.Z.A.A.A.A.A.A.A.A.A.A.A.A.",
"A.A.A.A.v.% @ R d.d.a.d.u.t o M A.A.A.A.A.A.A.A.A.A.A.A.A.A.A.A.A.A.A.A.Z.A.&.o = X.a.a.a.q.p o g A.A.A.A.A.A.A.A.A.A.A.A.A.A.A.",
"A.A.A.A.A.:.o # B O.,.( 0 X 9 M.A.A.A.A.A.A.A.A.A.A.A.A.A.A.A.A.A.A.A.A.A.A.A.G . @ p V f % o 9 v.A.Z.A.A.A.A.A.A.A.A.A.A.A.A.A.",
"A.A.A.A.A.A.:.% o X O . o u c.A.A.A.A.A.A.A.A.A.A.A.A.A.A.A.A.A.A.A.A.A.A.A.A.A.=.: X . X % G n.A.A.A.A.A.A.A.A.A.A.A.A.A.A.A.A.",
"A.A.A.A.A.A.A.c.&.c h D 3.C.A.Z.A.A.A.A.A.A.A.A.A.A.A.A.A.A.A.A.A.A.A.A.A.A.A.A.A.N.9.4.6.x.A.A.A.A.A.A.A.A.A.A.A.A.A.A.A.A.A.A.",
"A.A.A.A.A.A.Z.A.A.A.A.A.A.A.A.A.A.A.A.A.A.A.A.A.A.A.A.A.A.A.A.A.A.A.A.A.A.A.A.A.Z.A.A.A.A.A.Z.A.A.A.A.A.A.A.A.A.A.A.A.A.A.A.A.A.",
"A.A.A.A.A.A.A.A.Z.A.A.A.A.Z.A.A.A.A.A.A.A.A.A.A.A.A.A.A.A.A.A.A.A.A.A.A.A.A.A.A.A.A.Z.A.A.A.A.A.A.A.A.A.A.A.A.A.A.A.A.A.A.A.A.A.",
"A.A.A.A.A.A.A.A.A.A.A.A.A.A.A.A.A.A.A.A.A.A.A.A.A.A.A.A.A.A.A.A.A.A.A.A.A.A.A.A.A.A.A.A.A.A.A.A.A.A.A.A.A.A.A.A.A.A.A.A.A.A.A.A.",
"A.A.A.A.A.A.A.A.A.A.A.A.A.A.A.A.A.A.A.A.A.A.A.A.A.A.A.A.A.A.A.A.A.A.A.A.A.A.A.A.A.A.A.A.A.A.A.A.A.A.A.A.A.A.A.A.A.A.A.A.A.A.A.A.",
"A.A.A.A.A.A.A.A.A.A.A.A.A.A.A.A.A.A.A.A.A.A.A.A.A.A.A.A.A.A.A.A.A.A.A.A.A.A.A.A.A.A.A.A.A.A.A.A.A.A.A.A.A.A.A.A.A.A.A.A.A.A.A.A.",
"A.A.A.A.A.A.A.A.A.A.A.A.A.A.A.A.A.A.A.A.A.A.A.A.A.A.A.A.A.A.A.A.A.A.A.A.A.A.A.A.A.A.A.A.A.A.A.A.A.A.A.A.A.A.A.A.A.A.A.A.A.A.A.A.",
"A.A.A.A.A.A.A.A.A.A.A.A.A.A.A.A.A.A.A.A.A.A.A.A.A.A.A.A.A.A.A.A.A.A.A.A.A.A.A.A.A.A.A.A.A.A.A.A.A.A.A.A.A.A.A.A.A.A.A.A.A.A.A.A.",
"A.A.A.A.A.A.A.A.A.A.A.A.A.A.A.A.A.A.A.A.A.A.A.A.A.A.A.A.A.A.A.A.A.A.A.A.A.A.A.A.A.A.A.A.A.A.A.A.A.A.A.A.A.A.A.A.A.A.A.A.A.A.A.A.",
"A.A.A.A.A.A.A.A.A.A.A.A.A.A.A.A.A.A.A.A.A.A.A.A.A.A.A.A.A.A.A.A.A.A.A.A.A.A.A.A.A.A.A.A.A.A.A.A.A.A.A.A.A.A.A.A.A.A.A.A.A.A.A.A.",
"A.A.A.A.A.A.A.A.A.A.A.A.A.A.A.A.A.A.A.A.A.A.A.A.A.A.A.A.A.A.A.A.A.A.A.A.A.A.A.A.A.A.A.A.A.A.A.A.A.A.A.A.A.A.A.A.A.A.A.A.A.A.A.A.",
"A.A.A.A.A.A.A.A.A.A.A.A.A.A.A.A.A.A.A.A.A.A.A.A.A.A.A.A.A.A.A.A.A.A.A.A.A.A.A.A.A.A.A.A.A.A.A.A.A.A.A.A.A.A.A.A.A.A.A.A.A.A.A.A.",
"A.A.A.A.A.A.A.A.A.A.A.A.A.A.A.A.A.A.A.A.A.A.A.A.A.A.A.A.A.A.A.A.A.A.A.A.A.A.A.A.A.A.A.A.A.A.A.A.A.A.A.A.A.A.A.A.A.A.A.A.A.A.A.A."
};
