/* XPM */
static char *player__13_1710156992[] = {
/* columns rows colors chars-per-pixel */
"64 64 145 2 ",
"   c #00075E",
".  c #001565",
"X  c #001B66",
"o  c #001768",
"O  c #001C6A",
"+  c #002166",
"@  c #00236D",
"#  c #012571",
"$  c #052974",
"%  c #0A2D76",
"&  c #0B2E7B",
"*  c #112F79",
"=  c #0E317C",
"-  c #13327D",
";  c #1A367F",
":  c #193A7F",
">  c #163481",
",  c #1A3682",
"<  c #1D3C82",
"1  c #17358B",
"2  c #19368E",
"3  c #1C388F",
"4  c #213C85",
"5  c #243D8A",
"6  c #253D9D",
"7  c #254285",
"8  c #284487",
"9  c #2A438C",
"0  c #2B4889",
"q  c #324D8D",
"w  c #35518F",
"e  c #2F4391",
"r  c #334593",
"t  c #354996",
"y  c #3C4B9A",
"u  c #375390",
"i  c #3B5591",
"p  c #3F5894",
"a  c #2C42A6",
"s  c #2F43AD",
"d  c #3246AD",
"f  c #3547B1",
"g  c #3C4BBC",
"h  c #404E9D",
"j  c #405793",
"k  c #425A95",
"l  c #475F98",
"z  c #485E98",
"x  c #4A639B",
"c  c #536A9F",
"v  c #4752A1",
"b  c #4B55A4",
"n  c #4F58A7",
"m  c #4F57A8",
"M  c #5057A9",
"N  c #545BAA",
"B  c #595DAE",
"V  c #5C5FB0",
"C  c #526BA0",
"Z  c #596EA2",
"A  c #5D72A4",
"S  c #5F61B2",
"D  c #6276A7",
"F  c #667AAA",
"G  c #697CAB",
"H  c #6262B5",
"J  c #6766B8",
"K  c #6A67B9",
"L  c #6D6ABC",
"P  c #706BBF",
"I  c #414DC2",
"U  c #4B53CF",
"Y  c #4F56D5",
"T  c #5157D6",
"R  c #5358D7",
"E  c #5459DB",
"W  c #746DC1",
"Q  c #7A71C6",
"!  c #7D73C8",
"~  c #575AE1",
"^  c #595CE3",
"/  c #5E5EE9",
"(  c #6260EF",
")  c #6663F5",
"_  c #6864F7",
"`  c #6B66FB",
"'  c #6F68FF",
"]  c #726AFF",
"[  c #8276CB",
"{  c #877ACE",
"}  c #887ACF",
"|  c #8A7CD1",
" . c #907FD5",
".. c #6F81AE",
"X. c #7384B1",
"o. c #7A8BB4",
"O. c #7D8FB8",
"+. c #8494BA",
"@. c #8A9ABE",
"#. c #919FC1",
"$. c #9381D7",
"%. c #9682D9",
"&. c #9B85DC",
"*. c #94A3C4",
"=. c #98A6C7",
"-. c #9BA8C7",
";. c #9DABC9",
":. c #A2AECB",
">. c #A5B1CD",
",. c #A8B3CF",
"<. c #ACB7D1",
"1. c #AFB9D3",
"2. c #B2BCD5",
"3. c #A38AE2",
"4. c #A98EE6",
"5. c #AB8FE8",
"6. c #AE91EA",
"7. c #B394EE",
"8. c #B797F0",
"9. c #B897F1",
"0. c #BB9AF4",
"q. c #C09CF7",
"w. c #C39EF9",
"e. c #C6A0FB",
"r. c #CAA3FE",
"t. c #B6C0D6",
"y. c #BCC5DA",
"u. c #C3CADD",
"i. c #C7CEE0",
"p. c #C8CFE1",
"a. c #CBD2E2",
"s. c #D0D7E5",
"d. c #D3D9E7",
"f. c #D6DBE8",
"g. c #DADEEA",
"h. c #DDE1EC",
"j. c #E0E4EE",
"k. c #E3E7F0",
"l. c #E6E9F1",
"z. c #EAEDF3",
"x. c #EEF1F6",
"c. c #F1F3F7",
"v. c #F3F5F8",
"b. c #F7F8FB",
"n. c #FFFFFF",
/* pixels */
"n.n.n.n.n.n.n.n.n.n.n.n.n.n.n.n.n.n.n.n.n.n.n.n.n.n.n.n.n.n.n.n.n.n.n.n.n.n.n.n.n.n.n.n.n.n.n.n.n.n.n.n.n.n.n.n.n.n.n.n.n.n.n.n.",
"n.n.n.n.n.n.n.n.n.n.n.n.n.n.n.n.n.n.n.n.n.n.n.n.n.n.n.n.n.n.n.n.n.n.n.n.n.n.n.n.n.h.:.*.>.h.n.n.n.n.n.n.n.n.n.n.n.n.n.n.n.n.n.n.",
"n.n.n.n.n.n.n.n.n.n.n.n.n.n.n.n.n.n.n.n.n.n.n.n.n.n.n.n.n.n.n.n.n.n.n.n.n.n.n.c.G % . . . & ..v.n.b.n.n.n.n.n.n.n.n.n.n.n.n.n.n.",
"n.n.n.n.n.n.n.n.n.n.n.n.n.n.n.n.n.n.n.n.n.n.n.n.n.n.n.n.n.n.n.n.n.n.n.n.n.n.v.u . # y N y # . w v.n.n.n.n.n.n.n.n.n.n.n.n.n.n.n.",
"n.n.n.n.n.n.n.n.n.n.n.n.n.n.n.n.n.n.n.n.n.n.n.n.n.n.n.n.n.n.n.n.n.n.n.n.b.n.... 4 %.w.e.w.%.4 . ..n.b.n.n.n.n.n.n.n.n.n.n.n.n.n.",
"n.n.n.n.n.n.n.n.n.n.n.n.n.n.n.n.n.n.n.n.n.n.n.n.n.n.n.n.n.n.n.n.n.n.n.n.n.k.- # %.r.0.9.0.r.$.# % h.n.n.n.n.n.n.n.n.n.n.n.n.n.n.",
"n.n.n.n.n.n.n.n.n.n.n.n.n.n.n.n.n.n.n.n.n.n.n.n.n.n.n.n.n.n.n.n.n.n.n.b.n.<.X r q.0.0.0.0.9.r.h . O.n.n.n.n.n.n.n.n.n.n.n.n.n.n.",
"n.n.n.n.n.n.n.n.n.n.n.n.n.n.n.n.n.n.n.n.n.n.n.n.n.n.n.n.n.n.n.n.n.n.n.n.n.-.. b r.0.0.0.0.9.w.| O 7 x.n.n.n.n.n.n.n.n.n.n.n.n.n.",
"n.n.n.n.n.n.n.n.n.n.n.n.n.n.n.n.n.n.n.n.n.n.n.n.n.n.n.n.n.n.n.n.n.n.n.n.n.<.X r q.0.0.0.0.0.q.0.9 o -.n.n.n.n.n.n.n.n.n.n.n.n.n.",
"n.n.n.n.n.n.n.n.n.n.n.n.n.n.n.n.n.n.n.n.n.n.n.n.n.n.n.n.n.n.n.n.n.n.n.n.n.j.- # &.e.0.0.0.0.0.r.W X i n.n.n.n.n.n.n.n.n.n.n.n.n.",
"n.n.n.n.n.n.n.n.n.n.c.n.n.n.n.n.n.n.n.n.n.n.n.n.n.n.n.n.n.n.n.n.n.n.n.n.n.n.F . N e.0.0.0.0.0.q.7.> O u.n.b.n.n.n.n.n.n.n.n.n.n.",
"n.n.n.n.n.n.n.b.n.o.- d.n.n.n.n.n.n.n.n.n.n.n.n.n.n.n.n.n.n.n.n.n.n.n.n.n.n.i.@ = 6.0.0.0.0.0.9.r.N . +.n.n.n.n.n.n.n.n.n.n.n.n.",
"n.n.n.n.n.n.n.n.n.D   ..n.n.n.n.n.n.n.n.n.n.n.n.n.n.n.n.n.n.n.n.n.n.n.n.n.n.n.l . K r.0.0.0.w.w.w.K . O.n.n.b.n.n.n.n.n.n.n.n.n.",
"n.n.n.n.n.n.n.n.n.u.@ 4 z.n.n.b.n.n.n.n.n.n.n.n.n.n.n.n.n.n.n.n.n.n.n.n.n.n.n.<.O 4 4.4.8.e.[ h 5 > O c g.n.n.n.n.b.n.n.n.n.n.n.",
"n.n.n.n.n.n.n.n.n.n.w . >.n.n.n.n.n.n.n.n.n.n.n.n.n.n.n.n.n.n.n.n.n.n.n.n.b.n.b.< # = $ , 9 @ + # # @ @ # q X.2.c.n.n.n.n.n.n.n.",
"n.n.n.n.n.n.n.n.b.n.*.X 8 k i X.a.n.n.n.n.n.n.n.n.n.n.n.n.n.n.n.n.n.n.n.n.n.b.x # @ % > $ @ & g E E I 6 & @ . O < *.n.n.n.n.n.n.",
"n.n.n.n.n.n.n.n.n.l.k # O X X . # o.n.n.n.n.n.n.n.n.n.n.n.n.n.n.n.n.n.n.n.n.Z . - L 8.Q # & ~ ] ' ' ' ' ) Y f 1 @ . X.n.n.n.n.n.",
"n.n.n.n.n.n.n.n.v.q . ; H | { n # . o.n.b.n.n.n.n.n.n.n.n.n.n.n.n.n.n.b.n.+.X = %.r.r.h X g ' ) ) _ ) ) _ ' ' _ I % O ,.n.n.n.n.",
"n.n.n.n.n.n.b.n.+.. 5 5.r.e.e.r.[ $ # a.n.n.n.n.n.n.n.n.n.n.n.n.n.n.n.n.2.# @ ! r.8.0.5 @ E ` ) _ _ ) _ _ ) ) _ ] g X u n.n.n.n.",
"n.n.n.n.n.n.n.b.0 O } r.9.0.0.8.r.M . F n.n.n.n.n.n.n.n.n.n.n.n.n.n.n.h.; O V r.0.0.0.5 # E ` ) _ _ _ _ _ _ _ ) ` ( & % g.n.n.n.",
"n.n.n.n.n.n.n.g.$ - 7.0.0.0.0.0.q.&.# ; k.n.n.n.n.n.n.n.n.n.n.n.n.n.b.u X t q.0.0.0.q.h X g ] ) ) _ _ _ _ _ _ _ ) ) 1 @ u.n.n.n.",
"n.n.n.n.n.n.n.d.# , 9.q.0.0.0.0.0.q.t . *.n.b.n.n.n.n.n.n.n.n.n.n.n.G X , 6.q.0.0.0.e.[ @ % E ] ` _ ) ) _ _ _ ) _ ) & % h.n.n.n.",
"n.n.n.n.n.n.n.c.4 @ &.w.0.0.q.0.0.e.! X u n.n.n.n.n.n.n.n.n.n.n.n.*.O $ $.e.0.0.0.0.0.e.h @ & g ^ ` ' ' ` ) ) ) ] g X u n.n.n.n.",
"n.n.n.n.n.n.n.n.F . B w.0.0.0.0.0.0.7., O y.n.b.n.n.n.b.n.n.b.n.a.$ O W r.0.0.0.0.0.0.0.0.5 # X # 1 f Y ( ' ' ` I = o :.n.b.n.n.",
"n.n.n.n.n.n.n.n.u.@ - 7.w.0.q.0.0.0.r.S . D n.n.n.n.n.n.n.n.n.n.j . n e.0.0.0.0.0.0.0.w.| $ $ x : O . O & 6 a 2 @ . G n.n.n.n.n.",
"n.n.n.n.n.n.n.n.n.i X W w.9.0.0.0.0.q.&.# : y.u.u.i.u.u.u.u.i.:.# - 7.0.0.0.0.0.0.0.w.4.* o o.n.z.2.X.q $ X X X : *.n.n.n.n.n.n.",
"n.n.n.n.n.n.n.n.n.-.o e w.0.0.0.0.0.0.9.> # @ @ @ @ @ @ @ @ @ # # y e.9.0.0.0.0.0.0.0.e o x n.n.n.n.n.n.d.<.*.2.x.n.n.n.n.n.n.n.",
"n.n.n.n.n.n.n.n.n.z., @  .w.0.q.0.0.0.7.- $ 1 1 1 1 1 1 2 1 1 > @ y e.0.0.0.9.0.0.w.b X 7 z.n.n.n.n.b.n.n.n.n.n.n.n.n.n.n.n.n.n.",
"n.n.n.n.n.n.n.n.n.n.... v r.0.0.0.8.r.! @ 1 ` _ ` ` _ ` _ _ ' E @ , 0.q.w.r.e.e.r.L @ % a.n.n.n.n.n.n.n.n.b.n.n.n.n.n.n.n.n.n.n.",
"n.n.n.n.n.n.n.n.n.n.d.$ # L r.w.r.r.%.- + I ' ) _ _ _ _ _ _ _ _ 1 + S 0.[ B n W ! % X -.n.b.n.n.n.n.n.n.n.n.n.n.n.n.n.n.n.n.n.n.",
"n.n.n.n.n.n.n.n.n.b.n.@.O # r J P n % @ 6 ` ) ) _ _ _ _ _ _ ) ' U # % , X X X X # O X.n.b.n.n.n.n.n.n.n.n.n.n.n.n.n.n.n.n.n.n.n.",
"n.n.n.n.n.n.n.n.b.n.v.x # # 4 r , X # = ( ` ) ` _ _ _ _ _ _ _ ) ] s # @ 4 H L v % @ l k.n.n.n.n.n.n.n.n.n.n.n.n.n.n.n.n.n.n.n.n.",
"n.n.n.n.n.n.n.n.n.b.k . > | e.r.e.} - @ f ' ) _ _ ` _ _ _ _ ) ` ( 1 # M q.r.w.r.&., . 9 h.n.b.n.n.n.n.n.n.n.n.n.n.n.n.n.n.n.n.n.",
"n.n.n.n.n.n.n.n.n.x X ; 3.r.0.0.9.r.| @ % / ` ) ) ) ) ) ) ) ) ' M + 5 w.0.0.0.9.e.5.5 X ; a.n.b.n.n.n.n.n.n.n.n.n.n.n.n.n.n.n.n.",
"n.n.n.n.n.n.n.n.C . - &.e.9.0.0.0.9.e.r + U ] ' ' ` ' ` ' ' ` ] s X W r.0.0.0.0.9.w.7.t X % 2.n.b.n.n.n.n.n.n.n.n.n.n.n.n.n.n.n.",
"n.n.n.n.b.n.n.Z X - &.e.9.0.0.0.0.0.e.N X d E R R R R R T T R R 2 O ! w.0.0.0.0.0.0.q.q.v @ # =.n.n.n.n.n.n.n.n.n.n.n.n.n.n.n.n.",
"n.n.n.n.n.n.A o & %.e.9.0.0.0.0.0.0.e.t @ @ O O O O O O O O @ X O @ H r.9.0.0.0.0.0.0.q.w.B @ @ +.n.n.n.n.n.n.n.n.n.n.n.n.n.n.n.",
"n.n.n.n.n.G X &  .r.9.0.0.0.0.0.9.e.&.% % k k j k k k k k i j z x # , 6.w.9.0.0.0.0.0.0.0.r.K # X o.n.n.n.n.n.n.n.n.n.n.n.n.n.n.",
"n.n.n.n.o.X $ | r.0.0.0.0.0.0.0.q.7.7 o A n.n.n.n.n.n.n.n.n.n.n.n.i . 9 5.w.0.0.0.q.0.0.0.9.r.W $ O t.n.n.n.n.n.n.n.n.n.n.n.n.n.",
"n.n.n.u.@ # [ r.9.0.0.0.0.0.0.q.8.9 X 9 l.n.n.n.n.n.n.n.n.n.n.n.n.h.7 o 4 3.r.9.0.0.0.0.0.0.0.r.V . x n.n.n.n.n.n.n.n.n.n.n.n.n.",
"n.b.n.G . N r.9.0.0.0.0.0.0.0.0.e X 7 h.n.b.n.n.n.n.n.n.n.n.n.n.n.n.k.w o - $.r.0.0.0.0.0.0.0.e.3.# < v.n.n.n.n.n.n.n.n.n.n.n.n.",
"n.n.n.i X | w.9.0.0.0.0.0.e.0.t O < g.n.n.n.n.n.n.n.n.n.n.n.n.n.n.n.n.v.x X % [ r.8.0.0.0.0.0.0.6.% = z.n.n.n.n.n.n.n.n.n.n.n.n.",
"n.n.n.u O $.w.0.0.0.0.0.0.e.t X ; f.n.n.n.n.n.n.n.n.n.n.n.n.n.n.n.n.n.n.n.D X # W r.0.0.0.0.9.e.&.@ 4 v.n.n.n.n.n.n.n.n.n.n.n.n.",
"n.n.n.Z . L r.9.0.0.0.0.q.y O ; d.n.b.n.n.n.n.n.n.n.n.n.n.n.n.n.n.n.n.b.n.n.o.O @ H e.q.0.0.0.r.v X A n.n.n.n.n.n.n.n.n.n.n.n.n.",
"n.b.n.:.X , 4.r.0.0.e.e.v X - a.n.b.n.n.n.n.n.n.n.n.n.n.n.n.n.n.n.n.n.n.n.n.n.@.@ @ n 7.w.w.7.B @ $ s.n.n.n.n.n.n.n.n.n.n.n.n.n.",
"n.n.n.n.z . 4 { 7.7.&.y O $ u.n.n.n.n.n.n.n.n.n.n.n.n.n.n.n.n.n.n.n.n.n.n.n.n.n.:.$ X - h h ; X # -.n.n.n.n.n.n.n.n.n.n.n.n.n.n.",
"n.n.n.n.z.u o X = > @ . - y.n.b.n.n.n.n.n.n.n.n.n.n.n.n.n.n.n.n.n.n.n.n.n.n.n.b.n.u.i # . X @ t y.n.n.n.n.n.n.n.n.n.n.n.n.n.n.n.",
"n.n.n.n.n.b.+.0 % % < D h.n.b.n.n.n.n.n.n.n.n.n.n.n.n.n.n.n.n.n.n.n.n.n.n.n.n.n.n.n.n.a.,.,.p.n.n.b.n.n.n.n.n.n.n.n.n.n.n.n.n.n.",
"n.n.n.n.n.n.n.b.j.h.x.n.n.b.n.n.n.n.n.n.n.n.n.n.n.n.n.n.n.n.n.n.n.n.n.n.n.n.n.n.n.n.n.n.n.n.n.n.n.n.n.n.n.n.n.n.n.n.n.n.n.n.n.n.",
"n.n.n.n.n.n.b.n.n.n.n.n.n.n.n.n.n.n.n.n.n.n.n.n.n.n.n.n.n.n.n.n.n.n.n.n.n.n.n.n.n.n.n.n.n.b.n.n.n.n.n.n.n.n.n.n.n.n.n.n.n.n.n.n.",
"n.n.n.n.n.n.n.n.n.n.n.n.n.n.n.n.n.n.n.n.n.n.n.n.n.n.n.n.n.n.n.n.n.n.n.n.n.n.n.n.n.n.n.n.n.n.n.n.n.n.n.n.n.n.n.n.n.n.n.n.n.n.n.n.",
"n.n.n.n.n.n.n.n.n.n.n.n.n.n.n.n.n.n.n.n.n.n.n.n.n.n.n.n.n.n.n.n.n.n.n.n.n.n.n.n.n.n.n.n.n.n.n.n.n.n.n.n.n.n.n.n.n.n.n.n.n.n.n.n.",
"n.n.n.n.n.n.n.n.n.n.n.n.n.n.n.n.n.n.n.n.n.n.n.n.n.n.n.n.n.n.n.n.n.n.n.n.n.n.n.n.n.n.n.n.n.n.n.n.n.n.n.n.n.n.n.n.n.n.n.n.n.n.n.n.",
"n.n.n.n.n.n.n.n.n.n.n.n.n.n.n.n.n.n.n.n.n.n.n.n.n.n.n.n.n.n.n.n.n.n.n.n.n.n.n.n.n.n.n.n.n.n.n.n.n.n.n.n.n.n.n.n.n.n.n.n.n.n.n.n.",
"n.n.n.n.n.n.n.n.n.n.n.n.n.n.n.n.n.n.n.n.n.n.n.n.n.n.n.n.n.n.n.n.n.n.n.n.n.n.n.n.n.n.n.n.n.n.n.n.n.n.n.n.n.n.n.n.n.n.n.n.n.n.n.n.",
"n.n.n.n.n.n.n.n.n.n.n.n.n.n.n.n.n.n.n.n.n.n.n.n.n.n.n.n.n.n.n.n.n.n.n.n.n.n.n.n.n.n.n.n.n.n.n.n.n.n.n.n.n.n.n.n.n.n.n.n.n.n.n.n.",
"n.n.n.n.n.n.n.n.n.n.n.n.n.n.n.n.n.n.n.n.n.n.n.n.n.n.n.n.n.n.n.n.n.n.n.n.n.n.n.n.n.n.n.n.n.n.n.n.n.n.n.n.n.n.n.n.n.n.n.n.n.n.n.n.",
"n.n.n.n.n.n.n.n.n.n.n.n.n.n.n.n.n.n.n.n.n.n.n.n.n.n.n.n.n.n.n.n.n.n.n.n.n.n.n.n.n.n.n.n.n.n.n.n.n.n.n.n.n.n.n.n.n.n.n.n.n.n.n.n.",
"n.n.n.n.n.n.n.n.n.n.n.n.n.n.n.n.n.n.n.n.n.n.n.n.n.n.n.n.n.n.n.n.n.n.n.n.n.n.n.n.n.n.n.n.n.n.n.n.n.n.n.n.n.n.n.n.n.n.n.n.n.n.n.n.",
"n.n.n.n.n.n.n.n.n.n.n.n.n.n.n.n.n.n.n.n.n.n.n.n.n.n.n.n.n.n.n.n.n.n.n.n.n.n.n.n.n.n.n.n.n.n.n.n.n.n.n.n.n.n.n.n.n.n.n.n.n.n.n.n.",
"n.n.n.n.n.n.n.n.n.n.n.n.n.n.n.n.n.n.n.n.n.n.n.n.n.n.n.n.n.n.n.n.n.n.n.n.n.n.n.n.n.n.n.n.n.n.n.n.n.n.n.n.n.n.n.n.n.n.n.n.n.n.n.n.",
"n.n.n.n.n.n.n.n.n.n.n.n.n.n.n.n.n.n.n.n.n.n.n.n.n.n.n.n.n.n.n.n.n.n.n.n.n.n.n.n.n.n.n.n.n.n.n.n.n.n.n.n.n.n.n.n.n.n.n.n.n.n.n.n.",
"n.n.n.n.n.n.n.n.n.n.n.n.n.n.n.n.n.n.n.n.n.n.n.n.n.n.n.n.n.n.n.n.n.n.n.n.n.n.n.n.n.n.n.n.n.n.n.n.n.n.n.n.n.n.n.n.n.n.n.n.n.n.n.n.",
"n.n.n.n.n.n.n.n.n.n.n.n.n.n.n.n.n.n.n.n.n.n.n.n.n.n.n.n.n.n.n.n.n.n.n.n.n.n.n.n.n.n.n.n.n.n.n.n.n.n.n.n.n.n.n.n.n.n.n.n.n.n.n.n."
};
