/* XPM */
static char *player__10_1710156991[] = {
/* columns rows colors chars-per-pixel */
"64 64 150 2 ",
"   c #00045C",
".  c #001564",
"X  c #001A65",
"o  c #001768",
"O  c #001C6A",
"+  c #002166",
"@  c #00236D",
"#  c #012571",
"$  c #052A74",
"%  c #092C76",
"&  c #072B78",
"*  c #0C2E7A",
"=  c #112F79",
"-  c #0E317B",
";  c #14337C",
":  c #19367E",
">  c #17387E",
",  c #18387E",
"<  c #0E2F81",
"1  c #123283",
"2  c #1A3783",
"3  c #1E3B83",
"4  c #163489",
"5  c #19368D",
"6  c #213C85",
"7  c #253D8B",
"8  c #283F8C",
"9  c #243D9B",
"0  c #254386",
"q  c #294487",
"w  c #2B418E",
"e  c #2D4989",
"r  c #344E8E",
"t  c #36508F",
"y  c #2C4390",
"u  c #324593",
"i  c #374897",
"p  c #384B97",
"a  c #3B4B9A",
"s  c #3B5591",
"d  c #3E5B95",
"f  c #2A40A2",
"g  c #2F43AB",
"h  c #3145AC",
"j  c #3546B4",
"k  c #3548B1",
"l  c #3E4CBD",
"z  c #404F9D",
"x  c #435B96",
"c  c #44519F",
"v  c #455F98",
"b  c #495F98",
"n  c #4B639B",
"m  c #53699E",
"M  c #4651A1",
"N  c #4C55A5",
"B  c #555BAB",
"V  c #5B5FAF",
"C  c #404DBF",
"Z  c #5D5FB0",
"A  c #576CA1",
"S  c #596FA2",
"D  c #5B71A4",
"F  c #5F61B3",
"G  c #6074A6",
"H  c #6177A8",
"J  c #6378A9",
"K  c #6A7EAC",
"L  c #6262B4",
"P  c #6766B8",
"I  c #6967BA",
"U  c #6E6ABD",
"Y  c #706CBF",
"T  c #414FC2",
"R  c #4450C6",
"E  c #4551C9",
"W  c #4D54D2",
"Q  c #5257D8",
"!  c #5458DD",
"~  c #736DC1",
"^  c #7770C3",
"/  c #7B72C6",
"(  c #7E75C9",
")  c #595BE3",
"_  c #5E5EE9",
"`  c #605FED",
"'  c #6160EE",
"]  c #6663F5",
"[  c #6864F7",
"{  c #6C66FC",
"}  c #6F68FF",
"|  c #726AFF",
" . c #8176CB",
".. c #8679CE",
"X. c #8A7BD1",
"o. c #907ED5",
"O. c #6D81AE",
"+. c #7283AF",
"@. c #6F82B0",
"#. c #7C8CB5",
"$. c #7D90B8",
"%. c #8192B8",
"&. c #8897BC",
"*. c #8C9BBE",
"=. c #8E9EC1",
"-. c #9180D6",
";. c #9683DA",
":. c #9B85DD",
">. c #9F88DF",
",. c #95A4C5",
"<. c #99A6C5",
"1. c #9AA8C7",
"2. c #9EABCA",
"3. c #A0ADCB",
"4. c #A5B2CE",
"5. c #A9B5CF",
"6. c #ABB6D0",
"7. c #AEBAD3",
"8. c #B1BCD4",
"9. c #A38AE2",
"0. c #A98FE7",
"q. c #AE91EA",
"w. c #B394ED",
"e. c #B797F0",
"r. c #B897F1",
"t. c #BB9AF4",
"y. c #C09DF7",
"u. c #C39EF9",
"i. c #C6A1FB",
"p. c #CAA3FE",
"a. c #D0A7FF",
"s. c #B7C1D7",
"d. c #BDC6DA",
"f. c #BFC8DB",
"g. c #C2CBDD",
"h. c #C8CFE1",
"j. c #CCD3E2",
"k. c #D1D7E5",
"l. c #D4D9E7",
"z. c #D6DCE8",
"x. c #D9DEEA",
"c. c #DDE2EC",
"v. c #E2E5EE",
"b. c #E3E7F0",
"n. c #E6EAF1",
"m. c #EAEDF3",
"M. c #EDF0F5",
"N. c #F4F6F9",
"B. c #F7F9FB",
"V. c #FFFFFF",
/* pixels */
"V.V.V.V.V.V.V.V.V.V.V.V.V.V.V.V.V.V.V.V.V.V.V.V.V.V.V.V.V.V.V.V.V.V.V.V.V.V.V.V.V.V.V.V.V.B.V.V.V.B.V.V.V.V.V.V.V.V.V.V.V.V.V.V.",
"V.V.V.V.V.V.V.V.V.V.V.V.V.V.V.V.V.V.V.V.V.V.V.V.V.V.V.V.V.V.V.V.V.V.V.V.V.V.V.V.V.V.V.V.V.V.V.V.V.V.V.B.V.V.V.V.V.V.V.V.V.V.V.V.",
"V.V.V.V.V.V.V.V.V.V.V.V.V.V.V.V.V.V.V.V.V.V.V.V.V.V.V.V.V.V.V.V.V.V.V.V.V.V.V.V.V.V.V.V.N.<.A s x #.c.V.B.V.V.V.V.V.V.V.V.V.V.V.",
"V.V.V.V.V.V.V.V.V.V.V.V.V.V.V.V.V.V.V.V.V.V.V.V.V.V.V.V.V.V.V.V.V.V.V.V.V.V.V.V.V.B.V.l.e . . O X . * 2.V.V.V.V.V.V.V.V.V.V.V.V.",
"V.V.V.V.V.V.V.V.V.V.V.V.V.V.V.V.V.V.V.V.V.V.V.V.V.V.V.V.V.V.V.V.V.V.V.V.V.V.V.V.V.V.v.6 o 6 ^ -...z @ O 5.V.V.V.V.V.V.V.V.V.V.V.",
"V.V.V.V.V.V.V.V.V.V.V.V.V.V.V.V.V.V.V.V.V.V.V.V.V.V.V.V.V.V.V.V.V.V.V.V.V.V.V.V.V.V.D . u w.p.i.u.p.F O 3 M.V.V.V.V.V.V.V.V.V.V.",
"V.V.V.V.V.V.V.V.V.V.V.V.V.V.V.V.V.V.V.V.V.V.V.V.V.V.V.V.V.V.V.V.V.V.V.V.V.V.V.V.V.n.- $ :.i.r.t.t.t.y.8 o 4.V.B.V.V.V.V.V.V.V.V.",
"V.V.V.V.V.V.V.V.V.V.V.V.V.V.V.V.V.V.V.V.V.V.V.V.V.V.V.V.V.V.V.V.V.V.V.V.V.V.V.V.V.f.@ w t.t.t.t.t.t.p.Z . $.V.V.V.V.V.V.V.V.V.V.",
"V.V.V.V.V.V.V.V.V.V.V.V.V.V.V.V.V.V.V.V.V.V.V.V.V.V.V.V.V.V.V.V.V.V.V.V.V.V.V.V.V.d.O w y.t.t.t.t.r.p.U . K V.B.V.V.V.V.V.V.V.V.",
"V.V.V.V.V.V.V.V.V.V.B.V.V.V.V.V.V.V.V.V.V.V.V.V.V.V.V.V.V.V.V.V.V.V.V.V.V.V.V.V.V.j.# 6 t.t.t.t.t.r.p.^ . S V.V.V.V.V.V.V.V.V.V.",
"V.V.V.V.V.V.V.V.V.V.V.V.V.V.V.V.V.V.V.V.V.V.V.V.V.V.V.V.V.V.V.V.V.V.V.V.V.V.V.V.V.z.$ 1 w.t.t.t.t.t.p...X n V.V.V.V.V.V.V.V.V.V.",
"V.V.V.V.V.V.V.V.V.k.<.V.V.V.V.V.V.V.V.V.V.V.V.V.V.V.V.V.V.V.V.V.V.V.V.V.V.V.V.B.V.n.; * w.y.t.t.t.t.p.-.o s V.V.V.V.V.V.V.V.V.V.",
"V.V.V.V.V.V.V.V.V.m   5.V.V.V.V.V.V.V.V.V.V.V.V.V.V.V.V.V.V.V.V.V.V.V.V.V.V.V.V.V.N.3 # 0.t.t.t.t.r.t.:.@ e B.V.V.V.V.V.V.V.V.V.",
"V.V.V.V.V.V.V.V.V.*.. n V.B.V.V.V.V.V.V.V.V.V.V.V.V.V.V.V.V.V.V.V.V.V.V.V.V.V.V.V.N.q # >.u.r.t.i.i.p.0.# 6 B.V.V.V.V.V.V.V.V.V.",
"V.V.V.V.V.V.V.V.V.v.= # l.V.V.V.B.V.V.V.V.V.V.V.V.V.V.V.V.V.V.V.V.V.V.V.V.V.V.V.V.V.b X ..a.p.r.;. .;...O s V.V.B.V.V.V.V.V.V.V.",
"V.V.V.V.V.V.V.V.V.V.H . O.j.d.m.V.V.V.V.V.V.V.V.V.V.V.V.V.V.V.V.V.V.V.V.V.V.V.V.B.<.0 # 1 M I 8 @ + @ & # n B.V.V.V.V.V.V.V.V.V.",
"V.V.V.V.V.V.V.V.V.V.=.# $ O @ > K n.V.V.V.V.V.V.V.V.V.V.V.V.V.V.V.V.V.V.V.V.V.v.p . O $ $ @ @ @ 1 9 5 & @ @ 0 O.g.V.V.V.V.V.V.V.",
"V.V.V.V.V.V.V.V.V.2.# @ % w 7 # . 6 z.V.V.V.V.V.V.V.V.V.V.V.V.V.V.V.V.V.B.V.n.q X 3 ~ 9.L @ % l ] [ [ ) j 4 @ X @ d j.V.V.V.V.V.",
"V.V.V.V.V.V.V.V.j.# @ N q.t.t.;.y X r B.V.V.V.V.V.V.V.V.V.V.V.V.V.V.V.B.V.N.r o q w.p.p.u + l | [ [ [ { } [ Q g * X % g.V.B.V.V.",
"V.V.V.V.V.V.B.V.A o N p.t.t.t.p.w.6 o 2.V.B.V.V.V.V.V.V.V.V.V.V.V.V.V.V.V.v o 3 q.u.t.9.$ % ' [ [ [ [ [ [ [ { } ' f O q N.V.V.V.",
"V.V.V.V.V.V.V.m.> # 9.i.r.t.t.r.p.~ . x V.V.V.V.V.V.V.V.V.V.V.V.V.V.V.V.D X > 9.u.r.i.-.@ 5 [ [ [ [ [ [ [ [ ] ] { [ 5 X 1.V.V.V.",
"V.V.V.V.V.V.V.k.# 2 r.t.t.t.t.t.u.q.; @ g.V.V.V.V.V.V.V.V.V.V.V.V.V.V.K o - ;.p.r.r.u.>.$ < ] ] [ [ [ [ [ [ [ [ ] | C X D V.V.V.",
"V.V.V.V.V.V.V.c.% - w.t.t.t.t.t.r.p.B . K V.B.V.V.V.V.V.V.V.V.V.V.V.#.o # X.p.r.t.t.t.t.8 + T | ] [ [ [ [ [ [ [ ] } W X b V.V.V.",
"V.V.V.V.V.V.V.V.s o ( p.t.t.t.t.t.u.;.@ , n.V.V.V.V.V.V.V.V.V.V.V.,.O $ ( p.r.t.t.t.t.p.~ O * W { } [ ] [ [ [ [ ] | l X D V.B.V.",
"V.V.V.V.V.V.V.V.=.. i u.t.t.t.t.t.t.u.u . ,.V.B.V.B.V.V.B.V.B.V.d.# @ U p.r.t.t.t.t.t.t.u.N @ % 9 E ' } } [ ] ] [ [ 4 X 2.V.V.V.",
"V.V.V.V.V.V.V.V.b.; # :.u.t.t.t.t.r.p./ X d V.V.V.V.V.V.V.V.V.V.d . V p.t.t.t.t.t.t.t.y.y.z @ # X O * f W ] } } _ 9 X q N.V.V.V.",
"V.V.V.V.V.V.V.B.V.J . B p.t.t.t.t.t.t.q.% % J O.K O.K K K K O.H $ = q.t.t.t.t.t.t.t.t.u.c X : d.<.s @ . @ 1 9 9 % X = j.V.V.V.V.",
"V.V.V.V.V.V.V.V.V.g.@ ; w.t.t.t.t.t.t.r.2 # X . . . . . X X X X # 8 u.t.t.t.t.t.t.t.p.B O % g.V.V.V.j.#.q @ X X $ n l.V.B.V.V.V.",
"V.V.V.V.V.V.V.V.V.V.s X ^ p.t.t.t.t.u.9.$ * C T C C R C R l R k @ 7 t.t.t.t.r.r.r.p.L @ # 8.V.B.B.V.V.V.N.g.2.3.j.V.V.V.V.V.V.V.",
"V.V.V.V.V.V.V.V.B.V.1.o 6 r.u.t.t.t.p.N X f | } } } } } } } | ] % $ :.p.p.p.u.p.p.U @ # 2.V.B.V.V.V.V.V.V.V.V.V.V.V.V.V.V.V.V.V.",
"V.V.V.V.V.V.V.V.V.V.N.r O y >.y.i.q.B @ $ ! } ] ] ] ] ] ] ] ] } g + y 9.~ N N ~ U # O &.V.V.V.V.V.V.V.V.V.V.V.B.V.V.V.V.V.V.V.V.",
"V.V.V.V.V.V.V.V.V.V.V.g.$ # @ 2 6 * # & T } ] ] [ [ [ [ [ [ ] [ _ 4 @ % X X X X # # #.V.B.V.V.V.V.V.V.V.V.V.V.V.V.V.V.V.V.V.V.V.",
"V.V.V.V.V.V.V.V.V.V.N.d @ $ a N i & @ 1 ` [ ] [ [ [ [ [ [ [ ] ] | j @ $ p U ~ M & @ H V.V.V.V.V.V.V.V.V.V.V.V.V.V.V.V.V.V.V.V.V.",
"V.V.V.V.V.V.V.V.V.V.A . 2 :.p.p.p.9.w + 9 } [ [ [ [ [ [ [ [ ] { ! $ @ U p.p.i.p.X.- . K V.V.V.V.V.V.V.V.V.V.V.V.V.V.V.V.V.V.V.V.",
"V.V.V.V.V.V.V.B.V.#.o - >.p.r.r.r.p.0.* # ! { ] ] ] ] ] ] ] ] } g X N p.r.t.r.r.p.X.& o +.V.V.V.V.V.V.V.V.V.V.V.V.V.V.V.V.V.V.V.",
"V.V.V.V.V.V.V.V.5.O @  .p.r.y.t.r.r.p.N X l | { { } } } } } } | 5 @ -.i.t.t.t.t.r.p.( $ O &.V.V.V.V.V.V.V.V.V.V.V.V.V.V.V.V.V.V.",
"V.V.V.V.V.B.V.j.% @ P p.r.t.t.t.t.r.p.L @ 5 f y f f f f f f f 9 - $ :.i.t.t.t.t.t.r.p.~ @ O <.V.B.V.V.V.V.V.V.V.V.V.V.V.V.V.V.V.",
"V.V.V.V.V.V.m.6 O M i.t.y.t.t.t.t.r.p.M @ O X X . . X X X X . X @ @ / p.r.t.t.t.t.t.t.p.P @ # 5.V.V.V.V.V.V.V.V.V.V.V.V.V.V.V.V.",
"V.V.V.V.V.V.v . w t.t.t.t.t.t.t.r.p.>.% # =.4.2.3.2.2.3.2.2.2.7.O.o w r.i.t.t.t.t.y.t.r.p.V @ $ d.V.V.V.V.V.V.V.V.V.V.V.V.V.V.V.",
"V.V.V.V.V.O.. , q.y.t.t.t.t.t.t.t.r.w . S V.V.V.V.V.V.V.V.V.V.V.B.0 O a t.t.t.t.t.t.t.t.t.u.N + = z.V.V.V.V.V.V.V.V.V.V.V.V.V.V.",
"V.V.V.V.5.O $ -.p.t.r.t.t.t.t.t.i.M X q m.V.B.V.V.B.V.B.V.B.V.B.V.j.; X M u.t.t.t.t.t.t.t.t.i.a . m V.V.V.V.V.V.V.V.V.V.V.V.V.V.",
"V.V.V.V.s X U p.t.t.t.t.t.t.r.p.L @ * k.V.V.V.V.V.V.V.V.V.V.V.V.V.V.g.$ @ B p.t.t.t.y.t.t.t.u.9.$ - c.V.V.V.V.V.V.V.V.V.V.V.V.V.",
"V.V.V.z.& = w.t.t.t.t.t.y.r.p. .@ @ 6.V.B.V.V.V.V.V.V.V.V.V.V.V.V.V.V.7.# O L p.t.t.t.t.t.t.t.y.w O d.V.V.V.V.V.V.V.V.V.V.V.V.V.",
"V.V.V.h.@ 8 t.t.t.t.t.t.r.i.>.* o %.V.B.V.V.V.V.V.V.V.V.V.V.V.V.V.V.B.V.2.@ @ U p.r.t.t.t.t.r.t.8 @ d.V.V.V.V.V.V.V.V.V.V.V.V.V.",
"V.V.V.z.& ; w.t.t.t.r.r.y.w.6 o S V.V.V.V.V.V.V.V.V.V.V.V.V.V.V.V.V.V.V.V.&.O $ / p.r.t.t.r.i.9.$ ; v.V.V.V.V.V.V.V.V.V.V.V.V.V.",
"V.V.V.V.t X Y p.t.t.t.t.u.a o r N.V.V.V.V.V.V.V.V.V.V.V.V.V.V.V.V.V.V.V.V.V.#.o $ ..p.u.y.p.t.p . S V.V.V.V.V.V.V.V.V.V.V.V.V.V.",
"V.V.V.V.3.. - ^ y.p.u.t.M O , x.V.V.V.V.V.V.V.V.V.V.V.V.V.V.V.V.V.V.V.V.V.V.V.K . $ F ;.9...w O > c.V.V.V.V.V.V.V.V.V.V.V.V.V.V.",
"V.V.V.V.V.K o @ u V N 2 X % g.V.B.V.V.V.V.V.V.V.V.V.V.V.V.V.V.V.V.V.V.V.V.V.V.V.+.O . @ # X . 6 j.V.B.V.V.V.V.V.V.V.V.V.V.V.V.V.",
"V.V.V.V.V.V.&., o . . O t j.V.B.V.V.V.V.V.V.V.V.V.V.V.V.V.V.V.V.V.V.V.V.V.V.V.V.V.8.S e 0 s $.m.V.B.V.V.V.V.V.V.V.V.V.V.V.V.V.V.",
"V.V.V.V.V.V.V.m.5.=.<.d.V.V.V.V.V.V.V.V.V.V.V.V.V.V.V.V.V.V.V.V.V.V.V.V.V.V.V.V.V.V.V.B.B.V.V.V.V.V.V.V.V.V.V.V.V.V.V.V.V.V.V.V.",
"V.V.V.V.V.V.V.V.V.V.V.V.V.V.V.V.V.V.V.V.V.V.V.V.V.V.V.V.V.V.V.V.V.V.V.V.V.V.V.V.V.V.V.V.V.V.V.V.V.V.V.V.V.V.V.V.V.V.V.V.V.V.V.V.",
"V.V.V.V.V.V.V.V.V.B.V.V.V.V.V.V.V.V.V.V.V.V.V.V.V.V.V.V.V.V.V.V.V.V.V.V.V.V.V.V.V.V.V.V.V.V.V.V.V.V.V.V.V.V.V.V.V.V.V.V.V.V.V.V.",
"V.V.V.V.V.V.V.V.V.V.V.V.V.V.V.V.V.V.V.V.V.V.V.V.V.V.V.V.V.V.V.V.V.V.V.V.V.V.V.V.V.V.V.V.V.V.V.V.V.V.V.V.V.V.V.V.V.V.V.V.V.V.V.V.",
"V.V.V.V.V.V.V.V.V.V.V.V.V.V.V.V.V.V.V.V.V.V.V.V.V.V.V.V.V.V.V.V.V.V.V.V.V.V.V.V.V.V.V.V.V.V.V.V.V.V.V.V.V.V.V.V.V.V.V.V.V.V.V.V.",
"V.V.V.V.V.V.V.V.V.V.V.V.V.V.V.V.V.V.V.V.V.V.V.V.V.V.V.V.V.V.V.V.V.V.V.V.V.V.V.V.V.V.V.V.V.V.V.V.V.V.V.V.V.V.V.V.V.V.V.V.V.V.V.V.",
"V.V.V.V.V.V.V.V.V.V.V.V.V.V.V.V.V.V.V.V.V.V.V.V.V.V.V.V.V.V.V.V.V.V.V.V.V.V.V.V.V.V.V.V.V.V.V.V.V.V.V.V.V.V.V.V.V.V.V.V.V.V.V.V.",
"V.V.V.V.V.V.V.V.V.V.V.V.V.V.V.V.V.V.V.V.V.V.V.V.V.V.V.V.V.V.V.V.V.V.V.V.V.V.V.V.V.V.V.V.V.V.V.V.V.V.V.V.V.V.V.V.V.V.V.V.V.V.V.V.",
"V.V.V.V.V.V.V.V.V.V.V.V.V.V.V.V.V.V.V.V.V.V.V.V.V.V.V.V.V.V.V.V.V.V.V.V.V.V.V.V.V.V.V.V.V.V.V.V.V.V.V.V.V.V.V.V.V.V.V.V.V.V.V.V.",
"V.V.V.V.V.V.V.V.V.V.V.V.V.V.V.V.V.V.V.V.V.V.V.V.V.V.V.V.V.V.V.V.V.V.V.V.V.V.V.V.V.V.V.V.V.V.V.V.V.V.V.V.V.V.V.V.V.V.V.V.V.V.V.V.",
"V.V.V.V.V.V.V.V.V.V.V.V.V.V.V.V.V.V.V.V.V.V.V.V.V.V.V.V.V.V.V.V.V.V.V.V.V.V.V.V.V.V.V.V.V.V.V.V.V.V.V.V.V.V.V.V.V.V.V.V.V.V.V.V.",
"V.V.V.V.V.V.V.V.V.V.V.V.V.V.V.V.V.V.V.V.V.V.V.V.V.V.V.V.V.V.V.V.V.V.V.V.V.V.V.V.V.V.V.V.V.V.V.V.V.V.V.V.V.V.V.V.V.V.V.V.V.V.V.V.",
"V.V.V.V.V.V.V.V.V.V.V.V.V.V.V.V.V.V.V.V.V.V.V.V.V.V.V.V.V.V.V.V.V.V.V.V.V.V.V.V.V.V.V.V.V.V.V.V.V.V.V.V.V.V.V.V.V.V.V.V.V.V.V.V.",
"V.V.V.V.V.V.V.V.V.V.V.V.V.V.V.V.V.V.V.V.V.V.V.V.V.V.V.V.V.V.V.V.V.V.V.V.V.V.V.V.V.V.V.V.V.V.V.V.V.V.V.V.V.V.V.V.V.V.V.V.V.V.V.V.",
"V.V.V.V.V.V.V.V.V.V.V.V.V.V.V.V.V.V.V.V.V.V.V.V.V.V.V.V.V.V.V.V.V.V.V.V.V.V.V.V.V.V.V.V.V.V.V.V.V.V.V.V.V.V.V.V.V.V.V.V.V.V.V.V."
};
