/* XPM */
static char *player__45_1710156996[] = {
/* columns rows colors chars-per-pixel */
"64 64 151 2 ",
"   c #00025A",
".  c #001564",
"X  c #001A66",
"o  c #001768",
"O  c #001C6A",
"+  c #002166",
"@  c #00236E",
"#  c #01286F",
"$  c #012571",
"%  c #052974",
"&  c #092C76",
"*  c #072B79",
"=  c #0C2E7B",
"-  c #0E307A",
";  c #11327C",
":  c #19397F",
">  c #0F3082",
",  c #163580",
"<  c #1A3683",
"1  c #1D3B82",
"2  c #143389",
"3  c #19358D",
"4  c #1C3792",
"5  c #1E3892",
"6  c #213A87",
"7  c #243D8A",
"8  c #2A3F8D",
"9  c #203B96",
"0  c #243D9B",
"q  c #254285",
"w  c #2A428D",
"e  c #2E4A8B",
"r  c #334E8D",
"t  c #36518F",
"y  c #2E4391",
"u  c #324593",
"i  c #374996",
"p  c #394997",
"a  c #3D4C9A",
"s  c #375290",
"d  c #3D5693",
"f  c #3F5994",
"g  c #2A40A4",
"h  c #2E42AB",
"j  c #3244AE",
"k  c #3446B2",
"l  c #3748B4",
"z  c #3949B6",
"x  c #3D4BBD",
"c  c #414E9D",
"v  c #435C96",
"b  c #43509E",
"n  c #465F99",
"m  c #4D649C",
"M  c #51679D",
"N  c #52699E",
"B  c #434FA0",
"V  c #4652A1",
"C  c #4D56A6",
"Z  c #5359AA",
"A  c #595DAE",
"S  c #5B5EB0",
"D  c #566BA0",
"F  c #596DA2",
"G  c #5C72A5",
"H  c #5E61B3",
"J  c #6276A6",
"K  c #657AA9",
"L  c #6A7DAC",
"P  c #6264B5",
"I  c #6766B8",
"U  c #6867B9",
"Y  c #6D6ABD",
"T  c #706CBF",
"R  c #3F4CC1",
"E  c #434FC5",
"W  c #454FC8",
"Q  c #4752CA",
"!  c #4953CD",
"~  c #746EC2",
"^  c #7770C3",
"/  c #7B72C6",
"(  c #7E74C9",
")  c #5B5CE5",
"_  c #605FEC",
"`  c #6160EE",
"'  c #6663F5",
"]  c #6864F7",
"[  c #6C66FC",
"{  c #6F68FF",
"}  c #736AFF",
"|  c #8276CB",
" . c #8579CD",
".. c #8B7CD2",
"X. c #917FD5",
"o. c #7385B1",
"O. c #7788B3",
"+. c #7B8DB6",
"@. c #7F8FB8",
"#. c #8394BB",
"$. c #8897BC",
"%. c #8799BE",
"&. c #8A9ABE",
"*. c #8F9EC2",
"=. c #909FC1",
"-. c #9381D7",
";. c #9682D9",
":. c #9A85DC",
">. c #9E88DF",
",. c #94A2C4",
"<. c #99A6C6",
"1. c #9AA8C7",
"2. c #9DABC9",
"3. c #A1ADCB",
"4. c #A5B2CD",
"5. c #A8B3CF",
"6. c #AAB6D1",
"7. c #AEB9D2",
"8. c #B3BDD5",
"9. c #9F88E0",
"0. c #A58CE3",
"q. c #A98EE6",
"w. c #AB8FE8",
"e. c #AD91EA",
"r. c #B394ED",
"t. c #B797F1",
"y. c #B897F1",
"u. c #BB9AF4",
"i. c #C09DF7",
"p. c #C39EF9",
"a. c #C6A0FB",
"s. c #C9A2FD",
"d. c #D0A6FF",
"f. c #D2A8FF",
"g. c #B9C2D8",
"h. c #C3CBDE",
"j. c #C9CFE1",
"k. c #CBD2E2",
"l. c #D1D7E5",
"z. c #D3D9E6",
"x. c #D7DDE9",
"c. c #D9DEEA",
"v. c #DDE2EC",
"b. c #E1E5EE",
"n. c #E5E8F1",
"m. c #EBEEF4",
"M. c #EEF1F6",
"N. c #F0F2F7",
"B. c #F3F5F9",
"V. c #F6F8FA",
"C. c #FFFFFF",
/* pixels */
"C.C.C.C.C.C.C.C.C.C.C.C.C.C.C.C.C.C.C.C.C.C.C.C.C.C.C.C.C.C.C.C.C.C.C.C.C.C.C.C.C.C.C.C.C.C.C.C.C.C.C.C.C.C.C.C.C.C.C.C.C.C.C.C.",
"C.C.C.C.C.C.C.C.C.C.C.C.C.C.C.C.C.C.C.C.C.C.C.C.C.C.C.C.C.C.C.C.C.C.C.C.C.C.C.C.C.C.C.C.C.C.C.C.C.C.C.C.C.C.C.C.C.C.C.C.C.C.C.C.",
"C.C.C.C.C.C.C.C.C.C.C.C.C.C.C.C.C.C.C.C.C.C.C.C.C.C.C.C.C.C.C.C.C.C.C.C.C.C.C.C.C.C.C.C.C.C.C.C.C.C.C.C.C.C.C.C.C.C.C.C.C.C.C.C.",
"C.C.C.C.C.C.C.C.C.C.C.C.C.C.C.C.C.C.C.C.C.C.C.C.C.C.C.C.C.C.C.C.C.C.C.C.C.C.C.C.C.C.C.C.C.C.C.C.C.C.C.C.C.C.C.C.C.C.C.C.C.C.C.C.",
"C.C.C.C.C.C.C.C.C.C.C.C.C.C.C.C.C.C.C.C.C.C.C.C.C.C.C.C.C.C.C.C.C.C.C.C.C.C.C.C.C.C.C.C.C.C.C.C.C.C.C.C.C.C.C.C.C.C.C.C.C.C.C.C.",
"C.C.C.C.C.C.C.C.C.C.C.C.C.C.C.C.C.C.C.C.C.C.C.C.C.C.C.C.C.C.C.C.C.C.C.C.C.C.C.V.C.C.C.C.C.C.C.C.C.C.C.C.C.C.C.C.C.C.C.C.C.C.C.C.",
"C.C.C.C.C.C.C.C.C.C.C.C.C.C.C.C.C.C.C.C.C.C.C.C.C.C.C.C.C.C.C.C.C.C.C.v.k.c.C.C.C.C.C.C.C.C.C.C.C.C.C.C.C.C.C.C.C.C.C.C.C.C.C.C.",
"C.C.C.C.C.C.C.C.C.C.C.C.C.C.C.C.C.C.C.C.C.C.C.C.C.C.C.C.C.C.C.C.C.7.d & @ % e <.C.C.C.C.C.C.C.C.C.C.C.C.C.C.C.C.C.C.C.C.C.C.C.C.",
"C.C.C.C.C.C.C.C.C.C.C.C.C.C.C.C.C.C.C.C.C.C.C.C.C.C.C.C.C.C.C.C.#.O X = 7 ; O X G C.C.C.C.C.C.C.C.C.C.C.C.C.C.C.C.C.C.C.C.C.C.C.",
"C.C.C.C.C.C.C.C.C.C.C.C.C.C.C.C.C.C.C.C.C.C.C.C.C.C.C.C.C.V.C.4.o $ P e.y.t.^ - o N C.C.C.C.C.C.C.C.C.C.C.C.C.C.C.C.C.C.C.C.C.C.",
"C.C.C.C.C.C.C.C.C.C.C.C.C.C.C.C.C.C.C.C.C.C.C.C.C.C.C.C.C.C.V.e O U d.i.i.u.s.;.; o D C.C.C.C.C.C.C.C.C.C.C.C.C.C.C.C.C.C.C.C.C.",
"C.C.C.C.C.C.C.C.C.C.C.C.C.C.C.C.C.C.C.C.C.C.C.C.C.C.C.C.C.C.j.$ < y.u.y.u.u.y.s.;.- X D C.C.C.C.C.C.C.C.C.C.C.C.C.C.C.C.C.C.C.C.",
"C.C.C.C.C.C.C.C.C.C.C.C.C.C.C.C.C.C.C.C.C.C.C.C.C.C.C.C.V.C.8.X p p.u.u.u.u.u.y.s.;.; o N C.C.C.C.C.C.C.C.C.C.C.C.C.C.C.C.C.C.C.",
"C.C.C.C.C.C.C.C.C.C.C.C.C.C.C.C.C.C.C.C.C.C.C.C.C.C.C.C.C.C.g.O w i.u.u.u.u.u.u.t.s.;.; o &.C.V.C.V.V.C.C.C.C.C.C.C.C.C.C.C.C.C.",
"C.C.C.C.C.C.C.C.C.C.C.C.C.C.C.C.C.C.C.C.C.C.C.C.C.C.C.C.C.C.n.; $ ;.s.y.u.u.u.u.u.y.s.| @ : V.C.C.C.C.C.C.C.V.C.C.C.C.C.C.C.C.C.",
"C.C.C.C.C.C.C.C.C.C.C.C.m.o.k.C.C.C.C.C.C.C.C.C.C.C.C.C.C.C.C.K o 7 r.i.u.u.i.u.u.y.a.u.6 @ #.8.6.7.6.8.j.C.C.C.C.C.C.C.C.C.C.C.",
"C.C.C.C.C.C.C.C.C.C.V.C.4.  N C.C.C.C.C.C.C.C.C.C.C.C.C.C.C.C.m.e X 8 r.i.y.y.u.u.a. .w & $ + O O X O O $ r 6.C.C.C.C.C.C.C.C.C.",
"C.C.C.C.C.C.C.C.C.C.C.C.h.$ e C.C.C.C.C.C.C.C.C.C.C.C.C.C.C.C.C.v.q X w r.s.s.u.u.Y $ + = 5 9 9 9 0 9 9 - O O $.C.C.C.C.C.C.C.C.",
"C.C.C.C.C.C.C.C.C.C.C.C.m.- & b.C.V.C.C.C.C.C.C.C.C.C.C.C.C.C.C.C.v.q o w ;.A 8 < * @ k ' [ [ { [ [ [ [ ' l % O 8.C.C.C.C.C.C.C.",
"C.C.C.C.C.C.C.C.C.C.C.C.C.v o g.C.C.C.C.C.C.C.C.C.C.C.C.C.C.C.C.C.C.v.e @ % O @ % # h } ] ' ' ' ' ' ] ] [ } l X d C.C.C.C.C.C.C.",
"C.C.C.C.C.C.C.C.C.C.V.C.v.t $ q M &.N.C.C.C.C.C.C.C.C.C.C.C.C.C.C.V.C.<.O % c | - % ) [ ' ] ] ] ] ] ] ] ' [ _ * & v.C.C.C.C.C.C.",
"C.C.C.C.C.C.C.C.C.C.C.1.& O $ @ . o q h.C.V.C.C.C.C.C.C.C.C.C.C.C.C.N.r O A s.e.% > ' [ ] ] ] ] ] ] ] ] ] ] ' 2 @ k.C.C.C.C.C.C.",
"C.C.C.C.C.C.C.C.C.C.5.O @ a  .;./ w O & k.C.C.C.C.C.C.C.C.C.C.C.C.C.5.X 6 u.i.0.& * ) [ ' ] ] ' ] ] ] ] ' ] ` = & c.C.C.C.C.C.C.",
"C.C.C.C.C.C.C.C.C.M.1 O P s.a.p.s.i.b X n C.C.C.C.C.C.C.C.C.C.C.C.C.M o U s.y.p.y + x } ' ' ' ' ' ' ' ' ' } E @ e C.C.C.C.C.C.C.",
"C.C.C.C.C.C.C.V.C.4.o w p.u.y.u.y.p.r.= $ l.C.C.C.C.C.C.C.C.C.C.C.l.% & w.p.t.s.| O & E { { } { { } { { [ ! - o <.C.C.C.C.C.C.C.",
"C.C.C.C.C.C.C.C.C.+.. P s.y.u.u.u.y.p.c o 3.C.C.C.C.C.C.C.C.C.V.C.+.. b s.y.u.y.p.A O @ 5 j l l l l l l 9 @ o J C.C.C.C.C.C.C.C.",
"C.C.C.C.C.C.C.C.C.+.. P s.u.u.u.u.y.s.P . o.C.C.C.C.C.C.C.C.C.C.m.6 @ X.p.u.u.u.u.p.U ; # O . . . . . . X ; #.C.C.C.C.C.C.C.C.C.",
"C.C.C.C.C.C.C.V.C.3.. c a.u.u.u.u.y.s.| X v C.C.C.C.C.C.C.C.C.C.3.X w u.u.i.u.u.u.y.d.Z O m &.#.#.#.#.%.3.n.C.C.C.C.C.C.C.C.C.C.",
"C.C.C.C.C.C.C.C.C.h.@ 1 u.u.u.u.u.u.p.0.$ 1 N.C.C.C.C.C.C.C.C.C.n . T s.u.u.u.u.u.i.r.; @ k.C.C.C.C.C.C.C.C.V.C.C.C.C.C.C.C.C.C.",
"C.C.C.C.C.C.C.C.C.N.: $ 0.p.u.u.u.u.u.y.1 @ k.C.C.V.V.C.C.V.C.k.@ - w.i.u.u.u.u.y.s.~ o f C.V.V.C.V.V.C.C.C.C.C.C.C.C.C.C.C.C.C.",
"C.C.C.C.C.C.C.C.C.C.v . ..a.y.u.u.u.u.a.a o 5.C.C.C.C.C.C.C.C.O.. C p.u.u.i.i.u.u.i.w o 1.C.C.C.C.C.C.C.C.C.C.C.C.C.C.C.C.C.C.C.",
"C.C.C.C.C.C.C.C.C.C.o.. P s.u.u.u.u.u.s.H o G 8.3.5.5.5.5.5.6.q O ..s.y.u.u.u.y.p.;.@ 1 m.C.C.C.C.C.C.C.C.C.C.C.C.C.C.C.C.C.C.C.",
"C.C.C.C.C.C.C.C.V.C.3.o V a.u.u.u.u.i.p.H @ $ X O O X X O O X $ & 9.p.u.u.u.u.u.s.C . o.C.V.C.C.C.C.C.C.C.C.C.C.C.C.C.C.C.C.C.C.",
"C.C.C.C.C.C.C.C.C.C.k.$ , y.u.y.u.u.u.p.u @ 5 0 0 0 0 y 0 0 0 - @ X.a.y.u.u.u.u.e.- $ k.C.C.C.C.C.C.C.C.C.C.C.C.C.C.C.C.C.C.C.C.",
"C.C.C.C.C.C.C.C.C.C.C.d o Z s.a.i.p.p.^ @ = ` } [ { [ [ [ [ } j X b s.u.y.y.u.s.P X v C.C.C.C.C.C.C.C.C.C.C.C.C.C.C.C.C.C.C.C.C.",
"C.C.C.C.C.C.C.C.C.C.C.h.$ O a ..w.X.Z $ $ C [ ' ] ' ] ' ] ' [ ) & + H u.s.s.a.^ % X 8.C.C.C.C.C.C.C.C.C.C.C.C.C.C.C.C.C.C.C.C.C.",
"C.C.C.C.C.C.C.C.C.C.C.C.8.1 @ $ = $ @ % l [ ] ] [ [ ' ' ] ] ' { R @ $ 6 Z A y # O o.C.C.C.C.C.C.C.C.C.C.C.C.C.C.C.C.C.C.C.C.C.C.",
"C.C.C.C.C.C.C.C.C.C.C.C.V.D $ $ $ * % E } ' ] ] ' ' ' [ ] ] ] ' } R % % @ O $ @ K C.C.C.C.C.C.C.C.C.C.C.C.C.C.C.C.C.C.C.C.C.C.C.",
"C.C.C.C.C.C.C.C.C.C.C.c.q X % 6 6 & O = Q [ ' ' [ ' ' ] ] ] ] [ ) 3 $ $ 1 w & @ ; 5.C.C.C.C.C.C.C.C.C.C.C.C.C.C.C.C.C.C.C.C.C.C.",
"C.C.C.C.C.C.C.C.C.C.V.r X w ;.y.u.0.V @ % ) [ ' ' ' ' ' ' ' ' ] 3 + 7 -.y.u.0.V O & k.C.C.C.C.C.C.C.C.C.C.C.C.C.C.C.C.C.C.C.C.C.",
"C.C.C.C.C.C.C.C.V.C.1.o 6 r.s.u.u.p.s.c O g } } } { { { [ [ } Q + 1 r.s.u.u.a.a.b . G C.C.C.C.C.C.C.C.C.C.C.C.C.C.C.C.C.C.C.C.C.",
"C.C.C.C.C.C.C.C.C.C.v X ~ s.y.u.u.t.p.>.@ - Q Q Q Q Q Q Q ! ! 5 @ Y s.y.u.i.y.a.0.# ; b.C.C.C.C.C.C.C.C.C.C.C.C.C.C.C.C.C.C.C.C.",
"C.C.C.C.C.C.C.C.C.j.$ ; r.u.u.u.u.u.i.r., $ X X X X X X X X . $ $ X.p.u.u.u.u.u.i.a . &.C.V.C.C.C.C.C.C.C.C.C.C.C.C.C.C.C.C.C.C.",
"C.C.C.C.C.C.C.V.C.o.. C s.y.u.u.u.u.i.w.& & M F N F N D D D G 1 O  .a.y.u.u.u.u.s.| X s C.C.C.C.C.C.C.C.C.C.C.C.C.C.C.C.C.C.C.C.",
"C.C.C.C.C.C.C.C.M.1 @ -.a.u.u.u.u.y.s.( X d C.C.C.C.C.C.C.C.C.+.o C s.y.u.u.u.u.u.r.< @ h.C.C.C.C.C.C.C.C.C.C.C.C.C.C.C.C.C.C.C.",
"C.C.C.C.C.C.C.C.4.X 8 u.u.u.i.u.u.y.i.p o =.C.V.C.C.C.V.C.V.C.k.$ = e.i.u.u.u.u.y.s.A . K C.C.C.C.C.C.C.C.C.C.C.C.C.C.C.C.C.C.C.",
"C.C.C.C.C.C.C.C.m . Y s.y.u.u.u.u.a.>.$ ; b.C.C.C.C.C.C.C.C.C.C.v . T s.y.u.u.u.u.a.:.@ : m.C.C.C.C.C.C.C.C.C.C.C.C.C.C.C.C.C.C.",
"C.C.C.C.C.C.C.l.& & 0.a.u.u.u.u.y.s.H . G C.C.C.C.C.C.C.C.C.V.C.3.o y i.u.u.i.u.u.u.i.u o <.C.V.C.C.C.C.C.C.C.C.C.C.C.C.C.C.C.C.",
"C.C.C.C.C.V.C.@.. b a.y.u.u.u.u.u.y.1 @ g.C.C.C.C.C.C.C.C.C.C.C.m.: @ ;.a.u.i.u.u.u.p.~ X v C.C.C.C.C.C.C.C.C.C.C.C.C.C.C.C.C.C.",
"C.C.C.C.C.C.V.e O ..s.u.u.u.u.u.s. .X u V.C.C.C.C.C.C.C.C.C.C.C.C.L . A s.y.u.u.u.u.p.r.; $ k.C.C.C.C.C.C.C.C.C.C.C.C.C.C.C.C.C.",
"C.C.C.C.C.C.z.% ; r.u.u.u.u.u.u.p.c . $.C.C.C.C.C.C.C.C.C.C.C.C.C.h.@ , r.u.u.u.u.i.u.p.c o 1.C.C.C.C.C.C.C.C.C.C.C.C.C.C.C.C.C.",
"C.C.C.C.C.C.k.@ 7 u.u.u.u.u.u.p.0.& & c.C.C.C.C.C.C.C.C.C.C.C.C.C.C.s X ( s.y.u.u.u.i.p.C . ,.C.V.C.C.C.C.C.C.C.C.C.C.C.C.C.C.C.",
"C.C.C.C.C.C.n.; & 0.p.y.u.u.y.s.U o N C.C.C.C.C.C.C.C.C.C.C.C.C.V.C.=.o i p.y.y.u.u.y.i.w X 7.C.C.C.C.C.C.C.C.C.C.C.C.C.C.C.C.C.",
"C.C.C.C.C.C.C.M . C s.p.u.i.s.w., X 7.C.V.C.C.C.C.C.C.C.C.C.C.C.C.C.b.; @ | d.i.u.i.d.^ @ : m.C.C.C.C.C.C.C.C.C.C.C.C.C.C.C.C.C.",
"C.C.C.C.C.C.C.k.$ @ C 0.u.r...7 . v C.C.C.C.C.C.C.C.C.C.C.C.C.C.C.C.C.#.. = ~ e.u.r.U & o &.C.C.C.C.C.C.C.C.C.C.C.C.C.C.C.C.C.C.",
"C.C.C.C.C.C.V.C.3.$ o $ 6 < @ o r n.C.C.C.C.C.C.C.C.C.C.C.C.C.C.C.C.C.C.J o o ; 7 ; X o L C.C.C.C.C.C.C.C.C.C.C.C.C.C.C.C.C.C.C.",
"C.C.C.C.C.C.C.C.C.k.M ; @ $ q #.B.C.C.C.C.C.C.C.C.C.C.C.C.C.C.C.C.C.C.C.C.1.t % @ - d 4.C.C.C.C.C.C.C.C.C.C.C.C.C.C.C.C.C.C.C.C.",
"C.C.C.C.C.C.C.C.C.C.C.b.k.z.V.C.C.C.C.C.C.C.C.C.C.C.C.C.C.C.C.C.C.C.C.C.C.C.C.x.h.v.C.C.C.C.C.C.C.C.C.C.C.C.C.C.C.C.C.C.C.C.C.C.",
"C.C.C.C.C.C.C.C.C.C.C.C.C.C.C.C.C.C.C.C.C.C.C.C.C.C.C.C.C.C.C.C.C.C.C.C.C.C.C.C.C.C.C.C.C.C.C.C.C.C.C.C.C.C.C.C.C.C.C.C.C.C.C.C.",
"C.C.C.C.C.C.C.C.C.C.C.C.V.C.C.C.C.C.C.C.C.C.C.C.C.C.C.C.C.C.C.C.C.C.C.C.C.C.C.C.C.C.C.C.C.C.C.C.C.C.C.C.C.C.C.C.C.C.C.C.C.C.C.C.",
"C.C.C.C.C.C.C.C.C.C.C.C.C.C.C.C.C.C.C.C.C.C.C.C.C.C.C.C.C.C.C.C.C.C.C.C.C.C.C.C.C.C.C.C.C.C.C.C.C.C.C.C.C.C.C.C.C.C.C.C.C.C.C.C.",
"C.C.C.C.C.C.C.C.C.C.C.C.C.C.C.C.C.C.C.C.C.C.C.C.C.C.C.C.C.C.C.C.C.C.C.C.C.C.C.C.C.C.C.C.C.C.C.C.C.C.C.C.C.C.C.C.C.C.C.C.C.C.C.C.",
"C.C.C.C.C.C.C.C.C.C.C.C.C.C.C.C.C.C.C.C.C.C.C.C.C.C.C.C.C.C.C.C.C.C.C.C.C.C.C.C.C.C.C.C.C.C.C.C.C.C.C.C.C.C.C.C.C.C.C.C.C.C.C.C.",
"C.C.C.C.C.C.C.C.C.C.C.C.C.C.C.C.C.C.C.C.C.C.C.C.C.C.C.C.C.C.C.C.C.C.C.C.C.C.C.C.C.C.C.C.C.C.C.C.C.C.C.C.C.C.C.C.C.C.C.C.C.C.C.C."
};
