/* XPM */
static char *player__41_1710156996[] = {
/* columns rows colors chars-per-pixel */
"64 64 157 2 ",
"   c #00015B",
".  c #001565",
"X  c #001B66",
"o  c #001768",
"O  c #001C6A",
"+  c #002166",
"@  c #00236D",
"#  c #01286F",
"$  c #012671",
"%  c #052974",
"&  c #092D77",
"*  c #072C79",
"=  c #0C2D7A",
"-  c #0D307A",
";  c #12327C",
":  c #19397F",
">  c #0F3082",
",  c #163582",
"<  c #1A3783",
"1  c #1D3A83",
"2  c #153389",
"3  c #19358D",
"4  c #1E3994",
"5  c #1C3792",
"6  c #213B86",
"7  c #243D8A",
"8  c #2A3F8D",
"9  c #203B96",
"0  c #243D9B",
"q  c #244185",
"w  c #2B4587",
"e  c #27408C",
"r  c #2A428D",
"t  c #2E4A8A",
"y  c #304D8C",
"u  c #37518F",
"i  c #2E4390",
"p  c #314592",
"a  c #374996",
"s  c #394A97",
"d  c #3B4C99",
"f  c #375290",
"g  c #3B5592",
"h  c #3F5994",
"j  c #2A40A3",
"k  c #2E42AB",
"l  c #3244AE",
"z  c #3446B1",
"x  c #3748B4",
"c  c #3849B6",
"v  c #3C4ABB",
"b  c #424E9E",
"n  c #435B96",
"m  c #43509E",
"M  c #465F99",
"N  c #4D649C",
"B  c #51679E",
"V  c #52699F",
"C  c #434FA1",
"Z  c #4652A1",
"A  c #4C56A5",
"S  c #4F58A7",
"D  c #5359AA",
"F  c #595DAE",
"G  c #5B5EB0",
"H  c #566BA0",
"J  c #596DA2",
"K  c #5C72A4",
"L  c #5F61B2",
"P  c #6175A7",
"I  c #657AA9",
"U  c #6A7DAC",
"Y  c #6263B5",
"T  c #6766B9",
"R  c #6967B9",
"E  c #6D6ABD",
"W  c #706CBF",
"Q  c #3F4CC1",
"!  c #434FC5",
"~  c #454FC8",
"^  c #4752CA",
"/  c #4A53CE",
"(  c #4A52D1",
")  c #5458DD",
"_  c #746EC1",
"`  c #7770C3",
"'  c #7A72C6",
"]  c #7E74C9",
"[  c #5B5CE5",
"{  c #605FEC",
"}  c #6060ED",
"|  c #6663F5",
" . c #6864F7",
".. c #6C66FC",
"X. c #6F68FF",
"o. c #736BFF",
"O. c #8276CB",
"+. c #8478CD",
"@. c #8B7CD1",
"#. c #917FD5",
"$. c #7284B0",
"%. c #7789B3",
"&. c #7C8DB5",
"*. c #7E90B8",
"=. c #8394BB",
"-. c #8897BC",
";. c #8799BE",
":. c #8B9ABE",
">. c #8F9EC1",
",. c #909FC1",
"<. c #9381D7",
"1. c #9682D9",
"2. c #9B86DD",
"3. c #9E88DF",
"4. c #95A4C5",
"5. c #99A6C6",
"6. c #9BA8C7",
"7. c #9CAAC9",
"8. c #A1AFCC",
"9. c #A6B2CD",
"0. c #A8B3CF",
"q. c #ABB6D1",
"w. c #AEB9D2",
"e. c #B3BDD5",
"r. c #9F88E0",
"t. c #A58CE4",
"y. c #A98EE7",
"u. c #AD91EA",
"i. c #B394ED",
"p. c #B797F1",
"a. c #B897F1",
"s. c #BB9AF4",
"d. c #C09DF7",
"f. c #C39EF9",
"g. c #C6A0FB",
"h. c #C9A2FD",
"j. c #D0A6FF",
"k. c #D2A8FF",
"l. c #B6C0D7",
"z. c #B8C1D7",
"x. c #BBC4D9",
"c. c #C3CADD",
"v. c #C8CFE0",
"b. c #CAD1E2",
"n. c #D0D6E5",
"m. c #D3D9E7",
"M. c #D7DCE9",
"N. c #D9DEEA",
"B. c #DDE2EC",
"V. c #E1E5EE",
"C. c #E5E9F1",
"Z. c #EAEDF4",
"A. c #EFF2F7",
"S. c #F1F3F7",
"D. c #F4F6F9",
"F. c #F7F8FA",
"G. c #FFFFFF",
/* pixels */
"G.G.G.G.G.G.G.G.G.G.G.G.G.G.G.G.G.G.G.G.G.G.G.G.G.G.G.G.G.G.G.G.G.G.G.G.G.G.G.G.G.G.G.G.G.G.G.G.G.G.G.G.G.G.G.G.G.G.G.G.G.G.G.G.",
"G.G.G.G.G.G.G.G.G.G.G.G.G.G.G.G.G.G.G.G.G.G.G.G.G.G.G.G.G.G.G.G.G.G.G.G.G.G.G.G.G.G.G.G.G.G.G.G.G.G.G.G.G.G.G.G.G.G.G.G.G.G.G.G.",
"G.G.G.G.G.G.G.G.G.G.G.G.G.G.G.G.G.G.G.G.G.G.G.G.G.G.G.G.G.G.G.G.G.G.G.G.G.G.G.G.G.G.G.G.G.G.G.G.G.G.G.G.G.G.G.G.G.G.G.G.G.G.G.G.",
"G.G.G.G.G.G.G.G.G.G.G.G.G.G.G.G.G.G.G.G.G.G.G.G.G.G.G.G.G.G.G.G.G.G.G.G.G.G.G.G.G.G.G.G.G.G.G.G.G.G.G.G.G.G.G.G.G.G.G.G.G.G.G.G.",
"G.G.G.G.G.G.G.G.G.G.G.G.G.G.G.G.G.G.G.G.G.G.G.G.G.G.G.G.G.G.G.G.G.G.G.G.G.G.G.G.G.G.G.G.G.G.G.G.G.G.G.G.G.G.G.G.G.G.G.G.G.G.G.G.",
"G.G.G.G.G.G.G.G.G.G.G.G.G.G.G.G.G.G.G.G.G.G.G.G.G.G.G.G.G.G.G.G.G.G.G.G.G.G.G.F.G.G.G.G.G.G.G.G.G.G.G.G.G.G.G.G.G.G.G.G.G.G.G.G.",
"G.G.G.G.G.G.G.G.G.G.G.G.G.G.G.G.G.G.G.G.G.G.G.G.G.G.G.G.G.G.G.G.G.G.G.B.b.N.G.G.G.G.G.G.G.G.G.G.G.G.G.G.G.G.G.G.G.G.G.G.G.G.G.G.",
"G.G.G.G.G.G.G.G.G.G.G.G.G.G.G.G.G.G.G.G.G.G.G.G.G.G.G.G.G.G.G.G.G.w.g & @ & t 4.G.G.G.G.G.G.G.G.G.G.G.G.G.G.G.G.G.G.G.G.G.G.G.G.",
"G.G.G.G.G.G.G.G.G.G.G.G.G.G.G.G.G.G.G.G.G.G.G.G.G.G.G.G.G.G.G.G.=.O X = 6 ; O o K G.G.G.G.G.G.G.G.G.G.G.G.G.G.G.G.G.G.G.G.G.G.G.",
"G.G.G.G.G.G.G.G.G.G.G.G.G.G.G.G.G.G.G.G.G.G.G.G.G.G.G.G.G.F.G.9.o $ Y u.s.i.` ; o V G.G.G.G.G.G.G.G.G.G.G.G.G.G.G.G.G.G.G.G.G.G.",
"G.G.G.G.G.G.G.G.G.G.G.G.G.G.G.G.G.G.G.G.G.G.G.G.G.G.G.G.G.G.F.t O R j.d.s.d.h.1.; o V G.G.G.G.G.G.G.G.G.G.G.G.G.G.G.G.G.G.G.G.G.",
"G.G.G.G.G.G.G.G.G.G.G.G.G.G.G.G.G.G.G.G.G.G.G.G.G.G.G.G.G.G.v.@ < a.s.a.s.s.a.h.1.- X H G.G.G.G.G.G.G.G.G.G.G.G.G.G.G.G.G.G.G.G.",
"G.G.G.G.G.G.G.G.G.G.G.G.G.G.G.G.G.G.G.G.G.G.G.G.G.G.G.G.F.G.e.O s d.s.s.s.s.s.a.h.1.= o V G.G.G.G.G.G.G.G.G.G.G.G.G.G.G.G.G.G.G.",
"G.G.G.G.G.G.G.G.G.G.G.G.G.G.G.G.G.G.G.G.G.G.G.G.G.G.G.G.G.G.z.O r d.s.s.s.s.s.s.p.h.1.; o -.G.F.G.F.F.G.G.G.G.G.G.G.G.G.G.G.G.G.",
"G.G.G.G.G.G.G.G.G.G.G.G.G.G.G.G.G.G.G.G.G.G.G.G.G.G.G.G.G.G.C.; $ 1.h.a.s.s.s.d.s.p.h.O.@ : F.G.G.G.G.G.G.G.F.G.G.G.G.G.G.G.G.G.",
"G.G.G.G.G.G.G.G.G.G.G.G.G.G.G.G.G.G.G.G.G.G.G.G.G.G.G.G.G.G.G.I o 7 i.f.s.s.s.s.s.a.g.d.6 @ -.e.q.w.q.e.v.G.G.G.G.G.G.G.G.G.G.G.",
"G.G.G.G.G.G.G.G.G.G.G.G.G.G.G.G.G.G.G.G.G.G.G.G.G.G.G.G.G.G.G.Z.w X 8 i.g.a.a.s.s.h.@.e % @ @ O X O X O @ t w.G.G.G.G.G.G.G.G.G.",
"G.G.G.G.G.G.G.G.G.G.G.G.G.G.G.G.G.G.G.G.G.G.G.G.G.G.G.G.G.G.G.G.V.q X r u.h.h.a.s.E @ + - 4 9 4 0 9 0 9 > @ O -.G.G.G.G.G.G.G.G.",
"G.G.G.G.G.F.G.G.G.G.G.G.G.G.G.G.G.G.G.G.G.G.G.G.G.G.G.G.G.G.G.G.G.B.q X r 1.L e < % @ z | ..X.X.........| x % O e.G.F.G.G.G.G.G.",
"G.G.G.G.G.G.G.G.G.G.G.G.G.G.G.G.G.G.G.G.G.G.G.G.G.G.G.G.G.G.G.G.G.G.B.t $ $ . @ % $ k o...|  .|  .| | |  .o.x X h G.G.G.G.G.G.G.",
"G.G.G.G.V.%.B.G.G.G.G.G.G.G.G.G.G.G.G.G.G.G.G.G.G.G.G.G.G.G.G.G.G.F.G.5.O $ C O.- % [ ..|  . . . . . . .| ..} * & B.G.G.G.G.G.G.",
"G.G.F.G.4.  t A.G.F.G.G.G.F.G.G.G.G.G.G.G.G.G.G.G.G.G.G.G.G.G.G.G.G.D.y O F j.u.% > | .. .|  . . . . . . .| | 2 @ b.G.G.G.G.G.G.",
"G.G.G.G.Z.y . V G.G.G.G.G.G.G.G.G.G.G.G.G.G.G.G.G.G.G.G.G.G.G.G.G.G.w.o 6 s.f.t.= % [ ..| | ..|  ...| | | ..} = & N.G.G.G.G.G.G.",
"G.G.G.G.G.M.; o %.8.N u n $.b.G.G.G.G.G.G.G.G.G.G.G.G.G.G.G.G.G.G.G.N . R h.a.f.r @ v o.| | | | | | | | | o.! O t G.G.G.G.G.G.G.",
"G.G.G.G.F.G.e.& $ O o O X . $ =.G.G.G.G.G.G.G.G.G.G.G.G.G.G.G.G.G.n.% = y.d.a.h.] O * ~ ..o...o.X.o...o.../ - o 4.G.G.G.G.G.G.G.",
"G.G.G.G.G.G.C.1 @ 6 ` 1.@.D $ O =.G.F.G.G.G.G.G.G.G.G.G.G.G.G.G.G.%.o Z h.p.s.a.f.F O @ 5 z x x x x x z 0 @ o P G.G.G.G.G.G.G.G.",
"G.G.G.G.G.G.P o i i.h.g.g.h.` $ @ 9.G.G.G.G.G.G.G.G.G.G.G.G.G.G.A.q O @.h.s.s.s.s.f.R ; # X . . . . . . X ; =.G.G.G.G.G.G.G.G.G.",
"G.G.G.G.G.C.; $ 3.h.i.a.a.a.h.Y O & b.G.G.G.G.G.G.G.G.G.G.G.F.G.9.o r s.s.s.s.s.s.a.k.D X N >.=.=.-.=.;.8.V.G.G.G.G.G.G.G.G.G.G.",
"G.G.G.G.G.c.@ 8 s.s.s.s.s.s.s.g.Z X 6 V.G.G.G.G.G.G.G.G.G.G.G.G.N . E h.a.s.s.s.s.d.u.; @ b.G.G.G.G.G.G.G.G.F.G.G.G.G.G.G.G.G.G.",
"G.G.G.G.G.x.O r d.s.s.s.s.s.s.d.s.i X g F.G.F.G.F.G.F.G.G.F.G.b.@ - y.d.s.s.s.s.a.h._ X h G.F.F.F.G.G.F.G.G.G.G.G.G.G.G.G.G.G.G.",
"G.G.G.G.G.N.& & y.g.a.s.d.s.s.s.f.u.< o U G.G.G.G.G.G.G.G.G.G.%.. A h.p.s.s.s.d.s.d.r o 6.G.G.G.G.G.G.G.G.G.G.G.G.G.G.G.G.G.G.G.",
"G.G.G.G.G.G.N o Z g.a.s.s.s.s.s.a.h.<.% % 5.0.0.0.0.0.0.0.0.q.w O @.h.s.s.s.s.s.g.1.@ 1 Z.G.G.G.G.G.G.G.G.G.G.G.G.G.G.G.G.G.G.G.",
"G.G.G.G.G.G.n.= @ Y h.a.s.s.s.s.s.a.h.b $ O X X O O X O X O X $ & 3.g.a.s.s.s.a.h.S . $.G.G.G.G.G.G.G.G.G.G.G.G.G.G.G.G.G.G.G.G.",
"G.G.G.G.G.G.G.8.@ @ O.h.s.s.s.s.s.a.h.R @ 2 0 0 0 i 0 0 0 0 0 - @ @.g.a.s.s.s.d.u.= $ b.G.G.G.G.G.G.G.G.G.G.G.G.G.G.G.G.G.G.G.G.",
"G.G.G.G.G.G.F.G.=.o & 1.f.s.s.s.s.a.h.F X x o...........o...o.l X b h.s.a.a.a.j.Y X n G.G.G.G.G.G.G.G.G.G.G.G.G.G.G.G.G.G.G.G.G.",
"G.G.G.G.G.G.G.G.G.J o < i.f.p.a.a.d.s.6 @ / ..|  . .| | | | ..[ & @ L s.h.h.g.` % O e.G.F.G.G.G.G.G.G.G.G.G.G.G.G.G.G.G.G.G.G.G.",
"G.G.G.G.G.G.G.G.G.F.g o r u.h.h.h.s.C @ 2 | |  . . . . . . .| ..Q # $ 6 D F r $ O $.G.G.G.G.G.G.G.G.G.G.G.G.G.G.G.G.G.G.G.G.G.G.",
"G.G.G.G.G.G.G.G.G.G.V.w @ , G _ Y 6 @ & [ ..|  . . . . . . . .| o.Q % $ @ X $ $ I G.G.G.G.G.G.G.G.G.G.G.G.G.G.G.G.G.G.G.G.G.G.G.",
"G.G.G.G.G.G.G.G.G.F.G.l.$ @ O ; : $ @ * ( ..|  . . . . . . .| ..[ 3 @ $ 6 e & @ ; 0.G.G.G.G.G.G.G.G.G.G.G.G.G.G.G.G.G.G.G.G.G.G.",
"G.G.G.G.G.G.G.G.G.G.D.g O 8 2.s.s.y.Z @ % [  .| | | |  .| | |  .3 + 8 <.a.s.t.Z O & b.G.G.G.G.G.G.G.G.G.G.G.G.G.G.G.G.G.G.G.G.G.",
"G.G.G.G.G.G.G.G.G.G.7.o 1 i.h.s.s.f.h.C X j o...o...o.......o.^ + < i.h.s.d.d.h.m . K G.G.G.G.G.G.G.G.G.G.G.G.G.G.G.G.G.G.G.G.G.",
"G.G.G.G.G.G.G.G.G.G.h o ` h.a.s.s.a.f.r.% = ~ / ^ ^ ^ ^ ^ / / 9 @ E h.p.s.s.p.f.t.% - V.G.G.G.G.G.G.G.G.G.G.G.G.G.G.G.G.G.G.G.G.",
"G.G.G.G.G.G.G.G.G.c.$ ; i.d.s.s.d.s.s.i., @ X X X X X X X X X $ # <.g.a.s.s.s.s.f.d . :.G.F.G.G.G.G.G.G.G.G.G.G.G.G.G.G.G.G.G.G.",
"G.G.G.G.G.G.G.F.G.$.. S f.a.s.s.s.s.d.u.- & V J V J V H H H J 1 @ +.h.a.s.d.s.a.h.O.X f G.G.G.G.G.G.G.G.G.G.G.G.G.G.G.G.G.G.G.G.",
"G.G.G.G.G.G.G.G.A.6 @ #.g.s.s.s.s.a.g.] X g G.G.G.G.G.G.G.G.G.&.. A h.a.s.d.s.s.d.i.< O c.G.G.G.G.G.G.G.G.G.G.G.G.G.G.G.G.G.G.G.",
"G.G.G.G.G.G.G.G.9.X 8 s.s.d.s.s.s.a.g.s o >.G.F.G.G.G.F.G.F.G.b.@ - y.d.s.s.s.s.a.h.F . U G.G.G.G.G.G.G.G.G.G.G.G.G.G.G.G.G.G.G.",
"G.G.G.G.G.G.G.G.N X R h.a.s.s.s.a.g.3.$ ; B.G.G.G.G.G.G.G.G.G.G.n . W h.p.s.s.s.s.f.2.@ : Z.G.G.G.G.G.G.G.G.G.G.G.G.G.G.G.G.G.G.",
"G.G.G.G.G.G.G.n.% & y.g.s.s.s.s.a.h.L . K G.G.G.G.G.G.G.G.G.F.G.8.o p d.s.s.d.s.s.s.d.p o 5.G.F.G.G.G.G.G.G.G.G.G.G.G.G.G.G.G.G.",
"G.G.G.G.G.F.G.*.. m g.a.s.s.s.s.d.a.6 O e.G.G.G.G.G.G.G.G.G.G.G.Z.: $ 1.f.s.d.s.d.a.h.W o n G.G.G.G.G.G.G.G.G.G.G.G.G.G.G.G.G.G.",
"G.G.G.G.G.G.F.t O @.h.a.s.s.s.s.f.+.O t F.G.G.G.G.G.G.G.G.G.G.G.G.U o D h.a.s.s.d.a.d.i.; $ b.G.G.G.G.G.G.G.G.G.G.G.G.G.G.G.G.G.",
"G.G.G.G.G.G.M.% , i.d.s.s.s.s.s.f.b . =.G.F.G.G.G.G.G.G.G.G.G.G.G.c.O , i.d.s.s.a.d.d.f.m o 6.G.G.G.G.G.G.G.G.G.G.G.G.G.G.G.G.G.",
"G.G.G.G.G.G.b.@ < s.s.s.s.s.s.f.t.& & M.G.G.G.G.G.G.G.G.G.G.G.G.G.G.g X ' h.a.s.d.a.a.f.S . 4.G.F.G.G.G.G.G.G.G.G.G.G.G.G.G.G.G.",
"G.G.G.G.G.G.C.; % t.f.p.s.s.a.h.T . B G.G.G.G.G.G.G.G.G.G.G.G.G.F.G.,.o a f.a.a.a.a.s.f.r O w.G.G.G.G.G.G.G.G.G.G.G.G.G.G.G.G.G.",
"G.G.G.G.G.G.G.N o S h.f.s.s.h.u.: O w.G.F.G.G.G.G.G.G.G.G.G.G.G.G.G.C.; $ O.j.d.d.s.j.` @ : Z.G.G.G.G.G.G.G.G.G.G.G.G.G.G.G.G.G.",
"G.G.G.G.G.G.G.b.@ @ S t.s.p.@.e o n G.G.G.G.G.G.G.G.G.G.G.G.G.G.G.F.G.=.. = _ u.s.i.R & o :.G.G.G.G.G.G.G.G.G.G.G.G.G.G.G.G.G.G.",
"G.G.G.G.G.G.F.G.7.$ . $ 6 < @ o t V.G.G.G.G.G.G.G.G.G.G.G.G.G.G.G.G.G.G.P . O ; 7 ; X o U G.G.G.G.G.G.G.G.G.G.G.G.G.G.G.G.G.G.G.",
"G.G.G.G.G.G.G.G.G.c.B ; @ $ q *.S.G.G.G.G.G.G.G.G.G.G.G.G.G.G.G.G.G.G.G.G.7.u % @ - h 9.G.G.G.G.G.G.G.G.G.G.G.G.G.G.G.G.G.G.G.G.",
"G.G.G.G.G.G.G.G.G.G.G.C.b.b.D.G.G.G.G.G.G.G.G.G.G.G.G.G.G.G.G.G.G.G.G.G.G.G.G.N.c.B.G.G.G.G.G.G.G.G.G.G.G.G.G.G.G.G.G.G.G.G.G.G.",
"G.G.G.G.G.G.G.G.G.G.G.G.G.G.G.G.G.G.G.G.G.G.G.G.G.G.G.G.G.G.G.G.G.G.G.G.G.F.G.G.G.G.G.G.G.G.G.G.G.G.G.G.G.G.G.G.G.G.G.G.G.G.G.G.",
"G.G.G.G.G.G.G.G.G.G.G.G.G.F.G.G.G.G.G.G.G.G.G.G.G.G.G.G.G.G.G.G.G.G.G.G.G.G.G.G.G.G.G.G.G.G.G.G.G.G.G.G.G.G.G.G.G.G.G.G.G.G.G.G.",
"G.G.G.G.G.G.G.G.G.G.G.G.G.G.G.G.G.G.G.G.G.G.G.G.G.G.G.G.G.G.G.G.G.G.G.G.G.G.G.G.G.G.G.G.G.G.G.G.G.G.G.G.G.G.G.G.G.G.G.G.G.G.G.G.",
"G.G.G.G.G.G.G.G.G.G.G.G.G.G.G.G.G.G.G.G.G.G.G.G.G.G.G.G.G.G.G.G.G.G.G.G.G.G.G.G.G.G.G.G.G.G.G.G.G.G.G.G.G.G.G.G.G.G.G.G.G.G.G.G.",
"G.G.G.G.G.G.G.G.G.G.G.G.G.G.G.G.G.G.G.G.G.G.G.G.G.G.G.G.G.G.G.G.G.G.G.G.G.G.G.G.G.G.G.G.G.G.G.G.G.G.G.G.G.G.G.G.G.G.G.G.G.G.G.G.",
"G.G.G.G.G.G.G.G.G.G.G.G.G.G.G.G.G.G.G.G.G.G.G.G.G.G.G.G.G.G.G.G.G.G.G.G.G.G.G.G.G.G.G.G.G.G.G.G.G.G.G.G.G.G.G.G.G.G.G.G.G.G.G.G."
};
