/* XPM */
static char *player__8_1710156991[] = {
/* columns rows colors chars-per-pixel */
"64 64 147 2 ",
"   c #00025B",
".  c #001565",
"X  c #001A65",
"o  c #001768",
"O  c #001C6A",
"+  c #002066",
"@  c #00226D",
"#  c #012571",
"$  c #052973",
"%  c #0A2C76",
"&  c #0C2E7A",
"*  c #0D3079",
"=  c #13337C",
"-  c #18367E",
";  c #19397F",
":  c #0F2F80",
">  c #133285",
",  c #1A3682",
"<  c #1D3A83",
"1  c #15338A",
"2  c #1A378F",
"3  c #1C398F",
"4  c #1C3792",
"5  c #1D3A91",
"6  c #223D86",
"7  c #243D8A",
"8  c #293F8D",
"9  c #213A97",
"0  c #243E9C",
"q  c #234184",
"w  c #27408B",
"e  c #2A438C",
"r  c #2C498A",
"t  c #334E8D",
"y  c #35508E",
"u  c #39528F",
"i  c #2E4291",
"p  c #334694",
"a  c #354896",
"s  c #3A4997",
"d  c #3C4C9A",
"f  c #3B5491",
"g  c #3E5894",
"h  c #2E42A9",
"j  c #3244AE",
"k  c #3546B2",
"l  c #3849B5",
"z  c #414E9D",
"x  c #445B96",
"c  c #43509F",
"v  c #495F98",
"b  c #4C639A",
"n  c #52689E",
"m  c #4652A1",
"M  c #4A54A4",
"N  c #535BAB",
"B  c #585CAD",
"V  c #566CA1",
"C  c #596EA2",
"Z  c #5A70A3",
"A  c #5F61B3",
"S  c #6376A6",
"D  c #6478A8",
"F  c #697CAB",
"G  c #6263B4",
"H  c #6767B9",
"J  c #6867B9",
"K  c #6C6ABD",
"L  c #414EC2",
"P  c #4650C9",
"I  c #4953CD",
"U  c #4C54D1",
"Y  c #5157D7",
"T  c #565ADD",
"R  c #746EC2",
"E  c #7770C3",
"W  c #7A71C6",
"Q  c #7E74C9",
"!  c #5A5CE3",
"~  c #5F5FEB",
"^  c #605FED",
"/  c #6160EE",
"(  c #6663F5",
")  c #6864F7",
"_  c #6B66FB",
"`  c #6F68FF",
"'  c #736BFF",
"]  c #8176CB",
"[  c #8579CD",
"{  c #8C7CD2",
"}  c #907FD5",
"|  c #6E80AE",
" . c #7183AF",
".. c #7386B1",
"X. c #7789B3",
"o. c #7B8CB5",
"O. c #8494BA",
"+. c #8A99BE",
"@. c #8F9EC1",
"#. c #909EC1",
"$. c #9280D6",
"%. c #9682D9",
"&. c #9B85DC",
"*. c #95A4C4",
"=. c #99A7C7",
"-. c #9AA8C7",
";. c #9FACCA",
":. c #A1AECB",
">. c #A6B2CD",
",. c #A9B4CF",
"<. c #ADB7D1",
"1. c #AEB9D2",
"2. c #B1BDD4",
"3. c #A28AE2",
"4. c #A98EE7",
"5. c #AB8FE8",
"6. c #AE91EA",
"7. c #B395EE",
"8. c #B697F0",
"9. c #B897F1",
"0. c #BB9AF4",
"q. c #C09DF7",
"w. c #C39EF9",
"e. c #C6A1FB",
"r. c #CAA3FE",
"t. c #D0A7FF",
"y. c #D4A9FF",
"u. c #B7C1D7",
"i. c #BCC5DA",
"p. c #BFC8DB",
"a. c #C3CADD",
"s. c #C7CEE0",
"d. c #C8CFE0",
"f. c #CCD3E3",
"g. c #D0D6E5",
"h. c #D4DAE7",
"j. c #D6DBE8",
"k. c #D9DEEA",
"l. c #DDE1EC",
"z. c #E2E6EF",
"x. c #E4E7F0",
"c. c #E6E9F1",
"v. c #E9ECF3",
"b. c #EEF1F6",
"n. c #F0F3F7",
"m. c #F4F6F9",
"M. c #FFFFFF",
/* pixels */
"M.M.M.M.M.M.M.M.M.M.M.M.M.M.M.M.M.M.M.M.M.M.M.M.M.M.M.M.M.M.M.M.M.M.M.M.M.M.M.M.M.M.M.M.M.M.M.M.M.M.M.M.M.M.M.M.M.M.M.M.M.M.M.M.",
"M.M.M.M.M.M.M.M.M.M.M.M.M.M.M.M.M.M.M.M.M.M.M.M.M.M.M.M.M.M.M.M.M.M.M.M.M.M.M.M.M.M.M.M.M.M.M.M.M.M.M.M.M.M.M.M.M.M.M.M.M.M.M.M.",
"M.M.M.M.M.M.M.M.M.M.M.M.M.M.M.M.M.M.M.M.M.M.M.M.M.M.M.M.M.M.M.M.M.M.M.M.M.M.M.M.M.M.M.M.M.M.M.M.M.M.M.M.M.M.M.M.M.M.M.M.M.M.M.M.",
"M.M.M.M.M.M.M.M.M.M.M.M.M.M.M.M.M.M.M.M.M.M.M.M.M.M.M.M.M.M.M.M.M.M.M.M.M.M.M.M.M.M.M.j.X.b x D 2.M.M.M.M.M.M.M.M.M.M.M.M.M.M.M.",
"M.M.M.M.M.M.M.M.M.M.M.M.M.M.M.M.M.M.M.M.M.M.M.M.M.M.M.M.M.M.M.M.M.M.M.M.M.M.M.M.M.M.+.$ . X X . O b v.M.M.M.M.M.M.M.M.M.M.M.M.M.",
"M.M.M.M.M.M.M.M.M.M.M.M.M.M.M.M.M.M.M.M.M.M.M.M.M.M.M.M.M.M.M.M.M.M.M.M.M.M.M.M.M.#.. # m ] { G = . g m.M.M.M.M.M.M.M.M.M.M.M.M.",
"M.M.M.M.M.M.M.M.M.M.M.M.M.M.M.M.M.M.M.M.M.M.M.M.M.M.M.M.M.M.M.M.M.M.M.M.M.M.M.M.k.& # K r.e.e.r.3.< . +.M.M.M.M.M.M.M.M.M.M.M.M.",
"M.M.M.M.M.M.M.M.M.M.M.M.M.M.M.M.M.M.M.M.M.M.M.M.M.M.M.M.M.M.M.M.M.M.M.M.M.M.M.M.O.. z r.0.9.0.9.r.] O t M.M.M.M.M.M.M.M.M.M.M.M.",
"M.M.M.M.M.M.M.M.M.M.M.M.M.M.M.M.M.M.M.M.M.M.M.M.M.M.M.M.M.M.M.M.M.M.M.M.M.M.M.M.V . W e.9.0.0.0.0.7.& * l.M.M.M.M.M.M.M.M.M.M.M.",
"M.M.M.M.M.M.M.M.M.M.M.M.M.M.M.M.M.M.M.M.M.M.M.M.M.M.M.M.M.M.M.M.M.M.M.M.M.M.M.M.n . ] e.0.0.0.0.0.0.7 O a.M.M.M.M.M.M.M.M.M.M.M.",
"M.M.M.M.M.M.M.M.M.M.M.M.M.M.M.M.M.M.M.M.M.M.M.M.M.M.M.M.M.M.M.M.M.M.M.M.M.M.M.M.F . J r.0.0.0.0.0.e.d . >.M.M.M.M.M.M.M.M.M.M.M.",
"M.M.M.M.M.M.M.M.M.M.M.M.M.M.M.M.M.M.M.M.M.M.M.M.M.M.M.M.M.M.M.M.M.M.M.M.M.M.m.M.+.. N e.0.0.0.0.0.e.N . +.M.M.M.M.M.M.M.M.M.M.M.",
"M.M.M.M.M.M.M.M.M.M.M.M.M.M.M.M.M.M.M.M.M.M.M.M.M.M.M.M.M.M.M.M.M.M.M.M.M.M.M.M.2.X s w.0.0.0.0.0.e.K . F M.M.M.M.M.M.M.M.M.M.M.",
"M.M.M.M.M.M.M.M.M.,.S m.M.M.M.M.M.M.M.M.M.M.M.M.M.M.M.M.M.M.M.M.M.M.M.M.M.M.M.M.f.@ 6 0.0.0.0.0.7.e.[ X v M.M.M.M.M.M.M.M.M.M.M.",
"M.M.M.M.M.M.M.M.M.b   *.M.M.M.M.M.M.M.M.M.M.M.M.M.M.M.M.M.M.M.M.M.M.M.M.M.M.M.M.c.% & 6.0.9.0.r.r.t.&.O t m.M.M.M.M.M.M.M.M.M.M.",
"M.M.M.M.M.M.M.M.M.;.. g M.m.M.M.M.M.M.M.M.M.M.M.M.M.M.M.M.M.M.M.M.M.M.M.M.M.M.M.M.t O &.y.r.0.{ K R G O n M.M.M.M.M.M.M.M.M.M.M.",
"M.M.M.M.M.M.M.M.M.v.- O f.M.M.M.M.M.M.M.M.M.M.M.M.M.M.M.M.M.M.M.M.M.M.M.M.M.M.M.n.x # i A W e @ X + + $ r =.h.M.M.M.M.M.M.M.M.M.",
"M.M.M.M.M.M.M.M.M.M.X.. V :.*.s.M.M.M.M.M.M.M.M.M.M.M.M.M.M.M.M.M.M.M.M.M.M.M.2.< @ @ + @ # + : h h 2 $ O X % y O.v.M.M.M.M.M.M.",
"M.M.M.M.M.M.M.M.M.M...# @ . . @ g d.M.M.M.M.M.M.M.M.M.M.M.M.M.M.M.M.M.M.m.M.1.# O e K G % $ h ( ` ` ) ! L 0 & + X < f.M.M.M.M.M.",
"M.M.M.M.M.M.M.M.M.F O # 8 N c = . $ i.M.M.M.M.M.M.M.M.M.M.M.M.M.M.M.M.M.M.j.= + B 0.y.K O 5 ` _ ( ( ) _ ` _ ( U 5 O = l.M.M.M.M.",
"M.M.M.M.M.M.M.M.<.o $ R q.r.e.7.m O 6 v.M.M.M.M.M.M.M.M.M.M.M.M.M.M.M.M.m.r O z e.0.w.p + I ` ( ( ( ) ( ( ( _ ` _ 0 . C M.M.M.M.",
"M.M.M.M.M.M.M.M.g X H t.0.9.9.w.e.i . #.M.M.M.M.M.M.M.M.M.M.M.M.M.M.M.M.V . 7 7.0.0.q.8 + Y ` ( ( _ ) ) ) ) ( ( _ ! $ = z.M.M.M.",
"M.M.M.M.M.M.M.l.% & 7.0.0.0.0.9.e.Q O t m.M.M.M.M.M.M.M.M.M.M.M.M.M.M.O.o & 3.w.9.0.w.d + P ` ( ( ) ) ( ) ) ) ) ( ) 1 @ u.M.M.M.",
"M.M.M.M.M.M.M.f.# < 0.0.0.0.0.0.0.8.< O 2.M.M.M.M.M.M.M.M.M.M.M.M.M.1.O # Q r.9.0.9.r.K O 2 _ _ ( ( ( _ ) ) ) ) ( _ 2 + i.M.M.M.",
"M.M.M.M.M.M.M.l.% & 4.q.0.0.0.0.0.r.A . Z M.M.M.M.M.M.M.M.M.M.M.M.j.= O G r.0.0.0.0.0.7., + 0 ~ ` ' _ ) ( ) ( ( ` ! $ = c.M.M.M.",
"M.M.M.M.M.M.M.M.x X K r.9.0.q.0.0.q.3.$ % l.M.M.M.M.M.M.M.M.m.M.m.r X d w.0.0.0.0.0.0.e.%.> @ & 0 L ! ) ` _ _ ` ) 0 X n M.M.M.M.",
"M.M.M.M.M.M.M.M.;.X i q.q.0.0.0.0.9.e.d . O.M.M.M.M.M.M.M.M.M.M.... 7 7.q.0.0.0.0.0.0.0.0.6 # # X X $ 3 l Y ! I 3 O = l.M.M.M.M.",
"M.M.M.M.M.M.M.M.b.< @ $.w.0.0.0.0.0.e.[ O y m.M.M.M.M.M.M.M.M.x.* # } e.0.0.0.0.0.0.0.e.d X t f.*.b = O X O @ X X 6 d.M.M.M.M.M.",
"M.M.M.M.M.M.M.M.M.... M w.9.0.0.0.0.q.6.* % y f t y f u u y d r @ i 0.0.0.0.0.0.0.0.r.G O - j.M.M.M.c.<.| u r g +.v.M.M.M.M.M.M.",
"M.M.M.M.M.M.M.M.M.g.$ & 5.q.0.0.0.0.0.7.> $ @ @ @ O O @ O @ # # @ z e.0.0.0.0.0.0.r.Q @ @ <.M.m.M.M.M.M.M.M.M.M.M.M.M.M.M.M.M.M.",
"M.M.M.M.M.M.M.M.M.M.b . J r.9.0.0.9.e.%.@ : T T T T T T ! T ! M @ e q.0.9.0.0.9.w.&.& O O.M.M.M.M.M.M.M.m.M.M.M.M.M.M.M.M.M.M.M.",
"M.M.M.M.M.M.M.M.M.M.,.O = 3.t.q.0.r.0.i + j ' _ ` ` _ ` ` _ ` ( & @ { r.w.r.e.r.0.7 . n M.M.M.M.M.M.M.M.M.M.M.M.M.M.M.M.M.M.M.M.",
"M.M.M.M.M.M.M.M.M.M.M.b O , E 5.6.{ i + : / _ ( ) ( ) ) ( ( ( ` k + > { $.K Q %.a X e n.M.M.M.M.M.M.M.M.M.M.M.M.M.M.M.M.M.M.M.M.",
"M.M.M.M.M.M.M.M.M.M.M.b.q # + # $ $ @ > ! _ ( ) ) ) ) ) ) ) ( ) _ 0 @ $ + O + @ @ < l.M.M.M.M.M.M.M.M.M.M.M.M.M.M.M.M.M.M.M.M.M.",
"M.M.M.M.M.M.M.M.M.M.M.o.# # < s e $ @ 1 ^ _ ( ) ) ) ) ) ) ) ( ( ` k $ @ 7 M z = @ - g.M.M.M.M.M.M.M.M.M.M.M.M.M.M.M.M.M.M.M.M.M.",
"M.M.M.M.M.M.M.M.M.M.>.O $ K 0.w.w.&.7 + 4 _ ) ( ) ) ) ) ) ) ( ` P + $ R w.e.e.6.d O 6 n.M.M.M.M.M.M.M.M.M.M.M.M.M.M.M.M.M.M.M.M.",
"M.M.M.M.M.M.M.M.M.c.< O J t.0.0.9.e.6.> + U ` ( ) ) ) ) ) ) ) ` 4 + J t.0.9.0.w.0.e . D M.M.M.M.M.M.M.M.M.M.M.M.M.M.M.M.M.M.M.M.",
"M.M.M.M.M.M.M.M.M.S . p q.0.0.0.0.9.r.A O j ` ( ) ( ) ) ( ( _ ! $ = 7.0.0.0.0.9.w.&.$ @ :.M.M.M.M.M.M.M.M.M.M.M.M.M.M.M.M.M.M.M.",
"M.M.M.M.M.M.M.M.u.@ $ &.e.0.q.0.0.0.r.Q + & 1 > > > 1 1 > > 1 : # 7 0.0.0.0.0.0.9.r.J O - c.M.M.M.M.M.M.M.M.M.M.M.M.M.M.M.M.M.M.",
"M.M.M.M.M.M.M.m.r O G r.0.0.0.0.0.9.r.J @ $ # $ $ $ # # $ $ # $ $ > 7.q.0.0.0.0.0.0.w.p . n M.M.M.M.M.M.M.M.M.M.M.M.M.M.M.M.M.M.",
"M.M.M.M.M.M.M.... 8 0.0.0.0.0.0.0.0.0.e O +.l.f.f.f.g.g.g.f.f.g.t X K r.8.0.0.0.0.0.e.3.* O *.M.M.M.M.M.M.M.M.M.M.M.M.M.M.M.M.M.",
"M.M.M.M.M.M.s.# # { e.0.0.0.0.0.0.r.J O q m.M.M.M.M.M.M.M.M.M.M.:.O = 3.e.0.0.0.0.0.9.r.R + & k.M.M.M.M.M.M.M.M.M.M.M.M.M.M.M.M.",
"M.M.M.M.M.M.f . N r.9.q.0.0.0.0.e.3.% O ,.M.M.M.M.M.M.M.M.M.M.M.M.n . p q.0.0.0.0.0.0.0.w.m X g M.M.M.M.M.M.M.M.M.M.M.M.M.M.M.M.",
"M.M.M.M.M.@.. < 7.q.0.0.0.0.0.0.w.a . Z M.M.M.M.M.M.M.M.M.M.M.M.M.c.< O H r.9.0.0.0.0.0.w.6., X *.M.M.M.M.M.M.M.M.M.M.M.M.M.M.M.",
"M.M.M.M.M.r O Q r.9.0.0.q.0.9.r.R O = l.M.M.M.M.M.M.M.M.M.M.M.M.M.M.<.O % %.e.0.0.0.0.0.9.r.E X x M.M.M.M.M.M.M.M.M.M.M.M.M.M.M.",
"M.M.M.M.h.# = 7.q.0.0.0.0.9.w.5.= O =.M.M.M.M.M.M.M.M.M.M.M.M.M.M.M.M.D X w 0.0.0.0.0.0.9.e.3.@ < m.M.M.M.M.M.M.M.M.M.M.M.M.M.M.",
"M.M.M.M.f.# 6 9.0.0.0.0.0.9.w.M X b M.M.M.M.M.M.M.M.M.M.M.M.M.M.M.M.M.v.e O B r.0.0.0.0.0.e.&.$ q m.M.M.M.M.M.M.M.M.M.M.M.M.M.M.",
"M.M.M.M.c.= $ 4.q.0.0.0.9.r.] @ & j.M.M.M.M.M.M.M.M.M.M.M.M.M.M.M.M.M.M.p.@ @ { r.8.0.0.8.r.E O x M.M.M.M.M.M.M.M.M.M.M.M.M.M.M.",
"M.M.M.M.M.b . N r.q.0.0.r.7., O O.M.M.M.M.M.M.M.M.M.M.M.M.M.M.M.M.M.M.M.M.X.o , 4.r.w.w.r.4.< . *.M.M.M.M.M.M.M.M.M.M.M.M.M.M.M.",
"M.M.M.M.M.p.@ # N 7.q.0.%.e . f M.M.M.M.M.M.M.M.M.M.M.M.M.M.M.M.M.M.M.M.M.M.f . < W &.3.R , . f M.M.M.M.M.M.M.M.M.M.M.M.M.M.M.M.",
"M.M.M.M.M.M.*.@ . * i 7 @ . 6 l.M.M.M.M.M.M.M.M.M.M.M.M.M.M.M.M.M.M.M.M.M.M.z.f o X # # X o g c.M.M.M.M.M.M.M.M.M.M.M.M.M.M.M.M.",
"M.M.M.M.M.M.M.i.x % O @ < F v.M.M.M.M.M.M.M.M.M.M.M.M.M.M.M.M.M.M.M.M.M.M.M.M.M.*.v q q x =.M.M.M.M.M.M.M.M.M.M.M.M.M.M.M.M.M.M.",
"M.M.M.M.M.M.M.M.M.k.u.a.b.M.M.M.M.M.M.M.M.M.M.M.M.M.M.M.M.M.M.M.M.M.M.M.M.M.M.M.M.M.m.m.M.M.M.M.M.M.M.M.M.M.M.M.M.M.M.M.M.M.M.M.",
"M.M.M.M.M.M.M.M.M.M.M.M.M.M.M.M.M.M.M.M.M.M.M.M.M.M.M.M.M.M.M.M.M.M.M.M.M.M.M.M.M.M.M.M.M.M.M.M.M.M.M.M.M.M.M.M.M.M.M.M.M.M.M.M.",
"M.M.M.M.M.M.M.M.M.M.M.M.M.M.M.M.M.M.M.M.M.M.M.M.M.M.M.M.M.M.M.M.M.M.M.M.M.M.M.M.M.M.M.M.M.M.M.M.M.M.M.M.M.M.M.M.M.M.M.M.M.M.M.M.",
"M.M.M.M.M.M.M.M.M.M.M.M.M.M.M.M.M.M.M.M.M.M.M.M.M.M.M.M.M.M.M.M.M.M.M.M.M.M.M.M.M.M.M.M.M.M.M.M.M.M.M.M.M.M.M.M.M.M.M.M.M.M.M.M.",
"M.M.M.M.M.M.M.M.M.M.M.M.M.M.M.M.M.M.M.M.M.M.M.M.M.M.M.M.M.M.M.M.M.M.M.M.M.M.M.M.M.M.M.M.M.M.M.M.M.M.M.M.M.M.M.M.M.M.M.M.M.M.M.M.",
"M.M.M.M.M.M.M.M.M.M.M.M.M.M.M.M.M.M.M.M.M.M.M.M.M.M.M.M.M.M.M.M.M.M.M.M.M.M.M.M.M.M.M.M.M.M.M.M.M.M.M.M.M.M.M.M.M.M.M.M.M.M.M.M.",
"M.M.M.M.M.M.M.M.M.M.M.M.M.M.M.M.M.M.M.M.M.M.M.M.M.M.M.M.M.M.M.M.M.M.M.M.M.M.M.M.M.M.M.M.M.M.M.M.M.M.M.M.M.M.M.M.M.M.M.M.M.M.M.M.",
"M.M.M.M.M.M.M.M.M.M.M.M.M.M.M.M.M.M.M.M.M.M.M.M.M.M.M.M.M.M.M.M.M.M.M.M.M.M.M.M.M.M.M.M.M.M.M.M.M.M.M.M.M.M.M.M.M.M.M.M.M.M.M.M.",
"M.M.M.M.M.M.M.M.M.M.M.M.M.M.M.M.M.M.M.M.M.M.M.M.M.M.M.M.M.M.M.M.M.M.M.M.M.M.M.M.M.M.M.M.M.M.M.M.M.M.M.M.M.M.M.M.M.M.M.M.M.M.M.M.",
"M.M.M.M.M.M.M.M.M.M.M.M.M.M.M.M.M.M.M.M.M.M.M.M.M.M.M.M.M.M.M.M.M.M.M.M.M.M.M.M.M.M.M.M.M.M.M.M.M.M.M.M.M.M.M.M.M.M.M.M.M.M.M.M.",
"M.M.M.M.M.M.M.M.M.M.M.M.M.M.M.M.M.M.M.M.M.M.M.M.M.M.M.M.M.M.M.M.M.M.M.M.M.M.M.M.M.M.M.M.M.M.M.M.M.M.M.M.M.M.M.M.M.M.M.M.M.M.M.M.",
"M.M.M.M.M.M.M.M.M.M.M.M.M.M.M.M.M.M.M.M.M.M.M.M.M.M.M.M.M.M.M.M.M.M.M.M.M.M.M.M.M.M.M.M.M.M.M.M.M.M.M.M.M.M.M.M.M.M.M.M.M.M.M.M."
};
