/* XPM */
static char *player__1_1710156990[] = {
/* columns rows colors chars-per-pixel */
"64 64 152 2 ",
"   c #000A61",
".  c #001564",
"X  c #001A66",
"o  c #001768",
"O  c #001C6A",
"+  c #002166",
"@  c #00236D",
"#  c #01286F",
"$  c #012571",
"%  c #042974",
"&  c #092C76",
"*  c #072B79",
"=  c #0C2E7A",
"-  c #0D307A",
";  c #12327C",
":  c #19397F",
">  c #0F3082",
",  c #163581",
"<  c #1A3683",
"1  c #1D3B82",
"2  c #143389",
"3  c #19358D",
"4  c #1C3792",
"5  c #1E3893",
"6  c #213C85",
"7  c #243D8A",
"8  c #2A3F8D",
"9  c #203B96",
"0  c #243D9B",
"q  c #293FA4",
"w  c #244184",
"e  c #2A428C",
"r  c #2D498A",
"t  c #314D8C",
"y  c #36518F",
"u  c #2E4391",
"i  c #334693",
"p  c #374996",
"a  c #394997",
"s  c #3C4C9A",
"d  c #375290",
"f  c #3C5692",
"g  c #3F5994",
"h  c #2A40A4",
"j  c #2E42AA",
"k  c #3244AE",
"l  c #3446B1",
"z  c #3748B4",
"x  c #3949B6",
"c  c #3C4ABB",
"v  c #414E9E",
"b  c #435C96",
"n  c #43509E",
"m  c #465F99",
"M  c #4D659C",
"N  c #51679E",
"B  c #51689E",
"V  c #434FA1",
"C  c #4652A1",
"Z  c #4D56A6",
"A  c #545AAB",
"S  c #595DAE",
"D  c #5C5FB0",
"F  c #566BA0",
"G  c #596EA2",
"H  c #5D72A4",
"J  c #5E61B2",
"K  c #6276A7",
"L  c #6579A8",
"P  c #6A7DAB",
"I  c #6163B4",
"U  c #6666B8",
"Y  c #6867B9",
"T  c #6D6ABD",
"R  c #706CBF",
"E  c #3F4CC1",
"W  c #434FC5",
"Q  c #454FC8",
"!  c #4752CA",
"~  c #4A53CD",
"^  c #756EC2",
"/  c #7770C3",
"(  c #7A71C6",
")  c #7E74C9",
"_  c #5A5BE4",
"`  c #5C5DE8",
"'  c #605FEC",
"]  c #6060ED",
"[  c #6663F5",
"{  c #6864F7",
"}  c #6C66FC",
"|  c #6F68FF",
" . c #736AFF",
".. c #8176CB",
"X. c #8478CD",
"o. c #8B7CD2",
"O. c #917ED5",
"+. c #7183AF",
"@. c #7284B0",
"#. c #7788B3",
"$. c #7B8CB6",
"%. c #8394BB",
"&. c #8897BC",
"*. c #8799BE",
"=. c #8B9ABE",
"-. c #8F9EC1",
";. c #909FC1",
":. c #9281D7",
">. c #9682D9",
",. c #9B86DD",
"<. c #9E88DF",
"1. c #95A4C5",
"2. c #99A6C6",
"3. c #9BA8C7",
"4. c #9CAAC8",
"5. c #A2AECC",
"6. c #A6B2CD",
"7. c #A8B3CF",
"8. c #ABB6D1",
"9. c #AEB9D2",
"0. c #B4BDD5",
"q. c #9F88E0",
"w. c #A58CE4",
"e. c #A98FE7",
"r. c #AD91E9",
"t. c #B394ED",
"y. c #B797F0",
"u. c #B897F1",
"i. c #BB9AF4",
"p. c #C09DF7",
"a. c #C39EF9",
"s. c #C6A0FB",
"d. c #C9A2FD",
"f. c #D0A6FF",
"g. c #D2A8FF",
"h. c #B7C1D7",
"j. c #BAC2D8",
"k. c #C2CBDE",
"l. c #C8CFE0",
"z. c #CAD1E2",
"x. c #D3D9E7",
"c. c #D7DDE9",
"v. c #D9DEEA",
"b. c #DDE2EC",
"n. c #E1E5EE",
"m. c #E5E9F1",
"M. c #EAEDF4",
"N. c #EFF1F6",
"B. c #F1F3F7",
"V. c #F3F5F8",
"C. c #F6F8FA",
"Z. c #FFFFFF",
/* pixels */
"Z.Z.Z.Z.Z.Z.Z.Z.Z.Z.Z.Z.Z.Z.Z.Z.Z.Z.Z.Z.Z.Z.Z.Z.Z.Z.Z.Z.Z.Z.Z.Z.Z.Z.Z.Z.Z.Z.Z.Z.Z.Z.Z.Z.Z.Z.Z.Z.Z.Z.Z.Z.Z.Z.Z.Z.Z.Z.Z.Z.Z.Z.Z.Z.",
"Z.Z.Z.Z.Z.Z.Z.Z.Z.Z.Z.Z.Z.Z.Z.Z.Z.Z.Z.Z.Z.Z.Z.Z.Z.Z.Z.Z.Z.Z.Z.Z.Z.Z.Z.Z.Z.Z.Z.Z.Z.Z.Z.Z.Z.Z.Z.Z.Z.Z.Z.Z.Z.Z.Z.Z.Z.Z.Z.Z.Z.Z.Z.Z.",
"Z.Z.Z.Z.Z.Z.Z.Z.Z.Z.Z.Z.Z.Z.Z.Z.Z.Z.Z.Z.Z.Z.Z.Z.Z.Z.Z.Z.Z.Z.Z.Z.Z.Z.Z.Z.Z.Z.Z.Z.Z.Z.Z.Z.Z.Z.Z.Z.Z.Z.Z.Z.Z.Z.Z.Z.Z.Z.Z.Z.Z.Z.Z.Z.",
"Z.Z.Z.Z.Z.Z.Z.Z.Z.Z.Z.Z.Z.Z.Z.Z.Z.Z.Z.Z.Z.Z.Z.Z.Z.Z.Z.Z.Z.Z.Z.Z.Z.Z.Z.Z.Z.Z.Z.Z.Z.Z.Z.Z.Z.Z.Z.Z.Z.Z.Z.Z.Z.Z.Z.Z.Z.Z.Z.Z.Z.Z.Z.Z.",
"Z.Z.Z.Z.Z.Z.Z.Z.Z.Z.Z.Z.Z.Z.Z.Z.Z.Z.Z.Z.Z.Z.Z.Z.Z.Z.Z.Z.Z.Z.Z.Z.Z.Z.Z.Z.Z.Z.Z.Z.Z.Z.Z.Z.Z.Z.Z.Z.Z.Z.Z.Z.Z.Z.Z.Z.Z.Z.Z.Z.Z.Z.Z.Z.",
"Z.Z.Z.Z.Z.Z.Z.Z.Z.Z.Z.Z.Z.Z.Z.Z.Z.Z.Z.Z.Z.Z.Z.Z.Z.Z.Z.Z.Z.Z.Z.Z.Z.Z.Z.Z.Z.Z.Z.Z.Z.Z.Z.Z.Z.Z.Z.Z.Z.Z.Z.Z.Z.Z.Z.Z.Z.Z.Z.Z.Z.Z.Z.Z.",
"Z.Z.Z.Z.Z.Z.Z.Z.Z.Z.Z.Z.Z.Z.Z.Z.Z.Z.Z.Z.Z.Z.Z.Z.Z.Z.Z.Z.Z.Z.Z.Z.Z.Z.Z.b.z.v.C.Z.Z.Z.Z.Z.Z.Z.Z.Z.Z.Z.Z.Z.Z.Z.Z.Z.Z.Z.Z.Z.Z.Z.Z.Z.",
"Z.Z.Z.Z.Z.Z.Z.Z.Z.Z.Z.Z.Z.Z.Z.Z.Z.Z.Z.Z.Z.Z.Z.Z.Z.Z.Z.Z.Z.Z.Z.Z.Z.8.f & @ & r 2.Z.Z.Z.Z.Z.Z.Z.Z.Z.Z.Z.Z.Z.Z.Z.Z.Z.Z.Z.Z.Z.Z.Z.Z.",
"Z.Z.Z.Z.Z.Z.Z.Z.Z.Z.Z.Z.Z.Z.Z.Z.Z.Z.Z.Z.Z.Z.Z.Z.Z.Z.Z.Z.Z.Z.Z.Z.%.o X - 6 ; O o H Z.Z.Z.Z.Z.Z.Z.Z.Z.Z.Z.Z.Z.Z.Z.Z.Z.Z.Z.Z.Z.Z.Z.",
"Z.Z.Z.Z.Z.Z.Z.Z.Z.Z.Z.Z.Z.Z.Z.Z.Z.Z.Z.Z.Z.Z.Z.Z.Z.Z.Z.Z.Z.Z.Z.6.o % U r.i.y./ - o G Z.Z.Z.Z.Z.Z.Z.Z.Z.Z.Z.Z.Z.Z.Z.Z.Z.Z.Z.Z.Z.Z.",
"Z.Z.Z.Z.Z.Z.Z.Z.Z.Z.Z.Z.Z.Z.Z.Z.Z.Z.Z.Z.Z.Z.Z.Z.Z.Z.Z.Z.Z.Z.C.r O Y d.p.i.p.d.>.; o F Z.Z.Z.Z.Z.Z.Z.Z.Z.Z.Z.Z.Z.Z.Z.Z.Z.Z.Z.Z.Z.",
"Z.Z.Z.Z.Z.Z.Z.Z.Z.Z.Z.Z.Z.Z.Z.Z.Z.Z.Z.Z.Z.Z.Z.Z.Z.Z.Z.Z.Z.Z.z.$ , u.i.u.i.i.u.d.>.- o F Z.Z.Z.Z.Z.Z.Z.Z.Z.Z.Z.Z.Z.Z.Z.Z.Z.Z.Z.Z.",
"Z.Z.Z.Z.Z.Z.Z.Z.Z.Z.Z.Z.Z.Z.Z.Z.Z.Z.Z.Z.Z.Z.Z.Z.Z.Z.Z.Z.Z.Z.8.o s s.u.i.i.i.i.u.d.>.- o B Z.Z.Z.Z.Z.Z.Z.Z.Z.Z.Z.Z.Z.Z.Z.Z.Z.Z.Z.",
"Z.Z.Z.Z.Z.Z.Z.Z.Z.Z.Z.Z.Z.Z.Z.Z.Z.Z.Z.Z.Z.Z.Z.Z.Z.Z.Z.Z.Z.Z.h.O e i.i.i.i.i.i.i.y.d.>.; . *.Z.C.Z.Z.Z.C.Z.Z.Z.Z.Z.Z.Z.Z.Z.Z.Z.Z.",
"Z.Z.Z.Z.Z.Z.Z.Z.Z.Z.Z.Z.Z.Z.Z.Z.Z.Z.Z.Z.Z.Z.Z.Z.Z.Z.Z.Z.Z.Z.m.; $ >.d.u.i.i.i.i.i.u.d...@ 1 C.Z.Z.Z.Z.Z.Z.Z.Z.Z.Z.Z.Z.Z.Z.Z.Z.Z.",
"Z.Z.Z.Z.Z.Z.Z.Z.Z.Z.Z.Z.Z.Z.Z.Z.Z.Z.Z.Z.Z.Z.Z.Z.Z.Z.Z.Z.Z.Z.Z.L . e t.p.i.i.i.p.u.u.s.p.7 @ %.0.8.9.9.8.k.Z.Z.Z.Z.Z.Z.Z.Z.Z.Z.Z.",
"Z.Z.Z.Z.Z.Z.Z.Z.Z.V.b.Z.Z.Z.Z.Z.Z.Z.Z.Z.Z.Z.Z.Z.Z.Z.Z.Z.Z.Z.Z.M.r o e t.a.u.u.i.i.s.o.7 & @ @ X X o X + $ t 8.Z.Z.Z.Z.Z.Z.Z.Z.Z.",
"Z.Z.Z.Z.Z.Z.Z.Z.Z.L O z.Z.Z.Z.Z.Z.Z.Z.Z.Z.Z.Z.Z.Z.Z.Z.Z.Z.Z.Z.Z.n.w o e t.d.d.i.i.T @ + = 5 9 0 0 0 0 9 = @ O &.Z.Z.Z.Z.Z.Z.Z.Z.",
"Z.Z.Z.Z.Z.Z.Z.Z.Z.P   P Z.Z.Z.Z.Z.Z.Z.Z.Z.Z.Z.Z.Z.Z.Z.Z.Z.Z.Z.Z.Z.b.w . e >.S e 1 % % l [ } | } } } } } [ x % O 0.Z.Z.Z.Z.Z.Z.Z.",
"Z.Z.Z.Z.Z.Z.Z.Z.Z.z.@ , M.Z.Z.Z.C.Z.Z.Z.Z.Z.Z.Z.Z.Z.Z.Z.Z.Z.Z.Z.Z.Z.b.r @ % X @ % $ j  .[ [ [ [ { [ [ [ {  .z X f Z.Z.Z.Z.Z.Z.Z.",
"Z.Z.Z.Z.Z.Z.Z.Z.Z.Z.f . 2.Z.C.Z.Z.Z.Z.Z.Z.Z.Z.Z.Z.Z.Z.Z.Z.Z.Z.Z.Z.C.Z.2.O % v X.- % ` } [ { { { { { { { [ } ] = & b.Z.Z.Z.Z.Z.Z.",
"Z.Z.Z.Z.Z.Z.Z.Z.Z.Z.2.o : r r H 0.Z.Z.Z.Z.Z.Z.Z.Z.Z.Z.Z.Z.Z.Z.Z.Z.Z.C.t O S d.r.% 2 [ { { { { { { { { { { [ [ 2 @ z.Z.Z.Z.Z.Z.Z.",
"Z.Z.Z.Z.Z.Z.Z.Z.Z.x.r $ @ @ @ . O L Z.Z.Z.Z.Z.Z.Z.Z.Z.Z.Z.Z.Z.Z.Z.Z.7.o 6 i.a.w.= * ` } [ { { [ { { { { [ } ] = & v.Z.Z.Z.Z.Z.Z.",
"Z.Z.Z.Z.Z.Z.Z.Z.m.6 . 6 / <.,.I = . P Z.Z.Z.Z.Z.Z.Z.Z.Z.Z.Z.Z.Z.Z.Z.M . Y d.y.a.e X c  .[ [ [ [ [ [ [ [ [  .W O r Z.Z.Z.Z.Z.Z.Z.",
"Z.Z.Z.Z.Z.Z.Z.Z.+.. e u.d.a.a.d.o.& @ k.Z.Z.Z.Z.Z.Z.Z.Z.Z.Z.Z.Z.Z.x.% = e.p.u.s.) @ & W | |  .| | | |  .} ~ - . 2.Z.Z.Z.Z.Z.Z.Z.",
"Z.Z.Z.Z.Z.Z.Z.M.6 @ >.d.y.i.u.u.d.S . K Z.Z.Z.Z.Z.Z.Z.Z.Z.Z.Z.Z.Z.#.. C d.u.i.u.s.A O @ 4 k z z z z z l 0 $ . L Z.Z.Z.Z.Z.Z.Z.Z.",
"Z.Z.Z.Z.Z.Z.Z.x.% < t.i.i.p.i.i.p.w.$ ; n.Z.Z.Z.Z.Z.Z.Z.Z.Z.Z.Z.N.w @ o.d.i.i.i.i.a.Y ; # X . . . . . . o ; $.Z.Z.Z.Z.Z.Z.Z.Z.Z.",
"Z.Z.Z.Z.Z.Z.Z.x.% < u.p.i.i.i.i.u.a.a . *.Z.Z.Z.Z.Z.Z.Z.Z.Z.C.Z.6.. 8 i.i.i.i.i.i.u.g.A O M =.%.%.&.%.*.6.n.Z.Z.Z.Z.Z.Z.Z.Z.Z.Z.",
"Z.Z.Z.Z.Z.Z.Z.B.w @ >.a.i.i.i.i.u.d...o t Z.Z.Z.Z.Z.Z.Z.Z.Z.Z.Z.M o T d.u.i.i.i.i.p.r.; @ z.Z.Z.Z.Z.Z.Z.Z.Z.Z.Z.Z.Z.Z.Z.Z.Z.Z.Z.",
"Z.Z.Z.Z.Z.Z.Z.Z.P . Z d.u.i.i.i.i.i.y.< O h.Z.C.C.Z.Z.Z.Z.C.Z.z.@ = r.p.i.i.i.i.u.d./ o g Z.C.Z.C.Z.Z.C.Z.Z.Z.Z.Z.Z.Z.Z.Z.Z.Z.Z.",
"Z.Z.Z.Z.Z.Z.Z.Z.z.$ ; e.p.i.i.p.i.u.d.I . B Z.Z.Z.Z.Z.Z.Z.Z.Z.#.. Z d.u.i.i.p.i.u.p.u . 3.Z.C.Z.Z.Z.Z.Z.Z.Z.Z.Z.Z.Z.Z.Z.Z.Z.Z.Z.",
"Z.Z.Z.Z.Z.Z.Z.Z.Z.m . R d.u.i.i.i.i.a.w.$ : 6.7.7.7.7.7.6.6.8.e X o.d.i.i.i.i.i.s.>.@ 1 M.Z.Z.Z.Z.Z.Z.Z.Z.Z.Z.Z.Z.Z.Z.Z.Z.Z.Z.Z.",
"Z.Z.Z.Z.Z.Z.Z.Z.Z.5.. e i.i.i.i.i.i.i.t., % O O O o o O X X o % & <.s.u.i.i.i.i.d.Z . @.Z.Z.Z.Z.Z.Z.Z.Z.Z.Z.Z.Z.Z.Z.Z.Z.Z.Z.Z.Z.",
"Z.Z.Z.Z.Z.Z.Z.Z.Z.N.w O :.s.i.i.i.i.p.r.* * 0 u 0 q u 0 u 0 0 - @ o.s.i.i.i.i.i.r.- @ z.Z.Z.Z.Z.Z.Z.Z.Z.Z.Z.Z.Z.Z.Z.Z.Z.Z.Z.Z.Z.",
"Z.Z.Z.Z.Z.Z.Z.Z.Z.Z.#.. s d.i.i.u.u.d.T O 5 | } | } } } } }  .k X n d.i.u.u.i.g.U o b Z.Z.Z.Z.Z.Z.Z.Z.Z.Z.Z.Z.Z.Z.Z.Z.Z.Z.Z.Z.Z.",
"Z.Z.Z.Z.Z.Z.Z.Z.Z.Z.n.= @ J i.s.d.d...% @ ~ } [ [ [ [ { { [ { _ & @ S i.d.s.s.^ % o 0.Z.C.Z.Z.Z.Z.Z.Z.Z.Z.Z.Z.Z.Z.Z.Z.Z.Z.Z.Z.Z.",
"Z.Z.Z.Z.Z.Z.Z.Z.Z.Z.Z.2.@ $ 7 D I p $ @ j } [ { } } [ [ { { [  .E $ $ 1 A S u % O #.Z.Z.Z.Z.Z.Z.Z.Z.Z.Z.Z.Z.Z.Z.Z.Z.Z.Z.Z.Z.Z.Z.",
"Z.Z.Z.Z.Z.Z.Z.Z.Z.Z.C.Z.1.$ % o O @ % h | [ { { [ [ { { { { { [  .E % % @ X $ @ L Z.Z.Z.Z.Z.Z.Z.Z.Z.Z.Z.Z.Z.Z.Z.Z.Z.Z.Z.Z.Z.Z.Z.",
"Z.Z.Z.Z.Z.Z.Z.Z.Z.Z.Z.v.t @ % 6 7 & @ - ~ } [ [ { { { { [ { [  .` 3 $ $ 6 7 & @ ; 7.Z.C.Z.Z.Z.Z.Z.Z.Z.Z.Z.Z.Z.Z.Z.Z.Z.Z.Z.Z.Z.Z.",
"Z.Z.Z.Z.Z.Z.Z.Z.Z.Z.Z.t . e :.u.u.w.C @ & _ } [ [ [ [ [ [ [ [ { 3 + 7 >.u.i.w.C O % x.Z.Z.Z.Z.Z.Z.Z.Z.Z.Z.Z.Z.Z.Z.Z.Z.Z.Z.Z.Z.Z.",
"Z.Z.Z.Z.Z.Z.Z.Z.Z.Z.2.o 6 t.d.i.i.s.d.C X h  .| | | | | | |  .! + 1 t.d.p.i.a.d.C . H Z.Z.Z.Z.Z.Z.Z.Z.Z.Z.Z.Z.Z.Z.Z.Z.Z.Z.Z.Z.Z.",
"Z.Z.Z.Z.Z.Z.Z.Z.Z.Z.g o / d.u.i.i.u.s.<.# - ! ! ! ! ! ! ! ! ~ 9 + T d.y.i.i.u.a.w.% - n.Z.Z.Z.Z.Z.Z.Z.Z.Z.Z.Z.Z.Z.Z.Z.Z.Z.Z.Z.Z.",
"Z.Z.Z.Z.Z.Z.Z.Z.Z.z.@ ; r.p.i.i.i.i.i.t.: % X o . X o . X X X # $ O.a.i.i.i.i.i.s.s . =.Z.C.Z.Z.Z.Z.Z.Z.Z.Z.Z.Z.Z.Z.Z.Z.Z.Z.Z.Z.",
"Z.Z.Z.Z.Z.Z.Z.Z.Z.+.. Z d.u.i.i.i.i.p.r.= & B B H B B N B B H : @ X.s.i.i.i.i.i.s...o d Z.Z.Z.Z.Z.Z.Z.Z.Z.Z.Z.Z.Z.Z.Z.Z.Z.Z.Z.Z.",
"Z.Z.Z.Z.Z.Z.Z.Z.N.: @ O.s.i.p.i.i.u.d.) o g Z.Z.Z.Z.Z.Z.Z.Z.Z.$.. Z d.u.i.i.i.i.i.t.: @ k.Z.Z.Z.Z.Z.Z.Z.Z.Z.Z.Z.Z.Z.Z.Z.Z.Z.Z.Z.",
"Z.Z.Z.Z.Z.Z.Z.Z.6.o e p.i.i.i.i.i.u.p.a . ;.Z.C.Z.Z.Z.Z.Z.Z.Z.k.$ = e.p.i.i.i.i.u.d.S . L Z.Z.Z.Z.Z.Z.Z.Z.Z.Z.Z.Z.Z.Z.Z.Z.Z.Z.Z.",
"Z.Z.Z.Z.Z.Z.Z.Z.M . T d.u.i.i.i.i.s.,.$ ; n.Z.Z.Z.Z.Z.Z.Z.Z.Z.Z.b . R d.u.i.i.i.i.s.,.@ : M.Z.Z.Z.Z.Z.Z.Z.Z.Z.Z.Z.Z.Z.Z.Z.Z.Z.Z.",
"Z.Z.Z.Z.Z.Z.Z.z.& & w.s.i.i.i.i.u.d.J . H Z.Z.Z.Z.Z.Z.Z.Z.Z.Z.Z.5.. i p.i.i.p.i.i.i.p.i . 2.Z.Z.Z.Z.Z.Z.Z.Z.Z.Z.Z.Z.Z.Z.Z.Z.Z.Z.",
"Z.Z.Z.Z.Z.Z.Z.$.. n s.i.i.i.i.i.i.u.1 O 0.Z.Z.Z.Z.Z.Z.Z.Z.Z.Z.Z.M.: @ >.a.i.i.i.i.u.d.^ o b Z.Z.Z.Z.Z.Z.Z.Z.Z.Z.Z.Z.Z.Z.Z.Z.Z.Z.",
"Z.Z.Z.Z.Z.Z.C.e X o.s.i.i.i.i.i.s.X.O t Z.Z.Z.Z.Z.Z.Z.Z.Z.Z.Z.Z.Z.P . S d.i.i.i.i.i.p.r.; $ z.Z.Z.Z.Z.Z.Z.Z.Z.Z.Z.Z.Z.Z.Z.Z.Z.Z.",
"Z.Z.Z.Z.Z.Z.x.% : y.i.i.i.i.i.i.s.v . %.Z.C.Z.Z.Z.Z.Z.Z.Z.Z.Z.Z.Z.k.@ ; t.p.i.i.i.i.u.s.n . 3.Z.Z.Z.Z.Z.Z.Z.Z.Z.Z.Z.Z.Z.Z.Z.Z.Z.",
"Z.Z.Z.Z.Z.Z.l.@ 1 i.i.i.i.i.i.a.w.& & v.Z.Z.Z.Z.Z.Z.Z.Z.Z.Z.Z.Z.Z.Z.f o ( d.i.i.i.i.u.d.A . 1.Z.Z.Z.Z.Z.Z.Z.Z.Z.Z.Z.Z.Z.Z.Z.Z.Z.",
"Z.Z.Z.Z.Z.Z.m.; % w.a.y.i.i.y.d.Y . B Z.Z.Z.Z.Z.Z.Z.Z.Z.Z.Z.Z.Z.Z.Z.-.. p a.u.i.p.u.i.p.e o 9.Z.C.Z.Z.Z.Z.Z.Z.Z.Z.Z.Z.Z.Z.Z.Z.Z.",
"Z.Z.Z.Z.Z.Z.Z.M o Z d.a.i.i.d.r., o 9.Z.Z.Z.Z.Z.Z.Z.Z.Z.Z.Z.Z.Z.Z.Z.n.; $ ..f.i.i.p.f.( @ 1 M.Z.Z.Z.Z.Z.Z.Z.Z.Z.Z.Z.Z.Z.Z.Z.Z.Z.",
"Z.Z.Z.Z.Z.Z.Z.k.$ @ Z w.i.u.o.7 . b Z.Z.Z.Z.Z.Z.Z.Z.Z.Z.Z.Z.Z.Z.Z.C.Z.%.. = ^ t.i.t.Y & . =.Z.Z.Z.Z.Z.Z.Z.Z.Z.Z.Z.Z.Z.Z.Z.Z.Z.Z.",
"Z.Z.Z.Z.Z.Z.Z.Z.4.$ . % 7 < @ . r b.Z.Z.Z.Z.Z.Z.Z.Z.Z.Z.Z.Z.Z.Z.Z.Z.Z.Z.K o o ; 6 ; X o P Z.Z.Z.Z.Z.Z.Z.Z.Z.Z.Z.Z.Z.Z.Z.Z.Z.Z.Z.",
"Z.Z.Z.Z.Z.Z.Z.Z.Z.l.M ; @ $ w $.B.Z.Z.Z.Z.Z.Z.Z.Z.Z.Z.Z.Z.Z.Z.Z.Z.Z.Z.Z.Z.4.y % @ - f 6.Z.Z.Z.Z.Z.Z.Z.Z.Z.Z.Z.Z.Z.Z.Z.Z.Z.Z.Z.Z.",
"Z.Z.Z.Z.Z.Z.Z.Z.Z.Z.Z.m.z.z.C.Z.Z.Z.Z.Z.Z.Z.Z.Z.Z.Z.Z.Z.Z.Z.Z.Z.Z.Z.Z.Z.Z.Z.Z.v.k.b.Z.Z.Z.Z.Z.Z.Z.Z.Z.Z.Z.Z.Z.Z.Z.Z.Z.Z.Z.Z.Z.Z.",
"Z.Z.Z.Z.Z.Z.Z.Z.Z.Z.Z.Z.Z.Z.Z.Z.Z.Z.Z.Z.Z.Z.Z.Z.Z.Z.Z.Z.Z.Z.Z.Z.Z.Z.Z.Z.Z.Z.Z.Z.Z.Z.Z.Z.Z.Z.Z.Z.Z.Z.Z.Z.Z.Z.Z.Z.Z.Z.Z.Z.Z.Z.Z.Z.",
"Z.Z.Z.Z.Z.Z.Z.Z.Z.Z.Z.Z.Z.Z.Z.Z.Z.Z.Z.Z.Z.Z.Z.Z.Z.Z.Z.Z.Z.Z.Z.Z.Z.Z.Z.Z.Z.Z.Z.Z.Z.Z.Z.Z.Z.Z.Z.Z.Z.Z.Z.Z.Z.Z.Z.Z.Z.Z.Z.Z.Z.Z.Z.Z.",
"Z.Z.Z.Z.Z.Z.Z.Z.Z.Z.Z.Z.Z.Z.Z.Z.Z.Z.Z.Z.Z.Z.Z.Z.Z.Z.Z.Z.Z.Z.Z.Z.Z.Z.Z.Z.Z.Z.Z.Z.Z.Z.Z.Z.Z.Z.Z.Z.Z.Z.Z.Z.Z.Z.Z.Z.Z.Z.Z.Z.Z.Z.Z.Z.",
"Z.Z.Z.Z.Z.Z.Z.Z.Z.Z.Z.Z.Z.Z.Z.Z.Z.Z.Z.Z.Z.Z.Z.Z.Z.Z.Z.Z.Z.Z.Z.Z.Z.Z.Z.Z.Z.Z.Z.Z.Z.Z.Z.Z.Z.Z.Z.Z.Z.Z.Z.Z.Z.Z.Z.Z.Z.Z.Z.Z.Z.Z.Z.Z.",
"Z.Z.Z.Z.Z.Z.Z.Z.Z.Z.Z.Z.Z.Z.Z.Z.Z.Z.Z.Z.Z.Z.Z.Z.Z.Z.Z.Z.Z.Z.Z.Z.Z.Z.Z.Z.Z.Z.Z.Z.Z.Z.Z.Z.Z.Z.Z.Z.Z.Z.Z.Z.Z.Z.Z.Z.Z.Z.Z.Z.Z.Z.Z.Z.",
"Z.Z.Z.Z.Z.Z.Z.Z.Z.Z.Z.Z.Z.Z.Z.Z.Z.Z.Z.Z.Z.Z.Z.Z.Z.Z.Z.Z.Z.Z.Z.Z.Z.Z.Z.Z.Z.Z.Z.Z.Z.Z.Z.Z.Z.Z.Z.Z.Z.Z.Z.Z.Z.Z.Z.Z.Z.Z.Z.Z.Z.Z.Z.Z."
};
