/* XPM */
static char *player__28_1710156994[] = {
/* columns rows colors chars-per-pixel */
"64 64 151 2 ",
"   c #00075F",
".  c #001665",
"X  c #001B65",
"o  c #001769",
"O  c #001D6A",
"+  c #002166",
"@  c #00236D",
"#  c #02286F",
"$  c #012571",
"%  c #042974",
"&  c #092C77",
"*  c #0B2E7A",
"=  c #102E78",
"-  c #0B3077",
";  c #0D317A",
":  c #13337C",
">  c #19367E",
",  c #16397E",
"<  c #19397F",
"1  c #153482",
"2  c #193682",
"3  c #1D3A83",
"4  c #17358C",
"5  c #19368D",
"6  c #1C3792",
"7  c #1F3995",
"8  c #213D85",
"9  c #253D8A",
"0  c #283E8D",
"q  c #203B95",
"w  c #253E9D",
"e  c #293FA1",
"r  c #254285",
"t  c #2A428C",
"y  c #2D498A",
"u  c #324E8D",
"i  c #36518F",
"p  c #38528F",
"a  c #2E4290",
"s  c #324693",
"d  c #374997",
"f  c #384A97",
"g  c #374A98",
"h  c #3B4B99",
"j  c #3C5592",
"k  c #3E5994",
"l  c #2C41A5",
"z  c #3647B4",
"x  c #3748B5",
"c  c #3B4BBA",
"v  c #414E9E",
"b  c #425A95",
"n  c #485E98",
"m  c #4C639B",
"M  c #51679D",
"N  c #54699F",
"B  c #4752A1",
"V  c #4C55A5",
"C  c #5057A7",
"Z  c #575CAD",
"A  c #595DAE",
"S  c #404DBF",
"D  c #5D5FB2",
"F  c #566CA1",
"G  c #5D72A5",
"H  c #5F61B3",
"J  c #6074A6",
"K  c #6377A8",
"L  c #6679A9",
"P  c #6B7DAC",
"I  c #6363B5",
"U  c #6765B8",
"Y  c #6865B8",
"T  c #6D6ABD",
"R  c #706BBF",
"E  c #424EC5",
"W  c #4651C9",
"Q  c #4A53CD",
"!  c #4A53D0",
"~  c #5157D7",
"^  c #5459DB",
"/  c #585BDE",
"(  c #736DC1",
")  c #7770C3",
"_  c #7971C6",
"`  c #7E75C9",
"'  c #575AE0",
"]  c #5A5BE4",
"[  c #5E5EE9",
"{  c #605FEC",
"}  c #6260EE",
"|  c #6663F5",
" . c #6864F7",
".. c #6B66FB",
"X. c #6F68FF",
"o. c #7169FF",
"O. c #8578CD",
"+. c #887BCF",
"@. c #8B7CD2",
"#. c #917FD6",
"$. c #6E82AE",
"%. c #7081AE",
"&. c #7586B1",
"*. c #7D8DB6",
"=. c #7E90B8",
"-. c #8393BA",
";. c #8897BC",
":. c #8D9DC1",
">. c #9180D6",
",. c #9582D9",
"<. c #9A85DC",
"1. c #95A3C4",
"2. c #9BA8C7",
"3. c #9DAAC9",
"4. c #A1AECB",
"5. c #A6B2CD",
"6. c #A8B5CF",
"7. c #ABB6D1",
"8. c #B3BDD5",
"9. c #A48BE3",
"0. c #A98EE7",
"q. c #AA8FE8",
"w. c #AD91EA",
"e. c #B394ED",
"r. c #B797F0",
"t. c #B897F1",
"y. c #BB9AF4",
"u. c #C09DF7",
"i. c #C39EF9",
"p. c #C6A0FB",
"a. c #CAA3FE",
"s. c #D1A7FF",
"d. c #D5AAFF",
"f. c #B7C0D7",
"g. c #BDC6DA",
"h. c #BFC8DC",
"j. c #C3CADE",
"k. c #C7CFE0",
"l. c #CCD3E3",
"z. c #D1D7E5",
"x. c #D3D9E7",
"c. c #D6DBE8",
"v. c #D9DEEA",
"b. c #DEE2EC",
"n. c #E1E5EE",
"m. c #E5E9F1",
"M. c #E9EDF3",
"N. c #EEF1F6",
"B. c #F1F3F7",
"V. c #F3F6F9",
"C. c #FFFFFF",
/* pixels */
"C.C.C.C.C.C.C.C.C.C.C.C.C.C.C.C.C.C.C.C.C.C.C.C.C.C.C.C.C.C.C.C.C.C.C.C.C.C.C.C.C.C.C.C.C.C.C.C.C.C.C.C.C.C.C.C.C.C.C.C.C.C.C.C.",
"C.C.C.C.C.C.C.C.C.C.C.C.C.C.C.C.C.C.C.C.C.C.C.C.C.C.C.C.C.C.C.C.C.C.C.C.C.C.C.C.C.C.C.C.C.C.C.C.C.C.C.C.C.C.C.C.C.C.C.C.C.C.C.C.",
"C.C.C.C.C.C.C.C.C.C.C.C.C.C.C.C.C.C.C.C.C.C.C.C.C.C.C.C.C.C.C.C.C.C.C.C.C.C.C.C.C.C.C.C.C.C.C.C.C.C.C.C.C.C.C.C.C.C.C.C.C.C.C.C.",
"C.C.C.C.C.C.C.C.C.C.C.C.C.C.C.C.C.C.C.C.C.C.C.C.C.C.C.C.C.C.C.C.C.C.C.C.C.C.C.C.C.C.C.C.C.C.C.C.C.C.C.C.C.C.C.C.C.C.C.C.C.C.C.C.",
"C.C.C.C.C.C.C.C.C.C.C.C.C.C.C.C.C.C.C.C.C.C.C.C.C.C.C.C.C.C.C.C.C.C.C.C.C.C.C.C.C.C.C.C.C.C.C.C.C.C.C.C.C.C.C.C.C.C.C.C.C.C.C.C.",
"C.C.C.C.C.C.C.C.C.C.C.C.C.C.C.C.C.C.C.C.C.C.C.C.C.C.C.C.C.C.C.C.C.C.C.C.C.C.C.C.C.C.C.C.C.j.P j p m 2.C.C.C.C.C.C.C.C.C.C.C.C.C.",
"C.C.C.C.C.C.C.C.C.C.C.C.C.C.C.C.C.C.C.C.C.C.C.C.C.C.C.C.C.C.C.C.C.C.C.C.C.C.C.C.C.C.C.C.*.@ . X O . O k n.C.C.C.C.C.C.C.C.C.C.C.",
"C.C.C.C.C.C.C.C.C.C.C.C.C.C.C.C.C.C.C.C.C.C.C.C.C.C.C.C.C.C.C.C.C.C.C.C.C.C.C.C.C.C.C.-.. % Z >.,.( 3 . u V.C.C.C.C.C.C.C.C.C.C.",
"C.C.C.C.C.C.C.C.C.C.C.C.C.C.C.C.C.C.C.C.C.C.C.C.C.C.C.C.C.C.C.C.C.C.C.C.C.C.C.C.C.C.l.% $ _ a.p.i.a.w.3 . -.C.C.C.C.C.C.C.C.C.C.",
"C.C.C.C.C.C.C.C.C.C.C.C.C.C.C.C.C.C.C.C.C.C.C.C.C.C.C.C.C.C.C.C.C.C.C.C.C.C.C.C.C.C.*.. B a.t.y.y.r.a.O.O y V.C.C.C.C.C.C.C.C.C.",
"C.C.C.C.C.C.C.C.C.C.C.C.C.C.C.C.C.C.C.C.C.C.C.C.C.C.C.C.C.C.C.C.C.C.C.C.C.C.C.C.C.C.F . ` p.t.y.y.y.y.e.* ; n.C.C.C.C.C.C.C.C.C.",
"C.C.C.C.C.C.C.C.C.C.C.C.C.C.C.C.C.C.C.C.C.C.C.C.C.C.C.C.C.C.C.C.C.C.C.C.C.C.C.C.C.C.m X +.a.t.y.y.y.y.e.2 & b.C.C.C.C.C.C.C.C.C.",
"C.C.C.C.C.C.C.C.C.C.C.C.C.C.C.C.C.C.C.C.C.C.C.C.C.C.C.C.C.C.C.C.C.C.C.C.C.C.C.C.C.C.n . @.i.y.y.y.y.y.e.: - n.C.C.C.C.C.C.C.C.C.",
"C.C.C.C.C.C.C.C.C.C.C.C.C.C.C.C.C.C.C.C.C.C.C.C.C.C.C.C.C.C.C.C.C.C.C.C.C.C.C.C.C.C.b O #.i.y.y.y.y.i.w.* ; m.C.C.C.C.C.C.C.C.C.",
"C.C.C.C.C.C.C.C.C.C.B.C.C.C.C.C.C.C.C.C.C.C.C.C.C.C.C.C.C.C.C.C.C.C.C.C.C.C.C.C.C.C.j O >.a.t.y.y.y.y.w.* : M.C.C.C.C.C.C.C.C.C.",
"C.C.C.C.C.C.C.C.C.%.: v.C.C.C.C.C.C.C.C.C.C.C.C.C.C.C.C.C.C.C.C.C.C.C.C.C.C.C.C.C.C.u O ,.i.t.y.t.t.y.w.& , M.C.C.C.C.C.C.C.C.C.",
"C.C.C.C.C.C.C.C.C.G   &.C.C.C.C.C.C.C.C.C.C.C.C.C.C.C.C.C.C.C.C.C.C.C.C.C.C.C.C.C.V.u O ,.i.t.y.a.p.a.w.% 2 B.C.C.C.C.C.C.C.C.C.",
"C.C.C.C.C.C.C.C.C.g.O r N.C.C.C.C.C.C.C.C.C.C.C.C.C.C.C.C.C.C.C.C.C.C.C.C.C.C.V.C.C.M . O.d.p.0.O._ ,.O.O u C.C.C.C.C.C.C.C.C.C.",
"C.C.C.C.C.C.C.C.C.V.u o 6.C.C.C.C.C.C.C.C.C.C.C.C.C.C.C.C.C.C.C.C.C.C.C.C.C.C.C.V.6.u $ 3 ( Z * + X @ ; $ m N.C.C.C.C.C.C.C.C.C.",
"C.C.C.C.C.C.C.C.C.C.1.o r n k &.l.C.C.C.C.C.C.C.C.C.C.C.C.C.C.C.C.C.C.C.C.C.C.z.y . O @ $ @ + $ 7 e 4 % @ @ > G 6.V.C.C.C.C.C.C.",
"C.C.C.C.C.C.C.C.C.m.k @ O X O . $ *.C.C.C.C.C.C.C.C.C.C.C.C.C.C.C.C.C.C.C.C.x.: X 9 T @.q @ 4 / ..X. ./ z 4 $ X O y l.C.C.C.C.C.",
"C.C.C.C.C.C.C.C.V.u . 2 I #.+.V $ . *.C.C.C.C.C.C.C.C.C.C.C.C.C.C.C.C.C.C.m.r O g r.s.0.* % ' o.| | | X.X. .' c 1 O = z.C.C.C.C.",
"C.C.C.C.C.C.V.C.=.. 9 q.a.p.p.a.` % $ l.C.C.C.C.C.C.C.C.C.C.C.C.C.C.C.C.C.j X 0 t.y.i.T + a X.|  . . .| |  ...X.| w O k C.C.C.C.",
"C.C.C.C.C.C.C.V.r O @.a.t.t.y.t.a.V . P C.V.C.C.C.C.C.C.C.C.C.C.C.C.C.C.J . 2 q.i.r.a.H X x X.|  . . . . . . .| ..{ * @ g.C.C.C.",
"C.C.C.C.C.C.C.x.% 2 r.y.y.y.y.y.i.,.@ 2 M.C.C.C.C.C.C.C.C.C.C.C.C.C.C.=.O & ,.i.t.y.a.T X l X.|  . . . . . . . .| X.l . ;.C.C.C.",
"C.C.C.C.C.C.C.l.$ 2 t.y.y.y.y.y.y.i.s . 1.C.C.C.C.C.C.C.C.C.C.C.V.C.3.O $ ` a.t.y.y.i.<.$ * ] X.| |  . . . . . .| ..z . ;.C.C.C.",
"C.C.C.C.C.C.C.M.3 @ <.p.y.y.y.y.t.a.) X j C.C.C.C.C.C.C.C.C.C.C.C.j.% + Y a.t.y.y.y.y.i.h X 5 ] X.X. .| |  . . .| X.q X 4.C.V.C.",
"C.C.C.C.C.C.C.C.K . A a.y.u.y.y.y.y.e.> @ h.C.C.C.C.C.C.C.C.V.C.b.< X C a.y.y.y.y.y.y.i.e.0 @ - l W { X.X. . . .o.Q $ : m.C.C.C.",
"C.C.C.C.C.C.C.C.h.@ 2 e.y.t.y.y.y.y.a.A . K C.C.C.C.C.C.C.C.C.C.F . d i.y.y.y.y.y.y.y.y.i.s @ $ X X * a W [ | } S * . -.C.C.C.C.",
"C.C.C.C.C.C.C.C.C.j X _ a.t.y.y.y.y.i.<.@ 3 g.j.j.g.j.j.j.j.k.8.* $ 9.i.t.y.y.y.y.y.y.p.B X 8 g.;.k % o X % 4 * X . K C.C.C.C.C.",
"C.C.C.C.C.C.C.C.C.1.. s i.t.y.y.y.y.y.r.2 % @ @ O @ @ @ @ @ @ $ @ a i.y.y.y.y.y.y.t.a.I O & l.C.C.C.x.:.b ; # & j 5.C.C.C.C.C.C.",
"C.C.C.C.C.C.C.C.C.M., @ ,.p.y.y.y.y.y.w.* % 4 4 4 4 4 4 4 4 5 1 @ s i.y.y.y.u.y.t.a.) @ $ 6.C.V.C.C.C.C.C.m.l.b.C.C.C.C.C.C.C.C.",
"C.C.C.C.C.C.C.C.C.C.P . V a.t.t.t.r.a.( O 5 ...... ... . . .X.] % > r.y.t.y.y.t.p.#.% O ;.C.V.C.C.C.C.C.C.C.C.C.C.C.C.C.C.C.C.C.",
"C.C.C.C.C.C.C.C.C.C.l.$ @ R a.a.a.a.,.1 + E ..|  . . . . . . . .5 + H a.p.y.u.a.9.: . P C.C.C.C.C.C.C.C.C.C.C.C.C.C.C.C.C.C.C.C.",
"C.C.C.C.C.C.C.C.C.C.C.:.$ % g ( _ V % + w .. . . . . . . . .| ..! @ % V B 0 t C 3 O m C.C.C.C.C.C.C.C.C.C.C.C.C.C.C.C.C.C.C.C.C.",
"C.C.C.C.C.C.C.C.C.V.C.b.> $ X X X O % 6  . .|  . . . . . . . . .X.z # @ X @ + X $ : M.C.C.C.C.C.C.C.C.C.C.C.C.C.C.C.C.C.C.C.C.C.",
"C.C.C.C.C.C.C.C.C.C.m.r O 2 I O._ d @ & W ..|  . . . . . . . . .| 6 @ 2 R <.#.D & @ %.C.C.C.C.C.C.C.C.C.C.C.C.C.C.C.C.C.C.C.C.C.",
"C.C.C.C.C.C.C.C.C.C.F . 0 e.a.a.p.a.H + 1 } | | | |  .| |  .| ..z + 3 w.a.i.i.a.@.% O 3.C.C.C.C.C.C.C.C.C.C.C.C.C.C.C.C.C.C.C.C.",
"C.C.C.C.C.C.C.C.C.4.O * 9.i.t.y.t.y.p.s + W o. .X.....X.X...X. .4 + @.a.t.y.t.t.a.R O ; x.C.V.C.C.C.C.C.C.C.C.C.C.C.C.C.C.C.C.C.",
"C.C.C.C.C.C.C.C.n., O T a.t.y.y.y.t.i.( O a / ~ ^ ^ ^ ~ ~ ~ / Q % 1 e.y.y.y.y.y.t.p.v . u C.C.C.C.C.C.C.C.C.C.C.C.C.C.C.C.C.C.C.",
"C.C.C.C.C.C.C.C.F . g i.t.y.y.y.y.y.p.( $ $ O + O + O + O @ O O $ 2 e.y.y.y.y.y.y.y.r.3 O $.C.C.C.C.C.C.C.C.C.C.C.C.C.C.C.C.C.C.",
"C.C.C.C.C.C.C.2.O * 9.i.y.y.y.u.y.t.a.V @ r b j j p j j j j j j : $ ,.p.y.y.y.y.y.y.p.#.% O 6.C.C.C.C.C.C.C.C.C.C.C.C.C.C.C.C.C.",
"C.C.C.C.C.C.b.> + ( a.t.y.y.y.y.y.p.<.% $ j.C.C.C.C.C.C.C.C.C.C.%.. s y.y.y.y.y.y.y.r.a.U O > v.C.C.C.C.C.C.C.C.C.C.C.C.C.C.C.C.",
"C.C.C.C.C.C.m . h p.y.y.y.y.y.y.y.y.a . K C.C.C.C.C.C.C.C.C.C.C.m.3 O H a.y.y.y.y.y.y.y.i.h . k C.C.C.C.C.C.C.C.C.C.C.C.C.C.C.C.",
"C.C.C.C.C.2.O * 0.i.t.y.y.y.y.t.a.I X r M.C.C.C.C.C.C.C.C.C.C.C.C.8.O $ +.p.r.y.y.y.y.y.i.w.2 o -.C.V.C.C.C.C.C.C.C.C.C.C.C.C.C.",
"C.C.C.C.B.r O ( a.t.y.y.y.y.y.i.<.% O 8.C.C.C.C.C.C.C.C.C.C.C.C.C.C.*.O 2 w.i.y.y.y.i.y.t.p.+.O 3 N.C.C.C.C.C.C.C.C.C.C.C.C.C.C.",
"C.C.V.C.f.O 9 y.y.y.y.u.y.y.y.y.t o K C.C.C.C.C.C.C.C.C.C.C.C.C.C.C.C.k . g i.y.y.y.y.y.y.y.y.8 @ j.C.C.C.C.C.C.C.C.C.C.C.C.C.C.",
"C.C.C.C.4.. B p.y.y.y.y.y.t.a.D O r M.C.C.C.C.C.C.C.C.C.C.C.C.C.C.C.C.b.> O I a.y.y.y.y.y.y.i.s O 8.C.C.C.C.C.C.C.C.C.C.C.C.C.C.",
"C.C.C.C.6.X h i.t.y.y.y.t.p.<.% @ 8.C.C.C.C.C.C.C.C.C.C.C.C.C.C.C.C.V.C.7.O % @.p.r.y.y.t.y.r.2 $ l.C.C.C.C.C.C.C.C.C.C.C.C.C.C.",
"C.C.C.C.x.% & 9.a.t.t.t.u.y.t . P C.C.C.C.C.C.C.C.C.C.C.C.C.C.C.C.C.C.C.C.&.X 2 e.a.y.t.y.s.T O y C.C.C.C.C.C.C.C.C.C.C.C.C.C.C.",
"C.C.C.C.C.M . s e.a.p.a.y.V O r N.C.C.C.C.C.C.C.C.C.C.C.C.C.C.C.C.C.C.C.C.C.p X t <.i.i.y.R % o 2.C.C.C.C.C.C.C.C.C.C.C.C.C.C.C.",
"C.C.C.C.C.b.3 . 2 I ` Y t O % j.C.C.C.C.C.C.C.C.C.C.C.C.C.C.C.C.C.C.C.C.C.C.n.8 . % s h 8 O o &.C.C.C.C.C.C.C.C.C.C.C.C.C.C.C.C.",
"C.C.C.C.C.C.v.j X . . . . 8 g.C.C.C.C.C.C.C.C.C.C.C.C.C.C.C.C.C.C.C.C.C.C.C.C.m.G * O . @ r 2.C.C.C.C.C.C.C.C.C.C.C.C.C.C.C.C.C.",
"C.C.C.C.C.V.C.C.8.$.N K 3.M.C.C.C.C.C.C.C.C.C.C.C.C.C.C.C.C.C.C.C.C.C.C.C.C.C.C.C.n.8.6.g.V.C.C.C.C.C.C.C.C.C.C.C.C.C.C.C.C.C.C.",
"C.C.C.C.C.C.C.C.C.C.C.C.C.C.C.C.C.C.C.C.C.C.C.C.C.C.C.C.C.C.C.C.C.C.C.C.C.C.C.C.V.C.C.C.C.C.C.C.C.C.C.C.C.C.C.C.C.C.C.C.C.C.C.C.",
"C.C.C.C.C.C.C.C.V.C.C.C.V.C.C.C.C.C.C.C.C.C.C.C.C.C.C.C.C.C.C.C.C.C.C.C.C.C.C.C.C.C.C.C.C.C.C.C.C.C.C.C.C.C.C.C.C.C.C.C.C.C.C.C.",
"C.C.C.C.C.C.C.C.C.C.C.C.C.C.C.C.C.C.C.C.C.C.C.C.C.C.C.C.C.C.C.C.C.C.C.C.C.C.C.C.C.C.C.C.C.C.C.C.C.C.C.C.C.C.C.C.C.C.C.C.C.C.C.C.",
"C.C.C.C.C.C.C.C.C.C.C.C.C.C.C.C.C.C.C.C.C.C.C.C.C.C.C.C.C.C.C.C.C.C.C.C.C.C.C.C.C.C.C.C.C.C.C.C.C.C.C.C.C.C.C.C.C.C.C.C.C.C.C.C.",
"C.C.C.C.C.C.C.C.C.C.C.C.C.C.C.C.C.C.C.C.C.C.C.C.C.C.C.C.C.C.C.C.C.C.C.C.C.C.C.C.C.C.C.C.C.C.C.C.C.C.C.C.C.C.C.C.C.C.C.C.C.C.C.C.",
"C.C.C.C.C.C.C.C.C.C.C.C.C.C.C.C.C.C.C.C.C.C.C.C.C.C.C.C.C.C.C.C.C.C.C.C.C.C.C.C.C.C.C.C.C.C.C.C.C.C.C.C.C.C.C.C.C.C.C.C.C.C.C.C.",
"C.C.C.C.C.C.C.C.C.C.C.C.C.C.C.C.C.C.C.C.C.C.C.C.C.C.C.C.C.C.C.C.C.C.C.C.C.C.C.C.C.C.C.C.C.C.C.C.C.C.C.C.C.C.C.C.C.C.C.C.C.C.C.C.",
"C.C.C.C.C.C.C.C.C.C.C.C.C.C.C.C.C.C.C.C.C.C.C.C.C.C.C.C.C.C.C.C.C.C.C.C.C.C.C.C.C.C.C.C.C.C.C.C.C.C.C.C.C.C.C.C.C.C.C.C.C.C.C.C.",
"C.C.C.C.C.C.C.C.C.C.C.C.C.C.C.C.C.C.C.C.C.C.C.C.C.C.C.C.C.C.C.C.C.C.C.C.C.C.C.C.C.C.C.C.C.C.C.C.C.C.C.C.C.C.C.C.C.C.C.C.C.C.C.C.",
"C.C.C.C.C.C.C.C.C.C.C.C.C.C.C.C.C.C.C.C.C.C.C.C.C.C.C.C.C.C.C.C.C.C.C.C.C.C.C.C.C.C.C.C.C.C.C.C.C.C.C.C.C.C.C.C.C.C.C.C.C.C.C.C."
};
