/* XPM */
static char *player__30_1710156994[] = {
/* columns rows colors chars-per-pixel */
"64 64 152 2 ",
"   c #00065E",
".  c #001565",
"X  c #001A66",
"o  c #001668",
"O  c #001C6A",
"+  c #002166",
"@  c #00226C",
"#  c #01286F",
"$  c #012571",
"%  c #042974",
"&  c #0A2C77",
"*  c #0C2E78",
"=  c #0E307A",
"-  c #13337C",
";  c #18357E",
":  c #17397F",
">  c #18387F",
",  c #0F3081",
"<  c #133284",
"1  c #1A3682",
"2  c #1E3B83",
"3  c #15348A",
"4  c #19358D",
"5  c #1E3994",
"6  c #213D85",
"7  c #253D89",
"8  c #203A97",
"9  c #253D9C",
"0  c #283FA1",
"q  c #254385",
"w  c #294487",
"e  c #2B428D",
"r  c #2E4A8A",
"t  c #324D8D",
"y  c #36508F",
"u  c #2D4291",
"i  c #314592",
"p  c #374996",
"a  c #394997",
"s  c #3B4A99",
"d  c #375290",
"f  c #2D43A6",
"g  c #2E43A9",
"h  c #3145AB",
"j  c #3245B0",
"k  c #3749B4",
"l  c #3949B6",
"z  c #3A49B9",
"x  c #414F9D",
"c  c #425B96",
"v  c #44509F",
"b  c #4C639B",
"n  c #51669D",
"m  c #53699F",
"M  c #4551A1",
"N  c #4A54A4",
"B  c #555BAC",
"V  c #595DAE",
"C  c #5C5EB0",
"Z  c #576DA1",
"A  c #5B6FA3",
"S  c #5E74A6",
"D  c #5E61B1",
"F  c #6377A8",
"G  c #6479A9",
"H  c #6A7DAB",
"J  c #6263B5",
"K  c #6967BA",
"L  c #6C69BC",
"P  c #716DBF",
"I  c #3F4CC1",
"U  c #404EC1",
"Y  c #4651CA",
"T  c #4952CD",
"R  c #4D55D2",
"E  c #5056D6",
"W  c #565ADE",
"Q  c #736EC1",
"!  c #7A72C6",
"~  c #7D74C9",
"^  c #575AE0",
"/  c #5B5DE4",
"(  c #6663F5",
")  c #6864F7",
"_  c #6B66FB",
"`  c #6F68FF",
"'  c #726AFF",
"]  c #8276CB",
"[  c #8579CD",
"{  c #887BCF",
"}  c #8C7CD2",
"|  c #907FD5",
" . c #6D81AE",
".. c #7183AF",
"X. c #6F83B0",
"o. c #7385B0",
"O. c #7688B3",
"+. c #7A8CB5",
"@. c #7F92B9",
"#. c #808FB6",
"$. c #8393BA",
"%. c #8B9ABE",
"&. c #8F9EC1",
"*. c #919FC2",
"=. c #9381D7",
"-. c #9582D8",
";. c #9A85DC",
":. c #92A1C3",
">. c #98A6C6",
",. c #9AA8C7",
"<. c #9CAAC8",
"1. c #A3AFCC",
"2. c #A7B2CE",
"3. c #A8B3CF",
"4. c #AAB6D0",
"5. c #AFB9D2",
"6. c #B3BDD5",
"7. c #A48BE3",
"8. c #A98EE7",
"9. c #AE91EB",
"0. c #B394EE",
"q. c #B797F0",
"w. c #B897F1",
"e. c #BB9AF4",
"r. c #C09CF7",
"t. c #C39EF9",
"y. c #C6A1FB",
"u. c #CAA3FE",
"i. c #D1A7FF",
"p. c #D3A8FF",
"a. c #B6C1D7",
"s. c #B8C1D7",
"d. c #BBC4D9",
"f. c #C0C7DB",
"g. c #C4CCDF",
"h. c #C7CFE0",
"j. c #C8CFE0",
"k. c #CDD4E4",
"l. c #D1D7E5",
"z. c #D3D9E6",
"x. c #D6DBE8",
"c. c #D8DDE9",
"v. c #DDE2EC",
"b. c #E1E5EE",
"n. c #E4E7F0",
"m. c #E6EAF2",
"M. c #EAEDF3",
"N. c #EDF1F5",
"B. c #F0F3F7",
"V. c #F3F5F9",
"C. c #F7F8FB",
"Z. c #FFFFFF",
/* pixels */
"Z.Z.Z.Z.Z.Z.Z.Z.Z.Z.Z.Z.Z.Z.Z.Z.Z.Z.Z.Z.Z.Z.Z.Z.Z.Z.Z.Z.Z.Z.Z.Z.Z.Z.Z.Z.Z.Z.Z.Z.Z.Z.Z.Z.Z.Z.Z.Z.Z.Z.Z.Z.Z.Z.Z.Z.Z.Z.Z.Z.Z.Z.Z.Z.",
"Z.Z.Z.Z.Z.Z.Z.Z.Z.Z.Z.Z.Z.Z.Z.Z.Z.Z.Z.Z.Z.Z.Z.Z.Z.Z.Z.Z.Z.Z.Z.Z.Z.Z.Z.Z.Z.Z.Z.Z.Z.Z.Z.Z.Z.Z.Z.Z.Z.Z.Z.Z.Z.Z.Z.Z.Z.Z.Z.Z.Z.Z.Z.Z.",
"Z.Z.Z.Z.Z.Z.Z.Z.Z.Z.Z.Z.Z.Z.Z.Z.Z.Z.Z.Z.Z.Z.Z.Z.Z.Z.Z.Z.Z.Z.Z.Z.Z.Z.Z.Z.Z.Z.Z.Z.Z.Z.Z.Z.Z.Z.Z.C.Z.Z.Z.Z.Z.Z.Z.Z.Z.Z.Z.Z.Z.Z.Z.Z.",
"Z.Z.Z.Z.Z.Z.Z.Z.Z.Z.Z.Z.Z.Z.Z.Z.Z.Z.Z.Z.Z.Z.Z.Z.Z.Z.Z.Z.Z.Z.Z.Z.Z.Z.Z.Z.Z.Z.Z.Z.Z.Z.Z.Z.Z.Z.Z.Z.Z.Z.Z.Z.Z.Z.Z.Z.Z.Z.Z.Z.Z.Z.Z.Z.",
"Z.Z.Z.Z.Z.Z.Z.Z.Z.Z.Z.Z.Z.Z.Z.Z.Z.Z.Z.Z.Z.Z.Z.Z.Z.Z.Z.Z.Z.Z.Z.Z.Z.Z.Z.Z.Z.Z.Z.Z.Z.Z.Z.Z.Z.M.f.6.k.Z.Z.Z.Z.Z.Z.Z.Z.Z.Z.Z.Z.Z.Z.Z.",
"Z.Z.Z.Z.Z.Z.Z.Z.Z.Z.Z.Z.Z.Z.Z.Z.Z.Z.Z.Z.Z.Z.Z.Z.Z.Z.Z.Z.Z.Z.Z.Z.Z.Z.Z.Z.Z.Z.Z.Z.Z.Z.Z.M.H - O O $ t 6.Z.Z.Z.Z.Z.Z.Z.Z.Z.Z.Z.Z.Z.",
"Z.Z.Z.Z.Z.Z.Z.Z.Z.Z.Z.Z.Z.Z.Z.Z.Z.Z.Z.Z.Z.Z.Z.Z.Z.Z.Z.Z.Z.Z.Z.Z.Z.Z.Z.Z.Z.Z.Z.Z.Z.Z.M.r . $ 7 p < X O &.Z.Z.Z.Z.Z.Z.Z.Z.Z.Z.Z.Z.",
"Z.Z.Z.Z.Z.Z.Z.Z.Z.Z.Z.Z.Z.Z.Z.Z.Z.Z.Z.Z.Z.Z.Z.Z.Z.Z.Z.Z.Z.Z.Z.Z.Z.Z.Z.Z.Z.Z.Z.Z.Z.Z.n . 7 | e.t.0.J % O a.Z.Z.Z.Z.Z.Z.Z.Z.Z.Z.Z.",
"Z.Z.Z.Z.Z.Z.Z.Z.Z.Z.Z.Z.Z.Z.Z.Z.Z.Z.Z.Z.Z.Z.Z.Z.Z.Z.Z.Z.Z.Z.Z.Z.Z.Z.Z.Z.Z.Z.Z.Z.Z.d.O - 7.u.e.e.r.u.D X c Z.Z.Z.Z.Z.Z.Z.Z.Z.Z.Z.",
"Z.Z.Z.Z.Z.Z.Z.Z.Z.Z.Z.Z.Z.Z.Z.Z.Z.Z.Z.Z.Z.Z.Z.Z.Z.Z.Z.Z.Z.Z.Z.Z.Z.Z.Z.Z.Z.Z.Z.Z.Z.O.. B u.q.e.e.w.r.9.& * v.Z.Z.Z.Z.Z.Z.Z.Z.Z.Z.",
"Z.Z.Z.Z.Z.Z.Z.Z.Z.Z.Z.Z.Z.Z.Z.Z.Z.Z.Z.Z.Z.Z.Z.Z.Z.Z.Z.Z.Z.Z.Z.Z.Z.Z.Z.Z.Z.Z.Z.C.Z.G . Q u.w.e.e.e.e.e.7 @ g.Z.Z.Z.Z.Z.Z.Z.Z.Z.Z.",
"Z.Z.Z.Z.Z.Z.Z.Z.Z.Z.Z.Z.Z.Z.Z.Z.Z.Z.Z.Z.Z.Z.Z.Z.Z.Z.Z.Z.Z.Z.Z.Z.Z.Z.Z.Z.Z.Z.Z.Z.Z. .. K u.w.r.e.e.e.r.a X 6.Z.Z.Z.Z.Z.Z.Z.Z.Z.Z.",
"Z.Z.Z.Z.Z.Z.Z.Z.Z.Z.Z.Z.Z.Z.Z.Z.Z.Z.Z.Z.Z.Z.Z.Z.Z.Z.Z.Z.Z.Z.Z.Z.Z.Z.Z.Z.Z.Z.Z.C.Z.%.. B u.w.e.e.e.w.u.N . >.Z.C.Z.Z.Z.Z.Z.Z.Z.Z.",
"Z.Z.Z.Z.Z.Z.Z.Z.Z.Z.C.Z.Z.Z.Z.Z.Z.Z.Z.Z.Z.Z.Z.Z.Z.Z.Z.Z.Z.Z.Z.Z.Z.Z.Z.Z.Z.Z.Z.Z.Z.1.. v t.w.e.e.e.e.u.D . @.Z.Z.Z.Z.Z.Z.Z.Z.Z.Z.",
"Z.Z.Z.Z.Z.Z.Z.C.Z.+.2 v.Z.Z.Z.Z.Z.Z.Z.Z.Z.Z.Z.Z.Z.Z.Z.Z.Z.Z.Z.Z.Z.Z.Z.Z.Z.Z.Z.Z.Z.s.O i t.e.e.e.e.w.u.P . G Z.Z.Z.Z.Z.Z.Z.Z.Z.Z.",
"Z.Z.Z.Z.Z.Z.Z.Z.Z.S   O.Z.Z.Z.Z.Z.Z.Z.Z.Z.Z.Z.Z.Z.Z.Z.Z.Z.Z.Z.Z.Z.Z.Z.Z.Z.Z.Z.Z.Z.k.$ 2 w.e.e.w.e.e.t.] . b Z.Z.Z.Z.Z.Z.Z.Z.Z.Z.",
"Z.Z.Z.Z.Z.Z.Z.Z.Z.d.O q B.Z.Z.Z.Z.Z.Z.Z.Z.Z.Z.Z.Z.Z.Z.Z.Z.Z.Z.Z.Z.Z.Z.Z.Z.Z.Z.Z.Z.m.- * 0.u.e.u.y.e.i.{ . b Z.Z.Z.Z.Z.Z.Z.Z.Z.Z.",
"Z.Z.Z.Z.Z.Z.Z.Z.Z.C.r o 5.Z.Z.Z.Z.C.Z.Z.Z.Z.Z.Z.Z.Z.Z.Z.Z.Z.Z.Z.Z.Z.Z.Z.Z.Z.Z.Z.Z.N.q $ J ;.0.Q s 7 s u O +.Z.Z.Z.Z.Z.Z.Z.Z.Z.Z.",
"Z.Z.Z.Z.Z.Z.Z.Z.C.Z.&.o r n b $.x.Z.Z.Z.Z.Z.Z.Z.Z.Z.Z.Z.Z.Z.Z.Z.Z.Z.Z.Z.Z.Z.Z.Z.<.2 @ @ O # < @ + @ O + $ t &.v.Z.Z.Z.Z.Z.Z.Z.Z.",
"Z.Z.Z.Z.Z.Z.Z.Z.Z.M.b $ O X . . & $.Z.Z.Z.Z.Z.Z.Z.Z.Z.Z.Z.Z.Z.Z.Z.Z.Z.Z.Z.Z.Z.$.O @ 7 N a % @ < U E R g = @ . * b 6.Z.Z.Z.Z.Z.Z.",
"Z.Z.Z.Z.Z.Z.Z.Z.C.d . - V ] ! x $ . $.Z.Z.Z.Z.Z.Z.Z.Z.Z.Z.Z.Z.Z.Z.Z.Z.Z.Z.Z.%.O $ L e.p.C + 5 ( ' ` _ ` ( Y 9 % X O F Z.Z.Z.Z.Z.",
"Z.Z.Z.Z.Z.Z.Z.Z.$.. 6 7.u.y.y.u.Q $ % z.Z.Z.Z.Z.Z.Z.Z.Z.Z.Z.Z.Z.Z.Z.Z.Z.Z.1.O @ L u.e.0.- @ W _ ( ) ( ( ) ` ` / l * . ..Z.Z.Z.Z.",
"Z.Z.Z.Z.Z.Z.Z.V.w @ { u.e.e.e.e.u.N . ..Z.Z.Z.Z.Z.Z.Z.Z.Z.Z.Z.Z.Z.Z.V.Z.6.@ @ J u.0.y.;.# 3 ) ) ) ) ) ) ) ( ( ) ' R % $ j.Z.Z.Z.",
"Z.Z.Z.Z.Z.Z.Z.z.% ; 0.e.e.e.e.e.t.=.@ > M.Z.Z.Z.Z.Z.Z.Z.Z.Z.Z.Z.Z.Z.Z.h.& O B u.e.e.t.-.@ 4 ) ) ) ) ) ) ) ) ) ) ( ' f . O.Z.C.Z.",
"Z.Z.Z.Z.Z.Z.Z.l.$ 1 e.e.e.e.e.e.e.e.i . 1.Z.Z.Z.Z.Z.Z.Z.Z.Z.Z.Z.Z.Z.x.; O v y.e.e.e.t.9.* % / _ ( ) ) ) ) ) ) ) ( _ T X b Z.Z.Z.",
"Z.Z.Z.Z.Z.Z.Z.M.: $ ;.t.e.e.e.e.w.u.Q X d Z.Z.Z.Z.Z.Z.Z.Z.Z.Z.Z.Z.v.7 O a r.e.e.e.e.w.u.M O 9 _ _ ) ) ) ) ) ) ) ) _ T X n Z.Z.Z.",
"Z.Z.Z.Z.Z.Z.Z.Z.S . D u.e.e.r.e.e.e.0.- O h.Z.Z.Z.Z.Z.Z.Z.Z.Z.Z.V.t X 7 e.e.e.e.e.e.q.t.7.; @ 5 E ) _ _ ) ) ) ) ( ' f . +.Z.C.Z.",
"Z.Z.Z.Z.Z.Z.C.Z.d.@ 1 q.r.e.e.e.e.w.y.B . H Z.Z.Z.Z.Z.Z.Z.Z.Z.Z.O.. 6 0.r.e.e.e.e.e.e.q.u.J @ @ O 3 k ^ _ _ _ _ ' T % $ k.Z.Z.Z.",
"Z.Z.Z.Z.Z.Z.Z.Z.Z.t X ~ u.e.e.e.e.e.t.-.@ 6 j.l.k.k.k.k.l.k.l.h.> @ =.u.w.e.e.e.e.e.e.u.} & O b r O . $ 5 N ^ E h % . O.Z.Z.Z.Z.",
"Z.Z.Z.Z.Z.Z.Z.Z.Z.*.. p e.e.e.e.e.e.e.0.- % % @ $ @ $ $ % % $ % $ 6 e.e.e.e.r.e.e.w.y.;.* O H Z.V.6.S ; X X $ O X O O.Z.Z.Z.Z.Z.",
"Z.Z.Z.Z.Z.Z.Z.Z.Z.n.- @ ;.t.e.e.e.e.e.0.= % < 3 < 3 < 3 < < 3 , @ u e.e.e.e.e.e.w.t.7.; . Z Z.Z.Z.Z.Z.m.>.m t t G g.Z.Z.Z.Z.Z.Z.",
"Z.Z.Z.Z.Z.Z.Z.Z.Z.Z.G . B u.e.0.e.q.u.] @ 4 ) ( ) ) ( ( ( ( ) ^ % - q.e.e.e.e.w.t.9.6 O c Z.Z.Z.Z.Z.Z.Z.Z.Z.Z.Z.Z.Z.Z.Z.Z.Z.Z.Z.",
"Z.Z.Z.Z.Z.Z.Z.Z.Z.Z.k.$ @ ! u.y.y.u.;.- + U ' ( _ ) _ ) ) ) ) ) 4 @ J p.y.e.t.u.q.7 O t B.Z.Z.Z.Z.Z.Z.Z.Z.Z.Z.Z.Z.C.Z.Z.Z.Z.Z.Z.",
"Z.Z.Z.Z.Z.Z.Z.Z.Z.Z.Z.$.$ % v ~ [ B * @ 8 ) ( ) ( ) ( ) ) ) ( ' Y + % B N e u B u O w n.Z.Z.Z.Z.Z.Z.Z.Z.Z.Z.Z.Z.Z.Z.Z.Z.Z.Z.Z.Z.",
"Z.Z.Z.Z.Z.Z.Z.Z.Z.C.Z.v.; % O O X O % 4 ) ) ) ) ( ) ) ) ) ) ) ) ` j # + . @ @ X $ & z.Z.Z.Z.Z.Z.Z.Z.Z.Z.Z.Z.Z.Z.Z.Z.Z.Z.Z.Z.Z.Z.",
"Z.Z.Z.Z.Z.Z.Z.Z.Z.Z.m.w O ; J ~ P i @ * T ` ( ) ) ) ) ) ) ) ) ) ) 5 @ < K =.| B & @ O.Z.C.Z.Z.Z.Z.Z.Z.Z.Z.Z.Z.Z.Z.Z.Z.Z.Z.Z.Z.Z.",
"Z.Z.Z.Z.Z.Z.Z.Z.Z.Z.Z . e 9.u.y.u.y.B @ < ( ( ( ( ) ( ) ) ) ( _ l + 2 7.u.y.y.u.} % o <.Z.Z.Z.Z.Z.Z.Z.Z.Z.Z.Z.Z.Z.Z.Z.Z.Z.Z.Z.Z.",
"Z.Z.Z.Z.Z.Z.Z.Z.Z.,.O * 7.y.w.e.w.e.t.e + Y ' ) _ _ _ _ _ _ _ _ 3 @ ] u.w.e.w.q.u.P O * l.Z.C.Z.Z.Z.Z.Z.Z.Z.Z.Z.Z.Z.Z.Z.Z.Z.Z.Z.",
"Z.Z.Z.Z.Z.Z.Z.Z.v.; O Q u.q.e.e.e.w.u.K O 9 / W ^ ^ ^ ^ ^ W ^ R % - 0.e.e.e.e.e.e.t.M X r V.Z.Z.Z.Z.Z.Z.Z.Z.Z.Z.Z.Z.Z.Z.Z.Z.Z.Z.",
"Z.Z.Z.Z.Z.Z.Z.Z.b X s y.e.e.t.e.e.e.t.P @ % O $ @ $ O $ @ $ @ @ $ < 0.y.e.e.e.e.e.e.q.7 . F Z.Z.Z.Z.Z.Z.Z.Z.Z.Z.Z.Z.Z.Z.Z.Z.Z.Z.",
"Z.Z.Z.Z.Z.Z.Z.&.. ; 8.e.e.e.e.e.e.e.u.N O 6 t r r r r r r r r t - @ =.y.w.e.e.e.e.e.y.;.% O >.Z.C.Z.Z.Z.Z.Z.Z.Z.Z.Z.Z.Z.Z.Z.Z.Z.",
"Z.Z.Z.Z.Z.Z.x.* @ ! y.e.e.e.e.e.e.t.;.& $ h.Z.C.C.Z.Z.C.V.Z.V.Z.... p e.e.e.e.e.e.e.w.u.P @ * l.Z.Z.Z.Z.Z.Z.Z.Z.Z.Z.Z.Z.Z.Z.Z.Z.",
"Z.Z.Z.Z.Z.Z.d X x y.e.e.e.e.e.e.e.e.e . F Z.Z.Z.Z.Z.Z.Z.Z.Z.Z.Z.m.2 O V u.e.e.e.e.e.e.e.y.N O r B.Z.Z.Z.Z.Z.Z.Z.Z.Z.Z.Z.Z.Z.Z.Z.",
"Z.Z.Z.Z.Z.%.o 2 0.r.e.e.e.e.e.e.u.J X q M.Z.Z.Z.Z.Z.Z.Z.Z.Z.Z.Z.Z.a.$ @ ] u.w.e.e.e.e.e.e.q.7 . ..Z.Z.Z.Z.Z.Z.Z.Z.Z.Z.Z.Z.Z.Z.Z.",
"Z.Z.Z.Z.m.; @ [ u.w.e.e.e.e.w.t.-.% @ 6.Z.C.Z.Z.Z.Z.Z.Z.Z.Z.Z.Z.Z.Z.$.o - 8.y.e.e.e.e.e.e.u.=.$ - b.Z.Z.Z.Z.Z.Z.Z.Z.Z.Z.Z.Z.Z.Z.",
"Z.Z.Z.Z.3.X u t.e.e.e.e.r.e.e.e.7 . H Z.Z.Z.Z.Z.Z.Z.Z.Z.Z.Z.Z.Z.Z.Z.Z.c . i e.e.e.e.e.e.e.e.y.u O 6.Z.C.Z.Z.Z.Z.Z.Z.Z.Z.Z.Z.Z.Z.",
"Z.Z.C.Z.*.. B y.e.e.e.e.e.e.u.V O r B.Z.Z.Z.Z.Z.Z.Z.Z.Z.Z.Z.Z.Z.Z.Z.Z.b.2 O V u.e.e.e.e.e.w.y.s . 2.Z.Z.Z.Z.Z.Z.Z.Z.Z.Z.Z.Z.Z.Z.",
"Z.Z.Z.Z.>.. M y.e.e.e.e.w.y.} $ $ d.Z.Z.Z.Z.Z.Z.Z.Z.Z.Z.Z.Z.Z.Z.Z.Z.Z.Z.d.$ @ ] u.w.e.e.e.e.e.q O d.Z.Z.Z.Z.Z.Z.Z.Z.Z.Z.Z.Z.Z.Z.",
"Z.Z.Z.Z.g.@ - 9.t.q.w.w.r.w.6 . O.Z.Z.Z.Z.Z.Z.Z.Z.Z.Z.Z.Z.Z.Z.Z.Z.Z.Z.Z.Z.$.O - 7.u.e.e.e.u.! O 2 B.Z.Z.Z.Z.Z.Z.Z.Z.Z.Z.Z.Z.Z.Z.",
"Z.Z.Z.Z.Z.c . s q.u.y.u.e.x O t C.Z.Z.Z.Z.Z.Z.Z.Z.Z.Z.Z.Z.Z.Z.Z.Z.Z.Z.Z.Z.Z.b . 7 -.e.t.e.Q * . &.Z.Z.Z.Z.Z.Z.Z.Z.Z.Z.Z.Z.Z.Z.Z.",
"Z.Z.Z.Z.Z.x.- X 2 J ~ K 7 O * l.Z.Z.Z.Z.Z.Z.Z.Z.Z.Z.Z.Z.Z.Z.Z.Z.Z.Z.Z.Z.Z.Z.M.t . $ e s 6 @ . H Z.Z.Z.Z.Z.Z.Z.Z.Z.Z.Z.Z.Z.Z.Z.Z.",
"Z.Z.Z.Z.Z.Z.z.y O . . . X w g.Z.Z.Z.Z.Z.Z.Z.Z.Z.Z.Z.Z.Z.Z.Z.Z.Z.Z.Z.Z.Z.Z.Z.Z.M.H - O O O q :.Z.Z.Z.Z.Z.Z.Z.Z.Z.Z.Z.Z.Z.Z.Z.Z.Z.",
"Z.Z.Z.Z.Z.Z.Z.C.4.H A H 1.V.Z.Z.Z.Z.Z.Z.Z.Z.Z.Z.Z.Z.Z.Z.Z.Z.Z.Z.Z.Z.Z.Z.Z.Z.Z.Z.Z.m.d.3.d.V.Z.Z.Z.Z.Z.Z.Z.Z.Z.Z.Z.Z.Z.Z.Z.Z.Z.Z.",
"Z.Z.Z.Z.Z.Z.Z.Z.Z.Z.Z.Z.Z.Z.Z.Z.Z.Z.Z.Z.Z.Z.Z.Z.Z.Z.Z.Z.Z.Z.Z.Z.Z.Z.Z.Z.Z.Z.Z.Z.Z.Z.Z.Z.Z.Z.Z.Z.Z.Z.Z.Z.Z.Z.Z.Z.Z.Z.Z.Z.Z.Z.Z.Z.",
"Z.Z.Z.Z.Z.Z.Z.Z.Z.Z.Z.C.Z.Z.Z.Z.Z.Z.Z.Z.Z.Z.Z.Z.Z.Z.Z.Z.Z.Z.Z.Z.Z.Z.Z.Z.Z.Z.Z.Z.Z.Z.Z.Z.Z.Z.Z.Z.Z.Z.Z.Z.Z.Z.Z.Z.Z.Z.Z.Z.Z.Z.Z.Z.",
"Z.Z.Z.Z.Z.Z.Z.Z.Z.Z.Z.Z.Z.Z.Z.Z.Z.Z.Z.Z.Z.Z.Z.Z.Z.Z.Z.Z.Z.Z.Z.Z.Z.Z.Z.Z.Z.Z.Z.Z.Z.Z.Z.Z.Z.Z.Z.Z.Z.Z.Z.Z.Z.Z.Z.Z.Z.Z.Z.Z.Z.Z.Z.Z.",
"Z.Z.Z.Z.Z.Z.Z.Z.Z.Z.Z.Z.Z.Z.Z.Z.Z.Z.Z.Z.Z.Z.Z.Z.Z.Z.Z.Z.Z.Z.Z.Z.Z.Z.Z.Z.Z.Z.Z.Z.Z.Z.Z.Z.Z.Z.Z.Z.Z.Z.Z.Z.Z.Z.Z.Z.Z.Z.Z.Z.Z.Z.Z.Z.",
"Z.Z.Z.Z.Z.Z.Z.Z.Z.Z.Z.Z.Z.Z.Z.Z.Z.Z.Z.Z.Z.Z.Z.Z.Z.Z.Z.Z.Z.Z.Z.Z.Z.Z.Z.Z.Z.Z.Z.Z.Z.Z.Z.Z.Z.Z.Z.Z.Z.Z.Z.Z.Z.Z.Z.Z.Z.Z.Z.Z.Z.Z.Z.Z.",
"Z.Z.Z.Z.Z.Z.Z.Z.Z.Z.Z.Z.Z.Z.Z.Z.Z.Z.Z.Z.Z.Z.Z.Z.Z.Z.Z.Z.Z.Z.Z.Z.Z.Z.Z.Z.Z.Z.Z.Z.Z.Z.Z.Z.Z.Z.Z.Z.Z.Z.Z.Z.Z.Z.Z.Z.Z.Z.Z.Z.Z.Z.Z.Z.",
"Z.Z.Z.Z.Z.Z.Z.Z.Z.Z.Z.Z.Z.Z.Z.Z.Z.Z.Z.Z.Z.Z.Z.Z.Z.Z.Z.Z.Z.Z.Z.Z.Z.Z.Z.Z.Z.Z.Z.Z.Z.Z.Z.Z.Z.Z.Z.Z.Z.Z.Z.Z.Z.Z.Z.Z.Z.Z.Z.Z.Z.Z.Z.Z.",
"Z.Z.Z.Z.Z.Z.Z.Z.Z.Z.Z.Z.Z.Z.Z.Z.Z.Z.Z.Z.Z.Z.Z.Z.Z.Z.Z.Z.Z.Z.Z.Z.Z.Z.Z.Z.Z.Z.Z.Z.Z.Z.Z.Z.Z.Z.Z.Z.Z.Z.Z.Z.Z.Z.Z.Z.Z.Z.Z.Z.Z.Z.Z.Z.",
"Z.Z.Z.Z.Z.Z.Z.Z.Z.Z.Z.Z.Z.Z.Z.Z.Z.Z.Z.Z.Z.Z.Z.Z.Z.Z.Z.Z.Z.Z.Z.Z.Z.Z.Z.Z.Z.Z.Z.Z.Z.Z.Z.Z.Z.Z.Z.Z.Z.Z.Z.Z.Z.Z.Z.Z.Z.Z.Z.Z.Z.Z.Z.Z.",
"Z.Z.Z.Z.Z.Z.Z.Z.Z.Z.Z.Z.Z.Z.Z.Z.Z.Z.Z.Z.Z.Z.Z.Z.Z.Z.Z.Z.Z.Z.Z.Z.Z.Z.Z.Z.Z.Z.Z.Z.Z.Z.Z.Z.Z.Z.Z.Z.Z.Z.Z.Z.Z.Z.Z.Z.Z.Z.Z.Z.Z.Z.Z.Z.",
"Z.Z.Z.Z.Z.Z.Z.Z.Z.Z.Z.Z.Z.Z.Z.Z.Z.Z.Z.Z.Z.Z.Z.Z.Z.Z.Z.Z.Z.Z.Z.Z.Z.Z.Z.Z.Z.Z.Z.Z.Z.Z.Z.Z.Z.Z.Z.Z.Z.Z.Z.Z.Z.Z.Z.Z.Z.Z.Z.Z.Z.Z.Z.Z."
};
