/* XPM */
static char *player__4_1710156990[] = {
/* columns rows colors chars-per-pixel */
"64 64 153 2 ",
"   c #000E64",
".  c #001563",
"X  c #001B66",
"o  c #001769",
"O  c #001C6A",
"+  c #002166",
"@  c #00236D",
"#  c #01286F",
"$  c #012571",
"%  c #052A74",
"&  c #092C76",
"*  c #0C2E7A",
"=  c #0E307B",
"-  c #13337D",
";  c #19367E",
":  c #16387E",
">  c #1B387F",
",  c #0D2E80",
"<  c #153482",
"1  c #1B3683",
"2  c #1D3984",
"3  c #153388",
"4  c #19378D",
"5  c #1D3A8F",
"6  c #1A3691",
"7  c #1D3893",
"8  c #203D82",
"9  c #233C89",
"0  c #283F8D",
"q  c #203A96",
"w  c #243C9C",
"e  c #293FA4",
"r  c #234285",
"t  c #284587",
"y  c #2A458A",
"u  c #2E4A8A",
"i  c #334E8E",
"p  c #36528F",
"a  c #38518F",
"s  c #2D4391",
"d  c #324593",
"f  c #364996",
"g  c #394997",
"h  c #3D4B9A",
"j  c #365292",
"k  c #3B5592",
"l  c #3F5894",
"z  c #2B41A4",
"x  c #3145AD",
"c  c #3547B1",
"v  c #3648B2",
"b  c #3849B5",
"n  c #3C4BBB",
"m  c #424F9E",
"M  c #425B96",
"N  c #43519E",
"B  c #465F98",
"V  c #466098",
"C  c #4C639B",
"Z  c #52699E",
"A  c #4551A1",
"S  c #4C56A5",
"D  c #555AAB",
"F  c #595DAE",
"G  c #566DA1",
"H  c #5D72A5",
"J  c #5E60B2",
"K  c #6176A7",
"L  c #6377A8",
"P  c #667AAA",
"I  c #6A7DAC",
"U  c #6364B6",
"Y  c #6767B8",
"T  c #6867B9",
"R  c #6C69BC",
"E  c #726DBF",
"W  c #424EC5",
"Q  c #4B53CF",
"!  c #4E55D4",
"~  c #5156D8",
"^  c #766EC3",
"/  c #7B72C6",
"(  c #7F74C9",
")  c #575AE0",
"_  c #5A5CE4",
"`  c #5E5EEA",
"'  c #6160EE",
"]  c #6663F5",
"[  c #6864F7",
"{  c #6C66FC",
"}  c #6F68FF",
"|  c #736AFF",
" . c #8277CB",
".. c #877ACF",
"X. c #887BCF",
"o. c #8A7CD1",
"O. c #6B81AF",
"+. c #7282AE",
"@. c #6E83B0",
"#. c #7385B1",
"$. c #7488B3",
"%. c #7A8CB5",
"&. c #7B8EB8",
"*. c #7F91B9",
"=. c #8394BB",
"-. c #8897BC",
";. c #8698BE",
":. c #8A9ABE",
">. c #8D9CC0",
",. c #9280D6",
"<. c #9683DA",
"1. c #9985DC",
"2. c #94A3C4",
"3. c #98A6C6",
"4. c #9AA8C7",
"5. c #9DAAC9",
"6. c #A1AECB",
"7. c #A5B1CD",
"8. c #ABB6D0",
"9. c #AEB9D2",
"0. c #B3BDD4",
"q. c #9F88E0",
"w. c #A48BE3",
"e. c #AB8FE8",
"r. c #AD91E9",
"t. c #B294ED",
"y. c #B797F1",
"u. c #B897F1",
"i. c #BB9AF3",
"p. c #C09DF7",
"a. c #C39EF9",
"s. c #C6A0FB",
"d. c #CAA2FD",
"f. c #D0A6FF",
"g. c #D2A8FF",
"h. c #B7C0D7",
"j. c #BCC5DA",
"k. c #BFC8DB",
"l. c #C3CBDE",
"z. c #C7CFE0",
"x. c #CCD3E3",
"c. c #D0D6E5",
"v. c #D3D9E7",
"b. c #D6DCE9",
"n. c #D8DEE9",
"m. c #DDE1EC",
"M. c #E2E6EF",
"N. c #E6EAF1",
"B. c #EAEDF3",
"V. c #F0F2F7",
"C. c #F5F6F9",
"Z. c #F7F9FB",
"A. c #FFFFFF",
/* pixels */
"A.A.A.A.A.A.A.A.A.A.A.A.A.A.A.A.A.A.A.A.A.A.A.A.A.A.A.A.A.A.A.A.A.A.A.A.A.A.A.A.A.A.A.A.A.A.A.A.A.A.A.A.A.A.A.A.A.A.A.A.A.A.A.A.",
"A.A.A.A.A.A.A.A.A.A.A.A.A.A.A.A.A.A.A.A.A.A.A.A.A.A.A.A.A.A.A.A.A.A.A.A.A.A.A.A.A.A.A.A.A.A.A.A.A.A.A.A.A.A.A.A.A.A.A.A.A.A.A.A.",
"A.A.A.A.A.A.A.A.A.A.A.A.A.A.A.A.A.A.A.A.A.A.A.A.A.A.A.A.A.A.A.A.A.A.A.A.A.A.A.A.A.A.A.A.A.A.A.A.A.A.A.A.A.A.A.A.A.A.A.A.A.A.A.A.",
"A.A.A.A.A.A.A.A.A.A.A.A.A.A.A.A.A.A.A.A.A.A.A.A.A.A.A.A.A.A.A.A.A.A.A.A.A.A.A.A.A.A.A.A.A.A.A.A.A.A.A.A.A.A.A.A.A.A.A.A.A.A.A.A.",
"A.A.A.A.A.A.A.A.A.A.A.A.A.A.A.A.A.A.A.A.A.A.A.A.A.A.A.A.A.A.A.A.A.A.A.A.A.Z.A.A.A.A.A.A.A.A.A.A.A.A.A.A.A.A.A.A.A.A.A.A.A.A.A.A.",
"A.A.A.A.A.A.A.A.A.A.A.A.A.A.A.A.A.A.A.A.A.A.A.A.A.A.A.A.A.A.A.A.A.Z.A.A.A.A.A.A.A.A.A.A.A.A.A.A.A.A.A.A.A.A.A.A.A.A.A.A.A.A.A.A.",
"A.A.A.A.A.A.A.A.A.A.A.A.A.A.A.A.A.A.A.A.A.A.A.A.A.A.A.A.A.A.A.A.A.A.C.0.:.=.5.M.A.A.A.A.A.A.A.A.A.A.A.A.A.A.A.A.A.A.A.A.A.A.A.A.",
"A.A.A.A.A.A.A.A.A.A.A.A.A.A.A.A.A.A.A.A.A.A.A.A.A.A.A.A.A.A.A.A.A.k.u O . . . - =.A.A.A.A.A.A.A.A.A.A.A.A.A.A.A.A.A.A.A.A.A.A.A.",
"A.A.A.A.A.A.A.A.A.A.A.A.A.A.A.A.A.A.A.A.A.A.A.A.A.A.A.A.A.A.A.A.0.$ O 9 F J f @ . I A.A.A.A.A.A.A.A.A.A.A.A.A.A.A.A.A.A.A.A.A.A.",
"A.A.A.A.A.A.A.A.A.A.A.A.A.A.A.A.A.A.A.A.A.A.A.A.A.A.A.A.A.A.A.B.2 O S i.d.d.s./ & O $.A.A.A.A.A.A.A.A.A.A.A.A.A.A.A.A.A.A.A.A.A.",
"A.A.A.A.A.A.A.A.A.A.A.A.A.A.A.A.A.A.A.A.A.A.A.A.A.A.A.A.A.Z.A.2.o y p.p.u.i.i.d. .$ O -.A.Z.A.A.A.A.A.A.A.A.A.A.A.A.A.A.A.A.A.A.",
"A.A.A.A.A.A.A.A.A.A.A.A.A.A.A.A.A.A.A.A.A.A.A.A.A.A.A.A.A.A.A.H . E d.u.i.i.i.i.d.^ $ O 3.A.A.A.A.A.A.A.A.A.A.A.A.A.A.A.A.A.A.A.",
"A.A.A.A.A.A.A.A.A.A.A.A.A.A.A.A.A.A.A.A.A.A.A.A.A.A.A.A.A.A.A.Z .  .d.u.i.i.i.i.u.d.T @ $ 0.A.Z.A.A.A.A.A.A.A.A.A.A.A.A.A.A.A.A.",
"A.A.A.A.A.A.A.A.A.A.A.A.A.A.A.A.A.A.A.A.A.A.A.A.A.A.A.A.A.Z.A.I . Y d.u.i.i.i.i.i.i.s.J O 1 B.A.A.A.A.Z.A.A.A.A.A.A.A.A.A.A.A.A.",
"A.A.A.A.A.A.A.A.A.A.A.A.A.A.A.A.A.A.A.A.A.A.A.A.A.A.A.A.A.A.A.8.O 1 r.a.i.i.i.p.i.i.u.a.f . 2.A.A.A.A.A.A.A.Z.A.A.A.A.A.A.A.A.A.",
"A.A.A.A.A.A.A.A.A.A.A.A.A.A.A.A.A.A.A.A.A.A.A.A.A.A.A.A.A.A.A.Z.k . f i.i.i.i.i.i.i.i.g.R O M h.0.j.k.l.b.A.A.A.A.A.A.A.A.A.A.A.",
"A.A.A.A.A.A.A.A.A.m.0.A.A.A.A.A.A.A.A.A.A.A.A.A.A.A.A.A.A.A.A.A.m.> X m a.i.u.i.p.a.w.g & # @ O O O @ @ % d 6.A.A.A.A.A.A.A.A.A.",
"A.A.A.A.A.A.A.A.A.Z   j.A.A.A.A.A.A.A.A.A.A.A.A.A.A.A.A.A.A.A.A.A.x.= O S d.d.u.t.o.& @ & 6 q q 7 7 6 6 , $ o #.A.A.A.A.A.A.A.A.",
"A.A.A.A.A.A.A.Z.A.&.  G A.Z.A.A.A.A.A.A.A.A.A.A.A.A.A.A.A.A.A.A.Z.A.k.$ @ D J 2 - % @ w ` [ { { { { { [ ] S & X >.A.A.A.A.A.A.A.",
"A.A.A.A.A.A.A.A.A.b.& * m.A.A.A.A.A.A.A.A.A.A.A.A.A.A.A.A.A.A.A.A.Z.A.0.& @ O @ & $ 7 { { ] ] [ ] [ [ [ [ | W @ 1 B.A.A.A.A.A.A.",
"A.A.A.A.A.A.A.A.A.A.Z . =.N.n.Z.A.A.A.A.A.A.A.A.A.A.A.A.A.A.A.A.A.A.A.x.* $ h <.s @ Q { ] ] [ [ [ [ [ [ [ ] [ 4 O 0.A.A.A.A.A.A.",
"A.A.A.A.A.A.A.A.Z.A.3.O = % & u :.C.A.A.A.A.A.A.A.A.A.A.A.A.A.A.A.A.A.B . S d.a.9 @ ) { ] [ [ [ [ [ [ [ [ [ } z . 4.A.Z.A.A.A.A.",
"A.A.A.A.A.A.A.A.A.0.- @ $ - - O . p N.A.A.A.A.A.A.A.A.A.A.A.A.A.A.A.l.$ * r.p.i.y + ! { ] [ [ [ [ [ [ [ [ ] { w X 7.A.A.A.A.A.A.",
"A.A.A.A.A.A.A.A.b.* O h 1.t.t. .2 . B A.A.A.A.A.A.A.A.A.A.A.A.A.Z.A.P . D s.y.d.D X e | [ ] ] ] ] ] ] ] ] } _ % % v.A.A.A.A.A.A.",
"A.A.A.A.A.A.A.A.H . A s.a.p.p.d.w.: O 0.A.Z.A.A.A.A.A.A.A.A.A.A.A.M.- @ 1.s.y.s.w.& $ c [ } | } | } } | | ` 6 . Z A.Z.A.A.A.A.A.",
"A.A.A.A.A.A.A.N.: $ q.a.u.i.u.u.d.T . C A.A.A.A.A.A.A.A.A.A.A.Z.A.-.. h s.u.u.y.a./ @ @ 3 x b b n n n n x - X r N.A.A.A.A.A.A.A.",
"A.A.A.A.A.A.A.x.$ 2 u.i.i.i.i.i.p.e.* % b.A.A.A.A.A.A.A.A.A.A.A.C.y O  .d.i.i.i.u.a...2 $ @ . . . . . . . O B M.A.A.A.A.A.A.A.A.",
"A.A.A.A.A.A.A.n.% < y.i.i.p.i.i.u.a.A . %.A.Z.A.A.A.A.A.A.A.A.A.8.O 9 u.i.i.i.i.i.u.f.T X j :.&.%.$.@.@.*.j.A.A.A.A.A.A.A.A.A.A.",
"A.A.A.A.A.A.A.Z.u O X.s.u.i.i.i.u.a.o.O r V.A.A.A.A.A.A.A.A.A.A.V . R d.u.i.i.i.i.i.u.2 O 0.A.A.A.A.A.A.A.A.A.A.A.A.A.A.A.A.A.A.",
"A.A.A.A.A.A.Z.A.=.. m a.i.i.i.p.i.p.i.0 O 7.A.Z.Z.A.Z.A.A.Z.A.z.$ = r.a.i.i.i.i.i.a. .O u Z.Z.A.Z.A.A.Z.Z.A.A.A.A.A.A.A.A.A.A.A.",
"A.A.A.A.A.A.A.A.b.& % w.a.i.i.i.i.i.d.E . C A.A.A.A.A.A.A.A.A.#.. D d.u.i.i.i.p.i.a.f . :.A.Z.A.A.A.A.A.A.A.A.A.A.A.A.A.A.A.A.A.",
"A.A.A.A.A.A.A.A.A.G . U d.u.i.i.i.i.p.w.* * %.=.=.*.=.*.*.*.=.r @ X.d.i.i.i.i.i.a.<.@ : N.A.A.A.A.A.A.A.A.A.A.A.A.A.A.A.A.A.A.A.",
"A.A.A.A.A.A.A.A.A.0.O 9 u.i.i.i.i.i.i.y.< $ . . . . . . . . . # % 1.a.i.i.i.i.i.d.S . I A.A.A.A.A.A.A.A.A.A.A.A.A.A.A.A.A.A.A.A.",
"A.A.A.A.A.A.A.A.A.Z.u O  .d.u.i.i.i.a.w.% * c v v c c c v v b 3 O ( d.u.i.i.i.p.r.* $ x.A.A.A.A.A.A.A.A.A.A.A.A.A.A.A.A.A.A.A.A.",
"A.A.A.A.A.A.A.A.A.A.:.. d a.a.u.u.i.d.F + s | } | { } | | { | n + y p.a.i.i.i.d.D . B A.Z.A.A.A.A.A.A.A.A.A.A.A.A.A.A.A.A.A.A.A.",
"A.A.A.A.A.A.A.A.A.A.B.2 O m e.a.s.i.U $ $ ~ [ ] ] ] ] ] ] ] [ ' = @ h e.a.a.u.J $ O k.A.A.A.A.A.A.A.A.A.A.A.A.A.A.A.A.A.A.A.A.A.",
"A.A.A.A.A.A.A.A.A.Z.A.l.; @ - h A 2 @ $ n } ] [ ] [ [ [ [ [ ] { ! * $ * g m ; @ % -.A.A.A.A.A.A.A.A.A.A.A.A.A.A.A.A.A.A.A.A.A.A.",
"A.A.A.A.A.A.A.A.A.A.Z.A.4.$ $ O O @ % z | [ [ [ [ [ [ [ [ [ [ ] } W % $ O X $ $ G A.A.A.A.A.A.A.A.A.A.A.A.A.A.A.A.A.A.A.A.A.A.A.",
"A.A.A.A.A.A.A.A.A.A.A.0.* @ < m A 2 $ $ b } ] [ [ [ [ [ [ [ [ | ~ * @ - m S 9 $ $ %.A.Z.A.A.A.A.A.A.A.A.A.A.A.A.A.A.A.A.A.A.A.A.",
"A.A.A.A.A.A.A.A.A.A.N.- O S t.s.s.i.Y $ # ~ { ] ] ] ] ] ] ] [ ' < O m r.a.a.p.R $ o 0.A.A.A.A.A.A.A.A.A.A.A.A.A.A.A.A.A.A.A.A.A.",
"A.A.A.A.A.A.A.A.A.A.=.. f s.a.u.u.i.g.F + w | } | { | } } } | W + y i.a.i.u.i.f.U . M A.A.A.A.A.A.A.A.A.A.A.A.A.A.A.A.A.A.A.A.A.",
"A.A.A.A.A.A.A.A.A.C.r O o.s.i.i.i.u.i.w.% * v b b b v b b v b 3 O ^ d.i.i.i.i.i.t.- $ z.A.A.A.A.A.A.A.A.A.A.A.A.A.A.A.A.A.A.A.A.",
"A.A.A.A.A.A.A.A.A.9.O 9 i.i.i.i.i.i.i.t.- # . . . . . . . . . # % o.a.i.i.p.i.i.a.F . I A.A.A.A.A.A.A.A.A.A.A.A.A.A.A.A.A.A.A.A.",
"A.A.A.A.A.A.A.A.A.Z . T d.u.i.i.i.i.s.w.% - *.;.;.=.=.;.-.=.>.p O ^ a.i.i.i.i.i.a.o.$ ; N.A.A.A.A.A.A.A.A.A.A.A.A.A.A.A.A.A.A.A.",
"A.A.A.A.A.A.A.A.b.& & w.a.i.p.i.i.u.d.T . G A.A.A.A.A.A.A.A.A.3.. g p.u.i.i.i.i.p.a.d . 3.A.A.A.A.A.A.A.A.A.A.A.A.A.A.A.A.A.A.A.",
"A.A.A.A.A.A.Z.A.=.. m a.u.i.i.i.i.i.i.9 O 9.A.C.Z.A.A.Z.A.Z.A.M.- $ w.a.i.i.i.i.i.a./ . k A.A.A.A.A.A.A.A.A.A.A.A.A.A.A.A.A.A.A.",
"A.A.A.A.A.A.A.C.t O o.d.i.i.i.i.i.s.o.O t C.A.A.A.A.A.A.A.A.Z.A.K . F a.i.i.i.i.p.p.t.- $ l.A.Z.A.A.A.A.A.A.A.A.A.A.A.A.A.A.A.A.",
"A.A.A.A.A.A.A.9.O 9 i.i.i.i.i.i.u.s.m . =.A.Z.A.A.A.A.A.A.A.A.A.l.O < t.i.i.i.p.i.u.a.F . P A.A.A.A.A.A.A.A.A.A.A.A.A.A.A.A.A.A.",
"A.A.A.A.A.A.A.Z . Y d.u.i.p.i.i.p.w.* & v.A.A.A.A.A.A.A.A.A.A.A.A.k X / d.i.i.i.i.i.a.1.$ : N.A.A.A.A.A.A.A.A.A.A.A.A.A.A.A.A.A.",
"A.A.A.A.A.A.m.* & w.p.i.i.i.i.u.d.T . Z A.A.A.A.A.A.A.A.A.A.A.A.A.2.. f a.i.i.i.i.i.i.p.d . 6.A.A.A.A.A.A.A.A.A.A.A.A.A.A.A.A.A.",
"A.A.A.A.Z.A.h.O y p.i.i.i.i.i.i.i.9 O 8.A.A.A.A.A.A.A.A.A.A.A.A.A.N.: @ 1.s.u.i.i.i.u.d.U . $.A.Z.A.A.A.A.A.A.A.A.A.A.A.A.A.A.A.",
"A.A.A.A.A.A.h.O d p.i.i.i.p.i.a.o.O t C.A.A.A.A.A.A.A.A.A.A.A.A.A.A.P . F s.u.i.i.i.u.s.U . $.A.A.A.A.A.A.A.A.A.A.A.A.A.A.A.A.A.",
"A.A.A.A.A.A.m.* % e.a.i.i.i.u.d.m . =.A.A.A.A.A.A.A.A.A.A.A.A.A.Z.A.l.@ - t.a.y.i.i.i.a.d . 5.A.A.A.A.A.A.A.A.A.A.A.A.A.A.A.A.A.",
"A.A.A.A.A.A.A.C . m p.a.a.a.d.( $ * n.A.A.A.A.A.A.A.A.A.A.A.A.A.A.A.A.M O S s.d.a.a.f.R @ : B.A.A.A.A.A.A.A.A.A.A.A.A.A.A.A.A.A.",
"A.A.A.A.A.A.A.v.* O d  .w.1.F & . -.A.Z.A.A.A.A.A.A.A.A.A.A.A.A.A.Z.A.l.$ O h  .w.,.S $ o 3.A.A.A.A.A.A.A.A.A.A.A.A.A.A.A.A.A.A.",
"A.A.A.A.A.A.Z.A.j.; . O $ @ . O $.A.A.A.A.A.A.A.A.A.A.A.A.A.A.A.A.A.A.A.0.- . O $ O . $ =.A.A.A.A.A.A.A.A.A.A.A.A.A.A.A.A.A.A.A.",
"A.A.A.A.A.A.A.A.A.N.*.k r u K l.A.A.A.A.A.A.A.A.A.A.A.A.A.A.A.A.A.A.A.A.A.M.&.a r i I x.A.A.A.A.A.A.A.A.A.A.A.A.A.A.A.A.A.A.A.A.",
"A.A.A.A.A.A.A.A.A.A.A.A.C.Z.A.A.A.A.A.A.A.A.A.A.A.A.A.A.A.A.A.A.A.A.A.A.Z.A.A.A.C.A.A.A.Z.A.A.A.A.A.A.A.A.A.A.A.A.A.A.A.A.A.A.A.",
"A.A.A.A.A.A.A.A.A.A.Z.A.A.A.A.Z.A.A.A.A.A.A.A.A.A.A.A.A.A.A.A.A.A.A.A.A.A.A.Z.A.A.A.Z.A.A.A.A.A.A.A.A.A.A.A.A.A.A.A.A.A.A.A.A.A.",
"A.A.A.A.A.A.A.A.A.A.A.A.A.A.A.A.A.A.A.A.A.A.A.A.A.A.A.A.A.A.A.A.A.A.A.A.A.A.A.A.A.A.A.A.A.A.A.A.A.A.A.A.A.A.A.A.A.A.A.A.A.A.A.A.",
"A.A.A.A.A.A.A.A.A.A.A.A.A.A.A.A.A.A.A.A.A.A.A.A.A.A.A.A.A.A.A.A.A.A.A.A.A.A.A.A.A.A.A.A.A.A.A.A.A.A.A.A.A.A.A.A.A.A.A.A.A.A.A.A.",
"A.A.A.A.A.A.A.A.A.A.A.A.A.A.A.A.A.A.A.A.A.A.A.A.A.A.A.A.A.A.A.A.A.A.A.A.A.A.A.A.A.A.A.A.A.A.A.A.A.A.A.A.A.A.A.A.A.A.A.A.A.A.A.A.",
"A.A.A.A.A.A.A.A.A.A.A.A.A.A.A.A.A.A.A.A.A.A.A.A.A.A.A.A.A.A.A.A.A.A.A.A.A.A.A.A.A.A.A.A.A.A.A.A.A.A.A.A.A.A.A.A.A.A.A.A.A.A.A.A.",
"A.A.A.A.A.A.A.A.A.A.A.A.A.A.A.A.A.A.A.A.A.A.A.A.A.A.A.A.A.A.A.A.A.A.A.A.A.A.A.A.A.A.A.A.A.A.A.A.A.A.A.A.A.A.A.A.A.A.A.A.A.A.A.A."
};
