/* XPM */
static char *player__12_1710156991[] = {
/* columns rows colors chars-per-pixel */
"64 64 154 2 ",
"   c #000A60",
".  c #001564",
"X  c #001A65",
"o  c #001768",
"O  c #001C6A",
"+  c #002066",
"@  c #00236D",
"#  c #012571",
"$  c #052A74",
"%  c #0A2D76",
"&  c #062979",
"*  c #0C2E7A",
"=  c #102F79",
"-  c #0F317B",
";  c #14337C",
":  c #18357D",
">  c #1A397F",
",  c #0E2F80",
"<  c #0E3080",
"1  c #143482",
"2  c #1A3682",
"3  c #1D3A83",
"4  c #19378C",
"5  c #1B3791",
"6  c #1D3992",
"7  c #213C85",
"8  c #243D8A",
"9  c #2B3F8D",
"0  c #203B96",
"q  c #243D9B",
"w  c #273FA0",
"e  c #293FA3",
"r  c #234184",
"t  c #284587",
"y  c #2A428C",
"u  c #2E4A8A",
"i  c #314C8C",
"p  c #36518F",
"a  c #2F4491",
"s  c #334694",
"d  c #364996",
"f  c #3C4B9A",
"g  c #355190",
"h  c #3A5592",
"j  c #3E5894",
"k  c #2C41A5",
"l  c #2F43AA",
"z  c #3245AE",
"x  c #3747B5",
"c  c #3949B7",
"v  c #3B4ABA",
"b  c #434F9F",
"n  c #415B96",
"m  c #43519F",
"M  c #465F98",
"N  c #466099",
"B  c #4D649B",
"V  c #4551A0",
"C  c #4B55A4",
"Z  c #4F56A8",
"A  c #535AAA",
"S  c #595EAE",
"D  c #5C5FB1",
"F  c #566CA1",
"G  c #596EA2",
"H  c #5D73A5",
"J  c #5D60B2",
"K  c #6275A7",
"L  c #6176A8",
"P  c #6579A9",
"I  c #6B7EAC",
"U  c #6363B5",
"Y  c #6667B8",
"T  c #6967BB",
"R  c #6D6ABD",
"E  c #404DC0",
"W  c #454FC8",
"Q  c #4752C9",
"!  c #4A53CD",
"~  c #4D54D3",
"^  c #5257DA",
"/  c #5559DD",
"(  c #726DC1",
")  c #7A72C6",
"_  c #7F75C9",
"`  c #5B5DE5",
"'  c #5E5EEB",
"]  c #605FEC",
"[  c #6060ED",
"{  c #6663F5",
"}  c #6864F7",
"|  c #6C66FC",
" . c #6F68FF",
".. c #736AFF",
"X. c #8377CC",
"o. c #8679CE",
"O. c #8C7DD3",
"+. c #907FD4",
"@. c #6C80AD",
"#. c #7081AE",
"$. c #6F83B0",
"%. c #7284B0",
"&. c #7689B3",
"*. c #798AB4",
"=. c #7F91B9",
"-. c #8392B9",
";. c #8A9ABE",
":. c #8E9DC1",
">. c #9281D7",
",. c #9582D9",
"<. c #9A85DC",
"1. c #9F88DF",
"2. c #94A2C4",
"3. c #98A7C6",
"4. c #9AA8C7",
"5. c #A1AFCB",
"6. c #A5B1CD",
"7. c #ABB6D1",
"8. c #AEB9D2",
"9. c #B3BED5",
"0. c #9F88E0",
"q. c #A48BE3",
"w. c #A98EE6",
"e. c #AA8FE8",
"r. c #AD91EA",
"t. c #B394EE",
"y. c #B797F0",
"u. c #B897F1",
"i. c #BB9AF3",
"p. c #C09DF7",
"a. c #C39EF9",
"s. c #C6A0FB",
"d. c #CAA3FE",
"f. c #D0A6FF",
"g. c #D7AAFF",
"h. c #B6C0D6",
"j. c #BDC6DA",
"k. c #C3CBDE",
"l. c #C6CFE0",
"z. c #C8CFE0",
"x. c #CCD3E2",
"c. c #D1D7E5",
"v. c #D2D8E6",
"b. c #D6DBE8",
"n. c #DADEEA",
"m. c #DDE2EC",
"M. c #E1E5EE",
"N. c #E4E7F0",
"B. c #E6EAF1",
"V. c #EBEEF4",
"C. c #F0F2F7",
"Z. c #F3F5F9",
"A. c #F7F8FB",
"S. c #FFFFFF",
/* pixels */
"S.S.S.S.S.S.S.S.S.S.S.S.S.S.S.S.S.S.S.S.S.S.S.S.S.S.S.S.S.S.S.S.S.S.S.S.S.S.S.S.S.S.S.S.S.S.S.S.S.S.S.S.S.S.S.S.S.S.S.S.S.S.S.S.",
"S.S.S.S.S.S.S.S.S.S.S.S.S.S.S.S.S.S.S.S.S.S.S.S.S.S.S.S.S.S.S.S.S.S.S.S.S.S.S.S.S.S.A.9.=.$.;.c.S.S.S.S.S.S.S.S.S.S.S.S.S.S.S.S.",
"S.S.S.S.S.S.S.S.S.S.S.S.S.S.S.S.S.S.S.S.S.S.S.S.S.S.S.S.S.S.S.S.S.S.S.S.S.S.S.S.S.k.i O . . . @ P Z.S.S.S.S.S.S.S.S.S.S.S.S.S.S.",
"S.S.S.S.S.S.S.S.S.S.S.S.S.S.S.S.S.S.S.S.S.S.S.S.S.S.S.S.S.S.S.S.S.S.S.S.S.S.S.S.c.* O 3 S R C % . j A.S.S.S.S.S.S.S.S.S.S.S.S.S.",
"S.S.S.S.S.S.S.S.S.S.S.S.S.S.S.S.S.S.S.S.S.S.S.S.S.S.S.S.S.S.S.S.S.S.S.S.S.S.S.S.p X m y.d.d.d.<.3 . -.S.S.S.S.S.S.S.S.S.S.S.S.S.",
"S.S.S.S.S.S.S.S.S.S.S.S.S.S.S.S.S.S.S.S.S.S.S.S.S.S.S.S.S.S.S.S.S.S.S.S.S.S.S.9.O 3 y.a.y.u.y.f.O.O r Z.S.S.S.S.S.S.S.S.S.S.S.S.",
"S.S.S.S.S.S.S.S.S.S.S.S.S.S.S.S.S.S.S.S.S.S.S.S.S.S.S.S.S.S.S.S.S.S.S.S.S.S.S.*.. S d.y.i.i.i.i.u.7 O j.S.A.S.S.S.S.S.S.S.S.S.S.",
"S.S.S.S.S.S.S.S.S.S.S.S.S.S.S.S.S.S.S.S.S.S.S.S.S.S.S.S.S.S.S.S.S.S.S.S.S.S.S.%.. Y d.i.i.i.i.i.d.Z . -.S.S.S.S.S.S.S.S.S.S.S.S.",
"S.S.S.S.S.S.S.S.S.S.S.S.S.S.S.S.S.S.S.S.S.S.S.S.S.S.S.S.S.S.S.S.S.S.S.S.S.S.S.:.. C s.u.i.i.i.i.d._ . n S.S.S.S.S.S.S.S.S.S.S.S.",
"S.S.S.S.S.S.S.S.S.S.S.S.S.S.S.S.S.S.S.S.S.S.S.S.S.S.S.S.S.S.S.S.S.S.S.S.S.S.S.k.O 3 u.i.i.i.i.i.a.w.$ ; M.S.S.S.S.S.S.S.S.S.S.S.",
"S.S.S.S.S.S.S.S.S.A.M.S.S.S.S.S.S.S.S.S.S.S.S.S.S.S.S.S.S.S.S.S.S.S.S.S.S.S.S.Z.r @ <.a.i.i.i.i.u.a.a X 8.S.A.S.S.S.S.S.S.S.S.S.",
"S.S.S.S.S.S.S.S.S.I @ x.S.S.S.S.S.S.S.S.S.S.S.S.S.S.S.S.S.S.S.S.S.S.S.S.S.S.S.S.H . R d.u.i.i.u.y.a.D . &.S.S.S.S.S.S.S.S.S.S.S.",
"S.S.S.S.S.S.S.S.S.I   P S.S.S.S.S.S.S.S.S.S.S.S.S.S.S.S.S.S.S.S.S.S.S.S.S.S.A.S.4.. f s.y.u.u.s.a.g._ . H S.S.S.S.S.S.S.S.S.S.S.",
"S.S.S.S.S.S.S.S.S.x.# : B.S.S.S.S.S.S.S.S.S.S.S.S.S.S.S.S.S.S.S.S.S.S.S.S.S.S.S.n.* - r.s.s.s.,.R T b . &.S.S.S.A.S.S.S.S.S.S.S.",
"S.S.S.S.S.S.S.S.S.S.n . 3.S.Z.S.S.S.S.S.S.S.S.S.S.S.S.S.S.S.S.S.S.S.S.S.S.S.S.S.m.3 # 3 y A f @ X X @ # u :.c.S.S.S.S.S.S.S.S.S.",
"S.S.S.S.S.S.S.S.S.S.4.O 3 i u H j.S.S.S.S.S.S.S.S.S.S.S.S.S.S.S.S.S.S.S.S.S.S.9.: @ @ # # @ @ * k x q * + . $ h ;.B.S.S.S.S.S.S.",
"S.S.S.S.S.S.S.S.S.n.i # O @ @ . O I S.S.S.S.S.S.S.S.S.S.S.S.S.S.S.S.S.S.S.S.j.$ + s o.1.8 # 5 '  . .| [ Q k * O X : 8.S.S.S.S.S.",
"S.S.S.S.S.S.S.S.V.r X 3 ( <.,.J % . I S.S.S.S.S.S.S.S.S.S.S.S.S.S.S.S.S.S.n.: O Z s.d.1.# * ' | { { { |  . .[ Q 6 @ # j.S.S.S.S.",
"S.S.S.S.S.S.S.S.&.. y t.d.a.a.d.O.% O k.S.S.S.S.S.S.S.S.S.S.S.S.S.S.S.S.V.t O f s.u.s.T O k  .{ } } { { { { |  .| k + i A.S.S.S.",
"S.S.S.S.S.S.S.C.r @ >.d.u.u.i.u.d.S . L S.S.S.S.S.S.S.S.S.S.S.S.S.S.S.S.M . 7 y.i.y.d.J X c  .{ } } } } } { { { | { 1 @ 9.S.S.S.",
"S.S.S.S.S.S.S.b.$ : y.i.i.i.i.i.a.<.# ; m.S.S.S.S.S.S.S.S.S.S.S.S.S.S.L X : w.s.u.u.d.( + q ..{ } } } } } } } } {  .l . :.S.A.S.",
"S.S.S.S.S.S.S.b.# 2 y.i.i.i.i.i.i.a.f . ;.S.S.S.S.S.S.S.S.S.S.S.S.S.-.O $ >.s.u.i.i.s.q.$ $ / ..{ { { } } } } { { ..z X ;.S.S.S.",
"S.S.S.S.S.S.S.Z.r @ >.s.i.i.i.i.u.d.X.O u S.S.S.S.S.S.S.S.S.S.S.S.6.O # _ d.i.i.i.i.y.s.Z + 1 ~ |  . .} { { { { { | 4 O 6.S.S.S.",
"S.S.S.S.S.S.S.S.#.. Z d.i.i.a.i.i.i.u.2 O 9.S.Z.S.A.S.A.S.S.A.S.x.* O U d.i.i.i.i.i.i.i.i.s @ # 4 v / }  . .| | | Z @ 3 V.S.S.S.",
"S.S.S.S.S.S.S.S.x.# * e.a.u.i.i.i.u.d.U . F S.S.S.S.S.S.S.S.S.S.N X V s.u.i.i.i.i.i.i.p.y.9 @ * O . # 4 c / [ ` z & o 2.S.S.S.S.",
"S.S.S.S.S.S.S.S.S.M . R d.i.i.i.i.i.a.q.$ ; 6.9.8.8.8.6.7.6.7.2.% * e.a.i.i.a.i.i.i.i.a.d . i m.7.H 3 X X @ & # . # -.S.S.S.S.S.",
"S.S.S.S.S.S.S.S.S.6.X y i.i.i.i.i.i.i.t.2 # @ O X O X X X X X O @ s a.u.i.i.i.i.i.u.s.C O 3 n.S.S.S.V.8.K t ; r G j.S.S.S.S.S.S.",
"S.S.S.S.S.S.S.S.S.C.r O O.s.i.i.i.i.i.t.* $ 0 6 0 0 q q w q q 0 @ s a.y.i.u.u.u.u.d.Y @ $ k.S.A.A.S.S.S.S.Z.B.C.S.S.S.S.S.S.S.S.",
"S.S.S.S.S.S.S.S.S.S.*.. f d.i.u.i.u.f.( + 5  .|  . . . .| }  .` # ; r.s.d.s.s.s.f.) # O 5.S.A.S.S.S.S.S.S.S.S.S.S.S.S.S.S.S.S.S.",
"S.S.S.S.S.S.S.S.S.S.m.* @ U s.d.d.d.o.* + Q  .{ { { } { } { { } 6 + C t.( C m U ( - O -.S.S.S.S.S.S.S.S.S.S.S.S.S.S.S.S.S.S.S.S.",
"S.S.S.S.S.S.S.S.S.A.S.2.O # 3 Z D f # @ k | { } { } } } } } {  .^ $ $ - X X O X @ O P S.A.S.S.S.S.S.S.S.S.S.S.S.S.S.S.S.S.S.S.S.",
"S.S.S.S.S.S.S.S.S.S.V.j @ $ y f 8 @ @ < { | { { } } } } } } } { ..z # @ a R ) A = @ h M.S.A.S.S.S.S.S.S.S.S.S.S.S.S.S.S.S.S.S.S.",
"S.S.S.S.S.S.S.S.S.Z.h o 3 ,.s.d.s.,.: @ z ..{ } } { } } } } { | ' - @ D a.d.d.d.1.3 X 7 b.S.A.S.S.S.S.S.S.S.S.S.S.S.S.S.S.S.S.S.",
"S.S.S.S.S.S.S.S.S.N X 2 w.d.u.u.u.d.,.# $ ` } { { { { { { { { | v + d s.i.u.u.u.s.t.a X : z.S.A.S.S.S.S.S.S.S.S.S.S.S.S.S.S.S.S.",
"S.S.S.S.S.S.S.S.F . : 0.s.y.a.i.i.u.a.f + ! ..|  . . . ... .....e X ) s.i.i.i.i.u.a.u.f O * 9.S.S.S.S.S.S.S.S.S.S.S.S.S.S.S.S.S.",
"S.S.S.S.S.S.S.H o ; <.s.u.u.i.i.i.u.s.A + k ! W Q Q Q Q Q Q W W 4 @ X.s.i.i.i.i.i.y.a.i.m O $ 5.S.S.S.S.S.S.S.S.S.S.S.S.S.S.S.S.",
"S.S.S.S.S.S.K . - ,.d.u.i.i.i.i.i.u.s.d @ O X X X X X X . X X X O @ J d.u.i.i.i.i.i.i.a.a.A O # :.S.S.S.S.S.S.S.S.S.S.S.S.S.S.S.",
"S.S.S.S.S.#.O % O.d.u.i.i.a.i.i.i.d.,.$ % H H F G G F F F F F K H # : w.s.u.i.i.i.i.i.i.i.d.U # O ;.S.S.S.S.S.S.S.S.S.S.S.S.S.S.",
"S.S.A.S.-.O $ O.d.u.i.i.i.i.u.y.a.r.7 . I S.S.S.S.S.S.S.S.S.S.S.S.M . 8 w.s.u.i.i.i.i.i.i.u.d.R # # k.S.S.S.S.S.S.S.S.S.S.S.S.S.",
"S.S.S.c.$ # ) d.u.i.i.i.i.i.u.s.t.8 X d Z.S.A.S.S.A.S.S.S.S.S.S.S.B.u X 2 q.d.u.i.a.i.i.i.i.u.d.Z . L S.S.S.S.S.S.S.S.S.S.S.S.S.",
"S.S.S.*.. V d.u.i.i.a.i.i.i.a.y.y X t V.S.S.S.S.S.S.S.S.S.S.S.S.S.S.V.h O ; +.d.u.i.i.i.a.i.u.a.,.O u S.S.S.S.S.S.S.S.S.S.S.S.S.",
"S.S.S.B . X.d.u.i.i.i.i.u.a.u.s O 7 M.S.A.S.S.S.S.S.S.S.S.S.S.S.S.S.S.S.B o % X.d.u.p.i.i.i.i.a.q.# r Z.S.S.S.S.S.S.S.S.S.S.S.S.",
"S.S.S.B O o.s.u.i.i.i.i.i.i.f X > n.S.S.S.S.S.S.S.S.S.S.S.S.S.S.S.S.S.S.S.K O # ( d.u.i.i.i.u.a.O.O p S.S.S.S.S.S.S.S.S.S.S.S.S.",
"S.A.S.I . J d.y.i.i.u.i.s.V @ : b.S.A.S.S.S.S.S.S.S.S.S.S.S.S.S.S.S.S.S.S.S.%.O # Y d.a.u.u.a.s.f . %.S.S.S.S.S.S.S.S.S.S.S.S.S.",
"S.S.S.9.O - ,.d.i.i.d.s.C O * z.S.S.S.S.S.S.S.S.S.S.S.S.S.S.S.S.S.S.S.S.S.S.S.-.O @ A t.a.a.r.C @ ; M.S.S.S.S.S.S.S.S.S.S.S.S.S.",
"S.S.S.S.F . : _ r.t.<.f @ $ j.S.A.S.S.S.S.S.S.S.S.S.S.S.S.S.S.S.S.S.S.S.S.S.S.S.2.# O ; b f = X $ 9.S.S.S.S.S.S.S.S.S.S.S.S.S.S.",
"S.S.S.S.Z.N O X % ; @ . = 9.S.A.S.S.S.S.S.S.S.S.S.S.S.S.S.S.S.S.S.S.S.S.S.S.S.A.S.j.i # . . # j z.S.A.S.S.S.S.S.S.S.S.S.S.S.S.S.",
"S.S.S.S.S.S.2.g - % r P n.S.S.S.S.S.S.S.S.S.S.S.S.S.S.S.S.S.S.S.S.S.S.S.S.S.S.S.S.S.S.z.6.7.c.S.S.S.S.S.S.S.S.S.S.S.S.S.S.S.S.S.",
"S.S.S.S.S.S.S.S.N.m.C.S.S.S.S.S.S.S.S.S.S.S.S.S.S.S.S.S.S.S.S.S.S.S.S.S.S.S.S.S.S.A.S.S.S.S.S.S.S.S.S.S.S.S.S.S.S.S.S.S.S.S.S.S.",
"S.S.S.S.S.S.S.S.S.S.S.S.S.S.S.S.S.S.S.S.S.S.S.S.S.S.S.S.S.S.S.S.S.S.S.S.S.S.S.S.S.S.S.S.S.S.S.S.S.S.S.S.S.S.S.S.S.S.S.S.S.S.S.S.",
"S.S.S.S.S.S.S.S.S.S.S.S.S.S.S.S.S.S.S.S.S.S.S.S.S.S.S.S.S.S.S.S.S.S.S.S.S.S.S.S.S.S.S.S.S.S.S.S.S.S.S.S.S.S.S.S.S.S.S.S.S.S.S.S.",
"S.S.S.S.S.S.S.S.S.S.S.S.S.S.S.S.S.S.S.S.S.S.S.S.S.S.S.S.S.S.S.S.S.S.S.S.S.S.S.S.S.S.S.S.S.S.S.S.S.S.S.S.S.S.S.S.S.S.S.S.S.S.S.S.",
"S.S.S.S.S.S.S.S.S.S.S.S.S.S.S.S.S.S.S.S.S.S.S.S.S.S.S.S.S.S.S.S.S.S.S.S.S.S.S.S.S.S.S.S.S.S.S.S.S.S.S.S.S.S.S.S.S.S.S.S.S.S.S.S.",
"S.S.S.S.S.S.S.S.S.S.S.S.S.S.S.S.S.S.S.S.S.S.S.S.S.S.S.S.S.S.S.S.S.S.S.S.S.S.S.S.S.S.S.S.S.S.S.S.S.S.S.S.S.S.S.S.S.S.S.S.S.S.S.S.",
"S.S.S.S.S.S.S.S.S.S.S.S.S.S.S.S.S.S.S.S.S.S.S.S.S.S.S.S.S.S.S.S.S.S.S.S.S.S.S.S.S.S.S.S.S.S.S.S.S.S.S.S.S.S.S.S.S.S.S.S.S.S.S.S.",
"S.S.S.S.S.S.S.S.S.S.S.S.S.S.S.S.S.S.S.S.S.S.S.S.S.S.S.S.S.S.S.S.S.S.S.S.S.S.S.S.S.S.S.S.S.S.S.S.S.S.S.S.S.S.S.S.S.S.S.S.S.S.S.S.",
"S.S.S.S.S.S.S.S.S.S.S.S.S.S.S.S.S.S.S.S.S.S.S.S.S.S.S.S.S.S.S.S.S.S.S.S.S.S.S.S.S.S.S.S.S.S.S.S.S.S.S.S.S.S.S.S.S.S.S.S.S.S.S.S.",
"S.S.S.S.S.S.S.S.S.S.S.S.S.S.S.S.S.S.S.S.S.S.S.S.S.S.S.S.S.S.S.S.S.S.S.S.S.S.S.S.S.S.S.S.S.S.S.S.S.S.S.S.S.S.S.S.S.S.S.S.S.S.S.S.",
"S.S.S.S.S.S.S.S.S.S.S.S.S.S.S.S.S.S.S.S.S.S.S.S.S.S.S.S.S.S.S.S.S.S.S.S.S.S.S.S.S.S.S.S.S.S.S.S.S.S.S.S.S.S.S.S.S.S.S.S.S.S.S.S.",
"S.S.S.S.S.S.S.S.S.S.S.S.S.S.S.S.S.S.S.S.S.S.S.S.S.S.S.S.S.S.S.S.S.S.S.S.S.S.S.S.S.S.S.S.S.S.S.S.S.S.S.S.S.S.S.S.S.S.S.S.S.S.S.S.",
"S.S.S.S.S.S.S.S.S.S.S.S.S.S.S.S.S.S.S.S.S.S.S.S.S.S.S.S.S.S.S.S.S.S.S.S.S.S.S.S.S.S.S.S.S.S.S.S.S.S.S.S.S.S.S.S.S.S.S.S.S.S.S.S.",
"S.S.S.S.S.S.S.S.S.S.S.S.S.S.S.S.S.S.S.S.S.S.S.S.S.S.S.S.S.S.S.S.S.S.S.S.S.S.S.S.S.S.S.S.S.S.S.S.S.S.S.S.S.S.S.S.S.S.S.S.S.S.S.S.",
"S.S.S.S.S.S.S.S.S.S.S.S.S.S.S.S.S.S.S.S.S.S.S.S.S.S.S.S.S.S.S.S.S.S.S.S.S.S.S.S.S.S.S.S.S.S.S.S.S.S.S.S.S.S.S.S.S.S.S.S.S.S.S.S.",
"S.S.S.S.S.S.S.S.S.S.S.S.S.S.S.S.S.S.S.S.S.S.S.S.S.S.S.S.S.S.S.S.S.S.S.S.S.S.S.S.S.S.S.S.S.S.S.S.S.S.S.S.S.S.S.S.S.S.S.S.S.S.S.S."
};
