/* XPM */
static char *player__6_1710156990[] = {
/* columns rows colors chars-per-pixel */
"64 64 153 2 ",
"   c #00025B",
".  c #001565",
"X  c #001A66",
"o  c #001668",
"O  c #001C6A",
"+  c #002166",
"@  c #00236D",
"#  c #012671",
"$  c #042974",
"%  c #092B75",
"&  c #0C2D7A",
"*  c #102F79",
"=  c #0E317A",
"-  c #13337D",
";  c #19357D",
":  c #16387E",
">  c #1A387E",
",  c #0D2E80",
"<  c #143382",
"1  c #193682",
"2  c #1D3B83",
"3  c #16348A",
"4  c #18368C",
"5  c #1B388F",
"6  c #1E3895",
"7  c #203D85",
"8  c #243D89",
"9  c #283F8C",
"0  c #203C93",
"q  c #233C9B",
"w  c #273FA0",
"e  c #254285",
"r  c #284587",
"t  c #2A448C",
"y  c #2E4A8A",
"u  c #334E8D",
"i  c #36508E",
"p  c #2E4391",
"a  c #324594",
"s  c #354995",
"d  c #3C4C9B",
"f  c #375190",
"g  c #3B5491",
"h  c #2A40A4",
"j  c #2D41A8",
"k  c #3144AD",
"l  c #3847B6",
"z  c #3748B4",
"x  c #3849B5",
"c  c #3A4AB8",
"v  c #414E9E",
"b  c #435B96",
"n  c #44519F",
"m  c #475F98",
"M  c #466199",
"N  c #4B639A",
"B  c #50679D",
"V  c #52699F",
"C  c #4652A1",
"Z  c #4C55A5",
"A  c #4F56A8",
"S  c #575CAD",
"D  c #595EAE",
"F  c #5C5FB1",
"G  c #556BA1",
"H  c #596EA2",
"J  c #5C71A4",
"K  c #5F62B3",
"L  c #6579A9",
"P  c #6D7FAD",
"I  c #6163B4",
"U  c #6765B8",
"Y  c #6867B9",
"T  c #6C69BD",
"R  c #706CBF",
"E  c #414EC3",
"W  c #4651C9",
"Q  c #4A52CD",
"!  c #4C54D3",
"~  c #5157D7",
"^  c #5459DB",
"/  c #746EC1",
"(  c #7770C3",
")  c #7A72C5",
"_  c #7E74C8",
"`  c #5A5CE3",
"'  c #605FEC",
"]  c #6260EF",
"[  c #6663F5",
"{  c #6864F7",
"}  c #6B66FB",
"|  c #6F68FF",
" . c #716AFF",
".. c #8176CA",
"X. c #8579CD",
"o. c #8D7DD3",
"O. c #7385B1",
"+. c #7689B3",
"@. c #7A8BB4",
"#. c #7D8FB8",
"$. c #7F92B9",
"%. c #8494BA",
"&. c #8B9BBF",
"*. c #8E9DC0",
"=. c #909FC2",
"-. c #9582D9",
";. c #9B85DD",
":. c #9D88DF",
">. c #94A3C4",
",. c #99A6C6",
"<. c #9AA8C7",
"1. c #9EABC9",
"2. c #A1ADCB",
"3. c #A4B2CD",
"4. c #A9B5CF",
"5. c #ACB7D0",
"6. c #AEB9D2",
"7. c #B1BBD3",
"8. c #9F88E0",
"9. c #A38BE2",
"0. c #A98EE6",
"q. c #AD91EA",
"w. c #B495EE",
"e. c #B797F0",
"r. c #B897F1",
"t. c #BB9AF4",
"y. c #C09CF7",
"u. c #C39EF9",
"i. c #C6A1FB",
"p. c #CAA2FD",
"a. c #D0A6FF",
"s. c #D5A9FF",
"d. c #B7C1D7",
"f. c #B8C1D7",
"g. c #BCC5D9",
"h. c #C4CBDE",
"j. c #C6CDE0",
"k. c #C8CFE1",
"l. c #CCD3E2",
"z. c #D2D7E6",
"x. c #D5DAE7",
"c. c #D6DBE8",
"v. c #D9DEEA",
"b. c #DDE2EC",
"n. c #E2E6EF",
"m. c #E3E7F0",
"M. c #E6EAF1",
"N. c #EAEDF3",
"B. c #EEF0F5",
"V. c #F1F3F7",
"C. c #F3F5F9",
"Z. c #F7F8FB",
"A. c #FFFFFF",
/* pixels */
"A.A.A.A.A.A.A.A.A.A.A.A.A.A.A.A.A.A.A.A.A.A.A.A.A.A.A.A.A.A.A.A.A.A.A.A.A.A.A.A.A.A.A.A.A.A.A.A.A.A.A.A.A.A.A.A.A.A.A.A.A.A.A.A.",
"A.A.A.A.A.A.A.A.A.A.A.A.A.A.A.A.A.A.A.A.A.A.A.A.A.A.A.A.A.A.A.A.A.A.A.A.A.A.A.A.A.A.A.A.A.A.A.A.A.A.A.A.A.A.A.A.A.A.A.A.A.A.A.A.",
"A.A.A.A.A.A.A.A.A.A.A.A.A.A.A.A.A.A.A.A.A.A.A.A.A.A.A.A.A.A.A.A.A.A.A.A.A.A.A.A.A.A.A.A.A.A.A.A.A.A.A.A.A.A.A.A.A.A.A.A.A.A.A.A.",
"A.A.A.A.A.A.A.A.A.A.A.A.A.A.A.A.A.A.A.A.A.A.A.A.A.A.A.A.A.A.A.A.A.A.A.A.A.A.A.A.A.A.A.A.A.A.A.A.A.A.A.A.A.A.A.A.A.A.A.A.A.A.A.A.",
"A.A.A.A.A.A.A.A.A.A.A.A.A.A.A.A.A.A.A.A.A.A.A.A.A.A.A.A.A.A.A.A.A.A.A.A.A.A.A.l.1.<.f.V.A.A.A.A.A.A.A.A.A.A.A.A.A.A.A.A.A.A.A.A.",
"A.A.A.A.A.A.A.A.A.A.A.A.A.A.A.A.A.A.A.A.A.A.A.A.A.A.A.A.A.A.A.A.A.A.A.A.A.c.N # . . O 2 >.A.A.A.A.A.A.A.A.A.A.A.A.A.A.A.A.A.A.A.",
"A.A.A.A.A.A.A.A.A.A.A.A.A.A.A.A.A.A.A.A.A.A.A.A.A.A.A.A.A.A.A.A.A.A.A.A.z.; . - C A 9 @ . O.A.A.A.A.A.A.A.A.A.A.A.A.A.A.A.A.A.A.",
"A.A.A.A.A.A.A.A.A.A.A.A.A.A.A.A.A.A.A.A.A.A.A.A.A.A.A.A.A.A.A.A.A.A.A.A.u X d q.i.p.t./ % o 5.A.A.A.A.A.A.A.A.A.A.A.A.A.A.A.A.A.",
"A.A.A.A.A.A.A.A.A.A.A.A.A.A.A.A.A.A.A.A.A.A.A.A.A.A.A.A.A.A.A.A.A.A.A.5.X 2 w.u.t.t.t.p.U X u A.A.A.A.A.A.A.A.A.A.A.A.A.A.A.A.A.",
"A.A.A.A.A.A.A.A.A.A.A.A.A.A.A.A.A.A.A.A.A.A.A.A.A.A.A.A.A.A.A.A.A.A.A.O.. K p.r.t.t.t.t.r.2 o 5.A.A.A.A.A.A.A.A.A.A.A.A.A.A.A.A.",
"A.A.A.A.A.A.A.A.A.A.A.A.A.A.A.A.A.A.A.A.A.A.A.A.A.A.A.A.A.A.A.A.A.A.A.H . ) i.r.t.t.t.t.p.T X g A.A.A.A.A.A.A.A.A.A.A.A.A.A.A.A.",
"A.A.A.A.A.A.A.A.A.A.A.A.A.A.A.A.A.A.A.A.A.A.A.A.A.A.A.A.A.A.A.A.A.A.A.O.. I p.t.t.t.t.t.y.w.1 o 6.A.A.A.A.A.A.A.A.A.A.A.A.A.A.A.",
"A.A.A.A.A.A.A.A.A.A.A.A.A.A.A.A.A.A.A.A.A.A.A.A.A.A.A.A.A.A.A.A.A.Z.A.5.o 2 e.t.t.t.t.t.t.p.Y X g A.A.A.A.A.A.A.A.A.A.A.A.A.A.A.",
"A.A.A.A.A.A.A.A.A.A.A.A.A.A.A.A.A.A.A.A.A.A.A.A.A.A.A.A.A.A.A.A.A.A.A.Z.u o / p.t.t.t.t.t.t.q.- # h.A.A.A.A.A.A.A.A.A.A.A.A.A.A.",
"A.A.A.A.A.A.A.A.A.A.A.A.A.A.A.A.A.A.A.A.A.A.A.A.A.A.A.A.A.A.A.A.A.A.A.A.1.o 8 t.t.t.t.t.t.t.a.S . *.A.Z.A.Z.A.A.A.A.A.A.A.A.A.A.",
"A.A.A.A.A.A.A.A.A.4.L V.A.A.A.A.A.A.A.A.A.A.A.A.A.A.A.A.A.A.A.A.A.A.A.A.Z.y O ) i.r.t.t.p.w.;.C . O.A.A.A.A.A.A.A.A.A.A.A.A.A.A.",
"A.A.A.A.A.A.A.A.A.N   ,.A.A.A.A.A.A.A.A.A.A.A.A.A.A.A.A.A.A.A.A.A.A.A.A.A.,.. 8 y.p.p.y.U 1 @ @ @ $ 2 g V @.3.B.A.A.A.A.A.A.A.A.",
"A.A.A.A.A.A.A.A.A.1.o g A.Z.Z.A.A.A.A.A.A.A.A.A.A.A.A.A.A.A.A.A.A.A.A.A.A.Z.u @ Z Z Z s + @ 3 q 4 , # @ X . X 2 3.A.A.A.A.A.A.A.",
"A.A.A.A.A.A.A.A.A.N.1 O l.A.A.A.A.A.A.A.A.A.A.A.A.A.A.A.A.A.A.A.A.A.A.A.A.A.M # O X @ @ & Q } } [ [ ` ~ W z 5 @ O 1.A.A.A.A.A.A.",
"A.A.A.A.A.A.A.A.A.A.+.. G 3.,.k.A.A.A.A.A.A.A.A.A.A.A.A.A.A.A.A.A.A.A.A.A.H o $ Z Y & # !  .[ [ [ } } | | | } z @ - b.A.A.A.A.A.",
"A.A.A.A.A.A.A.A.A.A.+.# O . . # b l.A.A.A.A.A.A.A.A.A.A.A.A.A.A.A.A.Z.A.<.o = o.s.o.@ 6 } [ { { [ { { [ [ [ [ | q X @.A.Z.A.A.A.",
"A.A.A.A.A.A.A.A.A.O.o # 9 Z C * X % g.A.A.A.A.A.A.A.A.A.A.A.A.A.A.A.A.B.e O / p.i.T X j | [ { { [ } { { { { [ | Q X b A.A.A.A.A.",
"A.A.A.A.A.A.A.A.4.o $ R y.i.u.w.n O 7 B.A.A.A.A.A.A.A.A.A.A.A.A.A.Z.A.@.. a t.e.i._ + 0 | [ { { [ } [ { { { [ | ^ @ g A.A.A.A.A.",
"A.A.A.A.A.A.A.A.b X U a.t.r.r.u.y.t . &.A.A.A.A.A.A.A.A.A.A.A.A.A.A.c.& @ o.i.t.y.9.% $ ^ | [ [ [ [ [ { { { [ | A X V A.A.A.A.A.",
"A.A.A.A.A.A.A.n.& & q.y.t.t.t.r.p...o i A.A.A.A.A.A.A.A.A.A.A.A.A.A.G . C p.t.t.t.p.Z X 3 `  . .| | } { { { | [ 4 o ,.A.A.A.A.A.",
"A.A.A.A.A.A.A.l.@ 2 t.t.t.t.t.t.t.e.2 O f.A.A.A.A.A.A.A.A.A.A.A.A.d.O & 9.y.t.t.t.t.w.9 + & q x W ~ ` [ { } ^ 0 o p V.A.A.A.A.A.",
"A.A.A.A.A.A.A.n.= & 0.y.t.t.t.t.r.p.K . H A.A.A.A.A.A.A.A.A.A.A.A.i X I p.t.t.t.t.t.t.e.a # @ . X @ # , 4 4 # X 2 c.A.A.A.A.A.A.",
"A.A.A.A.A.A.A.A.b . / p.t.t.t.t.t.y.9.$ & v.A.A.A.A.A.A.A.A.A.A.>.. 2 e.t.t.t.t.t.t.t.t.t o L $.V f 2 % @ @ - L M.A.A.A.A.A.A.A.",
"A.A.A.A.A.A.Z.A.2.X t y.t.t.t.t.t.t.i.d . %.A.A.A.A.A.A.A.A.A.N.2 O _ p.t.t.t.t.t.t.p.U X y A.A.A.A.V.v.g.h.N.A.A.A.A.A.A.A.A.A.",
"A.A.A.A.A.A.A.A.B.2 @ o.u.t.y.t.t.r.i.X.O u Z.A.Z.A.A.A.A.Z.A.<.. a t.t.t.t.t.t.t.t.0.- O 7.A.Z.A.A.A.A.A.A.A.A.A.A.A.A.A.A.A.A.",
"A.A.A.A.A.A.A.A.A.+.. Z u.t.t.t.t.t.y.q.- $ u f i i i i u u f 2 @ U p.r.t.t.t.t.t.i.Z . B A.A.A.A.A.A.A.A.A.A.A.A.A.A.A.A.A.A.A.",
"A.A.A.A.A.A.A.A.A.l.$ & 0.u.t.t.t.t.t.e.< # @ O @ O @ O @ O @ # @ T p.t.t.t.t.t.i.-.@ % z.A.A.A.A.A.A.A.A.A.A.A.A.A.A.A.A.A.A.A.",
"A.A.A.A.A.A.A.A.A.A.M X T p.w.t.t.e.i.-.@ < ~ ^ ^ ~ ^ ^ ^ ~ ` k X C p.r.t.t.t.t.y.a . O.A.A.A.A.A.A.A.A.A.A.A.A.A.A.A.A.A.A.A.A.",
"A.A.A.A.A.A.A.A.A.A.7.o : 9.p.y.t.i.y.p + k  .} | | | | | |  .^ # & -.a.t.t.t.a./ O 2 N.A.A.A.A.A.A.A.A.A.A.A.A.A.A.A.A.A.A.A.A.",
"A.A.A.A.A.A.A.A.A.A.A.m . 1 ( 0.q.o.p + & ] { { [ [ [ { [ [ [ | h + - _ e.e.q.Y $ . <.A.A.A.A.A.A.A.A.A.A.A.A.A.A.A.A.A.A.A.A.A.",
"A.A.A.A.A.A.A.A.A.A.A.Z.M O # & & $ @ 3 ^ | [ { { { { { { { [ } [ q @ # < 1 = # # %.A.A.A.A.A.A.A.A.A.A.A.A.A.A.A.A.A.A.A.A.A.A.",
"A.A.A.A.A.A.A.A.A.A.A.m.b @ # $ $ # @ 6 { } [ { { { { { { { { [ | x # # # $ @ # $ 2.A.A.A.A.A.A.A.A.A.A.A.A.A.A.A.A.A.A.A.A.A.A.",
"A.A.A.A.A.A.A.A.A.A.Z.u . 1 / 8.:.T < + 6 } { { { { { { { { [ | E @ # A ;.0.-.n # @ f.A.A.A.A.A.A.A.A.A.A.A.A.A.A.A.A.A.A.A.A.A.",
"A.A.A.A.A.A.A.A.A.A.&.. 7 q.p.i.u.p.9.- + W | [ { { { { { { } ] = @ Y a.i.t.i.i.S o u A.A.A.A.A.A.A.A.A.A.A.A.A.A.A.A.A.A.A.A.A.",
"A.A.A.A.A.A.A.A.A.B.7 O X.p.w.t.t.r.p.T X q | [ { { { { [ [ | W + p i.t.r.t.t.t.t.2 . <.A.A.A.A.A.A.A.A.A.A.A.A.A.A.A.A.A.A.A.A.",
"A.A.A.A.A.A.A.A.A.*.o p y.t.t.t.t.t.y.8.$ & 3 3 4 3 3 3 3 3 3 - @ F p.t.t.t.y.t.p./ o y A.A.A.A.A.A.A.A.A.A.A.A.A.A.A.A.A.A.A.A.",
"A.A.A.A.A.A.A.A.V.e O _ i.t.t.t.t.t.y.;.$ $ @ @ @ @ @ @ @ # @ $ @ D p.e.t.t.t.t.t.t.7 O <.A.Z.A.A.A.A.A.A.A.A.A.A.A.A.A.A.A.A.A.",
"A.A.A.A.A.A.A.A.,.. t t.t.t.t.t.t.t.p.T . m z.j.j.k.j.h.l.h.x.&.o t t.t.t.t.t.t.t.p./ O y Z.A.A.A.A.A.A.A.A.A.A.A.A.A.A.A.A.A.A.",
"A.A.A.A.A.A.A.V.t O ) i.t.t.t.t.t.t.e.2 o 4.A.A.A.A.A.A.A.A.A.Z.e O ..p.t.t.t.t.t.t.t.8 . ,.A.A.A.A.A.A.A.A.A.A.A.A.A.A.A.A.A.A.",
"A.A.A.A.A.A.A.,.o e t.t.t.t.t.t.r.p./ O i A.A.A.A.A.A.A.A.A.Z.A.*.. t t.t.t.t.t.t.r.p.( X r V.A.A.A.A.A.A.A.A.A.A.A.A.A.A.A.A.A.",
"A.A.A.A.A.A.A.y o ( p.t.t.t.t.t.t.t.7 o 1.A.Z.A.A.A.A.A.A.A.A.A.B.e O _ p.t.t.t.t.t.t.t.8 o ,.A.A.A.A.A.A.A.A.A.A.A.A.A.A.A.A.A.",
"A.A.A.A.A.A.<.o 2 r.y.t.t.t.t.t.p.( o y V.A.A.A.A.A.A.A.A.A.A.A.A.=.. t t.t.t.t.t.t.t.p.) O r V.A.A.A.A.A.A.A.A.A.A.A.A.A.A.A.A.",
"A.A.A.A.A.A.b X / p.t.t.t.t.t.t.t.8 X <.A.A.A.A.A.A.A.A.A.A.A.A.A.V.r O _ p.r.t.t.t.t.t.t.8 o 6.A.A.A.A.A.A.A.A.A.A.A.A.A.A.A.A.",
"A.A.A.A.A.N.> # 0.y.t.t.t.t.t.p.) O r Z.A.A.A.A.A.A.A.A.A.A.A.A.A.A.,.. t t.t.t.t.t.t.r.p.D . $.A.Z.A.A.A.A.A.A.A.A.A.A.A.A.A.A.",
"A.A.A.A.A.M.- & q.t.t.t.t.t.t.t.t . >.A.A.A.A.A.A.A.A.A.A.A.A.A.A.A.V.r X ) p.t.y.t.t.r.p.K . $.A.A.A.A.A.A.A.A.A.A.A.A.A.A.A.A.",
"A.A.A.A.A.Z.u O -.i.e.t.t.e.p...O e N.A.A.A.A.A.A.A.A.A.A.A.A.A.A.A.A.,.o 8 t.t.r.t.t.r.u.a . 2.A.A.A.A.A.A.A.A.A.A.A.A.A.A.A.A.",
"A.A.A.A.A.A.+.. s t.i.t.t.i.e.e . *.A.A.A.A.A.A.A.A.A.A.A.A.A.A.A.A.A.Z.r O I p.u.y.y.a./ @ : M.A.A.A.A.A.A.A.A.A.A.A.A.A.A.A.A.",
"A.A.A.A.A.A.M.> O s -.r.e.o.t o y Z.A.A.A.A.A.A.A.A.A.A.A.A.A.A.A.A.Z.A.5.O @ A :.w.9.F $ o *.A.Z.A.A.A.A.A.A.A.A.A.A.A.A.A.A.A.",
"A.A.A.A.A.A.A.h.> . @ 1 < @ . e c.A.A.A.A.A.A.A.A.A.A.A.A.A.A.A.A.A.A.A.A.&.# . @ & # . O @.A.A.A.A.A.A.A.A.A.A.A.A.A.A.A.A.A.A.",
"A.A.A.A.A.A.A.A.m.O.7 $ % y +.N.A.A.A.A.A.A.A.A.A.A.A.A.A.A.A.A.A.A.A.A.A.A.k.J r = 2 V f.A.A.A.A.A.A.A.A.A.A.A.A.A.A.A.A.A.A.A.",
"A.A.A.A.A.A.A.Z.A.A.B.x.b.Z.A.A.A.A.A.A.A.A.A.A.A.A.A.A.A.A.A.A.A.A.A.A.A.A.A.A.Z.N.V.A.A.A.A.A.A.A.A.A.A.A.A.A.A.A.A.A.A.A.A.A.",
"A.A.A.A.A.A.A.A.A.Z.A.A.A.A.A.A.A.A.A.A.A.A.A.A.A.A.A.A.A.A.A.A.A.A.A.A.A.A.A.A.A.A.A.A.A.A.A.A.A.A.A.A.A.A.A.A.A.A.A.A.A.A.A.A.",
"A.A.A.A.A.A.A.A.A.A.A.A.A.A.A.A.A.A.A.A.A.A.A.A.A.A.A.A.A.A.A.A.A.A.A.A.A.A.A.A.A.A.A.A.A.A.A.A.A.A.A.A.A.A.A.A.A.A.A.A.A.A.A.A.",
"A.A.A.A.A.A.A.A.A.A.A.A.A.A.A.A.A.A.A.A.A.A.A.A.A.A.A.A.A.A.A.A.A.A.A.A.A.A.A.A.A.A.A.A.A.A.A.A.A.A.A.A.A.A.A.A.A.A.A.A.A.A.A.A.",
"A.A.A.A.A.A.A.A.A.A.A.A.A.A.A.A.A.A.A.A.A.A.A.A.A.A.A.A.A.A.A.A.A.A.A.A.A.A.A.A.A.A.A.A.A.A.A.A.A.A.A.A.A.A.A.A.A.A.A.A.A.A.A.A.",
"A.A.A.A.A.A.A.A.A.A.A.A.A.A.A.A.A.A.A.A.A.A.A.A.A.A.A.A.A.A.A.A.A.A.A.A.A.A.A.A.A.A.A.A.A.A.A.A.A.A.A.A.A.A.A.A.A.A.A.A.A.A.A.A.",
"A.A.A.A.A.A.A.A.A.A.A.A.A.A.A.A.A.A.A.A.A.A.A.A.A.A.A.A.A.A.A.A.A.A.A.A.A.A.A.A.A.A.A.A.A.A.A.A.A.A.A.A.A.A.A.A.A.A.A.A.A.A.A.A.",
"A.A.A.A.A.A.A.A.A.A.A.A.A.A.A.A.A.A.A.A.A.A.A.A.A.A.A.A.A.A.A.A.A.A.A.A.A.A.A.A.A.A.A.A.A.A.A.A.A.A.A.A.A.A.A.A.A.A.A.A.A.A.A.A.",
"A.A.A.A.A.A.A.A.A.A.A.A.A.A.A.A.A.A.A.A.A.A.A.A.A.A.A.A.A.A.A.A.A.A.A.A.A.A.A.A.A.A.A.A.A.A.A.A.A.A.A.A.A.A.A.A.A.A.A.A.A.A.A.A."
};
