/* XPM */
static char *player__46_1710156990[] = {
/* columns rows colors chars-per-pixel */
"64 64 150 2 ",
"   c #000058",
".  c #001564",
"X  c #001A66",
"o  c #001768",
"O  c #001C6A",
"+  c #002166",
"@  c #00236D",
"#  c #01286F",
"$  c #012671",
"%  c #042974",
"&  c #092D77",
"*  c #072B79",
"=  c #0C2E7B",
"-  c #0E307A",
";  c #11327C",
":  c #19397F",
">  c #0F3082",
",  c #163480",
"<  c #1A3783",
"1  c #1D3A82",
"2  c #143389",
"3  c #18358C",
"4  c #1C3792",
"5  c #1E3994",
"6  c #213B87",
"7  c #233C89",
"8  c #2A3F8D",
"9  c #203B96",
"0  c #243D9B",
"q  c #254285",
"w  c #294587",
"e  c #2A428C",
"r  c #2E4A8A",
"t  c #324E8D",
"y  c #36518F",
"u  c #2F4291",
"i  c #324592",
"p  c #374996",
"a  c #394A97",
"s  c #3B4C99",
"d  c #375290",
"f  c #3C5692",
"g  c #3F5994",
"h  c #2A40A4",
"j  c #2E42AB",
"k  c #3143AD",
"l  c #3446B1",
"z  c #3748B4",
"x  c #3949B6",
"c  c #3C4ABB",
"v  c #414E9D",
"b  c #435C96",
"n  c #43509E",
"m  c #465F99",
"M  c #4D649C",
"N  c #51679E",
"B  c #53699F",
"V  c #424EA0",
"C  c #4652A1",
"Z  c #4D56A6",
"A  c #545AAB",
"S  c #595DAE",
"D  c #5B5EB0",
"F  c #566BA0",
"G  c #596DA2",
"H  c #5E73A5",
"J  c #5E61B2",
"K  c #6175A6",
"L  c #657AA9",
"P  c #6A7DAC",
"I  c #6264B5",
"U  c #6766B8",
"Y  c #6867B9",
"T  c #6D6ABD",
"R  c #706CBF",
"E  c #3F4CC1",
"W  c #434FC5",
"Q  c #454FC8",
"!  c #4752CA",
"~  c #4A53CE",
"^  c #756FC2",
"/  c #7770C4",
"(  c #7C73C7",
")  c #7E74C9",
"_  c #5B5CE5",
"`  c #605FEC",
"'  c #6060ED",
"]  c #6663F5",
"[  c #6864F7",
"{  c #6C66FC",
"}  c #6F68FF",
"|  c #736AFF",
" . c #8276CB",
".. c #8478CD",
"X. c #8C7CD2",
"o. c #917FD5",
"O. c #7486B1",
"+. c #7788B3",
"@. c #7B8DB6",
"#. c #7F8FB8",
"$. c #8394BB",
"%. c #8897BC",
"&. c #8799BE",
"*. c #8B9ABE",
"=. c #8E9EC1",
"-. c #909FC1",
";. c #9381D7",
":. c #9682D9",
">. c #9C86DD",
",. c #9E88DF",
"<. c #94A2C4",
"1. c #99A6C6",
"2. c #9BA8C7",
"3. c #9DAAC9",
"4. c #A1AECC",
"5. c #A6B2CD",
"6. c #A8B3CF",
"7. c #ABB6D1",
"8. c #AEB8D2",
"9. c #B2BCD4",
"0. c #9F88E0",
"q. c #A58CE4",
"w. c #A98EE7",
"e. c #AB8FE8",
"r. c #AD91EA",
"t. c #B394ED",
"y. c #B697F0",
"u. c #B897F1",
"i. c #BB9AF4",
"p. c #C09DF7",
"a. c #C39EF9",
"s. c #C6A0FB",
"d. c #C9A2FD",
"f. c #D0A6FF",
"g. c #D2A8FF",
"h. c #BBC4D9",
"j. c #C2CADD",
"k. c #C9CFE1",
"l. c #CAD1E2",
"z. c #D3D9E6",
"x. c #D7DDE9",
"c. c #D9DEEA",
"v. c #DEE3ED",
"b. c #E1E5EE",
"n. c #E5E8F1",
"m. c #EBEEF4",
"M. c #EFF2F7",
"N. c #F4F6F9",
"B. c #F7F8FA",
"V. c #FFFFFF",
/* pixels */
"V.V.V.V.V.V.V.V.V.V.V.V.V.V.V.V.V.V.V.V.V.V.V.V.V.V.V.V.V.V.V.V.V.V.V.V.V.V.V.V.V.V.V.V.V.V.V.V.V.V.V.V.V.V.V.V.V.V.V.V.V.V.V.V.",
"V.V.V.V.V.V.V.V.V.V.V.V.V.V.V.V.V.V.V.V.V.V.V.V.V.V.V.V.V.V.V.V.V.V.V.V.V.V.V.V.V.V.V.V.V.V.V.V.V.V.V.V.V.V.V.V.V.V.V.V.V.V.V.V.",
"V.V.V.V.V.V.V.V.V.V.V.V.V.V.V.V.V.V.V.V.V.V.V.V.V.V.V.V.V.V.V.V.V.V.V.V.V.V.V.V.V.V.V.V.V.V.V.V.V.V.V.V.V.V.V.V.V.V.V.V.V.V.V.V.",
"V.V.V.V.V.V.V.V.V.V.V.V.V.V.V.V.V.V.V.V.V.V.V.V.V.V.V.V.V.V.V.V.V.V.V.V.V.V.V.V.V.V.V.V.V.V.V.V.V.V.V.V.V.V.V.V.V.V.V.V.V.V.V.V.",
"V.V.V.V.V.V.V.V.V.V.V.V.V.V.V.V.V.V.V.V.V.V.V.V.V.V.V.V.V.V.V.V.V.V.V.V.V.V.V.V.V.V.V.V.V.V.V.V.V.V.V.V.V.V.V.V.V.V.V.V.V.V.V.V.",
"V.V.V.V.V.V.V.V.V.V.V.V.V.V.V.V.V.V.V.V.V.V.V.V.V.V.V.V.V.V.V.V.V.V.V.V.V.V.V.B.V.V.V.V.V.V.V.V.V.V.V.V.V.V.V.V.V.V.V.V.V.V.V.V.",
"V.V.V.V.V.V.V.V.V.V.V.V.V.V.V.V.V.V.V.V.V.V.V.V.V.V.V.V.V.V.V.V.V.V.V.v.k.x.V.V.V.V.V.V.V.V.V.V.V.V.V.V.V.V.V.V.V.V.V.V.V.V.V.V.",
"V.V.V.V.V.V.V.V.V.V.V.V.V.V.V.V.V.V.V.V.V.V.V.V.V.V.V.V.V.V.V.V.V.7.f & @ * r 1.V.V.V.V.V.V.V.V.V.V.V.V.V.V.V.V.V.V.V.V.V.V.V.V.",
"V.V.V.V.V.V.V.V.V.V.V.V.V.V.V.V.V.V.V.V.V.V.V.V.V.V.V.V.V.V.V.V.$.X X = 6 ; O o H V.V.V.V.V.V.V.V.V.V.V.V.V.V.V.V.V.V.V.V.V.V.V.",
"V.V.V.V.V.V.V.V.V.V.V.V.V.V.V.V.V.V.V.V.V.V.V.V.V.V.V.V.V.V.V.4.X $ I t.i.t./ ; o B V.V.V.V.V.V.V.V.V.V.V.V.V.V.V.V.V.V.V.V.V.V.",
"V.V.V.V.V.V.V.V.V.V.V.V.V.V.V.V.V.V.V.V.V.V.V.V.V.V.V.V.V.V.B.r O Y d.p.i.p.d.:.; o B V.V.V.V.V.V.V.V.V.V.V.V.V.V.V.V.V.V.V.V.V.",
"V.V.V.V.V.V.V.V.V.V.V.V.V.V.V.V.V.V.V.V.V.V.V.V.V.V.V.V.V.V.k.$ < u.i.i.i.i.u.d.:.; X B V.V.V.V.V.V.V.V.V.V.V.V.V.V.V.V.V.V.V.V.",
"V.V.V.V.V.V.V.V.V.V.V.V.V.V.V.V.V.V.V.V.V.V.V.V.V.V.V.V.B.V.9.X a p.i.i.i.i.i.u.s.:.- o B V.V.V.V.V.V.V.V.V.V.V.V.V.V.V.V.V.V.V.",
"V.V.V.V.V.V.V.V.V.V.V.V.V.V.V.V.V.V.V.V.V.V.V.V.V.V.V.V.V.V.h.O e p.i.i.i.p.i.i.u.s.:.; o *.V.B.V.B.B.V.V.V.V.V.V.V.V.V.V.V.V.V.",
"V.V.V.V.V.V.V.V.V.V.V.B.V.V.V.V.V.V.V.V.V.V.V.V.V.V.V.V.V.V.n.; $ :.s.u.i.i.i.i.i.u.s. .@ : B.V.V.V.V.V.V.V.B.V.V.V.V.V.V.V.V.V.",
"V.V.V.V.V.V.V.V.V.V.V.V.V.V.V.V.V.V.V.V.V.V.V.V.V.V.V.V.V.V.V.L o 7 t.a.u.i.p.i.i.i.s.p.6 @ $.9.7.8.7.9.k.V.V.V.V.V.V.V.V.V.V.V.",
"V.V.V.V.V.V.V.V.V.V.h.B n.V.V.V.V.V.V.V.V.V.V.V.V.V.V.V.V.V.V.m.w X 7 t.p.y.i.i.i.a.X.e % # O O X O X O @ r 8.V.V.V.V.V.V.V.V.V.",
"V.V.V.V.V.V.V.V.V.V.L   $.V.B.V.V.V.V.V.V.V.V.V.V.V.V.V.V.V.V.V.b.w X 8 t.d.d.i.i.^ @ + - 5 0 0 0 9 0 9 > X O &.V.V.V.V.V.V.V.V.",
"V.V.V.V.V.V.V.V.B.V.7.X f V.V.V.V.V.V.V.V.V.V.V.V.V.V.V.V.V.V.V.V.v.q o u ;.D e < % @ l ] { { { { { { { ] z % O 9.V.V.V.V.V.V.V.",
"V.V.V.V.V.V.V.V.V.V.m.; $ x.V.V.V.V.V.V.V.V.V.V.V.V.V.V.V.V.V.V.V.V.v.r @ % X O % $ j | ] ] [ ] [ ] ] ] { | l X g V.V.V.V.V.V.V.",
"V.V.V.V.V.V.V.V.V.B.V.L . O.k.l.V.V.V.V.V.V.V.V.V.V.V.V.V.V.V.V.V.B.V.1.@ $ V  .- % _ { ] [ [ [ [ [ [ [ ] { ` = & v.V.V.V.V.V.V.",
"V.V.V.V.V.V.V.V.V.V.B.F @ $ X % t 5.V.V.V.V.V.V.V.V.V.V.V.V.V.V.V.V.N.t X S f.e.% > ] { [ [ [ [ [ [ [ [ [ ] ] 2 @ l.V.V.V.V.V.V.",
"V.V.V.V.V.V.V.V.V.n.t o $ 7 i , X X O.V.V.V.V.V.V.V.V.V.V.V.V.V.V.V.7.o 6 i.p.w.& * _ { ] [ [ ] [ [ [ [ ] { ' = & c.V.V.V.V.V.V.",
"V.V.V.V.V.V.V.V.V.F o 7 X.i.p.u.U * o 3.V.V.V.V.V.V.V.V.V.V.V.V.V.V.M . T a.u.p.e @ c | ] ] ] ] ] ] ] ] ] | W @ r V.V.V.V.V.V.V.",
"V.V.V.V.V.V.V.V.j.O - q.d.i.i.i.f.T O r V.V.V.V.V.V.V.V.V.V.V.V.V.z.% = w.a.u.a. .O * W } } | } } | } | { ~ - o 1.V.V.V.V.V.V.V.",
"V.V.V.V.V.V.B.V.@.. A d.u.i.i.i.i.u.< @ h.V.V.V.V.V.V.V.V.V.V.V.V.+.o C a.i.p.i.a.S X # 5 k x l l z l z 0 @ o K V.V.V.V.V.V.V.V.",
"V.V.V.V.V.V.V.V.K . / d.u.i.i.p.u.s.A . +.V.B.V.V.V.V.V.V.V.V.V.M.6 @ X.a.i.i.i.i.a.Y ; # X . . . X . . X ; $.V.V.V.V.V.V.V.V.V.",
"V.V.V.V.V.V.B.V.O.. J d.i.i.i.i.i.s.o.O w B.V.V.V.V.V.V.V.V.B.V.4.X e i.p.i.i.i.i.u.g.A X M =.$.$.%.$.&.4.b.V.V.V.V.V.V.V.V.V.V.",
"V.V.V.V.V.V.B.V.7.X e i.i.i.i.i.i.i.u.1 @ h.V.V.V.V.V.V.V.V.V.V.m . R d.u.i.i.i.i.p.r.; @ k.V.V.V.V.V.V.V.V.B.V.V.V.V.V.V.V.V.V.",
"V.V.V.V.V.V.V.V.m.< $ >.a.i.i.i.i.u.s.S . O.V.B.B.V.B.V.V.B.V.l.@ - e.a.i.i.i.p.u.d.^ o g V.B.B.V.V.V.B.V.V.V.V.V.V.V.V.V.V.V.V.",
"V.V.V.V.V.V.V.V.V.H . U d.i.i.i.i.i.s.;.O w V.V.V.V.V.V.V.V.V.+.. Z d.u.i.i.i.i.i.p.i X 2.V.V.V.V.V.V.V.V.V.V.V.V.V.V.V.V.V.V.V.",
"V.V.V.V.V.V.V.V.V.7.X e p.i.i.i.i.i.p.t.< $ =.8.6.6.6.6.6.6.7.w O X.a.u.i.i.p.u.a.;.@ : m.V.V.V.V.V.V.V.V.V.V.V.V.V.V.V.V.V.V.V.",
"V.V.V.V.V.V.V.V.V.m.< @ >.a.i.i.i.i.i.p.e @ O X O O X X X X X % = ,.p.u.i.i.i.i.s.Z . O.V.V.V.V.V.V.V.V.V.V.V.V.V.V.V.V.V.V.V.V.",
"V.V.V.V.V.V.V.V.V.V.K o U d.y.i.p.i.i.u., * 0 0 0 0 u 0 0 0 0 - @ X.d.u.i.i.i.p.r.- $ l.V.V.V.V.V.V.V.V.V.V.V.V.V.V.V.V.V.V.V.V.",
"V.V.V.V.V.V.V.V.B.V.9.X < r.d.u.u.i.f.Y @ 3 { { { { } { } { | k X n d.i.u.u.u.g.I . b V.V.V.V.V.V.V.V.V.V.V.V.V.V.V.V.V.V.V.V.V.",
"V.V.V.V.V.V.V.V.V.V.V.f o e ,.p.a.i.R % @ Q { ] [ [ [ ] ] ] { _ & + J i.d.d.s./ * O 9.V.B.V.V.V.V.V.V.V.V.V.V.V.V.V.V.V.V.V.V.V.",
"V.V.V.V.V.V.V.V.V.V.V.c.w @ & i v 6 @ @ j { [ [ [ [ [ [ [ [ ] } E @ $ 6 A S e % O O.V.V.V.V.V.V.V.V.V.V.V.V.V.V.V.V.V.V.V.V.V.V.",
"V.V.V.V.V.V.V.V.V.V.B.V.z.; % O X % % k | ] [ [ [ [ [ [ [ [ [ ] | c * $ @ X @ $ L V.V.V.V.V.V.V.V.V.V.V.V.V.V.V.V.V.V.V.V.V.V.V.",
"V.V.V.V.V.V.V.V.V.V.V.c.w @ % 6 6 * + - ! { ] [ [ [ [ [ [ [ ] } _ 3 $ $ 1 8 & @ ; 6.V.V.V.V.V.V.V.V.V.V.V.V.V.V.V.V.V.V.V.V.V.V.",
"V.V.V.V.V.V.V.V.V.V.B.y o e :.i.i.q.C @ * _ { ] ] ] ] [ ] ] ] [ 3 + 8 ;.u.i.q.C O & l.V.V.V.V.V.V.V.V.V.V.V.V.V.V.V.V.V.V.V.V.V.",
"V.V.V.V.V.V.V.V.V.V.1.o 6 t.d.i.i.p.d.V + h | } | { } | { { | W + 1 t.d.i.p.p.d.n . H V.V.V.V.V.V.V.V.V.V.V.V.V.V.V.V.V.V.V.V.V.",
"V.V.V.V.V.V.V.V.V.V.b . / d.u.i.i.u.p.>.$ = W ~ ! ! ! ! ! ~ ~ 5 @ T d.y.i.i.u.a.q.% ; b.V.V.V.V.V.V.V.V.V.V.V.V.V.V.V.V.V.V.V.V.",
"V.V.V.V.V.V.V.V.V.k.$ ; r.p.i.i.i.i.p.y., $ X X X X X X X X . % $ o.a.i.i.i.i.i.a.a . *.V.B.V.V.V.V.V.V.V.V.V.V.V.V.V.V.V.V.V.V.",
"V.V.V.V.V.V.V.B.V.O.. Z s.u.i.i.i.i.p.e.= & B G F F B F F F G 1 @  .d.u.i.i.i.i.s. .X d V.V.V.V.V.V.V.V.V.V.V.V.V.V.V.V.V.V.V.V.",
"V.V.V.V.V.V.V.V.M.6 @ o.s.i.i.i.i.u.d.( X f V.V.V.V.V.V.V.V.V.@.. Z s.i.i.i.i.i.p.t.< O j.V.V.V.V.V.V.V.V.V.V.V.V.V.V.V.V.V.V.V.",
"V.V.V.V.V.V.V.V.5.X e i.i.p.i.i.i.u.s.a o -.V.B.V.V.V.B.V.B.V.l.$ - r.p.i.i.i.i.i.d.S . P V.B.V.V.V.V.V.V.V.V.V.V.V.V.V.V.V.V.V.",
"V.V.V.V.V.V.V.V.M . T s.u.i.i.i.u.s.,.$ ; b.V.V.V.V.V.V.V.V.V.V.b . R s.u.i.i.i.u.a.>.$ : m.V.V.V.V.V.V.V.V.V.V.V.V.V.V.V.V.V.V.",
"V.V.V.V.V.B.V.z.% & w.s.i.i.i.i.u.d.J . H V.V.V.V.V.V.V.V.V.B.V.4.o i p.i.i.p.i.i.i.p.i o 1.V.V.V.V.V.V.V.V.V.V.V.V.V.V.V.V.V.V.",
"V.V.V.V.V.B.V.#.. n d.y.i.i.i.i.p.u.1 X h.V.V.V.V.V.V.V.V.V.V.V.m.< $ :.a.i.i.i.i.i.d.R X b V.V.V.V.V.V.V.V.V.V.V.V.V.V.V.V.V.V.",
"V.V.V.V.V.V.B.r O X.d.i.i.i.i.u.s...X t B.V.V.V.V.V.V.V.V.V.V.V.V.P . A d.i.i.i.i.i.p.t.; $ l.V.V.V.V.V.V.V.V.V.V.V.V.V.V.V.V.V.",
"V.V.V.V.V.V.z.% , t.p.i.i.i.i.i.a.v . %.V.B.V.V.V.V.V.V.V.V.V.V.V.j.O , t.p.i.i.i.i.i.a.v o 2.V.V.V.V.V.V.V.V.V.V.V.V.V.V.V.V.V.",
"V.V.V.V.V.V.l.@ 6 u.i.i.i.i.i.p.q.& & c.V.V.V.V.V.V.V.V.V.V.V.V.V.V.f X ) a.u.i.i.i.i.a.A . <.V.B.V.V.V.V.V.V.V.V.V.V.V.V.V.V.V.",
"V.V.V.V.V.V.n.- & w.p.u.i.i.y.d.Y o N V.V.V.V.V.V.V.V.V.V.V.V.V.V.V.*.o p a.u.i.p.u.u.p.e X 8.V.V.V.V.V.V.V.V.V.V.V.V.V.V.V.V.V.",
"V.V.V.V.V.V.V.N o Z d.p.i.p.d.r., X 9.V.B.V.V.V.V.V.V.V.V.V.V.V.V.V.n.; $  .f.p.i.p.f./ @ : m.V.V.V.V.V.V.V.V.V.V.V.V.V.V.V.V.V.",
"V.V.V.V.V.V.V.l.@ @ Z q.i.t.X.7 o b V.V.V.V.V.V.V.V.V.V.V.V.V.V.V.B.V.$.. = T t.i.t.Y & o *.V.V.V.V.V.V.V.V.V.V.V.V.V.V.V.V.V.V.",
"V.V.V.V.V.V.B.V.4.$ o % 7 , O o t n.V.V.V.V.V.V.V.V.V.V.V.V.V.V.V.V.V.V.K o X ; 7 ; X o P V.V.V.V.V.V.V.V.V.V.V.V.V.V.V.V.V.V.V.",
"V.V.V.V.V.V.V.V.V.l.N ; $ % q $.N.V.V.V.V.V.V.V.V.V.V.V.V.V.V.V.V.V.V.V.V.3.y % @ - f 5.V.V.V.V.V.V.V.V.V.V.V.V.V.V.V.V.V.V.V.V.",
"V.V.V.V.V.V.V.V.V.V.V.n.l.z.N.V.V.V.V.V.V.V.V.V.V.V.V.V.V.V.V.V.V.V.V.V.V.V.V.x.j.v.V.V.V.V.V.V.V.V.V.V.V.V.V.V.V.V.V.V.V.V.V.V.",
"V.V.V.V.V.V.V.V.V.V.B.V.V.V.V.B.V.V.V.V.V.V.V.V.V.V.V.V.V.V.V.V.V.V.V.V.V.V.V.V.V.V.V.V.V.V.V.V.V.V.V.V.V.V.V.V.V.V.V.V.V.V.V.V.",
"V.V.V.V.V.V.V.V.V.V.V.V.V.V.V.V.V.V.V.V.V.V.V.V.V.V.V.V.V.V.V.V.V.V.V.V.V.V.V.V.V.V.V.V.V.V.V.V.V.V.V.V.V.V.V.V.V.V.V.V.V.V.V.V.",
"V.V.V.V.V.V.V.V.V.V.V.V.V.V.V.V.V.V.V.V.V.V.V.V.V.V.V.V.V.V.V.V.V.V.V.V.V.V.V.V.V.V.V.V.V.V.V.V.V.V.V.V.V.V.V.V.V.V.V.V.V.V.V.V.",
"V.V.V.V.V.V.V.V.V.V.V.V.V.V.V.V.V.V.V.V.V.V.V.V.V.V.V.V.V.V.V.V.V.V.V.V.V.V.V.V.V.V.V.V.V.V.V.V.V.V.V.V.V.V.V.V.V.V.V.V.V.V.V.V.",
"V.V.V.V.V.V.V.V.V.V.V.V.V.V.V.V.V.V.V.V.V.V.V.V.V.V.V.V.V.V.V.V.V.V.V.V.V.V.V.V.V.V.V.V.V.V.V.V.V.V.V.V.V.V.V.V.V.V.V.V.V.V.V.V.",
"V.V.V.V.V.V.V.V.V.V.V.V.V.V.V.V.V.V.V.V.V.V.V.V.V.V.V.V.V.V.V.V.V.V.V.V.V.V.V.V.V.V.V.V.V.V.V.V.V.V.V.V.V.V.V.V.V.V.V.V.V.V.V.V."
};
