/* XPM */
static char *player__3_1710156990[] = {
/* columns rows colors chars-per-pixel */
"64 64 145 2 ",
"   c #000E63",
".  c #001766",
"X  c #001966",
"o  c #001768",
"O  c #001C69",
"+  c #002167",
"@  c #00226D",
"#  c #01286F",
"$  c #002571",
"%  c #042A74",
"&  c #092E77",
"*  c #0B2E7B",
"=  c #0B3077",
"-  c #0E317B",
";  c #12337D",
":  c #17397F",
">  c #0D2F81",
",  c #0F3083",
"<  c #153383",
"1  c #1A3783",
"2  c #1D3C84",
"3  c #14338A",
"4  c #19368E",
"5  c #1A3690",
"6  c #1E3995",
"7  c #233C8A",
"8  c #283F8D",
"9  c #203A97",
"0  c #243C9C",
"q  c #283FA3",
"w  c #244486",
"e  c #2A418F",
"r  c #2D4C8B",
"t  c #304F8D",
"y  c #33518F",
"u  c #2D4391",
"i  c #314593",
"p  c #374997",
"a  c #374998",
"s  c #3B4C9A",
"d  c #395692",
"f  c #3E5A95",
"g  c #2B40A5",
"h  c #2F43AB",
"j  c #3244AF",
"k  c #3446B2",
"l  c #3748B4",
"z  c #394AB7",
"x  c #3C4ABD",
"c  c #414E9F",
"v  c #415D96",
"b  c #42509F",
"n  c #435F98",
"m  c #466199",
"M  c #4A659C",
"N  c #4F699F",
"B  c #506A9F",
"V  c #4552A1",
"C  c #4C56A6",
"Z  c #4F58A8",
"A  c #555CAC",
"S  c #595DAF",
"D  c #5A5EB0",
"F  c #556EA1",
"G  c #5770A3",
"H  c #5B73A5",
"J  c #5D61B2",
"K  c #637AA9",
"L  c #697EAC",
"P  c #6264B5",
"I  c #6766B9",
"U  c #6867BA",
"Y  c #6D6ABD",
"T  c #706CBF",
"R  c #3F4CC1",
"E  c #434FC5",
"W  c #4651C9",
"Q  c #4852CC",
"!  c #746EC2",
"~  c #7A72C6",
"^  c #7D74C9",
"/  c #575AE0",
"(  c #595BE3",
")  c #5E5EE9",
"_  c #6160EE",
"`  c #6763F5",
"'  c #6864F7",
"]  c #6B66FB",
"[  c #6E68FE",
"{  c #7169FF",
"}  c #8176CB",
"|  c #8679CF",
" . c #8C7DD3",
".. c #907FD6",
"X. c #6B81AE",
"o. c #7286B1",
"O. c #778BB5",
"+. c #7A8DB6",
"@. c #7E91B8",
"#. c #8395BB",
"$. c #8798BE",
"%. c #899BBE",
"&. c #8D9EC1",
"*. c #9281D7",
"=. c #9582D9",
"-. c #9A86DD",
";. c #92A2C3",
":. c #98A7C6",
">. c #9AA8C7",
",. c #9DABC9",
"<. c #A1AECC",
"1. c #A4B1CD",
"2. c #AAB6D1",
"3. c #AEBAD3",
"4. c #B3BDD5",
"5. c #A38BE3",
"6. c #A88EE6",
"7. c #AB8FE8",
"8. c #AD91EA",
"9. c #B294ED",
"0. c #B797F1",
"q. c #B897F1",
"w. c #BC9AF4",
"e. c #C09DF7",
"r. c #C39EF9",
"t. c #C6A0FB",
"y. c #CAA2FD",
"u. c #B6C0D7",
"i. c #B7C1D8",
"p. c #BAC4D9",
"a. c #BFC8DC",
"s. c #C4CCDE",
"d. c #CAD1E2",
"f. c #D0D7E5",
"g. c #D2D9E7",
"h. c #D7DDE9",
"j. c #DDE2EC",
"k. c #E1E6EF",
"l. c #E6EAF2",
"z. c #EAEDF3",
"x. c #EEF1F6",
"c. c #F1F3F7",
"v. c #F4F6F9",
"b. c #F7F8FB",
"n. c #FFFFFF",
/* pixels */
"n.n.n.n.n.n.n.n.n.n.n.n.n.n.n.n.n.n.n.n.n.n.n.n.n.n.n.n.n.n.n.n.n.n.n.n.n.n.n.n.n.n.n.n.n.n.n.n.n.n.n.n.n.n.n.n.n.n.n.n.n.n.n.n.",
"n.n.n.n.n.n.n.n.n.n.n.n.n.n.n.n.n.n.n.n.n.n.n.n.n.n.n.n.n.n.n.n.n.n.n.n.n.n.n.n.n.n.n.n.n.n.n.n.n.n.n.n.n.n.n.n.n.n.n.n.n.n.n.n.",
"n.n.n.n.n.n.n.n.n.n.n.n.n.n.n.n.n.n.n.n.n.n.n.n.n.n.n.n.n.n.n.n.n.n.n.n.n.n.n.n.n.n.n.n.n.n.n.n.n.n.n.n.n.n.n.n.n.n.n.n.n.n.n.n.",
"n.n.n.n.n.n.n.n.n.n.n.n.n.n.n.n.n.n.n.n.n.n.n.n.n.n.n.n.n.n.n.n.n.n.n.n.n.n.n.n.n.n.n.n.n.n.n.n.n.n.n.n.n.n.n.n.n.n.n.n.n.n.n.n.",
"n.n.n.n.n.n.n.n.n.n.n.n.n.n.n.n.n.n.n.n.n.n.n.n.n.n.n.n.n.n.n.n.n.n.n.b.n.n.n.n.n.n.n.n.n.n.n.n.n.n.n.n.n.n.n.n.n.n.n.n.n.n.n.n.",
"n.n.n.n.n.n.n.n.n.n.n.n.n.n.n.n.n.n.n.n.n.n.n.n.n.n.n.n.n.n.n.n.n.n.n.n.n.n.n.b.n.n.n.n.n.n.n.n.n.n.n.n.n.n.n.n.n.n.n.n.n.n.n.n.",
"n.n.n.n.n.n.n.n.n.n.n.n.n.n.n.n.n.n.n.n.n.n.n.n.n.n.n.n.n.n.n.n.n.n.n.j.d.h.b.n.n.n.n.n.n.n.n.n.n.n.n.n.n.n.n.n.n.n.n.n.n.n.n.n.",
"n.n.n.n.n.n.n.n.n.n.n.n.n.n.n.n.n.n.n.n.n.n.n.n.n.n.n.n.n.n.n.n.n.3.f - % & y >.n.n.n.n.n.n.n.n.n.n.n.n.n.n.n.n.n.n.n.n.n.n.n.n.",
"n.n.n.n.n.n.n.n.n.n.n.n.n.n.n.n.n.n.n.n.n.n.n.n.n.n.n.n.n.n.n.n.#.$ O * 7 ; O O H n.n.n.n.n.n.n.n.n.n.n.n.n.n.n.n.n.n.n.n.n.n.n.",
"n.n.n.n.n.n.n.n.n.n.n.n.n.n.n.n.n.n.n.n.n.n.n.n.n.n.n.n.n.n.n.1.O % P 7.0.9.! ; O G b.n.n.n.n.n.n.n.n.n.n.n.n.n.n.n.n.n.n.n.n.n.",
"n.n.n.n.n.n.n.n.n.n.n.n.n.n.n.n.n.n.n.n.n.n.n.n.n.n.n.n.n.n.b.r O U y.e.w.e.y...; O G n.n.n.n.n.n.n.n.n.n.n.n.n.n.n.n.n.n.n.n.n.",
"n.n.n.n.n.n.n.n.n.n.n.n.n.n.n.n.n.n.n.n.n.n.n.n.n.n.n.n.n.n.d.% 1 9.w.w.w.w.q.y...; o F b.n.n.n.n.n.n.n.n.n.n.n.n.n.n.n.n.n.n.n.",
"n.n.n.n.n.n.n.n.n.n.n.n.n.n.n.n.n.n.n.n.n.n.n.n.n.n.n.n.n.n.4.O s w.w.w.w.w.w.w.r...; o H n.n.n.n.n.n.n.n.n.n.n.n.n.n.n.n.n.n.n.",
"n.n.n.n.n.n.n.n.n.n.n.n.n.n.n.n.n.n.n.n.n.n.n.n.n.n.n.n.b.n.p.@ e w.w.w.w.w.w.w.w.y...; O $.n.b.n.b.b.n.n.n.n.n.n.n.n.n.n.n.n.n.",
"n.n.n.n.n.n.n.n.n.n.n.n.n.n.n.n.n.n.n.n.n.n.n.n.n.n.n.n.n.n.k.: % ..y.q.w.w.w.w.w.q.r.} $ 2 v.n.n.n.n.n.n.n.b.n.n.n.n.n.n.n.n.n.",
"n.n.n.n.n.n.n.n.n.n.n.n.n.n.n.n.n.n.n.n.n.n.n.n.n.n.n.n.n.n.n.L . e 7.r.w.w.w.w.w.w.r.w.7 $ #.4.3.3.3.4.d.b.n.n.n.n.n.n.n.n.n.n.",
"n.n.n.n.n.n.n.n.n.c.h.n.n.n.n.n.n.n.n.n.n.n.n.n.n.n.n.n.n.n.n.l.r O u 8.e.w.w.w.w.r.} e & @ @ + @ @ O @ % y 3.n.n.n.n.n.n.n.n.n.",
"n.n.n.n.n.n.n.n.n.L % d.n.n.n.n.n.n.n.n.n.n.n.n.n.n.n.n.n.n.n.n.j.r X u 8.t.r.w.w.Y $ @ * 9 9 0 9 9 0 9 , O $ $.n.n.n.n.n.n.n.n.",
"n.n.n.n.n.n.n.n.n.X.  L n.n.n.n.n.n.n.n.n.n.n.n.n.n.n.n.n.n.n.n.n.j.r . u  .S e 2 % % k _ ] ' ] ] ] ] ' _ z % $ 4.n.n.n.n.n.n.n.",
"n.n.n.n.n.n.n.b.n.d.$ 2 l.n.n.n.b.n.n.n.n.n.n.n.n.n.n.n.n.n.n.n.n.n.j.y @ % O @ % @ h [ ] ' ' ' ' ' ' ' ' [ l O f n.n.n.n.n.n.n.",
"n.n.n.n.n.n.n.n.n.n.v o >.n.v.n.n.n.n.n.n.n.n.n.n.n.n.n.n.n.n.n.n.b.n.:.@ % c ~ ; % ( [ ` ' ' ' ' ' ' ' ` ] ) * ; j.n.b.n.n.n.n.",
"n.n.n.n.n.n.n.n.b.n.:.O 2 r r H i.n.n.n.n.n.n.n.n.n.n.n.n.n.n.n.n.n.v.t O S y.6.& , ` ' ' ' ' ' ' ' ' ' ' ' ` 3 % d.n.n.n.n.n.n.",
"n.n.n.n.n.n.n.n.n.f.r @ @ $ $ . @ K b.n.n.n.n.n.n.n.n.n.n.n.n.n.b.n.2.O 7 0.r.5.* * ) ' ' ' ' ` ' ' ' ' ' ' _ * = h.n.n.n.n.n.n.",
"n.n.n.n.n.n.n.n.l.w O 8 ! -.=.J - o L n.n.n.n.n.n.n.n.n.n.n.n.n.n.n.F X U r.q.w.i @ x [ ` ` ` ` ` ` ` ` ` { E O y b.n.n.n.n.n.n.",
"n.n.n.n.n.n.b.n.o.. i 9.y.r.r.t. .& $ s.n.n.n.n.n.n.n.n.n.n.n.n.n.f.& * 5.r.q.r.~ @ & E ] [ [ [ [ [ [ [ ] Q * O >.n.b.n.n.n.n.n.",
"n.n.n.n.n.n.n.c.w $  .t.q.w.w.w.y.A . K n.n.n.n.n.n.n.n.n.n.n.n.n.+.. V r.w.w.w.e.A @ # 5 k l l l l l l 9 $ O K n.n.n.n.n.n.n.n.",
"n.n.n.n.n.n.n.g.& 1 9.w.w.w.w.w.r.-.% ; k.n.n.n.n.n.n.n.n.n.n.n.x.w @  .t.w.w.w.w.e.U ; % @ X X X X X X O ; #.n.n.n.n.n.n.n.n.n.",
"n.n.n.n.n.n.n.g.% 1 9.e.w.w.w.w.w.e.s X %.n.b.n.n.n.n.n.n.n.b.n.1.O u q.w.w.w.w.w.w.y.Z O m %.#.#.#.#.$.1.k.n.n.n.n.n.n.n.n.n.n.",
"n.n.n.n.n.n.n.x.w $ ..r.w.w.w.w.w.r.^ O p b.n.n.n.n.n.n.n.n.n.n.m O Y t.w.w.w.w.w.w.8.< @ s.n.n.n.n.n.n.n.n.n.n.n.n.n.n.n.n.n.n.",
"n.n.n.n.n.n.n.n.o.. Z r.w.w.w.w.w.w.9.2 @ u.n.b.b.n.b.n.n.b.n.d.% - 6.r.w.w.w.w.w.t.! X v n.n.b.n.b.b.n.b.n.n.n.n.n.n.n.n.n.n.n.",
"n.n.n.n.n.n.n.n.d.% ; 6.e.w.w.w.w.w.t.P X H n.n.n.n.n.n.n.n.n.O.. Z r.w.w.w.w.w.w.w.i O ,.n.n.n.n.n.n.n.n.n.n.n.n.n.n.n.n.n.n.n.",
"n.n.n.n.n.n.n.n.n.m X Y t.w.w.w.w.w.r.-.% : <.3.2.2.2.2.2.2.2.r @ | y.w.w.w.w.w.t.*.@ 2 z.n.n.n.n.n.n.n.n.n.n.n.n.n.n.n.n.n.n.n.",
"n.n.n.n.n.n.n.n.n.1.O e w.w.w.w.w.w.w.9.1 $ O O @ O @ O O O O % & -.r.w.w.w.w.w.r.Z . o.n.n.n.n.n.n.n.n.n.n.n.n.n.n.n.n.n.n.n.n.",
"n.n.n.n.n.n.n.n.n.x.w @  .t.w.w.w.w.r.6.- % 0 0 0 0 0 0 q u 0 - $  .t.w.w.w.w.w.7.- % d.n.n.n.n.n.n.n.n.n.n.n.n.n.n.n.n.n.n.n.n.",
"n.n.n.n.n.n.n.n.b.n.O.. s r.w.w.q.w.y.U @ 9 ' [ ] ] ] ] ] ] [ j X c t.w.w.w.w.y.P O m n.n.n.n.n.n.n.n.n.n.n.n.n.n.n.n.n.n.n.n.n.",
"n.n.n.n.n.n.n.n.n.n.j.; @ J w.t.r.r.^ & @ W [ ` ' ' ` ' ' ` ] / & $ S 0.t.y.w.! % @ 4.n.b.n.n.n.n.n.n.n.n.n.n.n.n.n.n.n.n.n.n.n.",
"n.n.n.n.n.n.n.n.n.n.n.,.% $ 8 S J a % @ q [ ' ' ' ' ' ' ' ' ' [ R % $ 7 A S u % @ o.n.n.n.n.n.n.n.n.n.n.n.n.n.n.n.n.n.n.n.n.n.n.",
"n.n.n.n.n.n.n.n.n.n.b.n.;.% $ O O $ % g [ ' ' ' ' ' ' ' ' ' ` ' [ x % $ X @ $ @ K n.n.n.n.n.n.n.n.n.n.n.n.n.n.n.n.n.n.n.n.n.n.n.",
"n.n.n.n.n.n.n.n.n.n.n.h.y @ % 7 7 = @ - Q ] ` ' ' ' ' ' ' ' ` ] ( 4 @ & 7 8 - @ : 2.n.n.n.n.n.n.n.n.n.n.n.n.n.n.n.n.n.n.n.n.n.n.",
"n.n.n.n.n.n.n.n.n.n.b.d . u ..0.0.5.C @ & / ] ` ` ` ` ` ` ` ` ` 4 @ 8  .9.0.5.V O - d.n.n.n.n.n.n.n.n.n.n.n.n.n.n.n.n.n.n.n.n.n.",
"n.n.n.n.n.n.n.n.n.n.>.O 7 8.t.w.w.r.r.V @ g { [ [ [ [ [ [ [ { W @ 2 7.y.e.w.r.r.V . H n.n.n.n.n.n.n.n.n.n.n.n.n.n.n.n.n.n.n.n.n.",
"n.n.n.n.n.n.n.n.n.n.v X ! y.w.w.w.0.t.-.% * E W W W W W W W Q 5 + Y y.q.w.w.w.r.-.& ; j.n.n.n.n.n.n.n.n.n.n.n.n.n.n.n.n.n.n.n.n.",
"n.n.n.n.n.n.n.n.n.d.$ ; 8.w.w.w.w.w.w.8.1 $ O O X O O X X X X % %  .r.w.w.w.w.w.e.s X ;.n.n.n.n.n.n.n.n.n.n.n.n.n.n.n.n.n.n.n.n.",
"n.n.n.n.n.n.n.b.n.o.. Z r.w.w.w.w.w.r.6.; & B G F F G F G F H 2 @ } r.w.w.w.w.w.t.^ O d b.n.n.n.n.n.n.n.n.n.n.n.n.n.n.n.n.n.n.n.",
"n.n.n.n.n.n.n.n.z.w $ ..t.w.w.w.w.w.t.~ O f n.n.n.n.n.n.n.n.n.@.. Z r.w.w.w.w.w.w.9.1 $ a.n.n.n.n.n.n.n.n.n.n.n.n.n.n.n.n.n.n.n.",
"n.n.n.n.n.n.n.n.1.O e w.w.w.w.w.w.w.w.p X &.n.b.n.n.n.n.n.b.n.d.% * 6.e.w.w.w.w.w.t.S . L n.b.n.n.n.n.n.n.n.n.n.n.n.n.n.n.n.n.n.",
"n.n.n.n.n.n.n.n.M O U t.w.w.w.w.w.r.-.% ; j.n.n.n.n.n.n.n.n.n.n.n . T t.w.w.w.w.w.r.=.$ 2 l.n.n.n.n.n.n.n.n.n.n.n.n.n.n.n.n.n.n.",
"n.n.n.n.n.n.n.f.& - 5.r.w.w.w.w.w.t.J . K n.n.n.n.n.n.n.n.n.b.n.<.O i w.w.w.w.w.w.w.w.p X >.n.n.n.n.n.n.n.n.n.n.n.n.n.n.n.n.n.n.",
"n.n.n.n.n.n.n.@.X V r.w.w.w.w.w.e.9.7 @ u.n.n.n.n.n.n.n.n.n.n.n.l.2 % ..r.w.w.w.w.w.t.! O n n.n.n.n.n.n.n.n.n.n.n.n.n.n.n.n.n.n.",
"n.n.n.n.n.n.v.r @ | t.w.w.w.w.w.r.} O t b.n.n.n.n.n.n.n.n.n.n.n.n.L . A r.w.w.w.w.w.e.7.; & d.n.n.n.n.n.n.n.n.n.n.n.n.n.n.n.n.n.",
"n.n.n.n.b.n.g.& < 9.w.w.w.w.w.w.e.c X #.n.b.n.n.n.n.n.n.n.n.n.n.n.s.$ 1 8.w.w.w.w.w.w.e.c X ,.n.n.n.n.n.n.n.n.n.n.n.n.n.n.n.n.n.",
"n.n.n.n.n.n.d.% 7 0.w.w.w.w.w.e.5.& - h.n.n.n.n.n.n.n.n.n.n.n.n.n.b.d O ~ y.w.w.w.w.q.r.A X ;.n.b.n.n.n.n.n.n.n.n.n.n.n.n.n.n.n.",
"n.n.n.n.n.n.k.; & 5.r.0.e.w.0.y.I O B n.n.n.n.n.n.n.n.n.n.n.n.n.n.n.&.O s e.w.w.w.w.w.w.u O 3.n.n.n.n.n.n.n.n.n.n.n.n.n.n.n.n.n.",
"n.n.n.n.n.n.n.B . Z r.e.w.w.y.5.1 O 3.n.n.n.n.n.n.n.n.n.n.n.n.n.n.n.k.; $ } y.w.w.e.y.! @ 2 z.n.n.n.n.n.n.n.n.n.n.n.n.n.n.n.n.n.",
"n.n.n.n.n.n.n.s.% @ Z 5.0.9.| 8 . n n.n.n.n.n.n.n.n.n.n.n.n.n.n.n.b.n.#.o * ! 7.w.7.U * O &.n.b.n.n.n.n.n.n.n.n.n.n.n.n.n.n.n.n.",
"n.n.n.n.n.n.n.n.,.% . & 7 1 @ X y k.n.b.n.n.n.n.n.n.n.n.n.n.n.n.n.n.n.n.K O O ; 7 ; O O X.n.n.n.n.n.n.n.n.n.n.n.n.n.n.n.n.n.n.n.",
"n.n.n.n.n.n.n.n.n.s.F : $ % r +.x.n.n.n.n.n.n.n.n.n.n.n.n.n.n.n.n.n.n.n.n.,.d & $ - v 1.n.n.n.n.n.n.n.n.n.n.n.n.n.n.n.n.n.n.n.n.",
"n.n.n.n.n.n.n.n.n.n.n.k.d.d.c.n.n.n.n.n.n.n.n.n.n.n.n.n.n.n.n.n.n.n.n.n.n.n.n.h.d.j.n.n.n.n.n.n.n.n.n.n.n.n.n.n.n.n.n.n.n.n.n.n.",
"n.n.n.n.n.n.n.n.n.n.n.n.n.n.n.n.n.n.n.n.n.n.n.n.n.n.n.n.n.n.n.n.n.n.n.n.n.b.n.n.n.n.n.n.n.n.n.n.n.n.n.n.n.n.n.n.n.n.n.n.n.n.n.n.",
"n.n.n.n.n.n.n.n.n.n.n.n.n.b.n.n.n.n.n.n.n.n.n.n.n.n.n.n.n.n.n.n.n.n.n.n.n.n.n.n.n.b.n.n.n.n.n.n.n.n.n.n.n.n.n.n.n.n.n.n.n.n.n.n.",
"n.n.n.n.n.n.n.n.n.n.n.n.n.n.n.n.n.n.n.n.n.n.n.n.n.n.n.n.n.n.n.n.n.n.n.n.n.n.n.n.n.n.n.n.n.n.n.n.n.n.n.n.n.n.n.n.n.n.n.n.n.n.n.n.",
"n.n.n.n.n.n.n.n.n.n.n.n.n.n.n.n.n.n.n.n.n.n.n.n.n.n.n.n.n.n.n.n.n.n.n.n.n.n.n.n.n.n.n.n.n.n.n.n.n.n.n.n.n.n.n.n.n.n.n.n.n.n.n.n.",
"n.n.n.n.n.n.n.n.n.n.n.n.n.n.n.n.n.n.n.n.n.n.n.n.n.n.n.n.n.n.n.n.n.n.n.n.n.n.n.n.n.n.n.n.n.n.n.n.n.n.n.n.n.n.n.n.n.n.n.n.n.n.n.n.",
"n.n.n.n.n.n.n.n.n.n.n.n.n.n.n.n.n.n.n.n.n.n.n.n.n.n.n.n.n.n.n.n.n.n.n.n.n.n.n.n.n.n.n.n.n.n.n.n.n.n.n.n.n.n.n.n.n.n.n.n.n.n.n.n."
};
