/* XPM */
static char *player__7_1710156991[] = {
/* columns rows colors chars-per-pixel */
"64 64 154 2 ",
"   c #00015A",
".  c #001564",
"X  c #001A65",
"o  c #001668",
"O  c #001D6A",
"+  c #002165",
"@  c #00236D",
"#  c #01286F",
"$  c #012571",
"%  c #052974",
"&  c #092B76",
"*  c #072B78",
"=  c #0C2E7A",
"-  c #102F79",
";  c #0F307B",
":  c #13327D",
">  c #19377F",
",  c #16387E",
"<  c #1B397F",
"1  c #0D2F80",
"2  c #0F3081",
"3  c #143383",
"4  c #1B3683",
"5  c #1D3A84",
"6  c #17368D",
"7  c #18368D",
"8  c #1B3791",
"9  c #1F3A95",
"0  c #223E83",
"q  c #243D8A",
"w  c #233C9B",
"e  c #244285",
"r  c #2B438C",
"t  c #2E4A8A",
"y  c #324D8D",
"u  c #34508E",
"i  c #38518F",
"p  c #2E4491",
"a  c #324694",
"s  c #374996",
"d  c #3B4B9A",
"f  c #375190",
"g  c #3B5491",
"h  c #3F5994",
"j  c #2B41A4",
"k  c #2E42AA",
"l  c #3547B2",
"z  c #3849B5",
"x  c #3B4AB9",
"c  c #424F9E",
"v  c #425C96",
"b  c #43519F",
"n  c #455E98",
"m  c #446098",
"M  c #4B639A",
"N  c #50669D",
"B  c #52699E",
"V  c #4651A1",
"C  c #4B55A4",
"Z  c #5359AA",
"A  c #5B5EB0",
"S  c #576DA1",
"D  c #596FA2",
"F  c #5D73A5",
"G  c #5D60B1",
"H  c #6074A6",
"J  c #6177A8",
"K  c #667AAA",
"L  c #6A7DAB",
"P  c #6465B6",
"I  c #6665B9",
"U  c #6967BA",
"Y  c #6C69BC",
"T  c #706CBF",
"R  c #414EC1",
"E  c #444FC8",
"W  c #4751CA",
"Q  c #4A52CF",
"!  c #4C54D0",
"~  c #5157D6",
"^  c #5258D7",
"/  c #5257D9",
"(  c #5358DA",
")  c #746EC1",
"_  c #7972C5",
"`  c #7E74C8",
"'  c #5B5CE6",
"]  c #5E5EEA",
"[  c #6260EE",
"{  c #6663F5",
"}  c #6864F7",
"|  c #6B66FB",
" . c #6F68FF",
".. c #7169FF",
"X. c #8276CB",
"o. c #8578CE",
"O. c #8C7CD2",
"+. c #917FD6",
"@. c #6F84B1",
"#. c #7385B1",
"$. c #7887B2",
"%. c #7488B3",
"&. c #7A8CB5",
"*. c #7B8EB8",
"=. c #7F91B9",
"-. c #8494BB",
";. c #8B9BBE",
":. c #8F9FC1",
">. c #9180D6",
",. c #9582D9",
"<. c #9C86DE",
"1. c #93A2C3",
"2. c #99A6C6",
"3. c #9CAAC8",
"4. c #A2AECB",
"5. c #A5B2CE",
"6. c #A8B4CF",
"7. c #ABB6D1",
"8. c #AEB9D2",
"9. c #B1BCD4",
"0. c #9F88E0",
"q. c #A48BE3",
"w. c #A98EE6",
"e. c #AB8FE8",
"r. c #AD91E9",
"t. c #B294ED",
"y. c #B797F0",
"u. c #B897F1",
"i. c #BB9AF4",
"p. c #C09DF7",
"a. c #C39EF9",
"s. c #C6A0FB",
"d. c #CAA3FE",
"f. c #D0A6FF",
"g. c #B7C1D7",
"h. c #B8C1D7",
"j. c #BCC5DA",
"k. c #BFC8DB",
"l. c #C3CBDE",
"z. c #C7CDE0",
"x. c #CCD3E3",
"c. c #D0D7E5",
"v. c #D3D9E7",
"b. c #D6DBE8",
"n. c #D9DEEA",
"m. c #DDE2ED",
"M. c #E2E6EF",
"N. c #E7EBF2",
"B. c #EAEEF4",
"V. c #EEF0F5",
"C. c #F1F4F7",
"Z. c #F4F6F9",
"A. c #F6F8FA",
"S. c #FFFFFF",
/* pixels */
"S.S.S.S.S.S.S.S.S.S.S.S.S.S.S.S.S.S.S.S.S.S.S.S.S.S.S.S.S.S.S.S.S.S.S.S.S.S.S.S.S.S.S.S.S.S.S.S.S.S.S.S.S.S.S.S.S.S.S.S.S.S.S.S.",
"S.S.S.S.S.S.S.S.S.S.S.S.S.S.S.S.S.S.S.S.S.S.S.S.S.S.S.S.S.S.S.S.S.S.S.S.S.S.S.S.S.S.S.S.A.S.S.S.S.S.S.S.S.S.S.S.S.S.S.S.S.S.S.S.",
"S.S.S.S.S.S.S.S.S.S.S.S.S.S.S.S.S.S.S.S.S.S.S.S.S.S.S.S.S.S.S.S.S.S.S.S.S.S.S.S.S.S.S.S.S.S.S.S.S.S.S.S.S.S.S.S.S.S.S.S.S.S.S.S.",
"S.S.S.S.S.S.S.S.S.S.S.S.S.S.S.S.S.S.S.S.S.S.S.S.S.S.S.S.S.S.S.S.S.S.S.S.S.S.S.S.S.S.M.k.l.B.S.S.S.S.S.S.S.S.S.S.S.S.S.S.S.S.S.S.",
"S.S.S.S.S.S.S.S.S.S.S.S.S.S.S.S.S.S.S.S.S.S.S.S.S.S.S.S.S.S.S.S.S.S.S.S.S.S.S.S.c.B ; O @ > L N.S.S.S.S.S.S.S.S.S.S.S.S.S.S.S.S.",
"S.S.S.S.S.S.S.S.S.S.S.S.S.S.S.S.S.S.S.S.S.S.S.S.S.S.S.S.S.S.S.S.S.S.S.S.S.A.S.g.& o % r q @ o 0 b.S.A.S.S.S.S.S.S.S.S.S.S.S.S.S.",
"S.S.S.S.S.S.S.S.S.S.S.S.S.S.S.S.S.S.S.S.S.S.S.S.S.S.S.S.S.S.S.S.S.S.S.S.S.S.M.: O C w.i.i.<.a X t A.S.S.S.S.S.S.S.S.S.S.S.S.S.S.",
"S.S.S.S.S.S.S.S.S.S.S.S.S.S.S.S.S.S.S.S.S.S.S.S.S.S.S.S.S.S.S.S.S.S.S.S.A.S.#.. d s.p.i.i.d.t.q o 3.S.S.S.S.S.S.S.S.S.S.S.S.S.S.",
"S.S.S.S.S.S.S.S.S.S.S.S.S.S.S.S.S.S.S.S.S.S.S.S.S.S.S.S.S.S.S.S.S.S.S.S.S.A.y O >.s.i.i.i.t.d.) o M S.S.S.S.S.S.S.S.S.S.S.S.S.S.",
"S.S.S.S.S.S.S.S.S.S.S.S.S.S.S.S.S.S.S.S.S.S.S.S.S.S.S.S.S.S.S.S.S.S.S.S.S.B., % w.p.i.i.i.i.a.q.% , B.S.S.S.S.S.S.S.S.S.S.S.S.S.",
"S.S.S.S.S.S.S.S.S.S.S.S.S.S.S.S.S.S.S.S.S.S.S.S.S.S.S.S.S.S.S.S.S.S.S.S.S.Z.e $ 0.p.i.i.i.i.i.p.r O 9.S.S.S.S.S.S.S.S.S.S.S.S.S.",
"S.S.S.S.S.S.S.S.S.S.S.S.S.S.S.S.S.S.S.S.S.S.S.S.S.S.S.S.S.S.S.S.S.S.S.S.S.S.B . ) d.u.i.i.i.i.d.A . #.S.A.S.S.S.S.S.S.S.S.S.S.S.",
"S.S.S.S.S.S.S.S.S.S.S.S.S.S.S.S.S.S.S.S.S.S.S.S.S.S.S.S.S.S.S.S.S.S.S.S.S.S.1.o b s.i.i.i.i.i.a.O.O y A.S.S.S.S.S.S.S.S.S.S.S.S.",
"S.S.S.S.S.S.S.S.S.S.S.S.S.S.S.S.S.S.S.S.S.S.S.S.S.S.S.S.S.S.S.S.S.S.S.S.S.S.c.% : t.p.i.i.i.u.i.t.: % v.S.S.S.S.S.S.S.S.S.S.S.S.",
"S.S.S.S.S.S.S.S.S.8.L C.S.S.S.S.S.S.S.S.S.S.S.S.S.S.S.S.S.S.S.S.S.S.S.S.S.S.S.y O O.a.u.i.y.p.a.f.d o 8.S.A.A.S.S.S.S.S.S.S.S.S.",
"S.S.S.S.S.S.S.S.S.M   2.S.S.S.S.S.S.S.S.S.S.S.S.S.S.S.S.S.S.S.S.S.S.S.S.S.A.S.#.. A f.i.p.d.e.O.o.p O 9.S.S.S.S.S.S.S.S.S.S.S.S.",
"S.S.S.S.S.S.S.S.S.3.o h S.A.A.S.S.S.S.S.S.S.S.S.S.S.S.S.S.S.S.S.S.S.S.S.S.A.S.l.@ 5 <.e.r.Z = @ X # % i #.5.c.A.S.S.S.S.S.S.S.S.",
"S.S.S.S.S.S.S.S.S.N., O x.S.S.S.S.S.S.S.S.S.S.S.S.S.S.S.S.S.S.S.S.S.S.S.S.S.S.9.= $ $ = : @ $ 8 w 7 & O . X % t ;.S.S.S.S.S.S.S.",
"S.S.S.S.S.S.S.S.S.S.#.. D 5.2.z.S.S.A.S.S.S.S.S.S.S.S.S.S.S.S.S.S.S.S.S.S.S.;.@ @ * 5 * @ 3 ( |  .} ' Q z w 2 + . M A.S.S.S.S.S.",
"S.S.S.S.S.S.S.S.S.S.$.$ @ . o @ v x.S.S.S.S.S.S.S.S.S.S.S.S.S.S.S.S.S.S.S.8.O @ Z r.,.% * '  .{ { } | .. .| { W : o L S.S.S.S.S.",
"S.S.S.S.S.S.S.S.S.$.O @ q b c : o & l.S.S.S.S.S.S.S.S.S.S.S.S.S.S.S.S.S.B.5 + P d.d.Y O j  .{ { } } { { { } | ..^ & $ x.S.S.S.S.",
"S.S.S.S.S.S.A.S.8.O % T p.s.a.t.c O 0 B.S.S.S.S.S.S.S.S.S.S.S.S.S.S.S.S.B o a p.u.s.G X x  .{ { } } } } } } { {  .j . -.S.A.S.S.",
"S.S.S.S.S.S.S.S.v . P f.i.u.i.a.p.r o :.S.A.S.S.S.S.S.S.S.S.S.S.S.S.S.3.O = 0.s.t.d.P + k  .{ { } } } } } } } {  .Z . K S.A.S.S.",
"S.S.S.S.S.S.S.M.= = e.p.i.i.i.u.d.` X u S.S.S.S.S.S.S.S.S.S.S.S.S.S.m.: + T d.u.i.s.,.@ = ]  .{ { { } } } } } { | x . %.S.S.S.S.",
"S.S.S.S.S.A.S.x.$ 5 i.i.i.i.i.i.i.t.4 O h.S.S.S.S.S.S.S.S.S.S.S.A.S.M o s a.i.i.i.i.p.d O 7 '  . . .| { { { { } } 6 O 5.S.S.S.S.",
"S.S.S.S.S.S.S.M.= = r.p.i.i.i.i.u.d.G o F S.S.S.S.S.S.S.S.S.S.A.S.1.X : e.a.i.i.i.i.p.w.4 @ = j x ^ [ |  . ...} k O e C.S.S.S.S.",
"S.S.S.S.S.S.S.S.v X ) d.u.i.i.i.i.a.0.% - m.S.S.S.S.S.S.S.S.S.S.b.= @ _ d.i.i.i.i.i.i.d.,.% $ . O @ = 9 l R x 7 @ $ h.S.A.S.S.S.",
"S.S.S.S.S.S.S.S.3.o p i.i.p.i.i.i.i.a.d o -.S.A.S.S.S.S.S.S.S.S.M . b d.u.i.i.i.i.i.i.p.b X v 3.F y & + . . . O e j.S.S.S.S.S.S.",
"S.S.S.S.S.S.S.S.B.5 @ +.s.u.i.i.i.i.d.X.X y S.S.S.S.S.S.S.S.S.l.@ : r.p.i.i.i.i.i.i.d.) @ ; n.S.S.A.m.7.*.F #.5.Z.S.S.S.S.S.S.S.",
"S.S.S.S.S.S.S.A.S.#.. C d.u.i.i.i.i.p.r.: % i i i i g g i u v e O b d.u.i.i.i.i.i.p.q.: X 2.S.A.S.S.S.S.S.S.S.S.S.S.S.S.S.S.S.S.",
"S.S.S.S.S.S.S.S.S.x.$ = e.p.i.i.i.i.p.t.3 $ @ @ @ O @ O @ O O % @ Z a.i.i.i.i.i.i.p.s o N S.A.S.S.S.S.S.A.S.S.A.S.S.S.S.S.S.S.S.",
"S.S.S.S.S.S.S.S.S.S.M o Y d.y.i.i.t.d.,.@ 2 ~ ^ ~ ~ ~ ^ ^ ~ ( z O d d.u.i.i.i.y.d.Y O > M.S.S.S.S.S.S.S.S.S.S.S.S.S.S.S.S.S.S.S.",
"S.S.S.S.S.S.S.S.S.S.6.O , q.d.p.i.s.p.a + k ..|  .| |  . .|  .] % $ >.d.p.s.p.d.<.= O 5.S.A.S.S.S.S.S.S.S.S.S.S.S.S.S.S.S.S.S.S.",
"S.S.S.S.S.S.S.S.S.S.S.n o 4 X.r.t.+.a @ = ] | { { { } { { } {  .k + 3 O.t.<.r.+.4 . F S.S.S.S.S.S.S.S.S.S.S.S.S.S.S.S.S.S.S.S.S.",
"S.S.S.S.S.S.S.S.S.S.S.C.u @ @ & ; % @ 3 ( ..{ } } } } } } } } } { w $ % : $ = % @ n Z.S.S.S.S.S.S.S.S.S.S.S.S.S.S.S.S.S.S.S.S.S.",
"S.S.S.S.S.S.S.S.S.A.S.k.4 @ % : = $ @ 7 { | { } } } } } } } } { ..l # @ * 5 ; @ O D S.S.S.S.S.S.S.S.S.S.S.S.S.S.S.S.S.S.S.S.S.S.",
"S.S.S.S.S.S.S.S.S.S.m.= O d ,.t.r.X.4 @ 9 | { } } } } } } } {  .E @ $ A r.i.t.) ; . #.S.A.S.S.S.S.S.S.S.S.S.S.S.S.S.S.S.S.S.S.S.",
"S.S.S.S.S.S.S.S.S.S.D . d s.s.p.i.d.q.: @ Q  .{ } } } } } } } { 3 @ U f.i.i.i.d.O.$ $ x.S.S.S.S.S.S.S.S.S.S.S.S.S.S.S.S.S.S.S.S.",
"S.S.S.S.S.S.S.S.S.l.@ & q.a.u.i.i.y.d.I O j  .} } } } } } }  ./ @ 5 i.i.i.i.i.i.d.Z o n S.S.S.S.S.S.S.S.S.S.S.S.S.S.S.S.S.S.S.S.",
"S.S.S.S.S.S.S.A.S.v o A d.u.i.p.i.i.a.+.$ = 7 6 8 7 7 8 7 6 7 3 @ V a.i.i.i.i.i.p.r.: O 4.S.S.S.S.S.S.S.S.S.S.S.S.S.S.S.S.S.S.S.",
"S.S.S.S.S.S.S.S.5.X 4 t.i.i.i.i.i.i.d.o.@ % @ @ @ @ @ @ @ @ @ % @ a s.i.i.i.i.i.i.d.T O e V.S.S.S.S.S.S.S.S.S.S.S.S.S.S.S.S.S.S.",
"S.S.S.S.S.S.S.C.t O Y d.u.i.i.i.i.u.d.C . J b.l.z.z.z.z.z.z.x.9.& = q.i.i.i.i.i.i.i.p.r o $.S.A.S.S.S.S.S.S.S.S.S.S.S.S.S.S.S.S.",
"S.S.S.S.S.A.S.;.o q i.i.i.p.i.i.i.a.<.% % c.S.S.S.S.S.S.S.S.S.S.B o C s.y.i.i.i.i.u.a.+.$ & c.S.S.S.S.S.S.S.S.S.S.S.S.S.S.S.S.S.",
"S.S.S.S.S.S.N., @ X.s.u.i.i.i.i.i.a.d . K S.A.S.A.S.S.S.S.S.A.S.n.= $ O.s.i.i.i.i.i.u.d.C X M S.S.S.S.S.S.S.S.S.S.S.S.S.S.S.S.S.",
"S.S.S.S.S.S.@.. s a.i.i.i.i.i.i.a.O.@ : m.S.S.S.S.S.S.S.S.S.S.S.S.=.o r i.i.i.i.i.i.i.p.w.: O 7.S.A.S.S.S.S.S.S.S.S.S.S.S.S.S.S.",
"S.S.S.S.S.n.= $ ,.s.i.i.i.i.i.i.p.r o =.S.A.S.S.S.S.S.S.S.S.S.S.S.Z.e O T d.i.i.i.i.i.i.d.I o g S.S.S.S.S.S.S.S.S.S.S.S.S.S.S.S.",
"S.S.S.S.S.1.. d a.u.i.i.i.i.u.d._ X 0 V.S.S.S.S.S.S.S.S.S.S.S.S.A.S.6.O : r.p.i.i.i.i.i.i.t.: % c.S.S.S.S.S.S.S.S.S.S.S.S.S.S.S.",
"S.S.S.A.S.@.. U d.i.p.i.i.i.p.t.4 O 2.S.S.S.S.S.S.S.S.S.S.S.S.S.S.S.S.M o C d.i.i.i.p.i.i.p.r O h.S.S.S.S.S.S.S.S.S.S.S.S.S.S.S.",
"S.S.S.S.S.&.. A d.u.i.i.i.u.d.P O g S.S.S.S.S.S.S.S.S.S.S.S.S.S.S.S.S.x.% @ ,.a.i.i.i.i.i.i.5 @ x.S.S.S.S.S.S.S.S.S.S.S.S.S.S.S.",
"S.S.S.A.S.7.O q p.i.u.u.u.s.w.; O 9.S.A.S.S.S.S.S.S.S.S.S.S.S.S.S.S.S.S.%.o a p.i.y.i.y.d.o.O e Z.S.S.S.S.S.S.S.S.S.S.S.S.S.S.S.",
"S.S.S.S.S.C.e O Z s.d.s.d.i.s X M S.S.S.S.S.S.S.S.S.S.S.S.S.S.S.S.S.S.S.C.5 O Z i.d.d.s.,.4 o -.S.A.S.S.S.S.S.S.S.S.S.S.S.S.S.S.",
"S.S.S.S.S.S.8.O O a ) O.U q X : n.S.S.S.S.S.S.S.S.S.S.S.S.S.S.S.S.S.S.S.S.h.@ O e G U b % o n A.S.S.S.S.S.S.S.S.S.S.S.S.S.S.S.S.",
"S.S.S.S.S.S.S.7.< o . X . o t x.S.A.S.S.S.S.S.S.S.S.S.S.S.S.S.S.S.S.S.S.A.S.j.t O . . . % L Z.S.S.S.S.S.S.S.S.S.S.S.S.S.S.S.S.S.",
"S.S.S.S.S.S.S.S.B.:.S M K 4.Z.S.S.S.S.S.S.S.S.S.S.S.S.S.S.S.S.S.S.S.S.S.S.S.S.A.9.-.#.:.c.S.S.S.S.S.S.S.S.S.S.S.S.S.S.S.S.S.S.S.",
"S.S.S.S.S.S.S.S.S.S.S.S.S.S.S.S.S.S.S.S.S.S.S.S.S.S.S.S.S.S.S.S.S.S.S.S.S.S.A.S.S.S.S.S.S.S.S.S.S.S.S.S.S.S.S.S.S.S.S.S.S.S.S.S.",
"S.S.S.S.S.S.S.S.S.A.A.S.S.A.S.S.S.S.S.S.S.S.S.S.S.S.S.S.S.S.S.S.S.S.S.S.S.S.S.S.S.A.S.A.S.S.S.S.S.S.S.S.S.S.S.S.S.S.S.S.S.S.S.S.",
"S.S.S.S.S.S.S.S.S.S.S.S.S.S.S.S.S.S.S.S.S.S.S.S.S.S.S.S.S.S.S.S.S.S.S.S.S.S.S.S.S.S.S.S.S.S.S.S.S.S.S.S.S.S.S.S.S.S.S.S.S.S.S.S.",
"S.S.S.S.S.S.S.S.S.S.S.S.S.S.S.S.S.S.S.S.S.S.S.S.S.S.S.S.S.S.S.S.S.S.S.S.S.S.S.S.S.S.S.S.S.S.S.S.S.S.S.S.S.S.S.S.S.S.S.S.S.S.S.S.",
"S.S.S.S.S.S.S.S.S.S.S.S.S.S.S.S.S.S.S.S.S.S.S.S.S.S.S.S.S.S.S.S.S.S.S.S.S.S.S.S.S.S.S.S.S.S.S.S.S.S.S.S.S.S.S.S.S.S.S.S.S.S.S.S.",
"S.S.S.S.S.S.S.S.S.S.S.S.S.S.S.S.S.S.S.S.S.S.S.S.S.S.S.S.S.S.S.S.S.S.S.S.S.S.S.S.S.S.S.S.S.S.S.S.S.S.S.S.S.S.S.S.S.S.S.S.S.S.S.S.",
"S.S.S.S.S.S.S.S.S.S.S.S.S.S.S.S.S.S.S.S.S.S.S.S.S.S.S.S.S.S.S.S.S.S.S.S.S.S.S.S.S.S.S.S.S.S.S.S.S.S.S.S.S.S.S.S.S.S.S.S.S.S.S.S.",
"S.S.S.S.S.S.S.S.S.S.S.S.S.S.S.S.S.S.S.S.S.S.S.S.S.S.S.S.S.S.S.S.S.S.S.S.S.S.S.S.S.S.S.S.S.S.S.S.S.S.S.S.S.S.S.S.S.S.S.S.S.S.S.S.",
"S.S.S.S.S.S.S.S.S.S.S.S.S.S.S.S.S.S.S.S.S.S.S.S.S.S.S.S.S.S.S.S.S.S.S.S.S.S.S.S.S.S.S.S.S.S.S.S.S.S.S.S.S.S.S.S.S.S.S.S.S.S.S.S.",
"S.S.S.S.S.S.S.S.S.S.S.S.S.S.S.S.S.S.S.S.S.S.S.S.S.S.S.S.S.S.S.S.S.S.S.S.S.S.S.S.S.S.S.S.S.S.S.S.S.S.S.S.S.S.S.S.S.S.S.S.S.S.S.S."
};
