/* XPM */
static char *player__32_1710156994[] = {
/* columns rows colors chars-per-pixel */
"64 64 146 2 ",
"   c #000C62",
".  c #001563",
"X  c #001B66",
"o  c #001C6A",
"O  c #002065",
"+  c #00236D",
"@  c #02296F",
"#  c #012571",
"$  c #052A74",
"%  c #092C76",
"&  c #0C2E79",
"*  c #102E78",
"=  c #0E307A",
"-  c #13337D",
";  c #17387E",
":  c #1A397F",
">  c #143382",
",  c #1A3782",
"<  c #1D3983",
"1  c #17358A",
"2  c #19368C",
"3  c #1B388F",
"4  c #1E3894",
"5  c #213C85",
"6  c #243D8A",
"7  c #213C97",
"8  c #243C9C",
"9  c #283FA3",
"0  c #264386",
"q  c #294489",
"w  c #2D4A8A",
"e  c #314D8C",
"r  c #35508F",
"t  c #2E4390",
"y  c #334694",
"u  c #364996",
"i  c #394A97",
"p  c #3D4C9B",
"a  c #3A5391",
"s  c #3F5894",
"d  c #2A41A2",
"f  c #3245AD",
"g  c #3547B1",
"h  c #3748B3",
"j  c #394AB6",
"k  c #3C4ABB",
"l  c #404E9D",
"z  c #425B95",
"x  c #43519F",
"c  c #455F99",
"v  c #476099",
"b  c #4D649C",
"n  c #536A9F",
"m  c #454FA0",
"M  c #4552A1",
"N  c #4A54A4",
"B  c #4E58A7",
"V  c #545AAA",
"C  c #595EAE",
"Z  c #5C5FB0",
"A  c #566CA1",
"S  c #5A6FA3",
"D  c #5C72A5",
"F  c #5F61B4",
"G  c #6276A7",
"H  c #6679A9",
"J  c #6C7FAD",
"K  c #6363B5",
"L  c #6666B9",
"P  c #6867B9",
"I  c #6A69BB",
"U  c #706CBE",
"Y  c #3F4CC0",
"T  c #4651CA",
"R  c #4953CD",
"E  c #5157D9",
"W  c #5559DD",
"Q  c #736EC1",
"!  c #7A72C6",
"~  c #7E74C9",
"^  c #5659E0",
"/  c #595CE3",
"(  c #6260EE",
")  c #6663F5",
"_  c #6864F7",
"`  c #6B66FB",
"'  c #6F68FF",
"]  c #736AFF",
"[  c #8276CC",
"{  c #877ACF",
"}  c #8D7DD3",
"|  c #917FD5",
" . c #6D82AF",
".. c #7283AF",
"X. c #7487B3",
"o. c #7589B4",
"O. c #7A8CB6",
"+. c #7F90B7",
"@. c #7F91B9",
"#. c #8595BB",
"$. c #8698BE",
"%. c #8A9ABE",
"&. c #8E9EC1",
"*. c #9281D6",
"=. c #9582D9",
"-. c #9D87DE",
";. c #9E88DF",
":. c #94A3C4",
">. c #9DABC9",
",. c #A4AFCC",
"<. c #A5B2CD",
"1. c #A8B4CF",
"2. c #AAB6D0",
"3. c #AEBAD2",
"4. c #B3BDD5",
"5. c #9F89E0",
"6. c #A48BE3",
"7. c #A98FE7",
"8. c #AD91E9",
"9. c #B395EE",
"0. c #B797F0",
"q. c #B897F1",
"w. c #BB9AF4",
"e. c #C09DF7",
"r. c #C39EF9",
"t. c #C6A0FB",
"y. c #CAA3FE",
"u. c #D1A7FF",
"i. c #B6C1D7",
"p. c #BDC7DB",
"a. c #C4CCDE",
"s. c #C7CEE0",
"d. c #C8CFE0",
"f. c #CDD3E3",
"g. c #D3D9E7",
"h. c #D5DBE8",
"j. c #D8DEE9",
"k. c #DEE2ED",
"l. c #E1E5EF",
"z. c #E6E9F1",
"x. c #EAEDF3",
"c. c #EDF0F5",
"v. c #F0F2F6",
"b. c #F3F5F9",
"n. c #F7F9FB",
"m. c #FFFFFF",
/* pixels */
"m.m.m.m.m.m.m.m.m.m.m.m.m.m.m.m.m.m.m.m.m.m.m.m.m.m.m.m.m.m.m.m.m.m.m.m.m.m.m.m.m.m.m.m.m.m.m.m.m.m.m.m.m.m.m.m.m.m.m.m.m.m.m.m.",
"m.m.m.m.m.m.m.m.m.m.m.m.m.m.m.m.m.m.m.m.m.m.m.m.m.m.m.m.m.m.m.m.m.m.m.m.m.m.m.m.m.m.m.m.m.m.m.m.m.m.m.m.m.m.m.m.m.m.m.m.m.m.m.m.",
"m.m.m.m.m.m.m.m.m.m.m.m.m.m.m.m.m.m.m.m.m.m.m.m.m.m.m.m.m.m.m.m.m.m.m.m.m.m.m.m.m.m.m.n.n.m.n.m.m.m.m.m.m.m.m.m.m.m.m.m.m.m.m.m.",
"m.m.m.m.m.m.m.m.m.m.m.m.m.m.m.m.m.m.m.m.m.m.m.m.m.m.m.m.m.m.m.m.m.m.m.m.m.m.m.m.m.m.m.m.m.m.m.m.m.m.m.m.m.m.m.m.m.m.m.m.m.m.m.m.",
"m.m.m.m.m.m.m.m.m.m.m.m.m.m.m.m.m.m.m.m.m.m.m.m.m.m.m.m.m.m.m.m.m.m.m.m.m.m.m.m.m.m.h.:.o.#.4.n.m.n.m.m.m.m.m.m.m.m.m.m.m.m.m.m.",
"m.m.m.m.m.m.m.m.m.m.m.m.m.m.m.m.m.m.m.m.m.m.m.m.m.m.m.m.m.m.m.m.m.m.m.m.m.m.m.m.n.J % . . . o e d.m.n.m.m.m.m.m.m.m.m.m.m.m.m.m.",
"m.m.m.m.m.m.m.m.m.m.m.m.m.m.m.m.m.m.m.m.m.m.m.m.m.m.m.m.m.m.m.m.m.m.m.m.m.m.m.m.b . % M P C < o % a.m.m.m.m.m.m.m.m.m.m.m.m.m.m.",
"m.m.m.m.m.m.m.m.m.m.m.m.m.m.m.m.m.m.m.m.m.m.m.m.m.m.m.m.m.m.m.m.m.m.m.m.m.n.m.:.. , | y.r.y.0.M o q n.m.m.m.m.m.m.m.m.m.m.m.m.m.",
"m.m.m.m.m.m.m.m.m.m.m.m.m.m.m.m.m.m.m.m.m.m.m.m.m.m.m.m.m.m.m.m.m.m.m.m.m.m.n.w o ~ y.q.w.q.r.w.5 o 2.m.n.m.m.m.m.m.m.m.m.m.m.m.",
"m.m.m.m.m.m.m.m.m.m.m.m.m.m.m.m.m.m.m.m.m.m.m.m.m.m.m.m.m.m.m.m.m.m.m.m.m.m.g.$ - 9.w.w.w.w.q.y.P . S m.m.m.m.m.m.m.m.m.m.m.m.m.",
"m.m.m.m.m.m.m.m.m.m.m.m.m.m.m.m.m.m.m.m.m.m.m.m.m.m.m.m.m.m.m.m.m.m.m.m.m.m.d.+ 6 w.w.w.w.w.w.r.5.# - x.m.m.m.m.m.m.m.m.m.m.m.m.",
"m.m.m.m.m.m.m.m.m.m.m.m.m.m.m.m.m.m.m.m.m.m.m.m.m.m.m.m.m.m.m.m.m.m.m.m.m.m.l.% & 8.r.w.w.w.w.w.w.y X <.m.n.m.m.m.m.m.m.m.m.m.m.",
"m.m.m.m.m.m.m.m.m.m.m.m.m.m.m.m.m.m.m.m.m.m.m.m.m.m.m.m.m.m.m.m.m.m.m.m.m.m.m.z X ~ y.q.w.w.w.w.y.I . A m.m.m.m.m.m.m.m.m.m.m.m.",
"m.m.m.m.m.m.m.m.m.k.4.m.m.m.m.m.m.m.m.m.m.m.m.m.m.m.m.m.m.m.m.m.m.m.m.m.m.m.m.&.. p r.w.w.w.w.q.e.6.$ - z.m.m.m.m.m.m.m.m.m.m.m.",
"m.m.m.m.m.m.m.n.m.n   4.m.m.m.m.m.m.m.m.m.m.m.m.m.m.m.m.m.m.m.m.m.m.m.m.m.m.m.h.% & 7.w.w.w.w.q.q.w.t o 4.m.m.m.m.m.m.m.m.m.m.m.",
"m.m.m.m.m.m.m.m.m.O.. A m.n.m.m.m.m.m.m.m.m.m.m.m.m.m.m.m.m.m.m.m.m.m.m.m.m.m.m.z X ! u.w.w.e.y.r.u.N . ,.m.n.m.m.m.m.m.m.m.m.m.",
"m.m.m.m.m.m.m.m.m.j.$ & l.m.m.m.m.m.m.m.m.m.m.m.m.m.m.m.m.m.m.m.m.m.m.m.m.m.m.m.>.. i 8.8.e.q.Q N M < o 2.m.m.m.m.m.m.m.m.m.m.m.",
"m.m.m.m.m.m.m.m.m.m.n . #.z.j.n.m.m.m.m.m.m.m.m.m.m.m.m.m.m.m.m.m.m.m.m.m.m.m.m.<.$ $ $ & u 6 O X O + # : D 1.x.m.m.m.m.m.m.m.m.",
"m.m.m.m.m.m.m.m.n.m.>.o % $ $ e %.n.m.m.m.m.m.m.m.m.m.m.m.m.m.m.m.m.m.m.m.n.m.%.# # $ - & # + 2 Y R h 2 # . X - S a.m.m.m.m.m.m.",
"m.m.m.m.m.m.m.m.m.3.= + # > - o . a z.m.m.m.m.m.m.m.m.m.m.m.m.m.m.m.m.m.n.m.>.o # B 6.9.6 + d _ ' ' ' _ W j 4 # . + #.m.m.m.m.m.",
"m.m.m.m.m.m.m.m.g.% o p -.q.9.[ 5 . c m.m.m.m.m.m.m.m.m.m.m.m.m.m.m.m.n.m.p.# o L y.y.| + > ) _ ) ) ) _ ' ' _ / f $ o >.m.m.m.m.",
"m.m.m.m.m.m.m.m.D . x t.t.w.w.y.6.- o 4.m.n.m.m.m.m.m.m.m.m.m.m.m.m.m.m.j.> o V r.q.r.P X f ' ) _ ) _ _ ) ) ) ' ' k O 0 c.m.m.m.",
"m.m.m.m.m.m.m.x.; # ;.t.q.w.w.q.y.P . b m.m.m.m.m.m.m.m.m.m.m.m.m.m.m.x.q X i e.w.w.y.K X h ' ) _ _ _ _ _ _ _ ) ) _ 2 X 2.m.n.m.",
"m.m.m.m.m.m.m.f.$ < q.w.w.w.w.w.e.7.% $ g.m.m.m.m.m.m.m.m.m.m.m.m.m.m.c X 6 0.e.w.w.r.! X 4 ' ) ) _ _ _ _ _ _ _ ) ] f . $.m.m.m.",
"m.m.m.m.m.m.m.j.$ > 9.w.w.w.w.w.q.t.N . O.m.m.m.m.m.m.m.m.m.m.m.m.m.H X - 7.r.w.w.q.e.8.- + T ] _ _ _ _ _ _ _ _ ) ' f . %.m.m.m.",
"m.m.m.m.m.m.m.n.w o { y.w.w.w.w.q.y.} o 5 v.m.m.m.m.m.m.m.m.m.m.m.+.o $ | r.q.w.r.w.q.y.L O % k ( ` ' ` ) ) ) ) _ ) 1 o 4.m.m.m.",
"m.m.m.m.m.m.n.m.#.. x t.q.w.w.w.w.w.w.q X ,.m.n.n.m.n.m.m.n.n.m.4.o # ! y.w.w.w.w.w.w.q.t.p # + & 9 T / ' ' ' ' ' f O q n.m.m.m.",
"m.m.m.m.m.m.m.m.j.% $ 6.t.w.w.w.w.q.y.Q . v m.m.m.m.m.m.m.m.m.m.r X F y.q.w.w.w.w.w.q.r.6., + q % . o > t T W R 7 + + 4.m.n.m.m.",
"m.m.m.m.m.m.m.m.m.n . K y.q.w.w.w.w.e.7.% & o.+.O.O.O.O.O.o.#. .# > 9.w.w.w.w.w.w.w.e.9.5 . b m.g.$.s % . X o X . - ,.m.m.m.m.m.",
"m.m.m.m.m.m.m.m.m.4.o < q.w.w.w.w.w.w.0.> # . . . . . . . . . O # u e.w.w.w.w.w.w.w.e.y X e b.m.m.m.m.h.&.A a z +.l.m.m.m.m.m.m.",
"m.m.m.m.m.m.m.m.m.n.e o [ y.q.w.w.w.e.6.$ & j j j j j j j j j d + q e.w.w.w.w.w.q.t.N o , l.m.m.m.n.m.m.m.m.n.m.m.m.m.m.m.m.m.m.",
"m.m.m.m.m.m.m.m.m.m.%.. t w.t.q.w.w.y.C X 8 ] ' ' ' ' ' ] ` ] ( % % 6.t.w.e.w.w.y.K o % s.m.n.m.m.m.m.m.n.m.m.m.m.m.m.m.m.m.m.m.",
"m.m.m.m.m.m.m.m.m.m.c.< X p 8.r.r.0.F + @ E _ ) ) ) ) ) ) ) ) ' 9 X y w.w.9.0.y.Q + o <.m.n.m.m.m.m.m.m.m.m.m.m.m.m.m.m.m.m.m.m.",
"m.m.m.m.m.m.m.m.m.m.m.f., # * u p < + $ k ' _ _ _ _ _ _ ) _ ) _ ^ > + 6 t > 5 u $ # $.m.m.m.m.m.m.m.m.m.m.m.m.m.m.m.m.m.m.m.m.m.",
"m.m.m.m.m.m.m.m.m.m.m.k.0 # + + o O $ 4 ' _ _ _ _ _ _ _ _ _ _ ) ] Y # + o $ # o # r m.m.m.m.m.m.m.m.m.m.m.m.m.m.m.m.m.m.m.m.m.m.",
"m.m.m.m.m.m.m.m.m.m.x.5 . 6 ! 5.=.V $ + g ' ) ) _ _ _ _ _ _ _ ` ^ % + y } 6.-.Z % o O.m.n.m.m.m.m.m.m.m.m.m.m.m.m.m.m.m.m.m.m.m.",
"m.m.m.m.m.m.m.m.n.m.G . q w.y.e.t.y.[ $ @ W _ ) ) ) ) ) ) ) ) _ 7 X m r.y.e.e.u.[ + # d.m.m.m.m.m.m.m.m.m.m.m.m.m.m.m.m.m.m.m.m.",
"m.m.m.m.m.m.m.m.m.a.+ $ -.t.0.w.w.0.y.N O h ] ] ' ' ' ' ' ] ] ( % & 7.r.0.q.w.q.y.B o a m.m.m.m.m.m.m.m.m.m.m.m.m.m.m.m.m.m.m.m.",
"m.m.m.m.m.m.m.m.m.a X C y.q.w.w.w.w.y.[ O , h f g f h g g f h d # y e.w.w.w.w.w.w.9.< . %.m.n.m.m.m.m.m.m.m.m.m.m.m.m.m.m.m.m.m.",
"m.m.m.m.m.m.n.m.:.X < 9.r.w.w.w.w.q.t.[ + @ . . . . . . . . . X # q e.w.w.w.w.w.q.y.[ + & h.m.m.m.m.m.m.m.m.m.m.m.m.m.m.m.m.m.m.",
"m.m.m.m.m.m.m.z.< o ! y.q.w.w.r.w.w.r.V o c &.$.$.$.$.$.$.$.$.@.& $ 6.e.w.w.w.w.w.w.r.M . b m.m.m.m.m.m.m.m.m.m.m.m.m.m.m.m.m.m.",
"m.m.m.m.m.m.m.J . u r.q.w.w.w.w.w.e.6.% o f.m.m.m.m.m.m.m.m.m.m.n . M y.w.w.w.w.w.w.e.7.* o >.m.m.m.m.m.m.m.m.m.m.m.m.m.m.m.m.m.",
"m.m.m.m.m.m.a.# $ =.t.w.w.w.w.w.w.y.p . D m.n.n.m.n.n.m.m.n.n.m.g.& + [ r.w.w.w.w.w.w.y.Q o : l.m.m.m.m.m.m.m.m.m.m.m.m.m.m.m.m.",
"m.m.m.m.m.m.z X V y.q.w.w.w.w.w.r.[ + - l.m.m.m.m.m.m.m.m.m.m.m.m.$.o < 0.w.w.w.w.w.w.w.r.u . G m.n.m.m.m.m.m.m.m.m.m.m.m.m.m.m.",
"m.m.m.n.m.2.o > 8.e.w.w.w.w.w.w.q.6 . #.m.n.m.m.m.m.m.m.m.m.m.m.m.m.a . V y.w.w.w.w.e.w.r.5.% # f.m.m.m.m.m.m.m.m.m.m.m.m.m.m.m.",
"m.m.m.m.m.A . P y.q.w.w.w.w.q.y.K X e n.m.m.m.m.m.m.m.m.m.m.m.m.n.m.a.# # | r.w.w.w.w.w.w.r.N . $.m.n.m.m.m.m.m.m.m.m.m.m.m.m.m.",
"m.m.m.m.m.e o =.t.q.w.w.w.w.e.7.& o 4.m.m.m.m.m.m.m.m.m.m.m.m.m.m.n.m.X.. q w.w.w.w.w.w.w.r.I .  .m.m.m.m.m.m.m.m.m.m.m.m.m.m.m.",
"m.m.m.m.m.a o | t.w.w.w.w.w.t.M . A m.m.m.m.m.m.m.m.m.m.m.m.m.m.m.m.m.b.q o K y.w.w.w.w.q.y.Z . +.m.m.m.m.m.m.m.m.m.m.m.m.m.m.m.",
"m.m.m.m.m.H . C y.q.w.q.q.y.} + * j.m.m.m.m.m.m.m.m.m.m.m.m.m.m.m.m.m.m.i.o $ -.r.q.w.w.r.9.< o 4.m.n.m.m.m.m.m.m.m.m.m.m.m.m.m.",
"m.m.m.m.m.p.o % } y.r.r.y.7.< . O.m.m.m.m.m.m.m.m.m.m.m.m.m.m.m.m.m.m.n.m.G . 6 7.u.r.r.9.p o e m.m.m.m.m.m.m.m.m.m.m.m.m.m.m.m.",
"m.m.m.m.m.m.J . $ V | =.P ; o e n.m.m.m.m.m.m.m.m.m.m.m.m.m.m.m.m.m.m.m.m.c.w . * B I C , X * f.m.m.m.m.m.m.m.m.m.m.m.m.m.m.m.m.",
"m.m.m.m.m.m.m...+ . o o . o z z.m.m.m.m.m.m.m.m.m.m.m.m.m.m.m.m.m.m.m.m.m.m.z.b + . . . o r f.m.n.m.m.m.m.m.m.m.m.m.m.m.m.m.m.m.",
"m.m.m.m.m.m.m.m.a.J z a S <.m.m.m.m.m.m.m.m.m.m.m.m.m.m.m.m.m.m.m.m.m.m.m.m.m.m.s.#.J O.4.m.m.m.m.m.m.m.m.m.m.m.m.m.m.m.m.m.m.m.",
"m.m.m.m.m.m.m.m.m.m.m.n.m.m.m.m.m.m.m.m.m.m.m.m.m.m.m.m.m.m.m.m.m.m.m.m.m.m.m.m.m.m.m.m.m.m.n.m.m.m.m.m.m.m.m.m.m.m.m.m.m.m.m.m.",
"m.m.m.m.m.m.m.m.m.m.m.m.m.m.m.m.m.m.m.m.m.m.m.m.m.m.m.m.m.m.m.m.m.m.m.m.m.m.m.m.m.n.m.n.m.m.m.m.m.m.m.m.m.m.m.m.m.m.m.m.m.m.m.m.",
"m.m.m.m.m.m.m.m.m.m.m.m.m.m.m.m.m.m.m.m.m.m.m.m.m.m.m.m.m.m.m.m.m.m.m.m.m.m.m.m.m.m.m.m.m.m.m.m.m.m.m.m.m.m.m.m.m.m.m.m.m.m.m.m.",
"m.m.m.m.m.m.m.m.m.m.m.m.m.m.m.m.m.m.m.m.m.m.m.m.m.m.m.m.m.m.m.m.m.m.m.m.m.m.m.m.m.m.m.m.m.m.m.m.m.m.m.m.m.m.m.m.m.m.m.m.m.m.m.m.",
"m.m.m.m.m.m.m.m.m.m.m.m.m.m.m.m.m.m.m.m.m.m.m.m.m.m.m.m.m.m.m.m.m.m.m.m.m.m.m.m.m.m.m.m.m.m.m.m.m.m.m.m.m.m.m.m.m.m.m.m.m.m.m.m.",
"m.m.m.m.m.m.m.m.m.m.m.m.m.m.m.m.m.m.m.m.m.m.m.m.m.m.m.m.m.m.m.m.m.m.m.m.m.m.m.m.m.m.m.m.m.m.m.m.m.m.m.m.m.m.m.m.m.m.m.m.m.m.m.m.",
"m.m.m.m.m.m.m.m.m.m.m.m.m.m.m.m.m.m.m.m.m.m.m.m.m.m.m.m.m.m.m.m.m.m.m.m.m.m.m.m.m.m.m.m.m.m.m.m.m.m.m.m.m.m.m.m.m.m.m.m.m.m.m.m.",
"m.m.m.m.m.m.m.m.m.m.m.m.m.m.m.m.m.m.m.m.m.m.m.m.m.m.m.m.m.m.m.m.m.m.m.m.m.m.m.m.m.m.m.m.m.m.m.m.m.m.m.m.m.m.m.m.m.m.m.m.m.m.m.m.",
"m.m.m.m.m.m.m.m.m.m.m.m.m.m.m.m.m.m.m.m.m.m.m.m.m.m.m.m.m.m.m.m.m.m.m.m.m.m.m.m.m.m.m.m.m.m.m.m.m.m.m.m.m.m.m.m.m.m.m.m.m.m.m.m.",
"m.m.m.m.m.m.m.m.m.m.m.m.m.m.m.m.m.m.m.m.m.m.m.m.m.m.m.m.m.m.m.m.m.m.m.m.m.m.m.m.m.m.m.m.m.m.m.m.m.m.m.m.m.m.m.m.m.m.m.m.m.m.m.m.",
"m.m.m.m.m.m.m.m.m.m.m.m.m.m.m.m.m.m.m.m.m.m.m.m.m.m.m.m.m.m.m.m.m.m.m.m.m.m.m.m.m.m.m.m.m.m.m.m.m.m.m.m.m.m.m.m.m.m.m.m.m.m.m.m."
};
