/* XPM */
static char *player__27_1710156994[] = {
/* columns rows colors chars-per-pixel */
"64 64 151 2 ",
"   c #00055D",
".  c #001565",
"X  c #001A65",
"o  c #001768",
"O  c #001C6A",
"+  c #002066",
"@  c #00236D",
"#  c #01286E",
"$  c #012571",
"%  c #052974",
"&  c #0A2C76",
"*  c #0C2E7A",
"=  c #102F79",
"-  c #0B3078",
";  c #13337C",
":  c #19367E",
">  c #17397F",
",  c #1A387F",
"<  c #0D2F80",
"1  c #143482",
"2  c #193682",
"3  c #1D3A83",
"4  c #153488",
"5  c #19368E",
"6  c #1B398E",
"7  c #1B3791",
"8  c #1F3B93",
"9  c #213D84",
"0  c #243D8A",
"q  c #293F8C",
"w  c #203A97",
"e  c #253D9C",
"r  c #273FA0",
"t  c #293FA4",
"y  c #254285",
"u  c #2A428D",
"i  c #2E4A8A",
"p  c #334D8D",
"a  c #36518F",
"s  c #2E4390",
"d  c #324693",
"f  c #364996",
"g  c #3C4C9A",
"h  c #3A5592",
"j  c #2940A2",
"k  c #3346AE",
"l  c #3345B1",
"z  c #3A49BA",
"x  c #424F9E",
"c  c #435B96",
"v  c #44519F",
"b  c #4D649B",
"n  c #52679E",
"m  c #52689F",
"M  c #4652A2",
"N  c #4B54A4",
"B  c #5057A9",
"V  c #5259AA",
"C  c #595EAE",
"Z  c #5B5EB0",
"A  c #566CA1",
"S  c #596EA2",
"D  c #5D72A5",
"F  c #6175A7",
"G  c #6377A8",
"H  c #667BAA",
"J  c #6B7EAC",
"K  c #6464B6",
"L  c #6666B8",
"P  c #6867B9",
"I  c #6C6ABC",
"U  c #706BBF",
"Y  c #424FC3",
"T  c #4550C7",
"R  c #4750CB",
"E  c #4953CB",
"W  c #4D55D3",
"Q  c #5157D9",
"!  c #736EC1",
"~  c #7670C3",
"^  c #7A72C6",
"/  c #7E74C9",
"(  c #575BE0",
")  c #595BE2",
"_  c #5D5EE8",
"`  c #605FEC",
"'  c #6160ED",
"]  c #6663F5",
"[  c #6864F7",
"{  c #6C66FC",
"}  c #6F68FF",
"|  c #726AFF",
" . c #8276CB",
".. c #8679CE",
"X. c #8D7ED3",
"o. c #917FD5",
"O. c #6D81AE",
"+. c #6F84B0",
"@. c #7386B1",
"#. c #7488B3",
"$. c #7B8CB5",
"%. c #8090B7",
"&. c #8696BC",
"*. c #8A9ABE",
"=. c #8F9EC1",
"-. c #9281D7",
";. c #9582D9",
":. c #9B86DD",
">. c #95A4C4",
",. c #98A6C6",
"<. c #99A8C7",
"1. c #9DAAC9",
"2. c #A2AECB",
"3. c #A6B1CD",
"4. c #A8B3CF",
"5. c #ABB6D0",
"6. c #AEB9D2",
"7. c #B2BCD4",
"8. c #9F88E0",
"9. c #A38AE2",
"0. c #A98FE7",
"q. c #AB8FE8",
"w. c #AD91EA",
"e. c #B294ED",
"r. c #B696F0",
"t. c #B897F1",
"y. c #BB9AF4",
"u. c #C09DF7",
"i. c #C39EF9",
"p. c #C6A0FB",
"a. c #CAA3FE",
"s. c #D0A7FF",
"d. c #D5AAFF",
"f. c #BBC5D9",
"g. c #BFC8DB",
"h. c #C2CADD",
"j. c #C7CEE0",
"k. c #CBD2E2",
"l. c #D1D7E6",
"z. c #D3D9E6",
"x. c #D7DCE9",
"c. c #DADFEA",
"v. c #DEE2EC",
"b. c #E2E6EF",
"n. c #E5E9F1",
"m. c #EAEDF4",
"M. c #EEF1F6",
"N. c #F1F3F7",
"B. c #F4F6F9",
"V. c #F6F8FA",
"C. c #FFFFFF",
/* pixels */
"C.C.C.C.C.C.C.C.C.C.C.C.C.C.C.C.C.C.C.C.C.C.C.C.C.C.C.C.C.C.C.C.C.C.C.C.C.C.C.C.C.C.C.C.C.C.C.C.C.C.C.C.C.C.C.C.C.C.C.C.C.C.C.C.",
"C.C.C.C.C.C.C.C.C.C.C.C.C.C.C.C.C.C.C.C.C.C.C.C.C.C.C.C.C.C.C.C.C.C.C.C.C.C.C.C.C.C.C.C.C.C.C.C.C.C.C.C.C.C.C.C.C.C.C.C.C.C.C.C.",
"C.C.C.C.C.C.C.C.C.C.C.C.C.C.C.C.C.C.C.C.C.C.C.C.C.C.C.C.C.C.C.C.C.C.C.C.C.C.C.C.C.C.C.C.C.C.C.C.C.C.C.C.C.C.C.C.C.C.C.C.C.C.C.C.",
"C.C.C.C.C.C.C.C.C.C.C.C.C.C.C.C.C.C.C.C.C.C.C.C.C.C.C.C.C.C.C.C.C.C.C.C.C.C.C.C.C.C.C.C.C.C.C.C.C.C.C.C.C.C.C.C.C.C.C.C.C.C.C.C.",
"C.C.C.C.C.C.C.C.C.C.C.C.C.C.C.C.C.C.C.C.C.C.C.C.C.C.C.C.C.C.C.C.C.C.C.C.C.C.C.C.C.C.C.C.C.C.C.C.C.C.C.C.C.C.C.C.C.C.C.C.C.C.C.C.",
"C.C.C.C.C.C.C.C.C.C.C.C.C.C.C.C.C.C.C.C.C.C.C.C.C.C.C.C.C.C.C.C.C.C.C.C.C.C.C.C.C.C.C.C.C.4.D c b #.z.C.C.C.C.C.C.C.C.C.C.C.C.C.",
"C.C.C.C.C.C.C.C.C.C.C.C.C.C.C.C.C.C.C.C.C.C.C.C.C.C.C.C.C.C.C.C.C.C.C.C.C.C.C.C.C.C.C.M.b o . X X . % *.C.C.C.C.C.C.C.C.C.C.C.C.",
"C.C.C.C.C.C.C.C.C.C.C.C.C.C.C.C.C.C.C.C.C.C.C.C.C.C.C.C.C.C.C.C.C.C.C.C.C.C.C.C.C.C.V.h . ; K X...N $ o *.C.C.C.C.C.C.C.C.C.C.C.",
"C.C.C.C.C.C.C.C.C.C.C.C.C.C.C.C.C.C.C.C.C.C.C.C.C.C.C.C.C.C.C.C.C.C.C.C.C.C.C.C.V.C.&.. 3 9.a.p.p.a.U @ & v.C.C.C.C.C.C.C.C.C.C.",
"C.C.C.C.C.C.C.C.C.C.C.C.C.C.C.C.C.C.C.C.C.C.C.C.C.C.C.C.C.C.C.C.C.C.C.C.C.C.C.C.C.C.p o ..a.t.y.y.y.a.g . %.C.C.C.C.C.C.C.C.C.C.",
"C.C.C.C.C.C.C.C.C.C.C.C.C.C.C.C.C.C.C.C.C.C.C.C.C.C.C.C.C.C.C.C.C.C.C.C.C.C.C.C.C.b.& - w.y.y.y.y.y.a.~ . S C.V.C.C.C.C.C.C.C.C.",
"C.C.C.C.C.C.C.C.C.C.C.C.C.C.C.C.C.C.C.C.C.C.C.C.C.C.C.C.C.C.C.C.C.C.C.C.C.C.C.C.C.x.% 2 t.i.y.y.y.t.a. .. n C.C.C.C.C.C.C.C.C.C.",
"C.C.C.C.C.C.C.C.C.C.C.C.C.C.C.C.C.C.C.C.C.C.C.C.C.C.C.C.C.C.C.C.C.C.C.C.C.C.C.C.C.l.$ 3 t.y.y.y.y.y.p.^ . m C.C.C.C.C.C.C.C.C.C.",
"C.C.C.C.C.C.C.C.C.C.C.C.C.C.C.C.C.C.C.C.C.C.C.C.C.C.C.C.C.C.C.C.C.C.C.C.C.C.C.C.C.k.@ 0 y.y.y.y.y.y.a.~ . F C.C.C.C.C.C.C.C.C.C.",
"C.C.C.C.C.C.C.C.C.C.C.C.C.C.C.C.C.C.C.C.C.C.C.C.C.C.C.C.C.C.C.C.C.C.C.C.C.C.C.C.C.h.O u i.y.y.y.y.y.a.U . H C.C.C.C.C.C.C.C.C.C.",
"C.C.C.C.C.C.C.C.C.k.>.C.C.C.C.C.C.C.C.C.C.C.C.C.C.C.C.C.C.C.C.C.C.C.C.C.C.C.C.C.C.g.O s i.t.y.y.t.t.p.I . J C.C.C.C.C.C.C.C.C.C.",
"C.C.C.C.C.C.C.C.C.b   6.C.C.C.C.C.C.C.C.C.C.C.C.C.C.C.C.C.C.C.C.C.C.C.C.C.C.C.C.C.7.O d y.t.y.i.p.p.a.P . @.C.C.C.C.C.C.C.C.C.C.",
"C.C.C.C.C.C.C.C.C.*.. b C.V.C.C.C.C.C.C.C.C.C.C.C.C.C.C.C.C.C.C.C.C.C.C.C.C.C.V.C.l.$ 3 i.a.i.8... .w.N . >.C.V.C.C.C.C.C.C.C.C.",
"C.C.C.C.C.C.C.C.C.c.& % x.C.C.C.C.C.C.C.C.C.C.C.C.C.C.C.C.C.C.C.C.C.C.C.C.C.C.C.C.7.; $ L o.f % + + % - $ &.N.C.C.C.C.C.C.C.C.C.",
"C.C.C.C.C.C.C.C.C.C.F . @.k.f.m.C.C.C.C.C.C.C.C.C.C.C.C.C.C.C.C.C.C.C.C.C.C.C.h.p @ @ @ $ $ + & w w < # @ @ > A <.V.C.C.C.C.C.C.",
"C.C.C.C.C.C.C.C.C.C.&.$ % O @ 2 O.n.C.C.C.C.C.C.C.C.C.C.C.C.C.C.C.C.C.C.C.C.h.& X 2 V M & $ j ' } { ] W l 5 $ X o p v.C.C.C.C.C.",
"C.C.C.C.C.C.C.C.C.=.$ @ - s 0 $ . 9 x.C.C.C.C.C.C.C.C.C.C.C.C.C.C.C.C.C.C.b., O M e.d.I + 8 } { [ [ [ { } [ ) Y 4 X y m.C.C.C.C.",
"C.C.C.C.C.C.C.C.h.@ $ V w.y.y.;.s X p C.C.C.C.C.C.C.C.C.C.C.C.C.C.C.C.C.C.h o f u.u.y.d + W { [ [ [ [ [ [ [ [ } ] 6 . @.C.C.C.C.",
"C.C.C.C.C.C.C.C.n X V a.i.y.y.a.e.3 o 2.C.C.C.C.C.C.C.C.C.C.C.C.C.C.C.C.J o 2 q.u.t.t.9 $ ) [ ] [ [ [ [ [ [ [ [ } Q @ 3 m.C.C.C.",
"C.C.C.C.C.C.C.n.- % 0.u.y.y.y.y.a.! . c C.C.C.C.C.C.C.C.C.C.C.C.C.V.C.<.O % X.a.y.y.u.q + Q } [ [ [ [ [ [ [ [ [ ] ] 4 @ k.C.C.C.",
"C.C.C.C.C.C.C.k.$ 9 t.y.y.y.y.y.y.w.; $ k.C.C.C.C.C.C.C.C.C.C.C.C.C.k.& + ! a.t.y.t.a.C X e | [ ] ] ] ] [ [ [ [ ] ] 4 $ k.C.C.C.",
"C.C.C.C.C.C.C.c.% ; e.y.y.y.y.y.t.a.B . O.C.C.C.C.C.C.C.C.C.C.C.C.m.y o N a.t.y.y.y.u.0.* @ k ] | } [ [ ] [ [ ] } ) $ 1 n.C.C.C.",
"C.C.C.C.C.C.C.C.a o  .a.y.y.y.y.y.i.;.@ , n.C.C.C.C.C.C.C.C.C.C.C.b . u t.y.y.y.y.y.y.i.^ & # 4 l W ' } } { [ } [ s o D C.C.C.C.",
"C.C.C.C.C.C.V.C.=.. g i.y.y.y.y.y.y.i.s . >.C.V.C.C.C.C.V.C.V.C.*.o ; 0.p.t.y.y.y.y.y.y.y.0 $ O . + * e T Q _ W w O * c.C.C.C.C.",
"C.C.C.C.C.C.C.C.b.; $ :.i.y.y.y.y.t.a.~ X c C.C.C.C.C.C.C.C.C.B.2 @ ^ a.t.y.y.y.y.y.y.a.N o y 6.#.p % X X @ % + X , h.C.C.C.C.C.",
"C.C.C.C.C.C.C.C.C.F . C a.y.y.y.y.y.i.w.* & S D S D D D D D F b @ q y.y.y.y.y.y.y.t.a.! @ & j.C.C.C.l.>.n y , p $.m.C.B.C.C.C.C.",
"C.C.C.C.C.C.C.C.C.g.O 2 e.y.y.y.y.y.y.e.1 $ X X X X . X X X . X @ x a.y.y.y.y.y.t.a.-.% O ,.C.B.C.C.C.C.C.B.N.C.C.C.C.C.C.C.C.C.",
"C.C.C.C.C.C.C.C.C.C.h X ^ a.t.y.y.t.i.8.% < Y Y T T T T T T E k @ d i.t.y.y.y.y.y.e.2 X J C.V.C.C.C.C.C.C.C.C.C.C.C.C.C.C.C.C.C.",
"C.C.C.C.C.C.C.C.C.C.,.. 0 t.a.y.t.i.a.M X r | } } } } } } } | ' % % 8.a.y.i.i.y.i.f X h C.C.C.C.C.C.C.C.C.C.C.C.C.C.C.C.C.C.C.C.",
"C.C.C.C.C.C.C.C.C.C.B.p . s :.y.y.0.N @ & Q } [ ] ] ] ] ] ] ] } j + 0 0.e.8.0.t.N o , v.C.C.C.C.C.C.C.C.C.C.C.C.C.C.C.C.C.C.C.C.",
"C.C.C.C.C.C.C.C.C.C.C.v.9 $ % 3 q * @ * E } ] [ [ ] [ [ [ ] [ [ ` 5 @ ; 1 @ % 1 @ ; g.C.C.C.C.C.C.C.C.C.C.C.C.C.C.C.C.C.C.C.C.C.",
"C.C.C.C.C.C.C.C.C.V.C.f.> @ $ & % O $ 7 } ] ] [ [ [ [ [ [ [ [ ] | z $ @ $ 3 ; @ $ i B.C.C.C.C.C.C.C.C.C.C.C.C.C.C.C.C.C.C.C.C.C.",
"C.C.C.C.C.C.C.C.C.C.z.% O g ;.e.0.! - @ j } ] [ [ [ [ [ ] ] ] } Q % $ N 0.t.e./ 2 o S C.C.C.C.C.C.C.C.C.C.C.C.C.C.C.C.C.C.C.C.C.",
"C.C.C.C.C.C.C.C.C.C.c . v p.p.i.i.a.;.& # Q [ [ [ [ ] ] ] ] ] [ 8 + V a.i.y.y.a.:.- o 1.C.C.C.C.C.C.C.C.C.C.C.C.C.C.C.C.C.C.C.C.",
"C.C.C.C.C.C.C.C.C.1.o > e.y.y.y.y.t.a.C X l | [ } } } | } } | ' % * w.y.y.y.y.y.a.! + , b.C.C.C.C.C.C.C.C.C.C.C.C.C.C.C.C.C.C.C.",
"C.C.C.C.C.C.C.C.m.2 + ! a.t.y.y.y.t.a./ + 1 r r e r r r r e j w $ u u.y.y.y.y.y.y.u.f X S C.C.C.C.C.C.C.C.C.C.C.C.C.C.C.C.C.C.C.",
"C.C.C.C.C.C.C.C.J . f u.y.y.y.y.y.t.a.! $ $ X X X X X X X X X o $ 0 y.y.y.y.y.y.y.p.9.* O 3.C.V.C.C.C.C.C.C.C.C.C.C.C.C.C.C.C.C.",
"C.C.C.C.C.C.C.g.$ $ ;.p.y.y.y.y.y.y.a.x o D 7.2.3.4.4.2.4.3.5.2.> $ -.p.y.y.y.y.y.t.a.I O , n.C.C.C.C.C.C.C.C.C.C.C.C.C.C.C.C.C.",
"C.C.C.C.C.C.C.a X C a.y.y.y.y.y.y.p.X.@ * v.C.C.C.C.C.C.C.C.C.C.@.. s y.y.y.y.y.y.y.y.u.f . D C.C.C.C.C.C.C.C.C.C.C.C.C.C.C.C.C.",
"C.C.C.C.C.C.*.X 2 e.y.y.y.y.y.y.y.y.u o $.C.V.C.C.V.C.C.C.C.V.C.m.y O K a.y.y.y.y.y.y.u.8.& O 4.C.C.C.C.C.C.C.C.C.C.C.C.C.C.C.C.",
"C.C.C.C.C.v.> O / a.y.y.y.y.y.y.a.L X y N.C.C.C.C.C.C.C.C.C.C.C.C.7.O % ;.p.y.y.u.y.y.y.a.I O 9 m.C.C.C.C.C.C.C.C.C.C.C.C.C.C.C.",
"C.C.C.C.C.@.. g p.y.y.y.y.y.y.y.0.* O 6.C.C.C.C.C.C.C.C.C.C.C.C.C.C.G . s u.y.y.y.y.y.y.y.y.d . =.C.V.C.C.C.C.C.C.C.C.C.C.C.C.C.",
"C.C.C.C.C.i O X.a.y.y.y.y.y.y.p.x . n C.C.C.C.C.C.C.C.C.C.C.C.C.C.C.m.y O K a.y.y.y.y.u.y.a.! . A C.C.C.C.C.C.C.C.C.C.C.C.C.C.C.",
"C.C.C.C.N.> % 0.i.y.y.y.y.y.a. .@ = v.C.C.C.C.C.C.C.C.C.C.C.C.C.C.C.C.6.O & :.p.y.y.y.y.y.p...o c C.C.C.C.C.C.C.C.C.C.C.C.C.C.C.",
"C.C.C.C.B.y $ :.i.y.y.y.y.y.t.3 . &.C.C.C.C.C.C.C.C.C.C.C.C.C.C.C.C.V.C.G . s i.y.y.y.y.e.a.I . H C.C.C.C.C.C.C.C.C.C.C.C.C.C.C.",
"C.C.C.C.C.S . Z a.y.t.t.y.a.C X p C.C.C.C.C.C.C.C.C.C.C.C.C.C.C.C.C.C.C.M.3 O K a.y.y.y.a.e.9 o 1.C.C.C.C.C.C.C.C.C.C.C.C.C.C.C.",
"C.C.C.B.C.f.O % ~ p.a.a.a.! % O f.C.C.C.C.C.C.C.C.C.C.C.C.C.C.C.C.C.C.C.C.6.O % P y.p.u.8.d X p B.C.C.C.C.C.C.C.C.C.C.C.C.C.C.C.",
"C.C.C.C.C.C.@.. @ f P P f @ . $.C.C.C.C.C.C.C.C.C.C.C.C.C.C.C.C.C.C.C.C.B.C.$.o X 2 g f % . 3 z.C.C.C.C.C.C.C.C.C.C.C.C.C.C.C.C.",
"C.C.C.C.C.C.C.*.; . . . . ; *.C.C.C.C.C.C.C.C.C.C.C.C.C.C.C.C.C.C.C.C.C.C.C.C.2.i @ X X & S b.C.C.C.C.C.C.C.C.C.C.C.C.C.C.C.C.C.",
"C.C.C.C.C.C.C.C.b.>.O.#.<.v.C.C.C.C.C.C.C.C.C.C.C.C.C.C.C.C.C.C.C.C.C.C.C.C.C.C.C.j.4.6.c.C.C.V.C.C.C.C.C.C.C.C.C.C.C.C.C.C.C.C.",
"C.C.C.C.C.C.C.C.C.C.C.C.C.C.C.C.C.C.C.C.C.C.C.C.C.C.C.C.C.C.C.C.C.C.C.C.C.C.C.C.C.C.C.C.C.C.C.C.C.C.C.C.C.C.C.C.C.C.C.C.C.C.C.C.",
"C.C.C.C.C.C.C.C.C.V.C.C.V.C.C.C.C.C.C.C.C.C.C.C.C.C.C.C.C.C.C.C.C.C.C.C.C.C.C.C.C.C.C.C.C.C.C.C.C.C.C.C.C.C.C.C.C.C.C.C.C.C.C.C.",
"C.C.C.C.C.C.C.C.C.C.C.C.C.C.C.C.C.C.C.C.C.C.C.C.C.C.C.C.C.C.C.C.C.C.C.C.C.C.C.C.C.C.C.C.C.C.C.C.C.C.C.C.C.C.C.C.C.C.C.C.C.C.C.C.",
"C.C.C.C.C.C.C.C.C.C.C.C.C.C.C.C.C.C.C.C.C.C.C.C.C.C.C.C.C.C.C.C.C.C.C.C.C.C.C.C.C.C.C.C.C.C.C.C.C.C.C.C.C.C.C.C.C.C.C.C.C.C.C.C.",
"C.C.C.C.C.C.C.C.C.C.C.C.C.C.C.C.C.C.C.C.C.C.C.C.C.C.C.C.C.C.C.C.C.C.C.C.C.C.C.C.C.C.C.C.C.C.C.C.C.C.C.C.C.C.C.C.C.C.C.C.C.C.C.C.",
"C.C.C.C.C.C.C.C.C.C.C.C.C.C.C.C.C.C.C.C.C.C.C.C.C.C.C.C.C.C.C.C.C.C.C.C.C.C.C.C.C.C.C.C.C.C.C.C.C.C.C.C.C.C.C.C.C.C.C.C.C.C.C.C.",
"C.C.C.C.C.C.C.C.C.C.C.C.C.C.C.C.C.C.C.C.C.C.C.C.C.C.C.C.C.C.C.C.C.C.C.C.C.C.C.C.C.C.C.C.C.C.C.C.C.C.C.C.C.C.C.C.C.C.C.C.C.C.C.C.",
"C.C.C.C.C.C.C.C.C.C.C.C.C.C.C.C.C.C.C.C.C.C.C.C.C.C.C.C.C.C.C.C.C.C.C.C.C.C.C.C.C.C.C.C.C.C.C.C.C.C.C.C.C.C.C.C.C.C.C.C.C.C.C.C.",
"C.C.C.C.C.C.C.C.C.C.C.C.C.C.C.C.C.C.C.C.C.C.C.C.C.C.C.C.C.C.C.C.C.C.C.C.C.C.C.C.C.C.C.C.C.C.C.C.C.C.C.C.C.C.C.C.C.C.C.C.C.C.C.C."
};
