/* XPM */
static char *player__24_1710156993[] = {
/* columns rows colors chars-per-pixel */
"64 64 152 2 ",
"   c #000D62",
".  c #001564",
"X  c #001A65",
"o  c #001769",
"O  c #001C6A",
"+  c #002167",
"@  c #00236D",
"#  c #00286E",
"$  c #012671",
"%  c #052974",
"&  c #0A2C76",
"*  c #072B7A",
"=  c #0B2D79",
"-  c #0E317A",
";  c #13347C",
":  c #19367E",
">  c #17397E",
",  c #183B7F",
"<  c #143383",
"1  c #1A3683",
"2  c #1D3A82",
"3  c #17348A",
"4  c #1A378E",
"5  c #1E3993",
"6  c #213B87",
"7  c #233C89",
"8  c #213B96",
"9  c #253D9C",
"0  c #293FA2",
"q  c #244285",
"w  c #2A448A",
"e  c #2E4A8B",
"r  c #314D8C",
"t  c #36508E",
"y  c #2E4391",
"u  c #334694",
"i  c #364996",
"p  c #394997",
"a  c #3E4C9A",
"s  c #3C5592",
"d  c #3F5994",
"f  c #2B41A6",
"g  c #2F43A9",
"h  c #3245AE",
"j  c #3546B3",
"k  c #3748B3",
"l  c #3949B6",
"z  c #3F4DBE",
"x  c #404E9D",
"c  c #435B96",
"v  c #42509E",
"b  c #465E98",
"n  c #4B639B",
"m  c #51679E",
"M  c #52699F",
"N  c #4652A1",
"B  c #4A54A4",
"V  c #4F57A9",
"C  c #535AAA",
"Z  c #585DAD",
"A  c #5C5FB2",
"S  c #566CA1",
"D  c #596EA2",
"F  c #5D72A5",
"G  c #5E61B2",
"H  c #6276A7",
"J  c #667AAA",
"K  c #6A7EAD",
"L  c #6263B5",
"P  c #6766B8",
"I  c #6867B9",
"U  c #6D6ABD",
"Y  c #434EC5",
"T  c #4650C9",
"R  c #4952CD",
"E  c #4E55D4",
"W  c #5257D9",
"Q  c #5659DF",
"!  c #746EC1",
"~  c #7570C2",
"^  c #7C72C7",
"/  c #7D74C8",
"(  c #565AE0",
")  c #5B5DE5",
"_  c #605FEC",
"`  c #6260EE",
"'  c #6663F5",
"]  c #6864F7",
"[  c #6C66FC",
"{  c #6F68FF",
"}  c #736AFF",
"|  c #8276CB",
" . c #867ACE",
".. c #887ACF",
"X. c #8B7CD1",
"o. c #907FD5",
"O. c #6D81AE",
"+. c #6F83B0",
"@. c #7386B2",
"#. c #7788B3",
"$. c #7A8BB4",
"%. c #7F91B9",
"&. c #8090B7",
"*. c #8293BA",
"=. c #8999BE",
"-. c #8E9EC1",
";. c #909FC2",
":. c #9180D6",
">. c #9482D8",
",. c #9A85DC",
"<. c #9E88DF",
"1. c #95A4C5",
"2. c #9BA9C7",
"3. c #9EABC9",
"4. c #A3AFCC",
"5. c #A5B2CE",
"6. c #A9B4CF",
"7. c #AAB6D0",
"8. c #AEB9D3",
"9. c #B3BDD5",
"0. c #A48BE3",
"q. c #A98EE7",
"w. c #AB8FE8",
"e. c #AD91EA",
"r. c #B395EE",
"t. c #B797F0",
"y. c #B897F1",
"u. c #BB9AF3",
"i. c #C09DF7",
"p. c #C39EF9",
"a. c #C6A0FB",
"s. c #CAA3FD",
"d. c #D0A6FF",
"f. c #B6C0D7",
"g. c #BBC4D9",
"h. c #BFC9DC",
"j. c #C3CBDE",
"k. c #C7CEE0",
"l. c #CCD3E3",
"z. c #D0D6E5",
"x. c #D3D9E7",
"c. c #D6DCE8",
"v. c #D9DEEA",
"b. c #DCE1EC",
"n. c #E2E6EF",
"m. c #E5E9F1",
"M. c #EBEEF4",
"N. c #EFF1F6",
"B. c #F0F3F7",
"V. c #F4F6F9",
"C. c #F7F8FB",
"Z. c #FFFFFF",
/* pixels */
"Z.Z.Z.Z.Z.Z.Z.Z.Z.Z.Z.Z.Z.Z.Z.Z.Z.Z.Z.Z.Z.Z.Z.Z.Z.Z.Z.Z.Z.Z.Z.Z.Z.Z.Z.Z.Z.Z.Z.Z.Z.Z.Z.Z.Z.Z.Z.Z.Z.Z.Z.Z.Z.Z.Z.Z.Z.Z.Z.Z.Z.Z.Z.Z.",
"Z.Z.Z.Z.Z.Z.Z.Z.Z.Z.Z.Z.Z.Z.Z.Z.Z.Z.Z.Z.Z.Z.Z.Z.Z.Z.Z.Z.Z.Z.Z.Z.Z.Z.Z.Z.Z.Z.Z.Z.Z.Z.Z.Z.Z.Z.Z.Z.Z.Z.Z.Z.Z.Z.Z.Z.Z.Z.Z.Z.Z.Z.Z.Z.",
"Z.Z.Z.Z.Z.Z.Z.Z.Z.Z.Z.Z.Z.Z.Z.Z.Z.Z.Z.Z.Z.Z.Z.Z.Z.Z.Z.Z.Z.Z.Z.Z.Z.Z.Z.Z.Z.Z.Z.Z.Z.Z.Z.Z.Z.Z.Z.Z.Z.Z.Z.Z.Z.Z.Z.Z.Z.Z.Z.Z.Z.Z.Z.Z.",
"Z.Z.Z.Z.Z.Z.Z.Z.Z.Z.Z.Z.Z.Z.Z.Z.Z.Z.Z.Z.Z.Z.Z.Z.Z.Z.Z.Z.Z.Z.Z.Z.Z.Z.Z.Z.Z.Z.Z.Z.C.Z.Z.Z.Z.Z.Z.Z.Z.Z.Z.Z.Z.Z.Z.Z.Z.Z.Z.Z.Z.Z.Z.Z.",
"Z.Z.Z.Z.Z.Z.Z.Z.Z.Z.Z.Z.Z.Z.Z.Z.Z.Z.Z.Z.Z.Z.Z.Z.Z.Z.Z.Z.Z.Z.Z.Z.Z.Z.Z.Z.Z.Z.Z.Z.Z.Z.N.b.m.Z.Z.Z.Z.Z.Z.Z.Z.Z.Z.Z.Z.Z.Z.Z.Z.Z.Z.Z.",
"Z.Z.Z.Z.Z.Z.Z.Z.Z.Z.Z.Z.Z.Z.Z.Z.Z.Z.Z.Z.Z.Z.Z.Z.Z.Z.Z.Z.Z.Z.Z.Z.Z.Z.Z.Z.Z.Z.C.Z.l.S , & - s 3.Z.Z.Z.Z.Z.Z.Z.Z.Z.Z.Z.Z.Z.Z.Z.Z.Z.",
"Z.Z.Z.Z.Z.Z.Z.Z.Z.Z.Z.Z.Z.Z.Z.Z.Z.Z.Z.Z.Z.Z.Z.Z.Z.Z.Z.Z.Z.Z.Z.Z.Z.Z.Z.Z.Z.Z.Z.6.% . $ < = X o D C.Z.Z.Z.Z.Z.Z.Z.Z.Z.Z.Z.Z.Z.Z.Z.",
"Z.Z.Z.Z.Z.Z.Z.Z.Z.Z.Z.Z.Z.Z.Z.Z.Z.Z.Z.Z.Z.Z.Z.Z.Z.Z.Z.Z.Z.Z.Z.Z.Z.Z.Z.Z.Z.Z.l.& @ B <.r.e.! ; . O.Z.Z.Z.Z.Z.Z.Z.Z.Z.Z.Z.Z.Z.Z.Z.",
"Z.Z.Z.Z.Z.Z.Z.Z.Z.Z.Z.Z.Z.Z.Z.Z.Z.Z.Z.Z.Z.Z.Z.Z.Z.Z.Z.Z.Z.Z.Z.Z.Z.Z.Z.Z.Z.Z.m . N a.a.u.u.d.X.% $ l.Z.Z.Z.Z.Z.Z.Z.Z.Z.Z.Z.Z.Z.Z.",
"Z.Z.Z.Z.Z.Z.Z.Z.Z.Z.Z.Z.Z.Z.Z.Z.Z.Z.Z.Z.Z.Z.Z.Z.Z.Z.Z.Z.Z.Z.Z.Z.Z.Z.Z.Z.Z.m.; $ 0.i.u.u.u.t.s.B . =.Z.C.Z.Z.Z.Z.Z.Z.Z.Z.Z.Z.Z.Z.",
"Z.Z.Z.Z.Z.Z.Z.Z.Z.Z.Z.Z.Z.Z.Z.Z.Z.Z.Z.Z.Z.Z.Z.Z.Z.Z.Z.Z.Z.Z.Z.Z.Z.Z.Z.Z.Z.k.$ 6 u.u.u.u.u.u.a.~ . F Z.Z.Z.Z.Z.Z.Z.Z.Z.Z.Z.Z.Z.Z.",
"Z.Z.Z.Z.Z.Z.Z.Z.Z.Z.Z.Z.Z.Z.Z.Z.Z.Z.Z.Z.Z.Z.Z.Z.Z.Z.Z.Z.Z.Z.Z.Z.Z.Z.Z.Z.Z.z.$ 1 u.u.u.u.u.u.a.:.O r Z.Z.Z.Z.Z.Z.Z.Z.Z.Z.Z.Z.Z.Z.",
"Z.Z.Z.Z.Z.Z.Z.Z.Z.Z.Z.Z.Z.Z.Z.Z.Z.Z.Z.Z.Z.Z.Z.Z.Z.Z.Z.Z.Z.Z.Z.Z.Z.Z.Z.Z.Z.N., % 0.i.u.u.u.u.i.w.= > M.Z.Z.Z.Z.Z.Z.Z.Z.Z.Z.Z.Z.Z.",
"Z.Z.Z.Z.Z.Z.Z.Z.Z.Z.Z.Z.Z.Z.Z.Z.Z.Z.Z.Z.Z.Z.Z.Z.Z.Z.Z.Z.Z.Z.Z.Z.Z.Z.Z.Z.Z.Z.s X X.a.u.u.u.u.u.u.6 @ k.Z.Z.Z.Z.Z.Z.Z.Z.Z.Z.Z.Z.Z.",
"Z.Z.Z.Z.Z.Z.Z.Z.Z.Z.Z.Z.Z.Z.Z.Z.Z.Z.Z.Z.Z.Z.Z.Z.Z.Z.Z.Z.Z.Z.Z.Z.Z.Z.Z.Z.Z.Z.J . ! a.u.u.u.u.y.i.a . 4.Z.Z.Z.Z.Z.Z.Z.Z.Z.Z.Z.Z.Z.",
"Z.Z.Z.Z.Z.Z.Z.Z.Z.Z.Z.Z.Z.Z.Z.Z.Z.Z.Z.Z.Z.Z.Z.Z.Z.Z.Z.Z.Z.Z.Z.Z.Z.Z.Z.Z.C.Z.-.. C a.u.u.u.u.u.d.A . %.Z.C.C.Z.Z.Z.Z.Z.Z.Z.Z.Z.Z.",
"Z.Z.Z.Z.Z.Z.Z.Z.Z.m.j.Z.Z.Z.Z.Z.Z.Z.Z.Z.Z.Z.Z.Z.Z.Z.Z.Z.Z.Z.Z.Z.Z.Z.Z.Z.Z.Z.9.X u i.y.u.a.i.q.r.A . &.Z.Z.Z.Z.Z.Z.Z.Z.Z.Z.Z.Z.Z.",
"Z.Z.Z.Z.Z.Z.Z.Z.Z.S o j.Z.Z.Z.Z.Z.Z.Z.Z.Z.Z.Z.Z.Z.Z.Z.Z.Z.Z.Z.Z.Z.Z.Z.Z.Z.Z.x.% = r.s.i.^ y - * = $ e K *.3.l.Z.Z.C.Z.Z.Z.Z.Z.Z.",
"Z.Z.Z.Z.Z.Z.Z.C.Z.@.  H Z.C.Z.Z.Z.Z.Z.Z.Z.Z.Z.Z.Z.Z.Z.Z.Z.Z.Z.Z.Z.Z.Z.Z.Z.C.Z.n O N o.B @ + * = % % O . . X % n b.Z.Z.Z.Z.Z.Z.Z.",
"Z.Z.Z.Z.Z.Z.Z.Z.Z.z.$ ; m.Z.Z.Z.Z.Z.Z.Z.Z.Z.Z.Z.Z.Z.Z.Z.Z.Z.Z.Z.Z.Z.Z.Z.Z.Z.3.q @ @ @ @ & z ` ' ) W R z h 9 * X : v.Z.Z.Z.Z.Z.Z.",
"Z.Z.Z.Z.Z.Z.Z.Z.Z.Z.n . 1.C.M.Z.Z.Z.Z.Z.Z.Z.Z.Z.Z.Z.Z.Z.Z.Z.Z.Z.Z.Z.Z.Z.Z.$.o O 6 u % % E } ] ] [ [ [ } [ [ ) 5 X s Z.Z.Z.Z.Z.Z.",
"Z.Z.Z.Z.Z.Z.Z.Z.C.Z.1.O ; > , b 4.Z.Z.Z.Z.Z.Z.Z.Z.Z.Z.Z.Z.Z.Z.Z.Z.Z.C.Z.7.O % I p.! X 0 [ ' ' ] ] ' ' ' ' ' [ ' < O 8.Z.Z.Z.Z.Z.",
"Z.Z.Z.Z.Z.Z.Z.Z.Z.j.2 @ @ % % . o n V.Z.Z.Z.Z.Z.Z.Z.Z.Z.Z.Z.Z.Z.Z.Z.Z.V.e X I s.s.V X z } ' ] ] ] ] ] ] [ ] ' } k . @.Z.C.Z.Z.Z.",
"Z.Z.Z.Z.Z.Z.Z.Z.b.; O y X.e.q.U ; . S Z.Z.Z.Z.Z.Z.Z.Z.Z.Z.Z.Z.Z.Z.Z.Z.=.X 7 u.t.s.C + l [ ' ] ] ] ] ] ] ' ] ' [ Y X F Z.Z.Z.Z.Z.",
"Z.Z.Z.Z.Z.Z.C.Z.J . i i.p.p.p.s.,.= O g.Z.C.Z.Z.Z.Z.Z.Z.Z.Z.Z.Z.Z.Z.m., O | a.r.a./ O 4 ] ] ' ' ' ' ] ] ] ' ' } k . @.Z.C.Z.Z.Z.",
"Z.Z.Z.Z.Z.Z.Z.N., $ <.p.y.u.u.y.s.L . D Z.Z.Z.Z.Z.Z.Z.Z.Z.Z.Z.Z.C.Z.+.. p a.u.u.u.t.1 @ h } } [ [ [ ] ' ' ' [ ` < O 8.Z.Z.Z.Z.Z.",
"Z.Z.Z.Z.Z.Z.Z.z.$ 1 y.u.u.u.u.u.i.0.% = b.Z.Z.Z.Z.Z.Z.Z.Z.Z.Z.Z.Z.z.& $ :.a.u.u.u.p.X.$ @ 5 Y E ( ` ] [ [ [ ) 5 X t Z.Z.Z.Z.Z.Z.",
"Z.Z.Z.Z.Z.Z.Z.x.% 1 r.i.u.i.u.u.u.a.x . *.Z.C.Z.Z.Z.Z.Z.Z.Z.Z.C.Z.S . B a.u.u.u.u.u.p...; # X O $ * < 5 f 9 = X 2 v.Z.Z.Z.Z.Z.Z.",
"Z.Z.Z.Z.Z.Z.Z.C.q O o.a.u.u.u.u.y.a...O w V.Z.Z.Z.Z.Z.Z.Z.Z.Z.Z.g.@ - 0.i.u.u.u.u.u.u.a.y O s c q - $ X . X % M n.Z.Z.Z.Z.Z.Z.Z.",
"Z.Z.Z.Z.Z.Z.C.Z.#.. B p.u.u.u.u.u.u.u.7 X 8.Z.V.Z.C.Z.C.Z.C.C.Z.s X G s.u.u.u.u.u.u.a.~ O q N.Z.V.n.l.8.2.4.z.Z.Z.C.Z.Z.Z.Z.Z.Z.",
"Z.Z.Z.Z.Z.Z.Z.Z.z.% = q.i.u.u.i.u.u.a.I . M Z.Z.Z.Z.Z.Z.Z.Z.Z.g.O 1 r.i.u.u.u.u.u.u.t.1 O 2.Z.C.Z.Z.Z.Z.Z.Z.Z.Z.Z.Z.Z.Z.Z.Z.Z.Z.",
"Z.Z.Z.Z.Z.Z.Z.Z.Z.n . I a.u.u.u.u.u.p.0.% ; -.1.1.1.1.1.1.1.3.n X A s.u.u.u.u.u.u.s.L . s Z.Z.Z.Z.Z.Z.C.Z.C.Z.Z.Z.Z.Z.Z.Z.Z.Z.Z.",
"Z.Z.Z.Z.Z.Z.Z.Z.Z.6.O 7 u.u.u.u.u.u.i.r.< % . . X X . . . . . @ @ ! a.u.u.u.i.u.p.q.; O f.Z.Z.Z.Z.Z.Z.Z.Z.Z.Z.Z.Z.Z.Z.Z.Z.Z.Z.Z.",
"Z.Z.Z.Z.Z.Z.Z.Z.Z.C.q @ X.a.u.u.u.u.i.0.& & f h f g g g g g h 4 O L a.y.u.u.u.y.a.B . m Z.Z.Z.Z.Z.Z.Z.Z.Z.Z.Z.Z.Z.Z.Z.Z.Z.Z.Z.Z.",
"Z.Z.Z.Z.Z.Z.Z.Z.C.Z.&.. i a.u.u.u.u.d.L + 8 } [ } } { { } [ } R @ 7 u.i.y.u.y.a.,.% % l.Z.Z.Z.Z.Z.Z.Z.Z.Z.Z.Z.Z.Z.Z.Z.Z.Z.Z.Z.Z.",
"Z.Z.Z.Z.Z.Z.Z.Z.Z.Z.m.: O B y.a.a.u.U # @ E [ ' ' ' ' ' ' ' ' ' < @ N u.a.a.s.0.6 . O.Z.C.Z.Z.Z.Z.Z.Z.Z.Z.Z.Z.Z.Z.Z.Z.Z.Z.Z.Z.Z.",
"Z.Z.Z.Z.Z.Z.Z.Z.Z.Z.Z.8.& @ 1 B C 7 $ # j [ ] ] ' ] ] ] ] ] ' [ E = @ 1 L U B - O r B.Z.Z.Z.Z.Z.Z.Z.Z.Z.Z.Z.Z.Z.Z.Z.Z.Z.Z.Z.Z.Z.",
"Z.Z.Z.Z.Z.Z.Z.Z.Z.Z.C.Z.1.$ $ X X $ % f } ] ] ] ] ] ] ] ] ] ] ' } Y % $ X X @ $ w M.Z.Z.Z.Z.Z.Z.Z.Z.Z.Z.Z.Z.Z.Z.Z.Z.Z.Z.Z.Z.Z.Z.",
"Z.Z.Z.Z.Z.Z.Z.Z.Z.Z.Z.g.: @ = p a > @ * Y [ ' ' ] ] ] ] ] ] ' [ ( < $ = u x 6 @ % *.Z.Z.Z.Z.Z.Z.Z.Z.Z.Z.Z.Z.Z.Z.Z.Z.Z.Z.Z.Z.Z.Z.",
"Z.Z.Z.Z.Z.Z.Z.Z.Z.Z.M.6 O x e.i.i.r.C @ % Q ] ' ' ' ' ' ' ' ' ' 3 X u q.p.i.u.P $ O 9.Z.Z.Z.Z.Z.Z.Z.Z.Z.Z.Z.Z.Z.Z.Z.Z.Z.Z.Z.Z.Z.",
"Z.Z.Z.Z.Z.Z.Z.Z.Z.Z.&.. u i.i.u.u.u.s.B X f } [ [ } [ [ [ [ } T @ 6 u.a.u.u.u.d.L . c Z.Z.Z.Z.Z.Z.Z.Z.Z.Z.Z.Z.Z.Z.Z.Z.Z.Z.Z.Z.Z.",
"Z.Z.Z.Z.Z.Z.Z.Z.Z.C.w O X.a.u.u.u.u.i.<.% = Y V z z V Y z z Y 5 X U s.r.u.i.u.u.r.; $ j.Z.Z.Z.Z.Z.Z.Z.Z.Z.Z.Z.Z.Z.Z.Z.Z.Z.Z.Z.Z.",
"Z.Z.Z.Z.Z.Z.Z.Z.Z.7.O 6 u.u.u.u.u.u.i.r.< $ o . . . . . . . . $ @ ..a.u.u.u.u.u.p.C . J Z.C.Z.Z.Z.Z.Z.Z.Z.Z.Z.Z.Z.Z.Z.Z.Z.Z.Z.Z.",
"Z.Z.Z.Z.Z.Z.Z.C.Z.m . I a.u.u.u.u.u.i.0.% - J K O.O.O.K K K @.e O ! a.u.u.u.u.u.p.,.$ ; m.Z.Z.Z.Z.Z.Z.Z.Z.Z.Z.Z.Z.Z.Z.Z.Z.Z.Z.Z.",
"Z.Z.Z.Z.Z.Z.Z.Z.x.& & q.i.u.i.u.u.u.a.U . S C.Z.Z.Z.Z.Z.Z.Z.Z.1.. i i.u.u.u.u.u.i.p.p . ;.Z.Z.Z.Z.Z.Z.Z.Z.Z.Z.Z.Z.Z.Z.Z.Z.Z.Z.Z.",
"Z.Z.Z.Z.Z.Z.C.Z.$.. B p.u.u.u.u.u.u.u.7 O 7.Z.C.C.Z.Z.C.Z.C.Z.m.> $ <.p.u.u.u.u.u.a.^ O r Z.Z.Z.Z.Z.Z.Z.Z.Z.Z.Z.Z.Z.Z.Z.Z.Z.Z.Z.",
"Z.Z.Z.Z.Z.Z.Z.B.q @ X.a.u.u.u.u.u.a.X.O q C.Z.Z.Z.Z.Z.Z.Z.Z.C.Z.J . C a.u.u.u.u.u.i.r.1 O g.Z.C.Z.Z.Z.Z.Z.Z.Z.Z.Z.Z.Z.Z.Z.Z.Z.Z.",
"Z.Z.Z.Z.Z.C.Z.5.o 7 i.u.u.u.u.u.y.a.x . &.Z.C.Z.Z.Z.Z.Z.Z.Z.Z.Z.j.@ ; w.i.u.u.u.u.y.a.L . D Z.Z.Z.Z.Z.Z.Z.Z.Z.Z.Z.Z.Z.Z.Z.Z.Z.Z.",
"Z.Z.Z.Z.Z.Z.Z.b . U s.y.u.u.u.u.p.0.& & v.Z.Z.Z.Z.Z.Z.Z.Z.Z.Z.Z.Z.c O ! a.u.u.u.u.u.p.0.% = v.Z.Z.Z.Z.Z.Z.Z.Z.Z.Z.Z.Z.Z.Z.Z.Z.Z.",
"Z.Z.Z.Z.Z.Z.z.% = e.i.u.u.u.u.u.s.L . S Z.Z.Z.Z.Z.Z.Z.Z.Z.Z.Z.C.Z.3.. w u.u.u.u.u.u.u.p.x . -.Z.C.Z.Z.Z.Z.Z.Z.Z.Z.Z.Z.Z.Z.Z.Z.Z.",
"Z.Z.Z.Z.C.Z.6.X p a.u.u.u.u.u.u.t.1 O 9.Z.C.Z.Z.Z.Z.Z.Z.Z.Z.Z.Z.Z.M.2 @ :.a.u.u.u.u.y.a.U . H Z.Z.Z.Z.Z.Z.Z.Z.Z.Z.Z.Z.Z.Z.Z.Z.Z.",
"Z.Z.Z.Z.Z.Z.5.. x p.u.u.u.u.u.s.| O r C.Z.Z.Z.Z.Z.Z.Z.Z.Z.Z.Z.Z.C.Z.#.. B a.u.u.i.u.u.s.~ . F Z.C.Z.Z.Z.Z.Z.Z.Z.Z.Z.Z.Z.Z.Z.Z.Z.",
"Z.Z.Z.Z.Z.Z.l.$ ; r.u.y.u.u.u.a.p . =.Z.C.Z.Z.Z.Z.Z.Z.Z.Z.Z.Z.Z.Z.Z.l.% = q.i.u.u.u.y.a.x . =.Z.Z.Z.Z.Z.Z.Z.Z.Z.Z.Z.Z.Z.Z.Z.Z.Z.",
"Z.Z.Z.Z.Z.Z.Z.s O C s.a.i.i.s.! @ ; m.Z.Z.Z.Z.Z.Z.Z.Z.Z.Z.Z.Z.Z.Z.Z.Z.n . N a.a.i.p.s.| $ & c.Z.Z.Z.Z.Z.Z.Z.Z.Z.Z.Z.Z.Z.Z.Z.Z.Z.",
"Z.Z.Z.Z.Z.Z.Z.j.$ O v :.q.<.Z % . =.Z.Z.Z.Z.Z.Z.Z.Z.Z.Z.Z.Z.Z.Z.Z.Z.Z.z.& O i X.0.<.G & . &.Z.Z.Z.Z.Z.Z.Z.Z.Z.Z.Z.Z.Z.Z.Z.Z.Z.Z.",
"Z.Z.Z.Z.Z.Z.C.Z.5.= . O % @ . @ $.Z.Z.Z.Z.Z.Z.Z.Z.Z.Z.Z.Z.Z.Z.Z.Z.Z.Z.Z.9.> . O % @ . O @.Z.Z.Z.Z.Z.Z.Z.Z.Z.Z.Z.Z.Z.Z.Z.Z.Z.Z.Z.",
"Z.Z.Z.Z.Z.Z.Z.Z.Z.v.+.r > q F h.Z.Z.Z.Z.Z.Z.Z.Z.Z.Z.Z.Z.Z.Z.Z.Z.Z.Z.Z.Z.Z.m.$.r 2 q M g.Z.Z.Z.Z.Z.Z.Z.Z.Z.Z.Z.Z.Z.Z.Z.Z.Z.Z.Z.Z.",
"Z.Z.Z.Z.Z.Z.Z.Z.Z.Z.Z.C.N.C.Z.Z.Z.Z.Z.Z.Z.Z.Z.Z.Z.Z.Z.Z.Z.Z.Z.Z.Z.Z.Z.Z.C.Z.Z.Z.B.C.Z.Z.Z.Z.Z.Z.Z.Z.Z.Z.Z.Z.Z.Z.Z.Z.Z.Z.Z.Z.Z.Z.",
"Z.Z.Z.Z.Z.Z.Z.Z.Z.Z.C.Z.Z.Z.Z.C.Z.Z.Z.Z.Z.Z.Z.Z.Z.Z.Z.Z.Z.Z.Z.Z.Z.Z.Z.Z.Z.Z.C.Z.Z.Z.Z.Z.Z.Z.Z.Z.Z.Z.Z.Z.Z.Z.Z.Z.Z.Z.Z.Z.Z.Z.Z.Z.",
"Z.Z.Z.Z.Z.Z.Z.Z.Z.Z.Z.Z.Z.Z.Z.Z.Z.Z.Z.Z.Z.Z.Z.Z.Z.Z.Z.Z.Z.Z.Z.Z.Z.Z.Z.Z.Z.Z.Z.Z.C.Z.Z.Z.Z.Z.Z.Z.Z.Z.Z.Z.Z.Z.Z.Z.Z.Z.Z.Z.Z.Z.Z.Z.",
"Z.Z.Z.Z.Z.Z.Z.Z.Z.Z.Z.Z.Z.Z.Z.Z.Z.Z.Z.Z.Z.Z.Z.Z.Z.Z.Z.Z.Z.Z.Z.Z.Z.Z.Z.Z.Z.Z.Z.Z.Z.Z.Z.Z.Z.Z.Z.Z.Z.Z.Z.Z.Z.Z.Z.Z.Z.Z.Z.Z.Z.Z.Z.Z.",
"Z.Z.Z.Z.Z.Z.Z.Z.Z.Z.Z.Z.Z.Z.Z.Z.Z.Z.Z.Z.Z.Z.Z.Z.Z.Z.Z.Z.Z.Z.Z.Z.Z.Z.Z.Z.Z.Z.Z.Z.Z.Z.Z.Z.Z.Z.Z.Z.Z.Z.Z.Z.Z.Z.Z.Z.Z.Z.Z.Z.Z.Z.Z.Z.",
"Z.Z.Z.Z.Z.Z.Z.Z.Z.Z.Z.Z.Z.Z.Z.Z.Z.Z.Z.Z.Z.Z.Z.Z.Z.Z.Z.Z.Z.Z.Z.Z.Z.Z.Z.Z.Z.Z.Z.Z.Z.Z.Z.Z.Z.Z.Z.Z.Z.Z.Z.Z.Z.Z.Z.Z.Z.Z.Z.Z.Z.Z.Z.Z.",
"Z.Z.Z.Z.Z.Z.Z.Z.Z.Z.Z.Z.Z.Z.Z.Z.Z.Z.Z.Z.Z.Z.Z.Z.Z.Z.Z.Z.Z.Z.Z.Z.Z.Z.Z.Z.Z.Z.Z.Z.Z.Z.Z.Z.Z.Z.Z.Z.Z.Z.Z.Z.Z.Z.Z.Z.Z.Z.Z.Z.Z.Z.Z.Z."
};
