/* XPM */
static char *player__47_1710156989[] = {
/* columns rows colors chars-per-pixel */
"64 64 152 2 ",
"   c #000A61",
".  c #001564",
"X  c #001A66",
"o  c #001768",
"O  c #001C6A",
"+  c #002166",
"@  c #00236D",
"#  c #01286F",
"$  c #012571",
"%  c #042974",
"&  c #092D76",
"*  c #072B79",
"=  c #0C2E7A",
"-  c #0D307A",
";  c #11327C",
":  c #19397F",
">  c #0F3082",
",  c #163581",
"<  c #1A3683",
"1  c #1D3B82",
"2  c #143389",
"3  c #19358D",
"4  c #1C3792",
"5  c #1E3893",
"6  c #213C85",
"7  c #243D8A",
"8  c #2A3F8D",
"9  c #203B96",
"0  c #243D9B",
"q  c #293FA4",
"w  c #244184",
"e  c #2A428C",
"r  c #2D498A",
"t  c #324D8C",
"y  c #36518F",
"u  c #2E4391",
"i  c #334693",
"p  c #374996",
"a  c #394997",
"s  c #3C4C9A",
"d  c #375290",
"f  c #3C5692",
"g  c #3F5994",
"h  c #2A40A4",
"j  c #2E42AA",
"k  c #3244AE",
"l  c #3446B1",
"z  c #3748B4",
"x  c #3949B6",
"c  c #3C4ABB",
"v  c #414E9E",
"b  c #425B96",
"n  c #43509E",
"m  c #465F99",
"M  c #4D659C",
"N  c #51679E",
"B  c #51689E",
"V  c #434FA1",
"C  c #4652A1",
"Z  c #4D56A6",
"A  c #545AAB",
"S  c #595DAE",
"D  c #5C5FB0",
"F  c #566BA0",
"G  c #596EA2",
"H  c #5D72A4",
"J  c #5E61B2",
"K  c #6276A7",
"L  c #6579A8",
"P  c #6A7DAB",
"I  c #6163B4",
"U  c #6766B8",
"Y  c #6867B9",
"T  c #6D6ABD",
"R  c #706CBF",
"E  c #3F4CC1",
"W  c #434FC5",
"Q  c #454FC8",
"!  c #4752CA",
"~  c #4953CD",
"^  c #746EC2",
"/  c #7770C4",
"(  c #7A72C6",
")  c #7E74C9",
"_  c #5B5CE5",
"`  c #605FEC",
"'  c #6060ED",
"]  c #6663F5",
"[  c #6864F7",
"{  c #6C66FC",
"}  c #6F68FF",
"|  c #736AFF",
" . c #8176CB",
".. c #8478CD",
"X. c #8B7CD2",
"o. c #917ED5",
"O. c #7183AF",
"+. c #7284B0",
"@. c #7788B3",
"#. c #7B8DB6",
"$. c #8394BB",
"%. c #8897BC",
"&. c #8799BE",
"*. c #8B9ABE",
"=. c #8F9EC1",
"-. c #909FC1",
";. c #9381D7",
":. c #9682D9",
">. c #9B85DC",
",. c #9E88DF",
"<. c #95A4C5",
"1. c #99A6C6",
"2. c #9BA8C7",
"3. c #9CAAC8",
"4. c #A2AECC",
"5. c #A6B2CD",
"6. c #A8B3CF",
"7. c #ABB6D1",
"8. c #AEB9D2",
"9. c #B4BDD5",
"0. c #9F88E0",
"q. c #A58CE4",
"w. c #A98EE7",
"e. c #AB8FE8",
"r. c #AD91E9",
"t. c #B394ED",
"y. c #B797F0",
"u. c #B897F1",
"i. c #BB9AF4",
"p. c #C09DF7",
"a. c #C39EF9",
"s. c #C6A0FB",
"d. c #C9A2FD",
"f. c #D0A6FF",
"g. c #D2A8FF",
"h. c #B7C1D7",
"j. c #BAC2D8",
"k. c #C2CBDE",
"l. c #C8CFE0",
"z. c #CAD1E2",
"x. c #D3D9E6",
"c. c #D7DDE9",
"v. c #D9DEEA",
"b. c #DDE2EC",
"n. c #E1E5EE",
"m. c #E5E9F1",
"M. c #EAEDF4",
"N. c #EFF2F6",
"B. c #F1F3F7",
"V. c #F3F5F8",
"C. c #F6F8FA",
"Z. c #FFFFFF",
/* pixels */
"Z.Z.Z.Z.Z.Z.Z.Z.Z.Z.Z.Z.Z.Z.Z.Z.Z.Z.Z.Z.Z.Z.Z.Z.Z.Z.Z.Z.Z.Z.Z.Z.Z.Z.Z.Z.Z.Z.Z.Z.Z.Z.Z.Z.Z.Z.Z.Z.Z.Z.Z.Z.Z.Z.Z.Z.Z.Z.Z.Z.Z.Z.Z.Z.",
"Z.Z.Z.Z.Z.Z.Z.Z.Z.Z.Z.Z.Z.Z.Z.Z.Z.Z.Z.Z.Z.Z.Z.Z.Z.Z.Z.Z.Z.Z.Z.Z.Z.Z.Z.Z.Z.Z.Z.Z.Z.Z.Z.Z.Z.Z.Z.Z.Z.Z.Z.Z.Z.Z.Z.Z.Z.Z.Z.Z.Z.Z.Z.Z.",
"Z.Z.Z.Z.Z.Z.Z.Z.Z.Z.Z.Z.Z.Z.Z.Z.Z.Z.Z.Z.Z.Z.Z.Z.Z.Z.Z.Z.Z.Z.Z.Z.Z.Z.Z.Z.Z.Z.Z.Z.Z.Z.Z.Z.Z.Z.Z.Z.Z.Z.Z.Z.Z.Z.Z.Z.Z.Z.Z.Z.Z.Z.Z.Z.",
"Z.Z.Z.Z.Z.Z.Z.Z.Z.Z.Z.Z.Z.Z.Z.Z.Z.Z.Z.Z.Z.Z.Z.Z.Z.Z.Z.Z.Z.Z.Z.Z.Z.Z.Z.Z.Z.Z.Z.Z.Z.Z.Z.Z.Z.Z.Z.Z.Z.Z.Z.Z.Z.Z.Z.Z.Z.Z.Z.Z.Z.Z.Z.Z.",
"Z.Z.Z.Z.Z.Z.Z.Z.Z.Z.Z.Z.Z.Z.Z.Z.Z.Z.Z.Z.Z.Z.Z.Z.Z.Z.Z.Z.Z.Z.Z.Z.Z.Z.Z.Z.Z.Z.Z.Z.Z.Z.Z.Z.Z.Z.Z.Z.Z.Z.Z.Z.Z.Z.Z.Z.Z.Z.Z.Z.Z.Z.Z.Z.",
"Z.Z.Z.Z.Z.Z.Z.Z.Z.Z.Z.Z.Z.Z.Z.Z.Z.Z.Z.Z.Z.Z.Z.Z.Z.Z.Z.Z.Z.Z.Z.Z.Z.C.Z.Z.Z.Z.Z.Z.Z.Z.Z.Z.Z.Z.Z.Z.Z.Z.Z.Z.Z.Z.Z.Z.Z.Z.Z.Z.Z.Z.Z.Z.",
"Z.Z.Z.Z.Z.Z.Z.Z.Z.Z.Z.Z.Z.Z.Z.Z.Z.Z.Z.Z.Z.Z.Z.Z.Z.Z.Z.Z.Z.Z.Z.Z.Z.Z.Z.b.z.v.C.Z.Z.Z.Z.Z.Z.Z.Z.Z.Z.Z.Z.Z.Z.Z.Z.Z.Z.Z.Z.Z.Z.Z.Z.Z.",
"Z.Z.Z.Z.Z.Z.Z.Z.Z.Z.Z.Z.Z.Z.Z.Z.Z.Z.Z.Z.Z.Z.Z.Z.Z.Z.Z.Z.Z.Z.Z.Z.Z.8.f = @ % t <.Z.Z.Z.Z.Z.Z.Z.Z.Z.Z.Z.Z.Z.Z.Z.Z.Z.Z.Z.Z.Z.Z.Z.Z.",
"Z.Z.Z.Z.Z.Z.Z.Z.Z.Z.Z.Z.Z.Z.Z.Z.Z.Z.Z.Z.Z.Z.Z.Z.Z.Z.Z.Z.Z.Z.Z.Z.$.o X - 6 ; O o H Z.Z.Z.Z.Z.Z.Z.Z.Z.Z.Z.Z.Z.Z.Z.Z.Z.Z.Z.Z.Z.Z.Z.",
"Z.Z.Z.Z.Z.Z.Z.Z.Z.Z.Z.Z.Z.Z.Z.Z.Z.Z.Z.Z.Z.Z.Z.Z.Z.Z.Z.Z.Z.Z.Z.5.o % I r.i.y./ - o G Z.Z.Z.Z.Z.Z.Z.Z.Z.Z.Z.Z.Z.Z.Z.Z.Z.Z.Z.Z.Z.Z.",
"Z.Z.Z.Z.Z.Z.Z.Z.Z.Z.Z.Z.Z.Z.Z.Z.Z.Z.Z.Z.Z.Z.Z.Z.Z.Z.Z.Z.Z.Z.C.r O Y g.i.i.p.d.:.- . F Z.Z.Z.Z.Z.Z.Z.Z.Z.Z.Z.Z.Z.Z.Z.Z.Z.Z.Z.Z.Z.",
"Z.Z.Z.Z.Z.Z.Z.Z.Z.Z.Z.Z.Z.Z.Z.Z.Z.Z.Z.Z.Z.Z.Z.Z.Z.Z.Z.Z.Z.Z.z.$ < u.i.i.i.i.u.d.:.; o F Z.Z.Z.Z.Z.Z.Z.Z.Z.Z.Z.Z.Z.Z.Z.Z.Z.Z.Z.Z.",
"Z.Z.Z.Z.Z.Z.Z.Z.Z.Z.Z.Z.Z.Z.Z.Z.Z.Z.Z.Z.Z.Z.Z.Z.Z.Z.Z.Z.Z.Z.7.o a s.i.i.i.i.i.u.d.:.- o H Z.Z.Z.Z.Z.Z.Z.Z.Z.Z.Z.Z.Z.Z.Z.Z.Z.Z.Z.",
"Z.Z.Z.Z.Z.Z.Z.Z.Z.Z.Z.Z.Z.Z.Z.Z.Z.Z.Z.Z.Z.Z.Z.Z.Z.Z.Z.Z.Z.Z.h.O e i.u.i.i.i.i.i.y.d.:.; . %.Z.Z.Z.Z.Z.C.Z.Z.Z.Z.Z.Z.Z.Z.Z.Z.Z.Z.",
"Z.Z.Z.Z.Z.Z.Z.Z.Z.Z.Z.Z.Z.Z.Z.Z.Z.Z.Z.Z.Z.Z.Z.Z.Z.Z.Z.Z.Z.Z.m.; % >.s.u.i.i.i.i.i.u.d...@ : C.Z.Z.Z.Z.Z.Z.Z.Z.Z.Z.Z.Z.Z.Z.Z.Z.Z.",
"Z.Z.Z.Z.Z.Z.Z.Z.Z.Z.Z.Z.Z.Z.Z.Z.Z.Z.Z.Z.Z.Z.Z.Z.Z.Z.Z.Z.Z.Z.Z.L . 7 t.p.i.i.i.p.i.u.s.i.6 $ $.9.7.8.8.7.k.Z.Z.Z.Z.Z.Z.Z.Z.Z.Z.Z.",
"Z.Z.Z.Z.Z.Z.Z.Z.Z.V.b.Z.Z.Z.Z.Z.Z.Z.Z.Z.Z.Z.Z.Z.Z.Z.Z.Z.Z.Z.Z.M.r o e t.s.u.i.i.i.s.X.7 % % + X X o X + $ r 8.Z.Z.Z.Z.Z.Z.Z.Z.Z.",
"Z.Z.Z.Z.Z.Z.Z.Z.Z.L O z.Z.Z.Z.Z.Z.Z.Z.Z.Z.Z.Z.Z.Z.Z.Z.Z.Z.Z.Z.Z.n.w o e r.s.s.i.i.T @ + = 5 0 9 0 0 0 9 > + O %.Z.Z.Z.Z.Z.Z.Z.Z.",
"Z.Z.Z.Z.Z.Z.Z.Z.Z.P   P Z.Z.Z.Z.Z.Z.Z.Z.Z.Z.Z.Z.Z.Z.Z.Z.Z.Z.Z.Z.Z.b.w . u :.D 8 1 % % l ] { } { { { { { ] x % O 9.Z.Z.Z.Z.Z.Z.Z.",
"Z.Z.Z.Z.Z.Z.Z.Z.Z.z.@ < M.Z.Z.Z.C.Z.Z.Z.Z.Z.Z.Z.Z.Z.Z.Z.Z.Z.Z.Z.Z.Z.b.r $ % X + % $ j | ] ] ] ] [ ] ] ] [ | z X f Z.Z.Z.Z.Z.Z.Z.",
"Z.Z.Z.Z.Z.Z.Z.Z.Z.Z.b . 1.Z.C.Z.Z.Z.Z.Z.Z.Z.Z.Z.Z.Z.Z.Z.Z.Z.Z.Z.Z.C.Z.1.O % v ..- % _ { ] [ [ [ [ [ [ [ ] { ' = & b.Z.Z.Z.Z.Z.Z.",
"Z.Z.Z.Z.Z.Z.Z.Z.C.Z.<.o 1 r r H 9.Z.Z.Z.Z.Z.Z.Z.Z.Z.Z.Z.Z.Z.Z.Z.Z.Z.V.t O S d.r.% > ] { [ [ [ [ [ [ [ [ [ ] ] 2 # z.Z.Z.Z.Z.Z.Z.",
"Z.Z.Z.Z.Z.Z.Z.Z.Z.x.r $ + @ @ . O L Z.Z.Z.Z.Z.Z.Z.Z.Z.Z.Z.Z.Z.Z.Z.Z.6.o 7 u.a.q.= * _ { ] [ [ [ [ [ [ [ ] { ' = & v.Z.Z.Z.Z.Z.Z.",
"Z.Z.Z.Z.Z.Z.Z.Z.m.6 . 7 / 0.>.I = . P Z.Z.Z.Z.Z.Z.Z.Z.Z.Z.Z.Z.Z.Z.Z.N . Y d.y.p.u + c | ] ] ] ] ] ] ] ] ] | W O r Z.Z.Z.Z.Z.Z.Z.",
"Z.Z.Z.Z.Z.Z.Z.Z.O.. u t.d.a.a.d.X.& @ k.Z.Z.Z.Z.Z.Z.Z.Z.Z.Z.Z.Z.Z.x.% = w.p.u.d.) + * Q { | } } } } } | { ~ - . 1.Z.Z.Z.Z.Z.Z.Z.",
"Z.Z.Z.Z.Z.Z.Z.M.6 @ :.d.u.i.i.y.d.S . K Z.Z.Z.Z.Z.Z.Z.Z.Z.Z.Z.Z.Z.@.. C s.u.i.u.s.A O # 4 l x z z z z l 0 $ . L Z.Z.Z.Z.Z.Z.Z.Z.",
"Z.Z.Z.Z.Z.Z.Z.x.% < y.i.i.i.i.i.p.q.$ ; n.Z.Z.Z.Z.Z.Z.Z.Z.Z.Z.Z.N.w @ X.d.i.i.i.i.a.Y ; # X . . . . . . o ; #.Z.Z.Z.Z.Z.Z.Z.Z.Z.",
"Z.Z.Z.Z.Z.Z.Z.x.% < u.i.i.i.i.i.u.a.a . &.Z.Z.Z.Z.Z.Z.Z.Z.Z.Z.Z.5.. 8 i.i.i.i.i.i.u.g.A o M *.$.$.%.$.&.5.n.Z.Z.Z.Z.Z.Z.Z.Z.Z.Z.",
"Z.Z.Z.Z.Z.Z.Z.B.w @ ;.s.i.i.i.i.u.d. .o t Z.Z.Z.Z.Z.Z.Z.Z.Z.Z.Z.M . T d.u.i.i.i.i.p.r.; @ z.Z.Z.Z.Z.Z.Z.Z.Z.Z.Z.Z.Z.Z.Z.Z.Z.Z.Z.",
"Z.Z.Z.Z.Z.Z.Z.Z.O.. Z d.u.i.i.p.i.i.y.1 O 9.Z.C.C.Z.Z.Z.Z.C.Z.l.@ - r.p.i.i.i.i.u.d./ o g Z.C.Z.C.Z.Z.C.Z.Z.Z.Z.Z.Z.Z.Z.Z.Z.Z.Z.",
"Z.Z.Z.Z.Z.Z.Z.Z.l.$ - e.p.i.i.i.i.u.d.J . G Z.Z.Z.Z.Z.Z.Z.Z.Z.+.. Z s.i.i.i.p.i.u.p.u . 2.Z.C.Z.Z.Z.Z.Z.Z.Z.Z.Z.Z.Z.Z.Z.Z.Z.Z.Z.",
"Z.Z.Z.Z.Z.Z.Z.Z.Z.m . R d.u.i.i.i.i.a.q.$ : 4.7.6.6.6.6.5.5.7.r O X.s.i.i.i.i.i.s.:.@ 1 M.Z.Z.Z.Z.Z.Z.Z.Z.Z.Z.Z.Z.Z.Z.Z.Z.Z.Z.Z.",
"Z.Z.Z.Z.Z.Z.Z.Z.Z.4.. 8 i.i.i.i.i.i.i.t., % O O X o X X X o o % & ,.a.u.i.i.i.i.d.Z . O.Z.Z.Z.Z.Z.Z.Z.Z.Z.Z.Z.Z.Z.Z.Z.Z.Z.Z.Z.Z.",
"Z.Z.Z.Z.Z.Z.Z.Z.Z.N.w @ o.s.i.i.i.i.i.r.* * 0 u 0 q u 0 0 q u - @ X.s.i.i.i.u.a.r.- % z.Z.Z.Z.Z.Z.Z.Z.Z.Z.Z.Z.Z.Z.Z.Z.Z.Z.Z.Z.Z.",
"Z.Z.Z.Z.Z.Z.Z.Z.Z.Z.@.. v d.i.i.i.y.g.T O 5 } { } { } { } { | k X v d.i.u.i.u.g.I o b Z.Z.Z.Z.Z.Z.Z.Z.Z.Z.Z.Z.Z.Z.Z.Z.Z.Z.Z.Z.Z.",
"Z.Z.Z.Z.Z.Z.Z.Z.Z.Z.b.= @ J i.s.d.s.) * + ~ { ] ] [ ] ] ] ] [ _ & # S i.d.d.a.^ % o 9.Z.C.Z.Z.Z.Z.Z.Z.Z.Z.Z.Z.Z.Z.Z.Z.Z.Z.Z.Z.Z.",
"Z.Z.Z.Z.Z.Z.Z.Z.Z.C.Z.2.@ $ 7 D I p $ + j { ] [ [ [ [ [ [ [ [ | E # @ 7 A J u # O +.Z.Z.Z.Z.Z.Z.Z.Z.Z.Z.Z.Z.Z.Z.Z.Z.Z.Z.Z.Z.Z.Z.",
"Z.Z.Z.Z.Z.Z.Z.Z.Z.Z.Z.Z.<.$ % o O $ % h } [ [ [ [ [ [ [ [ [ [ ' | E % % O X $ $ P Z.Z.Z.Z.Z.Z.Z.Z.Z.Z.Z.Z.Z.Z.Z.Z.Z.Z.Z.Z.Z.Z.Z.",
"Z.Z.Z.Z.Z.Z.Z.Z.Z.Z.Z.v.t @ % 6 7 = # = ~ { ] [ [ [ [ [ [ [ [ { _ 3 # $ 7 7 & @ ; 6.Z.Z.Z.Z.Z.Z.Z.Z.Z.Z.Z.Z.Z.Z.Z.Z.Z.Z.Z.Z.Z.Z.",
"Z.Z.Z.Z.Z.Z.Z.Z.Z.Z.C.t . e :.i.i.q.C + % _ { ] ] ] ] ] ] ] [ [ 3 X 7 ;.y.i.q.C O & z.Z.Z.Z.Z.Z.Z.Z.Z.Z.Z.Z.Z.Z.Z.Z.Z.Z.Z.Z.Z.Z.",
"Z.Z.Z.Z.Z.Z.Z.Z.Z.Z.1.. 6 y.d.i.i.a.s.V + h | { } } } } } } | ! + < r.d.i.i.s.d.C . H Z.C.Z.Z.Z.Z.Z.Z.Z.Z.Z.Z.Z.Z.Z.Z.Z.Z.Z.Z.Z.",
"Z.Z.Z.Z.Z.Z.Z.Z.Z.Z.b o ^ d.u.i.i.u.a.0.$ > ! ~ ! ! ! ! ! ! ~ 5 + ^ d.y.i.i.u.a.q.% ; b.Z.Z.Z.Z.Z.Z.Z.Z.Z.Z.Z.Z.Z.Z.Z.Z.Z.Z.Z.Z.",
"Z.Z.Z.Z.Z.Z.Z.Z.Z.l.$ ; r.i.i.i.i.i.i.y.: % o X . X o . X X X # % o.s.i.p.i.i.i.s.s . *.Z.Z.Z.Z.Z.Z.Z.Z.Z.Z.Z.Z.Z.Z.Z.Z.Z.Z.Z.Z.",
"Z.Z.Z.Z.Z.Z.Z.Z.Z.O.. Z d.u.i.i.i.i.a.e.= & B B H B B N B B H 6 + ..s.y.i.i.i.u.s. .X d Z.Z.Z.Z.Z.Z.Z.Z.Z.Z.Z.Z.Z.Z.Z.Z.Z.Z.Z.Z.",
"Z.Z.Z.Z.Z.Z.Z.Z.N.1 @ o.s.i.i.i.i.u.d.( o f Z.Z.Z.Z.Z.Z.Z.Z.Z.#.. Z d.u.i.i.i.i.i.t.: O k.Z.Z.Z.Z.Z.Z.Z.Z.Z.Z.Z.Z.Z.Z.Z.Z.Z.Z.Z.",
"Z.Z.Z.Z.Z.Z.Z.Z.5.. e p.i.i.p.i.i.u.a.a . -.Z.C.Z.Z.Z.Z.Z.Z.Z.k.$ = r.p.i.i.i.i.u.d.S . L Z.C.Z.Z.Z.Z.Z.Z.Z.Z.Z.Z.Z.Z.Z.Z.Z.Z.Z.",
"Z.Z.Z.Z.Z.Z.Z.Z.M . T d.u.i.i.i.i.a.,.# ; n.Z.Z.Z.Z.Z.Z.Z.Z.Z.Z.m o ^ d.u.i.i.p.i.s.>.# , M.Z.Z.Z.Z.Z.Z.Z.Z.Z.Z.Z.Z.Z.Z.Z.Z.Z.Z.",
"Z.Z.Z.Z.Z.Z.Z.z.% = w.p.i.i.i.i.i.d.J . H Z.Z.Z.Z.Z.Z.Z.Z.Z.Z.Z.3.. i i.i.i.i.i.i.i.p.i o 2.Z.Z.Z.Z.Z.Z.Z.Z.Z.Z.Z.Z.Z.Z.Z.Z.Z.Z.",
"Z.Z.Z.Z.Z.Z.Z.#.. n s.i.i.i.i.i.i.u.1 O 9.Z.Z.Z.Z.Z.Z.Z.Z.Z.Z.Z.M.< @ >.s.i.i.i.i.u.d.^ . b Z.Z.Z.Z.Z.Z.Z.Z.Z.Z.Z.Z.Z.Z.Z.Z.Z.Z.",
"Z.Z.Z.Z.Z.Z.C.r o X.s.i.i.i.i.i.d...O t Z.Z.Z.Z.Z.Z.Z.Z.Z.Z.Z.Z.Z.P . A d.i.i.i.i.u.p.t.; % z.Z.Z.Z.Z.Z.Z.Z.Z.Z.Z.Z.Z.Z.Z.Z.Z.Z.",
"Z.Z.Z.Z.Z.Z.x.% , t.i.i.i.i.i.i.a.v . $.Z.C.Z.Z.Z.Z.Z.Z.Z.Z.Z.Z.Z.k.@ ; t.i.i.i.i.i.i.a.n . 2.Z.Z.Z.Z.Z.Z.Z.Z.Z.Z.Z.Z.Z.Z.Z.Z.Z.",
"Z.Z.Z.Z.Z.Z.l.@ 6 i.i.i.i.i.i.a.q.& & v.Z.Z.Z.Z.Z.Z.Z.Z.Z.Z.Z.Z.Z.Z.f O ( d.u.i.i.p.u.d.Z . <.Z.Z.Z.Z.Z.Z.Z.Z.Z.Z.Z.Z.Z.Z.Z.Z.Z.",
"Z.Z.Z.Z.Z.Z.m.; & q.a.u.i.i.u.d.Y . B Z.Z.Z.Z.Z.Z.Z.Z.Z.Z.Z.Z.Z.C.Z.-.. p s.y.i.i.i.u.a.e o 8.Z.C.Z.Z.Z.Z.Z.Z.Z.Z.Z.Z.Z.Z.Z.Z.Z.",
"Z.Z.Z.Z.Z.Z.Z.M . Z d.a.i.i.d.r., o 8.Z.Z.Z.Z.Z.Z.Z.Z.Z.Z.Z.Z.Z.Z.Z.m.; $  .g.i.i.p.g./ @ 1 M.Z.Z.Z.Z.Z.Z.Z.Z.Z.Z.Z.Z.Z.Z.Z.Z.Z.",
"Z.Z.Z.Z.Z.Z.Z.k.% @ Z q.i.u.X.7 . b Z.Z.Z.Z.Z.Z.Z.Z.Z.Z.Z.Z.Z.Z.Z.C.Z.$.. - T t.i.t.Y = . *.Z.Z.Z.Z.Z.Z.Z.Z.Z.Z.Z.Z.Z.Z.Z.Z.Z.Z.",
"Z.Z.Z.Z.Z.Z.Z.Z.2.$ . % 7 , @ . r b.Z.Z.Z.Z.Z.Z.Z.Z.Z.Z.Z.Z.Z.Z.Z.Z.Z.Z.K o o ; 7 - o o P Z.Z.Z.Z.Z.Z.Z.Z.Z.Z.Z.Z.Z.Z.Z.Z.Z.Z.Z.",
"Z.Z.Z.Z.Z.Z.Z.Z.Z.l.M ; $ % w #.B.Z.Z.Z.Z.Z.Z.Z.Z.Z.Z.Z.Z.Z.Z.Z.Z.Z.Z.Z.Z.3.y % # = f 5.Z.Z.Z.Z.Z.Z.Z.Z.Z.Z.Z.Z.Z.Z.Z.Z.Z.Z.Z.Z.",
"Z.Z.Z.Z.Z.Z.Z.Z.Z.Z.Z.n.l.z.V.Z.Z.Z.Z.Z.Z.Z.Z.Z.Z.Z.Z.Z.Z.Z.Z.Z.Z.Z.Z.Z.Z.Z.Z.v.k.b.Z.Z.Z.Z.Z.Z.Z.Z.Z.Z.Z.Z.Z.Z.Z.Z.Z.Z.Z.Z.Z.Z.",
"Z.Z.Z.Z.Z.Z.Z.Z.Z.Z.Z.Z.Z.Z.Z.Z.Z.Z.Z.Z.Z.Z.Z.Z.Z.Z.Z.Z.Z.Z.Z.Z.Z.Z.Z.Z.Z.Z.Z.Z.Z.Z.Z.Z.Z.Z.Z.Z.Z.Z.Z.Z.Z.Z.Z.Z.Z.Z.Z.Z.Z.Z.Z.Z.",
"Z.Z.Z.Z.Z.Z.Z.Z.Z.Z.Z.Z.Z.Z.Z.Z.Z.Z.Z.Z.Z.Z.Z.Z.Z.Z.Z.Z.Z.Z.Z.Z.Z.Z.Z.Z.Z.Z.Z.Z.Z.Z.Z.Z.Z.Z.Z.Z.Z.Z.Z.Z.Z.Z.Z.Z.Z.Z.Z.Z.Z.Z.Z.Z.",
"Z.Z.Z.Z.Z.Z.Z.Z.Z.Z.Z.Z.Z.Z.Z.Z.Z.Z.Z.Z.Z.Z.Z.Z.Z.Z.Z.Z.Z.Z.Z.Z.Z.Z.Z.Z.Z.Z.Z.Z.Z.Z.Z.Z.Z.Z.Z.Z.Z.Z.Z.Z.Z.Z.Z.Z.Z.Z.Z.Z.Z.Z.Z.Z.",
"Z.Z.Z.Z.Z.Z.Z.Z.Z.Z.Z.Z.Z.Z.Z.Z.Z.Z.Z.Z.Z.Z.Z.Z.Z.Z.Z.Z.Z.Z.Z.Z.Z.Z.Z.Z.Z.Z.Z.Z.Z.Z.Z.Z.Z.Z.Z.Z.Z.Z.Z.Z.Z.Z.Z.Z.Z.Z.Z.Z.Z.Z.Z.Z.",
"Z.Z.Z.Z.Z.Z.Z.Z.Z.Z.Z.Z.Z.Z.Z.Z.Z.Z.Z.Z.Z.Z.Z.Z.Z.Z.Z.Z.Z.Z.Z.Z.Z.Z.Z.Z.Z.Z.Z.Z.Z.Z.Z.Z.Z.Z.Z.Z.Z.Z.Z.Z.Z.Z.Z.Z.Z.Z.Z.Z.Z.Z.Z.Z.",
"Z.Z.Z.Z.Z.Z.Z.Z.Z.Z.Z.Z.Z.Z.Z.Z.Z.Z.Z.Z.Z.Z.Z.Z.Z.Z.Z.Z.Z.Z.Z.Z.Z.Z.Z.Z.Z.Z.Z.Z.Z.Z.Z.Z.Z.Z.Z.Z.Z.Z.Z.Z.Z.Z.Z.Z.Z.Z.Z.Z.Z.Z.Z.Z."
};
