/* XPM */
static char *player__35_1710156995[] = {
/* columns rows colors chars-per-pixel */
"64 64 150 2 ",
"   c #000C61",
".  c #001564",
"X  c #001B65",
"o  c #001C6A",
"O  c #002166",
"+  c #00236D",
"@  c #012571",
"#  c #052974",
"$  c #092C76",
"%  c #0B2D7A",
"&  c #102F7B",
"*  c #0E307B",
"=  c #13327D",
"-  c #15387D",
";  c #19397F",
":  c #153483",
">  c #193582",
",  c #1D3A83",
"<  c #143388",
"1  c #1A378F",
"2  c #193790",
"3  c #1D3992",
"4  c #213D85",
"5  c #253D8A",
"6  c #243C9C",
"7  c #263DA0",
"8  c #283EA3",
"9  c #254285",
"0  c #2A438B",
"q  c #2E4A8A",
"w  c #324D8D",
"e  c #37518F",
"r  c #2F4492",
"t  c #324693",
"y  c #384997",
"u  c #3C4C9A",
"i  c #3C5592",
"p  c #2B41A3",
"a  c #2E43A8",
"s  c #3244AE",
"d  c #3547B2",
"f  c #3748B3",
"g  c #3949B6",
"h  c #3D4CBD",
"j  c #414E9D",
"k  c #435B96",
"l  c #43519F",
"z  c #475F98",
"x  c #485E98",
"c  c #456099",
"v  c #4A639B",
"b  c #50679D",
"n  c #546B9F",
"m  c #4652A1",
"M  c #4B55A5",
"N  c #5057A8",
"B  c #545AAB",
"V  c #595DAE",
"C  c #5C5FB1",
"Z  c #556CA0",
"A  c #596FA2",
"S  c #5E73A5",
"D  c #5F75A8",
"F  c #5E61B2",
"G  c #6176A7",
"H  c #6679A9",
"J  c #6A7DAB",
"K  c #6263B5",
"L  c #6967B9",
"P  c #6D6ABC",
"I  c #706CBF",
"U  c #414DC2",
"Y  c #4750CA",
"T  c #4A53CF",
"R  c #4F56D5",
"E  c #5056D7",
"W  c #5157D9",
"Q  c #5559DD",
"!  c #736DC1",
"~  c #7B72C6",
"^  c #7E74C9",
"/  c #585AE2",
"(  c #5D5EE8",
")  c #6261EF",
"_  c #6663F5",
"`  c #6864F7",
"'  c #6C66FC",
"]  c #6F68FF",
"[  c #736BFF",
"{  c #8276CB",
"}  c #8679CE",
"|  c #8C7CD2",
" . c #917FD6",
".. c #7283AF",
"X. c #7486B1",
"o. c #7588B3",
"O. c #7A8CB6",
"+. c #7C8FB8",
"@. c #7F91B8",
"#. c #8494BB",
"$. c #8897BC",
"%. c #899ABF",
"&. c #8E9EC1",
"*. c #909FC2",
"=. c #9281D7",
"-. c #9783DA",
";. c #9A85DC",
":. c #93A1C4",
">. c #98A6C6",
",. c #9DABC9",
"<. c #A1AECB",
"1. c #A5B1CD",
"2. c #A9B4CF",
"3. c #AAB5D0",
"4. c #AEB9D2",
"5. c #B3BDD5",
"6. c #9F88E0",
"7. c #A48BE3",
"8. c #A98EE6",
"9. c #AA8FE8",
"0. c #AD91EA",
"q. c #B394EE",
"w. c #B797F1",
"e. c #B897F1",
"r. c #BB9AF4",
"t. c #C09DF7",
"y. c #C39EF9",
"u. c #C6A0FB",
"i. c #CAA2FD",
"p. c #D3A9FF",
"a. c #B6C0D7",
"s. c #B8C1D7",
"d. c #BCC5DA",
"f. c #C2CADD",
"g. c #C7CEE0",
"h. c #C8CFE0",
"j. c #CDD3E3",
"k. c #D0D7E5",
"l. c #D3D9E7",
"z. c #D7DCE8",
"x. c #D9DEEA",
"c. c #DCE1EB",
"v. c #E2E6EF",
"b. c #E6E9F1",
"n. c #EAEEF4",
"m. c #EEF1F6",
"M. c #F1F3F7",
"N. c #F3F6F9",
"B. c #F7F9FB",
"V. c #FFFFFF",
/* pixels */
"V.V.V.V.V.V.V.V.V.V.V.V.V.V.V.V.V.V.V.V.V.V.V.V.V.V.V.V.V.V.V.V.V.V.V.V.V.V.V.V.V.V.V.V.V.V.V.V.V.V.V.V.V.V.V.V.V.V.V.V.V.V.V.V.",
"V.V.V.V.V.V.V.V.V.V.V.V.V.V.V.V.V.V.V.V.V.V.V.V.V.V.V.V.V.V.V.V.V.V.V.V.V.V.V.V.V.V.V.V.V.V.V.V.V.V.V.V.V.V.V.V.V.V.V.V.V.V.V.V.",
"V.V.V.V.V.V.V.V.V.V.V.V.V.V.V.V.V.V.V.V.V.V.V.V.V.V.V.V.V.V.V.V.V.V.V.V.V.V.V.V.V.V.V.V.V.V.V.V.V.V.V.V.V.V.V.V.V.V.V.V.V.V.V.V.",
"V.V.V.V.V.V.V.V.V.V.V.V.V.V.V.V.V.V.V.V.V.V.V.V.V.V.V.V.V.V.V.V.V.V.V.V.V.V.V.V.V.V.V.V.V.V.V.V.V.V.V.V.V.V.V.V.V.V.V.V.V.V.V.V.",
"V.V.V.V.V.V.V.V.V.V.V.V.V.V.V.V.V.V.V.V.V.V.V.V.V.V.V.V.V.V.V.V.V.V.V.V.B.V.V.V.B.V.V.V.B.V.V.V.V.V.V.V.V.V.V.V.V.V.V.V.V.V.V.V.",
"V.V.V.V.V.V.V.V.V.V.V.V.V.V.V.V.V.V.V.V.V.V.V.V.V.V.V.V.V.V.V.V.V.V.V.V.V.x.o.i q k #.v.V.V.V.V.V.V.V.V.V.V.V.V.V.V.V.V.V.V.V.V.",
"V.V.V.V.V.V.V.V.V.V.V.V.V.V.V.V.V.V.V.V.V.V.V.V.V.V.V.V.V.V.V.V.V.V.V.V.,.% . X + . . ; a.V.B.V.V.V.V.V.V.V.V.V.V.V.V.V.V.V.V.V.",
"V.V.V.V.V.V.V.V.V.V.V.V.V.V.V.V.V.V.V.V.V.V.V.V.V.V.V.V.V.V.V.V.V.B.V.4.X + m | ;.{ t o # j.V.B.V.V.V.V.V.V.V.V.V.V.V.V.V.V.V.V.",
"V.V.V.V.V.V.V.V.V.V.V.V.V.V.V.V.V.V.V.V.V.V.V.V.V.V.V.V.V.V.V.V.V.V.N.9 o F i.u.y.i.y.l X q B.V.V.V.V.V.V.V.V.V.V.V.V.V.V.V.V.V.",
"V.V.V.V.V.V.V.V.V.V.V.V.V.V.V.V.V.V.V.V.V.V.V.V.V.V.V.V.V.V.V.V.V.V.s.o 5 r.r.e.r.e.r.e.5 X X.V.V.V.V.V.V.V.V.V.V.V.V.V.V.V.V.V.",
"V.V.V.V.V.V.V.V.V.V.V.V.V.V.V.V.V.V.V.V.V.V.V.V.V.V.V.V.V.V.V.V.V.V.:.. M i.r.r.r.r.r.i. .@ + 5.V.B.V.V.V.V.V.V.V.V.V.V.V.V.V.V.",
"V.V.V.V.V.V.V.V.V.V.V.V.V.V.V.V.V.V.V.V.V.V.V.V.V.V.V.V.V.V.V.V.B.V.:.. N u.r.r.r.r.r.e.i.K X 9 n.V.V.V.V.V.V.V.V.V.V.V.V.V.V.V.",
"V.V.V.V.V.V.V.V.V.V.B.V.V.V.V.V.V.V.V.V.V.V.V.V.V.V.V.V.V.V.V.V.V.V.a.o 4 r.r.r.r.r.r.r.r.r.r . H V.V.V.V.V.V.V.V.V.V.V.V.V.V.V.",
"V.V.V.V.V.V.V.V.V.V.V.V.V.V.V.V.V.V.V.V.V.V.V.V.V.V.V.V.V.V.V.V.V.V.N.0 o L i.r.r.r.r.r.r.i.-.# $ z.V.B.V.V.V.V.V.V.V.V.V.V.V.V.",
"V.V.V.V.V.V.V.V.V.c.5.V.V.V.V.V.V.V.V.V.V.V.V.V.V.V.V.V.V.V.V.V.V.B.V.2.o $ ;.y.r.r.e.r.e.r.p.m . 3.V.V.V.V.B.V.V.V.V.V.V.V.V.V.",
"V.V.V.V.V.V.V.V.V.n   5.V.V.V.V.V.V.V.V.V.V.V.V.V.V.V.V.V.V.V.V.V.V.V.V.H . 0 r.r.u.u.r.i.0.^ r o G k.b.V.V.V.V.V.V.V.V.V.V.V.V.",
"V.V.V.V.V.V.V.V.V.@.. Z V.B.V.V.V.V.V.V.V.V.V.V.V.V.V.V.V.V.V.V.V.V.V.V.M.9 . V y.8.6.q.I = o O + o + ; e S %.j.V.V.V.V.V.V.V.V.",
"V.V.V.V.V.V.V.V.V.x.# $ v.V.V.V.B.V.V.V.V.V.V.V.V.V.V.V.V.V.V.V.V.V.V.B.V.f.$ # 5 # # * @ + 3 g d 6 < # + X . + S N.V.V.V.V.V.V.",
"V.V.V.V.V.V.V.V.V.V.Z . O.v.k.B.V.V.V.V.V.V.V.V.V.V.V.V.V.V.V.V.V.V.V.V.V.N.0 + + = = # # h ' [ ] ' _ ( E U p $ . k V.V.V.V.V.V.",
"V.V.V.V.V.V.V.V.B.V.>.o $ # # 0 #.N.V.V.V.V.V.V.V.V.V.V.V.V.V.V.V.V.V.V.V.G X : ! r.m O s [ ` _ _ _ ` ' ' ] ] Q : . #.V.V.V.V.V.",
"V.V.V.V.V.V.V.B.V.4.= + # > = o . w b.V.V.V.V.V.V.V.V.V.V.V.V.V.V.V.V.V.5.o $ -.p.r., @ Q ' _ ` ` ` ` ` _ _ _ ] T + 4 M.V.V.V.V.",
"V.V.V.V.V.V.V.V.l.$ o u ;.q.q.| 5 . k V.V.V.V.V.V.V.V.V.V.V.V.V.V.V.V.M.0 X L i.e.q.: # ( ' _ ` ` ` ` ` ` ` ` ` _ < + h.V.B.V.V.",
"V.V.V.V.V.V.V.V.S . m u.u.r.r.i.8.: o 4.V.B.V.V.V.V.V.V.V.V.V.V.V.B.V.o.. 0 r.r.r.r.5 + R ' _ ` ` ` ` ` ` ` ` _ ' 1 + d.V.V.V.V.",
"V.V.V.V.V.V.V.n.; # ;.u.r.r.r.r.i.L . v V.V.V.V.V.V.V.V.V.V.V.V.V.V.j.@ # | i.e.r.i.C . 6 ] ' ` _ _ _ ` ` ` _ ' _ $ # z.V.V.V.V.",
"V.V.V.V.V.V.V.j.@ , e.r.r.r.r.r.y.8.$ # l.V.V.V.V.V.V.V.V.V.V.V.V.V.i . B i.r.r.r.r.0.* + 7 ( ' ] ] ' ' ` _ ` [ d o e V.V.V.V.V.",
"V.V.V.V.V.V.V.z.$ = w.r.r.r.r.r.r.u.M . o.V.B.V.V.V.V.V.V.V.V.V.V.%.. > q.r.r.r.r.r.i.} % @ $ 3 a U E ( _ ` _ g # o 4.V.V.V.V.V.",
"V.V.V.V.V.V.V.B.q o } i.r.r.r.r.r.y.| + 4 m.V.V.V.V.V.V.V.V.V.V.c.= + { i.r.r.r.r.r.w.p.I + @ o . . o @ < 2 $ X o %.V.V.V.V.V.V.",
"V.V.V.V.V.V.B.V.#.. u i.r.r.r.r.r.r.r.0 X ,.V.B.B.V.B.V.B.V.B.V.Z . j y.r.r.r.r.r.r.r.q.5 o o.f.$.H i - + + $ k s.V.V.V.V.V.V.V.",
"V.V.V.V.V.V.V.V.c.$ # 7.t.r.r.r.r.r.i.! . x V.V.V.V.V.V.V.V.V.j.@ $ 7.y.r.r.r.r.r.r.i.F . w B.V.V.V.V.n.g.d.x.V.V.V.V.V.V.V.V.V.",
"V.V.V.V.V.V.V.V.V.A . K i.e.r.r.r.r.t.8.$ $ o.@.O.O.O.O.O.O.#.v o m i.r.r.r.r.r.r.u.-.# @ d.V.B.V.B.V.V.V.V.V.V.B.V.V.V.V.V.V.V.",
"V.V.V.V.V.V.V.V.V.s.o , w.r.r.r.r.r.r.w.> @ . . . . . . . . . + + K i.e.r.r.r.r.r.r.t . ..V.V.V.V.V.V.V.V.V.V.V.V.V.V.V.V.V.V.V.",
"V.V.V.V.V.V.V.V.V.B.w o { i.w.r.r.r.y.7.$ % g g g g g g g f g r + M i.r.r.r.r.r.i.P o , n.V.V.V.V.V.V.V.V.V.V.V.V.V.V.V.V.V.V.V.",
"V.V.V.V.V.V.V.V.V.V.&.. r r.y.r.r.r.i.B + 6 [ ' ] ] ' [ ' [ [ Q + = 0.y.e.e.e.i.7.= X <.V.B.V.V.V.V.V.V.V.V.V.V.V.V.V.V.V.V.V.V.",
"V.V.V.V.V.V.V.V.V.V.n.9 X u 8.y.y.r.F + + E ' _ _ _ _ _ _ _ _ ' 3 O r q.i.i.i.8.0 . Z V.V.V.V.V.V.V.V.V.V.V.V.V.V.V.V.V.V.V.V.V.",
"V.V.V.V.V.V.V.V.V.B.V.f., + * y j > + # h [ _ ` ` ` ` ` ` ` ` ' / : + = B K N = + 4 v.V.V.V.V.V.V.V.V.V.V.V.V.V.V.V.V.V.V.V.V.V.",
"V.V.V.V.V.V.V.V.V.V.B.V.#.@ # . o + # 8 [ _ ` ` ` ` ` ` ` ` ` ) [ Y @ @ X . o @ * z.V.V.V.V.V.V.V.V.V.V.V.V.V.V.V.V.V.V.V.V.V.V.",
"V.V.V.V.V.V.V.V.V.B.V.:.@ + 5 B B 0 @ + f ' _ ` ` ` ` ` _ _ _ [ E $ + > N F u # @ A B.V.V.V.V.V.V.V.V.V.V.V.V.V.V.V.V.V.V.V.V.V.",
"V.V.V.V.V.V.V.V.V.V.l.$ + K y.i.u.y.P # # W ' _ _ _ _ _ _ _ _ _ < + l q.u.u.u.| : . *.V.V.V.V.V.V.V.V.V.V.V.V.V.V.V.V.V.V.V.V.V.",
"V.V.V.V.V.V.V.V.V.V.H . m i.r.r.r.r.p.B O 6 [ ] ] ] ] ] [ ' [ Y O 5 r.y.r.e.e.p.{ o 9 N.V.V.V.V.V.V.V.V.V.V.V.V.V.V.V.V.V.V.V.V.",
"V.V.V.V.V.V.V.V.V.v.= @ ;.y.r.r.r.e.t.7.# $ d d d d d d d d g 1 o P i.q.r.r.r.r.r.0 . ,.V.B.V.V.V.V.V.V.V.V.V.V.V.V.V.V.V.V.V.V.",
"V.V.V.V.V.V.V.V.V.%.. y y.r.r.r.r.r.t.9.& @ . . . . . . . . . + + ^ i.e.r.r.y.r.i.! X i V.V.V.V.V.V.V.V.V.V.V.V.V.V.V.V.V.V.V.V.",
"V.V.V.V.V.V.V.V.N.q o { i.r.r.r.r.r.y.-.@ , :.:.:.:.:.:.*.*.,.c . F i.e.r.r.r.r.r.q.> o s.V.V.V.V.V.V.V.V.V.V.V.V.V.V.V.V.V.V.V.",
"V.V.V.V.V.V.B.V.3.X 5 r.r.r.r.r.r.r.i.B . J V.V.V.V.V.V.V.V.V.s.o , e.r.r.r.r.r.e.i.F . Z V.B.V.V.V.V.V.V.V.V.V.V.V.V.V.V.V.V.V.",
"V.V.V.V.V.V.V.V.c . L i.w.r.r.r.r.r.9.: + f.V.B.B.V.B.B.V.B.B.B.w o ^ i.r.r.r.r.r.y.7.$ # l.V.V.V.V.V.V.V.V.V.V.V.V.V.V.V.V.V.V.",
"V.V.V.V.V.V.V.f.@ % 0.t.r.r.r.r.r.i.P . k V.V.V.V.V.V.V.V.V.V.V.&.. t y.r.r.r.r.r.r.i.m . X.V.V.V.V.V.V.V.V.V.V.V.V.V.V.V.V.V.V.",
"V.V.V.V.V.V.V.H . B i.e.r.r.r.r.r.r.9 . 2.V.V.V.V.V.V.V.V.V.V.V.n., +  .y.r.r.r.r.e.u.-.+ : b.V.V.V.V.V.V.V.V.V.V.V.V.V.V.V.V.V.",
"V.V.V.V.V.V.v.= # -.i.r.r.r.r.e.i.{ o 0 N.V.V.V.V.V.V.V.V.V.V.B.V.X.. m i.r.r.r.r.r.r.r.t . *.V.V.V.V.V.V.V.V.V.V.V.V.V.V.V.V.V.",
"V.V.V.V.V.V.,.. y u.r.r.r.r.r.e.u.u . $.V.B.V.V.V.V.V.V.V.V.V.V.V.l.# $ 7.r.r.r.r.r.r.i.^ . k V.V.V.V.V.V.V.V.V.V.V.V.V.V.V.V.V.",
"V.V.V.V.B.V.O.. K y.r.r.r.r.r.y.;.@ = v.V.V.V.V.V.V.V.V.V.V.V.V.V.V.A . C i.e.r.r.r.r.y.7.@ 9 B.V.V.V.V.V.V.V.V.V.V.V.V.V.V.V.V.",
"V.V.V.V.V.V.#.. V i.e.r.r.r.e.i.B . H V.V.V.V.V.V.V.V.V.V.V.V.V.V.V.d.+ : q.r.r.r.r.r.u.-.+ q B.V.V.V.V.V.V.V.V.V.V.V.V.V.V.V.V.",
"V.V.V.V.B.V.5.X 4 r.r.e.r.w.y.0.= @ f.V.V.V.V.V.V.V.V.V.V.V.V.V.V.V.V.i . P p.w.r.r.w.i.V . S V.V.V.V.V.V.V.V.V.V.V.V.V.V.V.V.V.",
"V.V.V.V.V.V.B.q X B y.i.y.i.r.u . v V.B.V.V.V.V.V.V.V.V.V.V.V.V.V.B.V.2.. = | i.u.u.i.{ $ o d.V.B.V.V.V.V.V.V.V.V.V.V.V.V.V.V.V.",
"V.V.V.V.V.V.V.s.@ o 0 P } P 5 X = x.V.V.V.V.V.V.V.V.V.V.V.V.V.V.V.V.V.V.S . # M ^ ^ m @ . ..V.B.V.V.V.V.V.V.V.V.V.V.V.V.V.V.V.V.",
"V.V.V.V.V.V.V.V.5.4 . . X . . q j.V.V.V.V.V.V.V.V.V.V.V.V.V.V.V.V.V.V.V.B.J @ . . . . # O.V.V.V.V.V.V.V.V.V.V.V.V.V.V.V.V.V.V.V.",
"V.V.V.V.V.V.V.V.V.n.:.S x S <.B.V.B.V.V.V.V.V.V.V.V.V.V.V.V.V.V.V.V.V.V.V.V.j.@.Z A #.z.V.V.V.V.V.V.V.V.V.V.V.V.V.V.V.V.V.V.V.V.",
"V.V.V.V.V.V.V.V.V.V.V.V.V.V.V.V.V.V.V.V.V.V.V.V.V.V.V.V.V.V.V.V.V.V.V.V.V.V.V.V.V.V.V.V.V.V.V.V.V.V.V.V.V.V.V.V.V.V.V.V.V.V.V.V.",
"V.V.V.V.V.V.V.V.V.V.V.B.V.V.B.V.V.V.V.V.V.V.V.V.V.V.V.V.V.V.V.V.V.V.V.V.V.V.V.B.V.V.B.V.V.V.V.V.V.V.V.V.V.V.V.V.V.V.V.V.V.V.V.V.",
"V.V.V.V.V.V.V.V.V.V.V.V.V.V.V.V.V.V.V.V.V.V.V.V.V.V.V.V.V.V.V.V.V.V.V.V.V.V.V.V.V.V.V.V.V.V.V.V.V.V.V.V.V.V.V.V.V.V.V.V.V.V.V.V.",
"V.V.V.V.V.V.V.V.V.V.V.V.V.V.V.V.V.V.V.V.V.V.V.V.V.V.V.V.V.V.V.V.V.V.V.V.V.V.V.V.V.V.V.V.V.V.V.V.V.V.V.V.V.V.V.V.V.V.V.V.V.V.V.V.",
"V.V.V.V.V.V.V.V.V.V.V.V.V.V.V.V.V.V.V.V.V.V.V.V.V.V.V.V.V.V.V.V.V.V.V.V.V.V.V.V.V.V.V.V.V.V.V.V.V.V.V.V.V.V.V.V.V.V.V.V.V.V.V.V.",
"V.V.V.V.V.V.V.V.V.V.V.V.V.V.V.V.V.V.V.V.V.V.V.V.V.V.V.V.V.V.V.V.V.V.V.V.V.V.V.V.V.V.V.V.V.V.V.V.V.V.V.V.V.V.V.V.V.V.V.V.V.V.V.V.",
"V.V.V.V.V.V.V.V.V.V.V.V.V.V.V.V.V.V.V.V.V.V.V.V.V.V.V.V.V.V.V.V.V.V.V.V.V.V.V.V.V.V.V.V.V.V.V.V.V.V.V.V.V.V.V.V.V.V.V.V.V.V.V.V.",
"V.V.V.V.V.V.V.V.V.V.V.V.V.V.V.V.V.V.V.V.V.V.V.V.V.V.V.V.V.V.V.V.V.V.V.V.V.V.V.V.V.V.V.V.V.V.V.V.V.V.V.V.V.V.V.V.V.V.V.V.V.V.V.V.",
"V.V.V.V.V.V.V.V.V.V.V.V.V.V.V.V.V.V.V.V.V.V.V.V.V.V.V.V.V.V.V.V.V.V.V.V.V.V.V.V.V.V.V.V.V.V.V.V.V.V.V.V.V.V.V.V.V.V.V.V.V.V.V.V."
};
