/* XPM */
static char *player__31_1710156994[] = {
/* columns rows colors chars-per-pixel */
"64 64 155 2 ",
"   c #000D63",
".  c #001664",
"X  c #001A66",
"o  c #001768",
"O  c #001D6A",
"+  c #002066",
"@  c #00236D",
"#  c #02286F",
"$  c #012671",
"%  c #052974",
"&  c #092C77",
"*  c #072B78",
"=  c #0B2D79",
"-  c #0E317A",
";  c #13337D",
":  c #18367E",
">  c #17397E",
",  c #1B387F",
"<  c #0D2F80",
"1  c #0F3083",
"2  c #133383",
"3  c #1A3682",
"4  c #1D3B83",
"5  c #17358C",
"6  c #1C3792",
"7  c #1C3892",
"8  c #203E83",
"9  c #243D89",
"0  c #2A3F8D",
"q  c #213B97",
"w  c #253D9C",
"e  c #254386",
"r  c #284587",
"t  c #2A428C",
"y  c #2E4B8B",
"u  c #334D8D",
"i  c #37518F",
"p  c #38518F",
"a  c #2E4391",
"s  c #334694",
"d  c #364996",
"f  c #3A4A99",
"g  c #375290",
"h  c #3E5994",
"j  c #2C42A5",
"k  c #2F43A9",
"l  c #3145AB",
"z  c #3647B3",
"x  c #394AB6",
"c  c #3E4CBD",
"v  c #414F9D",
"b  c #425A95",
"n  c #43509E",
"m  c #476199",
"M  c #4B639B",
"N  c #51679D",
"B  c #53699F",
"V  c #434FA1",
"C  c #4652A1",
"Z  c #4D56A6",
"A  c #4F58A7",
"S  c #5058A7",
"D  c #545AAA",
"F  c #5A5EAF",
"G  c #5B5FB1",
"H  c #576CA1",
"J  c #596EA2",
"K  c #5E72A4",
"L  c #5E61B3",
"P  c #667AAA",
"I  c #697DAC",
"U  c #6364B5",
"Y  c #6767B9",
"T  c #6867B9",
"R  c #6C69BC",
"E  c #706CBF",
"W  c #424FC2",
"Q  c #4752C9",
"!  c #4D55D3",
"~  c #5056D7",
"^  c #5559DD",
"/  c #756FC2",
"(  c #7770C4",
")  c #7A72C6",
"_  c #575AE0",
"`  c #5A5CE5",
"'  c #5E5EE9",
"]  c #6160ED",
"[  c #6663F5",
"{  c #6864F7",
"}  c #6C66FC",
"|  c #6F68FF",
" . c #726AFF",
".. c #8276CB",
"X. c #8679CE",
"o. c #887ACF",
"O. c #8C7DD3",
"+. c #917FD6",
"@. c #6D80AE",
"#. c #7283AF",
"$. c #7386B1",
"%. c #778AB5",
"&. c #7B8BB4",
"*. c #8293BA",
"=. c #8A9ABF",
"-. c #8D9DC1",
";. c #9280D6",
":. c #9682D9",
">. c #9A85DC",
",. c #95A3C5",
"<. c #98A6C6",
"1. c #9AA8C7",
"2. c #9BAAC8",
"3. c #A0ADCB",
"4. c #A4B1CD",
"5. c #A9B4CF",
"6. c #ACB7D1",
"7. c #ADB8D2",
"8. c #B3BED5",
"9. c #A48BE3",
"0. c #A98EE7",
"q. c #AC8FE9",
"w. c #AA90E7",
"e. c #AE91EA",
"r. c #B395EE",
"t. c #B797F0",
"y. c #B897F1",
"u. c #BB9AF3",
"i. c #C09DF7",
"p. c #C39EF9",
"a. c #C6A0FB",
"s. c #CAA3FD",
"d. c #D1A7FF",
"f. c #B7C1D7",
"g. c #B8C1D7",
"h. c #BAC3D8",
"j. c #BFC9DC",
"k. c #C3CBDD",
"l. c #C7CEE0",
"z. c #C8CEE0",
"x. c #CFD5E4",
"c. c #D0D7E5",
"v. c #D3D9E6",
"b. c #D6DBE8",
"n. c #D9DEEA",
"m. c #DCE1EC",
"M. c #E2E6EF",
"N. c #E3E7F0",
"B. c #E5E9F1",
"V. c #EBEEF4",
"C. c #EEF1F6",
"Z. c #F0F3F7",
"A. c #F4F6F9",
"S. c #F7F9FB",
"D. c #FFFFFF",
/* pixels */
"D.D.D.D.D.D.D.D.D.D.D.D.D.D.D.D.D.D.D.D.D.D.D.D.D.D.D.D.D.D.D.D.D.D.D.D.D.D.D.D.D.D.D.D.D.D.D.D.D.D.D.D.D.D.D.D.D.D.D.D.D.D.D.D.",
"D.D.D.D.D.D.D.D.D.D.D.D.D.D.D.D.D.D.D.D.D.D.D.D.D.D.D.D.D.D.D.D.D.D.D.D.D.D.D.D.D.D.D.D.D.D.D.D.D.D.D.D.D.D.D.D.D.D.D.D.D.D.D.D.",
"D.D.D.D.D.D.D.D.D.D.D.D.D.D.D.D.D.D.D.D.D.D.D.D.D.D.D.D.D.D.D.D.D.D.D.D.D.D.D.D.D.D.D.D.D.S.D.S.D.D.D.D.D.D.D.D.D.D.D.D.D.D.D.D.",
"D.D.D.D.D.D.D.D.D.D.D.D.D.D.D.D.D.D.D.D.D.D.D.D.D.D.D.D.D.D.D.D.D.D.D.D.D.D.D.D.D.D.D.D.D.D.D.D.D.D.D.D.D.D.D.D.D.D.D.D.D.D.D.D.",
"D.D.D.D.D.D.D.D.D.D.D.D.D.D.D.D.D.D.D.D.D.D.D.D.D.D.D.D.D.D.D.D.D.D.D.D.D.D.D.D.D.D.D.S.8.-.*.5.V.D.D.D.D.D.D.D.D.D.D.D.D.D.D.D.",
"D.D.D.D.D.D.D.D.D.D.D.D.D.D.D.D.D.D.D.D.D.D.D.D.D.D.D.D.D.D.D.D.D.D.D.D.D.D.D.D.D.D.h.y O . . X 4 <.D.D.D.D.D.D.D.D.D.D.D.D.D.D.",
"D.D.D.D.D.D.D.D.D.D.D.D.D.D.D.D.D.D.D.D.D.D.D.D.D.D.D.D.D.D.D.D.D.D.D.D.D.D.D.D.D.8.$ X 9 S F a O X &.D.D.D.D.D.D.D.D.D.D.D.D.D.",
"D.D.D.D.D.D.D.D.D.D.D.D.D.D.D.D.D.D.D.D.D.D.D.D.D.D.D.D.D.D.D.D.D.D.D.D.D.D.D.D.V.4 O Z u.s.s.p.R % @ h.D.S.D.D.D.D.D.D.D.D.D.D.",
"D.D.D.D.D.D.D.D.D.D.D.D.D.D.D.D.D.D.D.D.D.D.D.D.D.D.D.D.D.D.D.D.D.D.D.D.D.D.S.D.-.. a p.p.y.y.u.s.F o H D.D.D.D.D.D.D.D.D.D.D.D.",
"D.D.D.D.D.D.D.D.D.D.D.D.D.D.D.D.D.D.D.D.D.D.D.D.D.D.D.D.D.D.D.D.D.D.D.D.D.D.D.D.B o ( s.y.u.u.u.i.9.$ 4 C.D.D.D.D.D.D.D.D.D.D.D.",
"D.D.D.D.D.D.D.D.D.D.D.D.D.D.D.D.D.D.D.D.D.D.D.D.D.D.D.D.D.D.D.D.D.D.D.D.D.D.D.D.b O O.a.u.u.u.i.u.u.8 O l.D.D.D.D.D.D.D.D.D.D.D.",
"D.D.D.D.D.D.D.D.D.D.D.D.D.D.D.D.D.D.D.D.D.D.D.D.D.D.D.D.D.D.D.D.D.D.D.D.D.D.D.D.K . E s.u.u.u.u.u.a.v o 2.D.S.D.D.D.D.D.D.D.D.D.",
"D.D.D.D.D.D.D.D.D.D.D.D.D.D.D.D.D.D.D.D.D.D.D.D.D.D.D.D.D.D.D.D.D.D.D.D.D.D.S.D.=.. S s.u.u.u.u.u.s.T . P D.D.D.D.D.D.D.D.D.D.D.",
"D.D.D.D.D.D.D.D.D.V.k.D.D.D.D.D.D.D.D.D.D.D.D.D.D.D.D.D.D.D.D.D.D.D.D.D.D.D.D.D.h.X t u.u.u.u.u.u.p.O.O i D.D.D.D.D.D.D.D.D.D.D.",
"D.D.D.D.D.D.D.D.D.J o k.D.D.D.D.D.D.D.D.D.D.D.D.D.D.D.D.D.D.D.D.D.D.D.D.D.D.D.D.V.; & 0.p.u.u.u.u.i.0.= ; N.D.D.D.D.D.D.D.D.D.D.",
"D.D.D.D.D.D.D.D.D.$.  K D.S.D.D.D.D.D.D.D.D.D.D.D.D.D.D.D.D.D.D.D.D.D.D.D.D.D.D.D.u X O.p.t.y.u.i.p.p.9 @ k.D.D.D.D.D.D.D.D.D.D.",
"D.D.D.D.D.D.D.D.D.c.$ ; N.D.D.D.D.D.D.D.D.D.D.D.D.D.D.D.D.D.D.D.D.D.D.D.D.D.D.S.D.$.. T s.s.s.u.>.+.:.2 % N.D.S.D.D.D.D.D.D.D.D.",
"D.D.D.D.D.D.D.D.D.D.M . -.S.V.D.D.D.D.D.D.D.D.D.D.D.D.D.D.D.D.D.D.D.D.D.D.D.D.D.D.#.O 2 f G ( a % + @ % ; h.S.D.D.D.D.D.D.D.D.D.",
"D.D.D.D.D.D.D.D.S.D.<.O ; > > b 2.D.D.D.D.D.D.D.D.D.D.D.D.D.D.D.D.D.D.D.D.D.D.B.b @ @ @ @ @ @ + 1 7 2 % @ @ y *.x.D.D.D.D.D.D.D.",
"D.D.D.D.D.D.D.D.D.k.4 @ @ * % o o m Z.D.D.D.D.D.D.D.D.D.D.D.D.D.D.D.D.D.S.D.V.y o ; L +.Z $ % c [ } [ ~ k 2 + X $ M m.D.S.D.D.D.",
"D.D.D.D.D.D.D.D.m.: X a O.w.0.E ; o B D.D.D.D.D.D.D.D.D.D.D.D.D.D.D.D.D.D.S.b o 9 q.s.s.a @ c  .[ [ } } } [ ! j = X : v.D.D.D.D.",
"D.D.D.D.D.D.S.D.P o d i.s.i.i.s.>.- O g.D.S.D.D.D.D.D.D.D.D.D.D.D.D.D.D.D.J X 3 9.p.i.:.$ 2 [ { { [ [ [ [ } } } ' q X i D.D.D.D.",
"D.D.D.D.D.D.D.C.4 @ >.s.r.u.u.t.s.U . J D.S.D.D.D.D.D.D.D.D.D.D.D.D.D.D.I o - >.p.r.s.o.+ 7 } [ } } [ [ [ { [ [ } [ 2 O 7.D.D.D.",
"D.D.D.D.D.D.D.c.$ 3 y.u.u.u.u.u.i.9.% = m.D.D.D.D.D.D.D.D.D.D.D.D.S.D.*.X % O.s.u.u.p.+.+ 5 } } [ [ [ } { { { { [ } x . @.D.S.D.",
"D.D.D.D.D.D.D.b.% 2 r.i.u.u.u.u.u.a.f o *.D.D.D.D.D.D.D.D.D.D.D.S.D.<.O $ ) s.u.u.u.i.r.; @ ! } [ { [ } { { { { [ } Q X B D.D.D.",
"D.D.D.D.D.D.D.A.r O O.a.u.u.u.u.u.a.o.O r A.D.D.D.D.D.D.D.D.D.D.D.8.$ + R s.y.u.u.u.u.s.L X 2 ^  .} { [ { { { { [  .x X @.D.S.D.",
"D.D.D.D.D.D.S.D.&.. C s.u.u.u.u.u.u.u.9 X 6.D.S.D.S.S.D.S.D.S.D.c.= O F s.u.u.u.u.u.u.u.y.s @ = j ! [ } } { { { } [ 1 O 5.D.D.D.",
"D.D.D.D.D.D.D.D.c.% & 0.p.u.i.u.u.y.s.T o B D.D.D.D.D.D.D.D.D.D.M o n s.u.u.u.u.u.u.u.u.a.C @ $ X + 2 z ^ { } } ' a O d S.D.D.D.",
"D.D.D.D.D.D.D.D.D.M o Y s.y.u.u.u.u.i.9.% ; -.<.,.,.,.,.,.,.<.=.& = 0.p.u.u.u.u.u.u.u.s.D O ; 5.*.r @ . @ 5 j w = X : v.D.D.D.D.",
"D.D.D.D.D.D.D.D.D.7.X 9 u.u.u.u.u.u.u.r.2 $ X . X . . . . . X X $ a u.u.u.u.u.u.u.u.s.U + $ 8.D.D.S.h.I 4 O X X % M m.D.D.D.D.D.",
"D.D.D.D.D.D.D.D.D.A.r X o.s.y.u.u.u.i.0.& & j k j l k k j j l w @ t u.u.u.u.u.u.y.s./ $ @ 2.D.S.D.D.D.D.C.h.<.3.c.D.D.S.D.D.D.D.",
"D.D.D.D.D.D.D.D.D.D.*.o d p.u.u.u.u.d.U + q  .|  .| | |  .|  .] % = 0.p.u.p.u.u.s.X.% O *.D.S.D.D.D.S.D.D.D.D.D.D.D.D.D.D.D.D.D.",
"D.D.D.D.D.D.D.D.D.D.B.; X Z t.s.s.p.R @ # ! } [ [ [ [ [ [ [ [ } w + f p.u.r.r.p.;.& o #.D.D.D.D.D.D.D.D.D.D.S.S.D.D.D.D.D.D.D.D.",
"D.D.D.D.D.D.D.D.D.D.D.h.= $ 3 C Z t $ % z } [ { { { { { { { { } _ = $ a a = 2 d ; O K D.D.D.D.D.D.D.D.D.D.D.D.D.D.D.D.D.D.D.D.D.",
"D.D.D.D.D.D.D.D.D.S.D.c.3 $ + @ X + % 7 } { { { { { { { { { { [  .c @ @ O = % X $ 2 V.D.S.D.D.D.D.D.D.D.D.D.D.D.D.D.D.D.D.D.D.D.",
"D.D.D.D.D.D.D.D.D.D.m.; O t ..9.:.D % @ x } [ { { { { { { { { } ` 2 @ a O.q.9.E - X P D.D.D.D.D.D.D.D.D.D.D.D.D.D.D.D.D.D.D.D.D.",
"D.D.D.D.D.D.D.D.D.D.M o f u.s.p.p.s.) % % _ } [ { { [ [ [ [ [ } j + d i.s.i.i.s.:.= X <.D.S.D.D.D.D.D.D.D.D.D.D.D.D.D.D.D.D.D.D.",
"D.D.D.D.D.D.D.S.D.2.o ; e.p.t.u.u.t.s.V X c  . .} }  .} } } } { = $ >.p.r.u.u.u.s./ @ ; n.D.D.D.D.D.D.D.D.D.D.D.D.D.D.D.D.D.D.D.",
"D.D.D.D.D.D.D.D.M.: O / s.u.u.u.u.u.s.( O 7 W c Z c c W c Z W z $ 9 u.u.u.u.u.u.y.p.v X h D.D.D.D.D.D.D.D.D.D.D.D.D.D.D.D.D.D.D.",
"D.D.D.D.D.D.S.D.J . f p.u.u.u.u.u.y.s./ $ @ . o o . . X . . . X $ 3 u.i.u.u.u.u.u.p.e.: o *.D.S.D.D.D.D.D.D.D.D.D.D.D.D.D.D.D.D.",
"D.D.D.D.D.S.D.5.+ = 9.p.u.u.u.u.u.y.s.C X b *.%.%.%.%.%.%.%.%.%.2 @ ;.s.y.u.u.u.u.y.s.X.$ $ k.D.S.D.D.D.D.D.D.D.D.D.D.D.D.D.D.D.",
"D.D.D.D.D.D.V.8 O R s.u.u.u.u.u.y.s.;.$ % n.D.D.D.D.D.D.D.D.D.D.$.o t u.u.u.u.u.i.u.y.s.D X r A.D.D.D.D.D.D.D.D.D.D.D.D.D.D.D.D.",
"D.D.D.D.D.D.P o a u.u.u.u.u.u.u.u.u.0 o $.D.S.D.S.D.D.S.S.D.S.D.V.e X L s.y.i.u.u.u.u.u.u.0 o P D.D.D.D.D.D.D.D.D.D.D.D.D.D.D.D.",
"D.D.D.D.D.g.@ % >.a.u.u.u.u.u.u.s.U X r A.D.D.D.D.D.D.D.D.D.D.S.D.h.@ $ O.s.y.u.i.u.u.y.p.:.& O 8.D.D.D.D.D.D.D.D.D.D.D.D.D.D.D.",
"D.D.D.D.D.b o L s.u.u.u.u.u.u.a.>.% @ g.D.D.D.D.D.D.D.D.D.D.D.D.S.D.%.o 3 r.i.u.u.u.i.u.u.s.U o M D.D.D.D.D.D.D.D.D.D.D.D.D.D.D.",
"D.D.S.D.n.% = q.p.u.u.u.u.u.u.i.s o P D.S.D.D.D.D.D.D.D.D.D.D.D.D.D.D.g X C p.u.u.u.u.u.u.p.9.% ; C.D.D.D.D.D.D.D.D.D.D.D.D.D.D.",
"D.D.D.D.k.@ 0 u.u.u.u.u.u.y.s.R X 8 V.D.D.D.D.D.D.D.D.D.D.D.D.D.D.D.D.v.& O ) s.u.u.u.u.u.u.r.= ; M.D.D.D.D.D.D.D.D.D.D.D.D.D.D.",
"D.D.D.D.x.@ 4 y.u.u.u.u.u.i.9.= O 6.D.S.D.D.D.D.D.D.D.D.D.D.D.D.D.D.S.D.-.O ; 9.p.y.u.u.t.p.>.@ e A.D.D.D.D.D.D.D.D.D.D.D.D.D.D.",
"D.D.D.D.A.e O X.s.y.y.y.u.a.f . J D.D.D.D.D.D.D.D.D.D.D.D.D.D.D.D.D.D.D.D.N o s i.p.u.y.i.s.C o K D.D.D.D.D.D.D.D.D.D.D.D.D.D.D.",
"D.D.D.D.D.*.o 3 >.s.s.s.i.F + ; N.D.D.D.D.D.D.D.D.D.D.D.D.D.D.D.D.D.D.D.D.B.> O v 0.p.p.r.S @ % x.D.D.D.D.D.D.D.D.D.D.D.D.D.D.D.",
"D.D.D.D.D.S.h . & Z E U t O @ 6.D.S.D.D.D.D.D.D.D.D.D.D.D.D.D.D.D.D.D.D.S.D.k.& o & s d = o $ 3.D.S.D.D.D.D.D.D.D.D.D.D.D.D.D.D.",
"D.D.D.D.D.D.Z.P @ . . . X 8 6.D.D.D.D.D.D.D.D.D.D.D.D.D.D.D.D.D.D.D.D.D.D.D.D.x.M & X o # b k.D.D.D.D.D.D.D.D.D.D.D.D.D.D.D.D.D.",
"D.D.D.D.D.D.D.D.c.*.P %.5.V.D.D.D.D.D.D.D.D.D.D.D.D.D.D.D.D.D.D.D.D.D.D.D.D.D.D.D.n.8.6.c.D.D.S.D.D.D.D.D.D.D.D.D.D.D.D.D.D.D.D.",
"D.D.D.D.D.D.D.D.D.D.D.D.D.D.D.D.D.D.D.D.D.D.D.D.D.D.D.D.D.D.D.D.D.D.D.D.D.D.D.D.D.D.D.D.D.D.D.D.D.D.D.D.D.D.D.D.D.D.D.D.D.D.D.D.",
"D.D.D.D.D.D.D.D.D.S.D.S.S.D.D.D.D.D.D.D.D.D.D.D.D.D.D.D.D.D.D.D.D.D.D.D.D.D.D.D.D.D.D.S.D.D.D.D.D.D.D.D.D.D.D.D.D.D.D.D.D.D.D.D.",
"D.D.D.D.D.D.D.D.D.D.D.D.D.D.D.D.D.D.D.D.D.D.D.D.D.D.D.D.D.D.D.D.D.D.D.D.D.D.D.D.D.D.D.D.D.D.D.D.D.D.D.D.D.D.D.D.D.D.D.D.D.D.D.D.",
"D.D.D.D.D.D.D.D.D.D.D.D.D.D.D.D.D.D.D.D.D.D.D.D.D.D.D.D.D.D.D.D.D.D.D.D.D.D.D.D.D.D.D.D.D.D.D.D.D.D.D.D.D.D.D.D.D.D.D.D.D.D.D.D.",
"D.D.D.D.D.D.D.D.D.D.D.D.D.D.D.D.D.D.D.D.D.D.D.D.D.D.D.D.D.D.D.D.D.D.D.D.D.D.D.D.D.D.D.D.D.D.D.D.D.D.D.D.D.D.D.D.D.D.D.D.D.D.D.D.",
"D.D.D.D.D.D.D.D.D.D.D.D.D.D.D.D.D.D.D.D.D.D.D.D.D.D.D.D.D.D.D.D.D.D.D.D.D.D.D.D.D.D.D.D.D.D.D.D.D.D.D.D.D.D.D.D.D.D.D.D.D.D.D.D.",
"D.D.D.D.D.D.D.D.D.D.D.D.D.D.D.D.D.D.D.D.D.D.D.D.D.D.D.D.D.D.D.D.D.D.D.D.D.D.D.D.D.D.D.D.D.D.D.D.D.D.D.D.D.D.D.D.D.D.D.D.D.D.D.D.",
"D.D.D.D.D.D.D.D.D.D.D.D.D.D.D.D.D.D.D.D.D.D.D.D.D.D.D.D.D.D.D.D.D.D.D.D.D.D.D.D.D.D.D.D.D.D.D.D.D.D.D.D.D.D.D.D.D.D.D.D.D.D.D.D.",
"D.D.D.D.D.D.D.D.D.D.D.D.D.D.D.D.D.D.D.D.D.D.D.D.D.D.D.D.D.D.D.D.D.D.D.D.D.D.D.D.D.D.D.D.D.D.D.D.D.D.D.D.D.D.D.D.D.D.D.D.D.D.D.D.",
"D.D.D.D.D.D.D.D.D.D.D.D.D.D.D.D.D.D.D.D.D.D.D.D.D.D.D.D.D.D.D.D.D.D.D.D.D.D.D.D.D.D.D.D.D.D.D.D.D.D.D.D.D.D.D.D.D.D.D.D.D.D.D.D.",
"D.D.D.D.D.D.D.D.D.D.D.D.D.D.D.D.D.D.D.D.D.D.D.D.D.D.D.D.D.D.D.D.D.D.D.D.D.D.D.D.D.D.D.D.D.D.D.D.D.D.D.D.D.D.D.D.D.D.D.D.D.D.D.D."
};
