/* XPM */
static char *player__14_1710156992[] = {
/* columns rows colors chars-per-pixel */
"64 64 150 2 ",
"   c #00015A",
".  c #001564",
"X  c #001A66",
"o  c #001C6A",
"O  c #002066",
"+  c #00236D",
"@  c #002471",
"#  c #052A73",
"$  c #092B76",
"%  c #0B2E7A",
"&  c #102E79",
"*  c #0E307A",
"=  c #13327C",
"-  c #19367E",
";  c #1C387F",
":  c #0E2F80",
">  c #0E3080",
",  c #123283",
"<  c #1A3682",
"1  c #1D3A84",
"2  c #14338A",
"3  c #18368D",
"4  c #1B3790",
"5  c #203A86",
"6  c #253D8A",
"7  c #283F8D",
"8  c #223B9A",
"9  c #263DA0",
"0  c #283FA0",
"q  c #254285",
"w  c #284587",
"e  c #27408C",
"r  c #2B458B",
"t  c #2E4A8B",
"y  c #334E8D",
"u  c #36508E",
"i  c #39528F",
"p  c #2D4291",
"a  c #324693",
"s  c #364997",
"d  c #3D4D9A",
"f  c #365391",
"g  c #3D5693",
"h  c #2C42A6",
"j  c #2F44A9",
"k  c #3244AD",
"l  c #3547B1",
"z  c #3A4AB7",
"x  c #3D4BBC",
"c  c #424F9D",
"v  c #435A95",
"b  c #43509E",
"n  c #495E98",
"m  c #4C639B",
"M  c #50669D",
"N  c #52699F",
"B  c #4652A1",
"V  c #4B54A4",
"C  c #4F57A9",
"Z  c #5057A7",
"A  c #5057A8",
"S  c #535AAA",
"D  c #5A5EAF",
"F  c #5D5FB0",
"G  c #556BA1",
"H  c #5D72A4",
"J  c #5E60B2",
"K  c #6175A6",
"L  c #6277A8",
"P  c #6478A9",
"I  c #6A7CAB",
"U  c #6464B6",
"Y  c #6667B8",
"T  c #6866B9",
"R  c #6C69BC",
"E  c #716CBF",
"W  c #424EC4",
"Q  c #4651C7",
"!  c #4A53CE",
"~  c #4D54D3",
"^  c #5459DC",
"/  c #746EC3",
"(  c #7770C4",
")  c #7A72C5",
"_  c #7F74CA",
"`  c #595CE3",
"'  c #615FEC",
"]  c #6160EE",
"[  c #6663F5",
"{  c #6864F7",
"}  c #6C66FC",
"|  c #6F68FF",
" . c #726AFF",
".. c #8377CD",
"X. c #8679CE",
"o. c #8B7CD2",
"O. c #917FD6",
"+. c #6E80AD",
"@. c #7385B1",
"#. c #7689B4",
"$. c #7C8DB6",
"%. c #7E90B8",
"&. c #8495BB",
"*. c #8B9ABE",
"=. c #8D9DC0",
"-. c #9380D7",
";. c #9682D9",
":. c #9B86DD",
">. c #9F88DF",
",. c #95A4C5",
"<. c #99A8C7",
"1. c #9DABC9",
"2. c #A5B2CD",
"3. c #A8B5CF",
"4. c #ABB6D1",
"5. c #AFBBD3",
"6. c #B3BDD5",
"7. c #9F88E0",
"8. c #A48BE3",
"9. c #A98FE7",
"0. c #AA8FE8",
"q. c #AD91EA",
"w. c #B394EE",
"e. c #B696F0",
"r. c #B897F1",
"t. c #BB9AF3",
"y. c #C09DF7",
"u. c #C39EF9",
"i. c #C6A1FB",
"p. c #CAA3FE",
"a. c #D1A7FF",
"s. c #B7C0D6",
"d. c #B8C2D7",
"f. c #BBC4D9",
"g. c #BFC8DB",
"h. c #C1CADD",
"j. c #C7CFE0",
"k. c #CBD3E2",
"l. c #D0D6E5",
"z. c #D3DAE7",
"x. c #D6DCE9",
"c. c #D9DEE9",
"v. c #DDE1EC",
"b. c #E2E6EF",
"n. c #E6EAF1",
"m. c #EBEEF4",
"M. c #EEF1F6",
"N. c #F3F5F9",
"B. c #F7F8FB",
"V. c #FFFFFF",
/* pixels */
"V.V.V.V.V.V.V.V.V.V.V.V.V.V.V.V.V.V.V.V.V.V.V.V.V.V.V.V.V.V.V.V.V.V.V.V.V.V.B.V.V.V.V.V.V.V.V.V.V.V.V.V.V.V.V.V.V.V.V.V.V.V.V.V.",
"V.V.V.V.V.V.V.V.V.V.V.V.V.V.V.V.V.V.V.V.V.V.V.V.V.V.V.V.V.V.V.V.V.V.V.V.V.V.V.V.V.B.B.V.V.B.V.V.V.V.V.V.V.V.V.V.V.V.V.V.V.V.V.V.",
"V.V.V.V.V.V.V.V.V.V.V.V.V.V.V.V.V.V.V.V.V.V.V.V.V.V.V.V.V.V.V.V.V.V.V.V.V.V.b.$.f q y I k.V.V.V.V.V.V.V.V.V.V.V.V.V.V.V.V.V.V.V.",
"V.V.V.V.V.V.V.V.V.V.V.V.V.V.V.V.V.V.V.V.V.V.V.V.V.V.V.V.V.V.V.V.V.V.V.V.V.6.- . o @ o . @ *.V.V.V.V.V.V.V.V.V.V.V.V.V.V.V.V.V.V.",
"V.V.V.V.V.V.V.V.V.V.V.V.V.V.V.V.V.V.V.V.V.V.V.V.V.V.V.V.V.V.V.V.V.V.V.V.k.# o s o.8.;.S @ X 1.V.B.V.V.V.V.V.V.V.V.V.V.V.V.V.V.V.",
"V.V.V.V.V.V.V.V.V.V.V.V.V.V.V.V.V.V.V.V.V.V.V.V.V.V.V.V.V.V.V.V.V.V.V.V.m . B u.i.u.u.p.R + = b.V.V.V.V.V.V.V.V.V.V.V.V.V.V.V.V.",
"V.V.V.V.V.V.V.V.V.V.V.V.V.V.V.V.V.V.V.V.V.V.V.V.V.V.V.V.V.V.V.V.V.V.V.v.% $ 0.u.r.t.r.e.i.d . H V.V.V.V.V.V.V.V.V.V.V.V.V.V.V.V.",
"V.V.V.V.V.V.V.V.V.V.V.V.V.V.V.V.V.V.V.V.V.V.V.V.V.V.V.V.V.V.V.V.V.B.V.s.X a y.t.t.t.t.t.u.7.$ @ s.V.B.V.V.V.V.V.V.V.V.V.V.V.V.V.",
"V.V.V.V.V.V.V.V.V.V.V.V.V.V.V.V.V.V.V.V.V.V.V.V.V.V.V.V.V.V.V.V.V.V.V.6.o p y.t.t.t.t.t.t.p.J X t B.V.V.V.V.V.V.V.V.V.V.V.V.V.V.",
"V.V.V.V.V.V.V.V.V.V.V.V.V.V.V.V.V.V.V.V.V.V.V.V.V.V.V.V.V.V.V.V.V.V.V.v.% $ 8.i.t.t.t.t.t.t.t.6 . &.V.V.V.V.V.V.V.V.V.V.V.V.V.V.",
"V.V.V.V.V.V.V.V.V.V.V.V.V.V.V.V.V.V.V.V.V.V.V.V.V.V.V.V.V.V.V.V.V.V.V.V.N . C i.t.t.t.t.t.t.i...o 1 m.V.V.V.V.V.V.V.V.V.V.V.V.V.",
"V.V.V.V.V.V.V.V.V.2.N m.V.V.V.V.V.V.V.V.V.V.V.V.V.V.V.V.V.V.V.V.V.V.V.V.k.% + o.i.t.t.t.t.r.t.i.r o 6.V.B.V.V.V.V.V.V.V.V.V.V.V.",
"V.V.V.V.V.V.V.B.V.M   *.V.B.V.V.V.V.V.V.V.V.V.V.V.V.V.V.V.V.V.V.V.V.V.B.V.$.. 7 t.t.t.t.t.p.t.q.d . 1.V.V.V.V.B.B.V.V.V.V.V.V.V.",
"V.V.V.V.V.V.V.V.V.4.X u B.V.B.V.V.V.V.V.V.V.V.V.V.V.V.V.V.V.V.V.V.V.V.V.V.B.w X U i.8.q.t...7 # @ # q H ,.k.N.V.V.V.V.V.V.V.V.V.",
"V.V.V.V.V.V.V.V.V.M.1 o h.V.V.V.V.B.V.V.V.V.V.V.V.V.V.V.V.V.V.V.V.V.V.V.V.V.f.+ * 5 $ * 6 @ O % 3 : + X . + 1 G 6.V.V.V.V.V.V.V.",
"V.V.V.V.V.V.V.V.B.V.&.. m ,.*.f.V.V.V.V.V.V.V.V.V.V.V.V.V.V.V.V.V.V.V.V.B.V.f.% + + = $ @ $ x [ { ' ^ x h , + X X L V.V.V.V.V.V.",
"V.V.V.V.V.V.V.V.V.V.@.@ + . . o y h.V.B.V.V.V.V.V.V.V.V.V.V.V.V.V.V.V.V.V.c.& o s ;.8.< + Q  .{ { { } | } [ ` z * . +.V.B.V.V.V.",
"V.V.V.V.V.V.V.V.V.I X @ 7 D S < X @ 6.V.V.V.V.V.V.V.V.V.V.V.V.V.V.V.V.V.V.g X d y.a.O.+ 3 { { { { { [ [ [ { {  .~ $ @ j.V.V.V.V.",
"V.V.V.V.V.V.B.V.3.X $ ) u.p.p.t.A o - n.V.V.V.V.V.V.V.V.V.V.V.V.V.V.B.V.$.. < w.t.i./ O h } [ { { { { { { { [ [ | j . @.V.V.V.V.",
"V.V.V.V.V.V.V.V.g X Y a.r.r.r.t.u.s . &.V.B.V.V.V.V.V.V.V.V.V.V.V.B.V.f.@ @ o.p.r.i._ O 8 } [ { { { { { { { { [ | ! X m V.V.V.V.",
"V.V.V.V.V.V.V.b.* % q.y.t.t.t.r.i.X.o t B.V.V.V.V.V.V.V.V.V.V.V.V.V.m.q X F p.t.t.y.8.# $ ` | [ [ { { { { { { [ | ! X m V.V.V.V.",
"V.V.V.V.V.V.V.k.@ 1 e.t.t.t.t.y.t.t.5 X 6.V.B.V.V.V.V.V.V.V.V.V.V.V.H . r t.t.t.t.t.i.B X 3 ] | } } { [ [ { [ [  .j . #.V.B.V.V.",
"V.V.V.V.V.V.V.n.= $ 9.y.t.t.t.t.t.p.U . M V.V.V.V.V.V.V.V.V.V.B.V.1.o % >.u.t.t.t.t.y.q.1 + > l ~ ` } | | } }  .! # @ j.V.V.V.V.",
"V.V.V.V.V.V.V.V.m . T p.t.t.t.t.t.t.8.% $ x.V.V.V.V.V.V.V.V.V.V.v.= o E p.t.t.t.t.t.r.i.8.% @ . X # 4 j Q ^ ^ l $ . #.V.B.V.V.V.",
"V.V.V.V.V.V.V.V.3.X 6 t.t.t.t.t.t.t.i.B . $.V.V.V.V.V.V.V.V.V.V.m . b i.t.t.t.t.t.t.t.i.J o w $.v = o X X + o X + @.V.V.V.V.V.V.",
"V.V.V.V.V.V.V.V.N.q o o.i.r.y.t.t.t.i.o.o t N.B.B.B.B.B.V.B.V.j.@ * 9.y.t.t.t.t.t.t.i.X.+ @ g.V.V.n.f.&.M y u P g.V.V.V.V.V.V.V.",
"V.V.V.V.V.V.V.B.V.&.. B i.t.t.t.t.t.t.e.= # w r w w t y y y y q + c p.r.t.t.t.t.t.t.w.< X $.V.B.V.V.V.V.V.B.B.V.V.B.V.V.V.V.V.V.",
"V.V.V.V.V.V.V.V.V.x.$ # 8.y.t.t.t.t.t.e., # + @ @ @ + + + o + @ + C i.t.t.t.t.t.t.i.b . g V.V.V.V.V.V.B.V.V.V.V.V.V.V.V.V.V.V.V.",
"V.V.V.V.V.V.V.V.B.V.G . U p.r.t.t.e.i.-.+ , ^ ` ` ` ` ^ ^ ^ ` x + a u.r.t.i.u.t.p./ + & c.V.V.V.V.V.V.V.V.V.V.V.V.V.V.V.V.V.V.V.",
"V.V.V.V.V.V.V.V.V.V.6.X % :.p.u.u.p.t.p O l  .{ } } } } } } | ] % + o.a.e.:.;.w.:.% X <.V.B.V.V.V.V.V.V.V.V.V.V.V.V.V.V.V.V.V.V.",
"V.V.V.V.V.V.V.V.V.V.V.L o = R 8.8.X.6 + : ] { [ [ [ [ { { { [ } k O , D < @ + * , o I V.V.V.V.V.V.V.V.V.V.V.V.V.V.V.V.V.V.V.V.V.",
"V.V.V.V.V.V.V.V.V.B.V.&.@ + o % # o @ % ` } { { { { { { { { { { { 8 # o + < 7 $ + @ &.V.B.V.V.V.V.V.V.V.V.V.V.V.V.V.V.V.V.V.V.V.",
"V.V.V.V.V.V.V.V.V.V.=.o # C 7.9.;.Z @ # ~ } [ { { { { { { { { { } 9 + 1 o.r.t.0.S + o $.V.V.V.V.V.V.V.V.V.V.V.V.V.V.V.V.V.V.V.V.",
"V.V.V.V.V.V.V.V.V.,.o + R p.u.u.i.p.U + , [ { { { { { { { { [ } ~ + = 8.p.t.t.y.p.R @ o +.V.V.B.V.V.V.V.V.V.V.V.V.V.V.V.V.V.V.V.",
"V.V.V.V.V.V.B.V.2.@ + T p.r.t.t.r.t.t.6 + ~ | [ { { { { { { [  .k X J p.t.t.t.t.r.p.) # X H V.V.B.V.V.V.V.V.V.V.V.V.V.V.V.V.V.V.",
"V.V.V.V.V.B.V.6.@ o J p.r.t.t.t.t.t.i.Z X x | [ { { { { [ { [ { 8 O ..i.t.t.t.t.t.t.p.X.% . m N.V.V.V.V.V.V.V.V.V.V.V.V.V.V.V.V.",
"V.V.V.V.B.V.h.% o S i.t.t.t.t.t.t.t.i.B + * 3 , 2 2 2 2 3 , 2 , $ + / p.t.t.t.t.t.t.t.p.-.= X f n.V.B.V.V.V.V.V.V.V.V.V.V.V.V.V.",
"V.V.V.B.V.l.= X B i.t.t.t.t.t.u.t.t.t.1 @ # @ # # + @ # + # # # * + s p.r.t.t.t.t.t.t.t.p.8.< X r b.V.V.V.V.V.V.V.V.V.V.V.V.V.V.",
"V.V.V.V.c.- o d u.t.t.t.t.t.t.t.r.p.D X t z.l.l.l.l.l.l.l.l.k.c.k.= + U p.t.t.t.t.y.t.t.r.u.9.6 X y B.V.V.V.V.V.V.V.V.V.V.V.V.V.",
"V.V.V.B.y X s y.t.t.t.t.t.t.t.r.p.T + + d.V.V.V.V.V.V.V.V.V.V.V.V.1.o + J i.t.t.t.t.t.t.t.r.i.q.5 . =.V.B.V.V.V.V.V.V.V.V.V.V.V.",
"V.V.V.1.X 5 w.u.t.t.t.t.t.t.r.p./ + o ,.V.B.V.V.V.V.B.V.V.V.V.B.V.V.,.@ + Z y.y.t.t.t.t.t.t.e.p.) X v V.V.V.V.V.V.V.V.V.V.V.V.V.",
"V.B.V.H . R p.r.t.t.t.y.t.t.p.( @ o *.V.V.V.V.V.V.V.V.V.V.V.V.V.V.B.V.3.# o c t.y.r.t.t.t.t.t.u.8.@ q B.V.V.V.V.V.V.V.V.V.V.V.V.",
"V.V.V.n X X.i.t.t.t.t.t.t.p...# o $.V.B.V.V.V.V.V.V.V.V.V.V.V.V.V.V.V.V.f.= o a r.u.t.t.t.t.t.u.:.+ w B.V.V.V.V.V.V.V.V.V.V.V.V.",
"V.V.V.G . / p.r.t.t.t.r.p.o.# X #.V.V.V.V.V.V.V.V.V.V.V.V.V.V.V.V.V.V.B.V.k.; X 6 q.i.r.t.t.e.a.Y . m V.V.V.V.V.V.V.V.V.V.V.V.V.",
"V.B.V.*.. a u.y.e.r.r.p.;.% X I V.V.V.V.V.V.V.V.V.V.V.V.V.V.V.V.V.V.V.V.B.V.c.w X 5 8.p.u.u.p.-.= X 4.V.V.V.V.V.V.V.V.V.V.V.V.V.",
"V.V.V.n.< + S t.p.p.p.o.= . H V.V.V.V.V.V.V.V.V.V.V.V.V.V.V.V.V.V.V.V.V.V.V.V.b.y . = U -.o.J % . H V.V.V.V.V.V.V.V.V.V.V.V.V.V.",
"V.V.V.V.6.@ X 6 F Y c @ . G V.V.V.V.V.V.V.V.V.V.V.V.V.V.V.V.V.V.V.V.V.V.V.V.B.V.M.m o . o X . o L B.V.V.V.V.V.V.V.V.V.V.V.V.V.V.",
"V.V.V.B.V.f.w X . . . # @.V.V.B.V.V.V.V.V.V.V.V.V.V.V.V.V.V.V.V.V.V.V.V.V.V.V.V.V.V.5.H f v L 6.V.V.V.V.V.V.V.V.V.V.V.V.V.V.V.V.",
"V.V.V.V.V.V.N.4.$.#.,.z.V.V.B.V.V.V.V.V.V.V.V.V.V.V.V.V.V.V.V.V.V.V.V.V.V.V.V.V.V.V.V.V.V.V.V.V.V.V.V.V.V.V.V.V.V.V.V.V.V.V.V.V.",
"V.V.V.V.V.B.V.V.V.V.V.V.V.V.V.V.V.V.V.V.V.V.V.V.V.V.V.V.V.V.V.V.V.V.V.V.V.V.V.V.V.V.V.B.V.V.B.V.V.V.V.V.V.V.V.V.V.V.V.V.V.V.V.V.",
"V.V.V.V.V.V.V.V.B.V.B.V.V.V.V.V.V.V.V.V.V.V.V.V.V.V.V.V.V.V.V.V.V.V.V.V.V.V.V.V.V.V.V.V.V.V.V.V.V.V.V.V.V.V.V.V.V.V.V.V.V.V.V.V.",
"V.V.V.V.V.V.V.V.V.V.V.V.V.V.V.V.V.V.V.V.V.V.V.V.V.V.V.V.V.V.V.V.V.V.V.V.V.V.V.V.V.V.V.V.V.V.V.V.V.V.V.V.V.V.V.V.V.V.V.V.V.V.V.V.",
"V.V.V.V.V.V.V.V.V.V.V.V.V.V.V.V.V.V.V.V.V.V.V.V.V.V.V.V.V.V.V.V.V.V.V.V.V.V.V.V.V.V.V.V.V.V.V.V.V.V.V.V.V.V.V.V.V.V.V.V.V.V.V.V.",
"V.V.V.V.V.V.V.V.V.V.V.V.V.V.V.V.V.V.V.V.V.V.V.V.V.V.V.V.V.V.V.V.V.V.V.V.V.V.V.V.V.V.V.V.V.V.V.V.V.V.V.V.V.V.V.V.V.V.V.V.V.V.V.V.",
"V.V.V.V.V.V.V.V.V.V.V.V.V.V.V.V.V.V.V.V.V.V.V.V.V.V.V.V.V.V.V.V.V.V.V.V.V.V.V.V.V.V.V.V.V.V.V.V.V.V.V.V.V.V.V.V.V.V.V.V.V.V.V.V.",
"V.V.V.V.V.V.V.V.V.V.V.V.V.V.V.V.V.V.V.V.V.V.V.V.V.V.V.V.V.V.V.V.V.V.V.V.V.V.V.V.V.V.V.V.V.V.V.V.V.V.V.V.V.V.V.V.V.V.V.V.V.V.V.V.",
"V.V.V.V.V.V.V.V.V.V.V.V.V.V.V.V.V.V.V.V.V.V.V.V.V.V.V.V.V.V.V.V.V.V.V.V.V.V.V.V.V.V.V.V.V.V.V.V.V.V.V.V.V.V.V.V.V.V.V.V.V.V.V.V.",
"V.V.V.V.V.V.V.V.V.V.V.V.V.V.V.V.V.V.V.V.V.V.V.V.V.V.V.V.V.V.V.V.V.V.V.V.V.V.V.V.V.V.V.V.V.V.V.V.V.V.V.V.V.V.V.V.V.V.V.V.V.V.V.V.",
"V.V.V.V.V.V.V.V.V.V.V.V.V.V.V.V.V.V.V.V.V.V.V.V.V.V.V.V.V.V.V.V.V.V.V.V.V.V.V.V.V.V.V.V.V.V.V.V.V.V.V.V.V.V.V.V.V.V.V.V.V.V.V.V.",
"V.V.V.V.V.V.V.V.V.V.V.V.V.V.V.V.V.V.V.V.V.V.V.V.V.V.V.V.V.V.V.V.V.V.V.V.V.V.V.V.V.V.V.V.V.V.V.V.V.V.V.V.V.V.V.V.V.V.V.V.V.V.V.V.",
"V.V.V.V.V.V.V.V.V.V.V.V.V.V.V.V.V.V.V.V.V.V.V.V.V.V.V.V.V.V.V.V.V.V.V.V.V.V.V.V.V.V.V.V.V.V.V.V.V.V.V.V.V.V.V.V.V.V.V.V.V.V.V.V.",
"V.V.V.V.V.V.V.V.V.V.V.V.V.V.V.V.V.V.V.V.V.V.V.V.V.V.V.V.V.V.V.V.V.V.V.V.V.V.V.V.V.V.V.V.V.V.V.V.V.V.V.V.V.V.V.V.V.V.V.V.V.V.V.V.",
"V.V.V.V.V.V.V.V.V.V.V.V.V.V.V.V.V.V.V.V.V.V.V.V.V.V.V.V.V.V.V.V.V.V.V.V.V.V.V.V.V.V.V.V.V.V.V.V.V.V.V.V.V.V.V.V.V.V.V.V.V.V.V.V.",
"V.V.V.V.V.V.V.V.V.V.V.V.V.V.V.V.V.V.V.V.V.V.V.V.V.V.V.V.V.V.V.V.V.V.V.V.V.V.V.V.V.V.V.V.V.V.V.V.V.V.V.V.V.V.V.V.V.V.V.V.V.V.V.V."
};
