/* XPM */
static char *player__44_1710156996[] = {
/* columns rows colors chars-per-pixel */
"64 64 152 2 ",
"   c #001564",
".  c #001A66",
"X  c #001768",
"o  c #001C6A",
"O  c #002166",
"+  c #00236D",
"@  c #01286F",
"#  c #012671",
"$  c #052974",
"%  c #092C76",
"&  c #072B79",
"*  c #0C2E7B",
"=  c #0D307A",
"-  c #12327C",
";  c #18397F",
":  c #0F3082",
">  c #163480",
",  c #1A3683",
"<  c #1D3B82",
"1  c #143389",
"2  c #19358C",
"3  c #1C3792",
"4  c #1E3994",
"5  c #223D85",
"6  c #243D8A",
"7  c #2A3F8D",
"8  c #203B96",
"9  c #243D9B",
"0  c #234184",
"q  c #2A428D",
"w  c #2E4A8A",
"e  c #334E8C",
"r  c #36518F",
"t  c #2E4391",
"y  c #334693",
"u  c #374996",
"i  c #394A97",
"p  c #3D4C9A",
"a  c #375290",
"s  c #3C5592",
"d  c #3F5994",
"f  c #2A40A4",
"g  c #2E42AB",
"h  c #3244AE",
"j  c #3546B3",
"k  c #3748B4",
"l  c #3949B6",
"z  c #3B49BA",
"x  c #414E9E",
"c  c #435B96",
"v  c #43509E",
"b  c #465F99",
"n  c #4E659C",
"m  c #51679E",
"M  c #52699E",
"N  c #4651A1",
"B  c #4C56A5",
"V  c #4F58A7",
"C  c #535AAA",
"Z  c #595DAE",
"A  c #5B5EB0",
"S  c #566BA0",
"D  c #596EA2",
"F  c #5D72A4",
"G  c #5E60B1",
"H  c #6276A6",
"J  c #657AA9",
"K  c #6A7DAC",
"L  c #6263B5",
"P  c #6766B8",
"I  c #6867B9",
"U  c #6D6ABD",
"Y  c #706CBF",
"T  c #3F4CC1",
"R  c #434EC5",
"E  c #454FC8",
"W  c #4752CA",
"Q  c #4A53CD",
"!  c #756FC2",
"~  c #7770C3",
"^  c #7B72C6",
"/  c #7E74C9",
"(  c #5B5CE5",
")  c #605FEC",
"_  c #6060ED",
"`  c #6663F5",
"'  c #6864F7",
"]  c #6C66FC",
"[  c #6F68FF",
"{  c #736AFF",
"}  c #8276CB",
"|  c #8478CC",
" . c #887ACF",
".. c #8C7CD2",
"X. c #917ED5",
"o. c #6E81AE",
"O. c #7385B0",
"+. c #7788B3",
"@. c #7B8DB6",
"#. c #8393BA",
"$. c #8897BC",
"%. c #8799BE",
"&. c #8B9BBF",
"*. c #8F9EC2",
"=. c #909FC1",
"-. c #9280D7",
";. c #9682D9",
":. c #9C86DE",
">. c #95A4C5",
",. c #99A6C6",
"<. c #9BA8C7",
"1. c #9DAAC9",
"2. c #A1AECC",
"3. c #A6B2CD",
"4. c #A8B3CF",
"5. c #ABB6D1",
"6. c #AEB9D2",
"7. c #B3BDD5",
"8. c #9F88E0",
"9. c #A48BE3",
"0. c #A98EE6",
"q. c #AB8FE8",
"w. c #AE91EA",
"e. c #B294ED",
"r. c #B696F0",
"t. c #B897F1",
"y. c #BB9AF4",
"u. c #C09DF7",
"i. c #C39EF9",
"p. c #C6A0FB",
"a. c #C9A2FD",
"s. c #D0A6FF",
"d. c #D2A8FF",
"f. c #B7C1D7",
"g. c #BAC2D8",
"h. c #C1C9DD",
"j. c #C8CFE0",
"k. c #C7D0E0",
"l. c #CBD2E2",
"z. c #D1D7E6",
"x. c #D3D9E6",
"c. c #D7DDE9",
"v. c #D9DEEA",
"b. c #DDE2EC",
"n. c #E1E5EE",
"m. c #E5E9F1",
"M. c #EAEDF4",
"N. c #EFF2F7",
"B. c #F1F3F7",
"V. c #F4F5F9",
"C. c #F7F9FB",
"Z. c #FFFFFF",
/* pixels */
"Z.Z.Z.Z.Z.Z.Z.Z.Z.Z.Z.Z.Z.Z.Z.Z.Z.Z.Z.Z.Z.Z.Z.Z.Z.Z.Z.Z.Z.Z.Z.Z.Z.Z.Z.Z.Z.Z.Z.Z.Z.Z.Z.Z.Z.Z.Z.Z.Z.Z.Z.Z.Z.Z.Z.Z.Z.Z.Z.Z.Z.Z.Z.Z.",
"Z.Z.Z.Z.Z.Z.Z.Z.Z.Z.Z.Z.Z.Z.Z.Z.Z.Z.Z.Z.Z.Z.Z.Z.Z.Z.Z.Z.Z.Z.Z.Z.Z.Z.Z.Z.Z.Z.Z.Z.Z.Z.Z.Z.Z.Z.Z.Z.Z.Z.Z.Z.Z.Z.Z.Z.Z.Z.Z.Z.Z.Z.Z.Z.",
"Z.Z.Z.Z.Z.Z.Z.Z.Z.Z.Z.Z.Z.Z.Z.Z.Z.Z.Z.Z.Z.Z.Z.Z.Z.Z.Z.Z.Z.Z.Z.Z.Z.Z.Z.Z.Z.Z.Z.Z.Z.Z.Z.Z.Z.Z.Z.Z.Z.Z.Z.Z.Z.Z.Z.Z.Z.Z.Z.Z.Z.Z.Z.Z.",
"Z.Z.Z.Z.Z.Z.Z.Z.Z.Z.Z.Z.Z.Z.Z.Z.Z.Z.Z.Z.Z.Z.Z.Z.Z.Z.Z.Z.Z.Z.Z.Z.Z.Z.Z.Z.Z.Z.Z.Z.Z.Z.Z.Z.Z.Z.Z.Z.Z.Z.Z.Z.Z.Z.Z.Z.Z.Z.Z.Z.Z.Z.Z.Z.",
"Z.Z.Z.Z.Z.Z.Z.Z.Z.Z.Z.Z.Z.Z.Z.Z.Z.Z.Z.Z.Z.Z.Z.Z.Z.Z.Z.Z.Z.Z.Z.Z.Z.Z.Z.Z.Z.Z.Z.Z.Z.Z.Z.Z.Z.Z.Z.Z.Z.Z.Z.Z.Z.Z.Z.Z.Z.Z.Z.Z.Z.Z.Z.Z.",
"Z.Z.Z.Z.Z.Z.Z.Z.Z.Z.Z.Z.Z.Z.Z.Z.Z.Z.Z.Z.Z.Z.Z.Z.Z.Z.Z.Z.Z.Z.Z.Z.Z.Z.Z.Z.Z.Z.Z.C.Z.Z.Z.Z.Z.Z.Z.Z.Z.Z.Z.Z.Z.Z.Z.Z.Z.Z.Z.Z.Z.Z.Z.Z.",
"Z.Z.Z.Z.Z.Z.Z.Z.Z.Z.Z.Z.Z.Z.Z.Z.Z.Z.Z.Z.Z.Z.Z.Z.Z.Z.Z.Z.Z.Z.Z.Z.Z.Z.Z.b.l.v.Z.Z.Z.Z.Z.Z.Z.Z.Z.Z.Z.Z.Z.Z.Z.Z.Z.Z.Z.Z.Z.Z.Z.Z.Z.Z.",
"Z.Z.Z.Z.Z.Z.Z.Z.Z.Z.Z.Z.Z.Z.Z.Z.Z.Z.Z.Z.Z.Z.Z.Z.Z.Z.Z.Z.Z.Z.Z.Z.Z.6.s % + % w >.Z.Z.Z.Z.Z.Z.Z.Z.Z.Z.Z.Z.Z.Z.Z.Z.Z.Z.Z.Z.Z.Z.Z.Z.",
"Z.Z.Z.Z.Z.Z.Z.Z.Z.Z.Z.Z.Z.Z.Z.Z.Z.Z.Z.Z.Z.Z.Z.Z.Z.Z.Z.Z.Z.Z.Z.Z.#.o . * 6 - o o F Z.Z.Z.Z.Z.Z.Z.Z.Z.Z.Z.Z.Z.Z.Z.Z.Z.Z.Z.Z.Z.Z.Z.",
"Z.Z.Z.Z.Z.Z.Z.Z.Z.Z.Z.Z.Z.Z.Z.Z.Z.Z.Z.Z.Z.Z.Z.Z.Z.Z.Z.Z.Z.C.Z.2.  $ L w.t.r.~ =   D Z.Z.Z.Z.Z.Z.Z.Z.Z.Z.Z.Z.Z.Z.Z.Z.Z.Z.Z.Z.Z.Z.",
"Z.Z.Z.Z.Z.Z.Z.Z.Z.Z.Z.Z.Z.Z.Z.Z.Z.Z.Z.Z.Z.Z.Z.Z.Z.Z.Z.Z.Z.Z.C.w o I s.u.y.u.a.;.=   S Z.Z.Z.Z.Z.Z.Z.Z.Z.Z.Z.Z.Z.Z.Z.Z.Z.Z.Z.Z.Z.",
"Z.Z.Z.Z.Z.Z.Z.Z.Z.Z.Z.Z.Z.Z.Z.Z.Z.Z.Z.Z.Z.Z.Z.Z.Z.Z.Z.Z.Z.Z.j.# , t.y.t.y.y.t.a.;.-   S Z.Z.Z.Z.Z.Z.Z.Z.Z.Z.Z.Z.Z.Z.Z.Z.Z.Z.Z.Z.",
"Z.Z.Z.Z.Z.Z.Z.Z.Z.Z.Z.Z.Z.Z.Z.Z.Z.Z.Z.Z.Z.Z.Z.Z.Z.Z.Z.Z.C.Z.7.o i u.t.y.y.y.y.t.a.;.= o D Z.Z.Z.Z.Z.Z.Z.Z.Z.Z.Z.Z.Z.Z.Z.Z.Z.Z.Z.",
"Z.Z.Z.Z.Z.Z.Z.Z.Z.Z.Z.Z.Z.Z.Z.Z.Z.Z.Z.Z.Z.Z.Z.Z.Z.Z.Z.Z.Z.Z.g.o q u.y.y.y.y.y.y.t.a.;.-   $.Z.C.Z.C.C.Z.Z.Z.Z.Z.Z.Z.Z.Z.Z.Z.Z.Z.",
"Z.Z.Z.Z.Z.Z.Z.Z.Z.Z.Z.Z.Z.Z.Z.Z.Z.Z.Z.Z.Z.Z.Z.Z.Z.Z.Z.Z.Z.Z.m.- # ;.a.t.y.y.y.y.y.t.a.| + , V.Z.Z.Z.Z.Z.Z.Z.C.Z.Z.Z.Z.Z.Z.Z.Z.Z.",
"Z.Z.Z.Z.Z.Z.Z.Z.Z.Z.Z.Z.Z.M.e O.Z.Z.Z.Z.Z.Z.Z.Z.Z.Z.Z.Z.Z.C.Z.K   7 e.u.y.y.u.y.y.t.p.y.6 # #.7.5.6.6.6.j.Z.Z.Z.Z.Z.Z.Z.Z.Z.Z.Z.",
"Z.Z.Z.Z.Z.Z.Z.Z.Z.Z.Z.Z.Z.l.o < C.Z.Z.Z.Z.Z.Z.Z.Z.Z.Z.Z.Z.Z.Z.M.w . 7 e.i.t.y.y.y.p...6 $ $ O . o . . o # w 6.Z.Z.Z.Z.Z.Z.Z.Z.Z.",
"Z.Z.Z.Z.Z.Z.Z.Z.Z.Z.Z.Z.Z.m.- - m.Z.Z.Z.Z.Z.Z.Z.Z.Z.Z.Z.Z.Z.Z.Z.n.0 . q r.p.p.y.y.U + O * 4 9 8 9 8 9 8 : O o %.Z.C.Z.Z.Z.Z.Z.Z.",
"Z.Z.Z.Z.Z.Z.Z.Z.Z.Z.Z.Z.Z.V.0 # x.Z.C.Z.Z.Z.Z.Z.Z.Z.Z.Z.Z.Z.Z.C.Z.b.0 . q ;.A 7 < $ $ j ` ' [ ] ] ] ] ] ` k $ o 7.Z.C.Z.Z.Z.Z.Z.",
"Z.Z.Z.Z.Z.Z.Z.Z.Z.Z.Z.C.Z.Z.c o 5.Z.Z.Z.Z.Z.Z.Z.Z.Z.Z.Z.Z.Z.Z.Z.C.Z.b.q # $ . O $ # g { ' ` ` ` ' ' ` ` ' { k . c Z.Z.Z.Z.Z.Z.Z.",
"Z.Z.Z.Z.Z.Z.Z.Z.Z.Z.Z.Z.m.o.- # = w #.B.Z.Z.Z.Z.Z.Z.Z.Z.Z.Z.Z.Z.Z.C.Z.<.o # x } * # ( ' ` ' ' ' ' ' ' ' ` ' _ & = b.Z.Z.Z.Z.Z.Z.",
"Z.Z.Z.Z.Z.Z.Z.Z.Z.C.Z.z.5   # - * o   w v.Z.Z.Z.Z.Z.Z.Z.Z.Z.Z.Z.Z.Z.B.e o Z s.w.$ 1 ` ' ' ' ' ' ' ' ' ' ' ' ` 1 @ j.Z.Z.Z.Z.Z.Z.",
"Z.Z.Z.Z.Z.Z.Z.Z.Z.Z.M.0 . t X.w.w...6 . w V.Z.Z.Z.Z.Z.Z.Z.Z.Z.Z.C.Z.5.o 5 y.i.9.* & _ ] ` ' ' ' ' ' ' ` ' ' ` * $ v.Z.Z.Z.Z.Z.Z.",
"Z.Z.Z.Z.Z.Z.Z.Z.Z.Z.@.  q t.a.u.y.a.e.6   &.Z.C.Z.Z.Z.Z.Z.Z.Z.Z.Z.Z.n   I a.t.u.t O z { ` ` ` ` ` ` ` ` ` { R O w Z.Z.Z.Z.Z.Z.Z.",
"Z.Z.Z.Z.Z.Z.Z.Z.Z.C.r o  .a.e.y.y.r.a./ . c Z.Z.Z.Z.Z.Z.Z.Z.Z.Z.Z.x.$ % 0.i.r.p./ o % E [ [ [ [ [ { [ [ ] Q =   ,.Z.C.Z.Z.Z.Z.Z.",
"Z.Z.Z.Z.Z.Z.Z.Z.Z.B.; $ 0.u.y.y.y.y.u.9.# 0 V.Z.Z.Z.Z.Z.Z.Z.Z.C.Z.+.  B p.y.y.y.i.Z o @ 3 h l j j k k j 9 #   H Z.Z.Z.Z.Z.Z.Z.Z.",
"Z.Z.Z.Z.Z.Z.Z.Z.Z.V.0 # 9.u.y.y.y.y.y.e.= % b.Z.Z.Z.Z.Z.Z.Z.Z.Z.B.0 o ..p.y.y.y.y.i.I - @ .             . - #.Z.Z.Z.Z.Z.Z.Z.Z.Z.",
"Z.Z.Z.Z.Z.Z.Z.Z.Z.Z.s o X.p.y.y.y.y.y.y.7 + h.Z.C.Z.Z.Z.Z.Z.Z.Z.3.X q y.y.y.y.y.y.t.s.C . n *.#.#.$.$.%.2.n.Z.Z.Z.Z.Z.Z.Z.Z.Z.Z.",
"Z.Z.Z.Z.Z.Z.Z.Z.Z.Z.D   ^ a.t.y.y.y.y.p.p . 3.Z.Z.Z.Z.Z.Z.Z.Z.Z.n   U a.t.y.y.y.y.u.w.- + l.Z.Z.Z.Z.Z.Z.Z.Z.Z.Z.Z.Z.Z.Z.Z.Z.Z.Z.",
"Z.Z.Z.Z.Z.Z.Z.Z.C.Z.+.  L a.t.y.u.y.t.a.C   &.Z.C.C.C.Z.Z.C.Z.k.# * q.i.y.y.y.y.t.a.~ . s Z.C.Z.C.Z.Z.C.C.Z.Z.Z.Z.Z.Z.Z.Z.Z.Z.Z.",
"Z.Z.Z.Z.Z.Z.Z.Z.Z.Z.,.  B p.t.y.y.y.y.a.U   K Z.Z.Z.Z.Z.Z.Z.Z.+.  B a.t.u.y.y.y.t.i.t   1.Z.C.Z.Z.Z.Z.Z.Z.Z.Z.Z.Z.Z.Z.Z.Z.Z.Z.Z.",
"Z.Z.Z.Z.Z.Z.Z.Z.Z.Z.7.o y u.y.y.y.y.t.a.} o s 5.4.4.4.4.4.4.5.q o ..p.y.y.y.y.y.p.-.+ < M.Z.Z.Z.Z.Z.Z.Z.Z.Z.Z.Z.Z.Z.Z.Z.Z.Z.Z.Z.",
"Z.Z.Z.Z.Z.Z.Z.Z.C.Z.z.$ , t.y.y.y.y.t.a.^ # # o . o o o . . o # % :.i.y.y.y.y.y.a.B   O.Z.C.Z.Z.Z.Z.Z.Z.Z.Z.Z.Z.Z.Z.Z.Z.Z.Z.Z.Z.",
"Z.Z.Z.Z.Z.Z.Z.Z.Z.Z.V.0 + ..a.t.y.t.t.a.N O 2 9 9 9 9 9 t 9 9 * + ..i.y.y.y.y.u.w.* # l.Z.Z.Z.Z.Z.Z.Z.Z.Z.Z.Z.Z.Z.Z.Z.Z.Z.Z.Z.Z.",
"Z.Z.Z.Z.Z.Z.Z.Z.Z.Z.Z.+.  6 0.a.p.p.a.^ # $ ( { ] { ] ] ] ] { h . x a.y.t.t.t.s.L . c Z.Z.Z.Z.Z.Z.Z.Z.Z.Z.Z.Z.Z.Z.Z.Z.Z.Z.Z.Z.Z.",
"Z.Z.Z.Z.Z.Z.Z.Z.Z.Z.Z.B.e   > L ..| N # O z ] ` ` ` ` ` ` ` ' ( % @ A y.a.a.i.! $ o 7.Z.C.Z.Z.Z.Z.Z.Z.Z.Z.Z.Z.Z.Z.Z.Z.Z.Z.Z.Z.Z.",
"Z.Z.Z.Z.Z.Z.Z.Z.Z.Z.Z.Z.M.m # + # @ + $ l ] ' ' ' ' ' ' ' ' ' [ T # # < Z Z t $ o O.Z.Z.Z.Z.Z.Z.Z.Z.Z.Z.Z.Z.Z.Z.Z.Z.Z.Z.Z.Z.Z.Z.",
"Z.Z.Z.Z.Z.Z.Z.Z.Z.Z.C.Z.B.O.$ $ # % % E { ` ' ' ' ' ' ' ' ' ' ` [ T $ $ o . $ + K Z.Z.Z.Z.Z.Z.Z.Z.Z.Z.Z.Z.Z.Z.Z.Z.Z.Z.Z.Z.Z.Z.Z.",
"Z.Z.Z.Z.Z.Z.Z.Z.Z.Z.Z.b.5   $ < 6 & + & W ] ` ' ' ' ' ' ' ' ' ' ( 2 # $ < 7 % O - 4.Z.C.Z.Z.Z.Z.Z.Z.Z.Z.Z.Z.Z.Z.Z.Z.Z.Z.Z.Z.Z.Z.",
"Z.Z.Z.Z.Z.Z.Z.Z.Z.Z.C.e X t X.y.y.9.x O % ( ' ` ` ` ` ` ` ` ' ' 2 . 6 ;.t.y.9.N o $ x.Z.Z.Z.Z.Z.Z.Z.Z.Z.Z.Z.Z.Z.Z.Z.Z.Z.Z.Z.Z.Z.",
"Z.Z.Z.Z.Z.Z.Z.Z.C.Z.1.X < e.a.y.y.i.a.x . f { [ { ] { ] [ ] { W + < e.a.u.y.i.a.N   F Z.Z.Z.Z.Z.Z.Z.Z.Z.Z.Z.Z.Z.Z.Z.Z.Z.Z.Z.Z.Z.",
"Z.Z.Z.Z.Z.Z.Z.Z.Z.Z.c . ~ a.t.y.y.t.i.8.$ * W W W W W W Q W Q 4 O Y a.r.y.y.t.i.9.$ = n.Z.Z.Z.Z.Z.Z.Z.Z.Z.Z.Z.Z.Z.Z.Z.Z.Z.Z.Z.Z.",
"Z.Z.Z.Z.Z.Z.Z.Z.Z.j.# - w.y.y.y.y.y.u.e.> # . . . . . . . . . @ $ X.i.y.y.y.y.y.i.p   *.Z.C.Z.Z.Z.Z.Z.Z.Z.Z.Z.Z.Z.Z.Z.Z.Z.Z.Z.Z.",
"Z.Z.Z.Z.Z.Z.Z.C.Z.O.  C a.y.y.y.y.y.u.q.* % M M M D M S S M D 5 o } p.t.y.y.y.t.p./ . a Z.Z.Z.Z.Z.Z.Z.Z.Z.Z.Z.Z.Z.Z.Z.Z.Z.Z.Z.Z.",
"Z.Z.Z.Z.Z.Z.Z.Z.B.5 O X.p.y.y.y.y.t.p.^ . s Z.Z.Z.Z.Z.Z.Z.Z.Z.@.  B a.t.y.y.u.y.y.e., o h.Z.C.Z.Z.Z.Z.Z.Z.Z.Z.Z.Z.Z.Z.Z.Z.Z.Z.Z.",
"Z.Z.Z.Z.Z.Z.Z.Z.4.. q y.y.y.y.u.y.y.i.i   >.Z.C.Z.Z.C.Z.Z.C.Z.l.# - w.y.y.y.y.y.y.a.Z   K Z.Z.Z.Z.Z.Z.Z.Z.Z.Z.Z.Z.Z.Z.Z.Z.Z.Z.Z.",
"Z.Z.Z.Z.Z.Z.C.Z.n   U a.t.y.y.y.y.i.8.$ - n.Z.Z.Z.Z.Z.Z.Z.Z.Z.Z.c . ! a.y.y.y.y.y.p.:.+ ; M.Z.Z.Z.Z.Z.Z.Z.Z.Z.Z.Z.Z.Z.Z.Z.Z.Z.Z.",
"Z.Z.Z.Z.Z.Z.Z.x.% % 0.i.y.y.y.y.t.a.Z   F Z.Z.Z.Z.Z.Z.Z.Z.Z.Z.Z.1.  t u.y.y.y.y.y.y.u.y   <.Z.C.Z.Z.Z.Z.Z.Z.Z.Z.Z.Z.Z.Z.Z.Z.Z.Z.",
"Z.Z.Z.Z.Z.C.Z.#.  N a.y.y.y.y.y.y.t.< o f.Z.Z.Z.Z.Z.Z.Z.Z.Z.Z.Z.m.; # ;.i.y.y.y.y.t.a.!   c Z.Z.Z.Z.Z.Z.Z.Z.Z.Z.Z.Z.Z.Z.Z.Z.Z.Z.",
"Z.Z.Z.Z.Z.Z.C.w o  .i.y.y.y.y.y.a.| o e C.Z.Z.Z.Z.Z.Z.Z.Z.Z.Z.C.Z.K   Z a.y.y.y.y.t.u.w.- $ l.Z.Z.Z.Z.Z.Z.Z.Z.Z.Z.Z.Z.Z.Z.Z.Z.Z.",
"Z.Z.Z.Z.Z.Z.x.# - e.y.y.y.y.y.y.i.x   #.Z.C.Z.Z.Z.Z.Z.Z.Z.Z.Z.Z.Z.h.o > e.u.y.y.y.y.t.a.x   <.Z.C.Z.Z.Z.Z.Z.Z.Z.Z.Z.Z.Z.Z.Z.Z.Z.",
"Z.Z.Z.Z.Z.Z.l.@ 6 y.y.y.y.y.y.i.9.% % c.Z.Z.Z.Z.Z.Z.Z.Z.Z.Z.Z.Z.Z.Z.s . ^ a.y.y.y.u.t.a.V   >.Z.Z.Z.Z.Z.Z.Z.Z.Z.Z.Z.Z.Z.Z.Z.Z.Z.",
"Z.Z.Z.Z.Z.Z.m.- $ 9.i.t.y.y.t.a.P   M Z.Z.Z.Z.Z.Z.Z.Z.Z.Z.Z.Z.Z.C.Z.=.  u i.t.y.y.y.t.i.q o 5.Z.Z.Z.Z.Z.Z.Z.Z.Z.Z.Z.Z.Z.Z.Z.Z.Z.",
"Z.Z.Z.Z.Z.Z.Z.m   B a.i.y.y.a.q.> o 7.Z.C.Z.Z.Z.Z.Z.Z.Z.Z.Z.Z.Z.Z.Z.m.- + } s.y.y.u.a.^ + < M.Z.Z.Z.Z.Z.Z.Z.Z.Z.Z.Z.Z.Z.Z.Z.Z.Z.",
"Z.Z.Z.Z.Z.Z.Z.j.$ # B 9.y.t...6   c Z.Z.Z.Z.Z.Z.Z.Z.Z.Z.Z.Z.Z.Z.Z.C.Z.#.  * Y e.y.e.U %   &.Z.Z.Z.Z.Z.Z.Z.Z.Z.Z.Z.Z.Z.Z.Z.Z.Z.Z.",
"Z.Z.Z.Z.Z.Z.C.Z.1.#   $ 5 , +   w n.Z.Z.Z.Z.Z.Z.Z.Z.Z.Z.Z.Z.Z.Z.Z.Z.Z.Z.H X . - 6 * . o K Z.Z.Z.Z.Z.Z.Z.Z.Z.Z.Z.Z.Z.Z.Z.Z.Z.Z.Z.",
"Z.Z.Z.Z.Z.Z.Z.Z.Z.j.M - @ # 5 @.B.Z.Z.Z.Z.Z.Z.Z.Z.Z.Z.Z.Z.Z.Z.Z.Z.Z.Z.Z.Z.1.r $ + % d 3.Z.Z.Z.Z.Z.Z.Z.Z.Z.Z.Z.Z.Z.Z.Z.Z.Z.Z.Z.Z.",
"Z.Z.Z.Z.Z.Z.Z.Z.C.Z.Z.m.l.z.V.Z.Z.Z.Z.Z.Z.Z.Z.Z.Z.Z.Z.Z.Z.Z.Z.Z.Z.Z.Z.Z.Z.Z.Z.v.j.n.Z.Z.Z.Z.Z.Z.Z.Z.Z.Z.Z.Z.Z.Z.Z.Z.Z.Z.Z.Z.Z.Z.",
"Z.Z.Z.Z.Z.Z.Z.Z.Z.Z.Z.Z.Z.Z.Z.Z.Z.Z.Z.Z.Z.Z.Z.Z.Z.Z.Z.Z.Z.Z.Z.Z.Z.Z.Z.Z.Z.C.Z.Z.Z.Z.Z.Z.Z.Z.Z.Z.Z.Z.Z.Z.Z.Z.Z.Z.Z.Z.Z.Z.Z.Z.Z.Z.",
"Z.Z.Z.Z.Z.Z.Z.Z.Z.Z.Z.Z.Z.C.Z.Z.Z.Z.Z.Z.Z.Z.Z.Z.Z.Z.Z.Z.Z.Z.Z.Z.Z.Z.Z.Z.Z.Z.Z.Z.C.Z.Z.Z.Z.Z.Z.Z.Z.Z.Z.Z.Z.Z.Z.Z.Z.Z.Z.Z.Z.Z.Z.Z.",
"Z.Z.Z.Z.Z.Z.Z.Z.Z.Z.Z.Z.Z.Z.Z.Z.Z.Z.Z.Z.Z.Z.Z.Z.Z.Z.Z.Z.Z.Z.Z.Z.Z.Z.Z.Z.Z.Z.Z.Z.Z.Z.Z.Z.Z.Z.Z.Z.Z.Z.Z.Z.Z.Z.Z.Z.Z.Z.Z.Z.Z.Z.Z.Z.",
"Z.Z.Z.Z.Z.Z.Z.Z.Z.Z.Z.Z.Z.Z.Z.Z.Z.Z.Z.Z.Z.Z.Z.Z.Z.Z.Z.Z.Z.Z.Z.Z.Z.Z.Z.Z.Z.Z.Z.Z.Z.Z.Z.Z.Z.Z.Z.Z.Z.Z.Z.Z.Z.Z.Z.Z.Z.Z.Z.Z.Z.Z.Z.Z.",
"Z.Z.Z.Z.Z.Z.Z.Z.Z.Z.Z.Z.Z.Z.Z.Z.Z.Z.Z.Z.Z.Z.Z.Z.Z.Z.Z.Z.Z.Z.Z.Z.Z.Z.Z.Z.Z.Z.Z.Z.Z.Z.Z.Z.Z.Z.Z.Z.Z.Z.Z.Z.Z.Z.Z.Z.Z.Z.Z.Z.Z.Z.Z.Z.",
"Z.Z.Z.Z.Z.Z.Z.Z.Z.Z.Z.Z.Z.Z.Z.Z.Z.Z.Z.Z.Z.Z.Z.Z.Z.Z.Z.Z.Z.Z.Z.Z.Z.Z.Z.Z.Z.Z.Z.Z.Z.Z.Z.Z.Z.Z.Z.Z.Z.Z.Z.Z.Z.Z.Z.Z.Z.Z.Z.Z.Z.Z.Z.Z."
};
