/* XPM */
static char *player__9_1710156991[] = {
/* columns rows colors chars-per-pixel */
"64 64 155 2 ",
"   c #00035C",
".  c #001565",
"X  c #001A66",
"o  c #001668",
"O  c #001C6A",
"+  c #002066",
"@  c #00236D",
"#  c #012571",
"$  c #042974",
"%  c #092C76",
"&  c #0C2E79",
"*  c #112F79",
"=  c #0E317B",
"-  c #13337D",
";  c #18367E",
":  c #18397E",
">  c #0E2F80",
",  c #133282",
"<  c #193682",
"1  c #1C3982",
"2  c #16348B",
"3  c #1F3A94",
"4  c #203B86",
"5  c #243D89",
"6  c #283F8C",
"7  c #203B96",
"8  c #233C9B",
"9  c #254386",
"0  c #294587",
"q  c #27408B",
"w  c #2A438C",
"e  c #2D498A",
"r  c #324D8D",
"t  c #37518F",
"y  c #2D4291",
"u  c #28409F",
"i  c #334593",
"p  c #394997",
"a  c #3C4C9A",
"s  c #3C5591",
"d  c #3F5893",
"f  c #2D42A7",
"g  c #2F42AC",
"h  c #3144AD",
"j  c #3546B2",
"k  c #3848B6",
"l  c #3D4BBC",
"z  c #424E9E",
"x  c #405793",
"c  c #435C96",
"v  c #485E98",
"b  c #4B639A",
"n  c #52679E",
"m  c #54699E",
"M  c #4652A1",
"N  c #4B54A4",
"B  c #4F58A7",
"V  c #4F57A8",
"C  c #5057A7",
"Z  c #5057A8",
"A  c #5259AA",
"S  c #595EAE",
"D  c #5D5FB0",
"F  c #556BA1",
"G  c #5A6FA2",
"H  c #5D73A5",
"J  c #6275A6",
"K  c #6177A8",
"L  c #667AAA",
"P  c #6B7EAC",
"I  c #6464B6",
"U  c #6766B8",
"Y  c #6C69BC",
"T  c #716DBF",
"R  c #3F4DC0",
"E  c #424EC3",
"W  c #4550C6",
"Q  c #4D54D2",
"!  c #5157D6",
"~  c #5158D7",
"^  c #5156D8",
"/  c #5559DC",
"(  c #756EC2",
")  c #7770C3",
"_  c #7971C5",
"`  c #7F75C9",
"'  c #5B5DE5",
"]  c #5F5FEC",
"[  c #6763F5",
"{  c #6864F7",
"}  c #6C66FB",
"|  c #6F68FF",
" . c #726AFF",
".. c #8276CC",
"X. c #8579CE",
"o. c #887ACF",
"O. c #8B7CD1",
"+. c #6F81AE",
"@. c #7284AF",
"#. c #6E82B0",
"$. c #7586B1",
"%. c #7689B3",
"&. c #798CB5",
"*. c #8494BA",
"=. c #8896BB",
"-. c #8798BD",
";. c #8A9BBF",
":. c #8F9EC0",
">. c #909EC1",
",. c #9381D7",
"<. c #9682D9",
"1. c #9C87DE",
"2. c #9E88DF",
"3. c #95A4C4",
"4. c #98A6C6",
"5. c #9AA8C7",
"6. c #9DABC9",
"7. c #A1AECB",
"8. c #A5B1CD",
"9. c #AAB6D0",
"0. c #ADB8D2",
"q. c #B2BDD4",
"w. c #9F88E0",
"e. c #A58CE4",
"r. c #A98FE7",
"t. c #AB8FE8",
"y. c #AE91EA",
"u. c #B395EE",
"i. c #B797F0",
"p. c #B897F1",
"a. c #BB9AF3",
"s. c #C09DF7",
"d. c #C39EF9",
"f. c #C6A0FB",
"g. c #CAA2FD",
"h. c #D0A6FF",
"j. c #D3A8FF",
"k. c #BDC5DA",
"l. c #C0C7DB",
"z. c #C0C9DC",
"x. c #C7CFE0",
"c. c #CBD1E2",
"v. c #D1D7E5",
"b. c #D3D9E6",
"n. c #D6DCE8",
"m. c #D9DEEA",
"M. c #DEE2ED",
"N. c #E1E5EE",
"B. c #E3E7F0",
"V. c #E6EAF1",
"C. c #EAEDF4",
"Z. c #EDF0F5",
"A. c #F3F5F9",
"S. c #F7F9FB",
"D. c #FFFFFF",
/* pixels */
"D.D.D.D.D.D.D.D.D.D.D.D.D.D.D.D.D.D.D.D.D.D.D.D.D.D.D.D.D.D.D.D.D.D.D.D.D.D.D.D.D.D.D.D.D.D.D.D.D.D.D.D.D.D.D.D.D.D.D.D.D.D.D.D.",
"D.D.D.D.D.D.D.D.D.D.D.D.D.D.D.D.D.D.D.D.D.D.D.D.D.D.D.D.D.D.D.D.D.D.D.D.D.D.D.D.D.D.D.D.D.D.D.D.D.D.S.D.D.D.D.D.D.D.D.D.D.D.D.D.",
"D.D.D.D.D.D.D.D.D.D.D.D.D.D.D.D.D.D.D.D.D.D.D.D.D.D.D.D.D.D.D.D.D.D.D.D.D.D.D.D.D.D.D.D.D.S.v.k.c.A.D.D.D.D.D.D.D.D.D.D.D.D.D.D.",
"D.D.D.D.D.D.D.D.D.D.D.D.D.D.D.D.D.D.D.D.D.D.D.D.D.D.D.D.D.D.D.D.D.D.D.D.D.D.D.D.D.D.D.D.3.0 # O @ 9 3.D.D.D.D.D.D.D.D.D.D.D.D.D.",
"D.D.D.D.D.D.D.D.D.D.D.D.D.D.D.D.D.D.D.D.D.D.D.D.D.D.D.D.D.D.D.D.D.D.D.D.D.D.D.D.D.D.D.P o O < i < O . J D.D.D.D.D.D.D.D.D.D.D.D.",
"D.D.D.D.D.D.D.D.D.D.D.D.D.D.D.D.D.D.D.D.D.D.D.D.D.D.D.D.D.D.D.D.D.D.D.D.D.D.D.D.D.D.;.. = ( p.d.a._ - o *.D.S.D.D.D.D.D.D.D.D.D.",
"D.D.D.D.D.D.D.D.D.D.D.D.D.D.D.D.D.D.D.D.D.D.D.D.D.D.D.D.D.D.D.D.D.D.D.D.D.D.D.D.D.Z.1 @ ) h.a.a.a.g...@ - C.D.D.D.D.D.D.D.D.D.D.",
"D.D.D.D.D.D.D.D.D.D.D.D.D.D.D.D.D.D.D.D.D.D.D.D.D.D.D.D.D.D.D.D.D.D.D.D.D.D.D.D.D.q.O w a.a.a.a.a.a.d.w o 0.D.D.D.D.D.D.D.D.D.D.",
"D.D.D.D.D.D.D.D.D.D.D.D.D.D.D.D.D.D.D.D.D.D.D.D.D.D.D.D.D.D.D.D.D.D.D.D.D.D.D.S.D.6.. N g.p.a.a.a.a.d.A . 3.D.D.D.D.D.D.D.D.D.D.",
"D.D.D.D.D.D.D.D.D.D.D.D.D.D.D.D.D.D.D.D.D.D.D.D.D.D.D.D.D.D.D.D.D.D.D.D.D.D.D.D.D.8.. z d.a.a.a.a.a.d.F . -.D.S.D.D.D.D.D.D.D.D.",
"D.D.D.D.D.D.D.D.D.D.S.D.D.D.D.D.D.D.D.D.D.D.D.D.D.D.D.D.D.D.D.D.D.D.D.D.D.D.D.D.D.q.X p d.a.a.a.a.a.g.I   &.D.D.D.D.D.D.D.D.D.D.",
"D.D.D.D.D.D.D.D.D.D.D.D.D.D.D.D.D.D.D.D.D.D.D.D.D.D.D.D.D.D.D.D.D.D.D.D.D.D.D.D.D.l.O w s.a.a.a.a.a.g.T . P D.S.D.D.D.D.D.D.D.D.",
"D.D.D.D.D.D.D.D.D.q.@.S.D.D.D.D.D.D.D.D.D.D.D.D.D.D.D.D.D.D.D.D.D.D.D.D.D.D.D.S.D.c.# 4 a.a.a.a.a.a.d._ . H D.D.D.D.D.D.D.D.D.D.",
"D.D.D.D.D.D.D.D.D.v   7.D.D.D.D.D.D.D.D.D.D.D.D.D.D.D.D.D.D.D.D.D.D.D.D.D.D.D.D.D.m.$ < u.a.a.a.a.a.d.O.o b D.D.D.D.D.D.D.D.D.D.",
"D.D.D.D.D.D.D.D.D.3.. v D.S.S.D.D.D.D.D.D.D.D.D.D.D.D.D.D.D.D.D.D.D.D.D.D.D.D.D.D.V.- % u.d.a.g.d.a.h.O.X v D.S.D.D.D.D.D.D.D.D.",
"D.D.D.D.D.D.D.D.D.V.- # b.D.D.D.D.D.D.D.D.D.D.D.D.D.D.D.D.D.D.D.D.D.D.D.D.D.D.D.D.S.0 # ( p.p.( M i V a . &.D.D.D.D.D.D.D.D.D.D.",
"D.D.D.D.D.D.D.D.S.D.+.. H 9.7.v.D.D.D.D.D.D.D.D.D.D.D.D.D.D.D.D.D.D.D.D.D.D.D.D.q.t $ @ @ < 4 + X @ X + # s 6.N.D.D.D.D.D.D.D.D.",
"D.D.D.D.D.D.D.D.D.D.%.# @ . . $ b n.D.S.D.D.D.D.D.D.D.D.D.D.D.D.D.D.D.D.D.D.D.;.O o - i 1 # + 2 E Q W 8 % @ X - F k.D.D.D.D.D.D.",
"D.D.D.D.D.D.D.D.D.%.O # 4 N z & . - c.D.D.D.D.D.D.D.D.D.D.D.D.D.D.D.D.D.S.D.3.O # I u.g.a @ 8 { | | | | ' R 3 # X O %.D.D.D.D.D.",
"D.D.D.D.D.D.S.D.0.O $ Y a.d.d.t.a o 0 A.D.D.D.D.D.D.D.D.D.D.D.D.D.D.D.S.D.q.# + Y g.d.w.$ % ] } [ [ [ [ } | } ' h % . -.D.D.D.D.",
"D.D.D.D.D.D.D.D.d o U j.a.a.a.d.a.6 o 4.D.S.D.D.D.D.D.D.D.D.D.D.D.D.S.D.c.* + S g.i.d...@ 8 } [ [ [ [ { [ [ [ }  .W @ & M.D.D.D.",
"D.D.D.D.D.D.D.M.% & y.a.a.a.a.a.g._ X d D.D.D.D.D.D.D.D.D.D.D.D.D.D.D.M.1 O M f.a.i.g._ + 8 } { { [ [ } { { } [ [  .8 X :.D.S.D.",
"D.D.D.D.D.D.D.x.@ 5 a.a.a.a.a.a.a.u.- O z.D.D.D.D.D.D.D.D.D.D.D.S.D.Z.e o i a.a.a.a.d.<.@ > [ } [ } [ [ { { { { [  .l X L D.D.D.",
"D.D.D.D.D.D.D.M.% & u.a.a.a.a.a.p.g.S . L D.S.D.D.D.D.D.D.D.D.D.D.D.c X 4 i.d.a.a.a.a.a.6 + j  .} [ [ [ { { { { [ | l . #.D.D.D.",
"D.D.D.D.D.D.D.D.s X _ g.a.a.a.a.a.d.1.# - N.D.D.D.D.D.D.D.D.D.S.D.J . < e.f.i.a.a.a.a.f.X.# # f ' {  .} [ [ [ [ [ } 7 X 6.D.S.D.",
"D.D.D.D.D.D.D.D.3.. i s.a.a.a.a.a.a.d.p . ;.D.D.D.D.D.D.D.D.D.D.3.o = <.g.i.a.a.a.a.a.a.g.B @ O # 3 V ' }  .} |  .l @ - C.D.D.D.",
"D.D.D.D.D.D.D.D.V.; @ <.f.a.a.a.a.a.g.` X s D.D.D.D.D.D.D.S.D.S.0 O ) g.a.a.a.a.a.a.i.f.<.- @ s 2 . X $ 8 W / Q u @ o 3.D.D.D.D.",
"D.D.D.D.D.D.D.S.D.P . A g.a.a.a.a.a.a.y.& $ s x s s s s s t t r # 1 a.a.a.a.a.a.a.i.f.e.< X H D.B.6.b & X X @ O X % ;.D.D.D.D.D.",
"D.D.D.D.D.D.D.D.D.x.# - y.a.a.a.a.a.a.u., # @ X O @ O O @ O @ @ @ p d.a.a.a.a.a.a.s.i.6 o c S.D.D.D.D.M.3.n r x &.b.D.D.D.D.D.D.",
"D.D.D.D.D.D.D.D.D.D.x X ( g.u.a.a.i.g.<.@ > ~ ~ ! ! ! ! / ~ / E @ 4 a.a.a.a.i.a.a.s.i X e C.D.D.D.D.S.D.D.D.D.D.D.D.D.D.D.D.D.D.",
"D.D.D.D.D.D.D.D.D.D.7.o < y.g.a.a.g.a.i + h  .} } | } | } |  .[ > @ ..g.f.g.g.g.f.z X 1 M.D.D.D.D.D.D.D.S.D.D.D.D.D.D.D.D.D.D.D.",
"D.D.D.D.D.D.D.D.D.D.D.x O 1 X.u.i.,.y @ = ] } [ [ [ [ [ [ [ [ } j + < X.( V V _ B O & c.D.S.D.D.D.D.D.D.D.D.D.D.D.D.D.D.D.D.D.D.",
"D.D.D.D.D.D.D.D.D.D.D.n.= # + # % # # > / } { { } [ [ [ } [ [ [ [ 8 # # X X X + # # k.D.S.D.D.D.D.D.D.D.D.D.D.D.D.D.D.D.D.D.D.D.",
"D.D.D.D.D.D.D.D.D.D.S.b @ $ p B a % # , ] } [ { [ [ } } [ [ } [ } g # $ a Y Y a # # *.D.D.D.D.D.D.D.D.D.D.D.D.D.D.D.D.D.D.D.D.D.",
"D.D.D.D.D.D.D.D.S.D.$.. < O.f.g.g.e.y + 3 } { { [ { [ [ [ } [ } Q + % ` g.g.f.g.( # O 8.D.S.D.D.D.D.D.D.D.D.D.D.D.D.D.D.D.D.D.D.",
"D.D.D.D.D.D.D.S.D.9.O $ <.g.a.a.a.d.y.- @ ^ } { { { } [ [ [ [ } 8 X I h.i.p.a.p.g.I @ % c.D.D.D.D.D.D.D.D.D.D.D.D.D.D.D.D.D.D.D.",
"D.D.D.D.D.D.D.D.M.- O U g.a.a.a.a.p.g.S X k  .{ } [ { { } [ } [ & $ e.s.a.a.a.a.a.g.M X 9 C.D.D.D.D.D.D.D.D.D.D.D.D.D.D.D.D.D.D.",
"D.D.D.D.D.D.D.D.v X p f.a.a.a.a.a.p.g.Y O * 2 2 2 2 2 2 2 2 2 2 $ = y.s.a.a.a.a.a.a.a.w . v D.D.D.D.D.D.D.D.D.D.D.D.D.D.D.D.D.D.",
"D.D.D.D.D.S.D.*.o - y.s.a.a.a.a.a.i.g.V @ % @ $ @ @ @ $ @ @ @ $ $ # ,.f.a.a.a.a.a.a.f.e.- o %.D.D.D.D.D.D.D.D.D.D.D.D.D.D.D.D.D.",
"D.D.D.D.D.D.k.# @ X.f.a.a.a.a.a.a.d.r.& O 7.n.z.v.c.c.c.c.v.z.m.K . a f.a.a.a.a.a.a.i.g.O.# O 5.D.S.D.D.D.D.D.D.D.D.D.D.D.D.D.D.",
"D.D.D.D.D.C.9 X S g.a.a.a.a.a.a.a.d.a . b D.D.D.D.D.D.D.D.D.D.D.B.- O I g.a.a.a.a.a.a.a.g.Y @ % c.D.D.D.D.D.D.D.D.D.D.D.D.D.D.D.",
"D.D.D.D.D.H . w a.a.a.a.a.a.a.a.g.U O - N.D.S.D.D.D.D.S.D.D.D.S.D.9.@ @ ..f.i.a.a.a.a.a.a.f.B X e S.D.D.D.D.D.D.D.D.D.D.D.D.D.D.",
"D.D.D.D.k.O & e.f.a.a.a.a.a.a.f.O.$ O 9.D.D.D.D.D.D.D.D.D.D.D.D.D.D.*.o = e.d.a.a.a.a.a.a.a.a.6 o 8.D.S.D.D.D.D.D.D.D.D.D.D.D.D.",
"D.D.S.D.%.. S g.a.a.a.a.a.a.s.u.5 o $.D.S.D.D.D.D.D.D.D.D.D.D.D.D.D.D.F . 4 u.s.a.a.a.a.a.a.f.U . #.D.D.D.D.D.D.D.D.D.D.D.D.D.D.",
"D.D.S.D.n . ..f.i.a.a.a.a.i.g.N X r S.D.D.D.D.D.D.D.D.D.D.D.D.D.D.S.D.A.e X a d.a.a.a.a.a.a.g.) . J D.D.D.D.D.D.D.D.D.D.D.D.D.D.",
"D.D.D.D.H . ( g.i.a.a.a.a.g.( @ & v.D.D.D.D.D.D.D.D.D.D.D.D.D.D.D.D.D.D.m.- O D g.a.a.a.a.i.g.S . %.D.S.D.D.D.D.D.D.D.D.D.D.D.D.",
"D.D.D.D.;.. p g.a.a.a.a.f.w.& o 3.D.S.D.D.D.D.D.D.D.D.D.D.D.D.D.D.D.D.S.D.q.# # _ g.a.a.a.g.r., O q.D.D.D.D.D.D.D.D.D.D.D.D.D.D.",
"D.D.D.D.M.- @ U f.f.f.g.y.q . G D.D.D.D.D.D.D.D.D.D.D.D.D.D.D.D.D.D.D.D.S.D.*.o % ) a.g.d.1.q X c D.D.D.D.D.D.D.D.D.D.D.D.D.D.D.",
"D.D.D.D.D.3.o @ a ` O.U < X 0 Z.D.D.D.D.D.D.D.D.D.D.D.D.D.D.D.D.D.D.D.D.D.D.D.P o O 4 z i $ . 0 N.D.D.D.D.D.D.D.D.D.D.D.D.D.D.D.",
"D.D.D.D.D.D.5.- . . o . O s N.D.D.D.D.D.D.D.D.D.D.D.D.D.D.D.D.D.D.D.D.D.D.D.D.D.>.9 O X o = L C.D.D.D.D.D.D.D.D.D.D.D.D.D.D.D.D.",
"D.D.D.D.D.D.D.N.;.m b L 9.S.D.D.D.D.D.D.D.D.D.D.D.D.D.D.D.D.D.D.D.D.D.D.D.D.D.D.D.A.k.8.q.M.D.D.D.D.D.D.D.D.D.D.D.D.D.D.D.D.D.D.",
"D.D.D.D.D.D.D.D.D.D.D.D.D.D.D.D.D.D.D.D.D.D.D.D.D.D.D.D.D.D.D.D.D.D.D.D.D.D.D.D.D.D.D.D.D.D.S.D.D.D.D.D.D.D.D.D.D.D.D.D.D.D.D.D.",
"D.D.D.D.D.D.D.D.S.D.D.D.D.D.D.D.D.D.D.D.D.D.D.D.D.D.D.D.D.D.D.D.D.D.D.D.D.D.D.D.D.D.S.D.D.D.D.D.D.D.D.D.D.D.D.D.D.D.D.D.D.D.D.D.",
"D.D.D.D.D.D.D.D.D.D.D.D.D.D.D.D.D.D.D.D.D.D.D.D.D.D.D.D.D.D.D.D.D.D.D.D.D.D.D.D.D.D.D.D.D.D.D.D.D.D.D.D.D.D.D.D.D.D.D.D.D.D.D.D.",
"D.D.D.D.D.D.D.D.D.D.D.D.D.D.D.D.D.D.D.D.D.D.D.D.D.D.D.D.D.D.D.D.D.D.D.D.D.D.D.D.D.D.D.D.D.D.D.D.D.D.D.D.D.D.D.D.D.D.D.D.D.D.D.D.",
"D.D.D.D.D.D.D.D.D.D.D.D.D.D.D.D.D.D.D.D.D.D.D.D.D.D.D.D.D.D.D.D.D.D.D.D.D.D.D.D.D.D.D.D.D.D.D.D.D.D.D.D.D.D.D.D.D.D.D.D.D.D.D.D.",
"D.D.D.D.D.D.D.D.D.D.D.D.D.D.D.D.D.D.D.D.D.D.D.D.D.D.D.D.D.D.D.D.D.D.D.D.D.D.D.D.D.D.D.D.D.D.D.D.D.D.D.D.D.D.D.D.D.D.D.D.D.D.D.D.",
"D.D.D.D.D.D.D.D.D.D.D.D.D.D.D.D.D.D.D.D.D.D.D.D.D.D.D.D.D.D.D.D.D.D.D.D.D.D.D.D.D.D.D.D.D.D.D.D.D.D.D.D.D.D.D.D.D.D.D.D.D.D.D.D.",
"D.D.D.D.D.D.D.D.D.D.D.D.D.D.D.D.D.D.D.D.D.D.D.D.D.D.D.D.D.D.D.D.D.D.D.D.D.D.D.D.D.D.D.D.D.D.D.D.D.D.D.D.D.D.D.D.D.D.D.D.D.D.D.D.",
"D.D.D.D.D.D.D.D.D.D.D.D.D.D.D.D.D.D.D.D.D.D.D.D.D.D.D.D.D.D.D.D.D.D.D.D.D.D.D.D.D.D.D.D.D.D.D.D.D.D.D.D.D.D.D.D.D.D.D.D.D.D.D.D.",
"D.D.D.D.D.D.D.D.D.D.D.D.D.D.D.D.D.D.D.D.D.D.D.D.D.D.D.D.D.D.D.D.D.D.D.D.D.D.D.D.D.D.D.D.D.D.D.D.D.D.D.D.D.D.D.D.D.D.D.D.D.D.D.D.",
"D.D.D.D.D.D.D.D.D.D.D.D.D.D.D.D.D.D.D.D.D.D.D.D.D.D.D.D.D.D.D.D.D.D.D.D.D.D.D.D.D.D.D.D.D.D.D.D.D.D.D.D.D.D.D.D.D.D.D.D.D.D.D.D.",
"D.D.D.D.D.D.D.D.D.D.D.D.D.D.D.D.D.D.D.D.D.D.D.D.D.D.D.D.D.D.D.D.D.D.D.D.D.D.D.D.D.D.D.D.D.D.D.D.D.D.D.D.D.D.D.D.D.D.D.D.D.D.D.D.",
"D.D.D.D.D.D.D.D.D.D.D.D.D.D.D.D.D.D.D.D.D.D.D.D.D.D.D.D.D.D.D.D.D.D.D.D.D.D.D.D.D.D.D.D.D.D.D.D.D.D.D.D.D.D.D.D.D.D.D.D.D.D.D.D."
};
