/* XPM */
static char *player__18_1710156992[] = {
/* columns rows colors chars-per-pixel */
"64 64 153 2 ",
"   c #00025B",
".  c #001564",
"X  c #001B65",
"o  c #001768",
"O  c #001C6A",
"+  c #002166",
"@  c #00236D",
"#  c #012571",
"$  c #042974",
"%  c #0A2D77",
"&  c #0C2E7A",
"*  c #0C3077",
"=  c #0E317A",
"-  c #12327C",
";  c #19367E",
":  c #1A387F",
">  c #0D2E81",
",  c #133284",
"<  c #193681",
"1  c #1D3A83",
"2  c #16348A",
"3  c #19368D",
"4  c #1A398C",
"5  c #1E3A94",
"6  c #213D83",
"7  c #243C89",
"8  c #283F8F",
"9  c #203C94",
"0  c #253D9D",
"q  c #263DA0",
"w  c #283FA1",
"e  c #244385",
"r  c #284587",
"t  c #2B438D",
"y  c #2E4A8A",
"u  c #334E8D",
"i  c #2C4291",
"p  c #324694",
"a  c #354896",
"s  c #394A97",
"d  c #3D4D9B",
"f  c #375290",
"g  c #3A5491",
"h  c #2A41A3",
"j  c #2E43A9",
"k  c #3245AD",
"l  c #3547B2",
"z  c #3648B2",
"x  c #3D4BBD",
"c  c #424E9E",
"v  c #415B96",
"b  c #42509E",
"n  c #455F98",
"m  c #485F98",
"M  c #476099",
"N  c #4D649B",
"B  c #50669D",
"V  c #53689D",
"C  c #4551A1",
"Z  c #4C55A5",
"A  c #5359AA",
"S  c #595EAF",
"D  c #5D5FB2",
"F  c #556CA0",
"G  c #5C72A4",
"H  c #5E61B1",
"J  c #6577A7",
"K  c #6377A8",
"L  c #667BAA",
"P  c #697CAB",
"I  c #6263B6",
"U  c #6766B8",
"Y  c #6867B9",
"T  c #6D6ABD",
"R  c #716CBF",
"E  c #404DC0",
"W  c #444FC8",
"Q  c #4550C8",
"!  c #4952CE",
"~  c #4E55D4",
"^  c #5156D8",
"/  c #5659DE",
"(  c #736EC1",
")  c #7A71C5",
"_  c #7E74C9",
"`  c #595CE3",
"'  c #5D5DE8",
"]  c #5F60EA",
"[  c #6260EF",
"{  c #6663F5",
"}  c #6864F7",
"|  c #6B66FB",
" . c #6F68FF",
".. c #7169FF",
"X. c #8276CB",
"o. c #8578CE",
"O. c #8B7CD2",
"+. c #907FD5",
"@. c #6B80AD",
"#. c #7082AF",
"$. c #7585B0",
"%. c #7C8DB6",
"&. c #7C8FB8",
"*. c #7F90B7",
"=. c #7F91B9",
"-. c #8293BA",
";. c #8798BD",
":. c #8A99BE",
">. c #8D9DC1",
",. c #9280D7",
"<. c #9582D8",
"1. c #9B85DC",
"2. c #94A3C4",
"3. c #98A6C7",
"4. c #9DABC9",
"5. c #A1AECB",
"6. c #A5B2CD",
"7. c #AAB5CF",
"8. c #AAB5D0",
"9. c #AEB8D2",
"0. c #B2BDD4",
"q. c #A48BE3",
"w. c #A98EE6",
"e. c #AB8FE8",
"r. c #AF92EB",
"t. c #B395EE",
"y. c #B697F0",
"u. c #B897F1",
"i. c #BB9AF4",
"p. c #C09DF7",
"a. c #C39EF9",
"s. c #C6A0FB",
"d. c #CAA3FE",
"f. c #D0A6FF",
"g. c #BBC3D9",
"h. c #C2CADD",
"j. c #C7CFE0",
"k. c #C8CFE0",
"l. c #CBD2E2",
"z. c #D1D7E5",
"x. c #D3DAE7",
"c. c #D7DCE8",
"v. c #D8DDE9",
"b. c #DDE2EC",
"n. c #E1E5EF",
"m. c #E3E7F0",
"M. c #E5E9F1",
"N. c #EAEDF3",
"B. c #EEF1F6",
"V. c #F0F2F7",
"C. c #F4F6F9",
"Z. c #F6F8FB",
"A. c #FFFFFF",
/* pixels */
"A.A.A.A.A.A.A.A.A.A.A.A.A.A.A.A.A.A.A.A.A.A.A.A.A.A.A.A.A.A.A.A.A.A.A.A.A.A.A.A.A.A.A.A.A.A.A.A.A.A.A.A.A.A.A.A.A.A.A.A.A.A.A.A.",
"A.A.A.A.A.A.A.A.A.A.A.A.A.A.A.A.A.A.A.A.A.A.A.A.A.A.A.A.A.A.A.A.A.A.A.A.A.A.A.A.A.A.A.A.A.A.A.A.A.A.A.A.A.A.A.A.A.A.A.A.A.A.A.A.",
"A.A.A.A.A.A.A.A.A.A.A.A.A.A.A.A.A.A.A.A.A.A.A.A.A.A.A.A.A.A.A.A.A.A.A.Z.A.Z.A.A.A.A.A.A.A.A.A.A.A.A.A.A.A.A.A.A.A.A.A.A.A.A.A.A.",
"A.A.A.A.A.A.A.A.A.A.A.A.A.A.A.A.A.A.A.A.A.A.A.A.A.A.A.A.A.A.A.A.A.A.A.A.A.A.A.A.A.A.A.A.A.A.A.A.A.A.A.A.A.A.A.A.A.A.A.A.A.A.A.A.",
"A.A.A.A.A.A.A.A.A.A.A.A.A.A.A.A.A.A.A.A.A.A.A.A.A.A.A.A.A.A.A.A.A.A.C.9.-.&.4.n.A.A.A.A.A.A.A.A.A.A.A.A.A.A.A.A.A.A.A.A.A.A.A.A.",
"A.A.A.A.A.A.A.A.A.A.A.A.A.A.A.A.A.A.A.A.A.A.A.A.A.A.A.A.A.A.A.A.A.g.r O . . . - -.A.A.A.A.A.A.A.A.A.A.A.A.A.A.A.A.A.A.A.A.A.A.A.",
"A.A.A.A.A.A.A.A.A.A.A.A.A.A.A.A.A.A.A.A.A.A.A.A.A.A.A.A.A.A.A.A.9.@ X 7 A D s @ o L A.A.A.A.A.A.A.A.A.A.A.A.A.A.A.A.A.A.A.A.A.A.",
"A.A.A.A.A.A.A.A.A.A.A.A.A.A.A.A.A.A.A.A.A.A.A.A.A.A.A.A.A.A.A.M.: O A i.d.d.s.X.% X L A.A.A.A.A.A.A.A.A.A.A.A.A.A.A.A.A.A.A.A.A.",
"A.A.A.A.A.A.A.A.A.A.A.A.A.A.A.A.A.A.A.A.A.A.A.A.A.A.A.A.A.Z.A.>.X p p.i.i.i.u.d.O.$ o P A.A.A.A.A.A.A.A.A.A.A.A.A.A.A.A.A.A.A.A.",
"A.A.A.A.A.A.A.A.A.A.A.A.A.A.A.A.A.A.A.A.A.A.A.A.A.A.A.A.A.A.A.G . ( d.i.i.i.i.u.d.O.% o #.A.A.A.A.A.A.A.A.A.A.A.A.A.A.A.A.A.A.A.",
"A.A.A.A.A.A.A.A.A.A.A.A.A.A.A.A.A.A.A.A.A.A.A.A.A.A.A.A.A.A.A.B . o.s.i.p.i.i.i.u.d.o.$ o *.A.A.A.A.A.A.A.A.A.A.A.A.A.A.A.A.A.A.",
"A.A.A.A.A.A.A.A.A.A.A.A.A.A.A.A.A.A.A.A.A.A.A.A.A.A.A.A.A.A.A.L . Y d.t.i.i.i.i.i.u.d._ # # h.A.A.Z.Z.A.Z.A.A.A.A.A.A.A.A.A.A.A.",
"A.A.A.A.A.A.A.A.A.A.A.A.A.A.A.A.A.A.A.A.A.A.A.A.A.A.A.A.A.Z.A.6.o < t.p.u.i.i.i.i.i.t.d.H . P A.A.A.A.A.A.A.A.A.A.A.A.A.A.A.A.A.",
"A.A.A.A.A.A.A.A.A.A.A.A.A.A.A.A.A.A.A.A.A.A.A.A.A.A.A.A.A.A.A.A.g X p i.p.i.i.i.u.i.a.s.T @ e -.;.2.4.4.0.b.A.A.A.A.A.A.A.A.A.A.",
"A.A.A.A.A.A.A.A.A.4.V B.A.A.A.A.A.A.A.A.A.A.A.A.A.A.A.A.A.A.A.A.b.1 X a i.i.i.a.s.f.<.7 @ @ @ . . . . X O % G N.A.A.A.A.A.A.A.A.",
"A.A.A.A.A.A.A.A.A.N   >.A.A.A.A.A.A.A.A.A.A.A.A.A.A.A.A.A.A.A.A.A.c.: X a i.a.<.X.T * + , j z z k j h h 5 $ X r n.A.A.A.A.A.A.A.",
"A.A.A.A.A.A.A.A.A.6.o g A.A.A.Z.A.A.A.A.A.A.A.A.A.A.A.A.A.A.A.A.Z.A.x.: O p p @ + # @ h {  . ..... . . . ./ 4 o M A.A.A.A.A.A.A.",
"A.A.A.A.A.A.A.A.A.B.1 O h.A.A.A.A.A.A.A.A.A.A.A.A.A.A.A.A.A.A.A.A.Z.A.x.; @ O < 6 # 2 | | { { { { { { { {  .` = O g.A.A.A.A.A.A.",
"A.A.A.A.A.A.A.A.Z.A.&.. B >.;.g.A.A.A.A.A.A.A.A.A.A.A.A.A.A.A.A.A.A.A.l.% # A a.A + x  .{ } } } } } } } } { ..k X =.A.Z.A.A.A.A.",
"A.A.A.A.A.A.A.A.A.A.@.# @ . . O u g.A.A.A.A.A.A.A.A.A.A.A.A.A.A.A.A.A.M . A d.d.c + Q  .{ } } } } } } } { {  .E . L A.A.A.A.A.A.",
"A.A.A.A.A.A.A.A.A.K o # t H A < o # 0.A.A.A.A.A.A.A.A.A.A.A.A.A.A.A.l.# % e.i.s.A X z ..{ } } } } } { } } {  .l . %.A.A.A.A.A.A.",
"A.A.A.A.A.A.Z.A.6.o % _ s.d.s.i.A O : N.A.A.A.A.A.A.A.A.A.A.A.A.Z.A.J . A d.y.s.O.+ & ' ..{ { { } { { { {  .[ , O 0.A.Z.A.A.A.A.",
"A.A.A.A.A.A.A.A.g X T f.u.i.i.i.s.i . ;.A.Z.A.A.A.A.A.A.A.A.A.A.A.b.& # 1.a.i.i.a.a + 2 ^ | }  . ..... . .' 5 X f A.A.A.A.A.A.A.",
"A.A.A.A.A.A.A.b.% = t.i.i.i.i.i.s.X.O u Z.A.A.A.A.A.A.A.A.A.A.A.A.-.. d a.i.i.i.p.r.7 O # 3 0 0 0 h j k h % X : c.A.A.A.A.A.A.A.",
"A.A.A.A.A.A.A.l.@ 1 i.i.i.i.i.i.i.u.1 O g.A.Z.A.A.A.A.A.A.A.A.A.N.1 @ O.s.i.i.i.i.a.y.Z # @ O X X . . . X # n v.A.A.A.A.A.A.A.A.",
"A.A.A.A.A.A.A.n.= % e.a.i.i.i.p.i.d.I . V A.A.A.A.A.A.A.A.A.Z.A.3.. i i.i.i.i.i.i.u.d.( O g g.8.6.4.3.>.3.h.A.A.Z.A.A.A.A.A.A.A.",
"A.A.A.A.A.A.A.A.M . T d.i.i.i.i.i.i.q.% % c.A.Z.A.A.A.A.A.A.A.Z.u X ) d.i.p.i.i.i.i.y.1 O 0.A.A.A.A.A.A.A.A.A.A.A.A.A.A.A.A.A.A.",
"A.A.A.A.A.A.A.A.6.o t i.i.i.i.i.i.i.s.b . =.A.A.A.A.A.A.A.A.A.9.o 1 u.i.i.i.i.i.u.s.) o f A.A.Z.A.Z.Z.A.Z.A.A.A.A.A.A.A.A.A.A.A.",
"A.A.A.A.A.A.A.A.V.6 O O.d.i.i.i.i.i.d.O.O y C.A.Z.Z.Z.Z.Z.Z.A.G . U d.i.i.i.i.i.i.p.t . 2.A.A.A.A.A.A.A.A.A.A.A.A.A.A.A.A.A.A.A.",
"A.A.A.A.A.A.A.Z.A.%.. C s.i.i.i.i.i.i.r.- $ e r r r e e r r r & @ O.a.i.i.i.i.i.s.o.+ 6 B.A.A.A.A.A.A.A.A.A.A.A.A.A.A.A.A.A.A.A.",
"A.A.A.A.A.A.A.A.A.x.$ % q.s.i.i.i.i.i.t., # # # # # # # # # # $ # ,.s.i.i.i.i.i.a.c . -.A.Z.A.A.A.A.A.A.A.A.A.A.A.A.A.A.A.A.A.A.",
"A.A.A.A.A.A.A.A.A.A.B . I d.t.i.i.y.d.+.@ , ` ` ` ` ` ` ` ` ' w X H d.t.i.i.y.s.1.# * b.A.A.A.A.A.A.A.A.A.A.A.A.A.A.A.A.A.A.A.A.",
"A.A.A.A.A.A.A.A.A.A.0.O & 1.f.p.a.d.y.t + l ..|  .| |  . .} ..~ @ = <.d.s.d.d.i.p . L A.A.A.A.A.A.A.A.A.A.A.A.A.A.A.A.A.A.A.A.A.",
"A.A.A.A.A.A.A.A.A.A.A.F o - T q.q._ 7 @ , { } { { { { } { { {  .0 + = T o.T ( t @ 6 b.A.A.A.A.A.A.A.A.A.A.A.A.A.A.A.A.A.A.A.A.A.",
"A.A.A.A.A.A.A.A.A.A.A.C.r # + @ # @ # , ' } } } } } } } } } { } { 0 # # + X . # O 3.A.Z.A.A.A.A.A.A.A.A.A.A.A.A.A.A.A.A.A.A.A.A.",
"A.A.A.A.A.A.A.A.A.Z.A.#.# # 7 c s % @ 2 ' } { } } } } } } } { {  .k # # t A C ; @ - h.A.Z.A.A.A.A.A.A.A.A.A.A.A.A.A.A.A.A.A.A.A.",
"A.A.A.A.A.A.A.A.A.A.4.o $ ( p.s.s.q.i + 3 } } } } } } } } } {  .W @ $ _ a.s.d.t.C X 1 N.A.A.A.A.A.A.A.A.A.A.A.A.A.A.A.A.A.A.A.A.",
"A.A.A.A.A.A.A.A.A.n.< + R d.i.i.i.a.y.< + !  .} } | | } } { }  .3 O ( f.i.u.y.a.a.i X G A.A.A.A.A.A.A.A.A.A.A.A.A.A.A.A.A.A.A.A.",
"A.A.A.A.A.A.A.A.A.G . s s.i.i.i.i.u.d.I X j } { { { { { { { } ` # - y.i.i.i.i.u.a.q.& O 4.A.Z.A.A.A.A.A.A.A.A.A.A.A.A.A.A.A.A.A.",
"A.A.A.A.A.A.Z.A.9.O % q.s.i.i.i.i.i.a.) @ & > > & > > > > > > & # 7 i.i.i.i.i.i.y.d.( + - b.A.A.A.A.A.A.A.A.A.A.A.A.A.A.A.A.A.A.",
"A.A.A.A.A.A.A.B.e o Y d.i.i.i.i.i.i.d.Y @ % * * % * * * * * * * # - r.i.i.i.i.i.i.i.a.d X n A.A.A.A.A.A.A.A.A.A.A.A.A.A.A.A.A.A.",
"A.A.A.A.A.A.A.@.. t i.i.i.i.i.i.i.i.i.7 o 2.V.b.n.n.n.n.n.n.n.M.g O Y d.i.i.i.i.i.i.p.e., o :.A.A.A.A.A.A.A.A.A.A.A.A.A.A.A.A.A.",
"A.A.A.A.A.A.h.# # <.a.i.i.i.p.i.i.d.I o y Z.A.A.A.A.A.A.A.A.A.A.7.o = 1.s.i.i.i.i.i.i.d._ + % l.A.A.A.A.A.A.A.A.A.A.A.A.A.A.A.A.",
"A.A.A.A.A.Z.u . S d.i.i.i.i.i.i.a.1.% O 0.A.Z.A.A.A.A.A.A.A.A.Z.A.K X i i.i.i.i.i.i.i.u.d.Z X g Z.A.A.A.A.A.A.A.A.A.A.A.A.A.A.A.",
"A.A.A.Z.A.;.. 7 t.p.i.i.i.i.i.i.p.p . K A.A.A.A.A.A.A.A.A.A.A.A.A.N.6 O I d.i.i.i.i.p.i.p.t.1 o 2.A.A.A.A.A.A.A.A.A.A.A.A.A.A.A.",
"A.A.A.A.C.r O X.d.u.i.i.i.i.t.d.R O 1 N.A.A.A.A.A.A.A.A.A.A.A.A.A.A.0.@ # ,.s.u.i.i.i.i.u.d.) o g A.A.A.A.A.A.A.A.A.A.A.A.A.A.A.",
"A.A.A.A.x.# < y.p.i.i.i.i.i.a.e.- O 5.A.Z.A.A.A.A.A.A.A.A.A.A.A.A.Z.A.#.X 7 u.i.i.i.i.i.i.p.q.# 1 V.A.A.A.A.A.A.A.A.A.A.A.A.A.A.",
"A.A.A.A.l.# 1 i.i.p.i.i.i.i.a.c X N A.A.A.A.A.A.A.A.A.A.A.A.A.A.A.A.A.Z.y X A d.i.i.i.i.i.p.q.# 6 C.A.A.A.A.A.A.A.A.A.A.A.A.A.A.",
"A.A.A.A.N.- $ q.a.i.i.i.u.d._ @ - b.A.A.A.A.A.A.A.A.A.A.A.A.A.A.A.A.A.A.j.# @ o.d.y.i.i.t.d.( X M A.A.A.A.A.A.A.A.A.A.A.A.A.A.A.",
"A.A.A.A.A.N . Z d.a.i.i.d.e.< o >.A.Z.A.A.A.A.A.A.A.A.A.A.A.A.A.A.A.A.Z.A.-.o < q.d.a.a.d.q.< o 4.A.Z.A.A.A.A.A.A.A.A.A.A.A.A.A.",
"A.A.A.A.A.j.# @ Z q.i.y.+.7 . v A.A.A.A.A.A.A.A.A.A.A.A.A.A.A.A.A.A.A.A.A.A.n . < T 1.1.T : . n A.A.A.A.A.A.A.A.A.A.A.A.A.A.A.A.",
"A.A.A.A.A.A.5.$ . % 7 1 @ . y m.A.A.A.A.A.A.A.A.A.A.A.A.A.A.A.A.A.A.A.A.A.A.N.g o . @ @ . o M B.A.A.A.A.A.A.A.A.A.A.A.A.A.A.A.A.",
"A.A.A.A.A.A.A.l.B = @ # 6 %.B.A.A.A.A.A.A.A.A.A.A.A.A.A.A.A.A.A.A.A.A.A.A.A.A.A.4.B y r N 6.A.A.A.A.A.A.A.A.A.A.A.A.A.A.A.A.A.A.",
"A.A.A.A.A.A.Z.A.A.n.l.z.C.A.A.A.A.A.A.A.A.A.A.A.A.A.A.A.A.A.A.A.A.A.A.A.A.A.A.A.A.A.A.Z.A.A.A.A.A.A.A.A.A.A.A.A.A.A.A.A.A.A.A.A.",
"A.A.A.A.A.A.A.A.A.A.A.A.A.Z.A.A.A.A.A.A.A.A.A.A.A.A.A.A.A.A.A.A.A.A.A.A.A.A.A.A.Z.A.A.A.A.A.A.A.A.A.A.A.A.A.A.A.A.A.A.A.A.A.A.A.",
"A.A.A.A.A.A.A.A.A.A.A.A.A.A.A.A.A.A.A.A.A.A.A.A.A.A.A.A.A.A.A.A.A.A.A.A.A.A.A.A.A.A.A.A.A.A.A.A.A.A.A.A.A.A.A.A.A.A.A.A.A.A.A.A.",
"A.A.A.A.A.A.A.A.A.A.A.A.A.A.A.A.A.A.A.A.A.A.A.A.A.A.A.A.A.A.A.A.A.A.A.A.A.A.A.A.A.A.A.A.A.A.A.A.A.A.A.A.A.A.A.A.A.A.A.A.A.A.A.A.",
"A.A.A.A.A.A.A.A.A.A.A.A.A.A.A.A.A.A.A.A.A.A.A.A.A.A.A.A.A.A.A.A.A.A.A.A.A.A.A.A.A.A.A.A.A.A.A.A.A.A.A.A.A.A.A.A.A.A.A.A.A.A.A.A.",
"A.A.A.A.A.A.A.A.A.A.A.A.A.A.A.A.A.A.A.A.A.A.A.A.A.A.A.A.A.A.A.A.A.A.A.A.A.A.A.A.A.A.A.A.A.A.A.A.A.A.A.A.A.A.A.A.A.A.A.A.A.A.A.A.",
"A.A.A.A.A.A.A.A.A.A.A.A.A.A.A.A.A.A.A.A.A.A.A.A.A.A.A.A.A.A.A.A.A.A.A.A.A.A.A.A.A.A.A.A.A.A.A.A.A.A.A.A.A.A.A.A.A.A.A.A.A.A.A.A.",
"A.A.A.A.A.A.A.A.A.A.A.A.A.A.A.A.A.A.A.A.A.A.A.A.A.A.A.A.A.A.A.A.A.A.A.A.A.A.A.A.A.A.A.A.A.A.A.A.A.A.A.A.A.A.A.A.A.A.A.A.A.A.A.A.",
"A.A.A.A.A.A.A.A.A.A.A.A.A.A.A.A.A.A.A.A.A.A.A.A.A.A.A.A.A.A.A.A.A.A.A.A.A.A.A.A.A.A.A.A.A.A.A.A.A.A.A.A.A.A.A.A.A.A.A.A.A.A.A.A.",
"A.A.A.A.A.A.A.A.A.A.A.A.A.A.A.A.A.A.A.A.A.A.A.A.A.A.A.A.A.A.A.A.A.A.A.A.A.A.A.A.A.A.A.A.A.A.A.A.A.A.A.A.A.A.A.A.A.A.A.A.A.A.A.A.",
"A.A.A.A.A.A.A.A.A.A.A.A.A.A.A.A.A.A.A.A.A.A.A.A.A.A.A.A.A.A.A.A.A.A.A.A.A.A.A.A.A.A.A.A.A.A.A.A.A.A.A.A.A.A.A.A.A.A.A.A.A.A.A.A."
};
