/* XPM */
static char *player__19_1710156992[] = {
/* columns rows colors chars-per-pixel */
"64 64 154 2 ",
"   c #00055D",
".  c #001564",
"X  c #001B66",
"o  c #001668",
"O  c #001C6A",
"+  c #002266",
"@  c #00226D",
"#  c #012572",
"$  c #052A74",
"%  c #0A2C77",
"&  c #072C79",
"*  c #0B2E79",
"=  c #102F7C",
"-  c #0F317A",
";  c #13327D",
":  c #19377E",
">  c #16387E",
",  c #193B7F",
"<  c #0E2E81",
"1  c #143382",
"2  c #1A3682",
"3  c #1D3A82",
"4  c #163489",
"5  c #1C3792",
"6  c #1C3992",
"7  c #213D83",
"8  c #243D89",
"9  c #283E8E",
"0  c #223C97",
"q  c #253F9B",
"w  c #273EA1",
"e  c #244285",
"r  c #2A4486",
"t  c #27408C",
"y  c #2B438C",
"u  c #2D498A",
"i  c #324D8C",
"p  c #35508E",
"a  c #2E4291",
"s  c #27409F",
"d  c #324693",
"f  c #374996",
"g  c #394997",
"h  c #374898",
"j  c #3B4B9A",
"k  c #365290",
"l  c #3C5592",
"z  c #3F5A94",
"x  c #2B40A4",
"c  c #3143AD",
"v  c #3545B3",
"b  c #3C4ABC",
"n  c #424E9E",
"m  c #435B96",
"M  c #43509E",
"N  c #465F98",
"B  c #485F99",
"V  c #4C649B",
"C  c #51679D",
"Z  c #51689E",
"A  c #4652A1",
"S  c #4B54A4",
"D  c #4F58A7",
"F  c #5057A7",
"G  c #535AAA",
"H  c #595EAE",
"J  c #5B5FB0",
"K  c #566DA1",
"L  c #586EA2",
"P  c #5C72A5",
"I  c #5E60B2",
"U  c #6276A7",
"Y  c #6579A9",
"T  c #697CAB",
"R  c #6465B6",
"E  c #6766B9",
"W  c #6D6ABC",
"Q  c #716CBF",
"!  c #424EC3",
"~  c #4852CC",
"^  c #4F56D6",
"/  c #5257DA",
"(  c #5559DC",
")  c #756EC2",
"_  c #7B72C6",
"`  c #7E74C9",
"'  c #575AE1",
"]  c #5B5DE5",
"[  c #5E5EE9",
"{  c #6160ED",
"}  c #6663F5",
"|  c #6864F7",
" . c #6B66FB",
".. c #6E68FF",
"X. c #7169FF",
"o. c #8276CB",
"O. c #8578CD",
"+. c #8C7CD2",
"@. c #907FD5",
"#. c #6E81AF",
"$. c #7183AF",
"%. c #7587B2",
"&. c #7688B3",
"*. c #7B8BB5",
"=. c #7F91B8",
"-. c #8595BB",
";. c #8897BC",
":. c #8A9ABE",
">. c #8E9DC0",
",. c #9380D7",
"<. c #9582D8",
"1. c #9C86DD",
"2. c #9F88DF",
"3. c #94A3C4",
"4. c #9AA7C7",
"5. c #9BA8C7",
"6. c #9DABC9",
"7. c #A2AFCC",
"8. c #A5B1CD",
"9. c #A9B4CF",
"0. c #AAB6D0",
"q. c #AFBAD2",
"w. c #B4BED6",
"e. c #A38AE2",
"r. c #A98EE6",
"t. c #AD91EA",
"y. c #B394EE",
"u. c #B797F0",
"i. c #B897F1",
"p. c #BB9AF4",
"a. c #C09DF7",
"s. c #C39EF9",
"d. c #C6A0FB",
"f. c #CAA3FE",
"g. c #D0A6FF",
"h. c #D7ABFF",
"j. c #B6C1D6",
"k. c #BDC6DA",
"l. c #C4CCDE",
"z. c #C9CFE1",
"x. c #CBD2E2",
"c. c #D1D7E5",
"v. c #D3D9E7",
"b. c #D7DDE9",
"n. c #D9DEEA",
"m. c #DDE2EC",
"M. c #E2E6EF",
"N. c #E5E8F0",
"B. c #EBEEF4",
"V. c #EEF1F6",
"C. c #F0F3F7",
"Z. c #F4F6F9",
"A. c #F7F8FB",
"S. c #FFFFFF",
/* pixels */
"S.S.S.S.S.S.S.S.S.S.S.S.S.S.S.S.S.S.S.S.S.S.S.S.S.S.S.S.S.S.S.S.S.S.S.S.S.S.S.S.S.S.S.S.S.S.S.S.S.S.S.S.S.S.S.S.S.S.S.S.S.S.S.S.",
"S.S.S.S.S.S.S.S.S.S.S.S.S.S.S.S.S.S.S.S.S.S.S.S.S.S.S.S.S.S.S.S.S.S.S.S.S.S.S.S.S.S.S.S.S.S.S.S.S.S.S.S.S.S.S.S.S.S.S.S.S.S.S.S.",
"S.S.S.S.S.S.S.S.S.S.S.S.S.S.S.S.S.S.S.S.S.S.S.S.S.S.S.S.S.S.S.S.S.S.S.S.A.S.S.S.S.S.S.S.S.S.S.S.S.S.S.S.S.S.S.S.S.S.S.S.S.S.S.S.",
"S.S.S.S.S.S.S.S.S.S.S.S.S.S.S.S.S.S.S.S.S.S.S.S.S.S.S.S.S.S.S.S.S.S.S.S.S.S.S.S.S.S.S.S.S.S.S.S.S.S.S.S.S.S.S.S.S.S.S.S.S.S.S.S.",
"S.S.S.S.S.S.S.S.S.S.S.S.S.S.S.S.S.S.S.S.S.S.S.S.S.S.S.S.S.S.S.S.A.S.S.N.l.k.m.S.S.S.S.S.S.S.S.S.S.S.S.S.S.S.S.S.S.S.S.S.S.S.S.S.",
"S.S.S.S.S.S.S.S.S.S.S.S.S.S.S.S.S.S.S.S.S.S.S.S.S.S.S.S.S.S.S.A.S.N.P - O O % V x.S.A.S.S.S.S.S.S.S.S.S.S.S.S.S.S.S.S.S.S.S.S.S.",
"S.S.S.S.S.S.S.S.S.S.S.S.S.S.S.S.S.S.S.S.S.S.S.S.S.S.S.S.S.S.S.S.n.7 . $ y a * X # 9.S.S.S.S.S.S.S.S.S.S.S.S.S.S.S.S.S.S.S.S.S.S.",
"S.S.S.S.S.S.S.S.S.S.S.S.S.S.S.S.S.S.S.S.S.S.S.S.S.S.S.S.S.S.S.A.i X a e.p.p.t.S @ # k.S.A.S.S.S.S.S.S.S.S.S.S.S.S.S.S.S.S.S.S.S.",
"S.S.S.S.S.S.S.S.S.S.S.S.S.S.S.S.S.S.S.S.S.S.S.S.S.S.S.S.S.A.S.5.. 8 y.f.p.p.d.f.S @ ; c.S.A.S.S.S.S.S.S.S.S.S.S.S.S.S.S.S.S.S.S.",
"S.S.S.S.S.S.S.S.S.S.S.S.S.S.S.S.S.S.S.S.S.S.S.S.S.S.S.S.S.S.S.P . W f.u.p.p.p.p.s.j X 7 m.S.S.S.S.S.S.S.S.S.S.S.S.S.S.S.S.S.S.S.",
"S.S.S.S.S.S.S.S.S.S.S.S.S.S.S.S.S.S.S.S.S.S.S.S.S.S.S.S.S.S.S.N X +.s.p.p.p.p.p.p.p.d X u B.S.S.S.S.S.S.S.S.S.S.S.S.S.S.S.S.S.S.",
"S.S.S.S.S.S.S.S.S.S.S.S.S.S.S.S.S.S.S.S.S.S.S.S.S.S.S.S.S.S.S.V . _ f.i.p.p.p.p.p.s.y.8 . K S.S.S.S.S.S.S.S.S.S.S.S.S.S.S.S.S.S.",
"S.S.S.S.S.S.S.S.S.S.S.S.S.S.S.S.S.S.S.S.S.S.S.S.S.S.S.S.S.S.S.-.. g d.u.p.p.p.p.p.i.s.e.* O l.S.S.S.S.S.S.A.S.S.S.S.S.S.S.S.S.S.",
"S.S.S.S.S.S.S.S.S.S.S.S.S.S.S.S.S.S.S.S.S.S.S.S.S.S.S.S.S.S.S.M.> @ R f.p.p.p.p.p.p.p.h.I . &.S.B.Z.Z.A.S.S.S.S.S.S.S.S.S.S.S.S.",
"S.S.S.S.S.S.S.S.S.S.S.S.S.S.S.S.S.S.S.S.S.S.S.S.S.S.S.S.S.S.A.S.7.O # ) f.u.p.u.i.s.i.E 3 # % 2 , 3 , e p %.M.S.S.S.S.S.S.S.S.S.",
"S.S.S.S.S.S.S.A.S.-.r M.S.S.S.S.S.S.S.S.S.S.S.S.S.S.S.S.S.S.S.S.S.;.o $ O.f.d.f.f.r.8 X @ * & $ $ # # # O . > k.S.A.S.S.S.S.S.S.",
"S.S.S.S.S.S.S.S.S.K   =.S.A.S.S.S.S.S.S.S.S.S.S.S.S.S.S.S.S.S.S.S.S.%.o % ,.,.G S 3 @ 4 ~ [ [ [ [ [ ] ] ^ 0 @ % c.S.A.S.S.S.S.S.",
"S.S.S.S.S.S.S.A.S.j.O u A.S.A.S.S.S.S.S.S.S.S.S.S.S.S.S.S.S.S.S.S.S.S.U @ * @ X @ @ 1 { X.|  . . . . . ... .q X N S.S.S.S.S.S.S.",
"S.S.S.S.S.S.S.S.S.A.u o w.S.S.S.S.S.S.S.S.S.S.S.S.S.S.S.S.S.S.S.S.A.S.m.* @ ; H 2 @ ~ X.} } | | | | } } } ..[ * % b.S.S.S.S.S.S.",
"S.S.S.S.S.S.S.S.A.S.>.. k U P 3.N.S.S.S.S.S.S.S.S.S.S.S.S.S.S.S.S.S.S.P o y t.a.; & [ | | } | | | | | | | } | 6 O w.S.S.S.S.S.S.",
"S.S.S.S.S.S.S.S.S.V.Z # O . . . > 3.S.S.S.S.S.S.S.S.S.S.S.S.S.S.S.S.v.$ $ 2.f.t.1 $ ] | } | | | | | | | | } | 6 O j.S.A.S.S.S.S.",
"S.S.S.S.S.S.S.S.S.m . * S _ ) f @ o >.S.S.S.S.S.S.S.S.S.S.S.S.S.A.S.*.. M f.i.a.a O ! X.} } } } } } | | }  .[ $ % n.S.S.S.S.S.S.",
"S.S.S.S.S.S.A.S.:.X 2 1.f.f.f.f.E @ % n.S.S.S.S.S.S.S.S.S.S.S.S.S.B.7 @ +.d.u.f.Q @ 1 ' X... ... . ... ...| s X V S.S.S.S.S.S.S.",
"S.S.S.S.S.S.S.S.u X o.f.y.p.p.p.f.M . &.S.A.S.S.S.S.S.S.S.S.S.A.S.7.. y a.p.p.p.p.h O * v ^ ( ( ( ' ( ( ~ 6 O ; b.S.S.S.S.S.S.S.",
"S.S.S.S.S.S.S.n.$ 1 y.p.p.p.p.p.f.,.@ 7 V.S.S.S.S.S.S.S.S.S.S.S.S.m X Q f.i.p.p.a.u.j # @ @ O @ @ O @ @ X . 7 x.S.S.S.S.S.S.S.S.",
"S.S.S.S.S.S.S.x.# 3 p.p.p.p.p.p.p.p.9 X 7.S.S.S.S.S.S.S.S.S.S.S.l.@ ; t.p.p.p.p.p.p.f.G @ 3 l i i i i i V ;.V.S.A.S.S.S.S.S.S.S.",
"S.S.S.S.S.S.S.B.> # e.s.p.p.p.p.i.f.Q . N S.S.S.S.S.S.S.S.S.S.S.U . G f.p.p.p.a.p.p.a.d X 5.S.A.S.A.A.A.S.S.S.S.S.S.S.S.S.S.S.S.",
"S.S.S.S.S.S.S.S.K . R f.p.p.p.p.p.a.t.; @ l.S.S.S.S.S.S.S.S.S.m.; # 1.s.p.p.p.p.p.s.@.@ , V.S.S.S.S.S.S.S.S.S.S.S.S.S.S.S.S.S.S.",
"S.S.S.S.S.S.A.S.w.O 3 u.p.p.p.p.p.p.f.F . #.S.S.S.S.S.S.S.S.S.>.. g s.p.p.p.p.p.p.f.A . %.S.A.S.S.S.S.S.S.S.S.S.S.S.S.S.S.S.S.S.",
"S.S.S.S.S.S.S.S.A.i X o.f.p.p.p.p.p.s.<.@ 7 v.m.b.v.b.m.b.b.m.l X _ f.p.p.p.p.p.p.r.* $ c.S.S.S.S.S.S.S.S.S.S.S.S.S.S.S.S.S.S.S.",
"S.S.S.S.S.S.S.S.S.:.. g s.p.p.p.p.p.p.y.1 # $ $ $ $ $ $ $ $ % $ $ 1.s.p.p.p.p.p.f.R . V S.S.S.S.S.S.S.S.S.S.S.S.S.S.S.S.S.S.S.S.",
"S.S.S.S.S.S.S.S.S.M.; # 1.s.p.p.p.p.p.y.; $ < < < < 1 < < < < - # @.s.p.p.p.p.p.p.8 o q.S.S.S.S.S.S.S.S.S.S.S.S.S.S.S.S.S.S.S.S.",
"S.S.S.S.S.S.S.S.S.S.U . G f.i.p.p.i.f.o.O 4 } } } | { } } } | x X H f.p.p.p.y.f.` O u A.S.S.S.S.S.S.S.S.S.S.S.S.S.S.S.S.S.S.S.S.",
"S.S.S.S.S.S.S.S.S.S.l.# $ o.f.s.d.f.e.2 @ b  .| | | | | | | X.^ @ $ ` f.d.d.f.1.2 . :.S.S.S.S.S.S.S.S.S.S.S.S.S.S.S.S.S.S.S.S.S.",
"S.S.S.S.S.S.S.S.S.A.S.&.O $ S o.+.J * @ 5 | | | | | | | | | | ..c + $ A _ ) I ; O N A.S.S.S.S.S.S.S.S.S.S.S.S.S.S.S.S.S.S.S.S.S.",
"S.S.S.S.S.S.S.S.S.S.S.S.N # @ X X @ $ 5 } | | | | | | | | | | | ..c $ @ X X X # - v.S.A.S.S.S.S.S.S.S.S.S.S.S.S.S.S.S.S.S.S.S.S.",
"S.S.S.S.S.S.S.S.S.A.S.;.$ @ 3 n j = @ - '  .} | | | | | | | | | | w @ $ d S n % @ u N.S.S.S.S.S.S.S.S.S.S.S.S.S.S.S.S.S.S.S.S.S.",
"S.S.S.S.S.S.S.S.S.S.k.O # E p.f.d.t.j @ < | | } | | } | | | } ..v + ; +.s.d.d.e.t . B S.A.S.S.S.S.S.S.S.S.S.S.S.S.S.S.S.S.S.S.S.",
"S.S.S.S.S.S.S.S.S.S.l o I f.p.p.i.s.p.9 + S X. . ... . ...| ..} * # +.f.p.p.y.f.t.; O 8.S.S.S.S.S.S.S.S.S.S.S.S.S.S.S.S.S.S.S.S.",
"S.S.S.S.S.S.S.S.S.6.o 3 i.p.p.p.p.u.f._ + 0 [ ] ' ] ] ' ' ' [ ! @ a a.p.p.p.p.y.f.W o e V.S.S.S.S.S.S.S.S.S.S.S.S.S.S.S.S.S.S.S.",
"S.S.S.S.S.S.S.S.V.e o _ f.i.p.p.p.p.d.+.# $ # # # # # # # # # $ @ A s.p.p.p.p.p.p.p.y . &.S.S.S.S.S.S.S.S.S.S.S.S.S.S.S.S.S.S.S.",
"S.S.S.S.S.S.S.S.-.. y p.p.p.p.p.p.i.f._ @ > e 7 e e e e e e e 3 @ y a.p.p.p.p.p.p.f.+.# % v.S.S.S.S.S.S.S.S.S.S.S.S.S.S.S.S.S.S.",
"S.S.S.S.S.S.S.m.> @ O.f.p.p.p.p.p.i.s.g . -.S.A.A.A.A.A.A.A.S.N.> @ +.f.p.p.p.p.p.p.f.A . K S.S.S.S.S.S.S.S.S.S.S.S.S.S.S.S.S.S.",
"S.S.S.S.S.S.S.T . j d.p.p.p.p.p.p.f.o.O : N.S.S.S.S.S.S.S.S.S.S.&.. a p.p.p.p.p.p.p.a.r.* O q.S.S.S.S.S.S.S.S.S.S.S.S.S.S.S.S.S.",
"S.S.S.S.S.S.z.$ $ 1.s.p.p.p.p.p.p.p.8 . ;.S.A.S.S.S.S.A.S.S.S.S.C.e O ) f.u.p.p.p.p.p.f.E X u A.S.S.S.S.S.S.S.S.S.S.S.S.S.S.S.S.",
"S.S.S.S.S.S.V . F f.i.p.p.p.p.i.f.W O u A.S.S.S.S.S.S.S.S.S.S.S.S.7.o > y.p.p.p.p.p.p.p.p.8 . -.S.A.S.S.S.S.S.S.S.S.S.S.S.S.S.S.",
"S.S.S.S.S.l.@ ; r.a.p.p.p.a.p.a.y.2 o 8.S.S.S.S.S.S.S.S.S.S.S.S.S.S.N . F f.i.p.p.p.p.p.f.O.O e Z.S.S.S.S.S.S.S.S.S.S.S.S.S.S.S.",
"S.S.S.A.S.;.. D f.p.p.p.p.p.i.f.H X z S.S.S.S.S.S.S.S.S.S.S.S.S.S.S.z.# $ <.d.p.p.p.p.p.p.p.3 # z.S.S.S.S.S.S.S.S.S.S.S.S.S.S.S.",
"S.S.S.S.S.#.. W f.p.p.p.p.p.a.e.% @ k.S.A.S.S.S.S.S.S.S.S.S.S.S.S.A.S.#.. d s.p.p.p.p.p.p.p.a O j.S.S.S.S.S.S.S.S.S.S.S.S.S.S.S.",
"S.S.S.A.S.-.. F f.y.p.p.p.i.d.S . K S.S.S.S.S.S.S.S.S.S.S.S.S.S.S.S.S.B.3 O _ f.p.p.p.p.a.y.; $ n.S.S.S.S.S.S.S.S.S.S.S.S.S.S.S.",
"S.S.S.S.S.k.O ; t.f.i.p.p.f.+.$ % c.S.A.S.S.S.S.S.S.S.S.S.S.S.S.S.S.S.S.5.o 2 t.f.p.p.p.g.E X k S.S.S.S.S.S.S.S.S.S.S.S.S.S.S.S.",
"S.S.S.S.S.S.m . d e.d.f.d.,.3 . %.S.S.S.S.S.S.S.S.S.S.S.S.S.S.S.S.S.S.S.S.m . y 1.p.s.y.E $ o 9.S.A.S.S.S.S.S.S.S.S.S.S.S.S.S.S.",
"S.S.S.S.S.S.m.3 . * A H j # . l A.S.S.S.S.S.S.S.S.S.S.S.S.S.S.S.S.S.S.S.S.m.e . # y g 2 O o -.S.S.S.S.S.S.S.S.S.S.S.S.S.S.S.S.S.",
"S.S.S.S.S.S.S.m.Z # . . X % Y A.S.S.S.S.S.S.S.S.S.S.S.S.S.S.S.S.S.S.S.S.S.S.N.T > O o @ i 0.S.S.S.S.S.S.S.S.S.S.S.S.S.S.S.S.S.S.",
"S.S.S.S.S.S.S.S.S.x.4.>.7.n.S.S.S.S.S.S.S.S.S.S.S.S.S.S.S.S.S.S.S.S.S.S.S.S.S.S.N.k.w.x.S.S.S.S.S.S.S.S.S.S.S.S.S.S.S.S.S.S.S.S.",
"S.S.S.S.S.S.S.A.S.S.S.S.S.S.S.S.S.S.S.S.S.S.S.S.S.S.S.S.S.S.S.S.S.S.S.S.S.S.S.S.S.S.S.S.S.A.S.S.S.S.S.S.S.S.S.S.S.S.S.S.S.S.S.S.",
"S.S.S.S.S.S.S.S.S.S.S.A.S.S.S.S.S.S.S.S.S.S.S.S.S.S.S.S.S.S.S.S.S.S.S.S.S.S.S.S.S.S.A.S.S.S.S.S.S.S.S.S.S.S.S.S.S.S.S.S.S.S.S.S.",
"S.S.S.S.S.S.S.S.S.S.S.S.S.S.S.S.S.S.S.S.S.S.S.S.S.S.S.S.S.S.S.S.S.S.S.S.S.S.S.S.S.S.S.S.S.S.S.S.S.S.S.S.S.S.S.S.S.S.S.S.S.S.S.S.",
"S.S.S.S.S.S.S.S.S.S.S.S.S.S.S.S.S.S.S.S.S.S.S.S.S.S.S.S.S.S.S.S.S.S.S.S.S.S.S.S.S.S.S.S.S.S.S.S.S.S.S.S.S.S.S.S.S.S.S.S.S.S.S.S.",
"S.S.S.S.S.S.S.S.S.S.S.S.S.S.S.S.S.S.S.S.S.S.S.S.S.S.S.S.S.S.S.S.S.S.S.S.S.S.S.S.S.S.S.S.S.S.S.S.S.S.S.S.S.S.S.S.S.S.S.S.S.S.S.S.",
"S.S.S.S.S.S.S.S.S.S.S.S.S.S.S.S.S.S.S.S.S.S.S.S.S.S.S.S.S.S.S.S.S.S.S.S.S.S.S.S.S.S.S.S.S.S.S.S.S.S.S.S.S.S.S.S.S.S.S.S.S.S.S.S.",
"S.S.S.S.S.S.S.S.S.S.S.S.S.S.S.S.S.S.S.S.S.S.S.S.S.S.S.S.S.S.S.S.S.S.S.S.S.S.S.S.S.S.S.S.S.S.S.S.S.S.S.S.S.S.S.S.S.S.S.S.S.S.S.S.",
"S.S.S.S.S.S.S.S.S.S.S.S.S.S.S.S.S.S.S.S.S.S.S.S.S.S.S.S.S.S.S.S.S.S.S.S.S.S.S.S.S.S.S.S.S.S.S.S.S.S.S.S.S.S.S.S.S.S.S.S.S.S.S.S.",
"S.S.S.S.S.S.S.S.S.S.S.S.S.S.S.S.S.S.S.S.S.S.S.S.S.S.S.S.S.S.S.S.S.S.S.S.S.S.S.S.S.S.S.S.S.S.S.S.S.S.S.S.S.S.S.S.S.S.S.S.S.S.S.S."
};
