/* XPM */
static char *player__15_1710156992[] = {
/* columns rows colors chars-per-pixel */
"64 64 151 2 ",
"   c #000A60",
".  c #001565",
"X  c #001B66",
"o  c #001668",
"O  c #001C6A",
"+  c #002066",
"@  c #00226D",
"#  c #01286E",
"$  c #012571",
"%  c #032973",
"&  c #0A2C77",
"*  c #072B7A",
"=  c #0C2D79",
"-  c #102F79",
";  c #0E3079",
":  c #13337C",
">  c #1B367E",
",  c #17387E",
"<  c #19387F",
"1  c #0E2F81",
"2  c #0F3082",
"3  c #143385",
"4  c #1A3682",
"5  c #1D3B82",
"6  c #173589",
"7  c #19378E",
"8  c #1B3791",
"9  c #1E3995",
"0  c #213C84",
"q  c #233C89",
"w  c #293F8C",
"e  c #213B97",
"r  c #223C9A",
"t  c #244185",
"y  c #284587",
"u  c #274588",
"i  c #2B428E",
"p  c #2D498A",
"a  c #324D8C",
"s  c #33508E",
"d  c #2E4491",
"f  c #324694",
"g  c #354896",
"h  c #384997",
"j  c #3C4C9A",
"k  c #3D5793",
"l  c #2B41A5",
"z  c #2F42AA",
"x  c #3246AD",
"c  c #3546B2",
"v  c #3D4BBC",
"b  c #404F9D",
"n  c #455D97",
"m  c #44509F",
"M  c #455E98",
"N  c #476199",
"B  c #4B639B",
"V  c #50659C",
"C  c #52699F",
"Z  c #4652A1",
"A  c #4B55A5",
"S  c #545AAB",
"D  c #585DAE",
"F  c #5D5FB1",
"G  c #556BA0",
"H  c #596FA2",
"J  c #5C71A4",
"K  c #5F61B2",
"L  c #6277A8",
"P  c #667AAA",
"I  c #6A7DAC",
"U  c #6263B5",
"Y  c #6966B9",
"T  c #6B69BC",
"R  c #716CBF",
"E  c #4551C7",
"W  c #4650CA",
"Q  c #4A53CE",
"!  c #4C54D1",
"~  c #5257D9",
"^  c #5559DD",
"/  c #746EC2",
"(  c #7971C5",
")  c #7E75C9",
"_  c #5A5CE3",
"`  c #5D5EE9",
"'  c #6160EE",
"]  c #6763F5",
"[  c #6864F7",
"{  c #6C66FC",
"}  c #6E68FF",
"|  c #736AFF",
" . c #8276CC",
".. c #8679CE",
"X. c #8C7CD3",
"o. c #907FD5",
"O. c #6D81AF",
"+. c #7183AF",
"@. c #7586B1",
"#. c #7789B3",
"$. c #7A8CB6",
"%. c #8495BB",
"&. c #8A9ABE",
"*. c #8D9DC0",
"=. c #9280D6",
"-. c #9582D9",
";. c #9A85DC",
":. c #9F88DF",
">. c #94A3C4",
",. c #98A6C7",
"<. c #9DABC9",
"1. c #A1AECB",
"2. c #A4B1CC",
"3. c #A8B4CF",
"4. c #ABB5D0",
"5. c #AFB9D3",
"6. c #B2BCD4",
"7. c #A28AE2",
"8. c #A88DE6",
"9. c #AA8FE8",
"0. c #AD91EA",
"q. c #B294ED",
"w. c #B797F0",
"e. c #B897F1",
"r. c #BB9AF4",
"t. c #C09DF7",
"y. c #C39EF9",
"u. c #C6A0FB",
"i. c #CAA2FD",
"p. c #D0A6FF",
"a. c #B6C1D7",
"s. c #BBC4D9",
"d. c #BEC8DC",
"f. c #C2CADD",
"g. c #C7CFE0",
"h. c #C8CFE0",
"j. c #CCD3E3",
"k. c #D0D7E5",
"l. c #D3D9E6",
"z. c #D7DCE8",
"x. c #D9DEEA",
"c. c #DEE3ED",
"v. c #E2E6EF",
"b. c #E2E6F0",
"n. c #E6E9F1",
"m. c #EAEDF4",
"M. c #EDF0F5",
"N. c #F1F3F7",
"B. c #F3F5F9",
"V. c #F7F8FB",
"C. c #FFFFFF",
/* pixels */
"C.C.C.C.C.C.C.C.C.C.C.C.C.C.C.C.C.C.C.C.C.C.C.C.C.C.C.C.C.C.C.C.C.C.C.C.C.C.C.V.C.C.C.C.C.C.C.C.C.C.C.C.C.C.C.C.C.C.C.C.C.C.C.C.",
"C.C.C.C.C.C.C.C.C.C.C.C.C.C.C.C.C.C.C.C.C.C.C.C.C.C.C.C.C.C.C.C.C.C.C.C.C.C.C.C.C.C.C.C.C.C.C.C.C.C.C.C.C.C.C.C.C.C.C.C.C.C.C.C.",
"C.C.C.C.C.C.C.C.C.C.C.C.C.C.C.C.C.C.C.C.C.C.C.C.C.C.C.C.C.C.C.C.C.C.C.C.C.C.x.s.f.n.C.C.V.C.C.C.C.C.C.C.C.C.C.C.C.C.C.C.C.C.C.C.",
"C.C.C.C.C.C.C.C.C.C.C.C.C.C.C.C.C.C.C.C.C.C.C.C.C.C.C.C.C.C.C.C.C.C.C.C.k.B = O @ : H c.C.C.C.C.C.C.C.C.C.C.C.C.C.C.C.C.C.C.C.C.",
"C.C.C.C.C.C.C.C.C.C.C.C.C.C.C.C.C.C.C.C.C.C.C.C.C.C.C.C.C.C.C.C.C.C.C.6.& X = i w $ . > k.C.C.C.C.C.C.C.C.C.C.C.C.C.C.C.C.C.C.C.",
"C.C.C.C.C.C.C.C.C.C.C.C.C.C.C.C.C.C.C.C.C.C.C.C.C.C.C.C.C.C.C.C.C.C.c.: O Z 9.t.t.7.g O 0 n.C.C.C.C.C.C.C.C.C.C.C.C.C.C.C.C.C.C.",
"C.C.C.C.C.C.C.C.C.C.C.C.C.C.C.C.C.C.C.C.C.C.C.C.C.C.C.C.C.C.C.C.V.C.+.. j u.y.r.r.y.r.i X N C.C.C.C.C.C.C.C.C.C.C.C.C.C.C.C.C.C.",
"C.C.C.C.C.C.C.C.C.C.C.C.C.C.C.C.C.C.C.C.C.C.C.C.C.C.C.C.C.C.C.C.C.C.a O o.y.e.r.r.e.y.8.: O @.C.C.C.C.C.C.C.C.C.C.C.C.C.C.C.C.C.",
"C.C.C.C.C.C.C.C.C.C.C.C.C.C.C.C.C.C.C.C.C.C.C.C.C.C.C.C.C.C.C.C.C.B.5 % 7.y.r.r.r.r.e.i.X.% O <.C.V.C.C.C.C.C.C.C.C.C.C.C.C.C.C.",
"C.C.C.C.C.C.C.C.C.C.C.C.C.C.C.C.C.C.C.C.C.C.C.C.C.C.C.C.C.C.C.C.C.V.y @ ;.u.r.r.r.r.r.e.i.Y @ = k.C.C.C.C.C.C.C.C.C.C.C.C.C.C.C.",
"C.C.C.C.C.C.C.C.C.C.C.C.C.C.C.C.C.C.C.C.C.C.C.C.C.C.C.C.C.C.C.C.C.C.H . D i.e.r.r.r.r.r.e.i.Z . C C.C.C.C.C.C.C.C.C.C.C.C.C.C.C.",
"C.C.C.C.C.C.C.C.C.B.v.C.C.C.C.C.C.C.C.C.C.C.C.C.C.C.C.C.C.C.C.C.C.C.d.@ % ..i.e.r.r.r.r.e.y.0.= ; n.C.C.V.C.C.C.C.C.C.C.C.C.C.C.",
"C.C.C.C.C.C.C.C.C.P % j.C.C.C.C.C.C.C.C.C.C.C.C.C.C.C.C.C.C.C.C.C.C.C.#.o : 8.y.e.r.r.r.y.y.:.5 @ 4.C.C.C.C.C.C.C.C.C.C.C.C.C.C.",
"C.C.C.C.C.C.C.C.C.I   I C.C.C.C.C.C.C.C.C.C.C.C.C.C.C.C.C.C.C.C.C.C.C.C.B . d r.i.u.e.y.;.f % @ @ & t n O.,.s.N.C.C.C.C.C.C.C.C.",
"C.C.C.C.C.C.C.C.C.g.O 5 m.C.C.C.C.C.C.C.C.C.C.C.C.C.C.C.C.C.C.C.C.C.C.C.m.t O j K i 0 f = O = 9 8 1 $ X . . @ 0 >.C.C.C.C.C.C.C.",
"C.C.C.C.C.C.C.C.C.C.k . <.C.B.C.C.C.C.C.C.C.C.C.C.C.C.C.C.C.C.C.C.C.C.V.C.j.& @ X + % $ @ l ] { { ] _ ! v l 3 @ . @.C.C.C.C.C.C.",
"C.C.C.C.C.C.C.C.C.C.>.O 5 p p J s.C.C.C.C.C.C.C.C.C.C.C.C.C.C.C.C.C.C.V.C.>.$ & A ;.Z @ r } [ ] [ [ { } } { { v & O 2.C.C.C.C.C.",
"C.C.C.C.C.C.C.C.C.z.p @ @ @ O . O P C.C.C.C.C.C.C.C.C.C.C.C.C.C.C.C.C.C.k.% @ ( i.i.w + ~ } ] [ [ [ ] [ ] ] [ | v O p C.C.C.C.C.",
"C.C.C.C.C.C.C.C.m.t o q / ;.-.U = . I C.C.C.C.C.C.C.C.C.C.C.C.C.C.C.C.C.n . A i.r.0.3 % ` { [ [ [ [ [ [ [ [ ] [ ] 2 % k.C.C.C.C.",
"C.C.C.C.C.C.C.C.@.. d w.i.y.y.i.X.& @ f.C.C.C.C.C.C.C.C.C.C.C.C.C.C.C.,.O 4 0.r.r.r.0 @ ^ { ] [ [ [ [ [ [ [ [ [ [ 7 + s.C.C.C.C.",
"C.C.C.C.C.C.C.N.t @ o.i.e.r.e.e.i.S . L C.C.C.C.C.C.C.C.C.C.C.C.C.C.v.< + ( i.r.r.i.Z X z } [ ] ] ] ] [ [ [ [ [ ] 3 % j.C.C.C.C.",
"C.C.C.C.C.C.C.k.% 4 w.r.r.r.r.r.u.;.$ : v.C.C.C.C.C.C.C.C.C.C.C.V.C.J . h u.e.r.r.u.-.% % v { } } { { [ ] ] ] | E + u B.C.C.C.C.",
"C.C.C.C.C.C.C.k.$ 4 e.r.r.r.r.r.e.u.h . &.C.V.C.C.C.C.C.C.C.C.C.C.6.O = 7.u.r.r.r.e.i.Y @ % 7 c E ^ ' { { } { Q = o &.C.C.C.C.C.",
"C.C.C.C.C.C.C.B.t @ -.u.r.r.r.t.e.u.) O a C.C.C.C.C.C.C.C.C.C.C.N.y O U i.r.r.r.r.r.e.i.U % + . X @ * 6 l x 9 # . H C.C.C.C.C.C.",
"C.C.C.C.C.C.C.C.I . S y.e.r.r.r.r.t.w.5 O a.C.C.V.C.C.V.C.C.B.C.#.. i r.r.r.r.r.r.r.r.y.j O B *.B u ; + . . X : %.C.C.C.C.C.C.C.",
"C.C.C.C.C.C.C.C.f.$ : 0.t.r.r.r.r.e.u.U . J C.C.C.C.C.C.C.C.C.v.& $ o.u.e.r.r.r.r.w.i./ O < m.C.C.C.v.a.<.*.3.n.C.C.C.C.C.C.C.C.",
"C.C.C.C.C.C.C.C.C.n . R i.r.r.r.r.e.y.;.$ , 4.6.5.5.5.5.5.4.s.O.X j u.e.t.r.t.r.r.y.0.: O <.C.B.C.C.C.C.C.C.C.C.C.C.C.C.C.C.C.C.",
"C.C.C.C.C.C.C.C.C.1.X i r.t.r.r.r.r.t.q.4 $ O X X X X X X X X $ @ U i.e.r.r.r.r.e.i.Z . N C.C.C.C.C.C.C.C.V.C.C.C.C.C.C.C.C.C.C.",
"C.C.C.C.C.C.C.C.C.m.0 @ o.u.e.r.r.r.r.0.; * e r r r r r 9 r r 6 + D i.e.r.e.e.w.i...@ = k.C.C.C.C.C.C.C.C.C.C.C.C.C.C.C.C.C.C.C.",
"C.C.C.C.C.C.C.C.C.C.@.. b i.r.e.r.e.p.T + 8 { { { { { { { { | ! @ q r.t.u.i.i.i.e.0 . %.C.C.C.C.C.C.C.C.C.C.C.C.C.C.C.C.C.C.C.C.",
"C.C.C.C.C.C.C.C.C.C.x.& @ U y.i.i.i...= @ W } ] [ ] ] ] ] ] [ ] 3 + S e.=.Y K X.Z O a B.C.C.C.C.C.C.C.C.C.C.C.C.C.C.C.C.C.C.C.C.",
"C.C.C.C.C.C.C.C.C.V.C.,.@ $ q D U j $ @ l { [ [ [ [ [ [ [ [ ] { ! % # 5 @ X . X % $ g.C.C.C.C.C.C.C.C.C.C.C.C.C.C.C.C.C.C.C.C.C.",
"C.C.C.C.C.C.C.C.C.C.C.G @ $ 4 w : O # 3 [ [ [ [ [ [ [ [ [ [ ] ] | c # @ 4 S F f % $ P C.C.C.C.C.C.C.C.C.C.C.C.C.C.C.C.C.C.C.C.C.",
"C.C.C.C.C.C.C.C.C.C.H . :  .t.u.r. .; @ c | ] [ [ [ [ [ [ [ ] { ' 3 @ A e.i.i.u.) = . H C.C.C.C.C.C.C.C.C.C.C.C.C.C.C.C.C.C.C.C.",
"C.C.C.C.C.C.C.C.C.+.O & -.i.r.r.r.p.X.% & ` [ ] ] ] ] ] ] ] ] { v + f u.y.e.w.e.i.X.= O G C.C.C.C.C.C.C.C.C.C.C.C.C.C.C.C.C.C.C.",
"C.C.C.C.C.C.C.C.&.O % ..i.e.r.r.r.e.u.h + Q | } } } } } } | { | r O ( i.w.r.r.r.e.i.o.; o C C.C.C.C.C.C.C.C.C.C.C.C.C.C.C.C.C.C.",
"C.C.C.C.C.V.C.1.O $ / i.e.r.r.t.r.e.i.D + z ! Q Q Q Q Q Q Q Q Q 6 @ X.u.r.r.r.r.r.r.i.-.: . B C.C.C.C.C.C.C.C.C.C.C.C.C.C.C.C.C.",
"C.C.C.C.C.C.s.% @ U i.e.r.r.r.r.r.e.i.m @ O X X X X X X X X X . @ @ / i.w.r.r.r.r.r.e.i.;.: X N B.C.C.C.C.C.C.C.C.C.C.C.C.C.C.C.",
"C.C.C.C.C.k.: O S i.r.r.r.t.r.r.e.y.8.= % V V B V V V V V V B J B O w r.r.r.r.r.r.r.r.e.y.;.: o M C.C.C.C.C.C.C.C.C.C.C.C.C.C.C.",
"C.C.C.C.v.0 X j t.r.r.r.r.r.r.r.r.r.h . B C.C.C.C.C.C.C.C.C.C.C.V.u O j y.y.r.r.r.r.r.r.w.i.:.5 . J C.C.C.C.C.C.C.C.C.C.C.C.C.C.",
"C.C.C.C.N . f r.r.r.r.r.t.r.r.r.i.Z X 5 c.C.C.C.C.C.C.C.C.C.C.V.C.h.= O j r.y.e.r.r.r.r.r.e.i.;.= O f.C.C.C.C.C.C.C.C.C.C.C.C.C.",
"C.C.C.f.@ : 8.u.r.r.r.r.r.r.e.i.S O = j.C.C.C.C.C.C.C.C.C.C.C.C.C.C.h.: X j r.t.r.r.t.r.r.r.e.i.S . $.C.C.C.C.C.C.C.C.C.C.C.C.C.",
"C.V.C.&.. A i.e.t.r.r.r.r.r.i.Y + $ 6.C.B.C.C.C.C.C.C.C.C.C.C.C.C.C.C.j.: X h e.y.e.r.r.r.r.e.u.( X J C.C.C.C.C.C.C.C.C.C.C.C.C.",
"C.C.C.$.. K i.e.r.r.r.r.e.i.( $ $ <.C.C.C.C.C.C.C.C.C.C.C.C.C.C.C.C.V.C.k.< O h e.t.r.r.r.r.e.i.T . L C.V.C.C.C.C.C.C.C.C.C.C.C.",
"C.V.C.>.. Z i.e.r.r.r.e.i.X.$ O %.C.C.C.C.C.C.C.C.C.C.C.C.C.C.C.C.C.C.V.C.l.> O f e.y.w.e.e.e.i.g . >.C.C.C.C.C.C.C.C.C.C.C.C.C.",
"C.C.C.j.$ & :.i.r.e.r.i.;.= O +.C.C.C.C.C.C.C.C.C.C.C.C.C.C.C.C.C.C.C.C.C.C.z.5 X d q.i.u.i.i.K + : n.C.C.C.C.C.C.C.C.C.C.C.C.C.",
"C.C.C.C.J . q ;.y.y.y.X.< . H C.C.C.C.C.C.C.C.C.C.C.C.C.C.C.C.C.C.C.C.C.C.V.C.z.t . 4 Y ..( h @ O 1.C.C.C.C.C.C.C.C.C.C.C.C.C.C.",
"C.C.C.C.m.s . % h A f $ o n V.C.C.C.C.C.C.C.C.C.C.C.C.C.C.C.C.C.C.C.C.C.C.C.C.C.c.k O . X . . : <.C.C.C.C.C.C.C.C.C.C.C.C.C.C.C.",
"C.C.C.C.C.M.I = X . O : #.C.C.C.C.C.C.C.C.C.C.C.C.C.C.C.C.C.C.C.C.C.C.C.C.C.C.C.C.C.3.P B G %.v.C.C.C.C.C.C.C.C.C.C.C.C.C.C.C.C.",
"C.C.C.C.C.C.C.c.4.<.4.n.C.C.C.C.C.C.C.C.C.C.C.C.C.C.C.C.C.C.C.C.C.C.C.C.C.C.C.C.C.C.C.C.C.C.C.C.C.C.C.C.C.C.C.C.C.C.C.C.C.C.C.C.",
"C.C.C.C.C.C.C.C.C.C.C.C.V.C.C.C.C.C.C.C.C.C.C.C.C.C.C.C.C.C.C.C.C.C.C.C.C.C.C.C.C.C.C.V.C.C.C.C.C.C.C.C.C.C.C.C.C.C.C.C.C.C.C.C.",
"C.C.C.C.C.C.C.C.C.C.V.C.C.C.C.C.C.C.C.C.C.C.C.C.C.C.C.C.C.C.C.C.C.C.C.C.C.C.C.C.C.C.C.C.C.C.C.C.C.C.C.C.C.C.C.C.C.C.C.C.C.C.C.C.",
"C.C.C.C.C.C.C.C.C.C.C.C.C.C.C.C.C.C.C.C.C.C.C.C.C.C.C.C.C.C.C.C.C.C.C.C.C.C.C.C.C.C.C.C.C.C.C.C.C.C.C.C.C.C.C.C.C.C.C.C.C.C.C.C.",
"C.C.C.C.C.C.C.C.C.C.C.C.C.C.C.C.C.C.C.C.C.C.C.C.C.C.C.C.C.C.C.C.C.C.C.C.C.C.C.C.C.C.C.C.C.C.C.C.C.C.C.C.C.C.C.C.C.C.C.C.C.C.C.C.",
"C.C.C.C.C.C.C.C.C.C.C.C.C.C.C.C.C.C.C.C.C.C.C.C.C.C.C.C.C.C.C.C.C.C.C.C.C.C.C.C.C.C.C.C.C.C.C.C.C.C.C.C.C.C.C.C.C.C.C.C.C.C.C.C.",
"C.C.C.C.C.C.C.C.C.C.C.C.C.C.C.C.C.C.C.C.C.C.C.C.C.C.C.C.C.C.C.C.C.C.C.C.C.C.C.C.C.C.C.C.C.C.C.C.C.C.C.C.C.C.C.C.C.C.C.C.C.C.C.C.",
"C.C.C.C.C.C.C.C.C.C.C.C.C.C.C.C.C.C.C.C.C.C.C.C.C.C.C.C.C.C.C.C.C.C.C.C.C.C.C.C.C.C.C.C.C.C.C.C.C.C.C.C.C.C.C.C.C.C.C.C.C.C.C.C.",
"C.C.C.C.C.C.C.C.C.C.C.C.C.C.C.C.C.C.C.C.C.C.C.C.C.C.C.C.C.C.C.C.C.C.C.C.C.C.C.C.C.C.C.C.C.C.C.C.C.C.C.C.C.C.C.C.C.C.C.C.C.C.C.C.",
"C.C.C.C.C.C.C.C.C.C.C.C.C.C.C.C.C.C.C.C.C.C.C.C.C.C.C.C.C.C.C.C.C.C.C.C.C.C.C.C.C.C.C.C.C.C.C.C.C.C.C.C.C.C.C.C.C.C.C.C.C.C.C.C.",
"C.C.C.C.C.C.C.C.C.C.C.C.C.C.C.C.C.C.C.C.C.C.C.C.C.C.C.C.C.C.C.C.C.C.C.C.C.C.C.C.C.C.C.C.C.C.C.C.C.C.C.C.C.C.C.C.C.C.C.C.C.C.C.C.",
"C.C.C.C.C.C.C.C.C.C.C.C.C.C.C.C.C.C.C.C.C.C.C.C.C.C.C.C.C.C.C.C.C.C.C.C.C.C.C.C.C.C.C.C.C.C.C.C.C.C.C.C.C.C.C.C.C.C.C.C.C.C.C.C.",
"C.C.C.C.C.C.C.C.C.C.C.C.C.C.C.C.C.C.C.C.C.C.C.C.C.C.C.C.C.C.C.C.C.C.C.C.C.C.C.C.C.C.C.C.C.C.C.C.C.C.C.C.C.C.C.C.C.C.C.C.C.C.C.C.",
"C.C.C.C.C.C.C.C.C.C.C.C.C.C.C.C.C.C.C.C.C.C.C.C.C.C.C.C.C.C.C.C.C.C.C.C.C.C.C.C.C.C.C.C.C.C.C.C.C.C.C.C.C.C.C.C.C.C.C.C.C.C.C.C.",
"C.C.C.C.C.C.C.C.C.C.C.C.C.C.C.C.C.C.C.C.C.C.C.C.C.C.C.C.C.C.C.C.C.C.C.C.C.C.C.C.C.C.C.C.C.C.C.C.C.C.C.C.C.C.C.C.C.C.C.C.C.C.C.C."
};
