/* XPM */
static char *player__22_1710156993[] = {
/* columns rows colors chars-per-pixel */
"64 64 156 2 ",
"   c #000E63",
".  c #001564",
"X  c #001B65",
"o  c #001768",
"O  c #001C6A",
"+  c #002166",
"@  c #00236D",
"#  c #01286F",
"$  c #012571",
"%  c #042974",
"&  c #0A2C76",
"*  c #062B79",
"=  c #0C2E7A",
"-  c #102F7B",
";  c #0F317B",
":  c #12327B",
">  c #1A377E",
",  c #173A7F",
"<  c #19397F",
"1  c #0D2F80",
"2  c #153481",
"3  c #1A3782",
"4  c #1D3A83",
"5  c #1B388F",
"6  c #1D3894",
"7  c #203A87",
"8  c #243D89",
"9  c #293F8C",
"0  c #203A96",
"q  c #233D9A",
"w  c #254285",
"e  c #2A448B",
"r  c #2D498A",
"t  c #334E8D",
"y  c #37518F",
"u  c #2F4391",
"i  c #344694",
"p  c #344895",
"a  c #384A97",
"s  c #364898",
"d  c #3D4C9A",
"f  c #3B5491",
"g  c #2B40A6",
"h  c #2E42A9",
"j  c #3145AC",
"k  c #3747B5",
"l  c #3C4BBB",
"z  c #424F9E",
"x  c #445C96",
"c  c #43509E",
"v  c #476199",
"b  c #4D659C",
"n  c #50669D",
"m  c #546A9F",
"M  c #4651A1",
"N  c #4A54A4",
"B  c #4E56A8",
"V  c #545BAB",
"C  c #5A5EAF",
"Z  c #404EBF",
"A  c #5C5FB1",
"S  c #566CA1",
"D  c #596EA2",
"F  c #5E73A5",
"G  c #5E61B2",
"H  c #6277A7",
"J  c #6378A9",
"K  c #697CAB",
"L  c #6364B5",
"P  c #6766B8",
"I  c #6967BA",
"U  c #6C69BC",
"Y  c #3F4BC1",
"T  c #414DC3",
"R  c #434EC8",
"E  c #4550C7",
"W  c #4D54D3",
"Q  c #5056D5",
"!  c #5257D9",
"~  c #5358DB",
"^  c #736DC1",
"/  c #7770C4",
"(  c #7A71C6",
")  c #7E74C8",
"_  c #575BE0",
"`  c #5A5CE4",
"'  c #5F5FEA",
"]  c #605FEB",
"[  c #6160EE",
"{  c #6663F5",
"}  c #6864F7",
"|  c #6C66FD",
" . c #6F68FF",
".. c #736AFF",
"X. c #8276CB",
"o. c #8579CE",
"O. c #8C7CD2",
"+. c #907FD5",
"@. c #6E81AE",
"#. c #7383AF",
"$. c #6F84B1",
"%. c #7286B1",
"&. c #778AB4",
"*. c #7B8CB5",
"=. c #8393BA",
"-. c #8798BE",
";. c #8C9CBF",
":. c #8E9DC1",
">. c #909FC3",
",. c #9281D6",
"<. c #9582D9",
"1. c #9B86DD",
"2. c #9F88DF",
"3. c #92A1C3",
"4. c #98A6C6",
"5. c #9DABC9",
"6. c #A1ADCA",
"7. c #A4B1CD",
"8. c #A8B4CF",
"9. c #ACB7D0",
"0. c #AFBAD3",
"q. c #B4BED5",
"w. c #9F88E0",
"e. c #A48BE3",
"r. c #A98EE6",
"t. c #AE91EA",
"y. c #B395EE",
"u. c #B797F1",
"i. c #B897F1",
"p. c #BB9AF4",
"a. c #C09DF7",
"s. c #C29EF9",
"d. c #C6A0FB",
"f. c #CAA2FD",
"g. c #D0A6FF",
"h. c #D7ABFF",
"j. c #B7C0D7",
"k. c #B8C1D7",
"l. c #BBC4D9",
"z. c #BFC9DC",
"x. c #C2CADD",
"c. c #C7CFE0",
"v. c #CCD3E3",
"b. c #D0D7E5",
"n. c #D3D9E6",
"m. c #D6DCE8",
"M. c #DADEEA",
"N. c #DDE2EC",
"B. c #E2E5EE",
"V. c #E5E9F1",
"C. c #EAEDF4",
"Z. c #EFF1F6",
"A. c #F0F3F7",
"S. c #F4F6F9",
"D. c #F7F8FB",
"F. c #FFFFFF",
/* pixels */
"F.F.F.F.F.F.F.F.F.F.F.F.F.F.F.F.F.F.F.F.F.F.F.F.F.F.F.F.F.F.F.F.F.F.F.F.F.F.F.F.F.F.F.F.F.F.F.F.F.F.F.F.F.F.F.F.F.F.F.F.F.F.F.F.",
"F.F.F.F.F.F.F.F.F.F.F.F.F.F.F.F.F.F.F.F.F.F.F.F.F.F.F.F.F.F.F.F.F.F.F.F.F.F.F.F.F.F.F.F.F.F.F.F.F.F.F.F.F.F.F.F.F.F.F.F.F.F.F.F.",
"F.F.F.F.F.F.F.F.F.F.F.F.F.F.F.F.F.F.F.F.F.F.F.F.F.F.F.F.F.F.F.F.F.F.F.F.F.F.F.F.F.F.F.F.F.F.F.F.F.F.F.F.F.F.F.F.F.F.F.F.F.F.F.F.",
"F.F.F.F.F.F.F.F.F.F.F.F.F.F.F.F.F.F.F.F.F.F.F.F.F.F.F.F.F.F.F.F.F.F.F.F.F.D.F.F.F.F.D.F.F.F.F.F.F.F.F.F.F.F.F.F.F.F.F.F.F.F.F.F.",
"F.F.F.F.F.F.F.F.F.F.F.F.F.F.F.F.F.F.F.F.F.F.F.F.F.F.F.F.F.F.F.F.F.F.F.D.F.F.A.v.v.C.F.F.D.F.F.F.F.F.F.F.F.F.F.F.F.F.F.F.F.F.F.F.",
"F.F.F.F.F.F.F.F.F.F.F.F.F.F.F.F.F.F.F.F.F.F.F.F.F.F.F.F.F.F.F.F.F.F.F.F.C.&.4 @ $ 4 H N.F.F.F.F.F.F.F.F.F.F.F.F.F.F.F.F.F.F.F.F.",
"F.F.F.F.F.F.F.F.F.F.F.F.F.F.F.F.F.F.F.F.F.F.F.F.F.F.F.F.F.F.F.F.F.F.F.N.w . # 3 4 $ . : x.F.F.F.F.F.F.F.F.F.F.F.F.F.F.F.F.F.F.F.",
"F.F.F.F.F.F.F.F.F.F.F.F.F.F.F.F.F.F.F.F.F.F.F.F.F.F.F.F.F.F.F.F.F.F.F.a o e ,.i.i.2.d O > V.F.F.F.F.F.F.F.F.F.F.F.F.F.F.F.F.F.F.",
"F.F.F.F.F.F.F.F.F.F.F.F.F.F.F.F.F.F.F.F.F.F.F.F.F.F.F.F.F.F.F.F.D.F.7.X 4 y.f.p.p.s.s.s . &.F.D.F.F.F.F.F.F.F.F.F.F.F.F.F.F.F.F.",
"F.F.F.F.F.F.F.F.F.F.F.F.F.F.F.F.F.F.F.F.F.F.F.F.F.F.F.F.F.F.F.F.F.F.D . U f.u.p.p.i.d.,.@ > V.F.F.F.F.F.F.F.F.F.F.F.F.F.F.F.F.F.",
"F.F.F.F.F.F.F.F.F.F.F.F.F.F.F.F.F.F.F.F.F.F.F.F.F.F.F.F.F.F.F.F.F.F.f O ,.s.i.p.p.p.i.s.i . :.F.F.F.F.F.F.F.F.F.F.F.F.F.F.F.F.F.",
"F.F.F.F.F.F.F.F.F.F.F.F.F.F.F.F.F.F.F.F.F.F.F.F.F.F.F.F.F.F.F.F.F.F.x . o.f.p.p.p.p.i.f.X.O r S.F.F.F.F.F.F.F.F.F.F.F.F.F.F.F.F.",
"F.F.F.F.F.F.F.F.F.F.F.F.F.F.F.F.F.F.F.F.F.F.F.F.F.F.F.F.F.F.F.F.D.F.*.. N s.i.p.p.p.p.p.p.8 X 8.F.F.F.F.F.F.F.F.F.F.F.F.F.F.F.F.",
"F.F.F.F.F.F.F.F.F.F.F.F.F.F.F.F.F.F.F.F.F.F.F.F.F.F.F.F.F.F.F.F.F.F.v.% & r.s.p.p.p.p.i.f.U . x F.D.F.F.F.F.F.F.F.F.F.F.F.F.F.F.",
"F.F.F.F.F.F.F.F.F.F.F.F.F.F.F.F.F.F.F.F.F.F.F.F.F.F.F.F.F.F.F.F.F.F.F.S . G f.p.a.p.p.i.a.y.= & B.F.F.F.F.F.F.F.F.F.F.F.F.F.F.F.",
"F.F.F.F.F.F.F.F.F.F.F.F.F.F.F.F.F.F.F.F.F.F.F.F.F.F.F.F.F.F.F.F.F.F.F.k.O 2 y.p.p.p.p.f.a.y.8 @ k.D.A.D.D.F.F.F.F.F.F.F.F.F.F.F.",
"F.F.F.F.F.F.F.F.F.V.x.F.F.F.F.F.F.F.F.F.F.F.F.F.F.F.F.F.F.F.F.F.F.F.F.F.f O ^ f.i.a.s.^ e ; % $ : < 4 w y H x.F.F.F.F.F.F.F.F.F.",
"F.F.F.F.F.F.F.F.F.S . z.F.D.F.F.F.F.F.F.F.F.F.F.F.F.F.F.F.F.F.F.F.F.D.F.6.. 8 i.p.y.z O @ * 1 ; * * $ $ @ X $ =.F.F.F.F.F.F.F.F.",
"F.F.F.F.F.F.F.D.F.&.  H F.D.F.F.F.F.F.F.F.F.F.F.F.F.F.F.F.F.F.F.F.F.F.F.F.f O 9 9 2 # = T ' [ [ ' ' ` ` ! j $ O 3.F.F.F.F.F.F.F.",
"F.F.F.F.F.F.F.F.F.n.$ : V.F.F.F.F.F.F.F.F.F.F.F.F.F.F.F.F.F.F.F.F.F.F.F.B.r # O $ $ % ~ ..} | } | | | | | ..Y $ - B.F.F.F.F.F.F.",
"F.F.F.F.F.F.F.F.F.F.b . ;.D.V.F.F.F.F.F.F.F.F.F.F.F.F.F.F.F.F.F.F.F.F.Z.r O : / N + h ..{ { { { { { } } { { | 0 X 3.F.D.F.F.F.F.",
"F.F.F.F.F.F.F.F.D.F.4.O : : : x 5.F.F.F.F.F.F.F.F.F.F.F.F.F.F.F.F.F.F.*.. 7 t.h.M X E | { } } } } } } } } { | l . @.F.F.F.F.F.F.",
"F.F.F.F.F.F.F.F.F.l.< # # = & X . v Z.F.F.F.F.F.F.F.F.F.F.F.F.F.F.F.C.4 @ O.d.s.N X T | { } } } } } } } } {  .Y X @.F.D.F.F.F.F.",
"F.F.F.F.F.F.F.F.N.- O i O.t.r./ 2 . m F.F.F.F.F.F.F.F.F.F.F.F.F.F.F.3.. i p.u.f.U + 6 ..} { } } { { { } { { | u X 3.F.F.F.F.F.F.",
"F.F.F.F.F.F.D.F.H . a s.d.a.a.f.2.: O j.F.D.F.F.F.F.F.F.F.F.F.F.F.D.t O / f.i.a.t.- # k | | | | | ..| | | ..Z # = B.F.F.F.F.F.F.",
"F.F.F.F.F.F.F.Z.4 # 2.s.i.p.p.y.f.L . S F.F.F.F.F.F.F.F.F.F.F.F.F.9.O 4 i.p.p.p.d.( @ @ 6 T W Q ~ ~ ~ _ ! j $ o ;.F.F.F.F.F.F.F.",
"F.F.F.F.F.F.F.b.$ 4 i.p.a.p.p.p.s.e.* & M.F.F.F.F.F.F.F.F.F.F.F.F.x . I f.p.p.p.p.f.^ : $ @ X X O @ O # @ X @ =.F.F.F.F.F.F.F.F.",
"F.F.F.F.F.F.F.m.% 2 u.p.p.p.p.p.i.d.z . =.F.D.F.F.F.F.F.F.F.F.F.x.@ : t.a.p.p.p.p.i.g.) @ 4 n x f t r w t F x.F.F.F.F.F.F.F.F.F.",
"F.F.F.F.F.F.F.D.e @ O.d.p.p.p.p.i.d.O.O w S.F.F.F.F.F.F.F.F.F.F.D . V f.p.p.p.p.p.p.s.d . =.F.F.F.F.D.D.D.F.F.D.F.F.F.F.F.F.F.F.",
"F.F.F.F.F.F.D.F.*.. M d.p.p.a.p.p.p.p.8 O 8.F.D.F.D.F.D.F.D.F.n.& % e.s.p.p.p.p.p.s.1.@ : N.F.F.F.F.F.F.F.F.F.F.F.F.F.F.F.F.F.F.",
"F.F.F.F.F.F.F.F.b.% = r.a.p.p.p.p.i.f.I . b F.F.F.F.F.F.F.F.F.=.. M s.p.p.p.p.p.i.f.B . K F.D.F.F.F.F.F.F.F.F.F.F.F.F.F.F.F.F.F.",
"F.F.F.F.F.F.F.F.F.b . P f.i.p.p.a.p.s.e.& : -.3.:.:.:.:.:.:.3.e O X.f.p.p.p.p.p.s.e.& $ v.F.F.F.F.F.F.F.F.F.F.F.F.F.F.F.F.F.F.F.",
"F.F.F.F.F.F.F.F.F.9.X 8 i.p.p.p.p.p.p.u.3 $ X . . . . . X . . $ % 1.s.i.p.p.p.p.s.L . S F.F.F.F.F.F.F.F.F.F.F.F.F.F.F.F.F.F.F.F.",
"F.F.F.F.F.F.F.F.F.D.e O O.f.i.p.p.i.s.e.& & h j j j j j j j j 2 O ( f.i.p.p.p.p.y.> O q.F.D.F.F.F.F.F.F.F.F.F.F.F.F.F.F.F.F.F.F.",
"F.F.F.F.F.F.F.F.F.F.=.. s s.a.i.p.p.g.G X q ..| ..|  . . .| ..Z + i s.a.i.p.p.g.L O f F.F.F.F.F.F.F.F.F.F.F.F.F.F.F.F.F.F.F.F.F.",
"F.F.F.F.F.F.F.F.F.F.C.< O M i.s.f.p.I $ # W | { { { { { { { } [ = @ z y.d.f.p.^ % O 8.F.F.F.F.F.F.F.F.F.F.F.F.F.F.F.F.F.F.F.F.F.",
"F.F.F.F.F.F.F.F.F.D.F.q.& @ 2 c N 8 $ $ k | } } } } } } } } { | W & # : M B 8 # O %.F.F.F.F.F.F.F.F.F.F.F.F.F.F.F.F.F.F.F.F.F.F.",
"F.F.F.F.F.F.F.F.F.F.D.F.5.$ % X X $ % g ..} } } } } } } } } } { ..R % $ O X @ $ b F.F.F.F.F.F.F.F.F.F.F.F.F.F.F.F.F.F.F.F.F.F.F.",
"F.F.F.F.F.F.F.F.F.F.F.x.> @ : a d 3 # % Z | { { } } } } } } } | ~ 1 @ = s z 3 @ % =.F.F.F.F.F.F.F.F.F.F.F.F.F.F.F.F.F.F.F.F.F.F.",
"F.F.F.F.F.F.F.F.F.F.C.< O z t.d.s.y.C # # ~ | { { { { { { { } { 2 O s r.s.d.i.I $ O q.F.F.F.F.F.F.F.F.F.F.F.F.F.F.F.F.F.F.F.F.F.",
"F.F.F.F.F.F.F.F.F.F.=.. i a.d.i.i.a.f.V X q ..| | ..| | ..| ..T @ 8 p.d.i.p.p.g.L X x F.F.F.F.F.F.F.F.F.F.F.F.F.F.F.F.F.F.F.F.F.",
"F.F.F.F.F.F.F.F.F.D.r O o.f.i.p.p.i.s.2.% = l l l l l l l l l 5 X ^ f.u.p.p.p.a.t.= $ v.F.F.F.F.F.F.F.F.F.F.F.F.F.F.F.F.F.F.F.F.",
"F.F.F.F.F.F.F.F.F.q.O 4 u.p.p.p.p.p.a.y.: # X X . X . X . X . # $ O.d.i.p.a.p.p.d.B . #.F.F.F.F.F.F.F.F.F.F.F.F.F.F.F.F.F.F.F.F.",
"F.F.F.F.F.F.F.F.F.S . L f.i.p.p.p.p.a.e.& = @.&.$.%.%.%.%.@.&.r O ( f.i.p.p.p.p.d.+.@ 4 C.F.F.F.F.F.F.F.F.F.F.F.F.F.F.F.F.F.F.F.",
"F.F.F.F.F.F.F.F.N.= % e.s.p.p.p.p.p.f.U . b F.F.F.F.F.F.F.F.F.3.. d s.p.p.p.p.p.p.a.i . 6.F.D.F.F.F.F.F.F.F.F.F.F.F.F.F.F.F.F.F.",
"F.F.F.F.F.F.D.F.=.. z s.p.p.p.p.p.p.p.9 O 7.F.D.D.F.F.D.F.D.F.N.: $ 2.s.i.a.p.p.p.d.U . x F.F.F.F.F.F.F.F.F.F.F.F.F.F.F.F.F.F.F.",
"F.F.F.F.F.F.F.D.r O o.f.p.p.p.p.p.d.O.O w A.F.F.F.F.F.F.F.F.D.F.F . A f.p.p.p.p.p.a.y.: @ c.F.F.F.F.F.F.F.F.F.F.F.F.F.F.F.F.F.F.",
"F.F.F.F.F.F.F.q.O 8 i.p.p.p.p.p.i.f.M . *.F.D.F.F.F.F.F.F.F.F.F.l.@ 3 y.p.p.p.a.p.i.s.V . @.F.F.F.F.F.F.F.F.F.F.F.F.F.F.F.F.F.F.",
"F.F.F.F.F.D.F.S . L f.i.p.p.p.p.s.r.= % v.F.F.F.F.F.F.F.F.F.F.F.F.t X ) f.p.p.p.p.p.s.<.@ 4 C.F.F.F.F.F.F.F.F.F.F.F.F.F.F.F.F.F.",
"F.F.F.F.F.F.B.: % e.s.p.p.p.p.p.d.U . b F.F.F.F.F.F.F.F.F.F.F.F.F.:.. a d.p.p.p.p.p.p.a.u . 7.F.F.F.F.F.F.F.F.F.F.F.F.F.F.F.F.F.",
"F.F.F.F.F.F.k.O e p.p.p.p.p.p.p.p.e o 8.F.F.F.F.F.F.F.F.F.F.F.F.F.B.: $ 1.s.p.p.p.p.i.f.L . &.F.D.F.F.F.F.F.F.F.F.F.F.F.F.F.F.F.",
"F.F.F.F.F.F.q.O i a.p.p.p.p.i.f.O.O w A.F.F.F.F.F.F.F.F.F.F.F.F.F.F.H . C f.i.p.p.p.i.f.L . %.F.F.F.F.F.F.F.F.F.F.F.F.F.F.F.F.F.",
"F.F.F.F.F.F.M.& = r.s.i.p.p.u.f.M . *.F.F.F.F.F.F.F.F.F.F.F.F.F.F.F.k.@ 2 y.a.i.p.p.i.f.s . 5.F.F.F.F.F.F.F.F.F.F.F.F.F.F.F.F.F.",
"F.F.F.F.F.F.F.b X M d.d.s.s.g.X.$ & m.F.F.F.F.F.F.F.F.F.F.F.F.F.F.F.F.f o V f.s.s.s.g.^ @ : V.F.F.F.F.F.F.F.F.F.F.F.F.F.F.F.F.F.",
"F.F.F.F.F.F.F.v.% O d ,.e.w.L & . *.F.D.F.F.F.F.F.F.F.F.F.F.F.F.F.D.F.k.@ $ z <.e.1.V % . :.F.F.F.F.F.F.F.F.F.F.F.F.F.F.F.F.F.F.",
"F.F.F.F.F.F.D.F.q.- . O * $ . O @.F.F.F.F.F.F.F.F.F.F.F.F.F.F.F.F.F.F.F.5.& . @ % O . $ *.F.F.F.F.F.F.F.F.F.F.F.F.F.F.F.F.F.F.F.",
"F.F.F.F.F.F.F.F.F.N.%.t , 7 m j.F.F.F.F.F.F.F.F.F.F.F.F.F.F.F.F.F.F.F.F.F.M.@.r , w D x.F.F.F.F.F.F.F.F.F.F.F.F.F.F.F.F.F.F.F.F.",
"F.F.F.F.F.F.F.F.F.F.F.D.C.S.F.F.F.F.F.F.F.F.F.F.F.F.F.F.F.F.F.F.F.F.F.F.D.F.F.D.Z.A.F.F.F.F.F.F.F.F.F.F.F.F.F.F.F.F.F.F.F.F.F.F.",
"F.F.F.F.F.F.F.F.F.F.D.F.F.F.F.D.F.F.F.F.F.F.F.F.F.F.F.F.F.F.F.F.F.F.F.F.F.F.F.F.F.F.F.F.F.F.F.F.F.F.F.F.F.F.F.F.F.F.F.F.F.F.F.F.",
"F.F.F.F.F.F.F.F.F.F.F.F.F.F.F.F.F.F.F.F.F.F.F.F.F.F.F.F.F.F.F.F.F.F.F.F.F.F.F.F.F.F.F.F.F.F.F.F.F.F.F.F.F.F.F.F.F.F.F.F.F.F.F.F.",
"F.F.F.F.F.F.F.F.F.F.F.F.F.F.F.F.F.F.F.F.F.F.F.F.F.F.F.F.F.F.F.F.F.F.F.F.F.F.F.F.F.F.F.F.F.F.F.F.F.F.F.F.F.F.F.F.F.F.F.F.F.F.F.F.",
"F.F.F.F.F.F.F.F.F.F.F.F.F.F.F.F.F.F.F.F.F.F.F.F.F.F.F.F.F.F.F.F.F.F.F.F.F.F.F.F.F.F.F.F.F.F.F.F.F.F.F.F.F.F.F.F.F.F.F.F.F.F.F.F.",
"F.F.F.F.F.F.F.F.F.F.F.F.F.F.F.F.F.F.F.F.F.F.F.F.F.F.F.F.F.F.F.F.F.F.F.F.F.F.F.F.F.F.F.F.F.F.F.F.F.F.F.F.F.F.F.F.F.F.F.F.F.F.F.F.",
"F.F.F.F.F.F.F.F.F.F.F.F.F.F.F.F.F.F.F.F.F.F.F.F.F.F.F.F.F.F.F.F.F.F.F.F.F.F.F.F.F.F.F.F.F.F.F.F.F.F.F.F.F.F.F.F.F.F.F.F.F.F.F.F."
};
