/* XPM */
static char *player__16_1710156992[] = {
/* columns rows colors chars-per-pixel */
"64 64 151 2 ",
"   c #00095F",
".  c #001564",
"X  c #001A65",
"o  c #001768",
"O  c #001C6A",
"+  c #002166",
"@  c #00236D",
"#  c #012571",
"$  c #042974",
"%  c #0A2C77",
"&  c #052979",
"*  c #0C2E79",
"=  c #112F79",
"-  c #0E3079",
";  c #13337D",
":  c #19357E",
">  c #1C387F",
",  c #0F3084",
"<  c #133384",
"1  c #193682",
"2  c #1D3B82",
"3  c #15348A",
"4  c #18378B",
"5  c #1C398F",
"6  c #1B3790",
"7  c #223C86",
"8  c #253D8A",
"9  c #293F8D",
"0  c #253D9D",
"q  c #244285",
"w  c #2A4687",
"e  c #27408C",
"r  c #2A448B",
"t  c #2D4A8A",
"y  c #324D8D",
"u  c #34508E",
"i  c #2E4390",
"p  c #324594",
"a  c #354996",
"s  c #394A97",
"d  c #3E4C9B",
"f  c #365391",
"g  c #3C5692",
"h  c #3E5994",
"j  c #2B41A5",
"k  c #2F44AA",
"l  c #3145AC",
"z  c #3546B3",
"x  c #3D4CBC",
"c  c #414F9D",
"v  c #435B96",
"b  c #466099",
"n  c #4C639B",
"m  c #51669C",
"M  c #52699F",
"N  c #4551A1",
"B  c #4A54A4",
"V  c #4E56A9",
"C  c #545AAB",
"Z  c #595DAE",
"A  c #5A5EB0",
"S  c #566CA1",
"D  c #586EA2",
"F  c #5C72A4",
"G  c #5E61B2",
"H  c #6276A7",
"J  c #6377A8",
"K  c #6478A8",
"L  c #697DAC",
"P  c #6263B5",
"I  c #6765B9",
"U  c #6966B9",
"Y  c #6C69BC",
"T  c #424EC3",
"R  c #4350C4",
"E  c #4D55D2",
"W  c #5056D6",
"Q  c #5659DF",
"!  c #746EC2",
"~  c #7A71C5",
"^  c #7E74C9",
"/  c #575AE0",
"(  c #5A5CE4",
")  c #5F5FEA",
"_  c #605FEC",
"`  c #6663F5",
"'  c #6864F7",
"]  c #6B66FB",
"[  c #6F68FF",
"{  c #726AFF",
"}  c #8377CC",
"|  c #8579CE",
" . c #8C7CD2",
".. c #917FD6",
"X. c #6C81AF",
"o. c #7283AF",
"O. c #6E83B0",
"+. c #7485B1",
"@. c #768AB5",
"#. c #798BB4",
"$. c #7B8EB8",
"%. c #7F90B7",
"&. c #8494BA",
"*. c #8798BD",
"=. c #8D9DC0",
"-. c #909FC1",
";. c #9180D6",
":. c #9C86DE",
">. c #9F88DF",
",. c #93A2C3",
"<. c #98A6C7",
"1. c #9CAAC9",
"2. c #A1AECB",
"3. c #A5B2CD",
"4. c #A8B4CF",
"5. c #ABB7D1",
"6. c #AEB9D2",
"7. c #B2BDD4",
"8. c #9F88E0",
"9. c #A38BE2",
"0. c #A88EE6",
"q. c #AA8FE8",
"w. c #AE92EA",
"e. c #B294ED",
"r. c #B797F0",
"t. c #B897F1",
"y. c #BB9AF4",
"u. c #C09DF7",
"i. c #C39EF9",
"p. c #C6A1FB",
"a. c #CAA2FE",
"s. c #D0A6FF",
"d. c #D4A9FF",
"f. c #B5C0D6",
"g. c #BBC4D9",
"h. c #C2CADD",
"j. c #C7CFE0",
"k. c #C8CFE0",
"l. c #CCD3E2",
"z. c #D4D9E6",
"x. c #D7DCE9",
"c. c #D9DEEA",
"v. c #DDE1EC",
"b. c #E2E6EF",
"n. c #E6EAF2",
"m. c #EAEEF4",
"M. c #EEF1F6",
"N. c #F0F3F7",
"B. c #F4F5F9",
"V. c #F7F8FB",
"C. c #FFFFFF",
/* pixels */
"C.C.C.C.C.C.C.C.C.C.C.C.C.C.C.C.C.C.C.C.C.C.C.C.C.C.C.C.C.C.C.C.C.C.C.C.C.C.C.C.C.C.C.C.C.C.C.C.C.C.C.C.C.C.C.C.C.C.C.C.C.C.C.C.",
"C.C.C.C.C.C.C.C.C.C.C.C.C.C.C.C.C.C.C.C.C.C.C.C.C.C.C.C.C.C.C.C.C.C.C.C.C.V.V.C.C.C.C.C.C.C.C.C.C.C.C.C.C.C.C.C.C.C.C.C.C.C.C.C.",
"C.C.C.C.C.C.C.C.C.C.C.C.C.C.C.C.C.C.C.C.C.C.C.C.C.C.C.C.C.C.C.C.C.C.C.C.C.C.C.C.C.C.C.C.C.C.C.C.C.C.C.C.C.C.C.C.C.C.C.C.C.C.C.C.",
"C.C.C.C.C.C.C.C.C.C.C.C.C.C.C.C.C.C.C.C.C.C.C.C.C.C.C.C.C.C.C.C.C.C.C.C.l.*.@.*.g.C.C.V.C.C.C.C.C.C.C.C.C.C.C.C.C.C.C.C.C.C.C.C.",
"C.C.C.C.C.C.C.C.C.C.C.C.C.C.C.C.C.C.C.C.C.C.C.C.C.C.C.C.C.C.C.C.C.C.N.D # . . . @ g x.C.C.C.C.C.C.C.C.C.C.C.C.C.C.C.C.C.C.C.C.C.",
"C.C.C.C.C.C.C.C.C.C.C.C.C.C.C.C.C.C.C.C.C.C.C.C.C.C.C.C.C.C.C.C.C.B.f . % B P C : o : z.C.V.C.C.C.C.C.C.C.C.C.C.C.C.C.C.C.C.C.C.",
"C.C.C.C.C.C.C.C.C.C.C.C.C.C.C.C.C.C.C.C.C.C.C.C.C.C.C.C.C.C.C.C.C.+.. 7 >.a.i.a.w.a X 7 c.C.V.C.C.C.C.C.C.C.C.C.C.C.C.C.C.C.C.C.",
"C.C.C.C.C.C.C.C.C.C.C.C.C.C.C.C.C.C.C.C.C.C.C.C.C.C.C.C.C.C.C.C.m.; # ..a.t.t.t.i.y.p X q b.C.C.C.C.C.C.C.C.C.C.C.C.C.C.C.C.C.C.",
"C.C.C.C.C.C.C.C.C.C.C.C.C.C.C.C.C.C.C.C.C.C.C.C.C.C.C.C.C.C.C.C.g.@ 9 y.y.y.y.y.y.u.r.e o t M.C.C.C.C.C.C.C.C.C.C.C.C.C.C.C.C.C.",
"C.C.C.C.C.C.C.C.C.C.C.C.C.C.C.C.C.C.C.C.C.C.C.C.C.C.C.C.C.C.C.C.7.o a i.y.y.y.y.y.y.u.e.7 . h C.C.C.C.C.C.C.C.C.C.C.C.C.C.C.C.C.",
"C.C.C.C.C.C.C.C.C.C.V.C.C.C.C.C.C.C.C.C.C.C.C.C.C.C.C.C.C.C.V.C.k.@ 1 t.y.y.y.y.y.y.t.i.0.1 . &.C.V.V.C.C.C.C.C.C.C.C.C.C.C.C.C.",
"C.C.C.C.C.C.C.C.C.C.C.C.C.C.C.C.C.C.C.C.C.C.C.C.C.C.C.C.C.C.C.C.C.t O Y a.y.y.y.y.y.y.t.p. .@ 2 V.C.C.C.C.C.V.C.C.C.C.C.C.C.C.C.",
"C.C.C.C.C.C.C.C.C.x.2.C.C.C.C.C.C.C.C.C.C.C.C.C.C.C.C.C.C.C.C.C.C.2.O % | a.t.y.y.y.y.y.a.e.1 $ 6.N.V.C.C.C.C.C.C.C.C.C.C.C.C.C.",
"C.C.C.C.C.C.C.C.C.m   7.C.C.C.C.C.C.C.C.C.C.C.C.C.C.C.C.C.C.C.C.C.C.L . % ..a.y.a.a.a.y.P ; $ @ $ ; w v H $.6.V.C.C.C.C.C.C.C.C.",
"C.C.C.C.C.C.C.V.C.&.. m C.V.C.C.C.C.C.C.C.C.C.C.C.C.C.C.C.C.C.C.C.C.C.H . - :.e.~ P Y p X @ < 6 < $ @ O X . O r h.C.V.C.C.C.C.C.",
"C.C.C.C.C.C.C.C.C.v.% % v.C.C.C.C.C.C.C.C.C.C.C.C.C.C.C.C.C.C.C.C.C.C.C.S o ; < X X @ @ < E ` ] ` _ Q E T l < X $ h.C.C.C.C.C.C.",
"C.C.C.C.C.C.C.C.C.C.F . #.v.l.V.C.C.C.C.C.C.C.C.C.C.C.C.C.C.C.C.C.C.C.C.V.2 @ # d c $ % Q { ' ` ] ] ] [ [ [ ` j + q N.C.C.C.C.C.",
"C.C.C.C.C.C.C.C.V.C.,.O $ # $ q %.N.C.C.C.C.C.C.C.C.C.C.C.C.C.C.C.C.V.C.<.@ - | d.! + j [ ` ' ` ` ` ` ` ` ` ] ' 4 X 1.C.C.C.C.C.",
"C.C.C.C.C.C.C.C.C.2.% @ $ 2 1 O . t b.C.C.C.C.C.C.C.C.C.C.C.C.C.C.C.C.m.> O ~ a.i.V X x ] ' ` ] ` ] ] ` ' ' ` [ x . L C.C.C.C.C.",
"C.C.C.C.C.C.C.C.l.$ @ N 9.y.r. .8 o v C.C.C.C.C.C.C.C.C.C.C.C.C.C.C.C.@.. p i.t.a.A X z { ` ` ] ` ` ` ] ' ' ` [ R X H C.C.C.C.C.",
"C.C.C.C.C.C.V.C.S . B a.i.y.y.a.q.1 o 5.C.C.C.C.C.C.C.C.C.C.C.C.V.C.c.* @  .p.t.p.| @ < ` ] ` ` ` ' ` ` ` ] ` [ l X #.C.V.C.C.C.",
"C.C.C.C.C.C.C.m.: $ 9.i.y.y.y.r.a.Y . n C.V.C.C.C.C.C.C.C.C.C.C.C.C.F . N p.y.y.y.y.9 X 0 ` ] { ] ] ] ] ` ` { ( * O g.C.C.C.C.C.",
"C.C.C.C.C.C.C.l.# 2 y.y.y.y.y.y.i.q.= $ l.C.C.C.C.C.C.C.C.C.C.C.C.h.@ % 8.i.y.y.y.i.:.% @ < l T E / _ ` ] ] E 3 . n C.C.C.C.C.C.",
"C.C.C.C.C.C.C.v.$ ; e.u.y.y.y.y.t.p.B . @.C.V.C.C.C.C.C.C.C.C.C.C.v . Z p.y.y.y.y.y.i.>.2 # X . O @ $ < 6 3 @ . f m.C.C.C.C.C.C.",
"C.C.C.C.C.C.C.C.t O } p.y.y.y.y.y.p.;.@ 7 M.C.C.C.C.C.C.C.C.C.C.4.o < e.y.y.y.y.y.y.y.y.e O F L v t ; $ O @ > #.N.C.C.C.C.C.C.C.",
"C.C.C.C.C.C.V.C.*.. d i.y.y.y.y.y.y.u.r X 1.C.V.C.V.V.C.V.C.C.N.t O Y p.y.y.y.y.y.y.a.I X y C.C.C.V.m.l.g.h.M.C.C.C.C.C.C.C.C.C.",
"C.C.C.C.C.C.C.C.b.* $ >.i.y.y.y.y.t.a.! X v C.C.C.C.C.C.C.C.C.6.X q y.y.y.u.y.y.y.y.0.; O 7.C.V.C.C.C.C.C.C.C.C.C.C.C.C.C.C.C.C.",
"C.C.C.C.C.C.C.C.C.F . G a.y.y.y.y.y.u.0.% * L X.O.X.+.X.O.X.@.u o P a.y.y.y.y.y.y.a.C X n C.C.C.C.C.C.V.C.C.C.C.C.C.C.C.C.C.C.C.",
"C.C.C.C.C.C.C.C.C.g.O 2 e.u.y.y.y.y.y.e.1 # X . . X X . . X . @ # ! p.r.y.y.y.y.p.:.$ # j.C.C.C.C.C.C.C.C.C.C.C.C.C.C.C.C.C.C.C.",
"C.C.C.C.C.C.C.C.C.V.f X ^ a.r.y.y.y.i.9.$ * x x x x x x x x T 9 O A a.r.y.y.y.r.p.d . K C.V.C.C.C.C.C.C.C.C.C.C.C.C.C.C.C.C.C.C.",
"C.C.C.C.C.C.C.C.C.C.*.. 9 y.i.y.y.y.a.V X 0 { [ [ [ [ [ ] { { W + 1 e.p.p.a.p.d.| @ ; v.C.C.C.C.C.C.C.C.C.C.C.C.C.C.C.C.C.C.C.C.",
"C.C.C.C.C.C.C.C.C.C.N.w O a 0.i.i.r.Z @ $ Q ] ` ` ` ` ` ` ` ` ' 6 + p 8.^ C C I : o &.C.V.C.C.C.C.C.C.C.C.C.C.C.C.C.C.C.C.C.C.C.",
"C.C.C.C.C.C.C.C.C.V.C.g.# # # 7 9 - @ $ T { ` ' ' ' ' ' ' ' ' ] ( < @ % + X X X # q V.C.C.C.C.C.C.C.C.C.C.C.C.C.C.C.C.C.C.C.C.C.",
"C.C.C.C.C.C.C.C.C.C.V.b @ $ p c i $ $ < ` ' ' ' ' ' ' ' ' ' ' ` { z # $ p I Y d $ @ L C.C.C.C.C.C.C.C.C.C.C.C.C.C.C.C.C.C.C.C.C.",
"C.C.C.C.C.C.C.C.C.C.F . 1 ..i.a.a.>.7 @ 0 [ ` ' ' ' ' ' ' ' ' ] / % @ I p.a.a.a.| % . @.C.V.C.C.C.C.C.C.C.C.C.C.C.C.C.C.C.C.C.C.",
"C.C.C.C.C.C.C.V.C.&.o % :.a.y.y.r.a.>.% # Q ] ` ` ` ` ` ` ` ` ] k X B a.y.t.y.e.a.| $ o &.C.C.C.C.C.C.C.C.C.C.C.C.C.C.C.C.C.C.C.",
"C.C.C.C.C.C.V.C.5.@ @ ^ a.y.y.y.y.r.a.N X R { [ ] [ [ [ ] { { [ 4 @  .i.t.y.y.y.r.a.~ # O ,.C.V.C.C.C.C.C.C.C.C.C.C.C.C.C.C.C.C.",
"C.C.C.C.C.V.C.z.= O P a.y.y.y.y.y.t.a.G + 5 l l l l l l k k k j * $ >.i.y.y.y.y.y.y.a.Y @ @ 3.C.V.C.C.C.C.C.C.C.C.C.C.C.C.C.C.C.",
"C.C.C.C.C.C.M.r o c i.y.y.y.y.y.y.t.a.N @ X . X X . . X . X X . # @ } a.y.y.y.y.y.y.y.a.P O $ 7.C.V.C.C.C.C.C.C.C.C.C.C.C.C.C.C.",
"C.C.C.C.C.C.n X e t.y.y.y.y.y.y.y.i.9.* $ &.2.<.1.1.<.1.1.1.<.3.K o r y.y.y.y.y.y.y.y.y.p.C @ * l.C.C.C.C.C.C.C.C.C.C.C.C.C.C.C.",
"C.C.C.V.C.+.o ; 9.i.t.y.y.y.y.y.y.y.i X S C.C.C.C.C.C.C.C.C.C.C.N.7 X N i.y.y.y.y.y.y.y.y.p.B X : v.C.C.C.C.C.C.C.C.C.C.C.C.C.C.",
"C.C.C.C.7.O $ | a.y.y.y.y.y.y.y.a.B X 7 b.C.V.C.V.C.C.V.V.C.C.V.C.l.% @ C p.y.y.y.y.y.y.y.y.y.s . D C.C.C.C.C.C.C.C.C.C.C.C.C.C.",
"C.C.C.C.g o P a.t.y.y.y.y.y.y.a.U @ % k.C.C.C.C.C.C.C.C.C.C.C.C.C.C.7.# O G a.y.y.u.y.y.y.y.p.9.$ ; b.C.C.C.C.C.C.C.C.C.C.C.C.C.",
"C.C.C.v.% - w.u.y.y.u.y.y.y.a.| # O 1.C.V.C.C.C.C.C.C.C.C.C.C.C.C.V.C.2.# @ U a.y.y.y.y.y.y.y.y.9 O g.C.C.C.C.C.C.C.C.C.C.C.C.C.",
"C.C.C.j.@ 7 y.y.y.y.y.y.t.i.9.; o #.C.V.C.C.C.C.C.C.C.C.C.C.C.C.C.C.V.C.,.O # ! a.y.y.y.y.y.y.y.9 O g.C.C.C.C.C.C.C.C.C.C.C.C.C.",
"C.C.C.x.% ; r.y.y.y.y.y.y.r.7 X n C.C.C.C.C.C.C.C.C.C.C.C.C.C.C.C.C.C.C.C.&.O # } a.e.y.y.y.p.9.$ - b.C.C.C.C.C.C.C.C.C.C.C.C.C.",
"C.C.C.C.y O ! a.t.t.t.u.p.d X r M.C.C.C.C.C.C.C.C.C.C.C.C.C.C.C.C.C.C.C.C.C.+.o %  .a.p.y.p.u.d . n C.C.C.C.C.C.C.C.C.C.C.C.C.C.",
"C.C.C.C.<.o - } i.a.a.y.V @ ; z.C.C.C.C.C.C.C.C.C.C.C.C.C.C.C.C.C.C.C.C.C.C.C.H . % I >.q.;.a O ; x.C.C.C.C.C.C.C.C.C.C.C.C.C.C.",
"C.C.C.C.C.H . @ s G C 2 o # 7.C.V.C.C.C.C.C.C.C.C.C.C.C.C.C.C.C.C.C.C.C.C.C.C.C.K o X # $ O . : h.C.V.C.C.C.C.C.C.C.C.C.C.C.C.C.",
"C.C.C.C.C.C.&.= . . . o t g.C.C.C.C.C.C.C.C.C.C.C.C.C.C.C.C.C.C.C.C.C.C.C.C.C.C.C.4.n 2 2 y #.n.C.C.C.C.C.C.C.C.C.C.C.C.C.C.C.C.",
"C.C.C.C.C.C.C.b.2.*.*.7.V.C.V.C.C.C.C.C.C.C.C.C.C.C.C.C.C.C.C.C.C.C.C.C.C.C.C.C.C.C.C.V.N.C.C.C.C.C.C.C.C.C.C.C.C.C.C.C.C.C.C.C.",
"C.C.C.C.C.C.C.C.C.C.C.C.C.C.C.C.C.C.C.C.C.C.C.C.C.C.C.C.C.C.C.C.C.C.C.C.C.C.C.C.C.C.C.C.C.C.C.C.C.C.C.C.C.C.C.C.C.C.C.C.C.C.C.C.",
"C.C.C.C.C.C.C.C.V.C.V.C.C.C.C.C.C.C.C.C.C.C.C.C.C.C.C.C.C.C.C.C.C.C.C.C.C.C.C.C.C.C.C.C.C.C.C.C.C.C.C.C.C.C.C.C.C.C.C.C.C.C.C.C.",
"C.C.C.C.C.C.C.C.C.C.C.C.C.C.C.C.C.C.C.C.C.C.C.C.C.C.C.C.C.C.C.C.C.C.C.C.C.C.C.C.C.C.C.C.C.C.C.C.C.C.C.C.C.C.C.C.C.C.C.C.C.C.C.C.",
"C.C.C.C.C.C.C.C.C.C.C.C.C.C.C.C.C.C.C.C.C.C.C.C.C.C.C.C.C.C.C.C.C.C.C.C.C.C.C.C.C.C.C.C.C.C.C.C.C.C.C.C.C.C.C.C.C.C.C.C.C.C.C.C.",
"C.C.C.C.C.C.C.C.C.C.C.C.C.C.C.C.C.C.C.C.C.C.C.C.C.C.C.C.C.C.C.C.C.C.C.C.C.C.C.C.C.C.C.C.C.C.C.C.C.C.C.C.C.C.C.C.C.C.C.C.C.C.C.C.",
"C.C.C.C.C.C.C.C.C.C.C.C.C.C.C.C.C.C.C.C.C.C.C.C.C.C.C.C.C.C.C.C.C.C.C.C.C.C.C.C.C.C.C.C.C.C.C.C.C.C.C.C.C.C.C.C.C.C.C.C.C.C.C.C.",
"C.C.C.C.C.C.C.C.C.C.C.C.C.C.C.C.C.C.C.C.C.C.C.C.C.C.C.C.C.C.C.C.C.C.C.C.C.C.C.C.C.C.C.C.C.C.C.C.C.C.C.C.C.C.C.C.C.C.C.C.C.C.C.C.",
"C.C.C.C.C.C.C.C.C.C.C.C.C.C.C.C.C.C.C.C.C.C.C.C.C.C.C.C.C.C.C.C.C.C.C.C.C.C.C.C.C.C.C.C.C.C.C.C.C.C.C.C.C.C.C.C.C.C.C.C.C.C.C.C.",
"C.C.C.C.C.C.C.C.C.C.C.C.C.C.C.C.C.C.C.C.C.C.C.C.C.C.C.C.C.C.C.C.C.C.C.C.C.C.C.C.C.C.C.C.C.C.C.C.C.C.C.C.C.C.C.C.C.C.C.C.C.C.C.C.",
"C.C.C.C.C.C.C.C.C.C.C.C.C.C.C.C.C.C.C.C.C.C.C.C.C.C.C.C.C.C.C.C.C.C.C.C.C.C.C.C.C.C.C.C.C.C.C.C.C.C.C.C.C.C.C.C.C.C.C.C.C.C.C.C.",
"C.C.C.C.C.C.C.C.C.C.C.C.C.C.C.C.C.C.C.C.C.C.C.C.C.C.C.C.C.C.C.C.C.C.C.C.C.C.C.C.C.C.C.C.C.C.C.C.C.C.C.C.C.C.C.C.C.C.C.C.C.C.C.C.",
"C.C.C.C.C.C.C.C.C.C.C.C.C.C.C.C.C.C.C.C.C.C.C.C.C.C.C.C.C.C.C.C.C.C.C.C.C.C.C.C.C.C.C.C.C.C.C.C.C.C.C.C.C.C.C.C.C.C.C.C.C.C.C.C.",
"C.C.C.C.C.C.C.C.C.C.C.C.C.C.C.C.C.C.C.C.C.C.C.C.C.C.C.C.C.C.C.C.C.C.C.C.C.C.C.C.C.C.C.C.C.C.C.C.C.C.C.C.C.C.C.C.C.C.C.C.C.C.C.C."
};
