/* XPM */
static char *player__40_1710156996[] = {
/* columns rows colors chars-per-pixel */
"64 64 154 2 ",
"   c #001564",
".  c #001A66",
"X  c #001768",
"o  c #001C6A",
"O  c #002166",
"+  c #00236D",
"@  c #01286F",
"#  c #012571",
"$  c #042974",
"%  c #092D76",
"&  c #072B79",
"*  c #0C2D7B",
"=  c #0E307A",
"-  c #12327C",
";  c #19397F",
":  c #0F3082",
">  c #163580",
",  c #1A3683",
"<  c #1D3B83",
"1  c #16358A",
"2  c #19358D",
"3  c #1C3792",
"4  c #1E3994",
"5  c #213B86",
"6  c #243D89",
"7  c #2B3F8E",
"8  c #203B96",
"9  c #243D9B",
"0  c #264286",
"q  c #27408C",
"w  c #2A428D",
"e  c #2E4A8A",
"r  c #314D8D",
"t  c #36518F",
"y  c #2F4391",
"u  c #324693",
"i  c #374996",
"p  c #394997",
"a  c #3C4C9A",
"s  c #375290",
"d  c #3C5693",
"f  c #3F5994",
"g  c #2A40A5",
"h  c #2E42AB",
"j  c #3244AE",
"k  c #3446B1",
"l  c #3748B4",
"z  c #3949B6",
"x  c #3D4BBD",
"c  c #414E9E",
"v  c #435C96",
"b  c #43509E",
"n  c #465F99",
"m  c #4C639B",
"M  c #51679E",
"N  c #51689E",
"B  c #4552A1",
"V  c #4D56A5",
"C  c #4F58A7",
"Z  c #5057A9",
"A  c #545AAA",
"S  c #595DAE",
"D  c #5B5EB0",
"F  c #566BA1",
"G  c #596DA2",
"H  c #5D72A5",
"J  c #5D60B1",
"K  c #6377A7",
"L  c #657AA9",
"P  c #6A7DAC",
"I  c #6264B5",
"U  c #6666B8",
"Y  c #6867B9",
"T  c #6C69BC",
"R  c #706CBF",
"E  c #3F4CC0",
"W  c #424EC4",
"Q  c #454FC8",
"!  c #4752CA",
"~  c #4952CD",
"^  c #756FC2",
"/  c #7770C3",
"(  c #7A72C6",
")  c #7E74C9",
"_  c #5A5BE4",
"`  c #5C5DE8",
"'  c #605FEC",
"]  c #6160ED",
"[  c #6663F5",
"{  c #6864F7",
"}  c #6C66FC",
"|  c #6F68FF",
" . c #736BFF",
".. c #8276CB",
"X. c #877ACF",
"o. c #8B7CD1",
"O. c #917ED5",
"+. c #6E80AD",
"@. c #7284B0",
"#. c #7688B3",
"$. c #7B8CB5",
"%. c #7E8FB8",
"&. c #8190B7",
"*. c #8394BB",
"=. c #8897BC",
"-. c #8799BE",
";. c #8B9ABE",
":. c #8E9EC2",
">. c #909FC1",
",. c #9280D6",
"<. c #9682D9",
"1. c #9A85DC",
"2. c #94A2C4",
"3. c #98A6C6",
"4. c #9BA8C7",
"5. c #9DAAC9",
"6. c #A1AECC",
"7. c #A6B2CD",
"8. c #A8B3CF",
"9. c #ABB6D1",
"0. c #AEB9D2",
"q. c #B2BCD4",
"w. c #9F88E0",
"e. c #A58CE4",
"r. c #A98EE7",
"t. c #AA8FE8",
"y. c #AD91EA",
"u. c #B394ED",
"i. c #B797F0",
"p. c #B897F1",
"a. c #BB9AF4",
"s. c #C09DF7",
"d. c #C39EF9",
"f. c #C6A0FB",
"g. c #CAA2FD",
"h. c #D0A6FF",
"j. c #D2A8FF",
"k. c #B7C1D7",
"l. c #BBC4D9",
"z. c #C1C9DD",
"x. c #C8CFE0",
"c. c #CAD1E2",
"v. c #D3D9E6",
"b. c #D7DDE9",
"n. c #DADEEA",
"m. c #DEE3ED",
"M. c #E1E5EE",
"N. c #E3E7F0",
"B. c #E5E9F1",
"V. c #EAEEF4",
"C. c #EFF1F7",
"Z. c #F4F6F9",
"A. c #F7F8FA",
"S. c #FFFFFF",
/* pixels */
"S.S.S.S.S.S.S.S.S.S.S.S.S.S.S.S.S.S.S.S.S.S.S.S.S.S.S.S.S.S.S.S.S.S.S.S.S.S.S.S.S.S.S.S.S.S.S.S.S.S.S.S.S.S.S.S.S.S.S.S.S.S.S.S.",
"S.S.S.S.S.S.S.S.S.S.S.S.S.S.S.S.S.S.S.S.S.S.S.S.S.S.S.S.S.S.S.S.S.S.S.S.S.S.S.S.S.S.S.S.S.S.S.S.S.S.S.S.S.S.S.S.S.S.S.S.S.S.S.S.",
"S.S.S.S.S.S.S.S.S.S.S.S.S.S.S.S.S.S.S.S.S.S.S.S.S.S.S.S.S.S.S.S.S.S.S.S.S.S.S.S.S.S.S.S.S.S.S.S.S.S.S.S.S.S.S.S.S.S.S.S.S.S.S.S.",
"S.S.S.S.S.S.S.S.S.S.S.S.S.S.S.S.S.S.S.S.S.S.S.S.S.S.S.S.S.S.S.S.S.S.S.S.S.S.S.S.S.S.S.S.S.S.S.S.S.S.S.S.S.S.S.S.S.S.S.S.S.S.S.S.",
"S.S.S.S.S.S.S.S.S.S.S.S.S.S.S.S.S.S.S.S.S.S.S.S.S.S.S.S.S.S.S.S.S.S.S.S.S.S.S.S.S.S.S.S.S.S.S.S.S.S.S.S.S.S.S.S.S.S.S.S.S.S.S.S.",
"S.S.S.S.S.S.S.S.S.S.S.S.S.S.S.S.S.S.S.S.S.S.S.S.S.S.S.S.S.S.S.S.S.S.S.S.S.S.S.A.S.S.S.S.S.S.S.S.S.S.S.S.S.S.S.S.S.S.S.S.S.S.S.S.",
"S.S.S.S.S.S.S.S.S.S.S.S.S.S.S.S.S.S.S.S.S.S.S.S.S.S.S.S.S.S.S.S.S.S.S.m.c.n.S.S.S.S.S.S.S.S.S.S.S.S.S.S.S.S.S.S.S.S.S.S.S.S.S.S.",
"S.S.S.S.S.S.S.S.S.S.S.S.S.S.S.S.S.S.S.S.S.S.S.S.S.S.S.S.S.S.S.S.S.0.d % + $ e 3.S.S.S.S.S.S.S.S.S.S.S.S.S.S.S.S.S.S.S.S.S.S.S.S.",
"S.S.S.S.S.S.S.S.S.S.S.S.S.S.S.S.S.S.S.S.S.S.S.S.S.S.S.S.S.S.S.S.&.o . * 6 - o X H S.S.S.S.S.S.S.S.S.S.S.S.S.S.S.S.S.S.S.S.S.S.S.",
"S.S.S.S.S.S.S.S.S.S.S.S.S.S.S.S.S.S.S.S.S.S.S.S.S.S.S.S.S.S.S.7.X $ I y.a.u./ =   G S.S.S.S.S.S.S.S.S.S.S.S.S.S.S.S.S.S.S.S.S.S.",
"S.S.S.S.S.S.S.S.S.S.S.S.S.S.S.S.S.S.S.S.S.S.S.S.S.S.S.S.S.S.A.e o U h.s.a.a.g.,.- X F S.S.S.S.S.S.S.S.S.S.S.S.S.S.S.S.S.S.S.S.S.",
"S.S.S.S.S.S.S.S.S.S.S.S.S.S.S.S.S.S.S.S.S.S.S.S.S.S.S.S.A.S.c.# , p.a.a.a.a.a.g.<.=   G S.S.S.S.S.S.S.S.S.S.S.S.S.S.S.S.S.S.S.S.",
"S.S.S.S.S.S.S.S.S.S.S.S.S.S.S.S.S.S.S.S.S.S.S.S.S.S.S.S.A.S.q.X p s.a.a.a.a.a.a.f.<.=   G S.S.S.S.S.S.S.S.S.S.S.S.S.S.S.S.S.S.S.",
"S.S.S.S.S.S.S.S.S.S.S.S.S.S.S.S.S.S.S.S.S.S.S.S.S.S.S.S.S.S.k.o w s.a.a.a.a.a.a.a.g.<.-   -.S.A.S.A.A.S.S.S.S.S.S.S.S.S.S.S.S.S.",
"S.S.S.S.S.S.S.S.S.S.S.S.S.S.S.S.S.S.S.S.S.S.S.S.S.S.S.S.S.S.N.- # <.g.a.a.a.a.a.a.i.g...+ < Z.S.S.S.S.S.S.S.A.S.S.S.S.S.S.S.S.S.",
"S.S.S.S.S.S.S.S.S.S.S.S.S.S.S.S.S.S.S.S.S.S.S.S.S.S.S.S.S.S.S.L   6 u.d.a.a.a.a.a.i.f.a.6 + *.q.9.0.0.0.x.S.S.S.S.S.S.S.S.S.S.S.",
"S.S.S.S.S.S.S.S.S.S.S.S.S.S.S.S.S.S.S.S.S.S.S.S.S.S.S.S.S.S.S.V.e . q u.d.i.a.a.a.g.o.6 $ @ o . o . . o # e 0.S.S.S.S.S.S.S.S.S.",
"S.S.S.S.S.S.S.S.S.S.S.S.S.S.S.S.S.S.S.S.S.S.S.S.S.S.S.S.S.S.S.S.M.0 X q u.g.f.a.a.T + + = 3 9 8 8 9 9 8 : O o =.S.S.S.S.S.S.S.S.",
"S.S.S.S.S.S.S.S.S.S.S.S.S.S.S.S.S.S.S.S.S.S.S.S.S.S.S.S.S.S.S.S.S.m.0   y <.S w < $ + k [ } | } } } } } [ l $ o q.S.S.S.S.S.S.S.",
"S.S.S.S.S.S.S.S.S.S.S.S.S.S.S.S.S.S.S.S.S.S.S.S.S.S.S.S.S.S.S.S.A.S.m.e + $ . o $ + h  .} [ [ [ { { [ [ }  .l X f S.S.S.S.S.S.S.",
"S.S.S.S.S.S.S.S.S.S.S.S.S.S.S.S.S.S.S.S.S.S.S.S.S.S.S.S.S.S.S.S.S.A.S.4.o $ c ..= # ` } [ } [ [ { { { { [ } ' & = m.S.S.S.S.S.S.",
"S.S.S.A.n.S.S.S.S.S.S.S.S.S.S.S.S.S.S.S.S.S.S.S.S.S.S.S.S.S.S.S.S.S.Z.r o A h.y.$ 1 [ { [ [ [ } { { { { { [ [ 1 + x.S.S.S.S.S.S.",
"S.S.S.+.o 4.S.A.S.S.S.S.S.A.S.S.S.S.S.S.S.S.S.S.S.S.S.S.S.S.S.S.S.S.9.X 6 a.d.e.% & ` } [ } { [ { { { { [ } ] % $ m.S.S.S.S.S.S.",
"S.S.S.:.X # 5.S.S.S.B.M.Z.S.S.S.S.S.S.S.S.S.S.S.S.S.S.S.S.S.S.S.S.S.m   Y g.i.s.y O x  .[ [ [ [ [ [ [ [ [  .W + e S.S.S.S.S.S.S.",
"S.S.S.S.&.X # 5.6.s - = 0 K m.S.A.S.S.S.S.S.S.S.S.S.S.S.S.S.S.S.S.v.$ * e.s.p.f...o & Q } |  .| |  .| | | ~ = X 3.S.A.S.S.S.S.S.",
"S.S.S.S.S.$.# # o X & = +   * k.S.S.S.S.S.S.S.S.S.S.S.S.S.S.S.A.S.#.  V f.a.a.a.d.A o + 3 k l l l l l l 9 +   L S.S.S.S.S.S.S.S.",
"S.S.S.A.S.S.r + ; ( y.y.<.a o $ q.S.A.S.S.S.S.S.S.S.S.S.S.S.S.S.C.5 + o.f.a.a.a.a.d.U - @ O   .         . - &.S.S.S.S.S.S.S.S.S.",
"S.S.S.S.S.k.+ * 1.g.s.a.f.f.A o $ 0.S.S.S.S.S.S.S.S.S.S.S.S.S.S.7.X q a.a.a.a.a.a.a.h.Z . m ;.*.=.*.*.-.6.M.S.S.S.S.S.S.S.S.S.S.",
"S.S.S.A.S.P   S g.i.a.a.a.a.f.A o # 9.S.S.S.S.S.S.S.S.S.S.S.S.S.n   R f.a.a.a.a.a.a.y.; + c.S.S.S.S.S.S.S.S.A.S.S.S.S.S.S.S.S.S.",
"S.S.S.S.S.m . X.f.a.a.a.a.a.a.f.A + # 8.S.A.A.S.A.S.A.S.S.A.S.c.@ = y.s.a.a.a.a.a.g./ . f S.A.A.A.A.A.S.S.S.S.S.S.S.S.S.S.S.S.S.",
"S.S.S.S.S.m   ..f.p.a.a.a.a.a.a.f.S o # l.S.S.S.S.S.S.S.S.S.S.#.  V f.a.s.a.a.s.a.a.y   4.S.S.S.S.S.S.S.S.S.S.S.S.S.S.S.S.S.S.S.",
"S.S.S.S.S.#.  V g.a.a.a.a.a.a.a.a.g.A . e q.7.8.8.8.8.8.8.8.9.0 o o.f.p.a.a.a.p.f.<.+ < V.S.S.S.S.S.S.S.S.S.S.S.S.S.S.S.S.S.S.S.",
"S.S.S.S.S.c.# # ) g.a.a.a.a.a.a.a.a.a.< # o . . X o o X . . . $ % w.s.a.a.a.a.a.g.C   @.S.S.S.S.S.S.S.S.S.S.S.S.S.S.S.S.S.S.S.S.",
"S.S.S.S.S.S.&.X $ ) g.i.a.a.a.a.a.i.g.Z + 2 9 9 9 9 y 9 y 9 9 = + O.f.a.a.a.a.s.y.= # c.S.S.S.S.S.S.S.S.S.S.S.S.S.S.S.S.S.S.S.S.",
"S.S.S.S.S.S.S.@.X $ ( g.a.a.a.a.a.a.g.A . x  .} | | } } } }  .j . c f.a.i.a.p.h.I X v S.S.S.S.S.S.S.S.S.S.S.S.S.S.S.S.S.S.S.S.S.",
"S.S.S.S.S.S.S.S.#.o $ ( g.a.a.a.a.a.d.w O ~ } [ { [ { [ { [ { _ % + J a.f.g.d.^ $ X q.S.A.S.S.S.S.S.S.S.S.S.S.S.S.S.S.S.S.S.S.S.",
"S.S.S.S.S.S.S.S.S.#.o $ / g.d.d.d.h.T + : ] { { { { { { { { { | W # # < A D u + o @.S.S.S.S.S.S.S.S.S.S.S.S.S.S.S.S.S.S.S.S.S.S.",
"S.S.S.S.S.S.S.S.S.S.#.o # S e.1.<.A $ # ! | { { { { { { { { { [  .E $ $ O . # # L S.S.S.S.S.S.S.S.S.S.S.S.S.S.S.S.S.S.S.S.S.S.S.",
"S.S.S.S.S.S.S.S.S.S.S.#.+ o # 6 5 + + $ ~ } [ { { { { { { { { } _ 2 # # < 7 % + ; 7.S.S.S.S.S.S.S.S.S.S.S.S.S.S.S.S.S.S.S.S.S.S.",
"S.S.S.S.S.S.S.S.S.S.Z.f o y <.p.a.e.B + $ _ } [ [ [ [ [ [ [ [ { 2 O 7 o.a.a.e.B o $ v.S.S.S.S.S.S.S.S.S.S.S.S.S.S.S.S.S.S.S.S.S.",
"S.S.S.S.S.S.S.S.S.S.3.  < u.g.a.a.d.g.c O g  .| | | | | | }  .! + , u.g.s.a.d.g.b   H S.S.S.S.S.S.S.S.S.S.S.S.S.S.S.S.S.S.S.S.S.",
"S.S.S.S.S.S.S.S.S.S.f . / g.p.a.a.p.f.1.# * ! ! ! ! ! ! ! ! ~ 3 O R g.u.a.a.a.s.e.$ = M.S.S.S.S.S.S.S.S.S.S.S.S.S.S.S.S.S.S.S.S.",
"S.S.S.S.S.S.S.S.S.x.+ - u.d.a.a.a.a.a.u.> # . . . . . . .   . # # O.d.a.a.a.a.a.d.a   :.S.A.S.S.S.S.S.S.S.S.S.S.S.S.S.S.S.S.S.S.",
"S.S.S.S.S.S.S.A.S.@.  V d.p.a.a.a.a.d.t.* % M G N F F F G F G 5 + ..g.a.a.a.a.a.g.) . t S.S.S.S.S.S.S.S.S.S.S.S.S.S.S.S.S.S.S.S.",
"S.S.S.S.S.S.S.S.C.5 + ,.f.a.a.a.a.a.g.( . d S.S.S.S.S.S.S.S.S.$.  V f.a.a.a.a.a.a.u.; o z.S.S.S.S.S.S.S.S.S.S.S.S.S.S.S.S.S.S.S.",
"S.S.S.S.S.S.S.S.7.. q s.a.a.a.a.a.a.d.p   2.S.A.A.S.S.S.S.S.S.c.+ = t.s.a.a.a.a.a.g.S   P S.S.S.S.S.S.S.S.S.S.S.S.S.S.S.S.S.S.S.",
"S.S.S.S.S.S.A.S.m   T f.a.a.a.a.a.s.1.$ - M.S.S.S.S.S.S.S.S.S.S.v   ^ g.p.a.a.a.a.d.1.# ; B.S.S.S.S.S.S.S.S.S.S.S.S.S.S.S.S.S.S.",
"S.S.S.S.S.S.S.v.$ * r.s.a.a.a.a.a.g.J   H S.S.S.S.S.S.S.S.S.A.S.6.  y s.a.a.a.s.a.a.s.u   4.S.A.S.S.S.S.S.S.S.S.S.S.S.S.S.S.S.S.",
"S.S.S.S.S.A.S.%.  B f.a.a.a.a.a.s.i.5 o k.S.S.S.S.S.S.S.S.S.S.S.V.; # <.f.a.a.a.a.p.g./   v S.S.S.S.S.S.S.S.S.S.S.S.S.S.S.S.S.S.",
"S.S.S.S.S.S.A.e o X.f.a.a.a.a.a.f.... r A.S.S.S.S.S.S.S.S.S.S.S.S.P   A g.a.a.a.a.a.s.y.- $ c.S.S.S.S.S.S.S.S.S.S.S.S.S.S.S.S.S.",
"S.S.S.S.S.S.v.$ > u.a.a.a.a.a.a.d.c   -.S.S.S.S.S.S.S.S.S.S.S.S.S.z.+ > u.a.a.a.a.a.a.d.b   4.S.S.S.S.S.S.S.S.S.S.S.S.S.S.S.S.S.",
"S.S.S.S.S.S.c.+ 6 a.a.a.a.a.a.s.e.$ * n.S.S.S.S.S.S.S.S.S.S.S.S.S.S.s . ) g.a.a.a.a.p.g.Z   2.S.A.S.S.S.S.S.S.S.S.S.S.S.S.S.S.S.",
"S.S.S.S.S.S.B.= $ e.d.i.a.a.p.g.U . N S.S.S.S.S.S.S.S.S.S.S.S.S.S.S.;.  i f.a.a.a.a.a.s.7 X 0.S.S.S.S.S.S.S.S.S.S.S.S.S.S.S.S.S.",
"S.S.S.S.S.S.S.M   Z g.d.a.s.g.t.> X q.S.A.S.S.S.S.S.S.S.S.S.S.S.S.S.B.- + ..g.a.a.d.h.^ + ; C.S.S.S.S.S.S.S.S.S.S.S.S.S.S.S.S.S.",
"S.S.S.S.S.S.S.c.$ + C e.a.i.o.6   n S.S.S.S.S.S.S.S.S.S.S.S.S.S.S.S.S.&.  * R u.a.u.Y %   :.S.S.S.S.S.S.S.S.S.S.S.S.S.S.S.S.S.S.",
"S.S.S.S.S.S.A.S.6.#   $ 5 , o   r N.S.S.S.S.S.S.S.S.S.S.S.S.S.S.S.S.S.S.K . X * 6 - o X P S.S.S.S.S.S.S.S.S.S.S.S.S.S.S.S.S.S.S.",
"S.S.S.S.S.S.S.S.S.c.N - + $ 0 *.Z.S.S.S.S.S.S.S.S.S.S.S.S.S.S.S.S.S.S.S.S.5.t $ + % f 7.S.S.S.S.S.S.S.S.S.S.S.S.S.S.S.S.S.S.S.S.",
"S.S.S.S.S.S.S.S.S.S.S.B.c.v.A.S.S.S.S.S.S.S.S.S.S.S.S.S.S.S.S.S.S.S.S.S.S.S.S.n.x.M.S.S.S.S.S.S.S.S.S.S.S.S.S.S.S.S.S.S.S.S.S.S.",
"S.S.S.S.S.S.S.S.S.S.A.S.S.S.S.S.S.S.S.S.S.S.S.S.S.S.S.S.S.S.S.S.S.S.S.S.S.S.S.S.S.S.S.S.S.S.S.S.S.S.S.S.S.S.S.S.S.S.S.S.S.S.S.S.",
"S.S.S.S.S.S.S.S.S.S.S.S.S.A.S.S.S.S.S.S.S.S.S.S.S.S.S.S.S.S.S.S.S.S.S.S.S.S.S.S.A.S.S.S.S.S.S.S.S.S.S.S.S.S.S.S.S.S.S.S.S.S.S.S.",
"S.S.S.S.S.S.S.S.S.S.S.S.S.S.S.S.S.S.S.S.S.S.S.S.S.S.S.S.S.S.S.S.S.S.S.S.S.S.S.S.S.S.S.S.S.S.S.S.S.S.S.S.S.S.S.S.S.S.S.S.S.S.S.S.",
"S.S.S.S.S.S.S.S.S.S.S.S.S.S.S.S.S.S.S.S.S.S.S.S.S.S.S.S.S.S.S.S.S.S.S.S.S.S.S.S.S.S.S.S.S.S.S.S.S.S.S.S.S.S.S.S.S.S.S.S.S.S.S.S.",
"S.S.S.S.S.S.S.S.S.S.S.S.S.S.S.S.S.S.S.S.S.S.S.S.S.S.S.S.S.S.S.S.S.S.S.S.S.S.S.S.S.S.S.S.S.S.S.S.S.S.S.S.S.S.S.S.S.S.S.S.S.S.S.S.",
"S.S.S.S.S.S.S.S.S.S.S.S.S.S.S.S.S.S.S.S.S.S.S.S.S.S.S.S.S.S.S.S.S.S.S.S.S.S.S.S.S.S.S.S.S.S.S.S.S.S.S.S.S.S.S.S.S.S.S.S.S.S.S.S."
};
