/* XPM */
static char *player__23_1710156993[] = {
/* columns rows colors chars-per-pixel */
"64 64 154 2 ",
"   c #000B61",
".  c #001564",
"X  c #001A66",
"o  c #001769",
"O  c #001C69",
"+  c #002166",
"@  c #00226D",
"#  c #012571",
"$  c #052974",
"%  c #092D76",
"&  c #062A79",
"*  c #0C2E7A",
"=  c #0E317B",
"-  c #12327C",
";  c #18377E",
":  c #17397E",
">  c #19397F",
",  c #0E2F80",
"<  c #153481",
"1  c #1A3683",
"2  c #1D3B83",
"3  c #17348B",
"4  c #19368E",
"5  c #1E3994",
"6  c #213D84",
"7  c #233C89",
"8  c #283E8C",
"9  c #203A96",
"0  c #253E9D",
"q  c #2A3FA5",
"w  c #244285",
"e  c #2A428C",
"r  c #2D498A",
"t  c #324D8C",
"y  c #36518F",
"u  c #2E4491",
"i  c #324594",
"p  c #374996",
"a  c #384997",
"s  c #374898",
"d  c #3C4C99",
"f  c #3B5491",
"g  c #3E5994",
"h  c #2C42A5",
"j  c #2E42A9",
"k  c #3244AF",
"l  c #3546B2",
"z  c #3948B7",
"x  c #3E4CBD",
"c  c #414F9D",
"v  c #435B96",
"b  c #455E98",
"n  c #4D659C",
"m  c #51679E",
"M  c #51689E",
"N  c #444FA1",
"B  c #4652A1",
"V  c #4C56A5",
"C  c #4F56A8",
"Z  c #555BAC",
"A  c #595DAF",
"S  c #5C5FB0",
"D  c #576CA1",
"F  c #596EA2",
"G  c #5C71A4",
"H  c #5E61B3",
"J  c #6276A7",
"K  c #6176A8",
"L  c #6579A8",
"P  c #697CAB",
"I  c #6162B4",
"U  c #6666B8",
"Y  c #6A67BB",
"T  c #6D6ABD",
"R  c #706CBF",
"E  c #434EC5",
"W  c #4450C5",
"Q  c #4751C9",
"!  c #4953CD",
"~  c #4E55D5",
"^  c #5156D8",
"/  c #565ADE",
"(  c #736DC1",
")  c #7770C4",
"_  c #7B72C6",
"`  c #7E74C9",
"'  c #5A5CE4",
"]  c #605FEC",
"[  c #6663F5",
"{  c #6864F7",
"}  c #6C66FC",
"|  c #6F68FF",
" . c #726AFF",
".. c #8276CB",
"X. c #8478CD",
"o. c #887ACF",
"O. c #8B7CD1",
"+. c #927FD6",
"@. c #6E81AE",
"#. c #7082AF",
"$. c #7285B1",
"%. c #7688B3",
"&. c #7C8DB6",
"*. c #8393BA",
"=. c #8B9ABF",
"-. c #8F9EC1",
";. c #909EC1",
":. c #9281D7",
">. c #9582D9",
",. c #9B86DD",
"<. c #9E88DF",
"1. c #94A3C4",
"2. c #9AA8C7",
"3. c #9CAAC8",
"4. c #A1AECB",
"5. c #A6B2CE",
"6. c #A8B3CF",
"7. c #ABB6D1",
"8. c #AEB9D2",
"9. c #B3BDD5",
"0. c #9F88E0",
"q. c #A48BE3",
"w. c #A98EE6",
"e. c #AB8FE8",
"r. c #AE91EA",
"t. c #B395EE",
"y. c #B697F0",
"u. c #BB9AF4",
"i. c #C09DF7",
"p. c #C39EF9",
"a. c #C6A0FB",
"s. c #C9A2FD",
"d. c #D0A6FF",
"f. c #D2A8FF",
"g. c #B7C1D7",
"h. c #B8C1D7",
"j. c #BBC4D9",
"k. c #C3CBDE",
"l. c #C7CFE0",
"z. c #C9CFE1",
"x. c #CCD2E2",
"c. c #D3D9E6",
"v. c #D6DCE8",
"b. c #D9DEEA",
"n. c #DCE1EC",
"m. c #E1E6EF",
"M. c #E4E7F0",
"N. c #E6E9F1",
"B. c #EAEDF3",
"V. c #EEF1F6",
"C. c #F1F3F7",
"Z. c #F2F5F8",
"A. c #F6F8FB",
"S. c #FFFFFF",
/* pixels */
"S.S.S.S.S.S.S.S.S.S.S.S.S.S.S.S.S.S.S.S.S.S.S.S.S.S.S.S.S.S.S.S.S.S.S.S.S.S.S.S.S.S.S.S.S.S.S.S.S.S.S.S.S.S.S.S.S.S.S.S.S.S.S.S.",
"S.S.S.S.S.S.S.S.S.S.S.S.S.S.S.S.S.S.S.S.S.S.S.S.S.S.S.S.S.S.S.S.S.S.S.S.S.S.S.S.S.S.S.S.S.S.S.S.S.S.S.S.S.S.S.S.S.S.S.S.S.S.S.S.",
"S.S.S.S.S.S.S.S.S.S.S.S.S.S.S.S.S.S.S.S.S.S.S.S.S.S.S.S.S.S.S.S.S.S.S.S.S.S.S.S.S.S.S.S.S.S.S.S.S.S.S.S.S.S.S.S.S.S.S.S.S.S.S.S.",
"S.S.S.S.S.S.S.S.S.S.S.S.S.S.S.S.S.S.S.S.S.S.S.S.S.S.S.S.S.S.S.S.S.S.S.S.S.S.S.S.S.S.S.S.S.S.S.S.S.S.S.S.S.S.S.S.S.S.S.S.S.S.S.S.",
"S.S.S.S.S.S.S.S.S.S.S.S.S.S.S.S.S.S.S.S.S.S.S.S.S.S.S.S.S.S.S.S.S.S.S.S.S.S.S.S.B.x.x.Z.S.S.S.S.S.S.S.S.S.S.S.S.S.S.S.S.S.S.S.S.",
"S.S.S.S.S.S.S.S.S.S.S.S.S.S.S.S.S.S.S.S.S.S.S.S.S.S.S.S.S.S.S.S.S.S.S.S.S.S.c.D ; # # w &.C.S.S.S.S.S.S.S.S.S.S.S.S.S.S.S.S.S.S.",
"S.S.S.S.S.S.S.S.S.S.S.S.S.S.S.S.S.S.S.S.S.S.S.S.S.S.S.S.S.S.S.S.S.S.S.S.S.h.% . # 2 1 @ . t M.S.S.S.S.S.S.S.S.S.S.S.S.S.S.S.S.S.",
"S.S.S.S.S.S.S.S.S.S.S.S.S.S.S.S.S.S.S.S.S.S.S.S.S.S.S.S.S.S.S.S.S.S.S.S.m.- O c q.u.t.O.7 . v S.S.S.S.S.S.S.S.S.S.S.S.S.S.S.S.S.",
"S.S.S.S.S.S.S.S.S.S.S.S.S.S.S.S.S.S.S.S.S.S.S.S.S.S.S.S.S.S.S.S.S.S.S.S.$.. a p.p.u.u.s.w.> o 8.S.S.S.S.S.S.S.S.S.S.S.S.S.S.S.S.",
"S.S.S.S.S.S.S.S.S.S.S.S.S.S.S.S.S.S.S.S.S.S.S.S.S.S.S.S.S.S.S.S.S.S.S.A.w @ >.p.y.i.u.y.s.U . G S.S.S.S.S.S.S.S.S.S.S.S.S.S.S.S.",
"S.S.S.S.S.S.S.S.S.S.S.S.S.S.S.S.S.S.S.S.S.S.S.S.S.S.S.S.S.S.S.S.S.S.S.M.= * t.u.u.u.i.u.a.,.@ 6 B.S.S.S.S.S.S.S.S.S.S.S.S.S.S.S.",
"S.S.S.S.S.S.S.S.S.S.S.S.S.S.S.S.S.S.S.S.S.S.S.S.S.S.S.S.S.S.S.S.S.S.S.B.: $ q.i.u.u.u.u.u.u.7 O h.S.S.S.S.S.S.S.S.S.S.S.S.S.S.S.",
"S.S.S.S.S.S.S.S.S.S.S.S.S.S.S.S.S.S.S.S.S.S.S.S.S.S.S.S.S.S.S.S.S.S.S.S.v . _ s.y.u.u.u.u.s.A . %.S.S.S.S.S.S.S.S.S.S.S.S.S.S.S.",
"S.S.S.S.S.S.S.S.S.S.S.S.S.S.S.S.S.S.S.S.S.S.S.S.S.S.S.S.S.S.S.S.S.S.S.S.=.. V a.u.u.u.u.u.p.O.o t S.S.S.S.S.S.S.S.S.S.S.S.S.S.S.",
"S.S.S.S.S.S.S.S.S.S.S.S.S.S.S.S.S.S.S.S.S.S.S.S.S.S.S.S.S.S.S.S.S.S.S.S.z.@ < y.i.u.u.u.u.i.t.- # x.S.A.S.S.S.S.S.S.S.S.S.S.S.S.",
"S.S.S.S.S.S.S.S.S.S.S.S.S.S.S.S.S.S.S.S.S.S.S.S.S.S.S.S.S.S.S.S.S.S.S.S.S.r O O.p.u.u.u.p.p.d.d X g.S.S.S.S.S.S.S.S.S.S.S.S.S.S.",
"S.S.S.S.S.S.S.S.S.Z.n.S.S.S.S.S.S.S.S.S.S.S.S.S.S.S.S.S.S.S.S.S.S.S.S.S.S.#.. A s.t.u.a.q.T H 7 # %.j.k.c.V.S.S.S.S.S.S.S.S.S.S.",
"S.S.S.S.S.S.S.S.S.L @ x.S.S.S.S.S.S.S.S.S.S.S.S.S.S.S.S.S.S.S.S.S.S.S.A.S.9.X 7 i.d.u.Z $ X X @ @ O O @ $ 2 G v.S.A.S.S.S.S.S.S.",
"S.S.S.S.S.S.S.S.S.P   P S.S.S.S.S.S.S.S.S.S.S.S.S.S.S.S.S.S.S.S.S.S.S.S.S.S.p @ c Y a @ $ 0 z k q 0 9 4 < # X * j.S.S.S.S.S.S.S.",
"S.S.S.S.S.S.S.S.S.x.@ > B.S.S.S.A.S.S.S.S.S.S.S.S.S.S.S.S.S.S.S.S.S.S.S.S.k.w # O @ @ * ~ |  .| | | } { [ ' 0 + - n.S.S.S.S.S.S.",
"S.S.S.S.S.S.S.S.S.S.v . 1.S.A.S.S.S.S.S.S.S.S.S.S.S.S.S.S.S.S.S.S.S.S.S.j.$ O 1 C ; @ W  .[ [ [ [ [ { { { | | 0 . K S.S.S.S.S.S.",
"S.S.S.S.S.S.S.S.A.S.1.o 2 r r G 9.S.S.S.S.S.S.S.S.S.S.S.S.S.S.S.S.S.S.C.w O B u.r.$ * [ { { [ { { [ { { { [ | / @ 2 C.S.S.S.S.S.",
"S.S.S.S.S.S.S.S.S.c.r @ @ @ @ . O L S.S.S.S.S.S.S.S.S.S.S.S.S.S.S.A.S.=.. e u.s.>.@ 3 } [ { { { { { { { { { { ] * % n.S.S.S.S.S.",
"S.S.S.S.S.S.S.S.B.6 o 6 ) <.,.H * . P S.S.S.S.S.S.S.S.S.S.S.S.S.S.S.V.w @ X.a.u.q.& * ' } [ { { { { { { { [ } ] & - M.S.S.S.S.S.",
"S.S.S.S.S.S.A.S.#.. u y.s.p.p.d.O.% @ k.S.S.S.S.S.S.S.S.S.S.S.S.S.S.=.X u i.u.u.i.i + k  .{ [ [ [ [ [ [ [ [  .W @ y S.S.S.S.S.S.",
"S.S.S.S.S.S.S.C.6 @ >.a.y.u.u.t.s.A . K S.S.S.S.S.S.S.S.S.S.S.S.S.C.w O ..p.y.u.a.o.@ $ l [ } | | | | | |  .^ = X 1.S.S.S.S.S.S.",
"S.S.S.S.S.S.S.c.$ 1 y.u.u.u.u.u.p.0.# - m.S.S.S.S.S.S.S.S.S.S.S.S.;.X e u.i.i.u.u.a.Y @ @ = 5 0 h l x W E h $ . m S.S.S.S.S.S.S.",
"S.S.S.S.S.S.S.c.$ 1 u.u.u.u.u.u.u.p.a . =.S.S.S.S.S.S.S.S.S.S.S.C.w O ..a.y.u.u.u.u.a.X.% $ O X X X . . . X # L A.S.S.S.S.S.S.S.",
"S.S.S.S.S.S.S.C.6 @ :.a.u.u.i.u.u.a...O t A.S.S.S.S.S.S.S.S.S.S.1.. 8 i.i.u.u.i.u.u.p.+.@ 2 6.5.1.*.$.J F %.k.S.S.S.S.S.S.S.S.S.",
"S.S.S.S.S.S.S.S.#.. C a.y.u.u.u.u.u.y.2 O h.S.A.A.S.S.S.S.A.S.C.r X _ p.y.u.u.u.u.u.i.i . *.S.S.S.S.S.S.S.S.S.S.S.S.S.S.S.S.S.S.",
"S.S.S.S.S.S.S.S.z.@ - r.i.u.u.u.u.u.a.I . F S.S.S.S.S.S.S.S.S.5.. e i.u.u.i.u.u.u.a.o.@ > V.S.S.S.A.S.S.S.S.S.S.S.S.S.S.S.S.S.S.",
"S.S.S.S.S.S.S.S.S.b X T a.u.u.u.u.u.p.0.# ; 4.6.5.6.6.6.5.5.9.v . T s.y.u.u.u.u.u.i.i . *.S.A.S.S.S.S.S.S.S.S.S.S.S.S.S.S.S.S.S.",
"S.S.S.S.S.S.S.S.S.4.o 8 u.u.u.u.u.u.u.t.1 # O X X O X X O o . $ # O.a.u.u.u.u.u.a.O.@ ; B.S.S.S.S.S.S.S.S.S.S.S.S.S.S.S.S.S.S.S.",
"S.S.S.S.S.S.S.S.S.V.w O O.a.u.u.u.u.i.r.% $ 0 0 0 0 0 0 0 0 u < @ ( s.u.u.u.u.y.i.p . *.S.S.S.S.S.S.S.S.S.S.S.S.S.S.S.S.S.S.S.S.",
"S.S.S.S.S.S.S.S.S.S.%.. c s.u.u.u.u.d.Y + 5 | } } | } | | }  .x + i p.u.u.u.y.s.o.@ : M.S.S.S.S.S.S.S.S.S.S.S.S.S.S.S.S.S.S.S.S.",
"S.S.S.S.S.S.S.S.S.S.m.* @ H u.s.s.a._ % @ Q | [ [ [ [ [ [ [ { ] * @ Z i.a.s.s.,.2 X &.S.S.S.S.S.S.S.S.S.S.S.S.S.S.S.S.S.S.S.S.S.",
"S.S.S.S.S.S.S.S.S.S.S.1.# # 7 S H p # @ j | [ { { { { { { { [  .Q $ @ 8 U R B % o g S.S.S.S.S.S.S.S.S.S.S.S.S.S.S.S.S.S.S.S.S.S.",
"S.S.S.S.S.S.S.S.S.S.S.S.1.# # O O @ $ h | [ [ { { { { { { { { [ | E $ # O O @ # g A.S.S.S.S.S.S.S.S.S.S.S.S.S.S.S.S.S.S.S.S.S.S.",
"S.S.S.S.S.S.S.S.S.S.S.b.t @ # 7 7 * @ * ! | [ { { { { { { { { | ' 3 @ $ 6 8 * @ ; 7.S.A.S.S.S.S.S.S.S.S.S.S.S.S.S.S.S.S.S.S.S.S.",
"S.S.S.S.S.S.S.S.S.S.A.t . e >.u.u.q.B @ $ ' } [ [ [ [ [ [ [ [ { 4 + 8 +.u.u.w.B O $ c.S.S.S.S.S.S.S.S.S.S.S.S.S.S.S.S.S.S.S.S.S.",
"S.S.S.S.S.S.S.S.S.S.1.. 6 y.s.u.u.i.s.N + h  .| | | | | | |  .Q + 1 t.s.u.u.p.s.c . G S.S.S.S.S.S.S.S.S.S.S.S.S.S.S.S.S.S.S.S.S.",
"S.S.S.S.S.S.S.S.S.S.v X ( s.y.u.u.u.p.0.@ = W ! Q Q Q Q Q Q ! 5 + ( s.y.u.u.u.p.q.# - m.S.S.S.S.S.S.S.S.S.S.S.S.S.S.S.S.S.S.S.S.",
"S.S.S.S.S.S.S.S.S.z.# - r.u.u.u.u.u.u.t.1 # X X X . . X X + . # # +.p.u.u.u.u.u.p.a . =.S.A.S.S.S.S.S.S.S.S.S.S.S.S.S.S.S.S.S.S.",
"S.S.S.S.S.S.S.S.S.#.. V s.u.u.u.u.u.i.e.* % m F D D D m D M G 2 @ ..a.u.u.i.u.y.s._ X f S.S.S.S.S.S.S.S.S.S.S.S.S.S.S.S.S.S.S.S.",
"S.S.S.S.S.S.S.S.B.6 @ +.a.u.u.u.u.u.a.` X f S.S.S.S.S.S.S.S.S.&.. V a.y.u.u.u.u.u.y.1 O k.S.S.S.S.S.S.S.S.S.S.S.S.S.S.S.S.S.S.S.",
"S.S.S.S.S.S.S.S.5.X e i.u.u.u.u.u.u.p.a . -.S.S.S.S.S.S.S.S.S.k.# * r.i.u.u.u.u.u.s.Z . L S.S.S.S.S.S.S.S.S.S.S.S.S.S.S.S.S.S.S.",
"S.S.S.S.S.S.S.S.n . T s.u.u.u.u.u.i.,.# - n.S.S.S.S.S.S.S.S.S.S.b . R a.u.u.u.u.u.i.>.# > B.S.S.S.S.S.S.S.S.S.S.S.S.S.S.S.S.S.S.",
"S.S.S.S.S.S.S.x.$ % w.i.u.u.u.u.u.s.H . G S.S.S.S.S.S.S.S.S.S.S.4.. i i.u.u.u.i.u.u.i.i X 1.S.S.S.S.S.S.S.S.S.S.S.S.S.S.S.S.S.S.",
"S.S.S.S.S.S.S.&.. c s.u.u.u.u.u.u.y.2 O g.S.S.S.S.S.S.S.S.S.S.S.N.2 @ >.i.u.u.u.u.y.s.( . b S.S.S.S.S.S.S.S.S.S.S.S.S.S.S.S.S.S.",
"S.S.S.S.S.S.Z.r O O.p.u.u.u.u.u.a.X.o t S.S.S.S.S.S.S.S.S.S.S.S.S.P . Z a.u.u.u.u.u.i.r.- # x.S.S.S.S.S.S.S.S.S.S.S.S.S.S.S.S.S.",
"S.S.S.S.S.S.c.$ 1 t.u.u.u.u.u.u.a.c . *.S.A.S.S.S.S.S.S.S.S.S.S.S.k.@ ; t.i.u.u.u.u.u.p.c . 3.S.S.S.S.S.S.S.S.S.S.S.S.S.S.S.S.S.",
"S.S.S.S.S.S.z.@ 2 u.u.u.u.u.u.p.q.% % b.S.S.S.S.S.S.S.S.S.S.S.S.S.S.f X ` a.u.u.i.u.u.a.C . 1.S.S.S.S.S.S.S.S.S.S.S.S.S.S.S.S.S.",
"S.S.S.S.S.S.N.- $ w.p.y.u.u.y.s.U . M S.S.S.S.S.S.S.S.S.S.S.S.S.S.S.=.. a a.u.u.u.u.u.i.e o 8.S.A.S.S.S.S.S.S.S.S.S.S.S.S.S.S.S.",
"S.S.S.S.S.S.S.n . V s.p.u.u.s.e.1 o 8.S.S.S.S.S.S.S.S.S.S.S.S.S.S.S.M.- @ ..s.i.u.i.d.( @ 2 B.S.S.S.S.S.S.S.S.S.S.S.S.S.S.S.S.S.",
"S.S.S.S.S.S.S.k.# @ V w.u.y.O.7 . v S.S.S.S.S.S.S.S.S.S.S.S.S.S.S.S.S.*.. * T t.u.t.Y % . ;.S.S.S.S.S.S.S.S.S.S.S.S.S.S.S.S.S.S.",
"S.S.S.S.S.S.S.S.3.# . $ 7 1 @ . r n.S.S.S.S.S.S.S.S.S.S.S.S.S.S.S.S.S.S.K o X * 7 * X o P S.S.S.S.S.S.S.S.S.S.S.S.S.S.S.S.S.S.S.",
"S.S.S.S.S.S.S.S.S.l.n - # # w &.C.S.S.S.S.S.S.S.S.S.S.S.S.S.S.S.S.S.S.S.S.3.t % @ % f 5.S.S.S.S.S.S.S.S.S.S.S.S.S.S.S.S.S.S.S.S.",
"S.S.S.S.S.S.S.S.S.S.S.M.x.x.C.S.S.S.S.S.S.S.S.S.S.S.S.S.S.S.S.S.S.S.S.S.S.S.S.b.l.b.S.S.S.S.S.S.S.S.S.S.S.S.S.S.S.S.S.S.S.S.S.S.",
"S.S.S.S.S.S.S.S.S.S.S.S.S.S.S.S.S.S.S.S.S.S.S.S.S.S.S.S.S.S.S.S.S.S.S.S.S.S.S.S.S.S.S.S.S.S.S.S.S.S.S.S.S.S.S.S.S.S.S.S.S.S.S.S.",
"S.S.S.S.S.S.S.S.S.S.S.S.S.S.S.S.S.S.S.S.S.S.S.S.S.S.S.S.S.S.S.S.S.S.S.S.S.S.S.S.S.S.S.S.S.S.S.S.S.S.S.S.S.S.S.S.S.S.S.S.S.S.S.S.",
"S.S.S.S.S.S.S.S.S.S.S.S.S.S.S.S.S.S.S.S.S.S.S.S.S.S.S.S.S.S.S.S.S.S.S.S.S.S.S.S.S.S.S.S.S.S.S.S.S.S.S.S.S.S.S.S.S.S.S.S.S.S.S.S.",
"S.S.S.S.S.S.S.S.S.S.S.S.S.S.S.S.S.S.S.S.S.S.S.S.S.S.S.S.S.S.S.S.S.S.S.S.S.S.S.S.S.S.S.S.S.S.S.S.S.S.S.S.S.S.S.S.S.S.S.S.S.S.S.S.",
"S.S.S.S.S.S.S.S.S.S.S.S.S.S.S.S.S.S.S.S.S.S.S.S.S.S.S.S.S.S.S.S.S.S.S.S.S.S.S.S.S.S.S.S.S.S.S.S.S.S.S.S.S.S.S.S.S.S.S.S.S.S.S.S.",
"S.S.S.S.S.S.S.S.S.S.S.S.S.S.S.S.S.S.S.S.S.S.S.S.S.S.S.S.S.S.S.S.S.S.S.S.S.S.S.S.S.S.S.S.S.S.S.S.S.S.S.S.S.S.S.S.S.S.S.S.S.S.S.S."
};
