/* XPM */
static char *player__26_1710156993[] = {
/* columns rows colors chars-per-pixel */
"64 64 148 2 ",
"   c #00065E",
".  c #001564",
"X  c #001B66",
"o  c #001768",
"O  c #001C6A",
"+  c #002166",
"@  c #00226D",
"#  c #012571",
"$  c #042973",
"%  c #0A2C77",
"&  c #0C2E7A",
"*  c #0F337A",
"=  c #13337D",
"-  c #18367D",
";  c #16387F",
":  c #0F2F80",
">  c #0F3083",
",  c #123182",
"<  c #1A3683",
"1  c #1D3A83",
"2  c #153489",
"3  c #19368E",
"4  c #1A388D",
"5  c #1B3791",
"6  c #1E3994",
"7  c #203C84",
"8  c #263E8B",
"9  c #243D9B",
"0  c #254386",
"q  c #284386",
"w  c #27418C",
"e  c #2A448B",
"r  c #2E4A8A",
"t  c #324E8D",
"y  c #35508E",
"u  c #38518F",
"i  c #2D4290",
"p  c #344694",
"a  c #364996",
"s  c #394A97",
"d  c #3E4D9B",
"f  c #3C5592",
"g  c #2C41A5",
"h  c #3245AE",
"j  c #3647B3",
"k  c #3C4BBC",
"l  c #424E9E",
"z  c #425A95",
"x  c #485D97",
"c  c #45519F",
"v  c #475E98",
"b  c #476099",
"n  c #4B639B",
"m  c #50679E",
"M  c #52689E",
"N  c #4652A1",
"B  c #4B55A5",
"V  c #4F58A7",
"C  c #545AAA",
"Z  c #595DAE",
"A  c #404DBE",
"S  c #5D5FB1",
"D  c #566BA1",
"F  c #596EA1",
"G  c #5D72A4",
"H  c #5D60B1",
"J  c #6277A8",
"K  c #6579A9",
"L  c #6A7DAC",
"P  c #6363B5",
"I  c #6666B8",
"U  c #6866B9",
"Y  c #6B68BB",
"T  c #726DBF",
"R  c #414EC4",
"E  c #4551C7",
"W  c #4952CE",
"Q  c #4C54D1",
"!  c #5257D9",
"~  c #5458DC",
"^  c #746EC2",
"/  c #7B73C7",
"(  c #7D74C9",
")  c #595CE2",
"_  c #5F5FE9",
"`  c #6260EE",
"'  c #6663F5",
"]  c #6864F7",
"[  c #6B66FB",
"{  c #6F68FF",
"}  c #7169FF",
"|  c #8276CB",
" . c #8679CE",
".. c #8D7DD3",
"X. c #917FD5",
"o. c #6D81AF",
"O. c #7385B1",
"+. c #7488B4",
"@. c #7B8CB5",
"#. c #8494BA",
"$. c #8897BC",
"%. c #8999BE",
"&. c #8E9DC1",
"*. c #909FC1",
"=. c #9281D7",
"-. c #9582D9",
";. c #9A85DC",
":. c #9F88DF",
">. c #92A1C3",
",. c #99A7C7",
"<. c #9DAAC9",
"1. c #A1AECB",
"2. c #A6B2CE",
"3. c #AAB5CF",
"4. c #ACB7D1",
"5. c #AFBAD3",
"6. c #B0BAD3",
"7. c #A38BE3",
"8. c #A98FE7",
"9. c #AE92EB",
"0. c #B394EE",
"q. c #B797F1",
"w. c #B897F1",
"e. c #BB9AF4",
"r. c #C09CF6",
"t. c #C39EF9",
"y. c #C6A0FB",
"u. c #CAA3FE",
"i. c #D3A8FF",
"p. c #B6C0D6",
"a. c #BCC5DA",
"s. c #C4CCDE",
"d. c #C7CEE0",
"f. c #CAD1E2",
"g. c #D0D6E5",
"h. c #D4D9E7",
"j. c #D6DCE8",
"k. c #DADEEA",
"l. c #DDE2EC",
"z. c #E1E5EF",
"x. c #E3E7F0",
"c. c #E6EAF2",
"v. c #EBEEF4",
"b. c #EEF1F6",
"n. c #F0F3F7",
"m. c #F4F6F9",
"M. c #F7F9FB",
"N. c #FFFFFF",
/* pixels */
"N.N.N.N.N.N.N.N.N.N.N.N.N.N.N.N.N.N.N.N.N.N.N.N.N.N.N.N.N.N.N.N.N.N.N.N.N.N.N.N.N.N.N.N.N.N.N.N.N.N.N.N.N.N.N.N.N.N.N.N.N.N.N.N.",
"N.N.N.N.N.N.N.N.N.N.N.N.N.N.N.N.N.N.N.N.N.N.N.N.N.N.N.N.N.N.N.N.N.N.N.N.N.N.N.N.N.N.N.N.N.N.N.N.N.N.N.N.N.N.N.N.N.N.N.N.N.N.N.N.",
"N.N.N.N.N.N.N.N.N.N.N.N.N.N.N.N.N.N.N.N.N.N.N.N.N.N.N.N.N.N.N.N.N.N.N.N.N.N.N.N.N.N.N.N.N.N.N.N.N.N.N.N.N.N.N.N.N.N.N.N.N.N.N.N.",
"N.N.N.N.N.N.N.N.N.N.N.N.N.N.N.N.N.N.N.N.N.N.N.N.N.N.N.N.N.N.N.N.N.N.N.N.N.N.N.N.N.N.N.N.M.N.N.N.M.N.N.N.N.N.N.N.N.N.N.N.N.N.N.N.",
"N.N.N.N.N.N.N.N.N.N.N.N.N.N.N.N.N.N.N.N.N.N.N.N.N.N.N.N.N.N.N.N.N.N.N.N.N.N.N.N.N.N.N.N.N.N.N.N.N.N.N.N.N.N.N.N.N.N.N.N.N.N.N.N.",
"N.N.N.N.N.N.N.N.N.N.N.N.N.N.N.N.N.N.N.N.N.N.N.N.N.N.N.N.N.N.N.N.N.N.N.N.N.N.N.N.N.N.N.N.2.D t f K a.N.N.N.N.N.N.N.N.N.N.N.N.N.N.",
"N.N.N.N.N.N.N.N.N.N.N.N.N.N.N.N.N.N.N.N.N.N.N.N.N.N.N.N.N.N.N.N.N.N.N.N.N.N.N.N.N.N.b.v o . O O . @ O.N.N.N.N.N.N.N.N.N.N.N.N.N.",
"N.N.N.N.N.N.N.N.N.N.N.N.N.N.N.N.N.N.N.N.N.N.N.N.N.N.N.N.N.N.N.N.N.N.N.N.N.N.N.N.N.N.v . ; Y -...C % . @.N.M.N.N.N.N.N.N.N.N.N.N.",
"N.N.N.N.N.N.N.N.N.N.N.N.N.N.N.N.N.N.N.N.N.N.N.N.N.N.N.N.N.N.N.N.N.N.N.N.N.N.N.M.N.>.. < 7.i.t.t.u.| $ @ d.N.N.N.N.N.N.N.N.N.N.N.",
"N.N.N.N.N.N.N.N.N.N.N.N.N.N.N.N.N.N.N.N.N.N.N.N.N.N.N.N.N.N.N.N.N.N.N.N.N.N.N.N.N.f X / u.0.w.e.e.u.V . O.N.M.N.N.N.N.N.N.N.N.N.",
"N.N.N.N.N.N.N.N.N.N.N.N.N.N.N.N.N.N.N.N.N.N.N.N.N.N.N.N.N.N.N.N.N.N.N.N.N.N.N.N.v.; $ 8.t.e.e.e.e.t. .X v N.N.N.N.N.N.N.N.N.N.N.",
"N.N.N.N.N.N.N.N.N.N.N.N.N.N.N.N.N.N.N.N.N.N.N.N.N.N.N.N.N.N.N.N.N.N.N.N.N.N.N.N.c.* & 0.r.e.e.e.e.y.=.o z N.N.N.N.N.N.N.N.N.N.N.",
"N.N.N.N.N.N.N.N.N.N.N.N.N.N.N.N.N.N.N.N.N.N.N.N.N.N.N.N.N.N.N.N.N.N.N.N.N.N.N.N.c.* & 9.e.e.e.e.e.y...X z N.N.N.N.N.N.N.N.N.N.N.",
"N.N.N.N.N.N.N.N.N.N.N.N.N.N.N.N.N.N.N.N.N.N.N.N.N.N.N.N.N.N.N.N.N.N.N.N.N.N.N.N.c.* & 9.r.e.e.e.w.y.=.o f N.N.N.N.N.N.N.N.N.N.N.",
"N.N.N.N.N.N.N.N.N.N.N.N.N.N.N.N.N.N.N.N.N.N.N.N.N.N.N.N.N.N.N.N.N.N.N.N.N.N.N.N.c.* & 9.r.e.e.e.e.y.=.X z N.N.N.N.N.N.N.N.N.N.N.",
"N.N.N.N.N.N.N.N.N.N.M.N.N.N.N.N.N.N.N.N.N.N.N.N.N.N.N.N.N.N.N.N.N.N.N.N.N.N.N.N.c.= & 9.r.e.e.e.0.t...O z N.N.N.N.N.N.N.N.N.N.N.",
"N.N.N.N.N.N.N.N.N.#.7 l.N.N.N.N.N.N.N.N.N.N.N.N.N.N.N.N.N.N.N.N.N.N.N.N.N.N.N.N.c.* & 9.e.w.t.y.y.i.=.O f N.M.N.N.N.N.N.N.N.N.N.",
"N.N.N.N.N.N.N.N.N.G   @.N.M.N.N.N.N.N.N.N.N.N.N.N.N.N.N.N.N.N.N.N.N.N.N.N.N.N.N.m.0 @ 7.u.t.7./ I  .P . G N.N.N.N.N.N.N.N.N.N.N.",
"N.N.N.N.N.N.N.M.N.p.O q m.N.N.M.N.N.N.N.N.N.N.N.N.N.N.N.N.N.N.N.N.N.N.N.N.N.N.N.N.v o B 8.C $ + X + # $ y >.a.n.N.N.N.N.N.N.N.N.",
"N.N.N.N.N.N.N.N.N.M.r o 5.N.N.N.N.M.N.N.N.N.N.N.N.N.N.N.N.N.N.N.N.N.N.N.N.N.N.2.r $ # # $ + # 9 h 9 > $ + X @ 1 L b.N.N.N.N.N.N.",
"N.N.N.N.N.N.N.N.M.N.*.o t D M $.k.N.N.N.N.N.N.N.N.N.N.N.N.N.N.N.N.N.N.N.N.N.#.o O < d , $ > ~ { { { ' ~ R g 2 @ . q z.N.N.N.N.N.",
"N.N.N.N.N.N.N.N.N.n.n # O . X . & %.N.N.N.N.N.N.N.N.N.N.N.N.N.N.N.N.N.N.N.6.O $ I e.0.= # ~ } ' ' ' [ { { { ' ~ 4 X z N.N.N.N.N.",
"N.N.N.N.N.N.N.N.M.f . * C | / d @ o $.N.M.N.N.N.N.N.N.N.N.N.N.N.N.N.N.N.c.- O P u.u.| + 6 [ ' ] ' ' [ ' ' ' ' } _ , o 4.N.M.N.N.",
"N.N.N.N.N.N.M.N.$.. 1 7.u.u.y.u.T # % h.N.N.N.N.N.N.N.N.N.N.N.N.N.N.M.N.n X s t.q.u.^ X g { ' ] ' ' ' ' ' ' ' ' { k . J N.N.N.N.",
"N.N.N.N.N.N.N.M.q +  .u.e.e.e.q.u.c . O.N.N.N.N.N.N.N.N.N.N.N.N.N.M.N.*.o = 7.t.e.y. .+ 5 [ ' ] ' [ ' [ ' [ ' ' { W X b N.N.N.N.",
"N.N.N.N.N.N.N.j.$ , q.e.e.e.e.e.y.=.@ 1 v.N.N.N.N.N.N.N.N.N.N.N.N.N.g.% @ / u.e.e.e.0.= # Q } ' ' ' ' ' ' ' ' ' { E X M N.N.N.N.",
"N.N.N.N.N.N.N.g.# 1 e.e.e.e.e.e.e.e.e o <.N.N.N.N.N.N.N.N.N.N.N.N.M.y o B u.q.e.e.e.y.P X * W [ } { [ ' ' ' ' ' { 9 . %.N.M.N.N.",
"N.N.N.N.N.N.N.v.< # :.t.e.e.e.e.e.u.^ . f N.N.N.N.N.N.N.N.N.N.N.N.O.X 7 0.e.e.e.e.e.e.e.l # $ 3 h W _ ' } } { [ j @ * z.N.N.N.N.",
"N.N.N.N.N.N.M.N.G . H u.e.e.e.e.e.r.9.= # d.N.M.N.N.N.N.M.N.M.N.p.O $ =.y.e.e.e.e.e.e.y.7.% $ O X X # 2 g A k 4 + O <.N.N.N.N.N.",
"N.N.N.N.N.N.N.N.a.O < 0.e.e.e.e.e.w.t.C . L N.N.N.N.N.N.N.N.N.N.r X P u.e.e.e.e.e.e.e.t.s o b a.#.b 1 + . X . X 7 3.N.N.N.N.N.N.",
"N.N.N.N.N.N.N.N.N.y X ( u.q.e.e.e.e.t.-.# 7 f.k.g.h.h.h.h.g.l.1.@ 1 e.e.e.e.e.e.e.q.u.Y + < l.N.N.N.b.a.%.o.+.1.b.N.N.N.N.N.N.N.",
"N.N.N.N.N.N.N.N.N.%.. s t.e.e.e.e.e.t.0.= # $ $ $ $ $ $ $ $ $ % @ B y.e.e.e.e.e.e.y.-.$ O 2.N.M.N.N.N.N.N.N.N.N.N.N.N.N.N.N.N.N.",
"N.N.N.N.N.N.N.N.N.x.= # ;.t.e.e.e.e.e.9.* $ > , > > , > > > > & @ B y.e.e.e.e.e.e.w.8 . L N.M.N.N.N.N.N.N.M.N.M.N.N.N.N.N.N.N.N.",
"N.N.N.N.N.N.N.N.N.N.K . C u.q.e.e.e.u.( O 3 ' ' ' ' ' ' ' ' [ W + 8 t.e.e.q.e.q.u.C X e m.N.N.N.N.N.N.N.N.N.N.N.N.N.N.N.N.N.N.N.",
"N.N.N.N.N.N.N.N.N.N.f.# # / u.u.t.u.:.< @ k { ' [ ] [ ' [ ' [ ' > @ Y u.y.u.t.u./ # # s.N.N.N.N.N.N.N.N.N.N.N.N.N.N.N.N.N.N.N.N.",
"N.N.N.N.N.N.N.N.N.M.N.@.O $ N (  .S & + 6 [ ' ' [ ' ] ' [ ' ' { R @ # S  .^  .I % o #.N.M.N.N.N.N.N.N.N.N.N.N.N.N.N.N.N.N.N.N.N.",
"N.N.N.N.N.N.N.N.N.N.N.N.n # @ X X @ $ 5 ' [ ' [ ' ] ] ] ' ' [ ' { j $ @ O X X # @ L N.N.N.N.N.N.N.N.N.N.N.N.N.N.N.N.N.N.N.N.N.N.",
"N.N.N.N.N.N.N.N.N.N.N.%.$ @ < l s & @ & ! [ ' ' ] ] ] ] [ ' ' [ ' 9 @ $ p B a % @ f c.N.N.N.N.N.N.N.N.N.N.N.N.N.N.N.N.N.N.N.N.N.",
"N.N.N.N.N.N.N.N.N.N.s.# # H e.y.t.8.d + , ' ] ' ] ' ' ' ' ' ' { h + ;  .y.u.y.-.7 . G N.M.N.N.N.N.N.N.N.N.N.N.N.N.N.N.N.N.N.N.N.",
"N.N.N.N.N.N.N.N.N.N.v . C u.e.e.e.t.t.i + k } [ [ [ [ { [ [ { ` & # =.u.q.w.w.u.:.% @ p.N.N.N.N.N.N.N.N.N.N.N.N.N.N.N.N.N.N.N.N.",
"N.N.N.N.N.N.N.N.N.5.O = 9.e.e.e.e.q.u.( O 6 _ ) ) ) ) ) ) ) _ A + p t.q.e.e.r.e.u.H X f N.N.N.N.N.N.N.N.N.N.N.N.N.N.N.N.N.N.N.N.",
"N.N.N.N.N.N.N.N.N.f X I u.e.e.e.e.w.t.-.$ $ @ @ O # # @ # O @ # @ V y.e.e.e.e.e.e.0.< o <.N.N.N.N.N.N.N.N.N.N.N.N.N.N.N.N.N.N.N.",
"N.N.N.N.N.N.M.N.1.o < 0.e.e.e.e.e.e.t.| @ ; t t r t t r t t s 0 @ p t.e.e.e.r.e.e.u.^ X 0 b.N.N.N.N.N.N.N.N.N.N.N.N.N.N.N.N.N.N.",
"N.N.N.N.N.N.N.m.q X ^ u.e.e.e.e.e.e.t.d . @.N.m.N.M.N.N.M.M.N.l.& $ -.t.e.e.e.e.e.e.e.e . #.N.M.N.N.N.N.N.N.N.N.N.N.N.N.N.N.N.N.",
"N.N.N.N.N.N.N.&.o 8 e.e.e.r.e.e.e.y...@ = l.N.N.N.N.N.N.N.N.N.N.L . d t.e.e.e.e.e.e.y...@ = z.N.N.N.N.N.N.N.N.N.N.N.N.N.N.N.N.N.",
"N.N.N.N.N.N.b.1 O ( y.e.e.e.e.e.e.r.p . @.N.M.N.N.N.N.N.N.N.M.N.z.; @  .y.e.e.e.e.e.e.y.d . J N.M.N.N.N.N.N.N.N.N.N.N.N.N.N.N.N.",
"N.N.N.N.M.N.@.X e r.e.e.e.e.e.e.y.| @ < c.N.N.N.N.N.N.N.N.N.N.N.N.#.. w e.e.e.e.e.e.e.t.;.$ # s.N.N.N.N.N.N.N.N.N.N.N.N.N.N.N.N.",
"N.N.N.N.N.v.1 @ ..y.e.r.e.e.e.e.e.w . %.N.N.N.N.N.N.N.N.N.N.N.N.N.m.q O Y u.e.e.e.e.e.e.u.C . F N.N.N.N.N.N.N.N.N.N.N.N.N.N.N.N.",
"N.N.N.N.N.5.o 8 r.e.e.e.e.e.e.u./ o 0 m.N.N.N.N.N.N.N.N.N.N.N.N.M.N.2.o , 0.e.e.e.e.e.e.y.;.@ 1 n.N.N.N.N.N.N.N.N.N.N.N.N.N.N.N.",
"N.N.N.M.N.,.. V y.e.e.e.e.e.e.e.7 o ,.N.N.N.N.N.N.N.N.N.N.N.N.N.N.N.N.z X C u.w.e.e.e.e.e.9.* = c.N.N.N.N.N.N.N.N.N.N.N.N.N.N.N.",
"N.N.N.N.N.2.X s t.e.e.e.e.e.u.Y X t M.N.N.N.N.N.N.N.N.N.N.N.N.N.N.N.N.s.# % 7.t.e.e.e.e.y.-.@ 0 m.N.N.N.N.N.N.N.N.N.N.N.N.N.N.N.",
"N.N.N.N.N.k.% $ ;.u.w.w.0.t.0., O 3.N.M.N.N.N.N.N.N.N.N.N.N.N.N.N.N.N.N.G . d y.e.e.e.e.u.V . G N.N.N.N.N.N.N.N.N.N.N.N.N.N.N.N.",
"N.N.N.N.N.N.G . w 7.u.y.u.0.s . z N.N.N.N.N.N.N.N.N.N.N.N.N.N.N.N.N.N.N.l.= + C q.y.y.q.H # # f.N.N.N.N.N.N.N.N.N.N.N.N.N.N.N.N.",
"N.N.N.N.N.N.c.q . & V U C < X = j.N.N.N.N.N.N.N.N.N.N.N.N.N.N.N.N.N.N.M.N.2.@ o < c N 1 o O >.N.M.N.N.N.N.N.N.N.N.N.N.N.N.N.N.N.",
"N.N.N.N.N.N.N.x.n # . . . O f h.N.M.N.N.N.N.N.N.N.N.N.N.N.N.N.N.N.N.N.N.M.N.a.t # . . @ r 6.N.N.N.N.N.N.N.N.N.N.N.N.N.N.N.N.N.N.",
"N.N.N.N.N.N.M.N.N.d.%.O.%.a.N.N.N.N.N.N.N.N.N.N.N.N.N.N.N.N.N.N.N.N.N.N.N.N.N.N.s.<.,.a.M.N.N.N.N.N.N.N.N.N.N.N.N.N.N.N.N.N.N.N.",
"N.N.N.N.N.N.N.N.N.N.N.N.N.N.N.M.N.N.N.N.N.N.N.N.N.N.N.N.N.N.N.N.N.N.N.N.N.N.N.N.N.N.N.N.N.M.N.N.N.N.N.N.N.N.N.N.N.N.N.N.N.N.N.N.",
"N.N.N.N.N.N.N.N.N.N.M.N.N.N.N.N.N.N.N.N.N.N.N.N.N.N.N.N.N.N.N.N.N.N.N.N.N.N.N.N.N.N.M.N.N.N.N.N.N.N.N.N.N.N.N.N.N.N.N.N.N.N.N.N.",
"N.N.N.N.N.N.N.N.N.N.N.N.N.N.N.N.N.N.N.N.N.N.N.N.N.N.N.N.N.N.N.N.N.N.N.N.N.N.N.N.N.N.N.N.N.N.N.N.N.N.N.N.N.N.N.N.N.N.N.N.N.N.N.N.",
"N.N.N.N.N.N.N.N.N.N.N.N.N.N.N.N.N.N.N.N.N.N.N.N.N.N.N.N.N.N.N.N.N.N.N.N.N.N.N.N.N.N.N.N.N.N.N.N.N.N.N.N.N.N.N.N.N.N.N.N.N.N.N.N.",
"N.N.N.N.N.N.N.N.N.N.N.N.N.N.N.N.N.N.N.N.N.N.N.N.N.N.N.N.N.N.N.N.N.N.N.N.N.N.N.N.N.N.N.N.N.N.N.N.N.N.N.N.N.N.N.N.N.N.N.N.N.N.N.N.",
"N.N.N.N.N.N.N.N.N.N.N.N.N.N.N.N.N.N.N.N.N.N.N.N.N.N.N.N.N.N.N.N.N.N.N.N.N.N.N.N.N.N.N.N.N.N.N.N.N.N.N.N.N.N.N.N.N.N.N.N.N.N.N.N.",
"N.N.N.N.N.N.N.N.N.N.N.N.N.N.N.N.N.N.N.N.N.N.N.N.N.N.N.N.N.N.N.N.N.N.N.N.N.N.N.N.N.N.N.N.N.N.N.N.N.N.N.N.N.N.N.N.N.N.N.N.N.N.N.N.",
"N.N.N.N.N.N.N.N.N.N.N.N.N.N.N.N.N.N.N.N.N.N.N.N.N.N.N.N.N.N.N.N.N.N.N.N.N.N.N.N.N.N.N.N.N.N.N.N.N.N.N.N.N.N.N.N.N.N.N.N.N.N.N.N."
};
