/* XPM */
static char *player__21_1710156993[] = {
/* columns rows colors chars-per-pixel */
"64 64 148 2 ",
"   c #00025B",
".  c #001564",
"X  c #001A66",
"o  c #001668",
"O  c #001D6A",
"+  c #002166",
"@  c #00226D",
"#  c #01286E",
"$  c #012671",
"%  c #042973",
"&  c #0A2C77",
"*  c #0D2E7A",
"=  c #0E317A",
"-  c #13337D",
";  c #19357D",
":  c #0E2F81",
">  c #0F3081",
",  c #143383",
"<  c #1A3683",
"1  c #1D3A83",
"2  c #17368D",
"3  c #19368E",
"4  c #183889",
"5  c #1E3994",
"6  c #213D83",
"7  c #253D8A",
"8  c #203A97",
"9  c #223B9B",
"0  c #244285",
"q  c #284587",
"w  c #2B428E",
"e  c #2E4A8A",
"r  c #334E8D",
"t  c #36518F",
"y  c #2E4491",
"u  c #324693",
"i  c #354895",
"p  c #384A97",
"a  c #3D4D9C",
"s  c #375290",
"d  c #3A5391",
"f  c #2F42AA",
"g  c #3547B1",
"h  c #3648B4",
"j  c #3B4ABB",
"k  c #414F9D",
"l  c #425C96",
"z  c #41509D",
"x  c #465F98",
"c  c #485F99",
"v  c #476099",
"b  c #4B639A",
"n  c #536A9F",
"m  c #4752A1",
"M  c #4B55A4",
"N  c #5057A8",
"B  c #535AAA",
"V  c #5A5EAF",
"C  c #5B5FB1",
"Z  c #566BA1",
"A  c #5A6EA3",
"S  c #5B71A4",
"D  c #5D60B1",
"F  c #6276A7",
"G  c #6176A8",
"H  c #6679A9",
"J  c #6A7EAC",
"K  c #6364B5",
"L  c #6B69BB",
"P  c #716CBF",
"I  c #3E4BC0",
"U  c #434EC6",
"Y  c #444FC8",
"T  c #4450C6",
"R  c #4751CA",
"E  c #4853CB",
"W  c #4D54D4",
"Q  c #5158D6",
"!  c #5156D9",
"~  c #5358DA",
"^  c #746EC2",
"/  c #7971C5",
"(  c #7E74C8",
")  c #5C5DE7",
"_  c #5F5EEA",
"`  c #6160EE",
"'  c #6663F5",
"]  c #6864F7",
"[  c #6A65FA",
"{  c #6F68FF",
"}  c #7169FF",
"|  c #8176CB",
" . c #8579CE",
".. c #8C7CD2",
"X. c #907FD5",
"o. c #6E81AE",
"O. c #6E83B0",
"+. c #7486B2",
"@. c #7688B3",
"#. c #7B8DB5",
"$. c #8494BB",
"%. c #8B9ABE",
"&. c #909FC2",
"*. c #9280D6",
"=. c #9682D9",
"-. c #9B85DD",
";. c #94A3C4",
":. c #99A7C7",
">. c #9AA9C7",
",. c #9DAAC9",
"<. c #A2AECB",
"1. c #A6B3CE",
"2. c #A9B5CF",
"3. c #AAB6D0",
"4. c #AFBAD2",
"5. c #B3BDD4",
"6. c #9F88E0",
"7. c #A48BE3",
"8. c #A98FE7",
"9. c #AB8FE8",
"0. c #AD91EA",
"q. c #B395EE",
"w. c #B697F0",
"e. c #B897F1",
"r. c #BB9AF4",
"t. c #C09DF7",
"y. c #C39EF9",
"u. c #C6A0FB",
"i. c #CAA3FE",
"p. c #D0A6FF",
"a. c #D3A8FF",
"s. c #B6C0D6",
"d. c #BBC4D9",
"f. c #C0C7DC",
"g. c #C3CADE",
"h. c #C7CFE0",
"j. c #CDD4E3",
"k. c #D1D7E6",
"l. c #D2D9E6",
"z. c #DADFEB",
"x. c #DDE2EC",
"c. c #E2E6EF",
"v. c #E5E9F1",
"b. c #EAEEF4",
"n. c #EEF1F6",
"m. c #F4F5F9",
"M. c #F7F9FB",
"N. c #FFFFFF",
/* pixels */
"N.N.N.N.N.N.N.N.N.N.N.N.N.N.N.N.N.N.N.N.N.N.N.N.N.N.N.N.N.N.N.N.N.N.N.N.N.N.N.N.N.N.N.N.N.N.N.N.N.N.N.N.N.N.N.N.N.N.N.N.N.N.N.N.",
"N.N.N.N.N.N.N.N.N.N.N.N.N.N.N.N.N.N.N.N.N.N.N.N.N.N.N.N.N.N.N.N.N.N.N.N.N.N.N.N.N.N.N.N.N.N.N.N.N.N.N.N.N.N.N.N.N.N.N.N.N.N.N.N.",
"N.N.N.N.N.N.N.N.N.N.N.N.N.N.N.N.N.N.N.N.N.N.N.N.N.N.N.N.N.N.N.N.N.N.N.N.N.N.N.N.N.N.N.N.N.N.N.N.N.N.N.N.N.N.N.N.N.N.N.N.N.N.N.N.",
"N.N.N.N.N.N.N.N.N.N.N.N.N.N.N.N.N.N.N.N.N.N.N.N.N.N.N.N.N.N.N.N.N.N.N.N.N.N.N.N.N.N.N.N.N.N.N.N.N.N.N.N.N.N.N.N.N.N.N.N.N.N.N.N.",
"N.N.N.N.N.N.N.N.N.N.N.N.N.N.N.N.N.N.N.N.N.N.N.N.N.N.N.N.N.N.N.N.N.N.N.N.N.v.k.c.N.N.N.N.N.N.N.N.N.N.N.N.N.N.N.N.N.N.N.N.N.N.N.N.",
"N.N.N.N.N.N.N.N.N.N.N.N.N.N.N.N.N.N.N.N.N.N.N.N.N.N.N.N.N.N.N.N.N.N.N.d.v = @ = d <.N.N.N.N.N.N.N.N.N.N.N.N.N.N.N.N.N.N.N.N.N.N.",
"N.N.N.N.N.N.N.N.N.N.N.N.N.N.N.N.N.N.N.N.N.N.N.N.N.N.N.N.N.N.N.N.N.N.%.O X % 1 * X o F N.N.N.N.N.N.N.N.N.N.N.N.N.N.N.N.N.N.N.N.N.",
"N.N.N.N.N.N.N.N.N.N.N.N.N.N.N.N.N.N.N.N.N.N.N.N.N.N.N.N.N.N.N.N.N.4.O $ C 0.r.0.P = o #.N.M.N.N.N.N.N.N.N.N.N.N.N.N.N.N.N.N.N.N.",
"N.N.N.N.N.N.N.N.N.N.N.N.N.N.N.N.N.N.N.N.N.N.N.N.N.N.N.N.N.N.N.N.N.s O K i.y.r.t.p.| @ % j.N.N.N.N.N.N.N.N.N.N.N.N.N.N.N.N.N.N.N.",
"N.N.N.N.N.N.N.N.N.N.N.N.N.N.N.N.N.N.N.N.N.N.N.N.N.N.N.N.N.N.N.N.k.$ - q.r.r.r.r.r.i.M X v N.N.N.N.N.N.N.N.N.N.N.N.N.N.N.N.N.N.N.",
"N.N.N.N.N.N.N.N.N.N.N.N.N.N.N.N.N.N.N.N.N.N.N.N.N.N.N.N.N.N.M.N.5.O u t.r.r.r.r.e.t.0.- O <.N.N.N.N.N.N.N.N.N.N.N.N.N.N.N.N.N.N.",
"N.N.N.N.N.N.N.N.N.N.N.N.N.N.N.N.N.N.N.N.N.N.N.N.N.N.N.N.N.N.N.N.d.O 7 t.r.r.r.r.r.e.i.^ O 6 b.N.N.N.N.N.N.N.N.N.N.N.N.N.N.N.N.N.",
"N.N.N.N.N.N.N.N.N.N.N.N.N.N.N.N.N.N.N.N.N.N.N.N.N.N.N.N.N.N.N.N.b.- @ =.u.r.r.r.r.r.r.t.u . @.N.N.N.N.N.N.N.N.N.N.N.N.N.N.N.N.N.",
"N.N.N.N.N.N.N.N.N.N.N.N.N.N.N.N.N.N.N.N.N.N.N.N.N.N.N.N.N.N.N.N.N.H o p y.r.r.r.r.r.e.y...@ < b.N.M.N.N.M.N.N.N.N.N.N.N.N.N.N.N.",
"N.N.N.N.N.N.N.N.N.N.N.N.N.N.N.N.N.N.N.N.N.N.N.N.N.N.N.N.N.N.N.N.N.c.; O / i.r.r.t.r.r.y.i.u X d.N.N.N.N.N.N.N.N.N.N.N.N.N.N.N.N.",
"N.N.N.N.N.N.N.N.N.N.N.N.N.N.N.N.N.N.N.N.N.N.N.N.N.N.N.N.N.N.N.N.M.N.;.O < q.r.r.e.r.i.=.K < $ s A Z A A +.5.N.N.N.N.N.N.N.N.N.N.",
"N.N.N.N.N.N.N.N.N.5.J m.N.N.N.N.N.N.N.N.N.N.N.N.N.N.N.N.N.N.N.N.N.N.N.d X V i.y.i.r.N $ X @ # O X X . X . O v v.N.N.N.N.N.N.N.N.",
"N.N.N.N.N.N.N.N.N.b   :.N.N.N.N.N.N.N.N.N.N.N.N.N.N.N.N.N.N.N.N.N.N.N.g.O % ..*.( a + % f Y R E E E T T h = o e n.N.N.N.N.N.N.N.",
"N.N.N.N.N.N.N.M.N.>.o l N.M.M.N.N.N.N.N.N.N.N.N.N.N.N.N.N.N.N.N.N.N.M.N.@.O & @ @ @ = W } { { { { { } { { ) 4 o J N.N.N.N.N.N.N.",
"N.N.N.N.N.N.N.N.N.b., @ j.N.N.N.N.N.N.N.N.N.N.N.N.N.N.N.N.N.N.N.N.N.N.N.Z $ $ 7 < # j } ` ' ] ' ' ' ' ' ' } ~ % - c.N.N.N.N.N.N.",
"N.N.N.N.N.N.N.N.M.N.@.. S 2.,.j.N.N.M.N.N.N.N.N.N.N.N.N.N.N.N.N.N.M.N.$.. = | e.< % ) [ ' ] ] ] ] ] ] ] ] ] ] 3 O d.N.N.N.N.N.N.",
"N.N.N.N.N.N.N.N.N.N.@.$ @ . o $ x l.N.N.N.N.N.N.N.N.N.N.N.N.N.N.N.N.b.- @ | a.0.= % _ [ ' ] ] ] ] ] ] ] ] ] [ 8 O 5.N.M.N.N.N.N.",
"N.N.N.N.N.N.N.N.N.@.O $ 6 M k = X & g.N.N.N.N.N.N.N.N.N.N.N.N.N.M.N.;.o u t.r.r.7 @ W { ' ] ] ] ] ] ] ] ] ] ' * # j.N.N.N.N.N.N.",
"N.N.N.N.N.N.M.N.5.O % L r.y.u.0.k O 6 n.N.N.N.N.N.N.N.N.N.N.N.N.N.N.t X / i.q.i.V O 3 ' { ] ] ] ] ] ] ] ] } h O r N.N.N.N.N.N.N.",
"N.N.N.N.N.N.N.N.l X K p.r.r.r.y.t.w . &.N.M.N.N.N.N.N.N.N.N.N.M.N.d.O < q.r.r.r.q.< @ 5 Q ` ' ' ' ] ] ] _ h % O 4.N.M.N.N.N.N.N.",
"N.N.N.N.N.N.N.c.* & 0.r.r.r.r.e.u.| X t N.N.N.N.N.N.N.N.N.N.N.N.N.S . V i.r.r.r.y.-.- O % : : , > > , , % X @ &.N.N.N.N.N.N.N.N.",
"N.N.N.N.N.N.N.j.$ 1 r.r.r.r.r.r.r.q.< O d.N.M.N.N.N.N.N.N.N.N.N.z.& $ 7.u.r.r.r.r.y.q.a $ $ % % % $ # $ - x d.N.N.N.N.N.N.N.N.N.",
"N.N.N.N.N.N.N.c.* & 0.t.r.r.r.r.r.i.D . S N.N.N.N.N.N.N.N.N.M.N.$.. k y.r.r.r.r.r.e.i.M . @.v.l.l.l.k.j.v.N.N.M.N.N.N.N.N.N.N.N.",
"N.N.N.N.N.N.N.N.l X ^ i.r.r.r.r.r.y.-.% - x.N.N.N.N.N.N.N.N.N.m.q O  .u.r.r.r.r.r.y.7.$ & z.N.N.N.N.N.N.N.N.N.N.N.N.N.N.N.N.N.N.",
"N.N.N.N.N.N.M.N.>.o w t.r.r.r.r.r.r.u.a . $.N.N.N.N.N.N.N.M.N.1.X 7 r.r.r.r.r.r.e.i.C . A N.M.N.N.N.M.N.N.N.N.N.N.N.N.N.N.N.N.N.",
"N.N.N.N.N.N.N.N.b.1 @ *.u.r.r.r.r.r.u. .O r M.N.N.N.N.N.N.N.N.n o L i.r.r.r.r.r.r.w.< O d.N.N.N.N.N.N.N.N.N.N.N.N.N.N.N.N.N.N.N.",
"N.N.N.N.N.N.N.N.N.+.. M u.r.r.r.r.r.r.0.- % s d s s s s s d s = @ =.u.r.r.r.r.r.i./ O r N.N.N.N.N.N.N.N.N.N.N.N.N.N.N.N.N.N.N.N.",
"N.N.N.N.N.N.N.N.N.j.$ * 8.y.r.r.r.r.r.w.< $ @ O O @ O O @ @ O $ % -.y.r.r.r.r.r.y.u o ;.N.N.N.N.N.N.N.N.N.N.N.N.N.N.N.N.N.N.N.N.",
"N.N.N.N.N.N.N.N.N.N.c . L i.w.r.r.w.y.=.@ = Q ~ Q ~ ~ ! ~ ~ ~ 8 + L i.w.r.r.w.i.=.@ - v.N.N.N.N.N.N.N.N.N.N.N.N.N.N.N.N.N.N.N.N.",
"N.N.N.N.N.N.N.N.M.N.2.O < 7.i.t.t.y.y.i + f } { [ } { [ } ] } E @ - 7.i.t.t.u.r.u o J N.M.N.N.N.N.N.N.N.N.N.N.N.N.N.N.N.N.N.N.N.",
"N.N.N.N.N.N.N.N.N.N.N.x . < ( 9.q.X.y @ * _ ] ' ] ' ' ] ] ] ] ] 8 + ; / 8.9...y X ; v.N.N.N.N.N.N.N.N.N.N.N.N.N.N.N.N.N.N.N.N.N.",
"N.N.N.N.N.N.N.N.N.N.N.b.b @ % = , % @ , ~ { ] ] ] ] ] ] ] ] ] [ ` 5 $ @ * - $ @ 0 k.N.N.N.N.N.N.N.N.N.N.N.N.N.N.N.N.N.N.N.N.N.N.",
"N.N.N.N.N.N.N.N.N.N.N.N.J @ $ @ @ @ % 9 [ ] ] ] ] ] ] ] ] ] ] ' { j % $ @ @ @ $ e c.N.N.N.N.N.N.N.N.N.N.N.N.N.N.N.N.N.N.N.N.N.N.",
"N.N.N.N.N.N.N.N.N.N.N.H o % N  . .V * @ 9 ] ] ] ] ] ] ] ] ] ' { I @ $ k | ..L < X 6 v.N.N.N.N.N.N.N.N.N.N.N.N.N.N.N.N.N.N.N.N.N.",
"N.N.N.N.N.N.N.N.N.N.5.O = ..i.u.y.i.-.- + U { ' ] ] ] ] ] ] ] _ & @ L i.y.y.i.w.w . H N.N.N.N.N.N.N.N.N.N.N.N.N.N.N.N.N.N.N.N.N.",
"N.N.N.N.N.N.N.N.N.N.v o K i.w.r.r.w.i.^ @ 5 { ] ] ] ] ] [ ] } j + p i.r.r.r.e.u.-.$ * x.N.N.N.N.N.N.N.N.N.N.N.N.N.N.N.N.N.N.N.N.",
"N.N.N.N.N.N.N.N.N.j.$ * 9.t.r.r.r.r.y.7.& % 2 2 2 2 3 3 2 2 3 : @ ^ u.r.r.r.r.r.u.k o #.N.N.N.N.N.N.N.N.N.N.N.N.N.N.N.N.N.N.N.N.",
"N.N.N.N.N.N.N.M.N.J . N u.r.r.r.r.r.y.8.& $ @ @ @ @ @ @ @ @ O % @ ^ u.r.r.r.r.r.u...@ 6 b.N.N.N.N.N.N.N.N.N.N.N.N.N.N.N.N.N.N.N.",
"N.N.N.N.N.N.N.N.c.; @ =.u.r.r.r.r.e.u. .O r g.g.g.g.g.g.h.d.l.J o M i.w.r.r.r.r.r.t.w . :.N.M.N.N.N.N.N.N.N.N.N.N.N.N.N.N.N.N.N.",
"N.N.N.N.N.N.N.N.$.. a y.r.r.r.t.r.r.y.k . $.N.N.N.N.N.N.N.N.N.j.$ * 8.t.r.r.r.t.e.u./ X t N.N.N.N.N.N.N.N.N.N.N.N.N.N.N.N.N.N.N.",
"N.N.N.N.N.N.N.m.q O  .u.e.r.r.r.r.y.-.$ * z.N.N.N.N.N.M.N.N.M.N.b o K i.r.r.r.r.r.t.q.1 O 5.N.N.N.N.N.N.N.N.N.N.N.N.N.N.N.N.N.N.",
"N.N.N.N.N.M.N.1.O 7 r.r.r.r.r.r.e.i.B . G N.M.N.N.N.N.N.N.N.M.N.5.O 1 q.r.r.r.r.r.r.u.K . b N.N.N.N.N.N.N.N.N.N.N.N.N.N.N.N.N.N.",
"N.N.N.N.N.N.N.l o L i.e.t.r.r.r.t.9.= $ g.N.N.N.N.N.N.N.N.N.N.N.N.t X / i.e.r.r.r.r.t.9.& $ g.N.N.N.N.N.N.N.N.N.N.N.N.N.N.N.N.N.",
"N.N.N.N.N.N.g.@ - 0.r.r.r.r.r.r.u.L X x N.N.N.N.N.N.N.N.N.N.N.N.N.:.X w t.r.r.r.r.r.e.u.N . J N.M.N.N.N.N.N.N.N.N.N.N.N.N.N.N.N.",
"N.N.N.N.M.N.%.. M i.r.r.r.r.r.r.r.7 X 2.N.N.N.N.N.N.N.N.N.N.N.N.N.n.6 O ..u.r.r.r.r.r.u.*.@ q N.N.N.N.N.N.N.N.N.N.N.N.N.N.N.N.N.",
"N.N.N.N.N.N.o.. L i.w.r.r.r.r.i.| O q m.N.N.N.N.N.N.N.N.N.N.N.N.M.N.#.. a y.r.r.r.r.r.y.7.% ; m.N.N.N.N.N.N.N.N.N.N.N.N.N.N.N.N.",
"N.N.N.N.M.N.$.. B i.w.r.r.r.r.y.p o %.N.M.N.N.N.N.N.N.N.N.N.N.N.N.N.c.= $ 6.y.e.r.r.e.u.=.O r M.N.N.N.N.N.N.N.N.N.N.N.N.N.N.N.N.",
"N.N.N.N.N.N.f.@ - 9.y.r.r.r.i...@ - v.N.N.N.N.N.N.N.N.N.N.N.N.N.N.M.N.F o M i.t.r.r.r.i.m o J N.N.N.N.N.N.N.N.N.N.N.N.N.N.N.N.N.",
"N.N.N.N.N.N.N.x . u 8.y.y.y.X.1 o #.N.N.N.N.N.N.N.N.N.N.N.N.N.N.N.N.N.l.$ $ V e.u.u.w.D @ & l.N.M.N.N.N.N.N.N.N.N.N.N.N.N.N.N.N.",
"N.N.N.N.N.N.N.x.6 . & k B i $ . l M.N.N.N.N.N.N.N.N.N.N.N.N.N.N.N.N.N.N.:.O O < z M < O O >.N.N.N.N.N.N.N.N.N.N.N.N.N.N.N.N.N.N.",
"N.N.N.N.N.N.M.N.c.n % o . o = @.M.N.N.N.N.N.N.N.N.N.N.N.N.N.N.N.N.N.N.N.N.5.r O . o @ r 5.N.N.N.N.N.N.N.N.N.N.N.N.N.N.N.N.N.N.N.",
"N.N.N.N.N.N.N.N.N.N.k.,.&.<.x.N.N.N.N.N.N.N.N.N.N.N.N.N.N.N.N.N.N.N.N.N.N.N.N.f.:.,.g.N.N.N.N.N.N.N.N.N.N.N.N.N.N.N.N.N.N.N.N.N.",
"N.N.N.N.N.N.N.N.N.N.N.N.N.N.N.N.N.N.N.N.N.N.N.N.N.N.N.N.N.N.N.N.N.N.N.N.N.M.N.N.N.N.N.N.M.N.N.N.N.N.N.N.N.N.N.N.N.N.N.N.N.N.N.N.",
"N.N.N.N.N.N.N.N.N.N.N.M.N.M.N.N.N.N.N.N.N.N.N.N.N.N.N.N.N.N.N.N.N.N.N.N.N.N.N.N.M.N.N.N.N.N.N.N.N.N.N.N.N.N.N.N.N.N.N.N.N.N.N.N.",
"N.N.N.N.N.N.N.N.N.N.N.N.N.N.N.N.N.N.N.N.N.N.N.N.N.N.N.N.N.N.N.N.N.N.N.N.N.N.N.N.N.N.N.N.N.N.N.N.N.N.N.N.N.N.N.N.N.N.N.N.N.N.N.N.",
"N.N.N.N.N.N.N.N.N.N.N.N.N.N.N.N.N.N.N.N.N.N.N.N.N.N.N.N.N.N.N.N.N.N.N.N.N.N.N.N.N.N.N.N.N.N.N.N.N.N.N.N.N.N.N.N.N.N.N.N.N.N.N.N.",
"N.N.N.N.N.N.N.N.N.N.N.N.N.N.N.N.N.N.N.N.N.N.N.N.N.N.N.N.N.N.N.N.N.N.N.N.N.N.N.N.N.N.N.N.N.N.N.N.N.N.N.N.N.N.N.N.N.N.N.N.N.N.N.N.",
"N.N.N.N.N.N.N.N.N.N.N.N.N.N.N.N.N.N.N.N.N.N.N.N.N.N.N.N.N.N.N.N.N.N.N.N.N.N.N.N.N.N.N.N.N.N.N.N.N.N.N.N.N.N.N.N.N.N.N.N.N.N.N.N.",
"N.N.N.N.N.N.N.N.N.N.N.N.N.N.N.N.N.N.N.N.N.N.N.N.N.N.N.N.N.N.N.N.N.N.N.N.N.N.N.N.N.N.N.N.N.N.N.N.N.N.N.N.N.N.N.N.N.N.N.N.N.N.N.N."
};
