/* XPM */
static char *player__29_1710156994[] = {
/* columns rows colors chars-per-pixel */
"64 64 152 2 ",
"   c #00005A",
".  c #001665",
"X  c #001A66",
"o  c #001668",
"O  c #001C69",
"+  c #002065",
"@  c #00236D",
"#  c #01286F",
"$  c #012571",
"%  c #042974",
"&  c #092C77",
"*  c #0C2E7A",
"=  c #102E78",
"-  c #0C3077",
";  c #0E327A",
":  c #13337C",
">  c #19377F",
",  c #16397E",
"<  c #1A387F",
"1  c #0E2F82",
"2  c #133382",
"3  c #1A3783",
"4  c #1D3A83",
"5  c #17358B",
"6  c #18368C",
"7  c #1A3791",
"8  c #1E3A93",
"9  c #223E84",
"0  c #253D8A",
"q  c #213B97",
"w  c #233C99",
"e  c #293FA2",
"r  c #254385",
"t  c #2A438C",
"y  c #2E4A8A",
"u  c #314D8C",
"i  c #35518F",
"p  c #38518F",
"a  c #2E4390",
"s  c #324592",
"d  c #354996",
"f  c #3C4C9A",
"g  c #3C5592",
"h  c #3E5893",
"j  c #2B40A5",
"k  c #2F43AA",
"l  c #3144AC",
"z  c #3546B2",
"x  c #3949B7",
"c  c #3C4ABB",
"v  c #424F9E",
"b  c #405793",
"n  c #445C96",
"m  c #44519F",
"M  c #455E98",
"N  c #485F98",
"B  c #4B639B",
"V  c #51669D",
"C  c #4652A1",
"Z  c #4C55A5",
"A  c #4F57A8",
"S  c #545AAB",
"D  c #595EAE",
"F  c #5B5EB0",
"G  c #566CA1",
"H  c #596FA3",
"J  c #5D72A5",
"K  c #5E61B2",
"L  c #6176A7",
"P  c #6277A8",
"I  c #697DAB",
"U  c #6464B6",
"Y  c #6665B8",
"T  c #6D6ABD",
"R  c #716CBF",
"E  c #414EC1",
"W  c #4651C8",
"Q  c #4A53CE",
"!  c #4E55D3",
"~  c #5057D5",
"^  c #5257DA",
"/  c #5459DD",
"(  c #736DC1",
")  c #7670C3",
"_  c #7871C5",
"`  c #7D74C8",
"'  c #575BE0",
"]  c #5B5CE6",
"[  c #6160EE",
"{  c #6663F5",
"}  c #6864F7",
"|  c #6C66FC",
" . c #6F68FF",
".. c #726AFF",
"X. c #8277CB",
"o. c #8578CD",
"O. c #887ACF",
"+. c #8779D0",
"@. c #8C7CD2",
"#. c #927FD7",
"$. c #7081AE",
"%. c #7486B2",
"&. c #7C8DB6",
"*. c #8293BA",
"=. c #8C9BBF",
"-. c #8F9EC0",
";. c #909FC1",
":. c #9280D6",
">. c #9683D9",
",. c #9B86DD",
"<. c #9F88DF",
"1. c #92A2C3",
"2. c #99A7C6",
"3. c #9AA8C7",
"4. c #9DAAC9",
"5. c #A3AFCC",
"6. c #A4B0CC",
"7. c #A9B5CF",
"8. c #ABB7D1",
"9. c #ADB8D2",
"0. c #B1BBD3",
"q. c #9F88E0",
"w. c #A38BE3",
"e. c #AA8FE7",
"r. c #AD91E9",
"t. c #B394EE",
"y. c #B797F1",
"u. c #B897F1",
"i. c #BB9AF3",
"p. c #C09CF7",
"a. c #C39EF9",
"s. c #C6A0FB",
"d. c #CAA3FD",
"f. c #D0A6FF",
"g. c #BAC3D9",
"h. c #BEC8DB",
"j. c #C2CBDD",
"k. c #CDD4E3",
"l. c #D0D6E5",
"z. c #D4D9E7",
"x. c #D5DBE8",
"c. c #D9DEEA",
"v. c #DDE2EC",
"b. c #E2E6EE",
"n. c #E3E7F0",
"m. c #E6EAF1",
"M. c #E9EDF3",
"N. c #EFF1F6",
"B. c #F0F2F7",
"V. c #F3F5F9",
"C. c #F7F8FB",
"Z. c #FFFFFF",
/* pixels */
"Z.Z.Z.Z.Z.Z.Z.Z.Z.Z.Z.Z.Z.Z.Z.Z.Z.Z.Z.Z.Z.Z.Z.Z.Z.Z.Z.Z.Z.Z.Z.Z.Z.Z.Z.Z.Z.Z.Z.Z.Z.Z.Z.Z.Z.Z.Z.Z.Z.Z.Z.Z.Z.Z.Z.Z.Z.Z.Z.Z.Z.Z.Z.Z.",
"Z.Z.Z.Z.Z.Z.Z.Z.Z.Z.Z.Z.Z.Z.Z.Z.Z.Z.Z.Z.Z.Z.Z.Z.Z.Z.Z.Z.Z.Z.Z.Z.Z.Z.Z.Z.Z.Z.Z.Z.Z.Z.Z.Z.Z.Z.Z.Z.Z.Z.Z.Z.Z.Z.Z.Z.Z.Z.Z.Z.Z.Z.Z.Z.",
"Z.Z.Z.Z.Z.Z.Z.Z.Z.Z.Z.Z.Z.Z.Z.Z.Z.Z.Z.Z.Z.Z.Z.Z.Z.Z.Z.Z.Z.Z.Z.Z.Z.Z.Z.Z.Z.Z.Z.Z.Z.Z.Z.Z.Z.Z.Z.Z.Z.Z.Z.Z.Z.Z.Z.Z.Z.Z.Z.Z.Z.Z.Z.Z.",
"Z.Z.Z.Z.Z.Z.Z.Z.Z.Z.Z.Z.Z.Z.Z.Z.Z.Z.Z.Z.Z.Z.Z.Z.Z.Z.Z.Z.Z.Z.Z.Z.Z.Z.Z.Z.Z.Z.Z.Z.Z.Z.Z.Z.Z.Z.Z.Z.Z.Z.C.Z.Z.Z.Z.Z.Z.Z.Z.Z.Z.Z.Z.Z.",
"Z.Z.Z.Z.Z.Z.Z.Z.Z.Z.Z.Z.Z.Z.Z.Z.Z.Z.Z.Z.Z.Z.Z.Z.Z.Z.Z.Z.Z.Z.Z.Z.Z.Z.Z.Z.Z.Z.Z.Z.Z.Z.Z.Z.Z.Z.Z.m.m.Z.Z.Z.Z.Z.Z.Z.Z.Z.Z.Z.Z.Z.Z.Z.",
"Z.Z.Z.Z.Z.Z.Z.Z.Z.Z.Z.Z.Z.Z.Z.Z.Z.Z.Z.Z.Z.Z.Z.Z.Z.Z.Z.Z.Z.Z.Z.Z.Z.Z.Z.Z.Z.Z.Z.Z.Z.Z.Z.Z.B.*.y , : y *.C.Z.Z.Z.Z.Z.Z.Z.Z.Z.Z.Z.Z.",
"Z.Z.Z.Z.Z.Z.Z.Z.Z.Z.Z.Z.Z.Z.Z.Z.Z.Z.Z.Z.Z.Z.Z.Z.Z.Z.Z.Z.Z.Z.Z.Z.Z.Z.Z.Z.Z.Z.Z.Z.Z.Z.Z.n.y . O & & O . i n.Z.Z.Z.Z.Z.Z.Z.Z.Z.Z.Z.",
"Z.Z.Z.Z.Z.Z.Z.Z.Z.Z.Z.Z.Z.Z.Z.Z.Z.Z.Z.Z.Z.Z.Z.Z.Z.Z.Z.Z.Z.Z.Z.Z.Z.Z.Z.Z.Z.Z.Z.Z.Z.Z.C.p . 0 +.r.r.` 0 . g Z.Z.Z.Z.Z.Z.Z.Z.Z.Z.Z.",
"Z.Z.Z.Z.Z.Z.Z.Z.Z.Z.Z.Z.Z.Z.Z.Z.Z.Z.Z.Z.Z.Z.Z.Z.Z.Z.Z.Z.Z.Z.Z.Z.Z.Z.Z.Z.Z.Z.Z.Z.Z.Z.1.. 4 r.d.i.p.d.e.3 O 3.Z.C.Z.Z.Z.Z.Z.Z.Z.Z.",
"Z.Z.Z.Z.Z.Z.Z.Z.Z.Z.Z.Z.Z.Z.Z.Z.Z.Z.Z.Z.Z.Z.Z.Z.Z.Z.Z.Z.Z.Z.Z.Z.Z.Z.Z.Z.Z.Z.Z.Z.Z.Z.M o ) d.u.i.i.y.d.R . B Z.Z.Z.Z.Z.Z.Z.Z.Z.Z.",
"Z.Z.Z.Z.Z.Z.Z.Z.Z.Z.Z.Z.Z.Z.Z.Z.Z.Z.Z.Z.Z.Z.Z.Z.Z.Z.Z.Z.Z.Z.Z.Z.Z.Z.Z.Z.Z.Z.Z.Z.Z.C.r # <.a.i.i.i.i.a.,.O u Z.Z.Z.Z.Z.Z.Z.Z.Z.Z.",
"Z.Z.Z.Z.Z.Z.Z.Z.Z.Z.Z.Z.Z.Z.Z.Z.Z.Z.Z.Z.Z.Z.Z.Z.Z.Z.Z.Z.Z.Z.Z.Z.Z.Z.Z.Z.Z.Z.Z.Z.Z.C.r $ <.a.i.i.i.i.p.w.$ r C.Z.Z.Z.Z.Z.Z.Z.Z.Z.",
"Z.Z.Z.Z.Z.Z.Z.Z.Z.Z.Z.Z.Z.Z.Z.Z.Z.Z.Z.Z.Z.Z.Z.Z.Z.Z.Z.Z.Z.Z.Z.Z.Z.Z.Z.Z.Z.Z.Z.Z.Z.C.y O q.a.i.i.i.i.a.w.$ r V.Z.Z.Z.Z.Z.Z.Z.Z.Z.",
"Z.Z.Z.Z.Z.Z.Z.Z.Z.Z.Z.Z.Z.Z.Z.Z.Z.Z.Z.Z.Z.Z.Z.Z.Z.Z.Z.Z.Z.Z.Z.Z.Z.Z.Z.Z.Z.Z.Z.Z.Z.Z.u @ ,.a.i.i.i.i.a.w.% 4 V.Z.Z.Z.Z.Z.Z.Z.Z.Z.",
"Z.Z.Z.Z.Z.Z.Z.Z.Z.g.%.C.Z.Z.Z.Z.Z.Z.Z.Z.Z.Z.Z.Z.Z.Z.Z.Z.Z.Z.Z.Z.Z.Z.Z.Z.Z.Z.Z.Z.Z.Z.i O >.a.i.i.i.i.a.e.% 3 N.Z.Z.Z.Z.Z.Z.Z.Z.Z.",
"Z.Z.Z.Z.Z.Z.Z.Z.Z.V   2.Z.Z.Z.Z.Z.Z.Z.Z.Z.Z.Z.Z.Z.Z.Z.Z.Z.Z.Z.Z.Z.Z.Z.Z.Z.Z.Z.Z.Z.Z.g O :.s.u.i.i.u.i.r.& : M.Z.Z.Z.Z.Z.Z.Z.Z.Z.",
"Z.Z.Z.Z.Z.Z.Z.Z.Z.2.o b Z.Z.Z.Z.Z.Z.Z.Z.Z.Z.Z.Z.Z.Z.Z.Z.Z.Z.Z.Z.Z.Z.Z.Z.Z.Z.Z.Z.Z.Z.n O @.a.y.a.d.s.d.i.& ; m.Z.Z.Z.Z.Z.Z.Z.Z.Z.",
"Z.Z.Z.Z.Z.Z.Z.Z.Z.M.: @ k.Z.Z.Z.Z.C.Z.Z.Z.Z.Z.Z.Z.Z.Z.Z.Z.Z.Z.Z.Z.Z.Z.Z.Z.Z.Z.Z.Z.Z.J . Y d.a.q.T S T R @ u Z.Z.C.Z.Z.Z.Z.Z.Z.Z.",
"Z.Z.Z.Z.Z.Z.Z.Z.Z.Z.%.. H 0.5.z.Z.Z.Z.Z.Z.Z.Z.Z.Z.Z.Z.Z.Z.Z.Z.Z.Z.Z.Z.Z.Z.Z.Z.Z.c.I 3 $ % a v & X X X # $ i k.Z.Z.Z.Z.Z.Z.Z.Z.Z.",
"Z.Z.Z.Z.Z.Z.Z.Z.C.Z.*.$ $ . . % B x.Z.C.Z.Z.Z.Z.Z.Z.Z.Z.Z.Z.Z.Z.Z.Z.Z.Z.Z.C.Z.g.= . $ 2 ; $ + % a x k 2 % + % g =.m.Z.Z.Z.Z.Z.Z.",
"Z.Z.Z.Z.Z.Z.Z.Z.Z.*.O # < m f & o = j.Z.Z.Z.Z.Z.Z.Z.Z.Z.Z.Z.Z.Z.Z.Z.Z.Z.Z.Z.j.% O v >.i.S + 2 /  . . .{ Q e * O . : 4.Z.Z.Z.Z.Z.",
"Z.Z.Z.Z.Z.Z.Z.Z.g.O $ U u.s.a.e.f X r B.Z.Z.Z.Z.Z.Z.Z.Z.Z.Z.Z.Z.Z.Z.Z.Z.Z.c.> X C a.d.t.2 # ^ | { { { }  .| [ W q # O 6.Z.C.Z.Z.",
"Z.Z.Z.Z.Z.Z.Z.Z.B . D f.i.i.u.s.p.t o ;.Z.Z.Z.Z.Z.Z.Z.Z.Z.Z.Z.Z.Z.Z.C.Z.m.r O d i.i.p.#.@ 6 } { } } } } { { }  .| z @ , m.Z.Z.Z.",
"Z.Z.Z.Z.Z.Z.Z.n.: % e.p.u.i.i.u.d.` o i C.Z.Z.Z.Z.Z.Z.Z.Z.Z.Z.Z.Z.Z.Z.C.i o 0 y.a.y.d.+.+ w | } } } } } } } } { } | 8 o 1.Z.Z.Z.",
"Z.Z.Z.Z.Z.C.Z.z.% 3 u.i.i.i.i.i.i.t.4 O g.Z.Z.Z.Z.Z.Z.Z.Z.Z.Z.Z.Z.Z.Z.B . 3 r.a.i.i.a.,.# 1 { { } } } } } } } } { ..A o P Z.C.Z.",
"Z.Z.Z.Z.Z.Z.Z.n.- & e.a.i.i.i.p.i.d.K . J Z.C.Z.Z.Z.Z.Z.Z.Z.Z.Z.Z.Z.L O : w.a.u.i.i.i.i.0 + c ..} { { } } } } } {  .W X H Z.Z.Z.",
"Z.Z.Z.Z.Z.Z.Z.Z.n o ( d.i.i.i.i.i.a.w.$ * v.Z.Z.Z.Z.Z.Z.Z.Z.Z.Z.Z.%.O & :.s.i.i.i.i.i.s._ @ % c {  . .{ { { { } {  .l . &.Z.C.Z.",
"Z.Z.Z.Z.Z.Z.Z.Z.4.o t a.i.i.i.p.i.i.s.f . *.Z.C.Z.Z.Z.Z.Z.Z.C.Z.7.O $ X.d.i.i.i.i.i.i.i.d.A # @ 1 z ^ {  . .} { ../ & @ j.Z.Z.Z.",
"Z.Z.Z.Z.Z.Z.Z.Z.M.4 @ #.s.i.i.i.i.i.d.o.O u Z.Z.Z.Z.Z.Z.Z.Z.Z.Z.i o Y d.u.i.i.i.i.i.i.p.t.0 @ , # . # 5 x / { { W 2 . G Z.Z.Z.Z.",
"Z.Z.Z.Z.Z.Z.Z.C.Z.%.. Z s.u.i.i.i.i.i.r.: % b M n n n n N B B B % 3 t.i.i.i.i.i.i.i.i.i.t . u m.j.I 4 o . % 1 & + . n N.Z.Z.Z.Z.",
"Z.Z.Z.Z.Z.Z.Z.Z.Z.k.$ * r.p.i.i.i.i.i.y.3 $ O O o X + O X X X + # t a.i.i.i.i.i.i.i.p.f O 9 b.Z.Z.Z.N.8.G 4 % - i 1.Z.Z.Z.Z.Z.Z.",
"Z.Z.Z.Z.Z.Z.Z.Z.Z.Z.B . T d.u.i.i.y.s.<.$ ; ! ~ ! ! ~ ~ ! Q ! c @ 0 i.i.u.i.i.i.i.s.Z o : z.Z.C.Z.Z.Z.Z.Z.N.x.v.Z.Z.Z.Z.Z.Z.Z.Z.",
"Z.Z.Z.Z.Z.Z.Z.Z.Z.Z.8.O 2 r.d.p.i.a.a.f + j ..| |  .|  . .| ..{ * $ @.d.a.a.d.a.d.F + % j.Z.C.Z.Z.Z.Z.Z.Z.Z.Z.Z.Z.C.Z.Z.Z.Z.Z.Z.",
"Z.Z.Z.Z.Z.Z.Z.Z.Z.Z.Z.M O 4 o.t.u.>.f @ & ] | { { { { } { { {  .l X 0 q.@.( ( ,.Y @ @ 8.Z.C.Z.Z.Z.Z.Z.Z.Z.Z.Z.Z.Z.Z.Z.Z.Z.Z.Z.Z.",
"Z.Z.Z.Z.Z.Z.Z.Z.Z.C.Z.m.> $ O % = % # * ! | { } } } } } } } } } { 6 # % + . o # $ $ 3.Z.Z.Z.Z.Z.Z.Z.Z.Z.Z.Z.Z.Z.Z.Z.Z.Z.Z.Z.Z.Z.",
"Z.Z.Z.Z.Z.Z.Z.Z.Z.Z.Z.$.@ # 0 f a & $ 2 [ } } } } } } } } } } {  .z # @ 0 Z Z 3 # % 0.Z.C.Z.Z.Z.Z.Z.Z.Z.Z.Z.Z.Z.Z.Z.Z.Z.Z.Z.Z.Z.",
"Z.Z.Z.Z.Z.Z.Z.Z.C.Z.1.o % _ a.a.a.w.0 + 8 | } } } } } } } } { | ! % $ Y i.d.s.y.A O = z.Z.C.Z.Z.Z.Z.Z.Z.Z.Z.Z.Z.Z.Z.Z.Z.Z.Z.Z.Z.",
"Z.Z.Z.Z.Z.Z.Z.Z.Z.z.& @ _ f.i.i.i.a.t.2 # ! | { } { { { } { { | w X D f.i.i.i.i.d.v o u C.Z.Z.Z.Z.Z.Z.Z.Z.Z.Z.Z.Z.Z.Z.Z.Z.Z.Z.Z.",
"Z.Z.Z.Z.Z.Z.Z.Z.Z.g . C d.u.i.i.i.u.d.F X z ..} | | | | | |  .{ 1 % w.i.i.i.i.i.p.t.0 O J Z.Z.Z.Z.Z.Z.Z.Z.Z.Z.Z.Z.Z.Z.Z.Z.Z.Z.Z.",
"Z.Z.Z.Z.Z.Z.C.Z.&.. 4 t.a.i.i.i.i.i.a.( + 2 w q q q q w q q q 8 % : y.p.i.i.i.i.u.a.,.& O =.Z.C.Z.Z.Z.Z.Z.Z.Z.Z.Z.Z.Z.Z.Z.Z.Z.Z.",
"Z.Z.Z.Z.Z.C.Z.j.$ @ +.s.u.i.i.i.i.i.d.F $ $ O O X O X O X + O O % % w.a.i.i.i.i.i.i.d._ @ % j.Z.C.Z.Z.Z.Z.Z.Z.Z.Z.Z.Z.Z.Z.Z.Z.Z.",
"Z.Z.Z.Z.Z.Z.B.y O S d.i.i.i.i.i.i.i.u.4 O *.g.8.0.9.0.0.0.0.9.g.M o D d.u.i.i.i.i.i.u.d.S O 9 M.Z.Z.Z.Z.Z.Z.Z.Z.Z.Z.Z.Z.Z.Z.Z.Z.",
"Z.Z.Z.Z.Z.Z.I . 0 i.i.i.i.i.i.i.i.d.D . u Z.Z.Z.Z.Z.Z.Z.Z.Z.Z.Z.j.$ # o.d.u.i.i.i.i.i.i.i.a . B Z.Z.Z.Z.Z.Z.Z.Z.Z.Z.Z.Z.Z.Z.Z.Z.",
"Z.Z.Z.Z.Z.9.O % ,.a.i.p.i.i.p.i.a.+.$ $ j.Z.C.Z.Z.Z.C.Z.Z.C.Z.C.Z.&.o : e.a.i.i.i.i.i.i.a.w., . *.Z.Z.Z.Z.Z.Z.Z.Z.Z.Z.Z.Z.Z.Z.Z.",
"Z.Z.Z.Z.V.r O Y d.u.i.i.i.i.i.p.t.3 O &.Z.C.Z.Z.Z.Z.Z.Z.Z.Z.Z.Z.Z.Z.B . t i.i.i.i.i.i.i.i.d.X.@ , M.Z.Z.Z.Z.Z.Z.Z.Z.Z.Z.Z.Z.Z.Z.",
"Z.Z.C.Z.8.O 0 i.i.i.i.i.i.i.i.a.m o g Z.Z.Z.Z.Z.Z.Z.Z.Z.Z.Z.Z.Z.Z.Z.M.9 O S d.u.i.i.i.i.i.i.s.s o 7.Z.C.Z.Z.Z.Z.Z.Z.Z.Z.Z.Z.Z.Z.",
"Z.Z.Z.Z.*.. K d.u.i.i.i.p.u.d._ + * z.Z.Z.Z.Z.Z.Z.Z.Z.Z.Z.Z.Z.Z.Z.C.Z.j.% @ ( d.i.i.i.i.i.i.s.S . 1.Z.Z.Z.Z.Z.Z.Z.Z.Z.Z.Z.Z.Z.Z.",
"Z.Z.C.Z.*.. K d.i.i.i.i.i.a.w.: O 1.Z.C.Z.Z.Z.Z.Z.Z.Z.Z.Z.Z.Z.Z.Z.Z.Z.Z.-.O * ,.s.i.i.i.i.i.s.m . 4.Z.C.Z.Z.Z.Z.Z.Z.Z.Z.Z.Z.Z.Z.",
"Z.Z.Z.Z.5.. s a.i.i.i.u.i.a.d . V Z.Z.Z.Z.Z.Z.Z.Z.Z.Z.Z.Z.Z.Z.Z.Z.Z.Z.Z.Z.J . 0 i.p.u.i.y.s.e.: @ k.Z.Z.Z.Z.Z.Z.Z.Z.Z.Z.Z.Z.Z.Z.",
"Z.Z.Z.Z.m., @ ( d.a.p.a.d.U O , n.Z.Z.Z.Z.Z.Z.Z.Z.Z.Z.Z.Z.Z.Z.Z.Z.Z.Z.Z.Z.V.y O f u.d.s.d.t.s . N Z.Z.Z.Z.Z.Z.Z.Z.Z.Z.Z.Z.Z.Z.Z.",
"Z.Z.Z.C.Z.-.o % K w.t.,.A $ O 8.Z.C.Z.Z.Z.Z.Z.Z.Z.Z.Z.Z.Z.Z.Z.Z.Z.Z.Z.Z.Z.Z.z.: o 4 U R K 3 o < c.Z.Z.Z.Z.Z.Z.Z.Z.Z.Z.Z.Z.Z.Z.Z.",
"Z.Z.Z.Z.Z.Z.&.@ . $ * @ . $ ;.Z.Z.Z.Z.Z.Z.Z.Z.Z.Z.Z.Z.Z.Z.Z.Z.Z.Z.Z.Z.Z.Z.C.Z.k.u O . . . O g c.Z.C.Z.Z.Z.Z.Z.Z.Z.Z.Z.Z.Z.Z.Z.Z.",
"Z.Z.Z.Z.Z.Z.Z.g.G 4 - r H j.Z.Z.Z.Z.Z.Z.Z.Z.Z.Z.Z.Z.Z.Z.Z.Z.Z.Z.Z.Z.Z.Z.Z.Z.Z.Z.C.8.%.P &.0.Z.Z.Z.Z.Z.Z.Z.Z.Z.Z.Z.Z.Z.Z.Z.Z.Z.Z.",
"Z.Z.Z.Z.Z.Z.Z.Z.Z.B.m.C.Z.Z.Z.Z.Z.Z.Z.Z.Z.Z.Z.Z.Z.Z.Z.Z.Z.Z.Z.Z.Z.Z.Z.Z.Z.Z.Z.Z.Z.Z.Z.Z.Z.Z.Z.Z.Z.Z.Z.Z.Z.Z.Z.Z.Z.Z.Z.Z.Z.Z.Z.Z.",
"Z.Z.Z.Z.Z.Z.Z.Z.Z.Z.Z.Z.Z.Z.Z.Z.Z.Z.Z.Z.Z.Z.Z.Z.Z.Z.Z.Z.Z.Z.Z.Z.Z.Z.Z.Z.Z.Z.Z.Z.Z.C.Z.Z.Z.C.Z.Z.Z.Z.Z.Z.Z.Z.Z.Z.Z.Z.Z.Z.Z.Z.Z.Z.",
"Z.Z.Z.Z.Z.Z.Z.Z.Z.Z.C.Z.Z.Z.Z.Z.Z.Z.Z.Z.Z.Z.Z.Z.Z.Z.Z.Z.Z.Z.Z.Z.Z.Z.Z.Z.Z.Z.Z.Z.Z.Z.Z.Z.Z.Z.Z.Z.Z.Z.Z.Z.Z.Z.Z.Z.Z.Z.Z.Z.Z.Z.Z.Z.",
"Z.Z.Z.Z.Z.Z.Z.Z.Z.Z.Z.Z.Z.Z.Z.Z.Z.Z.Z.Z.Z.Z.Z.Z.Z.Z.Z.Z.Z.Z.Z.Z.Z.Z.Z.Z.Z.Z.Z.Z.Z.Z.Z.Z.Z.Z.Z.Z.Z.Z.Z.Z.Z.Z.Z.Z.Z.Z.Z.Z.Z.Z.Z.Z.",
"Z.Z.Z.Z.Z.Z.Z.Z.Z.Z.Z.Z.Z.Z.Z.Z.Z.Z.Z.Z.Z.Z.Z.Z.Z.Z.Z.Z.Z.Z.Z.Z.Z.Z.Z.Z.Z.Z.Z.Z.Z.Z.Z.Z.Z.Z.Z.Z.Z.Z.Z.Z.Z.Z.Z.Z.Z.Z.Z.Z.Z.Z.Z.Z.",
"Z.Z.Z.Z.Z.Z.Z.Z.Z.Z.Z.Z.Z.Z.Z.Z.Z.Z.Z.Z.Z.Z.Z.Z.Z.Z.Z.Z.Z.Z.Z.Z.Z.Z.Z.Z.Z.Z.Z.Z.Z.Z.Z.Z.Z.Z.Z.Z.Z.Z.Z.Z.Z.Z.Z.Z.Z.Z.Z.Z.Z.Z.Z.Z.",
"Z.Z.Z.Z.Z.Z.Z.Z.Z.Z.Z.Z.Z.Z.Z.Z.Z.Z.Z.Z.Z.Z.Z.Z.Z.Z.Z.Z.Z.Z.Z.Z.Z.Z.Z.Z.Z.Z.Z.Z.Z.Z.Z.Z.Z.Z.Z.Z.Z.Z.Z.Z.Z.Z.Z.Z.Z.Z.Z.Z.Z.Z.Z.Z.",
"Z.Z.Z.Z.Z.Z.Z.Z.Z.Z.Z.Z.Z.Z.Z.Z.Z.Z.Z.Z.Z.Z.Z.Z.Z.Z.Z.Z.Z.Z.Z.Z.Z.Z.Z.Z.Z.Z.Z.Z.Z.Z.Z.Z.Z.Z.Z.Z.Z.Z.Z.Z.Z.Z.Z.Z.Z.Z.Z.Z.Z.Z.Z.Z.",
"Z.Z.Z.Z.Z.Z.Z.Z.Z.Z.Z.Z.Z.Z.Z.Z.Z.Z.Z.Z.Z.Z.Z.Z.Z.Z.Z.Z.Z.Z.Z.Z.Z.Z.Z.Z.Z.Z.Z.Z.Z.Z.Z.Z.Z.Z.Z.Z.Z.Z.Z.Z.Z.Z.Z.Z.Z.Z.Z.Z.Z.Z.Z.Z.",
"Z.Z.Z.Z.Z.Z.Z.Z.Z.Z.Z.Z.Z.Z.Z.Z.Z.Z.Z.Z.Z.Z.Z.Z.Z.Z.Z.Z.Z.Z.Z.Z.Z.Z.Z.Z.Z.Z.Z.Z.Z.Z.Z.Z.Z.Z.Z.Z.Z.Z.Z.Z.Z.Z.Z.Z.Z.Z.Z.Z.Z.Z.Z.Z.",
"Z.Z.Z.Z.Z.Z.Z.Z.Z.Z.Z.Z.Z.Z.Z.Z.Z.Z.Z.Z.Z.Z.Z.Z.Z.Z.Z.Z.Z.Z.Z.Z.Z.Z.Z.Z.Z.Z.Z.Z.Z.Z.Z.Z.Z.Z.Z.Z.Z.Z.Z.Z.Z.Z.Z.Z.Z.Z.Z.Z.Z.Z.Z.Z."
};
