/* XPM */
static char *player__43_1710156996[] = {
/* columns rows colors chars-per-pixel */
"64 64 159 2 ",
"   c #000C62",
".  c #001564",
"X  c #001A66",
"o  c #001768",
"O  c #001C6A",
"+  c #002166",
"@  c #00236D",
"#  c #01286F",
"$  c #012571",
"%  c #042974",
"&  c #092C76",
"*  c #072B79",
"=  c #0C2E7B",
"-  c #0E307A",
";  c #12327C",
":  c #16397E",
">  c #19397F",
",  c #0F3082",
"<  c #163480",
"1  c #1A3783",
"2  c #1D3A82",
"3  c #19358D",
"4  c #143389",
"5  c #1E3993",
"6  c #1C3792",
"7  c #213C86",
"8  c #243D8A",
"9  c #2A3F8D",
"0  c #203B96",
"q  c #243D9B",
"w  c #254285",
"e  c #2A428C",
"r  c #2E4A8B",
"t  c #334E8D",
"y  c #36518F",
"u  c #38528F",
"i  c #2E4391",
"p  c #314592",
"a  c #374997",
"s  c #394997",
"d  c #3D4D9B",
"f  c #375290",
"g  c #3C5592",
"h  c #3F5994",
"j  c #2A40A4",
"k  c #2E42AB",
"l  c #3244AE",
"z  c #3446B1",
"x  c #3748B4",
"c  c #3949B6",
"v  c #3B49BB",
"b  c #414E9E",
"n  c #435C96",
"m  c #43509E",
"M  c #465F99",
"N  c #485E98",
"B  c #4D659C",
"V  c #51679E",
"C  c #52699F",
"Z  c #444FA0",
"A  c #4652A1",
"S  c #4D56A5",
"D  c #4F58A7",
"F  c #5359AA",
"G  c #595DAE",
"H  c #5B5EB0",
"J  c #566BA0",
"K  c #596DA2",
"L  c #5D72A4",
"P  c #5E60B1",
"I  c #6276A6",
"U  c #657AA9",
"Y  c #6A7DAC",
"T  c #6364B5",
"R  c #6666B8",
"E  c #6967B9",
"W  c #6C6ABC",
"Q  c #706CBF",
"!  c #3F4CC1",
"~  c #434FC5",
"^  c #454FC8",
"/  c #4752CA",
"(  c #4953CD",
")  c #746EC1",
"_  c #7770C3",
"`  c #7B73C7",
"'  c #7E74C8",
"]  c #5B5CE5",
"[  c #605FEC",
"{  c #6060ED",
"}  c #6663F5",
"|  c #6864F7",
" . c #6C66FC",
".. c #6F68FF",
"X. c #736BFF",
"o. c #8176CB",
"O. c #8378CC",
"+. c #8B7CD2",
"@. c #917FD5",
"#. c #7384B0",
"$. c #7788B3",
"%. c #7C8DB6",
"&. c #7D8FB8",
"*. c #7F90B8",
"=. c #8090B7",
"-. c #8394BB",
";. c #8997BC",
":. c #8799BE",
">. c #8A9ABE",
",. c #8E9DC1",
"<. c #919FC2",
"1. c #9381D7",
"2. c #9582D9",
"3. c #9C86DD",
"4. c #95A4C4",
"5. c #98A6C6",
"6. c #9BA8C7",
"7. c #9DAAC9",
"8. c #A1AECC",
"9. c #A5B1CD",
"0. c #A8B3CF",
"q. c #ABB6D1",
"w. c #AEB9D2",
"e. c #B3BCD4",
"r. c #9F88E0",
"t. c #A58CE4",
"y. c #A88DE6",
"u. c #AA8FE8",
"i. c #AD91EA",
"p. c #B394ED",
"a. c #B797F0",
"s. c #B897F1",
"d. c #BB9AF4",
"f. c #C09DF7",
"g. c #C39EF9",
"h. c #C6A0FB",
"j. c #CAA2FD",
"k. c #D0A6FF",
"l. c #D2A8FF",
"z. c #B7C1D7",
"x. c #BCC5DA",
"c. c #C2CADD",
"v. c #C7CFE0",
"b. c #C8CFE1",
"n. c #C7D0E0",
"m. c #CAD1E1",
"M. c #D0D6E5",
"N. c #D3D9E6",
"B. c #D7DDE9",
"V. c #D9DEEA",
"C. c #DDE2EC",
"Z. c #E1E5EE",
"A. c #E4E8F0",
"S. c #EAEEF4",
"D. c #EFF2F7",
"F. c #F0F3F7",
"G. c #F4F6F9",
"H. c #F7F8FB",
"J. c #FFFFFF",
/* pixels */
"J.J.J.J.J.J.J.J.J.J.J.J.J.J.J.J.J.J.J.J.J.J.J.J.J.J.J.J.J.J.J.J.J.J.J.J.J.J.J.J.J.J.J.J.J.J.J.J.J.J.J.J.J.J.J.J.J.J.J.J.J.J.J.J.",
"J.J.J.J.J.J.J.J.J.J.J.J.J.J.J.J.J.J.J.J.J.J.J.J.J.J.J.J.J.J.J.J.J.J.J.J.J.J.J.J.J.J.J.J.J.J.J.J.J.J.J.J.J.J.J.J.J.J.J.J.J.J.J.J.",
"J.J.J.J.J.J.J.J.J.J.J.J.J.J.J.J.J.J.J.J.J.J.J.J.J.J.J.J.J.J.J.J.J.J.J.J.J.J.J.J.J.J.J.J.J.J.J.J.J.J.J.J.J.J.J.J.J.J.J.J.J.J.J.J.",
"J.J.J.J.J.J.J.J.J.J.J.J.J.J.J.J.J.J.J.J.J.J.J.J.J.J.J.J.J.J.J.J.J.J.J.J.J.J.J.J.J.J.J.J.J.J.J.J.J.J.J.J.J.J.J.J.J.J.J.J.J.J.J.J.",
"J.J.J.J.J.J.J.J.J.J.J.J.J.J.J.J.J.J.J.J.J.J.J.J.J.J.J.J.J.J.J.J.J.J.J.J.J.J.J.J.J.J.J.J.J.J.J.J.J.J.J.J.J.J.J.J.J.J.J.J.J.J.J.J.",
"J.J.J.J.J.J.J.J.J.J.J.J.J.J.J.J.J.J.J.J.J.J.J.J.J.J.J.J.J.J.J.J.J.J.J.J.J.J.J.H.J.J.J.J.J.J.J.J.J.J.J.J.J.J.J.J.J.J.J.J.J.J.J.J.",
"J.J.J.J.J.J.J.J.J.J.J.J.J.J.J.J.J.J.J.J.J.J.J.J.J.J.J.J.J.J.J.J.J.J.J.C.m.V.J.J.J.J.J.J.J.J.J.J.J.J.J.J.J.J.J.J.J.J.J.J.J.J.J.J.",
"J.J.J.J.J.J.J.J.J.J.J.J.J.J.J.J.J.J.J.J.J.J.J.J.J.J.J.J.J.J.J.J.J.w.g & @ & r 4.J.J.J.J.J.J.J.J.J.J.J.J.J.J.J.J.J.J.J.J.J.J.J.J.",
"J.J.J.J.J.J.J.J.J.J.J.J.J.J.J.J.J.J.J.J.J.J.J.J.J.J.J.J.J.J.J.J.=.O o - 7 ; O o L J.J.J.J.J.J.J.J.J.J.J.J.J.J.J.J.J.J.J.J.J.J.J.",
"J.J.J.J.J.J.J.J.J.J.J.J.J.J.J.J.J.J.J.J.J.J.J.J.J.J.J.J.J.J.J.9.o % T i.d.a._ - . K J.J.J.J.J.J.J.J.J.J.J.J.J.J.J.J.J.J.J.J.J.J.",
"J.J.J.J.J.J.J.J.J.J.J.J.J.J.J.J.J.J.J.J.J.J.J.J.J.J.J.J.J.J.H.r O R j.f.d.d.j.1.; o J J.J.J.J.J.J.J.J.J.J.J.J.J.J.J.J.J.J.J.J.J.",
"J.J.J.J.J.J.J.J.J.J.J.J.J.J.J.J.J.J.J.J.J.J.J.J.J.J.J.J.H.J.m.$ 1 d.d.d.d.d.d.j.2.- . K J.J.J.J.J.J.J.J.J.J.J.J.J.J.J.J.J.J.J.J.",
"J.J.J.J.J.J.J.J.J.J.J.J.J.J.J.J.J.J.J.J.J.J.J.J.J.J.J.J.H.J.e.o s f.d.d.d.d.d.d.h.2.- . K J.J.J.J.J.J.J.J.J.J.J.J.J.J.J.J.J.J.J.",
"J.J.J.J.J.J.J.J.J.J.J.J.J.J.J.J.J.J.J.J.J.J.J.J.J.J.J.J.J.J.z.O e f.d.d.d.d.d.d.d.j.2.; . >.J.H.J.H.H.J.J.J.J.J.J.J.J.J.J.J.J.J.",
"J.J.J.J.J.J.J.J.J.J.J.J.J.J.J.J.J.J.J.J.J.J.J.J.J.J.J.J.J.J.A.; @ 2.j.d.d.d.d.d.d.s.h.O.@ 1 H.J.J.J.J.J.J.J.H.J.J.J.J.J.J.J.J.J.",
"J.J.J.J.J.J.J.J.J.J.J.J.c.x.J.J.J.J.J.J.J.J.J.J.J.J.J.J.J.J.J.U . e p.f.d.d.d.d.d.s.h.d.8 @ -.e.q.w.w.w.b.J.J.J.J.J.J.J.J.J.J.J.",
"J.J.J.J.J.J.J.J.J.J.J.H.> & S.J.J.J.J.J.J.J.J.J.J.J.J.J.J.J.J.S.r o e p.f.s.d.d.d.j.O.9 % # + O O O O O $ t q.J.J.J.J.J.J.J.J.J.",
"J.J.J.J.J.J.J.J.J.J.J.J.u o e.J.J.J.J.J.J.J.J.J.J.J.J.J.J.J.J.J.C.w o e p.j.h.d.d.W $ + = 6 q 0 0 0 q 0 - O O ;.J.J.J.J.J.J.J.J.",
"J.J.J.J.J.J.J.J.J.J.J.J.Y   >.J.H.J.J.J.J.J.J.J.J.J.J.J.J.J.J.J.J.C.w . e 2.G e 2 % @ z }  ... . . . . .} c % O e.J.J.J.J.J.J.J.",
"J.J.J.J.J.J.J.J.J.J.H.J.9.. J J.J.J.H.J.J.J.J.J.J.J.J.J.J.J.J.J.J.J.C.r @ % o @ % $ k X. .} | } } } } } | X.x O g J.J.J.J.J.J.J.",
"J.J.J.J.J.J.J.J.J.J.J.J.0.$ > C $.v.J.J.J.J.J.J.J.J.J.J.J.J.J.J.J.H.J.6.O % Z ' = % ]  .} | | | | | | | }  .{ & & C.J.J.J.J.J.J.",
"J.J.J.J.J.J.J.J.J.J.J.%.& @ @ . . $ I G.J.J.J.J.J.J.J.J.J.J.J.J.J.J.H.r o G k.i.% 4 } } | | | | | | | | | | | 4 @ m.J.J.J.J.J.J.",
"J.J.J.J.J.J.J.J.J.J.%.. $ b ) ' F & . B J.J.J.J.J.J.J.J.J.J.J.J.J.J.0.o 7 d.g.t.& & ]  .} | | | | | | | | | { = & C.J.J.J.J.J.J.",
"J.J.J.J.J.J.J.J.J.c.$ % _ j.h.h.j.2.: . 4.J.J.J.J.J.J.J.J.J.J.J.J.J.B . E j.s.f.i @ v X.} } } } } } | } } X.~ O r J.J.J.J.J.J.J.",
"J.J.J.J.J.J.J.J.J.Y . D j.d.d.d.s.j._ o u J.J.J.J.J.J.J.J.J.J.J.J.M.% = y.f.s.h.o.O & ^  . .X. .X....... .( - o 4.J.J.J.J.J.J.J.",
"J.J.J.J.J.J.J.J.J.f O +.g.d.d.d.d.f.i.= - C.J.J.J.J.J.J.J.J.J.J.J.$.. A h.d.d.d.g.F O # 6 x x x x x x x 0 $ . U J.J.J.J.J.J.J.J.",
"J.J.J.J.J.J.J.J.J.t O 2.g.d.d.d.d.d.f.p o e.J.J.J.J.J.J.J.J.J.J.D.w @ +.h.d.d.d.d.g.E ; # O . . . . . . o ; =.J.J.J.J.J.J.J.J.J.",
"J.J.J.J.J.J.J.J.J.K . _ j.d.d.d.d.d.j.G . %.J.H.J.J.J.J.J.J.H.J.9.o 9 d.d.d.d.d.d.s.k.F O B >.-.;.-.-.:.8.A.J.J.J.J.J.J.J.J.J.J.",
"J.J.J.J.J.J.J.H.J.,.. S j.s.d.d.d.d.j.o.o N J.J.J.J.J.J.J.J.J.J.N . Q h.d.d.d.d.d.d.i.: @ m.J.J.J.J.J.J.J.J.H.J.J.J.J.J.J.J.J.J.",
"J.J.J.J.J.J.J.J.J.x.O 8 d.d.d.d.d.d.f.y.% : S.J.H.J.H.J.J.H.J.b.@ - i.f.d.d.d.d.d.j._ o h J.H.H.H.H.J.H.J.J.J.J.J.J.J.J.J.J.J.J.",
"J.J.J.J.J.J.J.J.J.S.: % t.g.d.d.d.d.d.d.8 O c.J.J.J.J.J.J.J.J.$.. D h.d.f.d.d.d.d.d.i . 6.J.J.J.J.J.J.J.J.J.J.J.J.J.J.J.J.J.J.J.",
"J.J.J.J.J.J.J.J.J.J.N o o.h.d.d.d.d.d.h.S o Y e.9.0.0.0.0.0.0.r O +.g.d.d.d.d.d.h.2.@ 2 S.J.J.J.J.J.J.J.J.J.J.J.J.J.J.J.J.J.J.J.",
"J.J.J.J.J.J.J.J.H.J.%.. G j.d.d.d.d.s.j.D @ @ o O O O O o O o $ & r.g.d.d.d.d.d.h.D . #.J.J.J.J.J.J.J.J.J.J.J.J.J.J.J.J.J.J.J.J.",
"J.J.J.J.J.J.J.J.J.J.e.O e d.d.d.d.d.d.g.e @ 0 q q q q q i q i - @ +.g.d.d.d.d.f.i.- @ m.J.J.J.J.J.J.J.J.J.J.J.J.J.J.J.J.J.J.J.J.",
"J.J.J.J.J.J.J.J.J.J.F.7 @ E j.g.d.g.k.) @ - } .. ... . . . .X.l + b j.d.s.d.s.k.T o n J.J.J.J.J.J.J.J.J.J.J.J.J.J.J.J.J.J.J.J.J.",
"J.J.J.J.J.J.J.J.J.J.J.7.o $ F t.p.y.G $ + ~ ..} } } } } } } | ] & @ G f.j.j.g.) % o e.J.H.J.J.J.J.J.J.J.J.J.J.J.J.J.J.J.J.J.J.J.",
"J.J.J.J.J.J.J.J.J.J.J.J.;.& @ * ; & @ % z  .} | | | | | | | } X.! @ @ 8 F G i # O $.J.J.J.J.J.J.J.J.J.J.J.J.J.J.J.J.J.J.J.J.J.J.",
"J.J.J.J.J.J.J.J.J.J.H.J.G.g $ % @ % % v X.} | | | | | | | | | } X.! % $ O O @ $ U J.J.J.J.J.J.J.J.J.J.J.J.J.J.J.J.J.J.J.J.J.J.J.",
"J.J.J.J.J.J.J.J.J.J.J.C.w O % 2 8 % @ & / ..} | | | | | } | } ..] 3 $ $ 2 e & @ : 9.J.H.J.J.J.J.J.J.J.J.J.J.J.J.J.J.J.J.J.J.J.J.",
"J.J.J.J.J.J.J.J.J.J.H.y . e 2.d.d.t.Z @ % ]  .} } } } } } } } } 3 + 9 1.s.d.y.A O % N.J.J.J.J.J.J.J.J.J.J.J.J.J.J.J.J.J.J.J.J.J.",
"J.J.J.J.J.J.J.J.J.J.6.o 7 p.j.d.d.g.j.Z + j X. .X.X. .X. . .X./ + 2 p.j.d.d.g.j.A . L J.J.J.J.J.J.J.J.J.J.J.J.J.J.J.J.J.J.J.J.J.",
"J.J.J.J.J.J.J.J.J.J.h . _ j.s.d.d.a.g.r.$ = / ( / / / / ( / ( 0 @ W j.a.d.d.d.g.t.$ ; Z.J.J.J.J.J.J.J.J.J.J.J.J.J.J.J.J.J.J.J.J.",
"J.J.J.J.J.J.J.J.J.m.@ ; i.d.d.d.d.d.d.p.< # O . X X O o O X X @ $ @.g.d.d.d.d.d.h.d . >.J.H.J.J.J.J.J.J.J.J.J.J.J.J.J.J.J.J.J.J.",
"J.J.J.J.J.J.J.H.J.#.. S j.d.d.d.d.d.g.u.& & C K C C C J C C L 7 @ O.h.d.d.d.d.d.h.' o u J.J.J.J.J.J.J.J.J.J.J.J.J.J.J.J.J.J.J.J.",
"J.J.J.J.J.J.J.J.F.7 @ @.h.d.d.d.d.s.h.` o g J.J.J.J.J.J.J.J.J.%.. S j.s.d.d.f.d.d.a.< @ c.J.J.J.J.J.J.J.J.J.J.J.J.J.J.J.J.J.J.J.",
"J.J.J.J.J.J.J.J.9.o e d.d.d.d.d.d.d.h.s o 4.J.H.J.J.J.H.J.H.J.m.$ - u.f.d.d.d.d.s.j.P . U J.J.J.J.J.J.J.J.J.J.J.J.J.J.J.J.J.J.J.",
"J.J.J.J.J.J.H.J.B . W j.d.d.d.d.d.f.3.$ ; Z.J.J.J.J.J.J.J.J.J.J.n . ) j.d.d.d.d.d.h.2.@ > S.J.J.J.J.J.J.J.J.J.J.J.J.J.J.J.J.J.J.",
"J.J.J.J.J.J.J.N.& & y.f.d.d.d.d.d.j.P . L J.J.J.J.J.J.J.J.J.H.J.7.. p f.d.d.d.d.d.d.f.p o 6.J.H.J.J.J.J.J.J.J.J.J.J.J.J.J.J.J.J.",
"J.J.J.J.J.H.J.*.. A h.d.d.d.d.d.d.s.2 O z.J.J.J.J.J.J.J.J.J.J.J.S.> $ 2.g.d.d.d.d.s.j.) o N J.J.J.J.J.J.J.J.J.J.J.J.J.J.J.J.J.J.",
"J.J.J.J.J.J.H.r o +.h.d.d.d.d.d.h.o.O t H.J.J.J.J.J.J.J.J.J.J.J.J.Y . F j.d.d.d.d.d.f.p.; $ m.J.J.J.J.J.J.J.J.J.J.J.J.J.J.J.J.J.",
"J.J.J.J.J.J.N.% < a.d.d.d.d.d.d.h.b . -.J.J.J.J.J.J.J.J.J.J.J.J.J.c.@ ; p.d.d.d.d.d.d.g.m . 6.J.J.J.J.J.J.J.J.J.J.J.J.J.J.J.J.J.",
"J.J.J.J.J.J.m.@ 2 d.d.d.d.d.d.g.t.& & V.J.J.J.J.J.J.J.J.J.J.J.J.J.J.g o ` j.d.d.d.d.s.h.D . 4.J.H.J.J.J.J.J.J.J.J.J.J.J.J.J.J.J.",
"J.J.J.J.J.J.A.- % y.g.s.d.d.d.j.R o C J.J.J.J.J.J.J.J.J.J.J.J.J.J.J.,.. a g.d.d.d.d.d.f.e o w.J.J.J.J.J.J.J.J.J.J.J.J.J.J.J.J.J.",
"J.J.J.J.J.J.J.B . F j.g.d.d.j.y.< o w.J.H.J.J.J.J.J.J.J.J.J.J.J.J.J.Z.; $ O.j.f.d.f.k._ @ 2 S.J.J.J.J.J.J.J.J.J.J.J.J.J.J.J.J.J.",
"J.J.J.J.J.J.J.m.$ @ D t.d.p.+.8 . n J.J.J.J.J.J.J.J.J.J.J.J.J.J.J.J.J.=.. - Q p.d.p.E & . >.J.J.J.J.J.J.J.J.J.J.J.J.J.J.J.J.J.J.",
"J.J.J.J.J.J.H.J.7.$ . % 8 < @ . t A.J.J.J.J.J.J.J.J.J.J.J.J.J.J.J.J.J.J.I . o - 8 ; O o Y J.J.J.J.J.J.J.J.J.J.J.J.J.J.J.J.J.J.J.",
"J.J.J.J.J.J.J.J.J.m.V ; @ $ w *.F.J.J.J.J.J.J.J.J.J.J.J.J.J.J.J.J.J.J.J.J.7.y % @ & h 9.J.J.J.J.J.J.J.J.J.J.J.J.J.J.J.J.J.J.J.J.",
"J.J.J.J.J.J.J.J.J.J.J.A.m.M.H.J.J.J.J.J.J.J.J.J.J.J.J.J.J.J.J.J.J.J.J.J.J.J.J.B.b.Z.J.J.J.J.J.J.J.J.J.J.J.J.J.J.J.J.J.J.J.J.J.J.",
"J.J.J.J.J.J.J.J.J.J.H.J.J.J.J.J.J.J.J.J.J.J.J.J.J.J.J.J.J.J.J.J.J.J.J.J.J.J.J.J.J.J.J.J.J.J.J.J.J.J.J.J.J.J.J.J.J.J.J.J.J.J.J.J.",
"J.J.J.J.J.J.J.J.J.J.J.J.J.H.J.J.J.J.J.J.J.J.J.J.J.J.J.J.J.J.J.J.J.J.J.J.J.J.J.J.H.J.J.J.J.J.J.J.J.J.J.J.J.J.J.J.J.J.J.J.J.J.J.J.",
"J.J.J.J.J.J.J.J.J.J.J.J.J.J.J.J.J.J.J.J.J.J.J.J.J.J.J.J.J.J.J.J.J.J.J.J.J.J.J.J.J.J.J.J.J.J.J.J.J.J.J.J.J.J.J.J.J.J.J.J.J.J.J.J.",
"J.J.J.J.J.J.J.J.J.J.J.J.J.J.J.J.J.J.J.J.J.J.J.J.J.J.J.J.J.J.J.J.J.J.J.J.J.J.J.J.J.J.J.J.J.J.J.J.J.J.J.J.J.J.J.J.J.J.J.J.J.J.J.J.",
"J.J.J.J.J.J.J.J.J.J.J.J.J.J.J.J.J.J.J.J.J.J.J.J.J.J.J.J.J.J.J.J.J.J.J.J.J.J.J.J.J.J.J.J.J.J.J.J.J.J.J.J.J.J.J.J.J.J.J.J.J.J.J.J.",
"J.J.J.J.J.J.J.J.J.J.J.J.J.J.J.J.J.J.J.J.J.J.J.J.J.J.J.J.J.J.J.J.J.J.J.J.J.J.J.J.J.J.J.J.J.J.J.J.J.J.J.J.J.J.J.J.J.J.J.J.J.J.J.J."
};
