/* XPM */
static char *player__5_1710156990[] = {
/* columns rows colors chars-per-pixel */
"64 64 152 2 ",
"   c #00045D",
".  c #001564",
"X  c #001B66",
"o  c #001768",
"O  c #001C6A",
"+  c #002266",
"@  c #00236D",
"#  c #00286E",
"$  c #022672",
"%  c #052974",
"&  c #092D77",
"*  c #072B7B",
"=  c #0C2E7A",
"-  c #112F79",
";  c #0E307C",
":  c #12347C",
">  c #18367D",
",  c #16397E",
"<  c #183A7F",
"1  c #0F3082",
"2  c #143384",
"3  c #1A3682",
"4  c #1C3A83",
"5  c #153488",
"6  c #18358D",
"7  c #1E3995",
"8  c #203C86",
"9  c #253D8A",
"0  c #283F8C",
"q  c #213A98",
"w  c #244285",
"e  c #2A428D",
"r  c #2E4A8A",
"t  c #334E8D",
"y  c #35508F",
"u  c #2E4390",
"i  c #314693",
"p  c #334894",
"a  c #3C4C9A",
"s  c #3B5592",
"d  c #3C5894",
"f  c #2B40A6",
"g  c #2F42AB",
"h  c #3244AE",
"j  c #3447B0",
"k  c #3B4ABB",
"l  c #424F9D",
"z  c #415A95",
"x  c #43519F",
"c  c #455F98",
"v  c #476099",
"b  c #4B639B",
"n  c #53689F",
"m  c #4652A0",
"M  c #4B55A5",
"N  c #5359AA",
"B  c #595DAE",
"V  c #546AA0",
"C  c #596EA2",
"Z  c #5C72A4",
"A  c #5D60B1",
"S  c #6076A7",
"D  c #6377A8",
"F  c #677AAA",
"G  c #6A7EAC",
"H  c #6263B5",
"J  c #6665B8",
"K  c #6867B9",
"L  c #6B69BB",
"P  c #716CBF",
"I  c #414EC1",
"U  c #4550C7",
"Y  c #4651C8",
"T  c #4952CC",
"R  c #4E55D3",
"E  c #5559DC",
"W  c #736DC1",
"Q  c #7770C3",
"!  c #7A71C5",
"~  c #7F75C9",
"^  c #575AE0",
"/  c #5B5DE5",
"(  c #5E5EE9",
")  c #605FEB",
"_  c #6261EE",
"`  c #6663F5",
"'  c #6864F7",
"]  c #6B66FB",
"[  c #6F68FF",
"{  c #716AFF",
"}  c #8176CB",
"|  c #8679CE",
" . c #887ACF",
".. c #8C7DD2",
"X. c #927FD6",
"o. c #6E81AE",
"O. c #7283AF",
"+. c #6F84B0",
"@. c #7384B0",
"#. c #7488B4",
"$. c #7B8CB5",
"%. c #7E91B9",
"&. c #8494BB",
"*. c #8C9ABE",
"=. c #8E9EC1",
"-. c #9280D7",
";. c #9682D9",
":. c #9B86DD",
">. c #9F88DF",
",. c #95A4C4",
"<. c #9BA8C7",
"1. c #9CAAC9",
"2. c #A1AECB",
"3. c #A7B2CE",
"4. c #A8B4CF",
"5. c #AFBAD3",
"6. c #B4BED5",
"7. c #9F88E0",
"8. c #A48BE3",
"9. c #A98EE7",
"0. c #AA8FE8",
"q. c #AD91EA",
"w. c #B395EE",
"e. c #B797F0",
"r. c #B897F1",
"t. c #BB9AF4",
"y. c #C09DF7",
"u. c #C39EF9",
"i. c #C6A0FB",
"p. c #CAA3FE",
"a. c #D0A7FF",
"s. c #D2A8FF",
"d. c #B6C0D7",
"f. c #B8C2D7",
"g. c #BCC5D9",
"h. c #C3CCDE",
"j. c #C7CFE0",
"k. c #C8CFE0",
"l. c #CDD3E3",
"z. c #D1D7E5",
"x. c #D3D9E7",
"c. c #D7DCE9",
"v. c #D9DEEA",
"b. c #DDE2ED",
"n. c #E1E5EE",
"m. c #E6EAF1",
"M. c #EAEDF4",
"N. c #EFF1F6",
"B. c #F0F2F7",
"V. c #F4F6F9",
"C. c #F7F8FB",
"Z. c #FFFFFF",
/* pixels */
"Z.Z.Z.Z.Z.Z.Z.Z.Z.Z.Z.Z.Z.Z.Z.Z.Z.Z.Z.Z.Z.Z.Z.Z.Z.Z.Z.Z.Z.Z.Z.Z.Z.Z.Z.Z.Z.Z.Z.Z.Z.Z.Z.Z.Z.Z.Z.Z.Z.Z.Z.Z.Z.Z.Z.Z.Z.Z.Z.Z.Z.Z.Z.Z.",
"Z.Z.Z.Z.Z.Z.Z.Z.Z.Z.Z.Z.Z.Z.Z.Z.Z.Z.Z.Z.Z.Z.Z.Z.Z.Z.Z.Z.Z.Z.Z.Z.Z.Z.Z.Z.Z.Z.Z.Z.Z.Z.Z.Z.Z.Z.Z.Z.Z.Z.Z.Z.Z.Z.Z.Z.Z.Z.Z.Z.Z.Z.Z.Z.",
"Z.Z.Z.Z.Z.Z.Z.Z.Z.Z.Z.Z.Z.Z.Z.Z.Z.Z.Z.Z.Z.Z.Z.Z.Z.Z.Z.Z.Z.Z.Z.Z.Z.Z.Z.Z.Z.Z.Z.Z.Z.Z.Z.Z.Z.Z.Z.Z.Z.Z.Z.Z.Z.Z.Z.Z.Z.Z.Z.Z.Z.Z.Z.Z.",
"Z.Z.Z.Z.Z.Z.Z.Z.Z.Z.Z.Z.Z.Z.Z.Z.Z.Z.Z.Z.Z.Z.Z.Z.Z.Z.Z.Z.Z.Z.Z.Z.Z.Z.Z.Z.Z.Z.C.Z.Z.Z.Z.Z.Z.Z.Z.Z.Z.Z.Z.Z.Z.Z.Z.Z.Z.Z.Z.Z.Z.Z.Z.Z.",
"Z.Z.Z.Z.Z.Z.Z.Z.Z.Z.Z.Z.Z.Z.Z.Z.Z.Z.Z.Z.Z.Z.Z.Z.Z.Z.Z.Z.Z.Z.Z.Z.Z.Z.Z.C.Z.Z.Z.Z.Z.Z.Z.Z.Z.Z.Z.Z.Z.Z.Z.Z.Z.Z.Z.Z.Z.Z.Z.Z.Z.Z.Z.Z.",
"Z.Z.Z.Z.Z.Z.Z.Z.Z.Z.Z.Z.Z.Z.Z.Z.Z.Z.Z.Z.Z.Z.Z.Z.Z.Z.Z.Z.Z.Z.Z.Z.Z.Z.Z.Z.B.6.<.2.l.Z.Z.C.Z.Z.Z.Z.Z.Z.Z.Z.Z.Z.Z.Z.Z.Z.Z.Z.Z.Z.Z.Z.",
"Z.Z.Z.Z.Z.Z.Z.Z.Z.Z.Z.Z.Z.Z.Z.Z.Z.Z.Z.Z.Z.Z.Z.Z.Z.Z.Z.Z.Z.Z.Z.Z.Z.Z.Z.2.w O . . $ z x.Z.Z.Z.Z.Z.Z.Z.Z.Z.Z.Z.Z.Z.Z.Z.Z.Z.Z.Z.Z.Z.",
"Z.Z.Z.Z.Z.Z.Z.Z.Z.Z.Z.Z.Z.Z.Z.Z.Z.Z.Z.Z.Z.Z.Z.Z.Z.Z.Z.Z.Z.Z.Z.Z.Z.Z.&.O O e M l - X - l.Z.C.Z.Z.Z.Z.Z.Z.Z.Z.Z.Z.Z.Z.Z.Z.Z.Z.Z.Z.",
"Z.Z.Z.Z.Z.Z.Z.Z.Z.Z.Z.Z.Z.Z.Z.Z.Z.Z.Z.Z.Z.Z.Z.Z.Z.Z.Z.Z.Z.Z.Z.Z.Z.f.O % L u.i.i.q.a O w B.Z.Z.Z.Z.Z.Z.Z.Z.Z.Z.Z.Z.Z.Z.Z.Z.Z.Z.Z.",
"Z.Z.Z.Z.Z.Z.Z.Z.Z.Z.Z.Z.Z.Z.Z.Z.Z.Z.Z.Z.Z.Z.Z.Z.Z.Z.Z.Z.Z.Z.Z.C.Z.b . A p.t.t.t.u.t.e . Z Z.Z.Z.Z.Z.Z.Z.Z.Z.Z.Z.Z.Z.Z.Z.Z.Z.Z.Z.",
"Z.Z.Z.Z.Z.Z.Z.Z.Z.Z.Z.Z.Z.Z.Z.Z.Z.Z.Z.Z.Z.Z.Z.Z.Z.Z.Z.Z.Z.Z.Z.Z.N.3 % 8.u.t.t.t.r.u.7.& O 1.Z.C.Z.Z.Z.Z.Z.Z.Z.Z.Z.Z.Z.Z.Z.Z.Z.Z.",
"Z.Z.Z.Z.Z.Z.Z.Z.Z.Z.Z.Z.Z.Z.Z.Z.Z.Z.Z.Z.Z.Z.Z.Z.Z.Z.Z.Z.Z.Z.Z.Z.b.& : w.u.t.t.t.t.t.i.W O : v.Z.Z.Z.Z.Z.Z.Z.Z.Z.Z.Z.Z.Z.Z.Z.Z.Z.",
"Z.Z.Z.Z.Z.Z.Z.Z.Z.Z.Z.Z.Z.Z.Z.Z.Z.Z.Z.Z.Z.Z.Z.Z.Z.Z.Z.Z.Z.Z.Z.Z.N., % 8.u.t.t.t.t.t.t.i.x . z Z.Z.Z.Z.Z.Z.Z.Z.Z.Z.Z.Z.Z.Z.Z.Z.Z.",
"Z.Z.Z.Z.Z.Z.Z.Z.Z.Z.Z.Z.Z.Z.Z.Z.Z.Z.Z.Z.Z.Z.Z.Z.Z.Z.Z.Z.Z.Z.Z.Z.Z.b . A p.r.t.t.t.t.t.t.q.3 X 2.Z.C.Z.Z.Z.Z.Z.Z.Z.Z.Z.Z.Z.Z.Z.Z.",
"Z.Z.Z.Z.Z.Z.Z.Z.Z.Z.Z.Z.Z.Z.Z.Z.Z.Z.Z.Z.Z.Z.Z.Z.Z.Z.Z.Z.Z.Z.Z.Z.Z.f.@ % -.i.r.t.t.t.t.e.p.! . n Z.Z.Z.Z.Z.Z.C.Z.Z.Z.Z.Z.Z.Z.Z.Z.",
"Z.Z.Z.Z.Z.Z.Z.Z.Z.Z.Z.Z.Z.Z.Z.Z.Z.Z.Z.Z.Z.Z.Z.Z.Z.Z.Z.Z.Z.Z.Z.Z.Z.Z.@.. 4 e.t.t.t.t.t.i.t.~ $ w f.z.b.M.V.Z.Z.Z.Z.Z.Z.Z.Z.Z.Z.Z.",
"Z.Z.Z.Z.Z.Z.Z.Z.Z.*.t m.Z.Z.Z.Z.Z.Z.Z.Z.Z.Z.Z.Z.Z.Z.Z.Z.Z.Z.Z.Z.Z.Z.C.t . M i.t.i.u.u.W 3 # # # @ $ & , w z =.C.Z.Z.Z.Z.Z.Z.Z.Z.",
"Z.Z.Z.Z.Z.Z.Z.Z.Z.V   &.Z.C.Z.Z.Z.Z.Z.Z.Z.Z.Z.Z.Z.Z.Z.Z.Z.Z.Z.Z.Z.Z.Z.z.% @ ! t...X.N O @ 2 q q 6 5 = % $ O . y n.Z.Z.Z.Z.Z.Z.Z.",
"Z.Z.Z.Z.Z.Z.Z.C.Z.6.O r C.Z.C.Z.Z.Z.Z.Z.Z.Z.Z.Z.Z.Z.Z.Z.Z.Z.Z.Z.Z.Z.C.Z.<.@ = : @ @ @ * M ' [ ] ' ' ` ( / I 5 X t C.Z.Z.Z.Z.Z.Z.",
"Z.Z.Z.Z.Z.Z.Z.Z.Z.V.w o g.Z.Z.Z.Z.C.Z.Z.Z.Z.Z.Z.Z.Z.Z.Z.Z.Z.Z.Z.Z.Z.Z.Z.x.= @ # 0 = $ I ] ' ` ` ' ' ] ] ] { ) 5 . &.Z.Z.Z.Z.Z.Z.",
"Z.Z.Z.Z.Z.Z.Z.Z.Z.Z.*.. s o.G 1.M.Z.Z.Z.Z.Z.Z.Z.Z.Z.Z.Z.Z.Z.Z.Z.Z.Z.Z.C.p O e 8.8.$ 1 ` ` ` ] ] ' ' ' ' ` ` [ T O y Z.Z.Z.Z.Z.Z.",
"Z.Z.Z.Z.Z.Z.Z.Z.Z.C.Z $ O . . . < 1.Z.Z.Z.Z.Z.Z.Z.Z.Z.Z.Z.Z.Z.Z.Z.Z.Z.<.o 3 w.s...X 7 ] ` ] ` ` ' ' ' ' ' ` ] ( % , M.Z.Z.Z.Z.Z.",
"Z.Z.Z.Z.Z.Z.Z.Z.Z.v . & x W L i @ O ,.Z.Z.Z.Z.Z.Z.Z.Z.Z.Z.Z.Z.Z.Z.Z.C.t O Q i.y.;.# 5 ` ` ` ` ` ' ' ' ' ' ' ' ( % 4 N.Z.Z.Z.Z.Z.",
"Z.Z.Z.Z.Z.Z.Z.Z.,.o : -.p.i.i.y.H @ = b.Z.Z.Z.Z.Z.Z.Z.Z.Z.Z.Z.Z.C.Z.2.O 8 t.t.t.w.3 # T { ` ` ` ' ` ' ` ` _ [ Y X s Z.Z.Z.Z.Z.Z.",
"Z.Z.Z.Z.Z.Z.Z.Z.r O ! p.t.t.e.t.p.l . $.Z.Z.Z.Z.Z.Z.Z.Z.Z.Z.Z.Z.Z.C.t O P u.r.t.i.K O : R ] { [ [ [ [ [ ] { / 2 X =.Z.C.Z.Z.Z.Z.",
"Z.Z.Z.Z.Z.Z.Z.c.% : w.y.t.t.t.t.u...O w B.Z.Z.Z.Z.Z.Z.Z.Z.Z.Z.Z.Z.4.O 8 t.t.t.t.r.y.a X % q h k I Y R E E k : . d C.Z.Z.Z.Z.Z.Z.",
"Z.Z.Z.Z.Z.Z.Z.l.$ 4 t.t.t.t.t.y.y.t.0 X 4.Z.C.Z.Z.Z.Z.Z.Z.Z.Z.Z.Z.s X L i.t.t.y.t.y.r.B % $ . X X X O O O X O c N.Z.Z.Z.Z.Z.Z.Z.",
"Z.Z.Z.Z.Z.Z.Z.M.: % 8.u.t.t.t.t.t.i.L . v Z.Z.Z.Z.Z.Z.Z.Z.Z.C.Z.5.O 3 w.y.t.t.t.y.r.u.>.$ : %.#.D n c t y V 3.Z.Z.Z.Z.Z.Z.Z.Z.Z.",
"Z.Z.Z.Z.Z.Z.Z.Z.V . H p.t.t.t.t.t.y.q.; $ l.Z.Z.Z.Z.Z.Z.Z.C.Z.Z.z . K p.t.t.t.t.y.t.u.a . @.Z.Z.Z.Z.Z.C.C.Z.Z.Z.Z.Z.Z.Z.Z.Z.Z.Z.",
"Z.Z.Z.Z.Z.Z.C.Z.6.O 8 t.t.t.t.t.t.t.i.M . O.Z.Z.Z.Z.Z.Z.Z.Z.Z.g.O > w.y.t.r.t.t.t.u.;.% = b.Z.C.Z.Z.Z.Z.Z.Z.Z.Z.Z.Z.Z.Z.Z.Z.Z.Z.",
"Z.Z.Z.Z.Z.Z.Z.Z.C.r O } i.t.t.t.t.t.u.-.@ w n.M.m.m.M.m.M.n.C.Z . A p.t.y.t.t.y.r.u.x . o.Z.C.Z.Z.Z.Z.Z.Z.Z.Z.Z.Z.Z.Z.Z.Z.Z.Z.Z.",
"Z.Z.Z.Z.Z.Z.Z.Z.Z.&.. a u.t.t.t.t.t.t.w.: $ : : : : : : : : : & $  .u.r.t.t.t.r.u.:.# = c.Z.Z.Z.Z.Z.Z.Z.Z.Z.Z.Z.Z.Z.Z.Z.Z.Z.Z.Z.",
"Z.Z.Z.Z.Z.Z.Z.Z.Z.b.: $ >.y.t.t.t.t.t.w.; % * & * * * & * * * & @ } i.t.t.t.t.r.i.M . F Z.C.Z.Z.Z.Z.Z.Z.Z.Z.Z.Z.Z.Z.Z.Z.Z.Z.Z.Z.",
"Z.Z.Z.Z.Z.Z.Z.Z.Z.Z.Z . B p.t.t.t.t.p.| @ 5 ) ` ) ` _ _ ` _ ' g X M p.t.t.t.w.i.>.% % x.Z.Z.Z.Z.Z.Z.Z.Z.Z.Z.Z.Z.Z.Z.Z.Z.Z.Z.Z.Z.",
"Z.Z.Z.Z.Z.Z.Z.Z.C.Z.h.O %  .p.u.u.p.0.3 + k [ ' ' ] ] ] ' ' [ E $ $ } p.u.y.i.t.i . D Z.C.Z.Z.Z.Z.Z.Z.Z.Z.Z.Z.Z.Z.Z.Z.Z.Z.Z.Z.Z.",
"Z.Z.Z.Z.Z.Z.Z.Z.Z.Z.Z.O.. % N ..X.K : + 6 ' ' ' ` ` ' ` ' ` ` [ h + % B ;.>.! e X > n.Z.Z.Z.Z.Z.Z.Z.Z.Z.Z.Z.Z.Z.Z.Z.Z.Z.Z.Z.Z.Z.",
"Z.Z.Z.Z.Z.Z.Z.Z.Z.Z.Z.Z.G @ $ @ $ @ # 7 ` ' ` ' ' ' ' ' ' ' ' ` ] h $ $ $ $ # $ 8 c.Z.C.Z.Z.Z.Z.Z.Z.Z.Z.Z.Z.Z.Z.Z.Z.Z.Z.Z.Z.Z.Z.",
"Z.Z.Z.Z.Z.Z.Z.Z.Z.Z.Z.m.c $ $ = = $ @ 6 / ] ` ' ' ' ' ' ' ` ' ' ] f # @ % : % @ : f.Z.Z.Z.Z.Z.Z.Z.Z.Z.Z.Z.Z.Z.Z.Z.Z.Z.Z.Z.Z.Z.Z.",
"Z.Z.Z.Z.Z.Z.Z.Z.Z.Z.Z.s . 3 ! 9.0.} 8 X 5 ` ' ` ` ` ' ' ` ` ` [ g X = J 9.0.X.a O % l.Z.Z.Z.Z.Z.Z.Z.Z.Z.Z.Z.Z.Z.Z.Z.Z.Z.Z.Z.Z.Z.",
"Z.Z.Z.Z.Z.Z.Z.Z.Z.Z.<.o 4 0.p.y.t.i.e.9 + k [ ' [ ] ] [ [ ' [ ^ $ % ..a.y.y.u.u.M X b Z.Z.Z.Z.Z.Z.Z.Z.Z.Z.Z.Z.Z.Z.Z.Z.Z.Z.Z.Z.Z.",
"Z.Z.Z.Z.Z.Z.Z.Z.Z.Z.y O ! i.e.t.t.e.i...@ 6 ( ( ( ( ( ( ( ( ` g + M p.t.t.t.t.y.9.= $ l.Z.Z.Z.Z.Z.Z.Z.Z.Z.Z.Z.Z.Z.Z.Z.Z.Z.Z.Z.Z.",
"Z.Z.Z.Z.Z.Z.Z.Z.Z.6.O 4 t.t.t.t.t.t.t.0.= % % $ % $ % % $ % % & @ Q u.t.t.t.t.t.i.N . F Z.C.Z.Z.Z.Z.Z.Z.Z.Z.Z.Z.Z.Z.Z.Z.Z.Z.Z.Z.",
"Z.Z.Z.Z.Z.Z.Z.Z.C.V . H i.t.t.t.t.t.u.8.& % 4 , 4 , , , 5 3 4 ; @ P i.t.t.y.t.t.u.;.@ : n.Z.Z.Z.Z.Z.Z.Z.Z.Z.Z.Z.Z.Z.Z.Z.Z.Z.Z.Z.",
"Z.Z.Z.Z.Z.Z.C.Z.x.% & 9.u.t.t.t.t.t.i.! O z B.N.N.B.B.N.B.M.Z.&.. a i.t.t.t.t.t.t.u.a . &.Z.C.Z.Z.Z.Z.Z.Z.Z.Z.Z.Z.Z.Z.Z.Z.Z.Z.Z.",
"Z.Z.Z.Z.Z.Z.Z.Z.@.. M i.r.t.t.t.t.y.y.e . ,.Z.Z.Z.Z.Z.Z.Z.Z.Z.b.= # >.u.t.t.t.t.t.i. .O w B.Z.Z.Z.Z.Z.Z.Z.Z.Z.Z.Z.Z.Z.Z.Z.Z.Z.Z.",
"Z.Z.Z.Z.Z.Z.Z.m.> @ ;.u.t.t.t.y.r.u...@ 4 N.Z.Z.Z.Z.Z.Z.Z.Z.Z.Z.D . N i.t.t.t.t.t.t.y.e o <.Z.C.Z.Z.Z.Z.Z.Z.Z.Z.Z.Z.Z.Z.Z.Z.Z.Z.",
"Z.Z.Z.Z.Z.Z.Z.=.. p u.r.t.t.t.t.r.u.x . $.Z.C.Z.Z.Z.Z.Z.Z.Z.C.Z.h.$ - 0.y.t.t.t.t.t.i.W X s Z.Z.Z.Z.Z.Z.Z.Z.Z.Z.Z.Z.Z.Z.Z.Z.Z.Z.",
"Z.Z.Z.Z.Z.Z.C.r O } u.t.t.y.t.t.u.8.% & c.Z.Z.Z.Z.Z.Z.Z.Z.Z.Z.Z.Z.v . K i.t.t.t.t.t.y.w.3 O 6.Z.Z.Z.Z.Z.Z.Z.Z.Z.Z.Z.Z.Z.Z.Z.Z.Z.",
"Z.Z.Z.Z.C.Z.d.O 8 t.t.t.t.t.t.t.i.B . Z Z.Z.Z.Z.Z.Z.Z.Z.Z.Z.Z.Z.Z.6.O 4 t.t.t.t.t.t.t.i.H . C Z.Z.Z.Z.Z.Z.Z.Z.Z.Z.Z.Z.Z.Z.Z.Z.Z.",
"Z.Z.Z.Z.Z.Z.%.. B u.t.t.t.t.t.y.w.: O g.Z.Z.Z.Z.Z.Z.Z.Z.Z.Z.Z.Z.Z.C.t X ! i.t.t.t.t.t.i.:.@ w C.Z.Z.Z.Z.Z.Z.Z.Z.Z.Z.Z.Z.Z.Z.Z.Z.",
"Z.Z.Z.Z.Z.Z.o.. K i.t.t.t.t.t.i.W X d Z.Z.Z.Z.Z.Z.Z.Z.Z.Z.Z.Z.Z.C.Z.,.. i y.t.t.t.t.t.y.8.% 4 B.Z.Z.Z.Z.Z.Z.Z.Z.Z.Z.Z.Z.Z.Z.Z.Z.",
"Z.Z.Z.Z.C.Z.=.. m i.t.t.t.t.t.y.0 . 2.Z.C.Z.Z.Z.Z.Z.Z.Z.Z.Z.Z.Z.Z.Z.M.4 @ ..i.e.t.t.r.i.| O s Z.Z.Z.Z.Z.Z.Z.Z.Z.Z.Z.Z.Z.Z.Z.Z.Z.",
"Z.Z.Z.Z.Z.Z.x.% % -.p.t.t.t.s.W O w B.Z.Z.Z.Z.Z.Z.Z.Z.Z.Z.Z.Z.Z.Z.Z.Z.$.. i u.u.t.t.i.t.e . &.Z.C.Z.Z.Z.Z.Z.Z.Z.Z.Z.Z.Z.Z.Z.Z.Z.",
"Z.Z.Z.Z.Z.Z.Z.F . < } r.t.w.L & o ,.Z.Z.Z.Z.Z.Z.Z.Z.Z.Z.Z.Z.Z.Z.Z.Z.Z.m.> O a :.t.t.:.p X 8 M.Z.Z.Z.Z.Z.Z.Z.Z.Z.Z.Z.Z.Z.Z.Z.Z.Z.",
"Z.Z.Z.Z.Z.Z.Z.B.v . O 4 e : O O O.Z.Z.Z.Z.Z.Z.Z.Z.Z.Z.Z.Z.Z.Z.Z.Z.Z.C.Z.h.> . @ 8 8 # . : k.Z.Z.Z.Z.Z.Z.Z.Z.Z.Z.Z.Z.Z.Z.Z.Z.Z.Z.",
"Z.Z.Z.Z.Z.Z.Z.Z.Z.*.e % O % t 2.Z.Z.Z.Z.Z.Z.Z.Z.Z.Z.Z.Z.Z.Z.Z.Z.Z.Z.Z.Z.Z.v.S 3 $ @ < F n.Z.C.Z.Z.Z.Z.Z.Z.Z.Z.Z.Z.Z.Z.Z.Z.Z.Z.Z.",
"Z.Z.Z.Z.Z.Z.Z.Z.Z.Z.C.l.g.c.Z.Z.Z.Z.Z.Z.Z.Z.Z.Z.Z.Z.Z.Z.Z.Z.Z.Z.Z.Z.Z.Z.Z.Z.Z.M.h.l.N.Z.Z.C.Z.Z.Z.Z.Z.Z.Z.Z.Z.Z.Z.Z.Z.Z.Z.Z.Z.Z.",
"Z.Z.Z.Z.Z.Z.Z.Z.Z.C.Z.Z.Z.Z.Z.C.Z.Z.Z.Z.Z.Z.Z.Z.Z.Z.Z.Z.Z.Z.Z.Z.Z.Z.Z.Z.Z.Z.Z.Z.Z.Z.Z.Z.Z.Z.Z.Z.Z.Z.Z.Z.Z.Z.Z.Z.Z.Z.Z.Z.Z.Z.Z.Z.",
"Z.Z.Z.Z.Z.Z.Z.Z.Z.Z.Z.Z.Z.Z.Z.Z.Z.Z.Z.Z.Z.Z.Z.Z.Z.Z.Z.Z.Z.Z.Z.Z.Z.Z.Z.Z.Z.Z.Z.Z.Z.Z.Z.Z.Z.Z.Z.Z.Z.Z.Z.Z.Z.Z.Z.Z.Z.Z.Z.Z.Z.Z.Z.Z.",
"Z.Z.Z.Z.Z.Z.Z.Z.Z.Z.Z.Z.Z.Z.Z.Z.Z.Z.Z.Z.Z.Z.Z.Z.Z.Z.Z.Z.Z.Z.Z.Z.Z.Z.Z.Z.Z.Z.Z.Z.Z.Z.Z.Z.Z.Z.Z.Z.Z.Z.Z.Z.Z.Z.Z.Z.Z.Z.Z.Z.Z.Z.Z.Z.",
"Z.Z.Z.Z.Z.Z.Z.Z.Z.Z.Z.Z.Z.Z.Z.Z.Z.Z.Z.Z.Z.Z.Z.Z.Z.Z.Z.Z.Z.Z.Z.Z.Z.Z.Z.Z.Z.Z.Z.Z.Z.Z.Z.Z.Z.Z.Z.Z.Z.Z.Z.Z.Z.Z.Z.Z.Z.Z.Z.Z.Z.Z.Z.Z.",
"Z.Z.Z.Z.Z.Z.Z.Z.Z.Z.Z.Z.Z.Z.Z.Z.Z.Z.Z.Z.Z.Z.Z.Z.Z.Z.Z.Z.Z.Z.Z.Z.Z.Z.Z.Z.Z.Z.Z.Z.Z.Z.Z.Z.Z.Z.Z.Z.Z.Z.Z.Z.Z.Z.Z.Z.Z.Z.Z.Z.Z.Z.Z.Z.",
"Z.Z.Z.Z.Z.Z.Z.Z.Z.Z.Z.Z.Z.Z.Z.Z.Z.Z.Z.Z.Z.Z.Z.Z.Z.Z.Z.Z.Z.Z.Z.Z.Z.Z.Z.Z.Z.Z.Z.Z.Z.Z.Z.Z.Z.Z.Z.Z.Z.Z.Z.Z.Z.Z.Z.Z.Z.Z.Z.Z.Z.Z.Z.Z.",
"Z.Z.Z.Z.Z.Z.Z.Z.Z.Z.Z.Z.Z.Z.Z.Z.Z.Z.Z.Z.Z.Z.Z.Z.Z.Z.Z.Z.Z.Z.Z.Z.Z.Z.Z.Z.Z.Z.Z.Z.Z.Z.Z.Z.Z.Z.Z.Z.Z.Z.Z.Z.Z.Z.Z.Z.Z.Z.Z.Z.Z.Z.Z.Z."
};
