/* XPM */
static char *player__33_1710156994[] = {
/* columns rows colors chars-per-pixel */
"64 64 153 2 ",
"   c #000D62",
".  c #001565",
"X  c #001A64",
"o  c #001769",
"O  c #001C6A",
"+  c #002065",
"@  c #00236D",
"#  c #012571",
"$  c #042973",
"%  c #092C76",
"&  c #072B78",
"*  c #0B2D7A",
"=  c #0E317A",
"-  c #13337C",
";  c #19367D",
":  c #17397F",
">  c #19387F",
",  c #0E2F81",
"<  c #153482",
"1  c #193682",
"2  c #1D3B83",
"3  c #163489",
"4  c #1A3790",
"5  c #1E3993",
"6  c #213D84",
"7  c #243D89",
"8  c #283F8C",
"9  c #213B96",
"0  c #233C9B",
"q  c #254386",
"w  c #2A4587",
"e  c #2A448B",
"r  c #2F4A8B",
"t  c #304C8B",
"y  c #37518F",
"u  c #2D4390",
"i  c #314593",
"p  c #364996",
"a  c #394A97",
"s  c #384798",
"d  c #3D4C9B",
"f  c #3B5592",
"g  c #3E5A94",
"h  c #2B42A5",
"j  c #2E43A9",
"k  c #3345AF",
"l  c #3446B1",
"z  c #3848B6",
"x  c #3E4BBE",
"c  c #424E9D",
"v  c #435C96",
"b  c #43519F",
"n  c #465E98",
"m  c #476199",
"M  c #4C649B",
"N  c #53699F",
"B  c #434FA0",
"V  c #4652A2",
"C  c #4C55A5",
"Z  c #5057A7",
"A  c #555BAB",
"S  c #595EAF",
"D  c #556DA1",
"F  c #596EA2",
"G  c #5D72A4",
"H  c #5E60B2",
"J  c #6076A6",
"K  c #6178A7",
"L  c #657BAA",
"P  c #6A7EAC",
"I  c #6263B5",
"U  c #6766B8",
"Y  c #6867BA",
"T  c #6C69BC",
"R  c #706CBF",
"E  c #3E4BC0",
"W  c #414EC1",
"Q  c #4450C5",
"!  c #4651C9",
"~  c #4C54D2",
"^  c #5156D9",
"/  c #5559DD",
"(  c #746EC1",
")  c #7971C5",
"_  c #7F75C9",
"`  c #575AE0",
"'  c #5B5CE5",
"]  c #5F5FEB",
"[  c #605FEC",
"{  c #6261EE",
"}  c #6663F5",
"|  c #6864F7",
" . c #6C66FC",
".. c #6F68FF",
"X. c #726AFF",
"o. c #8176CB",
"O. c #8579CE",
"+. c #8B7CD2",
"@. c #907ED5",
"#. c #6D81AE",
"$. c #7283AF",
"%. c #7285B1",
"&. c #7788B3",
"*. c #7C8DB6",
"=. c #7F90B8",
"-. c #8494BB",
";. c #8B9BBE",
":. c #8E9EC0",
">. c #919FC1",
",. c #9280D7",
"<. c #9682D9",
"1. c #9B86DD",
"2. c #9E88DF",
"3. c #94A3C4",
"4. c #99A7C6",
"5. c #9BA8C7",
"6. c #9BA9C8",
"7. c #A1ADCB",
"8. c #A6B1CD",
"9. c #ABB6D1",
"0. c #ADB9D2",
"q. c #B1BBD4",
"w. c #A38BE2",
"e. c #A88EE6",
"r. c #AD91EA",
"t. c #B294ED",
"y. c #B797F0",
"u. c #B897F1",
"i. c #BB9AF3",
"p. c #C09DF7",
"a. c #C39EF9",
"s. c #C6A0FB",
"d. c #CAA2FD",
"f. c #D0A6FF",
"g. c #BCC5DA",
"h. c #BFC8DC",
"j. c #C4CCDE",
"k. c #C7CEE0",
"l. c #C8CFE0",
"z. c #CBD3E2",
"x. c #D0D6E5",
"c. c #D3D9E7",
"v. c #D6DBE8",
"b. c #D9DEEA",
"n. c #DDE2EC",
"m. c #E1E5EE",
"M. c #E5E9F1",
"N. c #EAEDF4",
"B. c #EDF0F5",
"V. c #F0F2F7",
"C. c #F4F6F9",
"Z. c #F7F8FB",
"A. c #FFFFFF",
/* pixels */
"A.A.A.A.A.A.A.A.A.A.A.A.A.A.A.A.A.A.A.A.A.A.A.A.A.A.A.A.A.A.A.A.A.A.A.A.A.A.A.A.A.A.A.A.A.A.A.A.A.A.A.A.A.A.A.A.A.A.A.A.A.A.A.A.",
"A.A.A.A.A.A.A.A.A.A.A.A.A.A.A.A.A.A.A.A.A.A.A.A.A.A.A.A.A.A.A.A.A.A.A.A.A.A.A.A.A.A.A.A.A.A.A.A.A.A.A.A.A.A.A.A.A.A.A.A.A.A.A.A.",
"A.A.A.A.A.A.A.A.A.A.A.A.A.A.A.A.A.A.A.A.A.A.A.A.A.A.A.A.A.A.A.A.A.A.A.A.A.A.A.A.A.A.A.Z.A.A.A.A.A.A.A.A.A.A.A.A.A.A.A.A.A.A.A.A.",
"A.A.A.A.A.A.A.A.A.A.A.A.A.A.A.A.A.A.A.A.A.A.A.A.A.A.A.A.A.A.A.A.A.A.A.A.A.A.A.A.A.A.A.A.A.A.Z.A.A.A.A.A.A.A.A.A.A.A.A.A.A.A.A.A.",
"A.A.A.A.A.A.A.A.A.A.A.A.A.A.A.A.A.A.A.A.A.A.A.A.A.A.A.A.A.A.A.A.A.A.A.A.A.A.Z.A.A.j.>.;.9.N.A.A.A.A.A.A.A.A.A.A.A.A.A.A.A.A.A.A.",
"A.A.A.A.A.A.A.A.A.A.A.A.A.A.A.A.A.A.A.A.A.A.A.A.A.A.A.A.A.A.A.A.A.A.A.A.A.A.A.z.f @ . . O ; ;.A.A.A.A.A.A.A.A.A.A.A.A.A.A.A.A.A.",
"A.A.A.A.A.A.A.A.A.A.A.A.A.A.A.A.A.A.A.A.A.A.A.A.A.A.A.A.A.A.A.A.A.A.A.A.A.A.j.% X 1 C S u O o $.A.A.A.A.A.A.A.A.A.A.A.A.A.A.A.A.",
"A.A.A.A.A.A.A.A.A.A.A.A.A.A.A.A.A.A.A.A.A.A.A.A.A.A.A.A.A.A.A.A.A.A.A.A.A.C.w O V t.s.d.a.) & O 9.A.Z.A.A.A.A.A.A.A.A.A.A.A.A.A.",
"A.A.A.A.A.A.A.A.A.A.A.A.A.A.A.A.A.A.A.A.A.A.A.A.A.A.A.A.A.A.A.A.A.A.A.A.A.8.. 7 i.a.i.u.i.f.U X y A.A.A.A.A.A.A.A.A.A.A.A.A.A.A.",
"A.A.A.A.A.A.A.A.A.A.A.A.A.A.A.A.A.A.A.A.A.A.A.A.A.A.A.A.A.A.A.A.A.A.A.Z.A.P . Y d.u.i.i.i.i.y.1 O 0.A.A.A.A.A.A.A.A.A.A.A.A.A.A.",
"A.A.A.A.A.A.A.A.A.A.A.A.A.A.A.A.A.A.A.A.A.A.A.A.A.A.A.A.A.A.A.A.A.A.A.A.A.N . _ s.i.i.i.i.i.d.U . n A.A.A.A.A.A.A.A.A.A.A.A.A.A.",
"A.A.A.A.A.A.A.A.A.A.A.A.A.A.A.A.A.A.A.A.A.A.A.A.A.A.A.A.A.A.A.A.A.A.A.Z.A.P . I d.i.i.i.i.i.i.r.- @ g.A.A.A.A.A.A.A.A.A.A.A.A.A.",
"A.A.A.A.A.A.A.A.A.A.A.A.A.A.A.A.A.A.A.A.A.A.A.A.A.A.A.A.A.A.A.A.A.A.A.A.A.9.O 6 u.i.i.i.i.i.u.d.H . N A.A.A.A.A.A.A.A.A.A.A.A.A.",
"A.A.A.A.A.A.A.A.A.N.z.A.A.A.A.A.A.A.A.A.A.A.A.A.A.A.A.A.A.A.A.A.A.A.A.A.A.Z.r O ) d.u.i.i.i.i.a.e.& % c.A.A.A.A.A.A.A.A.A.A.A.A.",
"A.A.A.A.A.A.A.A.A.G o j.A.Z.A.A.A.A.A.A.A.A.A.A.A.A.A.A.A.A.A.A.A.A.A.A.A.A.3.. e i.i.i.i.i.u.i.d.c . 7.A.Z.A.A.A.A.A.A.A.A.A.A.",
"A.A.A.A.A.A.A.Z.A.%.  J A.A.A.A.A.A.A.A.A.A.A.A.A.A.A.A.A.A.A.A.A.A.A.A.A.A.V.q O o.f.a.a.a.d.y.t.V . 7.A.A.A.Z.A.A.A.A.A.A.A.A.",
"A.A.A.A.A.A.A.A.A.z.$ - M.A.A.A.A.A.A.A.A.A.A.A.A.A.A.A.A.A.A.A.A.A.A.A.A.A.A.:.X u w.+.w.t.I 2 % $ # m 0.n.A.A.A.A.A.A.A.A.A.A.",
"A.A.A.A.A.A.A.A.A.A.m . ;.A.N.A.A.A.A.A.A.A.A.A.A.A.A.A.A.A.A.A.A.A.A.A.A.Z.A.v.* $ @ O % - @ @ * , $ X X - n ;.z.A.A.A.A.A.A.A.",
"A.A.A.A.A.A.A.A.Z.A.4.O - 1 > n 6.A.A.A.A.A.A.A.A.A.A.A.A.A.A.A.A.A.A.A.A.A.M.r @ # 7 e $ @ < ~ { } ^ z 5 $ X X $ L Z.A.A.A.A.A.",
"A.A.A.A.A.A.A.A.A.l.6 # @ $ $ X O M C.A.A.A.A.A.A.A.A.A.A.A.A.A.A.A.A.A.A.Z.f o 7 @.d.( @ 3 { ..|  . . . .' ! h $ . M A.A.A.A.A.",
"A.A.A.A.A.A.A.A.m.; O e +.e.w.R - . D A.A.A.A.A.A.A.A.A.A.A.A.A.A.A.A.A.A.P . 2 r.s.a.s + Q X.} | | } } |  . . .^ - . 3.A.A.A.A.",
"A.A.A.A.A.A.A.A.L . p p.s.p.p.f.1.= O g.A.A.A.A.A.A.A.A.A.A.A.A.A.A.Z.A.4.O $ <.s.i.i.7 # /  .} | | | | | } } } X.! @ w Z.A.A.A.",
"A.A.A.A.A.A.A.N.> @ 1.s.u.i.i.u.d.I . F A.Z.A.A.A.A.A.A.A.A.A.A.A.Z.A.l.$ @ ( d.u.i.i.8 @ /  .| | | | | | | | | } } , $ c.A.A.A.",
"A.A.A.A.A.A.A.z.$ 1 i.i.i.i.i.i.p.w.$ % n.A.A.A.A.A.A.A.A.A.A.A.A.A.N.q O Z s.i.i.u.s.C X k X.| | | | | | | | | | } 3 @ j.A.Z.A.",
"A.A.A.A.A.A.A.v.$ 1 y.i.i.i.i.i.i.s.c . -.A.A.A.A.A.A.A.A.A.A.A.A.A.m . u i.i.i.i.i.s.,.@ $ !  ... .} | } | | }  .] & = m.A.A.A.",
"A.A.A.A.A.A.A.C.q O +.s.i.i.i.i.u.s.O.O w C.A.A.A.A.A.A.A.A.A.A.A.&.o - e.a.i.i.i.i.i.s.S @ $ h ~ ] .. . .| |  .X.l X n A.A.A.A.",
"A.A.A.A.A.A.Z.A.&.. C s.i.i.i.i.i.i.i.6 O 0.A.Z.Z.A.A.Z.Z.A.C.A.q.O $ +.d.i.i.i.i.i.i.i.a.7 # X X * 0 x / }  .{ k $ O g.A.A.A.A.",
"A.A.A.A.A.A.A.A.x.$ * e.a.i.i.i.i.u.d.U . N A.A.A.A.A.A.A.A.A.A.t O I d.u.i.p.i.i.i.i.d.T # - %.f $ X X # 3 3 * X @ 3.A.A.A.A.A.",
"A.A.A.A.A.A.A.A.A.M . Y d.i.i.i.i.i.a.w.$ - 3.6.6.6.4.5.5.5.7.-.@ 1 i.i.i.i.i.i.i.i.s.@.$ O 4.A.A.v.6.D 2 @ @ % g g.A.A.A.A.A.A.",
"A.A.A.A.A.A.A.A.A.9.O 7 i.i.i.i.i.i.p.t.1 # X X X X X . X . X X @ d s.u.i.i.i.i.i.a.r.; o #.A.Z.A.A.A.A.B.z.g.n.A.A.A.A.A.A.A.A.",
"A.A.A.A.A.A.A.A.A.V.q O +.s.i.i.i.i.p.e.* * h h h h h h h h j 9 @ a s.i.i.i.i.i.i.p.i . g A.A.A.A.A.A.A.A.A.A.A.A.A.A.A.A.A.A.A.",
"A.A.A.A.A.A.A.A.A.A.=.. p s.i.i.i.i.f.I X 5 X. ...............' # - r.p.u.i.i.i.d.A O 1 m.A.Z.A.A.A.A.A.A.A.Z.A.A.A.A.A.A.A.A.A.",
"A.A.A.A.A.A.A.A.A.A.M.- O Z i.s.s.s.R $ @ ~  .} | } } } } } }  .5 + B a.d.s.s.d.( @ # g.A.Z.A.A.A.A.A.A.A.A.A.A.A.A.A.A.A.A.A.A.",
"A.A.A.A.A.A.A.A.A.A.A.0.- @ 2 C A e # # l  .} | | | | | | } }  .^ * @ i S B S C $ O ;.A.A.A.A.A.A.A.A.A.A.A.A.A.A.A.A.A.A.A.A.A.",
"A.A.A.A.A.A.A.A.A.A.A.A.n # @ X X @ $ 0  .| | | | | | | | | } } X.E $ @ X X X @ # J A.Z.A.A.A.A.A.A.A.A.A.A.A.A.A.A.A.A.A.A.A.A.",
"A.A.A.A.A.A.A.A.A.Z.A.F O $ b T Y u @ $ x ..| | | | | | | | }  .' < @ 1 I _ U 6 @ ; z.A.Z.A.A.A.A.A.A.A.A.A.A.A.A.A.A.A.A.A.A.A.",
"A.A.A.A.A.A.A.A.A.A.6.O = +.d.s.d.s.Y @ * `  .| } } } } } } }  .0 + i t.d.s.d.i.d X f A.A.A.A.A.A.A.A.A.A.A.A.A.A.A.A.A.A.A.A.A.",
"A.A.A.A.A.A.A.A.A.V.w O ( f.i.i.u.i.d.b X l X. ........... ...' $ * e.a.t.i.u.a.y.1 O 4.A.Z.A.A.A.A.A.A.A.A.A.A.A.A.A.A.A.A.A.A.",
"A.A.A.A.A.A.A.A.A.;.. 8 i.i.i.i.i.u.s.+.O 3 ! E E C W W C E Q j @ c s.i.i.i.i.u.d.) O 6 B.A.A.A.A.A.A.A.A.A.A.A.A.A.A.A.A.A.A.A.",
"A.A.A.A.A.A.A.A.N.2 O o.d.i.i.i.i.i.s.<.$ # . o o X X X X X X O @ V d.i.i.i.i.i.i.a.e . *.A.A.A.A.A.A.A.A.A.A.A.A.A.A.A.A.A.A.A.",
"A.A.A.A.A.A.A.A.*.. i p.i.i.p.i.i.i.d.( O w #.L L L L L L L P D @ 8 i.i.i.i.i.i.i.d.+.# * n.A.Z.A.A.A.A.A.A.A.A.A.A.A.A.A.A.A.A.",
"A.A.A.A.A.A.A.n.- @ +.s.i.i.i.i.i.i.i.e . 5.A.A.A.A.A.A.A.A.A.C.2 O o.d.i.i.i.i.i.i.a.c . G A.A.A.A.A.A.A.A.A.A.A.A.A.A.A.A.A.A.",
"A.A.A.A.A.A.A.#.. d a.i.i.i.i.i.i.d.( X w C.A.A.A.Z.Z.A.A.A.C.A.;.O 7 i.i.i.i.i.i.i.a.w.% @ h.A.A.A.A.A.A.A.A.A.A.A.A.A.A.A.A.A.",
"A.A.A.A.A.A.c.% # <.a.i.i.i.i.i.i.y.6 O 6.A.Z.A.A.A.A.A.A.A.A.A.C.r X T d.i.i.i.i.i.u.d.S . v A.A.A.A.A.A.A.A.A.A.A.A.A.A.A.A.A.",
"A.A.A.A.Z.A.G . V s.i.i.i.i.i.i.d.Y X y A.A.A.A.A.A.A.A.A.A.A.A.A.9.O - r.a.i.i.i.i.i.p.t.< O 8.A.Z.A.A.A.A.A.A.A.A.A.A.A.A.A.A.",
"A.A.A.A.A.b.* $ 2.a.i.i.i.i.i.i.r.1 O 0.A.A.A.A.A.A.A.A.A.A.A.A.A.A.n . A d.i.i.i.i.i.i.d.T . n A.A.A.A.A.A.A.A.A.A.A.A.A.A.A.A.",
"A.A.A.Z.A.8.X p a.i.i.i.i.i.i.d.H O v A.A.A.A.A.A.A.A.A.A.A.A.A.A.A.j.# $ 1.a.i.p.i.i.i.a.e.$ > B.A.A.A.A.A.A.A.A.A.A.A.A.A.A.A.",
"A.A.A.A.A.5.. C s.i.a.i.i.i.a.e.= O g.A.Z.A.A.A.A.A.A.A.A.A.A.A.A.Z.A.L . d s.u.i.i.i.i.p.e.% - N.A.A.A.A.A.A.A.A.A.A.A.A.A.A.A.",
"A.A.A.A.A.q.O 8 a.u.i.i.i.i.d.A . N A.Z.A.A.A.A.A.A.A.A.A.A.A.A.A.A.A.n.- @ +.d.u.i.i.y.d.+.O t Z.A.A.A.A.A.A.A.A.A.A.A.A.A.A.A.",
"A.A.A.A.A.N.; @ o.f.i.i.i.d.<.$ # z.A.A.A.A.A.A.A.A.A.A.A.A.A.A.A.A.A.A.-.. 6 y.d.i.i.d.p.i . &.A.A.A.A.A.A.A.A.A.A.A.A.A.A.A.A.",
"A.A.A.A.A.A.-.. * _ i.a.i.+.2 . L A.Z.A.A.A.A.A.A.A.A.A.A.A.A.A.A.A.A.A.C.w X u ,.y.t.<.p O > M.A.A.A.A.A.A.A.A.A.A.A.A.A.A.A.A.",
"A.A.A.A.A.A.A.G . O 6 s 7 @ . g C.A.A.A.A.A.A.A.A.A.A.A.A.A.A.A.A.A.A.A.A.v.6 . @ < 1 @ X ; l.A.Z.A.A.A.A.A.A.A.A.A.A.A.A.A.A.A.",
"A.A.A.A.A.A.A.A.3.w @ . # 2 *.Z.A.A.A.A.A.A.A.A.A.A.A.A.A.A.A.A.A.A.A.A.Z.A.N.$.q $ $ 2 L m.A.Z.A.A.A.A.A.A.A.A.A.A.A.A.A.A.A.A.",
"A.A.A.A.A.A.A.A.A.Z.k.q.k.B.A.A.A.A.A.A.A.A.A.A.A.A.A.A.A.A.A.A.A.A.A.A.A.A.A.A.V.v.c.V.A.A.A.A.A.A.A.A.A.A.A.A.A.A.A.A.A.A.A.A.",
"A.A.A.A.A.A.A.A.Z.A.A.A.A.A.A.A.A.A.A.A.A.A.A.A.A.A.A.A.A.A.A.A.A.A.A.A.A.A.A.Z.A.A.A.A.A.A.A.A.A.A.A.A.A.A.A.A.A.A.A.A.A.A.A.A.",
"A.A.A.A.A.A.A.A.A.A.A.Z.A.A.A.A.A.A.A.A.A.A.A.A.A.A.A.A.A.A.A.A.A.A.A.A.A.A.A.A.A.A.A.A.A.A.A.A.A.A.A.A.A.A.A.A.A.A.A.A.A.A.A.A.",
"A.A.A.A.A.A.A.A.A.A.A.A.A.A.A.A.A.A.A.A.A.A.A.A.A.A.A.A.A.A.A.A.A.A.A.A.A.A.A.A.A.A.A.A.A.A.A.A.A.A.A.A.A.A.A.A.A.A.A.A.A.A.A.A.",
"A.A.A.A.A.A.A.A.A.A.A.A.A.A.A.A.A.A.A.A.A.A.A.A.A.A.A.A.A.A.A.A.A.A.A.A.A.A.A.A.A.A.A.A.A.A.A.A.A.A.A.A.A.A.A.A.A.A.A.A.A.A.A.A.",
"A.A.A.A.A.A.A.A.A.A.A.A.A.A.A.A.A.A.A.A.A.A.A.A.A.A.A.A.A.A.A.A.A.A.A.A.A.A.A.A.A.A.A.A.A.A.A.A.A.A.A.A.A.A.A.A.A.A.A.A.A.A.A.A.",
"A.A.A.A.A.A.A.A.A.A.A.A.A.A.A.A.A.A.A.A.A.A.A.A.A.A.A.A.A.A.A.A.A.A.A.A.A.A.A.A.A.A.A.A.A.A.A.A.A.A.A.A.A.A.A.A.A.A.A.A.A.A.A.A.",
"A.A.A.A.A.A.A.A.A.A.A.A.A.A.A.A.A.A.A.A.A.A.A.A.A.A.A.A.A.A.A.A.A.A.A.A.A.A.A.A.A.A.A.A.A.A.A.A.A.A.A.A.A.A.A.A.A.A.A.A.A.A.A.A.",
"A.A.A.A.A.A.A.A.A.A.A.A.A.A.A.A.A.A.A.A.A.A.A.A.A.A.A.A.A.A.A.A.A.A.A.A.A.A.A.A.A.A.A.A.A.A.A.A.A.A.A.A.A.A.A.A.A.A.A.A.A.A.A.A.",
"A.A.A.A.A.A.A.A.A.A.A.A.A.A.A.A.A.A.A.A.A.A.A.A.A.A.A.A.A.A.A.A.A.A.A.A.A.A.A.A.A.A.A.A.A.A.A.A.A.A.A.A.A.A.A.A.A.A.A.A.A.A.A.A.",
"A.A.A.A.A.A.A.A.A.A.A.A.A.A.A.A.A.A.A.A.A.A.A.A.A.A.A.A.A.A.A.A.A.A.A.A.A.A.A.A.A.A.A.A.A.A.A.A.A.A.A.A.A.A.A.A.A.A.A.A.A.A.A.A."
};
