/* XPM */
static char *player__34_1710156995[] = {
/* columns rows colors chars-per-pixel */
"64 64 146 2 ",
"   c #00045D",
".  c #001665",
"X  c #001966",
"o  c #001769",
"O  c #001C6A",
"+  c #002166",
"@  c #00236D",
"#  c #01286F",
"$  c #012571",
"%  c #052974",
"&  c #0A2D76",
"*  c #072A79",
"=  c #0B2D7B",
"-  c #0E3179",
";  c #13337D",
":  c #17387F",
">  c #0E2F81",
",  c #0F3080",
"<  c #153384",
"1  c #1A3783",
"2  c #1E3A84",
"3  c #17348A",
"4  c #19358E",
"5  c #1C3792",
"6  c #1D3893",
"7  c #223D85",
"8  c #253D8A",
"9  c #293F8D",
"0  c #233D9A",
"q  c #2A3FA5",
"w  c #244285",
"e  c #284587",
"r  c #2A448B",
"t  c #2D4A8A",
"y  c #334E8D",
"u  c #36518F",
"i  c #2E4491",
"p  c #334694",
"a  c #374997",
"s  c #374998",
"d  c #3E4D9C",
"f  c #375592",
"g  c #3C5592",
"h  c #2A40A4",
"j  c #3346AF",
"k  c #3445B2",
"l  c #394AB6",
"z  c #3B4ABA",
"x  c #414F9E",
"c  c #435B96",
"v  c #475E98",
"b  c #485E98",
"n  c #4B639A",
"m  c #546A9F",
"M  c #4551A0",
"N  c #4B55A4",
"B  c #545BAB",
"V  c #595DAE",
"C  c #5C5EB0",
"Z  c #566CA1",
"A  c #596FA2",
"S  c #5C72A4",
"D  c #5F61B3",
"F  c #6277A9",
"G  c #667AAB",
"H  c #6A7DAB",
"J  c #6363B5",
"K  c #6766B9",
"L  c #6D6ABC",
"P  c #716CBF",
"I  c #424FC3",
"U  c #4450C6",
"Y  c #4751CA",
"T  c #4B53CF",
"R  c #4E55D4",
"E  c #5056D7",
"W  c #746EC2",
"Q  c #7670C3",
"!  c #7971C5",
"~  c #7E74C8",
"^  c #5C5DE6",
"/  c #5E5EE9",
"(  c #605FEC",
")  c #6260EE",
"_  c #6663F5",
"`  c #6864F7",
"'  c #6B66FB",
"]  c #6F68FF",
"[  c #7169FF",
"{  c #8276CC",
"}  c #8679CE",
"|  c #887ACF",
" . c #8B7CD2",
".. c #917FD6",
"X. c #7284B1",
"o. c #7B8CB5",
"O. c #8393BA",
"+. c #8C9BBE",
"@. c #8E9DC0",
"#. c #909EC1",
"$. c #9280D6",
"%. c #9682DA",
"&. c #9B86DD",
"*. c #95A3C4",
"=. c #99A6C6",
"-. c #9AA8C7",
";. c #9CAAC8",
":. c #A3AFCC",
">. c #A5B1CD",
",. c #ABB6D1",
"<. c #AEB9D2",
"1. c #B2BDD5",
"2. c #9F88E0",
"3. c #A28AE2",
"4. c #A98EE6",
"5. c #AB8FE8",
"6. c #AD91EA",
"7. c #B394ED",
"8. c #B797F0",
"9. c #B897F1",
"0. c #BB9AF4",
"q. c #C09DF7",
"w. c #C39EF9",
"e. c #C6A1FB",
"r. c #CAA3FE",
"t. c #D0A6FF",
"y. c #D2A8FF",
"u. c #B7C1D7",
"i. c #B8C1D7",
"p. c #BBC4D9",
"a. c #BFC9DC",
"s. c #C1C9DC",
"d. c #CDD4E3",
"f. c #D3D8E6",
"g. c #D7DCE9",
"h. c #D9DEEA",
"j. c #DDE2EC",
"k. c #E2E5EF",
"l. c #E3E6F0",
"z. c #E5E9F1",
"x. c #EAEDF3",
"c. c #EDF0F6",
"v. c #F1F3F7",
"b. c #F4F6F9",
"n. c #F6F8FA",
"m. c #FFFFFF",
/* pixels */
"m.m.m.m.m.m.m.m.m.m.m.m.m.m.m.m.m.m.m.m.m.m.m.m.m.m.m.m.m.m.m.m.m.m.m.m.m.m.m.m.m.m.m.m.m.m.m.m.m.m.m.m.m.m.m.m.m.m.m.m.m.m.m.m.",
"m.m.m.m.m.m.m.m.m.m.m.m.m.m.m.m.m.m.m.m.m.m.m.m.m.m.m.m.m.m.m.m.m.m.m.m.m.m.m.m.m.m.m.m.m.m.m.m.m.m.m.m.m.m.m.m.m.m.m.m.m.m.m.m.",
"m.m.m.m.m.m.m.m.m.m.m.m.m.m.m.m.m.m.m.m.m.m.m.m.m.m.m.m.m.m.m.m.m.m.m.m.m.m.m.m.m.m.m.m.m.m.m.m.m.m.m.m.m.m.m.m.m.m.m.m.m.m.m.m.",
"m.m.m.m.m.m.m.m.m.m.m.m.m.m.m.m.m.m.m.m.m.m.m.m.m.m.m.m.m.m.m.m.m.m.m.m.m.m.m.m.m.m.m.m.m.m.m.m.m.m.m.m.m.m.m.m.m.m.m.m.m.m.m.m.",
"m.m.m.m.m.m.m.m.m.m.m.m.m.m.m.m.m.m.m.m.m.m.m.m.m.m.m.m.m.m.m.m.m.m.m.m.m.m.m.m.j.a.d.b.m.m.m.m.m.m.m.m.m.m.m.m.m.m.m.m.m.m.m.m.",
"m.m.m.m.m.m.m.m.m.m.m.m.m.m.m.m.m.m.m.m.m.m.m.m.m.m.m.m.m.m.m.m.m.m.m.m.m.m.a.c & O $ w o.b.m.m.m.m.m.m.m.m.m.m.m.m.m.m.m.m.m.m.",
"m.m.m.m.m.m.m.m.m.m.m.m.m.m.m.m.m.m.m.m.m.m.m.m.m.m.m.m.m.m.m.m.m.m.m.m.m.*.O X - i 1 O . u x.m.m.m.m.m.m.m.m.m.m.m.m.m.m.m.m.m.",
"m.m.m.m.m.m.m.m.m.m.m.m.m.m.m.m.m.m.m.m.m.m.m.m.m.m.m.m.m.m.m.m.m.m.m.m.s.@ $ V 7.0.9. .2 . Z m.m.m.m.m.m.m.m.m.m.m.m.m.m.m.m.m.",
"m.m.m.m.m.m.m.m.m.m.m.m.m.m.m.m.m.m.m.m.m.m.m.m.m.m.m.m.m.m.m.m.m.m.m.m.n X V r.w.0.0.r.3.- O <.m.n.m.m.m.m.m.m.m.m.m.m.m.m.m.m.",
"m.m.m.m.m.m.m.m.m.m.m.m.m.m.m.m.m.m.m.m.m.m.m.m.m.m.m.m.m.m.m.m.m.m.m.z.; % 4.0.9.0.0.9.r.K o t b.m.m.m.m.m.m.m.m.m.m.m.m.m.m.m.",
"m.m.m.m.m.m.m.m.m.m.m.m.m.m.m.m.m.m.m.m.m.m.m.m.m.m.m.m.m.m.m.m.m.m.m.d.@ 7 9.0.q.0.0.0.0.0.9 X O.m.m.m.m.m.m.m.m.m.m.m.m.m.m.m.",
"m.m.m.m.m.m.m.m.m.m.m.m.m.m.m.m.m.m.m.m.m.m.m.m.m.m.m.m.m.m.m.m.m.m.m.g.% < 7.0.0.0.0.0.9.e.} @ & g.m.m.m.m.m.m.m.m.m.m.m.m.m.m.",
"m.m.m.m.m.m.m.m.m.m.m.m.m.m.m.m.m.m.m.m.m.m.m.m.m.m.m.m.m.m.m.m.m.m.m.b.t o ~ r.9.0.0.0.0.9.e.x . Z m.m.m.m.m.m.m.m.m.m.m.m.m.m.",
"m.m.m.m.m.m.m.m.m.m.m.m.m.m.m.m.m.m.m.m.m.m.m.m.m.m.m.m.m.m.m.m.m.m.m.m.@.X 7 8.q.0.0.0.0.0.e.2.& % f.m.m.m.m.m.m.m.m.m.m.m.m.m.",
"m.m.m.m.m.m.m.m.m.+.y k.m.m.m.m.m.m.m.m.m.m.m.m.m.m.m.m.m.m.m.m.m.m.m.m.m.y X J r.8.0.9.0.9.0.y.M . :.m.b.m.m.m.m.m.m.m.m.m.m.m.",
"m.m.m.m.m.m.m.n.m.m   O.m.m.m.m.m.m.m.m.m.m.m.m.m.m.m.m.m.m.m.m.m.m.m.m.m.1.O = 3.r.e.e.e.e.6. .s o O.m.m.m.m.m.m.m.m.m.m.m.m.m.",
"m.m.m.m.m.m.m.m.m.1.o t n.m.n.m.m.m.m.m.m.m.m.m.m.m.m.m.m.m.m.m.m.m.m.m.m.m.m . d 5. ...4.J = + @ @ & u G :.d.n.m.m.m.m.m.m.m.m.",
"m.m.m.m.m.m.m.m.m.v.w o u.m.m.m.m.m.m.m.m.m.m.m.m.m.m.m.m.m.m.m.m.m.m.m.m.m.z.; % % O $ = @ @ 6 h 6 * @ . X # e O.b.m.m.m.m.m.m.",
"m.m.m.m.m.m.m.m.m.m.+.. f G F =.z.m.m.m.m.m.m.m.m.m.m.m.m.m.m.m.m.m.m.m.n.m.*.% @ ; p ; # = R ] ] ' ) R l 0 > @ . f x.m.m.m.m.m.",
"m.m.m.m.m.m.m.m.m.n.S $ @ . . . ; ;.m.m.m.m.m.m.m.m.m.m.m.m.m.m.m.m.m.m.m.i.@ @ V 8.7.; # E [ _ _ _ ' ] ] ' _ T < . n m.m.m.m.m.",
"m.m.m.m.m.m.m.m.m.n . % N Q L a @ o *.m.m.m.m.m.m.m.m.m.m.m.m.m.m.m.m.m.x.7 O V r.r.} @ 5 ' _ ` _ ` ` _ _ _ ` [ ^ - O 1.m.n.m.m.",
"m.m.m.m.m.m.m.m.#.X 1 %.r.r.r.e.K @ & j.m.m.m.m.m.m.m.m.m.m.m.m.m.m.m.m.A X i q.9.e.Q X h ] _ _ ` ` ` ` ` ` ` _ [ l . G m.m.m.m.",
"m.m.m.m.m.m.m.m.t O ~ y.7.9.9.0.r.x . o.m.n.m.m.m.m.m.m.m.m.m.m.m.n.m.*.O & &.e.9.e.} + 5 ' _ _ ` ` ` ` ` ` ` _ ] R X b m.m.m.m.",
"m.m.m.m.m.m.m.f.% ; 7.0.0.0.0.0.e. .O w v.m.m.m.m.m.m.m.m.m.m.m.m.m.h.; @ P r.9.0.q.5.= % R [ _ _ _ _ ` ` ` ` _ ] U . m m.m.m.m.",
"m.m.m.m.m.n.m.d.$ 2 9.0.0.0.0.0.0.0.r o >.m.m.m.m.m.m.m.m.m.m.m.m.m.g X x e.0.0.0.0.r.C O ; R ] ] ] ' _ _ _ _ _ ] 0 . O.m.n.m.m.",
"m.m.m.m.m.m.m.x.; % 3.w.0.0.0.0.9.r.L X v m.m.m.m.m.m.m.m.m.m.m.m.o.o 1 7.0.0.0.0.0.0.9.s @ % 0 l R / ' ] ] ] ' z @ & j.m.m.m.m.",
"m.m.m.m.m.m.m.m.Z . J r.9.0.0.0.0.q.5.= $ d.m.m.m.m.m.m.m.m.m.m.s.$ @ | r.0.0.0.0.0.0.w.4.= % X . + & 6 j U U 0 @ O *.m.m.m.m.m.",
"m.m.m.m.m.m.m.m.1.O 2 9.q.0.0.q.0.9.r.N . X.m.m.m.m.m.m.m.m.m.m.u X V r.9.0.0.0.0.0.0.w.d o g <.X.g - X X . . X ; ;.m.m.m.m.m.m.",
"m.m.m.m.m.m.m.m.n.t X { e.9.0.0.0.0.e.$.@ w j.z.k.k.l.l.l.k.c.<.@ < 8.0.0.0.0.0.0.9.r.P O ; h.m.m.m.k.1.o.F F #.k.m.m.m.m.m.m.m.",
"m.m.m.m.m.m.m.m.m.+.. d e.9.0.0.0.0.0.7.< $ - - - - - = - - - = @ N r.8.0.0.0.0.9.e.2.- o ;.m.n.m.m.m.m.m.m.m.m.m.m.m.m.m.m.m.m.",
"m.m.m.m.m.m.m.m.m.j.= % 2.e.9.0.0.0.q.7.; % * = * = = = * * > * @ N e.8.0.0.0.0.0.0.r . S m.n.m.m.m.m.m.m.m.n.m.m.m.m.m.m.m.m.m.",
"m.m.m.m.m.m.m.m.m.m.S . V r.9.9.0.7.r.} @ < ) ) ) ) ( ) _ / _ Y @ r e.0.0.0.0.9.r.D X w c.m.m.m.m.m.m.m.m.m.m.m.m.m.m.m.m.m.m.m.",
"m.m.m.m.m.m.m.m.m.m.s.O % } r.e.w.r.4.2 @ l [ ' ' ' ' ' ' ` ' _ = @ W r.w.w.w.t.} $ @ p.m.m.m.m.m.m.m.m.m.m.m.m.m.m.m.m.m.m.m.m.",
"m.m.m.m.m.m.m.m.m.m.m.G o & B | ..J < + 4 _ _ _ _ _ _ _ _ _ _ ] N @ % J 3.&.3.W = . o.m.m.m.m.m.m.m.m.m.m.m.m.m.m.m.m.m.m.m.m.m.",
"m.m.m.m.m.m.m.m.m.m.m.m.S $ % @ @ @ $ 6 _ ` _ _ _ _ ` ` _ _ ` _ ' k $ $ % @ % $ $ G m.m.m.m.m.m.m.m.m.m.m.m.m.m.m.m.m.m.m.m.m.m.",
"m.m.m.m.m.m.m.m.m.m.m.d.e @ % 1 1 $ @ 3 ^ ' _ _ ` ` ` ` ` ` ` ` ' q $ $ ; 8 = $ O O.m.m.m.m.m.m.m.m.m.m.m.m.m.m.m.m.m.m.m.m.m.m.",
"m.m.m.m.m.m.m.m.m.m.x.: o p %.8.8.$.i + < _ ' _ _ _ _ ` _ _ _ ] j + = W 7.0.6.D % o ;.m.m.m.m.m.m.m.m.m.m.m.m.m.m.m.m.m.m.m.m.m.",
"m.m.m.m.m.m.m.m.n.m.o.. p 0.e.0.0.r.9.8 + z [ ' ' ' ' ' ' ' ] ^ % %  .r.0.0.0.t.L O w b.m.m.m.m.m.m.m.m.m.m.m.m.m.m.m.m.m.m.m.m.",
"m.m.m.m.m.m.m.m.m.k.; @ ..e.9.0.0.8.r.~ @ 4 ( ^ ^ ^ ^ ^ / ^ ) l + x r.9.0.0.0.0.0.r o *.m.m.m.m.m.m.m.m.m.m.m.m.m.m.m.m.m.m.m.m.",
"m.m.m.m.m.m.m.m.m.O.. a e.0.0.0.0.0.w.3.* % $ $ $ $ $ % $ $ $ % @ J r.0.0.0.0.9.e.~ O w c.m.m.m.m.m.m.m.m.m.m.m.m.m.m.m.m.m.m.m.",
"m.m.m.m.m.m.m.m.x.2 @ | e.9.0.0.0.0.w.%.$ & w w w w w w w w e : O V r.9.0.0.0.0.0.0.r o *.m.m.m.m.m.m.m.m.m.m.m.m.m.m.m.m.m.m.m.",
"m.m.m.m.m.m.m.m.@.o r w.0.0.0.0.0.9.r.D . A m.n.n.n.n.n.n.b.m.,.O 7 0.0.0.0.q.0.9.r.! O e b.m.m.m.m.m.m.m.m.m.m.m.m.m.m.m.m.m.m.",
"m.m.m.m.m.m.m.v.w O { e.9.0.0.q.0.q.7.< O u.m.m.m.m.m.m.m.m.m.b.t o W r.9.0.0.0.0.0.9.9 X =.m.m.m.m.m.m.m.m.m.m.m.m.m.m.m.m.m.m.",
"m.m.m.m.m.m.m.*.o r 0.0.0.0.0.0.0.w.K . c m.m.m.m.m.m.m.m.m.m.m.;.o 8 0.q.0.0.0.0.9.r.! O e b.m.m.m.m.m.m.m.m.m.m.m.m.m.m.m.m.m.",
"m.m.m.m.m.m.b.t o ! r.0.0.0.0.0.0.7.1 o <.m.m.m.m.m.m.m.m.m.m.m.n.t O ! r.9.0.q.0.0.0.0.8 X -.m.m.m.m.m.m.m.m.m.m.m.m.m.m.m.m.m.",
"m.m.m.m.m.m.>.o 7 9.0.0.0.0.0.0.r.P X f m.m.m.m.m.m.m.m.m.m.m.m.m.=.o w 0.0.0.0.0.0.0.r.! o t n.m.m.m.m.m.m.m.m.m.m.m.m.m.m.m.m.",
"m.m.m.m.m.m.n . L r.0.0.0.0.0.0.9.7 X :.m.m.m.m.m.m.m.m.m.m.m.m.m.b.e O ! r.9.0.0.0.0.0.8.7 @ p.m.m.m.m.m.m.m.m.m.m.m.m.m.m.m.m.",
"m.m.m.m.m.b.w $ 2.w.0.0.w.0.9.r.! O t b.m.m.m.m.m.m.m.m.m.m.m.m.m.m.*.o 8 0.0.0.0.0.0.0.e.N . *.m.m.m.m.m.m.m.m.m.m.m.m.m.m.m.m.",
"m.m.m.m.m.b.2 $ 2.q.0.0.0.0.0.0.r o =.m.m.m.m.m.m.m.m.m.m.m.m.m.m.m.b.e o ! w.9.0.0.0.9.e.M . =.m.b.m.m.m.m.m.m.m.m.m.m.m.m.m.m.",
"m.m.m.m.m.m.v X ! r.7.0.0.9.r.{ O w v.m.m.m.m.m.m.m.m.m.m.m.m.m.m.m.m.*.o 9 w.0.9.9.9.q.7.1 @ a.m.m.m.m.m.m.m.m.m.m.m.m.m.m.m.m.",
"m.m.m.m.m.m.=.. 1 4.r.q.w.r.6.7 . @.m.m.m.m.m.m.m.m.m.m.m.m.m.m.m.m.m.b.e O C r.r.w.e.e.B X y m.m.m.m.m.m.m.m.m.m.m.m.m.m.m.m.m.",
"m.m.m.m.m.m.m.g . 1 ! 3.3.! 2 . y b.m.m.m.m.m.m.m.m.m.m.m.m.m.m.m.m.m.m.<.O @ x | &.} s O $ a.m.m.m.m.m.m.m.m.m.m.m.m.m.m.m.m.m.",
"m.m.m.m.m.m.m.k.g X X $ $ X . u k.m.m.m.m.m.m.m.m.m.m.m.m.m.m.m.m.m.m.m.m.=.& . O @ X . ; <.m.m.m.m.m.m.m.m.m.m.m.m.m.m.m.m.m.m.",
"m.m.m.m.m.m.m.m.m.*.v 2 w v *.n.m.m.m.m.m.m.m.m.m.m.m.m.m.m.m.m.m.m.m.m.m.m.j.o.g t c o.k.m.n.m.m.m.m.m.m.m.m.m.m.m.m.m.m.m.m.m.",
"m.m.m.m.m.m.m.m.m.m.m.v.b.m.m.m.m.m.m.m.m.m.m.m.m.m.m.m.m.m.m.m.m.m.m.m.m.n.m.m.m.n.m.m.m.m.m.m.m.m.m.m.m.m.m.m.m.m.m.m.m.m.m.m.",
"m.m.m.m.m.m.m.m.m.m.m.m.m.m.m.m.m.m.m.m.m.m.m.m.m.m.m.m.m.m.m.m.m.m.m.m.m.m.m.m.m.m.m.m.m.m.m.m.m.m.m.m.m.m.m.m.m.m.m.m.m.m.m.m.",
"m.m.m.m.m.m.m.m.m.m.m.m.m.m.m.m.m.m.m.m.m.m.m.m.m.m.m.m.m.m.m.m.m.m.m.m.m.m.m.m.m.m.m.m.m.m.m.m.m.m.m.m.m.m.m.m.m.m.m.m.m.m.m.m.",
"m.m.m.m.m.m.m.m.m.m.m.m.m.m.m.m.m.m.m.m.m.m.m.m.m.m.m.m.m.m.m.m.m.m.m.m.m.m.m.m.m.m.m.m.m.m.m.m.m.m.m.m.m.m.m.m.m.m.m.m.m.m.m.m.",
"m.m.m.m.m.m.m.m.m.m.m.m.m.m.m.m.m.m.m.m.m.m.m.m.m.m.m.m.m.m.m.m.m.m.m.m.m.m.m.m.m.m.m.m.m.m.m.m.m.m.m.m.m.m.m.m.m.m.m.m.m.m.m.m.",
"m.m.m.m.m.m.m.m.m.m.m.m.m.m.m.m.m.m.m.m.m.m.m.m.m.m.m.m.m.m.m.m.m.m.m.m.m.m.m.m.m.m.m.m.m.m.m.m.m.m.m.m.m.m.m.m.m.m.m.m.m.m.m.m.",
"m.m.m.m.m.m.m.m.m.m.m.m.m.m.m.m.m.m.m.m.m.m.m.m.m.m.m.m.m.m.m.m.m.m.m.m.m.m.m.m.m.m.m.m.m.m.m.m.m.m.m.m.m.m.m.m.m.m.m.m.m.m.m.m.",
"m.m.m.m.m.m.m.m.m.m.m.m.m.m.m.m.m.m.m.m.m.m.m.m.m.m.m.m.m.m.m.m.m.m.m.m.m.m.m.m.m.m.m.m.m.m.m.m.m.m.m.m.m.m.m.m.m.m.m.m.m.m.m.m.",
"m.m.m.m.m.m.m.m.m.m.m.m.m.m.m.m.m.m.m.m.m.m.m.m.m.m.m.m.m.m.m.m.m.m.m.m.m.m.m.m.m.m.m.m.m.m.m.m.m.m.m.m.m.m.m.m.m.m.m.m.m.m.m.m.",
"m.m.m.m.m.m.m.m.m.m.m.m.m.m.m.m.m.m.m.m.m.m.m.m.m.m.m.m.m.m.m.m.m.m.m.m.m.m.m.m.m.m.m.m.m.m.m.m.m.m.m.m.m.m.m.m.m.m.m.m.m.m.m.m."
};
