/* XPM */
static char *player__11_1710156991[] = {
/* columns rows colors chars-per-pixel */
"64 64 154 2 ",
"   c #00055D",
".  c #001564",
"X  c #001A66",
"o  c #001768",
"O  c #001C6A",
"+  c #002166",
"@  c #00226D",
"#  c #01286F",
"$  c #012571",
"%  c #042A73",
"&  c #092C76",
"*  c #0C2E79",
"=  c #112F79",
"-  c #0E317A",
";  c #13337D",
":  c #18377E",
">  c #1B397F",
",  c #0F3082",
"<  c #133284",
"1  c #193682",
"2  c #1D3983",
"3  c #143389",
"4  c #19368D",
"5  c #1C3792",
"6  c #1F3A94",
"7  c #213D83",
"8  c #243D8A",
"9  c #203A97",
"0  c #233B9A",
"q  c #293FA2",
"w  c #244285",
"e  c #2A458C",
"r  c #2D498A",
"t  c #314D8C",
"y  c #36518E",
"u  c #2E4391",
"i  c #324693",
"p  c #354895",
"a  c #384897",
"s  c #374898",
"d  c #3D4C9B",
"f  c #375491",
"g  c #3B5592",
"h  c #3C5894",
"j  c #2B41A5",
"k  c #2F43AD",
"l  c #3245AC",
"z  c #3747B7",
"x  c #3748B3",
"c  c #3C4ABC",
"v  c #424E9D",
"b  c #445C97",
"n  c #43509E",
"m  c #455E98",
"M  c #485F98",
"N  c #4B639B",
"B  c #50669C",
"V  c #576A9F",
"C  c #424FA0",
"Z  c #4652A1",
"A  c #4B55A5",
"S  c #5057A7",
"D  c #545BAB",
"F  c #595DAF",
"G  c #5C5FB1",
"H  c #546CA0",
"J  c #586EA2",
"K  c #5E73A5",
"L  c #5E60B1",
"P  c #6276A7",
"I  c #6378A7",
"U  c #6277A8",
"Y  c #6579A9",
"T  c #6B7EAC",
"R  c #6464B6",
"E  c #6766B9",
"W  c #6B69BB",
"Q  c #414EC1",
"!  c #4550C7",
"~  c #4751CA",
"^  c #4852CC",
"/  c #4D55D2",
"(  c #5257D9",
")  c #555ADE",
"_  c #736DC1",
"`  c #7770C3",
"'  c #7A71C6",
"]  c #7E74C8",
"[  c #5A5CE3",
"{  c #5F5FEB",
"}  c #605FEC",
"|  c #6160EE",
" . c #6663F5",
".. c #6864F7",
"X. c #6B66FB",
"o. c #6F68FF",
"O. c #716AFF",
"+. c #8276CB",
"@. c #8578CE",
"#. c #887BCF",
"$. c #8C7CD3",
"%. c #6D80AE",
"&. c #7183AF",
"*. c #7485B0",
"=. c #778AB4",
"-. c #7D8EB6",
";. c #7C8EB8",
":. c #7D90B8",
">. c #808FB7",
",. c #8392B9",
"<. c #8A99BD",
"1. c #8D9DC0",
"2. c #909FC1",
"3. c #9682D9",
"4. c #9B86DD",
"5. c #94A3C4",
"6. c #99A7C6",
"7. c #9EACCA",
"8. c #A5B1CD",
"9. c #A9B4CF",
"0. c #A9B6D0",
"q. c #AFBAD3",
"w. c #B2BCD4",
"e. c #A38AE2",
"r. c #A98EE6",
"t. c #AD91EA",
"y. c #B394EE",
"u. c #B797F0",
"i. c #B897F1",
"p. c #BB9AF3",
"a. c #C09DF7",
"s. c #C39EF9",
"d. c #C6A0FB",
"f. c #CAA3FE",
"g. c #D0A6FF",
"h. c #B7C1D7",
"j. c #BDC6DB",
"k. c #BFC8DC",
"l. c #C3CBDD",
"z. c #C7CFE0",
"x. c #CCD3E3",
"c. c #D3D9E7",
"v. c #D7DCE9",
"b. c #D9DEEA",
"n. c #DDE2EC",
"m. c #E2E6EF",
"M. c #E3E7F0",
"N. c #E6EAF2",
"B. c #E9ECF3",
"V. c #EEF1F6",
"C. c #F1F3F7",
"Z. c #F1F4F8",
"A. c #F7F9FB",
"S. c #FFFFFF",
/* pixels */
"S.S.S.S.S.S.S.S.S.S.S.S.S.S.S.S.S.S.S.S.S.S.S.S.S.S.S.S.S.S.S.S.S.S.S.S.S.S.S.S.S.S.S.A.S.S.S.S.S.S.S.S.S.S.S.S.S.S.S.S.S.S.S.S.",
"S.S.S.S.S.S.S.S.S.S.S.S.S.S.S.S.S.S.S.S.S.S.S.S.S.S.S.S.S.S.S.S.S.S.S.S.S.S.S.S.S.S.S.S.A.l.9.w.b.S.S.A.S.S.S.S.S.S.S.S.S.S.S.S.",
"S.S.S.S.S.S.S.S.S.S.S.S.S.S.S.S.S.S.S.S.S.S.S.S.S.S.S.S.S.S.S.S.S.S.S.S.S.S.S.S.S.S.S.8.e @ . X % J m.S.A.S.S.S.S.S.S.S.S.S.S.S.",
"S.S.S.S.S.S.S.S.S.S.S.S.S.S.S.S.S.S.S.S.S.S.S.S.S.S.S.S.S.S.S.S.S.S.S.S.S.S.S.S.S.S.<.X O 2 v p & . 7 b.S.S.S.S.S.S.S.S.S.S.S.S.",
"S.S.S.S.S.S.S.S.S.S.S.S.S.S.S.S.S.S.S.S.S.S.S.S.S.S.S.S.S.S.S.S.S.S.S.S.S.S.S.S.S.k.@ $ R p.d.d.e.i o t S.S.S.S.S.S.S.S.S.S.S.S.",
"S.S.S.S.S.S.S.S.S.S.S.S.S.S.S.S.S.S.S.S.S.S.S.S.S.S.S.S.S.S.S.S.S.S.S.S.S.S.S.S.S.N . F f.p.p.p.s.y.2 X 9.S.A.S.S.S.S.S.S.S.S.S.",
"S.S.S.S.S.S.S.S.S.S.S.S.S.S.S.S.S.S.S.S.S.S.S.S.S.S.S.S.S.S.S.S.S.S.S.S.S.S.S.S.B.; % e.a.p.a.p.i.f.E . T S.S.S.S.S.S.S.S.S.S.S.",
"S.S.S.S.S.S.S.S.S.S.S.S.S.S.S.S.S.S.S.S.S.S.S.S.S.S.S.S.S.S.S.S.S.S.S.S.S.S.S.S.b.% 1 u.p.p.p.p.i.d.#.X m S.S.S.S.S.S.S.S.S.S.S.",
"S.S.S.S.S.S.S.S.S.S.S.S.S.S.S.S.S.S.S.S.S.S.S.S.S.S.S.S.S.S.S.S.S.S.S.S.S.S.S.S.B.; & t.p.p.p.p.i.s.4.$ w A.S.S.S.S.S.S.S.S.S.S.",
"S.S.S.S.S.S.S.S.S.S.S.S.S.S.S.S.S.S.S.S.S.S.S.S.S.S.S.S.S.S.S.S.S.S.S.S.S.S.S.S.A.r @ 4.s.p.p.p.p.a.y.* - m.S.S.S.S.S.S.S.S.S.S.",
"S.S.S.S.S.S.S.S.S.S.A.S.S.S.S.S.S.S.S.S.S.S.S.S.S.S.S.S.S.S.S.S.S.S.S.S.S.S.S.S.S.N . +.d.p.p.p.p.p.p.8 @ l.S.S.S.S.S.S.S.S.S.S.",
"S.S.S.S.S.S.S.S.S.,.2 b.S.S.S.S.S.S.S.S.S.S.S.S.S.S.S.S.S.S.S.S.S.S.S.S.S.S.S.A.S.%.. W f.p.p.p.p.i.s.v X 8.S.A.S.S.S.S.S.S.S.S.",
"S.S.S.S.S.S.S.A.S.U   *.S.A.S.S.S.S.S.S.S.S.S.S.S.S.S.S.S.S.S.S.S.S.S.S.S.S.S.S.S.1.. S s.i.p.u.p.p.f.D . <.S.S.S.S.S.S.S.S.S.S.",
"S.S.S.S.S.S.S.S.S.l.@ 7 V.S.S.S.S.S.S.S.S.S.S.S.S.S.S.S.S.S.S.S.S.S.S.S.S.S.S.A.S.w.X p g.s.s.f.p.y.s.D . 2.S.A.S.S.S.S.S.S.S.S.",
"S.S.S.S.S.S.S.S.S.S.y . 9.S.S.S.S.A.S.S.S.S.S.S.S.S.S.S.S.S.S.S.S.S.S.S.S.S.S.S.S.j.% ; R $.e.F 8 ; 8 < O q.S.S.S.S.S.S.S.S.S.S.",
"S.S.S.S.S.S.S.S.A.S.6.o r V B :.b.S.S.S.S.S.S.S.S.S.S.S.S.S.S.S.S.S.S.S.S.S.S.S.-.; @ + X % % X @ % @ @ % 7 %.j.A.S.S.S.S.S.S.S.",
"S.S.S.S.S.S.S.S.S.B.N $ O . X . & ,.S.S.S.S.S.S.S.S.S.S.S.S.S.S.S.S.S.S.S.S.S.U o $ i L p $ # 0 ( { ) x 3 @ X @ e <.A.S.S.S.S.S.",
"S.S.S.S.S.S.S.S.A.g o ; D @.] n $ . >.S.S.S.S.S.S.S.S.S.S.S.S.S.S.S.S.S.S.S.*.X & +.s.f.v + j o.o.X.X.o...( l < + X b C.S.S.S.S.",
"S.S.S.S.S.S.A.S.1.. 2 4.f.d.d.f._ % $ x.S.A.S.S.S.S.S.S.S.S.S.S.S.S.S.S.S.,.O % @.f.p.e.% & } X. ... . ...X.o. .^ < . K S.S.S.S.",
"S.S.S.S.S.S.S.S.t X +.g.u.p.p.u.f.S . T S.S.S.S.S.S.S.S.S.S.S.S.S.S.A.S.7.$ @ _ f.u.d.$.+ 6 X. ........... . ...O.) & $ l.S.S.S.",
"S.S.S.S.S.S.S.n.& ; y.p.p.p.p.p.s.3.$ : B.S.S.S.S.S.S.S.S.S.S.S.S.A.S.h.$ @ R f.p.p.s.$.@ 5 X................... .O.l X =.S.A.S.",
"S.S.S.S.S.S.S.v.% < y.a.p.p.p.p.p.a.i . 5.S.A.S.S.S.S.S.S.S.S.S.A.S.x.= O D f.i.p.p.a.r.& % [ o. ..... ......... .o.! X J S.S.S.",
"S.S.S.S.S.S.S.V.7 @ 3.s.p.p.a.p.p.f.' X f S.S.S.S.S.S.S.S.S.S.A.S.n.2 X Z s.p.p.p.p.p.s.Z X 6 X.o.X. . ... ..... .X.Q . U S.S.S.",
"S.S.S.S.S.S.S.S.Y . F f.p.p.p.p.p.p.y.1 O j.S.S.S.S.S.S.S.S.S.S.V.r X p a.p.p.p.p.p.p.s.e.1 @ 4 ! | o.o.X. . . ...X.6 X 6.S.A.S.",
"S.S.S.S.S.S.S.S.j.@ < y.a.p.a.p.p.i.f.F . P S.S.S.S.S.S.S.S.S.S.*.. w u.p.p.p.p.p.p.p.u.f.F $ O O * j /  .X.X.X.o.x @ : B.S.S.S.",
"S.S.S.S.S.S.S.S.S.g X ` s.p.p.p.p.p.s.4.% : x.n.b.b.b.v.v.v.b.z.; $ 3.d.p.p.p.p.p.p.p.f.' % $ Y m @ X O , x ~ A 6 + O 8.S.A.S.S.",
"S.S.S.S.S.S.S.S.S.6.. i a.p.p.p.p.p.p.i.1 $ % % % % % % % % % % $ 8 p.p.p.p.p.p.p.u.f.$.% X ;.S.S.x.;.r O . X X X : 8.S.S.S.S.S.",
"S.S.S.S.S.S.S.S.S.B.: @ 3.s.p.p.p.p.p.y.< % < < < < < < 3 < < , @ u d.p.p.p.p.p.p.d.4.* X T S.S.S.S.S.A.j.;.J P 6.B.S.S.S.S.S.S.",
"S.S.S.S.S.S.S.S.S.S.T . A g.p.i.p.i.f.+.+ 3  ............. .X.[ $ ; u.p.p.d.d.s.s.r.1 X V S.S.S.S.S.A.S.S.S.S.S.S.S.S.S.S.S.S.S.",
"S.S.S.S.S.S.S.S.S.S.c.% % W f.f.f.f.e.: + c o. ............. .X.5 + R f.e.$.] 4.r.8 . g A.S.S.S.S.S.S.S.S.S.A.S.A.S.S.S.S.S.S.S.",
"S.S.S.S.S.S.S.S.S.A.S.<.O % a _ ] F * @ 6  . . ............. .o.^ @ & i & O X $ - @ f B.S.S.S.S.S.S.S.S.S.S.S.S.S.S.S.S.S.S.S.S.",
"S.S.S.S.S.S.S.S.S.S.S.-.$ $ % ; % X $ <  .X. .X............... .o.k $ + & s v 2 $ @ %.S.A.S.S.S.S.S.S.S.S.S.S.S.S.S.S.S.S.S.S.S.",
"S.S.S.S.S.S.S.S.S.S.>.X % E y.p.t.W & @ c o........... ......... .4 + a r.s.s.p.E % O *.S.S.S.S.S.S.S.S.S.S.S.S.S.S.S.S.S.S.S.S.",
"S.S.S.S.S.S.S.S.S.6.O $ ' g.p.p.p.g.] @ * } .. . . . . . . . .O.Q + 8 p.s.p.p.p.f.' $ X &.S.S.S.S.S.S.S.S.S.S.S.S.S.S.S.S.S.S.S.",
"S.S.S.S.S.S.A.S.q.$ @ W f.u.p.p.p.p.d.p X ^ O.X.o.o.o.X.o.o.X.O.j + W f.p.p.p.p.p.f.] % X T S.S.S.S.S.S.S.S.S.S.S.S.S.S.S.S.S.S.",
"S.S.S.S.S.A.S.l.& O L d.p.p.p.s.p.p.d.F + l [ ) ) ) ) ) ) ) ) ) 3 @ $.f.p.p.p.p.p.u.d.+.% O T S.S.S.S.S.S.S.S.S.S.S.S.S.S.S.S.S.",
"S.S.S.S.S.S.c.; X S d.p.p.p.p.p.p.p.f.A @ $ @ @ O @ @ @ @ @ @ O $ @ ' f.u.p.p.p.s.p.i.f.@.% X Y S.S.S.S.S.S.S.S.S.S.S.S.S.S.S.S.",
"S.S.S.S.S.M.7 X d s.p.p.p.p.p.p.p.p.t.1 $ t t t r t t t t r r g t O i s.p.p.p.p.p.p.p.p.f.$.& o P S.S.S.S.S.S.S.S.S.S.S.S.S.S.S.",
"S.S.S.S.C.t X u p.p.p.p.p.p.p.p.p.d.Z X g S.S.A.A.S.A.S.S.A.A.S.N.1 O D d.p.p.p.p.p.p.p.u.f.$.& . =.S.S.S.S.S.S.S.S.S.S.S.S.S.S.",
"S.S.S.S.K . 8 t.s.p.p.p.p.p.p.p.f.F O * x.S.S.S.S.S.S.S.S.S.S.S.S.w.$ @ D d.p.p.p.p.p.p.p.i.f.$.$ $ x.S.S.S.S.S.S.S.S.S.S.S.S.S.",
"S.S.S.x.$ & 4.d.p.p.p.p.p.p.u.f.W + $ w.S.S.S.S.S.S.S.S.S.S.S.S.S.S.0.$ O S d.p.p.p.p.p.p.p.i.f.A . ,.S.S.S.S.S.S.S.S.S.S.S.S.S.",
"S.A.S.2.. Z f.p.p.p.p.a.p.i.f.] $ @ 6.S.A.S.S.S.S.S.S.S.S.S.S.S.S.A.S.q.% + A s.p.p.p.p.p.p.p.d._ . K S.S.S.S.S.S.S.S.S.S.S.S.S.",
"S.S.S.;.. R d.i.p.p.p.p.i.f.$.% O ,.S.A.S.S.S.S.S.S.S.S.S.S.S.S.S.S.S.S.w.& O A s.p.p.p.p.p.i.d._ . K S.A.S.S.S.S.S.S.S.S.S.S.S.",
"S.A.S.1.. A f.u.p.a.p.i.d.4.; . T S.S.S.S.S.S.S.S.S.S.S.S.S.S.S.S.S.S.A.S.j.& X Z s.p.p.p.p.i.f.d . <.S.S.S.S.S.S.S.S.S.S.S.S.S.",
"S.A.S.l.O ; t.d.i.i.i.s.r.2 . J S.S.S.S.S.S.S.S.S.S.S.S.S.S.S.S.S.S.S.S.A.S.k.* O n p.f.s.s.f._ @ & b.S.S.S.S.S.S.S.S.S.S.S.S.S.",
"S.S.S.S.m . u t.f.s.f.e.8 X h A.S.S.S.S.S.S.S.S.S.S.S.S.S.S.S.S.S.S.S.S.S.S.S.l.; X e +.e.$.S $ X 1.S.S.S.S.S.S.S.S.S.S.S.S.S.S.",
"S.S.S.S.n.7 X ; S R A * o r B.S.S.S.S.S.S.S.S.S.S.S.S.S.S.S.S.S.S.S.S.S.S.S.A.S.x.w . X O X . $ ,.S.S.S.S.S.S.S.S.S.S.S.S.S.S.S.",
"S.S.S.S.S.n.M $ . . . $ H B.S.A.S.S.S.S.S.S.S.S.S.S.S.S.S.S.S.S.S.S.S.S.S.S.S.S.S.V.<.m r f T z.S.S.S.S.S.S.S.S.S.S.S.S.S.S.S.S.",
"S.S.S.S.S.S.S.l.<.;.2.x.S.S.A.S.S.S.S.S.S.S.S.S.S.S.S.S.S.S.S.S.S.S.S.S.S.S.S.S.A.S.S.S.A.A.S.S.S.S.S.S.S.S.S.S.S.S.S.S.S.S.S.S.",
"S.S.S.S.S.S.S.S.S.S.S.S.S.S.S.S.S.S.S.S.S.S.S.S.S.S.S.S.S.S.S.S.S.S.S.S.S.S.S.S.S.S.S.S.S.S.S.S.S.S.S.S.S.S.S.S.S.S.S.S.S.S.S.S.",
"S.S.S.S.S.S.S.S.S.A.S.S.S.S.S.S.S.S.S.S.S.S.S.S.S.S.S.S.S.S.S.S.S.S.S.S.S.S.S.S.S.S.S.S.S.S.S.S.S.S.S.S.S.S.S.S.S.S.S.S.S.S.S.S.",
"S.S.S.S.S.S.S.S.S.S.S.S.S.S.S.S.S.S.S.S.S.S.S.S.S.S.S.S.S.S.S.S.S.S.S.S.S.S.S.S.S.S.S.S.S.S.S.S.S.S.S.S.S.S.S.S.S.S.S.S.S.S.S.S.",
"S.S.S.S.S.S.S.S.S.S.S.S.S.S.S.S.S.S.S.S.S.S.S.S.S.S.S.S.S.S.S.S.S.S.S.S.S.S.S.S.S.S.S.S.S.S.S.S.S.S.S.S.S.S.S.S.S.S.S.S.S.S.S.S.",
"S.S.S.S.S.S.S.S.S.S.S.S.S.S.S.S.S.S.S.S.S.S.S.S.S.S.S.S.S.S.S.S.S.S.S.S.S.S.S.S.S.S.S.S.S.S.S.S.S.S.S.S.S.S.S.S.S.S.S.S.S.S.S.S.",
"S.S.S.S.S.S.S.S.S.S.S.S.S.S.S.S.S.S.S.S.S.S.S.S.S.S.S.S.S.S.S.S.S.S.S.S.S.S.S.S.S.S.S.S.S.S.S.S.S.S.S.S.S.S.S.S.S.S.S.S.S.S.S.S.",
"S.S.S.S.S.S.S.S.S.S.S.S.S.S.S.S.S.S.S.S.S.S.S.S.S.S.S.S.S.S.S.S.S.S.S.S.S.S.S.S.S.S.S.S.S.S.S.S.S.S.S.S.S.S.S.S.S.S.S.S.S.S.S.S.",
"S.S.S.S.S.S.S.S.S.S.S.S.S.S.S.S.S.S.S.S.S.S.S.S.S.S.S.S.S.S.S.S.S.S.S.S.S.S.S.S.S.S.S.S.S.S.S.S.S.S.S.S.S.S.S.S.S.S.S.S.S.S.S.S.",
"S.S.S.S.S.S.S.S.S.S.S.S.S.S.S.S.S.S.S.S.S.S.S.S.S.S.S.S.S.S.S.S.S.S.S.S.S.S.S.S.S.S.S.S.S.S.S.S.S.S.S.S.S.S.S.S.S.S.S.S.S.S.S.S.",
"S.S.S.S.S.S.S.S.S.S.S.S.S.S.S.S.S.S.S.S.S.S.S.S.S.S.S.S.S.S.S.S.S.S.S.S.S.S.S.S.S.S.S.S.S.S.S.S.S.S.S.S.S.S.S.S.S.S.S.S.S.S.S.S.",
"S.S.S.S.S.S.S.S.S.S.S.S.S.S.S.S.S.S.S.S.S.S.S.S.S.S.S.S.S.S.S.S.S.S.S.S.S.S.S.S.S.S.S.S.S.S.S.S.S.S.S.S.S.S.S.S.S.S.S.S.S.S.S.S.",
"S.S.S.S.S.S.S.S.S.S.S.S.S.S.S.S.S.S.S.S.S.S.S.S.S.S.S.S.S.S.S.S.S.S.S.S.S.S.S.S.S.S.S.S.S.S.S.S.S.S.S.S.S.S.S.S.S.S.S.S.S.S.S.S.",
"S.S.S.S.S.S.S.S.S.S.S.S.S.S.S.S.S.S.S.S.S.S.S.S.S.S.S.S.S.S.S.S.S.S.S.S.S.S.S.S.S.S.S.S.S.S.S.S.S.S.S.S.S.S.S.S.S.S.S.S.S.S.S.S.",
"S.S.S.S.S.S.S.S.S.S.S.S.S.S.S.S.S.S.S.S.S.S.S.S.S.S.S.S.S.S.S.S.S.S.S.S.S.S.S.S.S.S.S.S.S.S.S.S.S.S.S.S.S.S.S.S.S.S.S.S.S.S.S.S.",
"S.S.S.S.S.S.S.S.S.S.S.S.S.S.S.S.S.S.S.S.S.S.S.S.S.S.S.S.S.S.S.S.S.S.S.S.S.S.S.S.S.S.S.S.S.S.S.S.S.S.S.S.S.S.S.S.S.S.S.S.S.S.S.S."
};
