/* XPM */
static char *player__39_1710156995[] = {
/* columns rows colors chars-per-pixel */
"64 64 151 2 ",
"   c #001564",
".  c #001A66",
"X  c #001768",
"o  c #001C6A",
"O  c #002166",
"+  c #00236D",
"@  c #01286F",
"#  c #012571",
"$  c #042974",
"%  c #0A2C77",
"&  c #062A78",
"*  c #0B2E7A",
"=  c #112F79",
"-  c #0F317A",
";  c #12327C",
":  c #18377E",
">  c #16387E",
",  c #1A397F",
"<  c #143382",
"1  c #193682",
"2  c #1C3983",
"3  c #17358B",
"4  c #19368D",
"5  c #1D3990",
"6  c #213A86",
"7  c #253E8B",
"8  c #2B3D8B",
"9  c #213B97",
"0  c #253D9C",
"q  c #263EA0",
"w  c #254285",
"e  c #294487",
"r  c #27408C",
"t  c #29428D",
"y  c #2D498A",
"u  c #324E8D",
"i  c #36518F",
"p  c #2F4490",
"a  c #324693",
"s  c #354895",
"d  c #384A97",
"f  c #3C4B9A",
"g  c #375390",
"h  c #3A5491",
"j  c #2F43AA",
"k  c #3245AD",
"l  c #3547B1",
"z  c #3648B2",
"x  c #3848B7",
"c  c #3C4BBB",
"v  c #424E9E",
"b  c #425C96",
"n  c #42509E",
"m  c #465E98",
"M  c #4C649C",
"N  c #51679E",
"B  c #546A9F",
"V  c #434FA0",
"C  c #4551A1",
"Z  c #4D56A5",
"A  c #555BAB",
"S  c #5A5DAE",
"D  c #404DBF",
"F  c #5C5EB0",
"G  c #566DA1",
"H  c #596FA2",
"J  c #5C71A4",
"K  c #5E61B2",
"L  c #667AAA",
"P  c #687BAB",
"I  c #6263B6",
"U  c #6766B8",
"Y  c #6867B9",
"T  c #6C69BB",
"R  c #716CBF",
"E  c #414DC4",
"W  c #4951CE",
"Q  c #4D54D3",
"!  c #5357DB",
"~  c #5559DE",
"^  c #756EC2",
"/  c #7A72C6",
"(  c #7E74C9",
")  c #575AE0",
"_  c #5F5FEB",
"`  c #6663F5",
"'  c #6864F7",
"]  c #6C66FC",
"[  c #6F68FF",
"{  c #746BFF",
"}  c #8579CD",
"|  c #8C7DD2",
" . c #917FD6",
".. c #6D81AE",
"X. c #7083AF",
"o. c #7286B2",
"O. c #7789B4",
"+. c #7C8CB5",
"@. c #7F90B9",
"#. c #8190B7",
"$. c #8495BC",
"%. c #8897BC",
"&. c #8798BD",
"*. c #899ABE",
"=. c #8E9EC2",
"-. c #9381D7",
";. c #9582D9",
":. c #9A85DC",
">. c #9E88DF",
",. c #93A2C4",
"<. c #99A7C7",
"1. c #9BA9C7",
"2. c #9CAAC8",
"3. c #A5B1CD",
"4. c #A8B4CF",
"5. c #ABB6D1",
"6. c #AEB9D2",
"7. c #B3BDD5",
"8. c #9F88E0",
"9. c #A48BE3",
"0. c #A98EE7",
"q. c #AC91E9",
"w. c #B394EE",
"e. c #B797F1",
"r. c #B897F1",
"t. c #BB9AF3",
"y. c #C09DF7",
"u. c #C39EF9",
"i. c #C6A0FB",
"p. c #CAA3FE",
"a. c #D3A8FF",
"s. c #B6C1D6",
"d. c #BBC4D9",
"f. c #BFC9DC",
"g. c #C2CADD",
"h. c #C7CFE0",
"j. c #CCD3E2",
"k. c #D1D7E5",
"l. c #D3D9E7",
"z. c #D6DCE8",
"x. c #D9DEEA",
"c. c #DDE2EC",
"v. c #E1E5EE",
"b. c #E4E7F0",
"n. c #E6E9F1",
"m. c #EAEDF3",
"M. c #EEF1F6",
"N. c #F1F3F7",
"B. c #F4F6F9",
"V. c #F7F8FA",
"C. c #FFFFFF",
/* pixels */
"C.C.C.C.C.C.C.C.C.C.C.C.C.C.C.C.C.C.C.C.C.C.C.C.C.C.C.C.C.C.C.C.C.C.C.C.C.C.C.C.C.C.C.C.C.C.C.C.C.C.C.C.C.C.C.C.C.C.C.C.C.C.C.C.",
"C.C.C.C.C.C.C.C.C.C.C.C.C.C.C.C.C.C.C.C.C.C.C.C.C.C.C.C.C.C.C.C.C.C.C.C.C.C.C.C.C.C.C.C.C.C.C.C.C.C.C.C.C.C.C.C.C.C.C.C.C.C.C.C.",
"C.C.C.C.C.C.C.C.C.C.C.C.C.C.C.C.C.C.C.C.C.C.C.C.C.C.C.C.C.C.C.C.C.C.C.C.C.C.C.C.C.C.C.C.C.C.C.C.C.C.C.C.C.C.C.C.C.C.C.C.C.C.C.C.",
"C.C.C.C.C.C.C.C.C.C.C.C.C.C.C.C.C.C.C.C.C.C.C.C.C.C.C.C.C.C.C.C.C.C.C.C.C.C.C.C.C.C.C.C.C.C.C.C.C.C.C.C.C.C.C.C.C.C.C.C.C.C.C.C.",
"C.C.C.C.C.C.C.C.C.C.C.C.C.C.C.C.C.C.C.C.C.C.C.C.C.C.C.C.C.C.C.C.C.C.C.C.C.C.C.C.C.C.C.C.C.C.C.C.C.C.C.C.C.C.C.C.C.C.C.C.C.C.C.C.",
"C.C.C.C.C.C.C.C.C.C.C.C.C.C.C.C.C.C.C.C.C.C.C.C.C.C.C.C.C.C.C.C.C.C.C.C.C.C.C.V.C.C.C.C.C.C.C.C.C.C.C.C.C.C.C.C.C.C.C.C.C.C.C.C.",
"C.C.C.C.C.C.C.C.C.C.C.C.C.C.C.C.C.C.C.C.C.C.C.C.C.C.C.C.C.C.C.C.C.C.C.k.7.f.n.C.C.C.C.C.C.C.C.C.C.C.C.C.C.C.C.C.C.C.C.C.C.C.C.C.",
"C.C.C.C.C.C.C.C.C.C.C.C.C.C.C.C.C.C.C.C.C.C.C.C.C.C.C.C.C.C.C.C.C.7.i $ o o ; L n.C.C.C.C.C.C.C.C.C.C.C.C.C.C.C.C.C.C.C.C.C.C.C.",
"C.C.C.C.C.C.C.C.C.C.C.C.C.C.C.C.C.C.C.C.C.C.C.C.C.C.C.C.C.C.C.C.,.+ o ; a t #   w c.C.C.C.C.C.C.C.C.C.C.C.C.C.C.C.C.C.C.C.C.C.C.",
"C.C.C.C.C.C.C.C.C.C.C.C.C.C.C.C.C.C.C.C.C.C.C.C.C.C.C.C.C.C.C.g.o # F w.u.t.:.t o 6 c.C.V.C.C.C.C.C.C.C.C.C.C.C.C.C.C.C.C.C.C.C.",
"C.C.C.C.C.C.C.C.C.C.C.C.C.C.C.C.C.C.C.C.C.C.C.C.C.C.C.C.C.C.C.M X S p.t.t.t.p.r.t o w v.C.C.C.C.C.C.C.C.C.C.C.C.C.C.C.C.C.C.C.C.",
"C.C.C.C.C.C.C.C.C.C.C.C.C.C.C.C.C.C.C.C.C.C.C.C.C.C.C.C.C.C.m.> $ 9.u.t.t.t.r.u.w.8 . e c.C.C.C.C.C.C.C.C.C.C.C.C.C.C.C.C.C.C.C.",
"C.C.C.C.C.C.C.C.C.C.C.C.C.C.C.C.C.C.C.C.C.C.C.C.C.C.C.C.C.C.z.$ ; w.t.t.t.t.t.t.u.w.7 . y n.C.C.C.C.C.C.C.C.C.C.C.C.C.C.C.C.C.C.",
"C.C.C.C.C.C.C.C.C.C.C.C.C.C.C.C.C.C.C.C.C.C.C.C.C.C.C.C.C.C.n.- % q.y.t.t.t.t.t.t.u.w.7 X H C.C.C.C.C.V.C.C.C.C.C.C.C.C.C.C.C.C.",
"C.C.C.C.C.C.C.C.C.C.C.C.C.C.C.C.C.C.C.C.C.C.C.C.C.C.C.C.C.C.C.h o T p.e.t.t.t.t.t.t.u.9.= # l.C.C.C.C.C.C.C.C.C.C.C.C.C.C.C.C.C.",
"C.C.C.C.C.C.C.C.C.C.C.C.C.C.C.C.C.C.C.C.C.C.C.C.C.C.C.C.C.C.C.3.X % | p.t.t.t.t.t.r.u.i.f o L 7.4.4.5.6.g.B.C.C.C.C.C.C.C.C.C.C.",
"C.C.C.C.C.C.C.C.C.C.C.C.C.C.C.C.C.C.C.C.C.C.C.C.C.C.C.C.C.C.C.C.P X * | p.t.r.t.t.p.| 7 $ + + . . . . . # w <.C.C.C.C.C.C.C.C.C.",
"C.C.C.C.C.C.C.C.C.C.C.C.C.C.C.C.C.C.C.C.C.C.C.C.C.C.C.C.C.C.C.C.C.J . *  .p.i.t.e./ # + - 9 0 0 0 0 0 9 < + X o.C.C.C.C.C.C.C.C.",
"C.C.C.C.C.C.C.C.C.C.C.C.C.C.C.C.C.C.C.C.C.C.C.C.C.C.C.C.C.C.C.C.C.C.H X * ( S 2 ; $ + j ` ] ] ] ] ] ] ] ` c % X <.C.C.C.C.C.C.C.",
"C.C.C.C.C.C.C.C.C.C.C.C.C.C.C.C.C.C.C.C.C.C.C.C.C.C.C.C.C.C.C.C.C.C.C.J + # . + & + q { ' ' ` ` ' ' ` ` ' { D + e V.C.C.C.C.C.C.",
"C.C.C.C.n.v.C.C.C.C.C.C.C.C.C.C.C.C.C.C.C.C.C.C.C.C.C.C.C.C.C.C.C.V.C.7.+ # C  .2 # ~ ] ` ' ' ' ' ' ' ' ` ' ' < + g.C.C.C.C.C.C.",
"C.C.C.C.u ; l.C.C.C.V.C.V.C.C.C.C.C.C.C.C.C.C.C.C.C.C.C.C.C.C.C.C.C.C.i o S p.t.- & _ ] ' ' ' ' ' ' ' ' ' ' ] 5 o 6.C.C.C.C.C.C.",
"C.C.C.C.G   w v.C.C.C.C.C.C.C.C.C.C.C.C.C.C.C.C.C.C.C.C.C.C.C.C.C.C.s.o 1 r.t.w.1 + ) ] ` ' ' ' ' ' ' ' ' ` ' 3 + f.C.C.C.C.C.C.",
"C.C.C.C.N.h   h n.6...J o.4.V.C.C.C.C.C.C.C.C.C.C.C.C.C.C.C.C.C.C.C.H   K p.r.i.C O j { ' ` ` ` ` ` ` ` ` { Q + 1 m.C.C.C.C.C.C.",
"C.C.C.C.C.v.w # 1 o   X   . y j.C.C.C.C.C.C.C.C.C.C.C.C.C.C.C.C.C.z.% $ 9.u.r.u. .+ $ x ] [ { { [ ] { [ ] ! < X +.C.C.C.C.C.C.C.",
"C.C.C.C.C.C.6.o + 1 I / Y 6 o = j.C.V.C.C.C.C.C.C.C.C.C.C.C.C.C.C.+.  V u.t.t.r.p.T + + 3 j k k z z z z 0 $   b V.C.C.C.C.C.C.C.",
"C.C.C.C.C.C.M o s w.p.p.p.t.f . , x.C.C.C.C.C.C.C.C.C.C.C.C.C.C.B.w o | u.t.t.y.t.u.( 1 + +             . $ L B.C.C.C.C.C.C.C.C.",
"C.C.C.C.C.h.+ = q.i.w.e.t.y.y.a . e n.C.C.C.C.C.C.C.C.C.C.C.C.C.4.X w t.t.t.t.t.t.r.a.I . b ,.$.$.$.#.#.,.l.C.C.C.C.C.C.C.C.C.C.",
"C.C.C.C.C.<.  n p.e.t.t.t.t.y.w.7 . g B.C.C.C.C.C.C.C.C.C.C.C.C.m X R p.t.t.t.y.t.t.w.; o f.C.C.C.C.C.C.C.C.C.C.C.C.C.C.C.C.C.C.",
"C.C.C.V.C.=.  A i.t.y.t.t.t.t.u.q.2 X M C.C.V.C.C.C.C.V.V.V.C.h.+ = q.y.t.t.t.t.t.i./ . h C.V.C.C.V.C.C.C.C.C.C.C.C.C.C.C.C.C.C.",
"C.C.C.C.C.4.X a i.e.t.t.t.t.y.t.u.9.;   o.C.C.C.C.C.C.C.C.C.C.o.  A p.t.t.t.t.t.t.y.a X ,.C.V.C.C.C.C.C.C.C.C.C.C.C.C.C.C.C.C.C.",
"C.C.C.C.C.n.; + ( p.e.t.t.t.t.t.r.p.| # % *.=.=.=.=.=.=.=.=.=.w o | u.t.t.t.t.t.i.-.+ , m.C.C.C.C.C.C.C.C.C.C.C.C.C.C.C.C.C.C.C.",
"C.C.C.C.C.C.%.. *  .i.r.t.t.t.t.t.r.p.d + +       .           $ $ >.u.t.t.t.t.t.i.Z   X.C.C.C.C.C.C.C.C.C.C.C.C.C.C.C.C.C.C.C.C.",
"C.C.C.C.C.C.C.B X : 9.u.t.t.t.t.t.e.p.I O 5 k k j k j k j k k < + } i.r.t.t.t.t.q.* # j.C.C.C.C.C.C.C.C.C.C.C.C.C.C.C.C.C.C.C.C.",
"C.C.C.C.C.C.C.C.m o 2 w.u.t.t.t.t.r.p.A . c { ] { [ [ [ { ] { x . a i.y.t.t.t.a.F X m C.C.C.C.C.C.C.C.C.C.C.C.C.C.C.C.C.C.C.C.C.",
"C.C.C.C.C.C.C.C.N.u X t r.u.r.t.t.y.e.2 + Q ] ` ` ` ` ` ` ` ' _ % + C w.u.i.t.I # o s.C.V.C.C.C.C.C.C.C.C.C.C.C.C.C.C.C.C.C.C.C.",
"C.C.C.C.C.C.C.C.C.v.w X a e.p.u.p.y.V + 2 ' ' ' ` ' ' ' ' ' ` ] Q $ + ; v Z 2 + # #.C.C.C.C.C.C.C.C.C.C.C.C.C.C.C.C.C.C.C.C.C.C.",
"C.C.C.C.C.C.C.C.C.C.z.6 + 2 I ^ S 6 + % ~ [ ' ' ' ' ' ' ' ' ' ` { E $ $ . . $ # L C.C.C.C.C.C.C.C.C.C.C.C.C.C.C.C.C.C.C.C.C.C.C.",
"C.C.C.C.C.C.C.C.C.V.C.3.# + + 8 8 - + $ E [ ` ` ' ' ' ' ' ' ` [ ! < + % a d < + $ =.C.C.C.C.C.C.C.C.C.C.C.C.C.C.C.C.C.C.C.C.C.C.",
"C.C.C.C.C.C.C.C.C.C.M.y o f 0.u.i.e.K + @ ! ] ` ` ` ` ` ` ` ' ` < O s 9.u.i.w.S + + f.C.C.C.C.C.C.C.C.C.C.C.C.C.C.C.C.C.C.C.C.C.",
"C.C.C.C.C.C.C.C.C.C.*.X t y.u.t.r.t.p.A O 0 { [ [ [ [ [ [ [ { E o 7 t.u.t.t.t.a.A   N C.C.C.C.C.C.C.C.C.C.C.C.C.C.C.C.C.C.C.C.C.",
"C.C.C.C.C.C.C.C.C.C.i . ( p.t.t.t.t.t.9.$ * c c c c c c c c c 2 + ^ p.r.t.t.t.y.0.$ % x.C.C.C.C.C.C.C.C.C.C.C.C.C.C.C.C.C.C.C.C.",
"C.C.C.C.C.C.C.C.C.f.o 1 w.t.t.t.t.t.t.e.< @               .   @ $  .u.t.t.t.t.t.i.n   #.C.C.C.C.C.C.C.C.C.C.C.C.C.C.C.C.C.C.C.C.",
"C.C.C.C.C.C.C.C.C.L   S i.r.t.t.t.t.u.0.% % ..O.X.o.o.X.o.X.O.e o ( i.t.t.t.t.t.i.} o y V.C.C.C.C.C.C.C.C.C.C.C.C.C.C.C.C.C.C.C.",
"C.C.C.C.C.C.C.C.n.: + ;.i.t.t.t.t.t.p.^ . m C.C.C.C.C.C.C.C.C.$.  n i.e.t.t.t.t.t.t.2 o s.C.V.C.C.C.C.C.C.C.C.C.C.C.C.C.C.C.C.C.",
"C.C.C.C.C.C.C.C.<.X a u.t.t.t.t.t.t.t.a X 1.C.V.C.C.V.C.V.C.C.k.% % 0.y.t.t.t.y.t.p.K   J C.C.C.C.C.C.C.C.C.C.C.C.C.C.C.C.C.C.C.",
"C.C.C.C.C.C.C.C.b X ^ p.t.t.t.t.t.u.;.# , n.C.C.C.C.C.C.C.C.C.C.M X T p.t.t.t.t.t.y.>.$ ; v.C.C.C.C.C.C.C.C.C.C.C.C.C.C.C.C.C.C.",
"C.C.C.C.C.C.C.g.# ; q.t.t.t.t.t.t.p.A   P C.C.C.C.C.C.C.C.C.C.C.4.X 8 t.t.t.t.t.t.t.i.s X *.C.C.C.C.C.C.C.C.C.C.C.C.C.C.C.C.C.C.",
"C.C.C.C.C.V.C.o.  Z p.t.t.t.t.t.t.w.: o g.C.C.C.C.C.C.C.C.C.C.C.N.6 +  .u.t.t.t.t.r.p.( o h C.C.C.C.C.C.C.C.C.C.C.C.C.C.C.C.C.C.",
"C.C.C.C.C.C.B.w o  .i.t.t.t.t.t.p.( . h C.C.C.C.C.C.C.C.C.C.C.C.C.o.  Z p.t.t.t.t.r.y.w.: + g.C.C.C.C.C.C.C.C.C.C.C.C.C.C.C.C.C.",
"C.C.C.C.C.C.l.$ 1 e.t.t.t.t.t.t.u.d X =.C.C.C.C.C.C.C.C.C.C.C.C.C.j.+ ; q.t.t.t.t.t.t.u.C   <.C.C.C.C.C.C.C.C.C.C.C.C.C.C.C.C.C.",
"C.C.C.C.C.C.j.+ 2 t.t.t.t.t.t.u.8.# ; v.C.C.C.C.C.C.C.C.C.C.C.C.C.C.b X ^ p.t.t.t.y.t.u.Z   ,.C.C.C.C.C.C.C.C.C.C.C.C.C.C.C.C.C.",
"C.C.C.C.C.C.m.; # 9.u.r.t.t.e.p.K   J C.C.C.C.C.C.C.C.C.C.C.C.C.C.C.<.  p u.t.t.t.r.t.t.7 o 7.C.V.C.C.C.C.C.C.C.C.C.C.C.C.C.C.C.",
"C.C.C.C.C.C.C.J X v u.u.t.u.p.:.- o s.C.C.C.C.C.C.C.C.C.C.C.C.C.C.C.m., + ^ p.u.y.u.a.Y o w B.C.C.C.C.C.C.C.C.C.C.C.C.C.C.C.C.C.",
"C.C.C.C.C.C.C.l.* . d ;.w.0./ ; X N C.C.C.C.C.C.C.C.C.C.C.C.C.C.C.C.C.,.X & F 9.q.9.A # o 2.C.C.C.C.C.C.C.C.C.C.C.C.C.C.C.C.C.C.",
"C.C.C.C.C.C.C.C.s.; X + = * . o b M.C.C.C.C.C.C.C.C.C.C.C.C.C.C.C.C.C.C.+.o X # = #   # #.C.C.C.C.C.C.C.C.C.C.C.C.C.C.C.C.C.C.C.",
"C.C.C.C.C.C.C.C.C.c.X.e - - h 1.C.C.C.C.C.C.C.C.C.C.C.C.C.C.C.C.C.C.C.C.C.s.N , % 2 B f.C.C.C.C.C.C.C.C.C.C.C.C.C.C.C.C.C.C.C.C.",
"C.C.C.C.C.C.C.C.C.C.C.V.b.n.C.C.C.C.C.C.C.C.C.C.C.C.C.C.C.C.C.C.C.C.C.C.C.C.C.M.c.M.C.C.C.C.C.C.C.C.C.C.C.C.C.C.C.C.C.C.C.C.C.C.",
"C.C.C.C.C.C.C.C.C.C.V.C.C.C.C.C.C.C.C.C.C.C.C.C.C.C.C.C.C.C.C.C.C.C.C.C.C.C.C.C.C.C.C.C.C.C.C.C.C.C.C.C.C.C.C.C.C.C.C.C.C.C.C.C.",
"C.C.C.C.C.C.C.C.C.C.C.C.C.C.C.C.C.C.C.C.C.C.C.C.C.C.C.C.C.C.C.C.C.C.C.C.C.C.C.C.C.C.C.C.C.C.C.C.C.C.C.C.C.C.C.C.C.C.C.C.C.C.C.C.",
"C.C.C.C.C.C.C.C.C.C.C.C.C.C.C.C.C.C.C.C.C.C.C.C.C.C.C.C.C.C.C.C.C.C.C.C.C.C.C.C.C.C.C.C.C.C.C.C.C.C.C.C.C.C.C.C.C.C.C.C.C.C.C.C.",
"C.C.C.C.C.C.C.C.C.C.C.C.C.C.C.C.C.C.C.C.C.C.C.C.C.C.C.C.C.C.C.C.C.C.C.C.C.C.C.C.C.C.C.C.C.C.C.C.C.C.C.C.C.C.C.C.C.C.C.C.C.C.C.C.",
"C.C.C.C.C.C.C.C.C.C.C.C.C.C.C.C.C.C.C.C.C.C.C.C.C.C.C.C.C.C.C.C.C.C.C.C.C.C.C.C.C.C.C.C.C.C.C.C.C.C.C.C.C.C.C.C.C.C.C.C.C.C.C.C.",
"C.C.C.C.C.C.C.C.C.C.C.C.C.C.C.C.C.C.C.C.C.C.C.C.C.C.C.C.C.C.C.C.C.C.C.C.C.C.C.C.C.C.C.C.C.C.C.C.C.C.C.C.C.C.C.C.C.C.C.C.C.C.C.C."
};
