/* XPM */
static char *player__42_1710156996[] = {
/* columns rows colors chars-per-pixel */
"64 64 155 2 ",
"   c #001564",
".  c #001A66",
"X  c #001768",
"o  c #001C69",
"O  c #002166",
"+  c #00236D",
"@  c #01286F",
"#  c #012671",
"$  c #052974",
"%  c #092D76",
"&  c #072B79",
"*  c #0C2D7B",
"=  c #0E307A",
"-  c #12327C",
";  c #19397F",
":  c #0F3082",
">  c #163480",
",  c #1A3683",
"<  c #1D3A83",
"1  c #143389",
"2  c #19358D",
"3  c #1C3792",
"4  c #1E3994",
"5  c #213B86",
"6  c #243D89",
"7  c #2A3F8D",
"8  c #203B96",
"9  c #243D9B",
"0  c #263DA0",
"q  c #2A3FA3",
"w  c #254285",
"e  c #27408C",
"r  c #2A428C",
"t  c #2E4A8B",
"y  c #314C8C",
"u  c #36518F",
"i  c #2E4391",
"p  c #324593",
"a  c #374996",
"s  c #394997",
"d  c #3B4C99",
"f  c #375290",
"g  c #3C5692",
"h  c #3F5994",
"j  c #2E42AB",
"k  c #3244AE",
"l  c #3446B1",
"z  c #3748B4",
"x  c #3949B6",
"c  c #3C4ABB",
"v  c #414E9E",
"b  c #435C96",
"n  c #43509E",
"m  c #465F99",
"M  c #4E659C",
"N  c #4F699E",
"B  c #51679E",
"V  c #52699F",
"C  c #444FA0",
"Z  c #4652A1",
"A  c #4C56A5",
"S  c #4F58A7",
"D  c #545AAB",
"F  c #595DAE",
"G  c #5B5EB0",
"H  c #566CA0",
"J  c #596DA2",
"K  c #5D72A4",
"L  c #5E61B2",
"P  c #6276A6",
"I  c #6277A8",
"U  c #647AA9",
"Y  c #6A7DAC",
"T  c #6364B5",
"R  c #6666B8",
"E  c #6867B9",
"W  c #6D6ABD",
"Q  c #706CBF",
"!  c #3F4CC0",
"~  c #424EC4",
"^  c #454FC8",
"/  c #4752CA",
"(  c #4953CE",
")  c #756FC2",
"_  c #7770C3",
"`  c #7A71C6",
"'  c #7E74C8",
"]  c #5B5CE5",
"[  c #605FEC",
"{  c #6060ED",
"}  c #6663F5",
"|  c #6864F7",
" . c #6C66FC",
".. c #6F68FF",
"X. c #736AFF",
"o. c #8276CB",
"O. c #8478CD",
"+. c #8B7CD2",
"@. c #917ED5",
"#. c #7385B1",
"$. c #7788B3",
"%. c #7B8DB6",
"&. c #7F90B7",
"*. c #8394BB",
"=. c #8897BC",
"-. c #8799BE",
";. c #8B9ABE",
":. c #8D9DC1",
">. c #909FC1",
",. c #9281D7",
"<. c #9582D9",
"1. c #9C86DD",
"2. c #9D88DE",
"3. c #95A3C4",
"4. c #98A6C6",
"5. c #9BA8C7",
"6. c #9DABC9",
"7. c #A1AECB",
"8. c #A6B2CD",
"9. c #A8B3CF",
"0. c #ABB6D1",
"q. c #AEB9D2",
"w. c #B3BDD5",
"e. c #9F88E0",
"r. c #A58CE4",
"t. c #A88EE6",
"y. c #AA8FE8",
"u. c #AD91EA",
"i. c #B294ED",
"p. c #B696F0",
"a. c #B897F1",
"s. c #BB9AF4",
"d. c #C09DF7",
"f. c #C39EF9",
"g. c #C6A0FB",
"h. c #C9A2FD",
"j. c #D0A6FF",
"k. c #D2A8FF",
"l. c #B7C1D7",
"z. c #BAC3D8",
"x. c #C2CADD",
"c. c #C8CFE0",
"v. c #CAD1E2",
"b. c #D2D8E6",
"n. c #D6DBE8",
"m. c #D9DEEA",
"M. c #DEE2ED",
"N. c #E1E5EE",
"B. c #E5E9F1",
"V. c #EAEEF4",
"C. c #EFF2F7",
"Z. c #F1F3F7",
"A. c #F3F5F9",
"S. c #F7F8FB",
"D. c #FFFFFF",
/* pixels */
"D.D.D.D.D.D.D.D.D.D.D.D.D.D.D.D.D.D.D.D.D.D.D.D.D.D.D.D.D.D.D.D.D.D.D.D.D.D.D.D.D.D.D.D.D.D.D.D.D.D.D.D.D.D.D.D.D.D.D.D.D.D.D.D.",
"D.D.D.D.D.D.D.D.D.D.D.D.D.D.D.D.D.D.D.D.D.D.D.D.D.D.D.D.D.D.D.D.D.D.D.D.D.D.D.D.D.D.D.D.D.D.D.D.D.D.D.D.D.D.D.D.D.D.D.D.D.D.D.D.",
"D.D.D.D.D.D.D.D.D.D.D.D.D.D.D.D.D.D.D.D.D.D.D.D.D.D.D.D.D.D.D.D.D.D.D.D.D.D.D.D.D.D.D.D.D.D.D.D.D.D.D.D.D.D.D.D.D.D.D.D.D.D.D.D.",
"D.D.D.D.D.D.D.D.D.D.D.D.D.D.D.D.D.D.D.D.D.D.D.D.D.D.D.D.D.D.D.D.D.D.D.D.D.D.D.D.D.D.D.D.D.D.D.D.D.D.D.D.D.D.D.D.D.D.D.D.D.D.D.D.",
"D.D.D.D.D.D.D.D.D.D.D.D.D.D.D.D.D.D.D.D.D.D.D.D.D.D.D.D.D.D.D.D.D.D.D.D.D.D.D.D.D.D.D.D.D.D.D.D.D.D.D.D.D.D.D.D.D.D.D.D.D.D.D.D.",
"D.D.D.D.D.D.D.D.D.D.D.D.D.D.D.D.D.D.D.D.D.D.D.D.D.D.D.D.D.D.D.D.D.D.D.D.D.D.D.S.D.D.D.D.D.D.D.D.D.D.D.D.D.D.D.D.D.D.D.D.D.D.D.D.",
"D.D.D.D.D.D.D.D.D.D.D.D.D.D.D.D.D.D.D.D.D.D.D.D.D.D.D.D.D.D.D.D.S.D.D.M.v.m.D.D.D.D.D.D.D.D.D.D.D.D.D.D.D.D.D.D.D.D.D.D.D.D.D.D.",
"D.D.D.D.D.D.D.D.D.D.D.D.D.D.D.D.D.D.D.D.D.D.D.D.D.D.D.D.D.D.D.D.D.w.g % + $ t 4.D.D.D.D.D.D.D.D.D.D.D.D.D.D.D.D.D.D.D.D.D.D.D.D.",
"D.D.D.D.D.D.D.D.D.D.D.D.D.D.D.D.D.D.D.D.D.D.D.D.D.D.D.D.D.D.S.D.*.o o * 6 - o X K D.D.D.D.D.D.D.D.D.D.D.D.D.D.D.D.D.D.D.D.D.D.D.",
"D.D.D.D.D.D.D.D.D.D.D.D.D.D.D.D.D.D.D.D.D.D.D.D.D.D.D.D.D.D.D.9.X # T u.s.i._ =   J D.D.D.D.D.D.D.D.D.D.D.D.D.D.D.D.D.D.D.D.D.D.",
"D.D.D.D.D.D.D.D.D.D.D.D.D.D.D.D.D.D.D.D.D.D.D.D.D.D.D.D.D.D.S.t o T j.s.s.s.h.<.= o J D.D.D.D.D.D.D.D.D.D.D.D.D.D.D.D.D.D.D.D.D.",
"D.D.D.D.D.D.D.D.D.D.D.D.D.D.D.D.D.D.D.D.D.D.D.D.D.D.D.D.D.D.c.# , s.s.s.s.s.s.h.<.=   H D.D.D.D.D.D.D.D.D.D.D.D.D.D.D.D.D.D.D.D.",
"D.D.D.D.D.D.D.D.D.D.D.D.D.D.D.D.D.D.D.D.D.D.D.D.D.D.D.D.S.D.w.o d d.s.s.s.s.s.s.h.<.*   J D.D.D.D.D.D.D.D.D.D.D.D.D.D.D.D.D.D.D.",
"D.D.D.D.D.D.D.D.D.D.D.D.D.D.D.D.D.D.D.D.D.D.D.D.D.D.D.D.D.D.l.o r d.s.s.s.s.s.s.a.h.<.-   -.D.S.D.S.S.D.D.D.D.D.D.D.D.D.D.D.D.D.",
"D.D.D.D.D.D.D.D.D.D.D.D.D.D.D.D.D.D.D.D.D.D.D.D.D.D.D.D.D.D.B.- # <.h.s.s.s.s.s.s.a.h.O.+ , S.D.D.D.D.D.D.D.S.D.D.D.D.D.D.D.D.D.",
"D.D.D.D.D.D.D.D.D.D.D.D.D.D.D.D.D.D.D.D.D.D.D.D.D.D.D.D.D.D.D.U   6 i.f.s.s.s.s.s.a.g.s.6 + *.w.0.q.q.q.c.D.D.D.D.D.D.D.D.D.D.D.",
"D.D.D.D.D.D.D.D.D.D.D.D.D.D.D.D.D.D.D.D.D.D.D.D.D.D.D.D.D.D.D.V.t . e i.f.a.s.s.s.g.+.e $ # O o o o o o @ y 0.D.D.D.D.D.D.D.D.D.",
"D.D.D.D.D.D.D.D.z.z.D.D.D.D.D.D.D.D.D.D.D.D.D.D.D.D.D.D.D.D.D.D.M.w . r i.h.g.s.s.W + O = 4 8 8 9 8 8 8 : o o =.D.D.D.D.D.D.D.D.",
"D.D.D.D.D.D.D.A.- # M.D.D.D.D.D.D.D.D.D.D.D.D.D.D.D.D.D.D.D.D.D.D.M.w   r <.F r < $ # l } | .... ... . .} x $ o w.D.D.D.D.D.D.D.",
"D.D.D.D.D.D.D.D.H   #.D.A.D.S.D.D.D.D.D.D.D.D.D.D.D.D.D.D.D.D.D.D.D.M.t # # o o $ # j X.| | } } } } } } | X.x o g D.D.D.D.D.D.D.",
"D.D.D.D.D.D.D.D.x.# - B.D.D.D.D.S.D.D.D.D.D.D.D.D.D.D.D.D.D.D.D.D.A.D.5.o $ v O.* $ ]  .} | | | } } | | }  .{ % % M.D.D.D.D.D.D.",
"D.D.D.D.D.D.D.D.D.V   U 7.:.0.B.D.D.D.D.D.D.D.D.D.D.D.D.D.D.D.D.D.D.A.y o F h.u.$ 1 } | | | | | }  .| | } } } 1 @ v.D.D.D.D.D.D.",
"D.D.D.D.D.D.D.S.D.5.o #     o - *.D.D.D.D.D.D.D.D.D.D.D.D.D.D.D.D.D.0.. 6 s.f.r.* $ ]  .} | } } } | | | }  .{ * % m.D.D.D.D.D.D.",
"D.D.D.D.D.D.D.D.x.- # - A D p #   K D.D.D.D.D.D.D.D.D.D.D.D.D.D.D.D.M   R h.p.f.i O c X.} } } } } } } } } X.^ O y S.D.D.D.D.D.D.",
"D.D.D.D.D.D.D.A.w . v i.h.h.f.O.= X 4.D.S.D.D.D.D.D.D.D.D.D.D.D.D.b.$ % t.f.p.g.o.o & ~ ....X.....X..... .( = X 4.D.D.D.D.D.D.D.",
"D.D.D.D.D.S.D.6.o 7 s.d.a.s.a.j.) o w Z.D.D.D.D.D.D.D.D.D.D.D.S.D.$.  A h.a.s.s.f.F o @ 3 k z z z z z z 9 #   P D.D.D.D.D.D.D.D.",
"D.D.D.D.D.D.D.I   W h.a.s.s.s.s.s.r   >.D.D.D.D.D.D.D.D.D.D.D.D.C.w o +.g.s.s.s.s.f.E - @ o             . - *.D.D.D.D.D.D.D.D.D.",
"D.D.D.D.D.D.D.M   O.h.a.s.s.s.s.h.' o w Z.D.D.D.D.D.D.D.D.D.D.D.7.X r s.s.s.s.s.s.a.j.D o M ;.*.=.*.*.-.7.N.D.D.D.D.D.D.D.D.D.D.",
"D.D.D.D.D.D.D.U   R h.a.s.s.s.s.s.s.7   >.D.D.D.D.D.D.D.D.D.D.D.m   W h.s.s.s.s.s.s.u.- + v.D.D.D.D.D.D.D.D.S.D.D.D.D.D.D.D.D.D.",
"D.D.D.D.D.S.D.9.. 6 s.s.s.s.s.s.s.h.' o w Z.D.S.S.D.S.D.D.S.D.v.# = t.f.s.s.s.s.s.h.) . h D.S.D.S.S.D.S.D.D.D.D.D.D.D.D.D.D.D.D.",
"D.D.D.D.D.D.D.A.y . ) h.s.s.s.d.s.s.s.r X 4.D.D.D.D.D.D.D.D.D.$.  S h.a.s.s.s.s.s.d.i   5.D.S.D.D.D.D.D.D.D.D.D.D.D.D.D.D.D.D.D.",
"D.D.D.D.D.D.D.D.6.X 6 a.s.s.s.s.s.s.h.` o u 0.9.9.9.9.9.9.9.0.w o +.h.s.s.s.s.s.g.,.+ < V.D.D.D.D.D.D.D.D.D.D.D.D.D.D.D.D.D.D.D.",
"D.D.D.D.D.D.D.D.S.t . ) h.a.s.s.s.s.d.r.$ $ . o . . o o . o . $ % r.f.s.s.s.d.a.h.A   #.D.S.D.D.D.D.D.D.D.D.D.D.D.D.D.D.D.D.D.D.",
"D.D.D.D.D.D.D.D.D.6.X 6 s.d.s.s.s.a.d.1.$ % 9 9 i 9 9 9 9 9 9 = + +.f.a.s.s.a.d.u.= # v.D.D.D.D.D.D.D.D.D.D.D.D.D.D.D.D.D.D.D.D.",
"D.D.D.D.D.D.D.D.D.S.t . ) h.a.s.s.p.j.R o 9 X. . . . . . . .X.k o v h.s.s.a.a.j.T   b D.D.D.D.D.D.D.D.D.D.D.D.D.D.D.D.D.D.D.D.D.",
"D.D.D.D.D.D.D.D.D.D.7.X ; 1.h.f.g.h.@.* @ (  .} | | | } | } | ] $ @ F d.h.h.f._ $ o w.D.D.D.D.D.D.D.D.D.D.D.D.D.D.D.D.D.D.D.D.D.",
"D.D.D.D.D.D.D.D.D.D.D.M X * G +.+.G & O 0  .| | | | | | }  .} X.! @ + 6 D F r # o #.D.D.D.D.D.D.D.D.D.D.D.D.D.D.D.D.D.D.D.D.D.D.",
"D.D.D.D.D.D.D.D.D.D.D.D.H o + + O # # 8  .| | | | | | | }  .} } ..! $ $ o o # # Y D.D.D.D.D.D.D.D.D.D.D.D.D.D.D.D.D.D.D.D.D.D.D.",
"D.D.D.D.D.D.D.D.D.D.D.M.y # $ < 6 % + * (  .} | | | | | } } } ..] 2 @ # 5 7 % @ - 9.D.D.D.D.D.D.D.D.D.D.D.D.D.D.D.D.D.D.D.D.D.D.",
"D.D.D.D.D.D.D.D.D.D.A.y X 7 @.s.s.r.C O $ ]  .} } } } | } } } } 2 o 6 @.a.s.r.Z o % v.D.D.D.D.D.D.D.D.D.D.D.D.D.D.D.D.D.D.D.D.D.",
"D.D.D.D.D.D.D.D.S.D.6.o 5 i.h.s.s.f.g.C o j X. ........... .X./ O < i.h.s.s.f.h.Z   K D.D.D.D.D.D.D.D.D.D.D.D.D.D.D.D.D.D.D.D.D.",
"D.D.D.D.D.D.D.D.D.D.b   ) h.a.s.s.a.f.e.# * / / / / / / / / ( 3 O Q h.p.s.s.s.f.r.# - N.D.D.D.D.D.D.D.D.D.D.D.D.D.D.D.D.D.D.D.D.",
"D.D.D.D.D.D.D.D.D.v.# - u.d.s.s.s.s.d.p.; @ o . . . . . . .   @ # @.f.s.s.s.s.s.f.d   :.D.S.D.D.D.D.D.D.D.D.D.D.D.D.D.D.D.D.D.D.",
"D.D.D.D.D.D.D.S.D.#.  D h.a.s.s.s.s.f.t.* % V V H H V H H H J 5 o O.h.a.s.s.s.s.h.' . u D.D.D.D.D.D.D.D.D.D.D.D.D.D.D.D.D.D.D.D.",
"D.D.D.D.D.D.D.D.C.5 O ,.h.s.s.s.s.a.h.`   g D.D.D.D.D.D.D.D.D.%.  A h.s.s.s.d.s.s.p., o x.D.D.D.D.D.D.D.D.D.D.D.D.D.D.D.D.D.D.D.",
"D.D.D.D.D.D.D.D.9.. r s.s.s.s.s.s.s.f.d   >.D.S.D.D.D.S.D.S.D.v.# - u.s.s.s.s.s.s.h.F   Y D.D.D.D.D.D.D.D.D.D.D.D.D.D.D.D.D.D.D.",
"D.D.D.D.D.D.D.D.M   W h.s.s.s.s.s.f.2.# - N.D.D.D.D.D.D.D.D.D.D.b . ) h.a.s.s.s.s.f.<.# ; V.D.D.D.D.D.D.D.D.D.D.D.D.D.D.D.D.D.D.",
"D.D.D.D.D.D.D.b.% % t.d.s.s.s.s.a.h.L   K D.D.D.D.D.D.D.D.D.S.D.6.  i d.s.s.s.s.s.s.f.p   5.D.S.D.D.D.D.D.D.D.D.D.D.D.D.D.D.D.D.",
"D.D.D.D.D.S.D.*.  Z f.s.s.s.s.s.s.s.< o l.D.S.D.D.D.D.D.D.D.D.D.B.; + <.f.s.s.s.s.a.h._ . b D.D.D.D.D.D.D.D.D.D.D.D.D.D.D.D.D.D.",
"D.D.D.D.D.D.S.t o O.g.s.s.s.s.s.g.O.o t S.D.D.D.D.D.D.D.D.D.D.D.D.Y   F h.s.s.s.s.s.d.i.- # v.D.D.D.D.D.D.D.D.D.D.D.D.D.D.D.D.D.",
"D.D.D.D.D.D.n.# > i.s.s.s.s.s.s.g.v   *.D.D.D.D.D.D.D.D.D.D.D.D.D.x.+ > i.s.s.s.s.s.s.f.v   6.D.D.D.D.D.D.D.D.D.D.D.D.D.D.D.D.D.",
"D.D.D.D.D.D.v.@ 6 s.s.s.s.s.s.f.r.% % m.D.D.D.D.D.D.D.D.D.D.D.D.D.D.f . ' h.s.s.s.s.s.f.S   3.D.S.D.D.D.D.D.D.D.D.D.D.D.D.D.D.D.",
"D.D.D.D.D.D.B.- % r.d.s.s.s.a.h.R   V D.D.D.D.D.D.D.D.D.D.D.D.D.D.D.:.  a f.s.s.s.s.s.d.i o 0.D.D.D.D.D.D.D.D.D.D.D.D.D.D.D.D.D.",
"D.D.D.D.D.D.D.M   A h.f.s.s.h.y.> o q.D.S.D.D.D.D.D.D.D.D.D.D.D.D.D.B.- + O.h.d.d.s.j.` O < V.D.D.D.D.D.D.D.D.D.D.D.D.D.D.D.D.D.",
"D.D.D.D.D.D.D.v.# + A t.s.p.+.6   b D.D.D.D.D.D.D.D.D.D.D.D.D.D.D.S.D.*.  * ) i.s.i.E %   :.D.S.D.D.D.D.D.D.D.D.D.D.D.D.D.D.D.D.",
"D.D.D.D.D.D.S.D.6.#   # 6 , +   t N.D.D.D.D.D.D.D.D.D.D.D.D.D.D.D.D.D.D.P X   = 6 = o X Y D.D.D.D.D.D.D.D.D.D.D.D.D.D.D.D.D.D.D.",
"D.D.D.D.D.D.D.D.D.v.V ; + # w %.Z.D.D.D.D.D.D.D.D.D.D.D.D.D.D.D.D.D.D.D.D.5.u % @ * g 9.D.D.D.D.D.D.D.D.D.D.D.D.D.D.D.D.D.D.D.D.",
"D.D.D.D.D.D.D.D.D.D.D.V.v.v.A.D.D.D.D.D.D.D.D.D.D.D.D.D.D.D.D.D.D.D.D.D.D.D.D.n.x.M.D.D.D.D.D.D.D.D.D.D.D.D.D.D.D.D.D.D.D.D.D.D.",
"D.D.D.D.D.D.D.D.D.D.S.D.D.D.D.D.D.D.D.D.D.D.D.D.D.D.D.D.D.D.D.D.D.D.D.D.D.D.D.D.D.D.D.D.D.D.D.D.D.D.D.D.D.D.D.D.D.D.D.D.D.D.D.D.",
"D.D.D.D.D.D.D.D.D.D.D.D.S.D.D.D.D.D.D.D.D.D.D.D.D.D.D.D.D.D.D.D.D.D.D.D.D.D.D.D.D.D.D.D.D.D.D.D.D.D.D.D.D.D.D.D.D.D.D.D.D.D.D.D.",
"D.D.D.D.D.D.D.D.D.D.D.D.D.D.D.D.D.D.D.D.D.D.D.D.D.D.D.D.D.D.D.D.D.D.D.D.D.D.D.D.D.D.D.D.D.D.D.D.D.D.D.D.D.D.D.D.D.D.D.D.D.D.D.D.",
"D.D.D.D.D.D.D.D.D.D.D.D.D.D.D.D.D.D.D.D.D.D.D.D.D.D.D.D.D.D.D.D.D.D.D.D.D.D.D.D.D.D.D.D.D.D.D.D.D.D.D.D.D.D.D.D.D.D.D.D.D.D.D.D.",
"D.D.D.D.D.D.D.D.D.D.D.D.D.D.D.D.D.D.D.D.D.D.D.D.D.D.D.D.D.D.D.D.D.D.D.D.D.D.D.D.D.D.D.D.D.D.D.D.D.D.D.D.D.D.D.D.D.D.D.D.D.D.D.D.",
"D.D.D.D.D.D.D.D.D.D.D.D.D.D.D.D.D.D.D.D.D.D.D.D.D.D.D.D.D.D.D.D.D.D.D.D.D.D.D.D.D.D.D.D.D.D.D.D.D.D.D.D.D.D.D.D.D.D.D.D.D.D.D.D."
};
