/* XPM */
static char *player__36_1710156995[] = {
/* columns rows colors chars-per-pixel */
"64 64 154 2 ",
"   c #00025B",
".  c #001564",
"X  c #001B65",
"o  c #001769",
"O  c #001C6A",
"+  c #002266",
"@  c #00236D",
"#  c #00286D",
"$  c #012571",
"%  c #042973",
"&  c #092C76",
"*  c #0D2F7B",
"=  c #0F307A",
"-  c #12327C",
";  c #19367E",
":  c #17397E",
">  c #0C2E80",
",  c #0F3080",
"<  c #143383",
"1  c #1A3683",
"2  c #1E3B84",
"3  c #17348B",
"4  c #1A368E",
"5  c #1B3690",
"6  c #1F3997",
"7  c #203D85",
"8  c #243D89",
"9  c #293F8F",
"0  c #253D9D",
"q  c #254385",
"w  c #284587",
"e  c #2A428D",
"r  c #2D498A",
"t  c #314D8C",
"y  c #35518F",
"u  c #38518F",
"i  c #2E4190",
"p  c #324693",
"a  c #354896",
"s  c #3C4C9A",
"d  c #365290",
"f  c #3A5491",
"g  c #2C41A6",
"h  c #2F42AB",
"j  c #3144AC",
"k  c #3446B2",
"l  c #394AB7",
"z  c #3847B8",
"x  c #3D4BBD",
"c  c #414E9D",
"v  c #425B95",
"b  c #43509F",
"n  c #475F98",
"m  c #466099",
"M  c #4A629B",
"N  c #51679D",
"B  c #536A9F",
"V  c #4552A1",
"C  c #4C56A5",
"Z  c #4F57A9",
"A  c #5058A7",
"S  c #545BAB",
"D  c #595EAE",
"F  c #5C5FB0",
"G  c #576DA1",
"H  c #5C72A4",
"J  c #5E61B2",
"K  c #6176A7",
"L  c #6176A8",
"P  c #6579AA",
"I  c #6B7DAB",
"U  c #6364B6",
"Y  c #6565B8",
"T  c #6966BA",
"R  c #6D6ABD",
"E  c #706CBF",
"W  c #424FC3",
"Q  c #4550C6",
"!  c #4952CE",
"~  c #4F56D4",
"^  c #5459DB",
"/  c #716DC0",
"(  c #7B72C6",
")  c #7F75C9",
"_  c #5B5DE5",
"`  c #5E5FEA",
"'  c #6261EF",
"]  c #6663F4",
"[  c #6864F7",
"{  c #6B66FB",
"}  c #6F68FF",
"|  c #7169FF",
" . c #8176CB",
".. c #8578CE",
"X. c #887ACF",
"o. c #8C7CD2",
"O. c #907FD5",
"+. c #6D81AE",
"@. c #7285B1",
"#. c #7789B3",
"$. c #7C8DB6",
"%. c #7D8FB8",
"&. c #7F90B7",
"*. c #8091B7",
"=. c #8393BA",
"-. c #8798BE",
";. c #8A9ABE",
":. c #8F9EC1",
">. c #909FC2",
",. c #9280D7",
"<. c #9B86DD",
"1. c #95A3C4",
"2. c #99A7C7",
"3. c #9FACC9",
"4. c #A2AECB",
"5. c #A5B1CD",
"6. c #ACB7D1",
"7. c #ACB8D1",
"8. c #B3BDD5",
"9. c #9F88E0",
"0. c #A38AE2",
"q. c #A88EE6",
"w. c #AB8FE8",
"e. c #AD91EA",
"r. c #B394EE",
"t. c #B797F0",
"y. c #B897F1",
"u. c #BB9AF4",
"i. c #C09DF7",
"p. c #C39EF9",
"a. c #C6A0FB",
"s. c #CAA3FD",
"d. c #D1A7FF",
"f. c #D2A8FF",
"g. c #D8ACFF",
"h. c #B7C1D7",
"j. c #B7C0D8",
"k. c #BBC4D9",
"l. c #BEC8DB",
"z. c #C4CCDE",
"x. c #C7CFE0",
"c. c #CDD3E3",
"v. c #D4DAE7",
"b. c #D6DCE8",
"n. c #D9DEEA",
"m. c #DDE2EC",
"M. c #E1E5EE",
"N. c #E6E9F1",
"B. c #EBEEF4",
"V. c #EEF1F6",
"C. c #F1F3F7",
"Z. c #F3F5F9",
"A. c #F6F8FB",
"S. c #FFFFFF",
/* pixels */
"S.S.S.S.S.S.S.S.S.S.S.S.S.S.S.S.S.S.S.S.S.S.S.S.S.S.S.S.S.S.S.S.S.S.S.S.S.S.S.S.S.S.S.S.S.S.S.S.S.S.S.S.S.S.S.S.S.S.S.S.S.S.S.S.",
"S.S.S.S.S.S.S.S.S.S.S.S.S.S.S.S.S.S.S.S.S.S.S.S.S.S.S.S.S.S.S.S.S.S.S.S.S.S.S.S.S.S.S.S.S.S.S.S.S.S.S.S.S.S.S.S.S.S.S.S.S.S.S.S.",
"S.S.S.S.S.S.S.S.S.S.S.S.S.S.S.S.S.S.S.S.S.S.S.S.S.S.S.S.S.S.S.S.S.S.S.S.S.S.S.S.S.S.S.S.S.S.S.S.S.S.S.S.S.S.S.S.S.S.S.S.S.S.S.S.",
"S.S.S.S.S.S.S.S.S.S.S.S.S.S.S.S.S.S.S.S.S.S.S.S.S.S.S.S.S.S.S.S.S.S.S.S.S.S.S.S.S.S.S.S.S.S.S.S.S.S.S.S.S.S.S.S.S.S.S.S.S.S.S.S.",
"S.S.S.S.S.S.S.S.S.S.S.S.S.S.S.S.S.S.S.S.S.S.S.S.S.S.S.S.S.S.S.S.S.S.S.S.S.S.S.S.S.S.S.S.S.S.S.S.S.S.S.S.S.S.S.S.S.S.S.S.S.S.S.S.",
"S.S.S.S.S.S.S.S.S.S.S.S.S.S.S.S.S.S.S.S.S.S.S.S.S.S.S.S.S.S.S.S.S.S.S.S.S.k.>.;.4.M.S.S.S.S.S.S.S.S.S.S.S.S.S.S.S.S.S.S.S.S.S.S.",
"S.S.S.S.S.S.S.S.S.S.S.S.S.S.S.S.S.S.S.S.S.S.S.S.S.S.S.S.S.S.S.S.S.S.S.v.f O . . . - %.S.S.S.S.S.S.S.S.S.S.S.S.S.S.S.S.S.S.S.S.S.",
"S.S.S.S.S.S.S.S.S.S.S.S.S.S.S.S.S.S.S.S.S.S.S.S.S.S.S.S.S.S.S.S.S.S.c.- O ; C D a @ . G S.S.S.S.S.S.S.S.S.S.S.S.S.S.S.S.S.S.S.S.",
"S.S.S.S.S.S.S.S.S.S.S.S.S.S.S.S.S.S.S.S.S.S.S.S.S.S.S.S.S.S.S.S.S.A.t . s t.a.s.p...= o *.S.S.S.S.S.S.S.S.S.S.S.S.S.S.S.S.S.S.S.",
"S.S.S.S.S.S.S.S.S.S.S.S.S.S.S.S.S.S.S.S.S.S.S.S.S.S.S.S.S.S.S.A.S.5.O 7 y.p.y.y.u.s.) $ $ 7.S.S.S.S.S.S.S.S.S.S.S.S.S.S.S.S.S.S.",
"S.S.S.S.S.S.S.S.S.S.S.S.S.S.S.S.S.S.S.S.S.S.S.S.S.S.S.S.S.S.S.S.S.#.. F s.t.u.u.u.t.s.J O ; m.S.S.S.S.S.S.S.S.S.S.S.S.S.S.S.S.S.",
"S.S.S.S.S.S.S.S.S.S.S.S.S.S.S.S.S.S.S.S.S.S.S.S.S.S.S.S.S.S.S.A.S.P . / s.u.u.u.u.u.u.p.s X d A.S.S.S.S.S.S.S.S.S.S.S.S.S.S.S.S.",
"S.S.S.S.S.S.S.S.S.S.S.S.S.S.S.S.S.S.S.S.S.S.S.S.S.S.S.S.S.S.S.S.S.$.. D s.y.u.u.u.u.u.u.r.2 . @.S.S.S.S.S.S.S.S.S.S.S.S.S.S.S.S.",
"S.S.S.S.S.S.S.S.S.S.S.S.S.S.S.S.S.S.S.S.S.S.S.S.S.S.S.S.S.S.S.S.S.k.O - q.p.u.u.u.u.u.u.s.o.$ * b.S.A.S.S.S.S.S.S.S.S.S.S.S.S.S.",
"S.S.S.S.S.S.S.S.S.S.S.S.S.S.S.S.S.S.S.S.S.S.S.S.S.S.S.S.S.S.S.S.S.S.M X a i.u.u.u.u.u.u.u.f.V . 4.S.S.S.S.S.S.S.S.S.S.S.S.S.S.S.",
"S.S.S.S.S.S.S.S.S.3.N V.S.S.S.S.S.S.S.S.S.S.S.S.S.S.S.S.S.S.S.S.S.S.M.; O D s.t.u.u.u.a.u.o.a O M 6.k.b.V.A.S.S.S.S.S.S.S.S.S.S.",
"S.S.S.S.S.S.S.S.S.M   :.S.S.S.S.S.S.S.S.S.S.S.S.S.S.S.S.S.S.S.S.S.A.S.k.$ @ ( f.p.u.a.<.9 @ + @ O O O & 1 r H l.S.S.S.S.S.S.S.S.",
"S.S.S.S.S.S.S.S.S.5.O u S.S.S.S.S.S.S.S.S.S.S.S.S.S.S.S.S.S.S.S.S.S.S.S.-.O - T s 7 i = + < k z j i 5 > % @ X @ #.S.S.S.S.S.S.S.",
"S.S.S.S.S.S.S.S.S.B.2 O l.S.S.S.S.S.S.S.S.S.S.S.S.S.S.S.S.S.S.S.S.S.S.S.S.G O @ X $ $ @ 0 ] } } } { { ] ` ^ j & o -.S.S.S.S.S.S.",
"S.S.S.S.S.S.S.S.S.S.&.. n :.&.8.A.S.S.S.S.S.S.S.S.S.S.S.S.S.S.S.S.S.S.S.N.r O 7 ) T @ < ] [ ] ] ] ] [ [ { { | W @ * n.S.S.S.S.S.",
"S.S.S.S.S.S.S.S.S.S.I $ O . . O r k.S.S.S.S.S.S.S.S.S.S.S.S.S.S.S.S.S.S.K . e r.g.U X k | ] [ [ [ [ [ [ [ ] ] } i . -.S.A.S.S.S.",
"S.S.S.S.S.S.S.S.S.K O $ p U S 2 O O 6.S.S.S.S.S.S.S.S.S.S.S.S.S.S.S.S.z.$ % <.p.p.Z X x } ] [ [ [ [ [ [ [ [ ] } W X K S.S.S.S.S.",
"S.S.S.S.S.S.A.S.4.o *  .p.p.s.u.S O ; N.S.S.S.S.S.S.S.S.S.S.S.S.S.S.S.M X S a.r.s.Y X g | ] [ [ [ [ [ [ [ [ [ } W . P S.S.S.S.S.",
"S.S.S.S.S.S.S.S.f X E f.y.u.y.i.a.p . *.S.S.S.S.S.S.S.S.S.S.S.S.S.S.8.O - w.p.u.p.<.# & ^ | [ ] ] [ ] ] [ ] ] } 0 O ;.S.A.S.S.S.",
"S.S.S.S.S.S.S.m.& * e.u.u.u.u.u.a...O r Z.S.S.S.S.S.S.S.S.S.S.S.S.A.y X Y s.u.u.u.a.C O = ! ] [ } } } } { } | W $ & b.S.S.S.S.S.",
"S.S.S.S.S.S.S.x.@ 2 u.u.u.u.u.u.u.u.7 O 8.S.S.S.S.S.S.S.S.S.S.S.S.1.. 2 t.u.u.u.u.u.u.p @ # < 0 g l W ~ _ ~ j % . =.S.S.S.S.S.S.",
"S.S.S.S.S.S.S.M.= & w.p.u.u.i.u.y.s.U . G S.S.S.S.S.S.S.S.S.S.S.B.7 O ( s.u.u.u.u.u.u.p.p $ @ O . X X X @ O . $ *.S.S.S.S.S.S.S.",
"S.S.S.S.S.S.S.S.M . R s.u.u.u.u.u.p.0.& % v.S.S.S.S.S.S.S.S.S.S.%.. i p.u.u.u.u.u.u.p.0.- $ 4.j.1.#.H v r u P z.S.S.S.S.S.S.S.S.",
"S.S.S.S.S.S.S.S.5.O 8 u.u.u.u.u.u.u.a.V . %.S.S.S.S.S.S.S.S.S.m.- @ o.a.u.u.u.u.u.u.a.V . H S.S.S.S.S.S.S.S.S.S.S.S.S.S.S.S.S.S.",
"S.S.S.S.S.S.S.S.C.q O o.s.u.u.u.u.y.p.o.O r C.S.A.A.A.S.A.Z.S.-.. s p.u.u.u.u.u.y.a.,.@ & b.S.A.S.A.S.S.S.S.A.S.S.S.S.S.S.S.S.S.",
"S.S.S.S.S.S.S.S.S.$.. V p.y.u.u.u.u.u.e.- % q q q 8 q q q q q < @ R s.u.u.u.u.u.u.a.a . #.S.S.S.S.S.S.S.S.S.S.S.S.S.S.S.S.S.S.S.",
"S.S.S.S.S.S.S.S.S.v.& & q.i.u.u.u.u.p.r.- % $ $ $ $ $ $ $ $ $ & @ E a.u.p.u.u.u.a.) O ; B.S.S.S.S.S.S.S.S.S.S.S.S.S.S.S.S.S.S.S.",
"S.S.S.S.S.S.S.S.S.S.N . U s.t.u.u.t.s.o.# < _ _ _ _ ` _ ` _ ' k X V s.y.u.u.u.u.u.7 o >.S.S.S.S.S.S.S.S.S.S.S.S.S.S.S.S.S.S.S.S.",
"S.S.S.S.S.S.S.S.S.S.8.O - <.s.p.p.s.t.e + k | { { { { { { { { _ % % o.f.u.u.p.f.D O r A.S.S.S.S.S.S.S.S.S.S.S.S.S.S.S.S.S.S.S.S.",
"S.S.S.S.S.S.S.S.S.S.S.G . - T 9.9.( 8 + < ' [ ] [ [ ] [ ] [ ] { j + & R w.t.0.C @ O 8.S.A.S.S.S.S.S.S.S.S.S.S.S.S.S.S.S.S.S.S.S.",
"S.S.S.S.S.S.S.S.S.S.S.Z.H $ @ & & $ @ 4 ` [ [ [ [ [ [ [ ] { [ [ [ g @ $ = 1 & @ * 1.S.S.S.S.S.S.S.S.S.S.S.S.S.S.S.S.S.S.S.S.S.S.",
"S.S.S.S.S.S.S.S.S.S.S.S.@.$ @ @ $ @ $ 6 [ [ [ [ [ [ [ [ [ [ [ [ } k % $ @ @ @ $ w B.S.S.S.S.S.S.S.S.S.S.S.S.S.S.S.S.S.S.S.S.S.S.",
"S.S.S.S.S.S.S.S.S.S.S.P . & S o.o.U - + 5 [ [ [ [ [ [ [ [ [ [ { j + % Z X.,.R 1 O t C.S.S.S.S.S.S.S.S.S.S.S.S.S.S.S.S.S.S.S.S.S.",
"S.S.S.S.S.S.S.S.S.S.k.O & o.f.a.a.s.q.1 + l } [ { { { [ { [ { _ % $  .s.a.p.s.e.q . %.S.S.S.S.S.S.S.S.S.S.S.S.S.S.S.S.S.S.S.S.S.",
"S.S.S.S.S.S.S.S.S.S.H . J s.r.u.u.t.s.) @ 3 ' ] ' ' ' ] ' ' { h O Z s.t.u.u.t.s.o.@ 2 B.S.S.S.S.S.S.S.S.S.S.S.S.S.S.S.S.S.S.S.S.",
"S.S.S.S.S.S.S.S.S.m.- % 9.p.u.u.u.u.u.r.= % * > * > > , > > , & @ ..a.u.u.u.u.u.i.9 . 5.S.A.S.S.S.S.S.S.S.S.S.S.S.S.S.S.S.S.S.S.",
"S.S.S.S.S.S.S.S.S.;.. s p.u.u.u.u.u.u.r.- % & & & & & & & & & & @ ..a.u.u.i.u.u.a.E . n S.S.S.S.S.S.S.S.S.S.S.S.S.S.S.S.S.S.S.S.",
"S.S.S.S.S.S.S.S.A.t O ..a.u.u.u.u.u.p.o.O w n.m.m.m.m.m.m.m.N.H . J s.y.u.u.u.u.p.w.- @ c.S.S.S.S.S.S.S.S.S.S.S.S.S.S.S.S.S.S.S.",
"S.S.S.S.S.S.S.S.j.O 2 r.u.u.u.u.u.u.s.C . #.S.S.S.S.S.S.S.S.S.h.O 2 y.u.u.u.u.u.u.a.C . @.S.A.S.S.S.S.S.S.S.S.S.S.S.S.S.S.S.S.S.",
"S.S.S.S.S.S.A.S.H . J s.u.u.u.u.y.p.w.* $ c.S.S.S.S.A.S.S.S.S.A.t O ..a.u.u.u.i.u.a.O.@ ; V.S.S.S.S.S.S.S.S.S.S.S.S.S.S.S.S.S.S.",
"S.S.S.S.S.S.S.m.* & 9.p.u.u.u.u.y.s.E X M S.S.S.S.S.S.S.S.S.S.S.;.. s p.u.u.u.u.u.u.p.e . 4.S.S.S.S.S.S.S.S.S.S.S.S.S.S.S.S.S.S.",
"S.S.S.S.S.A.S.;.. s a.u.u.u.u.u.u.u.e . 4.S.S.S.S.S.S.S.S.S.S.S.m.= # <.p.u.u.u.u.y.a.E X v S.S.S.S.S.S.S.S.S.S.S.S.S.S.S.S.S.S.",
"S.S.S.S.S.S.S.t O  .s.u.u.u.u.u.a.,.@ 7 B.S.S.S.S.S.S.S.S.S.S.S.S.H . U a.u.u.u.u.u.p.w.- $ c.S.S.S.S.S.S.S.S.S.S.S.S.S.S.S.S.S.",
"S.S.S.S.S.S.x.@ 1 r.i.u.u.u.u.u.a.C . #.S.S.S.S.S.S.S.S.S.S.S.S.S.h.O 1 t.u.u.u.u.u.u.a.C . ;.S.S.S.S.S.S.S.S.S.S.S.S.S.S.S.S.S.",
"S.S.S.S.S.S.8.O a i.u.u.u.u.u.p.e.* $ c.S.S.S.S.S.S.S.S.S.S.S.S.S.S.t O ) s.u.u.u.u.u.a.Y . @.S.S.S.S.S.S.S.S.S.S.S.S.S.S.S.S.S.",
"S.S.S.S.S.S.z.@ 7 u.u.u.u.u.t.s.E . n S.S.S.S.S.S.S.S.S.S.S.S.S.S.S.;.. s p.u.u.u.u.y.s.S . *.S.A.S.S.S.S.S.S.S.S.S.S.S.S.S.S.S.",
"S.S.S.S.S.S.C.2 O ..s.y.u.t.p.u.8 O 4.S.A.S.S.S.S.S.S.S.S.S.S.S.S.S.M.- $ ,.s.y.y.u.a.e.; O k.S.S.S.S.S.S.S.S.S.S.S.S.S.S.S.S.S.",
"S.S.S.S.S.S.S.*.. 1 O.p.s.s.r.V X r Z.S.S.S.S.S.S.S.S.S.S.S.S.S.S.A.S.+.. 8 <.a.s.a.e.p . v S.S.S.S.S.S.S.S.S.S.S.S.S.S.S.S.S.S.",
"S.S.S.S.S.S.S.S.n . $ s J C - O & z.S.S.S.S.S.S.S.S.S.S.S.S.S.S.S.S.S.C.t . & s J C - X ; n.S.S.S.S.S.S.S.S.S.S.S.S.S.S.S.S.S.S.",
"S.S.S.S.S.S.S.S.S.I & . . . O f c.S.S.S.S.S.S.S.S.S.S.S.S.S.S.S.S.S.S.S.V.K & . . . $ v v.S.S.S.S.S.S.S.S.S.S.S.S.S.S.S.S.S.S.S.",
"S.S.S.S.S.S.S.S.S.S.n.1.%.;.l.S.S.S.S.S.S.S.S.S.S.S.S.S.S.S.S.S.S.S.S.S.S.S.v.2.*.>.z.S.S.S.S.S.S.S.S.S.S.S.S.S.S.S.S.S.S.S.S.S.",
"S.S.S.S.S.S.S.S.S.S.S.S.S.S.S.S.S.S.S.S.S.S.S.S.S.S.S.S.S.S.S.S.S.S.S.S.S.S.S.S.S.S.S.S.A.S.S.S.S.S.S.S.S.S.S.S.S.S.S.S.S.S.S.S.",
"S.S.S.S.S.S.S.S.S.S.S.S.A.S.S.S.S.S.S.S.S.S.S.S.S.S.S.S.S.S.S.S.S.S.S.S.S.S.S.S.S.S.S.S.S.S.S.S.S.S.S.S.S.S.S.S.S.S.S.S.S.S.S.S.",
"S.S.S.S.S.S.S.S.S.S.S.S.S.S.S.S.S.S.S.S.S.S.S.S.S.S.S.S.S.S.S.S.S.S.S.S.S.S.S.S.S.S.S.S.S.S.S.S.S.S.S.S.S.S.S.S.S.S.S.S.S.S.S.S.",
"S.S.S.S.S.S.S.S.S.S.S.S.S.S.S.S.S.S.S.S.S.S.S.S.S.S.S.S.S.S.S.S.S.S.S.S.S.S.S.S.S.S.S.S.S.S.S.S.S.S.S.S.S.S.S.S.S.S.S.S.S.S.S.S.",
"S.S.S.S.S.S.S.S.S.S.S.S.S.S.S.S.S.S.S.S.S.S.S.S.S.S.S.S.S.S.S.S.S.S.S.S.S.S.S.S.S.S.S.S.S.S.S.S.S.S.S.S.S.S.S.S.S.S.S.S.S.S.S.S.",
"S.S.S.S.S.S.S.S.S.S.S.S.S.S.S.S.S.S.S.S.S.S.S.S.S.S.S.S.S.S.S.S.S.S.S.S.S.S.S.S.S.S.S.S.S.S.S.S.S.S.S.S.S.S.S.S.S.S.S.S.S.S.S.S.",
"S.S.S.S.S.S.S.S.S.S.S.S.S.S.S.S.S.S.S.S.S.S.S.S.S.S.S.S.S.S.S.S.S.S.S.S.S.S.S.S.S.S.S.S.S.S.S.S.S.S.S.S.S.S.S.S.S.S.S.S.S.S.S.S.",
"S.S.S.S.S.S.S.S.S.S.S.S.S.S.S.S.S.S.S.S.S.S.S.S.S.S.S.S.S.S.S.S.S.S.S.S.S.S.S.S.S.S.S.S.S.S.S.S.S.S.S.S.S.S.S.S.S.S.S.S.S.S.S.S."
};
