/* XPM */
static char *player__2_1710156990[] = {
/* columns rows colors chars-per-pixel */
"64 64 153 2 ",
"   c #000A61",
".  c #001564",
"X  c #001A66",
"o  c #001768",
"O  c #001C6A",
"+  c #002166",
"@  c #00236D",
"#  c #01286F",
"$  c #012571",
"%  c #042974",
"&  c #092C76",
"*  c #072B79",
"=  c #0C2E7A",
"-  c #0D307A",
";  c #12327C",
":  c #19397F",
">  c #0F3082",
",  c #163581",
"<  c #1A3683",
"1  c #1D3B82",
"2  c #143389",
"3  c #19358D",
"4  c #1C3792",
"5  c #1E3893",
"6  c #213C85",
"7  c #243D8A",
"8  c #2A3F8D",
"9  c #203B96",
"0  c #243D9B",
"q  c #293FA4",
"w  c #244184",
"e  c #2A428C",
"r  c #2D4A8A",
"t  c #314D8C",
"y  c #36518F",
"u  c #2E4391",
"i  c #334693",
"p  c #374996",
"a  c #394997",
"s  c #3C4C9A",
"d  c #375290",
"f  c #3C5692",
"g  c #3F5994",
"h  c #2A40A4",
"j  c #2E42AA",
"k  c #3244AE",
"l  c #3446B1",
"z  c #3748B4",
"x  c #3949B6",
"c  c #3C4ABB",
"v  c #414E9E",
"b  c #435C96",
"n  c #43509E",
"m  c #465F99",
"M  c #4D659C",
"N  c #51679E",
"B  c #51689E",
"V  c #434FA1",
"C  c #4652A1",
"Z  c #4D56A6",
"A  c #545AAB",
"S  c #595DAE",
"D  c #5C5FB0",
"F  c #566BA0",
"G  c #596EA2",
"H  c #5D72A4",
"J  c #5E61B2",
"K  c #6276A7",
"L  c #6579A8",
"P  c #6A7DAB",
"I  c #6163B4",
"U  c #6766B8",
"Y  c #6867B9",
"T  c #6D6ABD",
"R  c #706CBF",
"E  c #3F4CC1",
"W  c #434FC5",
"Q  c #454FC8",
"!  c #4752CA",
"~  c #4A53CD",
"^  c #756EC2",
"/  c #7770C3",
"(  c #7A71C6",
")  c #7E74C9",
"_  c #5A5CE4",
"`  c #5C5DE8",
"'  c #605FEC",
"]  c #6160ED",
"[  c #6663F5",
"{  c #6864F7",
"}  c #6C66FC",
"|  c #6F68FF",
" . c #736AFF",
".. c #8176CB",
"X. c #8478CD",
"o. c #8B7CD2",
"O. c #917ED5",
"+. c #7183AF",
"@. c #7284B0",
"#. c #7788B3",
"$. c #7B8CB6",
"%. c #8394BB",
"&. c #8897BC",
"*. c #8799BE",
"=. c #8B9ABE",
"-. c #8F9EC1",
";. c #909FC1",
":. c #9281D7",
">. c #9682D9",
",. c #9C86DD",
"<. c #9E88DF",
"1. c #95A4C5",
"2. c #99A6C6",
"3. c #9BA8C7",
"4. c #9CAAC8",
"5. c #A2AECC",
"6. c #A6B2CD",
"7. c #A8B3CF",
"8. c #ABB6D1",
"9. c #AEB9D2",
"0. c #B4BDD5",
"q. c #9F88E0",
"w. c #A58CE4",
"e. c #A98FE7",
"r. c #AB8FE8",
"t. c #AD91EA",
"y. c #B394ED",
"u. c #B797F0",
"i. c #B897F1",
"p. c #BB9AF4",
"a. c #C09DF7",
"s. c #C39EF9",
"d. c #C6A0FB",
"f. c #C9A2FD",
"g. c #D0A6FF",
"h. c #D2A8FF",
"j. c #B7C1D7",
"k. c #BAC2D8",
"l. c #C2CBDE",
"z. c #C8CFE0",
"x. c #CAD1E2",
"c. c #D3D9E6",
"v. c #D7DDE9",
"b. c #D9DEEA",
"n. c #DDE2EC",
"m. c #E1E5EE",
"M. c #E5E9F1",
"N. c #EAEDF4",
"B. c #EFF1F6",
"V. c #F1F3F7",
"C. c #F3F5F9",
"Z. c #F6F8FA",
"A. c #FFFFFF",
/* pixels */
"A.A.A.A.A.A.A.A.A.A.A.A.A.A.A.A.A.A.A.A.A.A.A.A.A.A.A.A.A.A.A.A.A.A.A.A.A.A.A.A.A.A.A.A.A.A.A.A.A.A.A.A.A.A.A.A.A.A.A.A.A.A.A.A.",
"A.A.A.A.A.A.A.A.A.A.A.A.A.A.A.A.A.A.A.A.A.A.A.A.A.A.A.A.A.A.A.A.A.A.A.A.A.A.A.A.A.A.A.A.A.A.A.A.A.A.A.A.A.A.A.A.A.A.A.A.A.A.A.A.",
"A.A.A.A.A.A.A.A.A.A.A.A.A.A.A.A.A.A.A.A.A.A.A.A.A.A.A.A.A.A.A.A.A.A.A.A.A.A.A.A.A.A.A.A.A.A.A.A.A.A.A.A.A.A.A.A.A.A.A.A.A.A.A.A.",
"A.A.A.A.A.A.A.A.A.A.A.A.A.A.A.A.A.A.A.A.A.A.A.A.A.A.A.A.A.A.A.A.A.A.A.A.A.A.A.A.A.A.A.A.A.A.A.A.A.A.A.A.A.A.A.A.A.A.A.A.A.A.A.A.",
"A.A.A.A.A.A.A.A.A.A.A.A.A.A.A.A.A.A.A.A.A.A.A.A.A.A.A.A.A.A.A.A.A.A.A.A.A.A.A.A.A.A.A.A.A.A.A.A.A.A.A.A.A.A.A.A.A.A.A.A.A.A.A.A.",
"A.A.A.A.A.A.A.A.A.A.A.A.A.A.A.A.A.A.A.A.A.A.A.A.A.A.A.A.A.A.A.A.A.A.A.A.A.A.A.A.A.A.A.A.A.A.A.A.A.A.A.A.A.A.A.A.A.A.A.A.A.A.A.A.",
"A.A.A.A.A.A.A.A.A.A.A.A.A.A.A.A.A.A.A.A.A.A.A.A.A.A.A.A.A.A.A.A.A.A.A.n.x.b.Z.A.A.A.A.A.A.A.A.A.A.A.A.A.A.A.A.A.A.A.A.A.A.A.A.A.",
"A.A.A.A.A.A.A.A.A.A.A.A.A.A.A.A.A.A.A.A.A.A.A.A.A.A.A.A.A.A.A.A.A.9.f = @ % t 1.A.A.A.A.A.A.A.A.A.A.A.A.A.A.A.A.A.A.A.A.A.A.A.A.",
"A.A.A.A.A.A.A.A.A.A.A.A.A.A.A.A.A.A.A.A.A.A.A.A.A.A.A.A.A.A.A.A.%.o X = 6 ; O o H A.A.A.A.A.A.A.A.A.A.A.A.A.A.A.A.A.A.A.A.A.A.A.",
"A.A.A.A.A.A.A.A.A.A.A.A.A.A.A.A.A.A.A.A.A.A.A.A.A.A.A.A.A.A.A.6.. % U t.i.y./ - o G A.A.A.A.A.A.A.A.A.A.A.A.A.A.A.A.A.A.A.A.A.A.",
"A.A.A.A.A.A.A.A.A.A.A.A.A.A.A.A.A.A.A.A.A.A.A.A.A.A.A.A.A.A.Z.r O Y f.a.p.d.f.>.; . G A.A.A.A.A.A.A.A.A.A.A.A.A.A.A.A.A.A.A.A.A.",
"A.A.A.A.A.A.A.A.A.A.A.A.A.A.A.A.A.A.A.A.A.A.A.A.A.A.A.A.A.A.x.$ < i.p.p.p.p.i.f.>.; X B A.A.A.A.A.A.A.A.A.A.A.A.A.A.A.A.A.A.A.A.",
"A.A.A.A.A.A.A.A.A.A.A.A.A.A.A.A.A.A.A.A.A.A.A.A.A.A.A.A.Z.A.0.o a d.i.p.p.p.p.i.f.>.- o G A.A.A.A.A.A.A.A.A.A.A.A.A.A.A.A.A.A.A.",
"A.A.A.A.A.A.A.A.A.A.A.A.A.A.A.A.A.A.A.A.A.A.A.A.A.A.A.A.A.A.j.O e p.p.p.a.p.p.p.i.d.>.; . *.A.Z.A.A.A.Z.A.A.A.A.A.A.A.A.A.A.A.A.",
"A.A.A.A.A.A.A.A.A.A.A.A.A.A.A.A.A.A.A.A.A.A.A.A.A.A.A.A.A.A.M.; % >.f.i.p.p.p.p.p.i.f.X.@ < Z.A.A.A.A.A.A.A.A.A.A.A.A.A.A.A.A.A.",
"A.A.A.A.A.A.A.A.A.A.A.A.A.A.A.A.A.A.A.A.A.A.A.A.A.A.A.A.A.A.A.L . 7 y.a.i.p.p.a.p.i.d.p.7 @ %.0.8.9.9.9.l.A.A.A.A.A.A.A.A.A.A.A.",
"A.A.A.A.A.A.A.A.A.C.n.A.A.A.A.A.A.A.A.A.A.A.A.A.A.A.A.A.A.A.A.N.r o e y.a.i.p.p.p.d.X.8 % % + X X X X X $ r 9.A.A.A.A.A.A.A.A.A.",
"A.A.A.A.A.A.A.A.A.L O x.A.A.A.A.A.A.A.A.A.A.A.A.A.A.A.A.A.A.A.A.m.w o e u.d.d.p.p.T $ + = 5 0 9 0 0 0 9 > + O *.A.A.A.A.A.A.A.A.",
"A.A.A.A.A.A.A.A.A.P   P A.A.A.A.A.A.A.A.A.A.A.A.A.A.A.A.A.A.A.A.A.n.w . u :.D e 1 % # l [ } } } } } } } [ x % O 0.A.A.A.A.A.A.A.",
"A.A.A.A.A.A.A.A.A.x.@ < M.A.A.A.A.A.A.A.A.A.A.A.A.A.A.A.A.A.A.A.A.A.b.r $ % X + % $ j  .{ [ [ { { [ [ [ {  .z X f A.A.A.A.A.A.A.",
"A.A.A.A.A.A.A.A.A.A.b . 1.A.Z.A.A.A.A.A.A.A.A.A.A.A.A.A.A.A.A.A.A.Z.A.2.O % v X.; % ` } [ { { { { { { { [ } ] * & n.A.A.A.A.A.A.",
"A.A.A.A.A.A.A.A.Z.A.1.o 1 r r H 0.A.A.A.A.A.A.A.A.A.A.A.A.A.A.A.A.A.Z.t O S f.t.% > [ { { { { { { { [ [ { [ { 2 # x.A.A.A.A.A.A.",
"A.A.A.A.A.A.A.A.A.c.r $ + @ @ . O L A.A.A.A.A.A.A.A.A.A.A.A.A.A.A.A.8.X 7 p.a.w.= * ` } { { { { { { { } [ } ] = & b.A.A.A.A.A.A.",
"A.A.A.A.A.A.A.A.M.6 . 7 / q.,.I = . P A.A.A.A.A.A.A.A.A.A.A.A.A.A.A.M . Y f.i.a.e O c  .[ [ [ [ [ [ [ [ [  .W O r A.A.A.A.A.A.A.",
"A.A.A.A.A.A.A.A.+.. e i.f.s.s.f.o.& @ l.A.A.A.A.A.A.A.A.A.A.A.A.A.c.% = w.a.i.f...O = W }  .| | |  .| | } ~ - . 2.A.A.A.A.A.A.A.",
"A.A.A.A.A.A.A.N.6 @ >.f.i.i.i.i.f.S . K A.A.A.A.A.A.A.A.A.A.A.A.A.#.. Z d.i.p.p.s.A O # 4 l x z z z z z 0 $ . L A.A.A.A.A.A.A.A.",
"A.A.A.A.A.A.A.c.% < u.p.p.a.p.p.a.w.$ ; m.A.A.A.A.A.A.A.A.A.A.A.B.w O o.d.p.p.p.p.s.Y ; # X . . . . . . X ; $.A.A.A.A.A.A.A.A.A.",
"A.A.A.A.A.A.A.c.% < i.p.p.p.p.p.i.s.a . *.A.A.A.A.A.A.A.A.A.A.A.5.o e p.p.p.p.p.p.i.h.A o M =.%.%.%.%.*.5.m.A.A.A.A.A.A.A.A.A.A.",
"A.A.A.A.A.A.A.V.w @ :.s.p.p.p.p.i.f...o t A.A.A.A.A.A.A.A.A.A.A.M . T f.i.p.p.p.p.p.y.; @ x.A.A.A.A.A.A.A.A.A.A.A.A.A.A.A.A.A.A.",
"A.A.A.A.A.A.A.A.+.. Z f.p.p.p.p.p.p.u.< O j.A.Z.Z.A.A.A.A.Z.A.z.@ = t.a.p.p.p.p.i.f./ X b A.Z.Z.A.Z.A.Z.A.A.A.A.A.A.A.A.A.A.A.A.",
"A.A.A.A.A.A.A.A.z.$ - r.a.p.p.a.p.i.f.I . G A.A.A.A.A.A.A.A.A.@.. Z f.i.p.p.p.a.i.a.u . 2.A.A.A.A.A.A.A.A.A.A.A.A.A.A.A.A.A.A.A.",
"A.A.A.A.A.A.A.A.A.m . R f.i.p.p.p.p.s.w.$ : 5.7.7.7.7.7.6.6.8.r O o.f.p.p.p.p.p.d.>.@ 1 N.A.A.A.A.A.A.A.A.A.A.A.A.A.A.A.A.A.A.A.",
"A.A.A.A.A.A.A.A.A.5.. 8 a.p.p.p.p.p.p.u., $ O O X o X X X O X % & <.a.p.p.p.p.p.f.Z . @.A.A.A.A.A.A.A.A.A.A.A.A.A.A.A.A.A.A.A.A.",
"A.A.A.A.A.A.A.A.A.B.w O o.d.p.p.p.p.p.t.- % 0 0 0 q u 0 0 0 0 - @ o.d.p.p.p.p.a.t.- $ x.A.A.A.A.A.A.A.A.A.A.A.A.A.A.A.A.A.A.A.A.",
"A.A.A.A.A.A.A.A.A.A.#.. v f.p.i.p.i.h.T + 5 | } | | } } | }  .k X v f.p.i.i.i.h.I X b A.A.A.A.A.A.A.A.A.A.A.A.A.A.A.A.A.A.A.A.A.",
"A.A.A.A.A.A.A.A.A.A.m.- @ D p.f.d.d.) * + ! } [ [ { [ { { [ { _ & # S p.f.f.s.^ % o 0.A.A.A.A.A.A.A.A.A.A.A.A.A.A.A.A.A.A.A.A.A.",
"A.A.A.A.A.A.A.A.A.A.A.2.@ $ 7 D I p $ # j } { { { { { { { { [ | E # $ 7 A D u $ O @.A.A.A.A.A.A.A.A.A.A.A.A.A.A.A.A.A.A.A.A.A.A.",
"A.A.A.A.A.A.A.A.A.A.Z.A.1.$ $ O O $ $ q | { { { { { { { { { { [  .E % $ O + $ $ P A.A.A.A.A.A.A.A.A.A.A.A.A.A.A.A.A.A.A.A.A.A.A.",
"A.A.A.A.A.A.A.A.A.A.A.b.t $ $ 7 7 = @ = ! } [ { { { { { { { { } _ 3 # $ 1 8 = @ ; 7.A.Z.A.A.A.A.A.A.A.A.A.A.A.A.A.A.A.A.A.A.A.A.",
"A.A.A.A.A.A.A.A.A.A.A.t . e :.i.p.w.C + % _ } [ [ [ [ [ [ [ [ { 3 X 8 :.i.i.w.C O % c.A.A.A.A.A.A.A.A.A.A.A.A.A.A.A.A.A.A.A.A.A.",
"A.A.A.A.A.A.A.A.A.A.2.o 6 u.f.p.p.a.f.C X h  .|  .| | | | }  .! + < t.f.p.p.s.f.n . H A.A.A.A.A.A.A.A.A.A.A.A.A.A.A.A.A.A.A.A.A.",
"A.A.A.A.A.A.A.A.A.A.f X ^ f.i.p.p.i.a.q.% = ! ! ! ! ! ! ! ! ~ 5 + ^ f.i.p.p.i.s.w.% ; m.A.A.A.A.A.A.A.A.A.A.A.A.A.A.A.A.A.A.A.A.",
"A.A.A.A.A.A.A.A.A.z.$ ; y.a.p.p.p.p.p.y., $ X X X X X . X X . # % o.d.p.p.a.p.p.d.a . =.A.A.A.A.A.A.A.A.A.A.A.A.A.A.A.A.A.A.A.A.",
"A.A.A.A.A.A.A.A.A.+.. A s.i.p.p.p.p.d.t.= & N G B G B N B G G 6 @ X.d.i.p.p.p.i.f...X d A.A.A.A.A.A.A.A.A.A.A.A.A.A.A.A.A.A.A.A.",
"A.A.A.A.A.A.A.A.N.6 + O.d.p.p.p.p.i.f.( X f A.A.A.A.A.A.A.A.A.$.. Z f.i.p.p.p.p.p.y., O l.A.Z.A.A.A.A.A.A.A.A.A.A.A.A.A.A.A.A.A.",
"A.A.A.A.A.A.A.A.6.X e a.p.p.a.p.p.i.s.a . -.A.Z.A.A.A.A.A.A.A.l.$ = r.a.p.p.p.a.i.f.S . P A.A.A.A.A.A.A.A.A.A.A.A.A.A.A.A.A.A.A.",
"A.A.A.A.A.A.A.A.M . T f.i.p.p.p.p.d.<.$ ; m.A.A.A.A.A.A.A.A.A.A.m X R f.p.p.p.p.p.s.,.# : N.A.A.A.A.A.A.A.A.A.A.A.A.A.A.A.A.A.A.",
"A.A.A.A.A.A.A.x.% = e.a.p.p.p.p.i.f.J . H A.A.A.A.A.A.A.A.A.A.A.4.. i a.p.p.p.p.p.p.a.i . 3.A.A.A.A.A.A.A.A.A.A.A.A.A.A.A.A.A.A.",
"A.A.A.A.A.A.A.$.. v d.i.p.p.p.p.p.i.1 O 0.A.A.A.A.A.A.A.A.A.A.A.N.: $ >.s.p.p.p.p.i.f.^ . m A.A.A.A.A.A.A.A.A.A.A.A.A.A.A.A.A.A.",
"A.A.A.A.A.A.Z.r O o.f.p.p.p.p.p.d.X.O t A.A.A.A.A.A.A.A.A.A.A.A.A.P . A f.p.p.p.p.i.a.t.; $ x.A.A.A.A.A.A.A.A.A.A.A.A.A.A.A.A.A.",
"A.A.A.A.A.A.c.% ; y.a.p.p.p.p.p.d.v . %.A.Z.A.A.A.A.A.A.A.A.A.A.A.l.@ , y.a.p.p.p.p.p.f.n . 3.A.A.A.A.A.A.A.A.A.A.A.A.A.A.A.A.A.",
"A.A.A.A.A.A.z.@ 7 i.p.p.p.p.p.a.w.& & b.A.A.A.A.A.A.A.A.A.A.A.A.A.A.f o / f.i.p.a.p.i.s.A . 1.A.A.A.A.A.A.A.A.A.A.A.A.A.A.A.A.A.",
"A.A.A.A.A.A.M.; % e.s.i.p.p.i.f.Y . B A.A.A.A.A.A.A.A.A.A.A.A.A.A.A.-.. p d.u.p.p.p.i.a.e o 9.A.Z.A.A.A.A.A.A.A.A.A.A.A.A.A.A.A.",
"A.A.A.A.A.A.A.M . Z f.a.p.p.f.t., o 9.A.A.A.A.A.A.A.A.A.A.A.A.A.A.A.m.; $ ..h.p.p.a.h./ @ 1 N.A.A.A.A.A.A.A.A.A.A.A.A.A.A.A.A.A.",
"A.A.A.A.A.A.A.l.$ $ Z w.p.i.o.7 . b A.A.A.A.A.A.A.A.A.A.A.A.A.A.A.Z.A.%.. - ^ t.p.y.Y = . =.A.A.A.A.A.A.A.A.A.A.A.A.A.A.A.A.A.A.",
"A.A.A.A.A.A.A.A.4.$ . % 7 < @ . r n.A.A.A.A.A.A.A.A.A.A.A.A.A.A.A.A.A.A.K o o ; 7 - X o P A.A.A.A.A.A.A.A.A.A.A.A.A.A.A.A.A.A.A.",
"A.A.A.A.A.A.A.A.A.l.M ; # $ w %.V.A.A.A.A.A.A.A.A.A.A.A.A.A.A.A.A.A.A.A.A.4.y % # = f 6.A.A.A.A.A.A.A.A.A.A.A.A.A.A.A.A.A.A.A.A.",
"A.A.A.A.A.A.A.A.A.A.A.M.z.x.V.A.A.A.A.A.A.A.A.A.A.A.A.A.A.A.A.A.A.A.A.A.A.A.A.b.l.n.A.A.A.A.A.A.A.A.A.A.A.A.A.A.A.A.A.A.A.A.A.A.",
"A.A.A.A.A.A.A.A.A.A.A.A.A.A.A.A.A.A.A.A.A.A.A.A.A.A.A.A.A.A.A.A.A.A.A.A.A.A.A.A.A.A.A.A.A.A.A.A.A.A.A.A.A.A.A.A.A.A.A.A.A.A.A.A.",
"A.A.A.A.A.A.A.A.A.A.A.A.A.A.A.A.A.A.A.A.A.A.A.A.A.A.A.A.A.A.A.A.A.A.A.A.A.A.A.A.A.A.A.A.A.A.A.A.A.A.A.A.A.A.A.A.A.A.A.A.A.A.A.A.",
"A.A.A.A.A.A.A.A.A.A.A.A.A.A.A.A.A.A.A.A.A.A.A.A.A.A.A.A.A.A.A.A.A.A.A.A.A.A.A.A.A.A.A.A.A.A.A.A.A.A.A.A.A.A.A.A.A.A.A.A.A.A.A.A.",
"A.A.A.A.A.A.A.A.A.A.A.A.A.A.A.A.A.A.A.A.A.A.A.A.A.A.A.A.A.A.A.A.A.A.A.A.A.A.A.A.A.A.A.A.A.A.A.A.A.A.A.A.A.A.A.A.A.A.A.A.A.A.A.A.",
"A.A.A.A.A.A.A.A.A.A.A.A.A.A.A.A.A.A.A.A.A.A.A.A.A.A.A.A.A.A.A.A.A.A.A.A.A.A.A.A.A.A.A.A.A.A.A.A.A.A.A.A.A.A.A.A.A.A.A.A.A.A.A.A.",
"A.A.A.A.A.A.A.A.A.A.A.A.A.A.A.A.A.A.A.A.A.A.A.A.A.A.A.A.A.A.A.A.A.A.A.A.A.A.A.A.A.A.A.A.A.A.A.A.A.A.A.A.A.A.A.A.A.A.A.A.A.A.A.A."
};
