/* XPM */
static char *player__37_1710156995[] = {
/* columns rows colors chars-per-pixel */
"64 64 152 2 ",
"   c #00035B",
".  c #001564",
"X  c #001A66",
"o  c #001768",
"O  c #001C6A",
"+  c #002166",
"@  c #00236D",
"#  c #01286E",
"$  c #012671",
"%  c #052A74",
"&  c #092C76",
"*  c #062A79",
"=  c #0C2E7A",
"-  c #0E317B",
";  c #12327C",
":  c #18357D",
">  c #19397F",
",  c #0D2F80",
"<  c #0E3083",
"1  c #153481",
"2  c #1A3683",
"3  c #1C3A83",
"4  c #16358B",
"5  c #19368E",
"6  c #1E3994",
"7  c #213C85",
"8  c #253E8A",
"9  c #283E8C",
"0  c #253D9C",
"q  c #283EA1",
"w  c #254285",
"e  c #294587",
"r  c #2A428C",
"t  c #2E4A8B",
"y  c #334E8D",
"u  c #36518F",
"i  c #2F4292",
"p  c #324593",
"a  c #354895",
"s  c #394A97",
"d  c #3B4B9A",
"f  c #3A5592",
"g  c #2C42A6",
"h  c #2E43A8",
"j  c #3245AD",
"k  c #3546B2",
"l  c #3D4CBD",
"z  c #414E9E",
"x  c #425B96",
"c  c #44519F",
"v  c #435E98",
"b  c #4E659C",
"n  c #52669E",
"m  c #51689E",
"M  c #4652A1",
"N  c #4D56A6",
"B  c #4F58A7",
"V  c #5057A9",
"C  c #535AAA",
"Z  c #595CAF",
"A  c #5B5EB0",
"S  c #576BA0",
"D  c #596DA2",
"F  c #5D72A4",
"G  c #5E60B2",
"H  c #6376A7",
"J  c #667AA9",
"K  c #697CAB",
"L  c #6363B6",
"P  c #6666B8",
"I  c #6867BA",
"U  c #6B69BB",
"Y  c #716DBF",
"T  c #424DC4",
"R  c #454FC8",
"E  c #4450C6",
"W  c #4752CA",
"Q  c #4953CD",
"!  c #4B54D2",
"~  c #5257DA",
"^  c #565ADE",
"/  c #746EC1",
"(  c #7570C3",
")  c #7B72C6",
"_  c #7D74C8",
"`  c #575AE0",
"'  c #5B5DE6",
"]  c #5F5EEB",
"[  c #6160ED",
"{  c #6663F5",
"}  c #6864F7",
"|  c #6C66FC",
" . c #6F68FF",
".. c #726AFF",
"X. c #8276CB",
"o. c #8679CE",
"O. c #8879CF",
"+. c #8B7CD2",
"@. c #917FD5",
"#. c #6E80AE",
"$. c #7081AE",
"%. c #6D82B0",
"&. c #7285B1",
"*. c #778AB4",
"=. c #7B8DB6",
"-. c #8292B9",
";. c #8B9ABE",
":. c #8E9EC1",
">. c #909FC1",
",. c #9280D6",
"<. c #9683DA",
"1. c #9B86DD",
"2. c #9E88DF",
"3. c #93A2C3",
"4. c #9BA8C7",
"5. c #9DAAC8",
"6. c #A2AECB",
"7. c #A6B2CE",
"8. c #A8B3CF",
"9. c #ABB6D1",
"0. c #AEB8D2",
"q. c #B2BCD4",
"w. c #A48BE3",
"e. c #AA8FE7",
"r. c #AB8FE8",
"t. c #AD91EA",
"y. c #B394EE",
"u. c #B697F0",
"i. c #B897F1",
"p. c #BB9AF4",
"a. c #C09DF7",
"s. c #C39EF9",
"d. c #C6A0FB",
"f. c #CAA2FD",
"g. c #D1A7FF",
"h. c #B7C1D7",
"j. c #BAC4D9",
"k. c #C2CBDD",
"l. c #C7CFE0",
"z. c #CCD3E2",
"x. c #D4DAE7",
"c. c #D6DBE8",
"v. c #D9DEEA",
"b. c #DDE1EC",
"n. c #E2E6EF",
"m. c #E3E7F0",
"M. c #E5E9F1",
"N. c #E9ECF3",
"B. c #EFF1F6",
"V. c #F1F3F7",
"C. c #F3F5F8",
"Z. c #FFFFFF",
/* pixels */
"Z.Z.Z.Z.Z.Z.Z.Z.Z.Z.Z.Z.Z.Z.Z.Z.Z.Z.Z.Z.Z.Z.Z.Z.Z.Z.Z.Z.Z.Z.Z.Z.Z.Z.Z.Z.Z.Z.Z.Z.Z.Z.Z.Z.Z.Z.Z.Z.Z.Z.Z.Z.Z.Z.Z.Z.Z.Z.Z.Z.Z.Z.Z.Z.",
"Z.Z.Z.Z.Z.Z.Z.Z.Z.Z.Z.Z.Z.Z.Z.Z.Z.Z.Z.Z.Z.Z.Z.Z.Z.Z.Z.Z.Z.Z.Z.Z.Z.Z.Z.Z.Z.Z.Z.Z.Z.Z.Z.Z.Z.Z.Z.Z.Z.Z.Z.Z.Z.Z.Z.Z.Z.Z.Z.Z.Z.Z.Z.Z.",
"Z.Z.Z.Z.Z.Z.Z.Z.Z.Z.Z.Z.Z.Z.Z.Z.Z.Z.Z.Z.Z.Z.Z.Z.Z.Z.Z.Z.Z.Z.Z.Z.Z.Z.Z.Z.Z.Z.Z.Z.Z.Z.Z.Z.Z.Z.Z.Z.Z.Z.Z.Z.Z.Z.Z.Z.Z.Z.Z.Z.Z.Z.Z.Z.",
"Z.Z.Z.Z.Z.Z.Z.Z.Z.Z.Z.Z.Z.Z.Z.Z.Z.Z.Z.Z.Z.Z.Z.Z.Z.Z.Z.Z.Z.Z.Z.Z.Z.Z.Z.Z.Z.Z.Z.Z.Z.Z.Z.Z.Z.Z.Z.Z.Z.Z.Z.Z.Z.Z.Z.Z.Z.Z.Z.Z.Z.Z.Z.Z.",
"Z.Z.Z.Z.Z.Z.Z.Z.Z.Z.Z.Z.Z.Z.Z.Z.Z.Z.Z.Z.Z.Z.Z.Z.Z.Z.Z.Z.Z.Z.Z.Z.Z.Z.Z.Z.Z.Z.Z.Z.Z.Z.Z.Z.Z.Z.Z.Z.Z.Z.Z.Z.Z.Z.Z.Z.Z.Z.Z.Z.Z.Z.Z.Z.",
"Z.Z.Z.Z.Z.Z.Z.Z.Z.Z.Z.Z.Z.Z.Z.Z.Z.Z.Z.Z.Z.Z.Z.Z.Z.Z.Z.Z.Z.Z.Z.Z.Z.Z.Z.Z.Z.B.N.C.Z.Z.Z.Z.Z.Z.Z.Z.Z.Z.Z.Z.Z.Z.Z.Z.Z.Z.Z.Z.Z.Z.Z.Z.",
"Z.Z.Z.Z.Z.Z.Z.Z.Z.Z.Z.Z.Z.Z.Z.Z.Z.Z.Z.Z.Z.Z.Z.Z.Z.Z.Z.Z.Z.Z.Z.Z.Z.Z.Z.5.f 2 ; e #.n.Z.C.Z.Z.Z.Z.Z.Z.Z.Z.Z.Z.Z.Z.Z.Z.Z.Z.Z.Z.Z.Z.",
"Z.Z.Z.Z.Z.Z.Z.Z.Z.Z.Z.Z.Z.Z.Z.Z.Z.Z.Z.Z.Z.Z.Z.Z.Z.Z.Z.Z.Z.Z.Z.Z.Z.C.D O X & = @ . > k.Z.Z.Z.Z.Z.Z.Z.Z.Z.Z.Z.Z.Z.Z.Z.Z.Z.Z.Z.Z.Z.",
"Z.Z.Z.Z.Z.Z.Z.Z.Z.Z.Z.Z.Z.Z.Z.Z.Z.Z.Z.Z.Z.Z.Z.Z.Z.Z.Z.Z.Z.Z.Z.Z.Z.J . ; ( t.t.,.a O : x.Z.Z.Z.Z.Z.Z.Z.Z.Z.Z.Z.Z.Z.Z.Z.Z.Z.Z.Z.Z.",
"Z.Z.Z.Z.Z.Z.Z.Z.Z.Z.Z.Z.Z.Z.Z.Z.Z.Z.Z.Z.Z.Z.Z.Z.Z.Z.Z.Z.Z.Z.Z.Z.k.@ & @.f.a.a.d.a.d o w N.Z.Z.Z.Z.Z.Z.Z.Z.Z.Z.Z.Z.Z.Z.Z.Z.Z.Z.Z.",
"Z.Z.Z.Z.Z.Z.Z.Z.Z.Z.Z.Z.Z.Z.Z.Z.Z.Z.Z.Z.Z.Z.Z.Z.Z.Z.Z.Z.Z.Z.C.Z.*.. C f.i.p.p.p.p.i.r o f C.Z.Z.Z.Z.Z.Z.Z.Z.Z.Z.Z.Z.Z.Z.Z.Z.Z.Z.",
"Z.Z.Z.Z.Z.Z.Z.Z.Z.Z.Z.Z.Z.Z.Z.Z.Z.Z.Z.Z.Z.Z.Z.Z.Z.Z.Z.Z.Z.Z.Z.Z.D . ) f.i.p.p.p.i.d.t.> . D Z.Z.Z.Z.Z.Z.Z.Z.Z.Z.Z.Z.Z.Z.Z.Z.Z.Z.",
"Z.Z.Z.Z.Z.Z.Z.Z.Z.Z.Z.Z.Z.Z.Z.Z.Z.Z.Z.Z.Z.Z.Z.Z.Z.Z.Z.Z.Z.Z.Z.Z.H . ( f.i.p.p.p.p.i.d.1.- o -.Z.Z.Z.Z.Z.Z.Z.Z.Z.Z.Z.Z.Z.Z.Z.Z.Z.",
"Z.Z.Z.Z.Z.Z.Z.Z.Z.Z.Z.Z.Z.Z.Z.Z.Z.Z.Z.Z.Z.Z.Z.Z.Z.Z.Z.Z.Z.Z.Z.Z.;.. d f.p.p.p.p.p.p.i.f.X.# & v.Z.C.Z.Z.Z.Z.Z.Z.Z.Z.Z.Z.Z.Z.Z.Z.",
"Z.Z.Z.Z.Z.Z.Z.Z.Z.Z.Z.Z.Z.Z.Z.Z.Z.Z.Z.Z.Z.Z.Z.Z.Z.Z.Z.Z.Z.Z.Z.Z.v.= @ / f.i.p.p.a.p.p.u.f.N . :.Z.Z.Z.Z.Z.Z.Z.Z.Z.Z.Z.Z.Z.Z.Z.Z.",
"Z.Z.Z.Z.Z.Z.Z.Z.Z.Z.Z.Z.Z.Z.Z.Z.Z.Z.Z.Z.Z.Z.Z.Z.Z.Z.Z.Z.Z.Z.Z.Z.Z.>.O % +.f.i.p.i.i.p.f.t.N O f 5.6.q.k.x.N.Z.Z.Z.Z.Z.Z.Z.Z.Z.Z.",
"Z.Z.Z.Z.Z.Z.Z.Z.k.-.C.Z.Z.Z.Z.Z.Z.Z.Z.Z.Z.Z.Z.Z.Z.Z.Z.Z.Z.Z.Z.Z.Z.Z.K O = w.d.s.f.f.a.Z % @ # @ . o + # % 2 F v.Z.Z.Z.Z.Z.Z.Z.Z.",
"Z.Z.Z.Z.Z.Z.Z.Z.b   4.Z.Z.Z.Z.Z.Z.Z.Z.Z.Z.Z.Z.Z.Z.Z.Z.Z.Z.Z.Z.Z.Z.Z.Z.n . 3 e.@.L L d O # 0 j j h 0 6 4 1 # o = j.Z.C.Z.Z.Z.Z.Z.",
"Z.Z.Z.Z.Z.Z.Z.Z.5.O t Z.Z.C.Z.Z.Z.Z.Z.Z.Z.Z.Z.Z.Z.Z.Z.Z.Z.Z.Z.Z.Z.Z.Z.N.f @ - # X @ @ = !  . . . .| | { { ^ 0 @ - b.Z.Z.Z.Z.Z.Z.",
"Z.Z.Z.Z.Z.Z.Z.Z.C.w o 0.Z.Z.Z.Z.Z.Z.Z.Z.Z.Z.Z.Z.Z.Z.Z.Z.Z.Z.Z.Z.Z.Z.Z.Z.8.@ % 2 N ; # R ..{ { { } } { } } | | 0 . H Z.Z.Z.Z.Z.Z.",
"Z.Z.Z.Z.Z.Z.Z.Z.Z.3.. u :.$.>.z.Z.Z.Z.Z.Z.Z.Z.Z.Z.Z.Z.Z.Z.Z.Z.Z.Z.Z.Z.N.r O c p.t.& = { } } } } } } } } } {  .^ # 3 V.Z.Z.Z.Z.Z.",
"Z.Z.Z.Z.Z.Z.Z.C.Z.j.% $ . . . % F N.Z.Z.Z.Z.Z.Z.Z.Z.Z.Z.Z.Z.Z.Z.Z.Z.Z.;.. 9 p.f.@.# 4 } } } } } } } } } } { } [ = & b.Z.Z.Z.Z.Z.",
"Z.Z.Z.Z.Z.Z.Z.Z.z.; @ : C P M & . u V.Z.Z.Z.Z.Z.Z.Z.Z.Z.Z.Z.Z.Z.Z.Z.B.w O X.f.p.w.& * [ } } } } } } } } } { | [ * ; M.Z.Z.Z.Z.Z.",
"Z.Z.Z.Z.Z.Z.Z.Z.y o d y.d.f.f.2.7 . &.Z.Z.Z.Z.Z.Z.Z.Z.Z.Z.Z.Z.Z.Z.Z.:.. r p.p.p.a.p O k  .| { { } { { { { { ..T O u Z.Z.Z.Z.Z.Z.",
"Z.Z.Z.Z.Z.Z.Z.q.O 3 i.s.i.p.i.f.@.$ = b.Z.Z.Z.Z.Z.Z.Z.Z.Z.Z.Z.Z.Z.B.w O _ f.i.i.d.+.@ % k { | |  ...| .. . .~ < o 3.Z.Z.Z.Z.Z.Z.",
"Z.Z.Z.Z.Z.C.Z.*.. Z f.i.p.p.p.i.d.z . *.Z.Z.Z.Z.Z.Z.Z.Z.Z.Z.Z.C.Z.>.o r p.p.p.p.i.f.U @ @ = 6 i h j l E E j & . m Z.Z.Z.Z.Z.Z.Z.",
"Z.Z.Z.Z.Z.Z.Z.K . Y f.i.p.p.p.i.d.,.@ ; n.Z.Z.Z.Z.Z.Z.Z.Z.Z.Z.Z.C.e O ) f.i.p.p.p.p.d.X.& $ X o . . X X X X O J C.Z.Z.Z.Z.Z.Z.Z.",
"Z.Z.Z.Z.Z.Z.Z.-.. B f.i.a.p.p.a.i.s.d . =.Z.Z.Z.Z.Z.Z.Z.Z.Z.Z.Z.3.. r p.p.a.p.p.p.i.s.@.# 3 9.7.3.-.#.F F *.k.Z.Z.Z.Z.Z.Z.Z.Z.Z.",
"Z.Z.Z.Z.Z.Z.Z.k.@ = e.a.i.p.p.p.i.f.+.@ > M.Z.Z.Z.C.Z.Z.C.Z.Z.B.r O ) f.p.p.p.p.p.p.s.p . -.Z.Z.Z.Z.Z.Z.Z.Z.Z.Z.Z.Z.Z.Z.Z.Z.Z.Z.",
"Z.Z.Z.Z.Z.Z.Z.Z.b . L f.i.p.p.p.p.i.s.a . ;.Z.Z.Z.Z.Z.Z.Z.Z.Z.7.o 9 p.p.p.p.p.p.i.d.+.@ 2 N.Z.C.Z.C.Z.Z.Z.Z.Z.Z.Z.Z.Z.Z.Z.Z.Z.Z.",
"Z.Z.Z.Z.Z.Z.Z.Z.j.O ; t.s.p.p.p.p.p.f._ O t 9.8.8.8.8.8.8.7.q.v X U f.i.p.p.p.p.p.a.a . -.Z.Z.Z.Z.Z.Z.Z.Z.Z.Z.Z.Z.Z.Z.Z.Z.Z.Z.Z.",
"Z.Z.Z.Z.Z.Z.Z.Z.Z.v . P f.i.p.p.p.p.s.w.& $ o X o X X X o X X % # O.d.i.s.p.p.p.d.O.@ > N.Z.Z.Z.Z.Z.Z.Z.Z.Z.Z.Z.Z.Z.Z.Z.Z.Z.Z.Z.",
"Z.Z.Z.Z.Z.Z.Z.Z.Z.q.O > y.a.p.p.p.p.s.2.% & 0 0 0 0 0 0 0 0 0 1 @ / d.i.p.p.p.i.s.a . -.Z.Z.Z.Z.Z.Z.Z.Z.Z.Z.Z.Z.Z.Z.Z.Z.Z.Z.Z.Z.",
"Z.Z.Z.Z.Z.Z.Z.Z.Z.Z.f o I f.u.i.i.y.g.I + 0  .| | | | | | | ..l X a f.p.i.i.i.f.+.@ : M.Z.Z.Z.Z.Z.Z.Z.Z.Z.Z.Z.Z.Z.Z.Z.Z.Z.Z.Z.Z.",
"Z.Z.Z.Z.Z.Z.Z.Z.Z.Z.9.O - +.f.f.f.f.,.= @ W | } } } } { { { | ] - @ Z a.f.f.f.2.3 . -.Z.Z.Z.Z.Z.Z.Z.Z.Z.Z.Z.Z.Z.Z.Z.Z.Z.Z.Z.Z.Z.",
"Z.Z.Z.Z.Z.Z.Z.Z.Z.Z.Z.F o & V o.O.C & @ 0 | } } } } } } } } { | R # # 9 P / M - O f C.Z.Z.Z.Z.Z.Z.Z.Z.Z.Z.Z.Z.Z.Z.Z.Z.Z.Z.Z.Z.Z.",
"Z.Z.Z.Z.Z.Z.Z.Z.Z.Z.Z.Z.F $ @ O @ @ $ 0 | } } } } } } } { | { { ..T % $ O X # $ f Z.Z.Z.Z.Z.Z.Z.Z.Z.Z.Z.Z.Z.Z.Z.Z.Z.Z.Z.Z.Z.Z.Z.",
"Z.Z.Z.Z.Z.Z.Z.Z.Z.Z.Z.v.y @ % 3 8 & @ = Q | } } } } } } { | { | ' 4 @ % 3 9 = @ : q.Z.Z.Z.Z.Z.Z.Z.Z.Z.Z.Z.Z.Z.Z.Z.Z.Z.Z.Z.Z.Z.Z.",
"Z.Z.Z.Z.Z.Z.Z.Z.Z.Z.C.y . 9 <.i.p.w.z @ & ' | } { { { { { { } } 5 X 9 @.i.p.w.M O & x.Z.Z.Z.Z.Z.Z.Z.Z.Z.Z.Z.Z.Z.Z.Z.Z.Z.Z.Z.Z.Z.",
"Z.Z.Z.Z.Z.Z.Z.Z.Z.Z.5.o 7 y.f.p.p.s.s.z X g ..|  . . .|  .| ..R @ 3 y.f.p.p.s.f.M . F Z.Z.Z.Z.Z.Z.Z.Z.Z.Z.Z.Z.Z.Z.Z.Z.Z.Z.Z.Z.Z.",
"Z.Z.Z.Z.Z.Z.Z.Z.Z.Z.x . / f.u.p.p.i.s.2.$ - W Q W W W W W W Q 8 + / f.u.p.a.i.s.w.$ ; n.Z.Z.Z.Z.Z.Z.Z.Z.Z.Z.Z.Z.Z.Z.Z.Z.Z.Z.Z.Z.",
"Z.Z.Z.Z.Z.Z.Z.Z.Z.z.# ; t.a.p.a.p.p.p.y.1 $ X o X o X X X X X # $ @.s.i.p.p.p.p.s.s . ;.Z.Z.Z.Z.Z.Z.Z.Z.Z.Z.Z.Z.Z.Z.Z.Z.Z.Z.Z.Z.",
"Z.Z.Z.Z.Z.Z.Z.Z.Z.$.. N f.i.p.p.p.p.a.r.= & n D S S n n m n F 3 @ X.f.i.p.p.p.i.s._ O u Z.Z.Z.Z.Z.Z.Z.Z.Z.Z.Z.Z.Z.Z.Z.Z.Z.Z.Z.Z.",
"Z.Z.Z.Z.Z.Z.Z.Z.V.7 @ @.s.i.p.p.p.p.f._ o f Z.Z.Z.Z.Z.Z.Z.Z.Z.=.. V f.i.p.a.p.p.a.y.2 @ j.Z.Z.Z.Z.Z.Z.Z.Z.Z.Z.Z.Z.Z.Z.Z.Z.Z.Z.Z.",
"Z.Z.Z.Z.Z.Z.Z.Z.7.o 9 p.p.p.p.p.p.p.s.s . >.Z.C.Z.Z.Z.Z.Z.Z.Z.z.$ ; y.a.i.p.p.p.p.f.Z . J Z.C.Z.Z.Z.Z.Z.Z.Z.Z.Z.Z.Z.Z.Z.Z.Z.Z.Z.",
"Z.Z.Z.Z.Z.Z.Z.Z.b . U f.p.a.p.p.p.s.2.% ; n.Z.Z.Z.Z.Z.Z.Z.Z.Z.Z.x . / f.i.p.p.a.p.s.<.@ > M.Z.Z.Z.Z.Z.Z.Z.Z.Z.Z.Z.Z.Z.Z.Z.Z.Z.Z.",
"Z.Z.Z.Z.Z.Z.Z.x.% = e.s.p.p.p.p.i.f.A . F Z.Z.Z.Z.Z.Z.Z.Z.Z.C.Z.4.. p s.p.p.p.p.p.p.s.p . 4.Z.Z.Z.Z.Z.Z.Z.Z.Z.Z.Z.Z.Z.Z.Z.Z.Z.Z.",
"Z.Z.Z.Z.Z.Z.Z.=.. M s.p.p.p.p.p.p.u.3 O h.Z.Z.Z.Z.Z.Z.Z.Z.Z.Z.Z.N.> $ <.s.p.p.p.p.i.f./ o v Z.Z.Z.Z.Z.Z.Z.Z.Z.Z.Z.Z.Z.Z.Z.Z.Z.Z.",
"Z.Z.Z.Z.Z.Z.C.t O o.f.i.p.p.p.p.d.X.O y C.Z.Z.Z.Z.Z.Z.Z.Z.Z.Z.Z.Z.J . Z f.i.p.p.p.p.a.t.; $ z.Z.Z.Z.Z.Z.Z.Z.Z.Z.Z.Z.Z.Z.Z.Z.Z.Z.",
"Z.Z.Z.Z.Z.Z.c.% 1 y.a.p.p.p.p.i.d.z . -.Z.Z.Z.Z.Z.Z.Z.Z.Z.Z.Z.Z.Z.k.@ 1 y.s.p.p.p.p.i.d.z . 5.Z.Z.Z.Z.Z.Z.Z.Z.Z.Z.Z.Z.Z.Z.Z.Z.Z.",
"Z.Z.Z.Z.Z.Z.l.# 7 p.p.p.p.p.p.s.w.& & v.Z.Z.Z.Z.Z.Z.Z.Z.Z.Z.Z.Z.Z.Z.f o _ d.i.p.p.a.i.f.C . 3.Z.Z.Z.Z.Z.Z.Z.Z.Z.Z.Z.Z.Z.Z.Z.Z.Z.",
"Z.Z.Z.Z.Z.Z.M.; % w.s.i.p.p.i.f.P . n Z.Z.Z.Z.Z.Z.Z.Z.Z.Z.Z.Z.Z.Z.Z.>.. d d.i.p.p.p.i.a.r o 0.Z.C.Z.Z.Z.Z.Z.Z.Z.Z.Z.Z.Z.Z.Z.Z.Z.",
"Z.Z.Z.Z.Z.Z.Z.b . N f.a.p.p.f.t.1 O 0.Z.Z.Z.Z.Z.Z.Z.Z.Z.Z.Z.Z.Z.Z.Z.M.; # X.g.p.p.p.g._ @ 2 N.Z.Z.Z.Z.Z.Z.Z.Z.Z.Z.Z.Z.Z.Z.Z.Z.Z.",
"Z.Z.Z.Z.Z.Z.Z.k.$ @ N e.p.i.+.8 . x Z.Z.Z.Z.Z.Z.Z.Z.Z.Z.Z.Z.Z.Z.Z.C.Z.-.. - Y y.p.y.U & . :.Z.Z.Z.Z.Z.Z.Z.Z.Z.Z.Z.Z.Z.Z.Z.Z.Z.Z.",
"Z.Z.Z.Z.Z.Z.Z.Z.5.$ o & 8 2 @ . t n.Z.Z.Z.Z.Z.Z.Z.Z.Z.Z.Z.Z.Z.Z.Z.Z.Z.Z.H o o ; 8 = X O #.Z.Z.Z.Z.Z.Z.Z.Z.Z.Z.Z.Z.Z.Z.Z.Z.Z.Z.Z.",
"Z.Z.Z.Z.Z.Z.Z.Z.Z.l.b - O # w =.B.Z.Z.Z.Z.Z.Z.Z.Z.Z.Z.Z.Z.Z.Z.Z.Z.Z.Z.Z.Z.6.u % @ & f 8.Z.Z.Z.Z.Z.Z.Z.Z.Z.Z.Z.Z.Z.Z.Z.Z.Z.Z.Z.Z.",
"Z.Z.Z.Z.Z.Z.Z.Z.Z.Z.Z.b.l.z.C.Z.Z.Z.Z.Z.Z.Z.Z.Z.Z.Z.Z.Z.Z.Z.Z.Z.Z.Z.Z.Z.Z.Z.Z.v.k.b.Z.Z.Z.Z.Z.Z.Z.Z.Z.Z.Z.Z.Z.Z.Z.Z.Z.Z.Z.Z.Z.Z.",
"Z.Z.Z.Z.Z.Z.Z.Z.Z.Z.Z.Z.Z.Z.Z.Z.Z.Z.Z.Z.Z.Z.Z.Z.Z.Z.Z.Z.Z.Z.Z.Z.Z.Z.Z.Z.Z.C.Z.Z.Z.Z.Z.Z.Z.Z.Z.Z.Z.Z.Z.Z.Z.Z.Z.Z.Z.Z.Z.Z.Z.Z.Z.Z.",
"Z.Z.Z.Z.Z.Z.Z.Z.Z.Z.Z.Z.Z.Z.Z.Z.Z.Z.Z.Z.Z.Z.Z.Z.Z.Z.Z.Z.Z.Z.Z.Z.Z.Z.Z.Z.Z.Z.Z.Z.Z.Z.Z.Z.Z.Z.Z.Z.Z.Z.Z.Z.Z.Z.Z.Z.Z.Z.Z.Z.Z.Z.Z.Z.",
"Z.Z.Z.Z.Z.Z.Z.Z.Z.Z.Z.Z.Z.Z.Z.Z.Z.Z.Z.Z.Z.Z.Z.Z.Z.Z.Z.Z.Z.Z.Z.Z.Z.Z.Z.Z.Z.Z.Z.Z.Z.Z.Z.Z.Z.Z.Z.Z.Z.Z.Z.Z.Z.Z.Z.Z.Z.Z.Z.Z.Z.Z.Z.Z.",
"Z.Z.Z.Z.Z.Z.Z.Z.Z.Z.Z.Z.Z.Z.Z.Z.Z.Z.Z.Z.Z.Z.Z.Z.Z.Z.Z.Z.Z.Z.Z.Z.Z.Z.Z.Z.Z.Z.Z.Z.Z.Z.Z.Z.Z.Z.Z.Z.Z.Z.Z.Z.Z.Z.Z.Z.Z.Z.Z.Z.Z.Z.Z.Z.",
"Z.Z.Z.Z.Z.Z.Z.Z.Z.Z.Z.Z.Z.Z.Z.Z.Z.Z.Z.Z.Z.Z.Z.Z.Z.Z.Z.Z.Z.Z.Z.Z.Z.Z.Z.Z.Z.Z.Z.Z.Z.Z.Z.Z.Z.Z.Z.Z.Z.Z.Z.Z.Z.Z.Z.Z.Z.Z.Z.Z.Z.Z.Z.Z.",
"Z.Z.Z.Z.Z.Z.Z.Z.Z.Z.Z.Z.Z.Z.Z.Z.Z.Z.Z.Z.Z.Z.Z.Z.Z.Z.Z.Z.Z.Z.Z.Z.Z.Z.Z.Z.Z.Z.Z.Z.Z.Z.Z.Z.Z.Z.Z.Z.Z.Z.Z.Z.Z.Z.Z.Z.Z.Z.Z.Z.Z.Z.Z.Z.",
"Z.Z.Z.Z.Z.Z.Z.Z.Z.Z.Z.Z.Z.Z.Z.Z.Z.Z.Z.Z.Z.Z.Z.Z.Z.Z.Z.Z.Z.Z.Z.Z.Z.Z.Z.Z.Z.Z.Z.Z.Z.Z.Z.Z.Z.Z.Z.Z.Z.Z.Z.Z.Z.Z.Z.Z.Z.Z.Z.Z.Z.Z.Z.Z."
};
