/* XPM */
static char *player__20_1710156993[] = {
/* columns rows colors chars-per-pixel */
"64 64 146 2 ",
"   c #000C62",
".  c #001564",
"X  c #001965",
"o  c #001769",
"O  c #001C6A",
"+  c #002066",
"@  c #00236D",
"#  c #01286F",
"$  c #012571",
"%  c #052974",
"&  c #092C76",
"*  c #072B78",
"=  c #0C2E79",
"-  c #0E317A",
";  c #12337C",
":  c #1A397F",
">  c #0F3080",
",  c #143383",
"<  c #193683",
"1  c #1D3C83",
"2  c #143389",
"3  c #19368F",
"4  c #1E3994",
"5  c #213B86",
"6  c #253E8B",
"7  c #293F8D",
"8  c #253D9D",
"9  c #283FA0",
"0  c #244285",
"q  c #2B438D",
"w  c #2C498A",
"e  c #324E8D",
"r  c #37518F",
"t  c #2E4491",
"y  c #334693",
"u  c #3C4C9A",
"i  c #395492",
"p  c #2A41A2",
"a  c #2F43AA",
"s  c #3245AE",
"d  c #3445B1",
"f  c #3949B7",
"g  c #3D4BBC",
"h  c #424E9E",
"j  c #445C97",
"k  c #42509F",
"l  c #445F99",
"z  c #476099",
"x  c #4B639B",
"c  c #51679E",
"v  c #526A9F",
"b  c #4551A1",
"n  c #4C55A5",
"m  c #4F58A7",
"M  c #5057A8",
"N  c #535AAA",
"B  c #595EAE",
"V  c #5B5EB1",
"C  c #566CA1",
"Z  c #596FA3",
"A  c #5D73A5",
"S  c #5E61B2",
"D  c #6175A6",
"F  c #667BAA",
"G  c #6B7FAD",
"H  c #6464B6",
"J  c #6666B9",
"K  c #6865B9",
"L  c #6C69BC",
"P  c #716CBF",
"I  c #3E4BC0",
"U  c #434EC5",
"Y  c #4450C4",
"T  c #4953CD",
"R  c #565ADF",
"E  c #716DC0",
"W  c #7770C4",
"Q  c #7B73C7",
"!  c #5B5CE6",
"~  c #5F5FEA",
"^  c #6160EE",
"/  c #6663F5",
"(  c #6864F7",
")  c #6C66FC",
"_  c #6F68FF",
"`  c #736AFF",
"'  c #8276CB",
"]  c #8779CF",
"[  c #8C7DD3",
"{  c #907FD5",
"}  c #7082AF",
"|  c #6F83B0",
" . c #7385B2",
".. c #7488B3",
"X. c #7B8DB6",
"o. c #808FB7",
"O. c #8595BB",
"+. c #8A9ABE",
"@. c #8C9DC1",
"#. c #9381D7",
"$. c #9783DA",
"%. c #9B85DD",
"&. c #9E88DF",
"*. c #A088DF",
"=. c #95A4C5",
"-. c #98A6C5",
";. c #9EABCA",
":. c #A2AECC",
">. c #A6B2CE",
",. c #A8B3CE",
"<. c #ABB7D0",
"1. c #ADB8D1",
"2. c #B2BCD4",
"3. c #9F88E0",
"4. c #A38AE2",
"5. c #A98FE7",
"6. c #AA8FE8",
"7. c #AC90E9",
"8. c #B394EE",
"9. c #B797F0",
"0. c #B897F1",
"q. c #BB9AF3",
"w. c #C09DF7",
"e. c #C39EF9",
"r. c #C6A0FB",
"t. c #CAA2FD",
"y. c #D0A6FF",
"u. c #D2A8FF",
"i. c #BCC5DA",
"p. c #C3CBDD",
"a. c #C6CEE0",
"s. c #CCD3E3",
"d. c #D0D7E5",
"f. c #D2D9E6",
"g. c #D6DBE8",
"h. c #DADEEA",
"j. c #DDE1EC",
"k. c #E1E5EE",
"l. c #E4E7F0",
"z. c #E6EAF1",
"x. c #EBEEF4",
"c. c #EEF1F6",
"v. c #F0F3F7",
"b. c #F3F5F9",
"n. c #F7F8FB",
"m. c #FFFFFF",
/* pixels */
"m.m.m.m.m.m.m.m.m.m.m.m.m.m.m.m.m.m.m.m.m.m.m.m.m.m.m.m.m.m.m.m.m.m.m.m.m.m.m.m.m.m.m.m.m.m.m.m.m.m.m.m.m.m.m.m.m.m.m.m.m.m.m.m.",
"m.m.m.m.m.m.m.m.m.m.m.m.m.m.m.m.m.m.m.m.m.m.m.m.m.m.m.m.m.m.m.m.m.m.m.m.m.m.m.m.m.m.m.m.m.m.m.m.m.m.m.m.m.m.m.m.m.m.m.m.m.m.m.m.",
"m.m.m.m.m.m.m.m.m.m.m.m.m.m.m.m.m.m.m.m.m.m.m.m.m.m.m.m.m.m.m.m.m.m.m.m.m.m.m.m.m.m.m.m.m.m.m.m.m.m.m.m.m.m.m.m.m.m.m.m.m.m.m.m.",
"m.m.m.m.m.m.m.m.m.m.m.m.m.m.m.m.m.m.m.m.m.m.m.m.m.m.m.m.m.m.m.m.m.m.m.m.m.m.m.m.m.m.m.m.m.m.m.m.m.m.m.m.m.m.m.m.m.m.m.m.m.m.m.m.",
"m.m.m.m.m.m.m.m.m.m.m.m.m.m.m.m.m.m.m.m.m.m.m.m.m.m.m.m.m.m.m.m.m.m.m.m.l.f.k.m.m.m.m.m.m.m.m.m.m.m.m.m.m.m.m.m.m.m.m.m.m.m.m.m.",
"m.m.m.m.m.m.m.m.m.m.m.m.m.m.m.m.m.m.m.m.m.m.m.m.m.m.m.m.m.m.m.m.m.m.i.j - $ = r ;.m.m.m.m.m.m.m.m.m.m.m.m.m.m.m.m.m.m.m.m.m.m.m.",
"m.m.m.m.m.m.m.m.m.m.m.m.m.m.m.m.m.m.m.m.m.m.m.m.m.m.m.m.m.m.m.m.m.+.@ X % 1 - O o D m.m.m.m.m.m.m.m.m.m.m.m.m.m.m.m.m.m.m.m.m.m.",
"m.m.m.m.m.m.m.m.m.m.m.m.m.m.m.m.m.m.m.m.m.m.m.m.m.m.m.m.m.m.m.m.<.o $ V 7.0.7.P = . X.m.n.m.m.m.m.m.m.m.m.m.m.m.m.m.m.m.m.m.m.m.",
"m.m.m.m.m.m.m.m.m.m.m.m.m.m.m.m.m.m.m.m.m.m.m.m.m.m.m.m.m.m.m.m.e X H t.e.q.w.t.] $ @ 1.m.m.m.m.m.m.m.m.m.m.m.m.m.m.m.m.m.m.m.m.",
"m.m.m.m.m.m.m.m.m.m.m.m.m.m.m.m.m.m.m.m.m.m.m.m.m.m.m.m.m.m.m.s.$ < 0.q.0.q.q.0.t.K O ; h.m.m.m.m.m.m.m.m.m.m.m.m.m.m.m.m.m.m.m.",
"m.m.m.m.m.m.m.m.m.m.m.m.m.m.m.m.m.m.m.m.m.m.m.m.m.m.n.m.m.m.m.2.o y e.0.q.w.q.q.0.e.u X r m.m.m.m.m.m.m.m.m.m.m.m.m.m.m.m.m.m.m.",
"m.m.m.m.m.m.m.m.m.m.m.m.m.m.m.m.m.m.m.m.m.m.m.m.m.m.m.m.m.m.m.i.@ q e.q.q.q.q.w.q.w.8.1 X } m.m.m.m.m.m.m.m.m.m.m.m.m.m.m.m.m.m.",
"m.m.m.m.m.m.m.m.m.m.m.m.m.m.m.m.m.m.m.m.m.m.m.m.m.m.m.m.m.m.m.z.; $ $.r.0.q.q.q.q.0.e.{ % $ p.m.m.m.n.m.m.m.m.m.m.m.m.m.m.m.m.m.",
"m.m.m.m.m.m.m.m.m.m.m.m.m.m.m.m.m.m.m.m.m.m.m.m.m.m.m.m.m.m.n.m.F X t q.w.q.q.q.q.q.0.t.B .  .m.m.m.m.m.m.m.m.m.m.m.m.m.m.m.m.m.",
"m.m.m.m.m.m.m.m.m.m.m.m.m.m.m.m.m.m.m.m.m.m.m.m.m.m.m.m.m.m.m.m.z.5 X N t.0.q.q.q.q.e.e.P O e >.:.:.:.:.i.n.m.m.m.m.m.m.m.m.m.m.",
"m.m.m.m.m.m.m.m.m.x.d.m.m.m.m.m.m.m.m.m.m.m.m.m.m.m.m.m.m.m.m.m.m.p.% @ Q t.9.q.w.e.' 5 @ $ @ X X X X X @ 0 :.m.m.m.m.m.m.m.m.m.",
"m.m.m.m.m.m.m.m.m.A o a.m.m.m.m.m.m.m.m.m.m.m.m.m.m.m.m.m.m.m.m.m.m.+.o = &.t.0.0.K @ + > 8 8 8 9 8 9 8 2 + o X.m.m.m.m.m.m.m.m.",
"m.m.m.m.m.m.m.m.m.}   F m.m.m.m.m.m.m.m.m.m.m.m.m.m.m.m.m.m.m.m.m.m.m.C X q V 5 < $ $ f / ) _ _ _ _ _ _ ( g * O 1.m.m.m.m.m.m.m.",
"m.m.m.m.m.m.m.m.m.s.$ : z.m.m.m.m.m.m.m.m.m.m.m.m.m.m.m.m.m.m.m.m.m.m.c.1 $ O + % # d ` ( / / / / / / / ( ` f O i m.m.m.m.m.m.m.",
"m.m.m.m.m.m.m.m.m.m.j . =.m.v.m.m.n.m.m.m.m.m.m.m.m.m.m.m.m.m.m.m.m.m.1.% @ n ] - % ~ ( / ( ( ( ( ( ( / ( ( ^ * = j.m.m.m.m.m.m.",
"m.m.m.m.m.m.m.m.m.m.=.o < 0 0 c <.m.m.m.m.m.m.m.m.m.m.m.m.m.m.m.m.m.b.0 o S u.5.% > / ( ( ( ( ( ( ( ( ( ( ( / 2 @ s.m.m.m.m.m.m.",
"m.m.m.m.m.m.m.m.m.s.0 @ @ $ @ X o A n.m.m.m.m.m.m.m.m.m.m.m.m.m.n.m.>.o q q.w.5.= * ~ ) / ( ( ( ( ( ( ( ( ( / = = h.m.n.m.m.m.m.",
"m.m.m.m.m.m.m.m.l.: X q ' 4.*.J ; X A m.m.m.m.m.m.m.m.m.m.m.m.m.m.m.z X L t.9.e.y + f ` ( ( / / / / / / / ` g + e m.m.m.m.m.m.m.",
"m.m.m.m.m.m.n.m.G X y 0.t.w.r.t.{ & O i.m.m.m.m.m.m.m.m.m.m.m.m.m.d.% = 7.q.9.r.' @ % U ( _ _ _ _ _ _ _ _ U = o ;.m.m.m.m.m.m.m.",
"m.m.m.m.m.m.m.c.1 @ $.t.0.q.q.0.t.B X A m.m.m.m.m.m.m.m.m.m.m.m.m. .X n e.q.q.q.t.V O @ 3 s s s s s s s 4 @ X F m.m.m.m.m.m.m.m.",
"m.m.m.m.m.m.m.d.$ < 0.q.q.q.q.q.e.4.% = j.m.m.m.m.m.m.m.m.m.m.m.x.1 O { e.w.q.q.q.e.P ; # O . X X . . . X ; O.m.m.m.m.m.m.m.m.m.",
"m.m.m.m.m.m.m.g.$ < 0.q.q.q.q.w.q.e.u . +.m.n.m.m.m.m.m.m.m.n.m.:.X q e.q.q.q.q.q.0.y.N X x =.+.+.+.@.@.,.z.m.m.m.m.m.m.m.m.m.m.",
"m.m.m.m.m.m.m.b.0 @ #.r.q.q.q.q.0.t.' o w n.m.m.m.m.m.m.m.m.m.m.j . E e.q.w.q.q.q.w.6.; @ s.m.m.m.m.m.m.m.m.m.m.m.m.m.m.m.m.m.m.",
"m.m.m.m.m.m.n.m. .. n t.0.q.q.q.q.w.0.5 O 2.m.n.n.m.n.m.m.n.m.a.$ ; 7.e.q.q.q.q.q.t.E X j m.n.m.m.n.m.n.m.m.m.m.m.m.m.m.m.m.m.m.",
"m.m.m.m.m.m.m.m.s.$ = 5.w.q.q.q.q.0.t.H . v m.m.m.m.m.m.m.m.m. .. N e.q.q.q.w.q.q.e.7 o ;.m.m.m.m.m.m.m.m.m.m.m.m.m.m.m.m.m.m.m.",
"m.m.m.m.m.m.m.m.m.z X L t.0.q.w.q.q.e.4.% ; -.:.;.;.;.;.;.;.;.0 O { e.q.q.q.q.q.e.{ + 1 x.m.m.m.m.m.m.m.m.m.m.m.m.m.m.m.m.m.m.m.",
"m.m.m.m.m.m.m.m.m.,.o 7 q.q.q.q.q.q.w.8.< $ X X X X X . X X X $ % 4.e.q.q.q.q.0.e.n X  .m.m.m.m.m.m.m.m.m.m.m.m.m.m.m.m.m.m.m.m.",
"m.m.m.m.m.m.m.m.m.b.0 O { e.0.w.q.q.q.7.= * t p p p p p p p p > @ [ t.0.q.q.q.e.7.= $ s.m.m.m.m.m.m.m.m.m.m.m.m.m.m.m.m.m.m.m.m.",
"m.m.m.m.m.m.m.m.n.m.X.. u e.w.q.0.0.y.J O 4 _ ) _ _ ) _ _ _ ` d O u t.q.0.0.q.t.S X z m.m.m.m.m.m.m.m.m.m.m.m.m.m.m.m.m.m.m.m.m.",
"m.m.m.m.m.m.m.m.m.m.k.; O N q.e.t.r.W % @ T ) / / / / / ( / ( ! & @ N 0.r.t.e.L $ o i.m.m.m.m.m.m.m.m.m.m.m.m.m.m.m.m.m.m.m.m.m.",
"m.m.m.m.m.m.m.m.m.m.m.,.= $ 5 N B t $ @ s _ ( ( ( ( ( ( ( ( ( _ U $ @ < M N q @ $ O.m.n.m.m.m.m.m.m.m.m.m.m.m.m.m.m.m.m.m.m.m.m.",
"m.m.m.m.m.m.m.m.m.m.m.m.F $ $ X X @ % 8 _ / ( ( ( ( ( ( ( ( ( ( ` I % $ X X + $ w c.m.m.m.m.m.m.m.m.m.m.m.m.m.m.m.m.m.m.m.m.m.m.",
"m.m.m.m.m.m.m.m.m.m.m.O.$ @ 5 N m 5 $ % U ) / ( ( ( ( ( ( ( / ( ~ 2 @ - n V h = o e c.m.m.m.m.m.m.m.m.m.m.m.m.m.m.m.m.m.m.m.m.m.",
"m.m.m.m.m.m.m.m.m.m.p.@ % K e.e.t.q.V @ % ! ( / / / / / ( / ( ( 8 X t 7.r.r.r.%.5 . G m.m.m.m.m.m.m.m.m.m.m.m.m.m.m.m.m.m.m.m.m.",
"m.m.m.m.m.m.m.m.m.m.l X N t.q.q.0.q.t.b + s ` _ _ _ _ _ ` _ ` R # - 7.r.0.q.0.t.$.% % s.m.m.m.m.m.m.m.m.m.m.m.m.m.m.m.m.m.m.m.m.",
"m.m.m.m.m.m.m.m.m.p.@ - 6.e.q.q.q.q.r.[ @ , Y Y Y Y Y Y U M T p + n t.0.q.q.q.0.t.n . D m.m.m.m.m.m.m.m.m.m.m.m.m.m.m.m.m.m.m.m.",
"m.m.m.m.m.m.m.m.m.c . N t.0.w.q.q.q.e.3.& $ . X X . . X o o . O @ S t.0.q.q.q.q.e.4.% % s.m.m.m.m.m.m.m.m.m.m.m.m.m.m.m.m.m.m.m.",
"m.m.m.m.m.m.m.m.a.$ = 6.e.q.q.q.q.0.t.] + 5 } G G G G F G G | l O k r.0.q.w.q.q.q.e.n X Z m.n.m.m.m.m.m.m.m.m.m.m.m.m.m.m.m.m.m.",
"m.m.m.m.m.n.m.m.Z . N e.0.q.q.q.q.q.e.b X X.m.m.m.m.m.m.m.m.m.g.% = 4.r.q.q.q.q.q.e.4.% $ s.m.m.m.m.m.m.m.m.m.m.m.m.m.m.m.m.m.m.",
"m.m.m.m.m.m.m.s.% % 4.e.q.q.q.q.q.e.$.$ = j.m.m.m.m.n.m.m.m.m.m.v . N r.q.q.w.q.q.q.t.N . Z m.m.m.m.m.m.m.m.m.m.m.m.m.m.m.m.m.m.",
"m.m.m.m.m.m.m.A X m e.q.q.w.q.q.0.r.k . G m.n.m.m.m.m.m.m.n.m.m.s.$ & *.w.q.q.q.q.q.e.4.& $ a.m.m.m.m.m.m.m.m.m.m.m.m.m.m.m.m.m.",
"m.m.m.m.m.m.s.% % *.e.q.q.q.q.q.e.&.$ & g.m.m.m.m.m.m.m.m.m.m.n.m.Z . m t.0.q.q.q.q.q.e.N . C m.m.m.m.m.m.m.m.m.m.m.m.m.m.m.m.m.",
"m.m.m.m.m.m.G . n r.q.q.q.q.q.0.r.n . F m.m.m.m.m.m.m.m.m.m.m.m.m.s.% % *.e.q.q.q.q.q.w.4.= $ d.m.m.m.m.m.m.m.m.m.m.m.m.m.m.m.m.",
"m.m.m.m.m.n.0 @ $.r.q.q.q.q.q.r.*.% % d.m.m.m.m.m.m.m.m.m.m.m.m.m.m.A . n r.0.q.q.w.q.0.e.b . @.m.n.m.m.m.m.m.m.m.m.m.m.m.m.m.m.",
"m.m.m.m.m.z.- = 7.q.q.q.w.q.0.r.n X D m.m.m.m.m.m.m.m.m.m.m.m.m.m.m.d.% % 3.e.q.q.q.q.q.y.H . ..m.m.m.m.m.m.m.m.m.m.m.m.m.m.m.m.",
"m.m.m.m.m.v.1 $ 4.w.0.q.q.0.e.4.& $ s.m.m.m.m.m.m.m.m.m.m.m.m.m.m.m.m.D X n t.0.q.q.q.0.e.N X @.m.m.m.m.m.m.m.m.m.m.m.m.m.m.m.m.",
"m.m.m.m.m.m.x X H y.0.0.q.q.t.m X Z m.n.m.m.m.m.m.m.m.m.m.m.m.m.m.n.m.f.% $ $.t.0.q.q.e.6.; @ p.m.m.m.m.m.m.m.m.m.m.m.m.m.m.m.m.",
"m.m.m.m.m.m.2.o = Q e.t.t.r.L # $ s.m.m.m.m.m.m.m.m.m.m.m.m.m.m.m.m.m.m.G . 5 %.e.e.t.6.y X l m.n.m.m.m.m.m.m.m.m.m.m.m.m.m.m.m.",
"m.m.m.m.m.m.m.G . $ u K J y @ o O.m.m.m.m.m.m.m.m.m.m.m.m.m.m.m.m.m.m.m.c.e . & h S n = X 5 j.m.m.m.m.m.m.m.m.m.m.m.m.m.m.m.m.m.",
"m.m.m.m.m.m.m.m.O.; X .   X : =.m.m.m.m.m.m.m.m.m.m.m.m.m.m.m.m.m.m.m.m.m.x.A & X   . $ c j.m.m.m.m.m.m.m.m.m.m.m.m.m.m.m.m.m.m.",
"m.m.m.m.m.m.m.m.m.k.=.} ..;.z.m.m.m.m.m.m.m.m.m.m.m.m.m.m.m.m.m.m.m.m.m.m.m.m.g.-.O.=.s.m.m.n.m.m.m.m.m.m.m.m.m.m.m.m.m.m.m.m.m.",
"m.m.m.m.m.m.m.m.m.m.m.m.m.m.m.m.m.m.m.m.m.m.m.m.m.m.m.m.m.m.m.m.m.m.m.m.m.m.m.m.m.m.m.m.m.m.m.m.m.m.m.m.m.m.m.m.m.m.m.m.m.m.m.m.",
"m.m.m.m.m.m.m.m.m.m.m.n.n.m.m.m.m.m.m.m.m.m.m.m.m.m.m.m.m.m.m.m.m.m.m.m.m.m.m.m.m.n.n.m.m.m.m.m.m.m.m.m.m.m.m.m.m.m.m.m.m.m.m.m.",
"m.m.m.m.m.m.m.m.m.m.m.m.m.m.m.m.m.m.m.m.m.m.m.m.m.m.m.m.m.m.m.m.m.m.m.m.m.m.m.m.m.m.m.m.m.m.m.m.m.m.m.m.m.m.m.m.m.m.m.m.m.m.m.m.",
"m.m.m.m.m.m.m.m.m.m.m.m.m.m.m.m.m.m.m.m.m.m.m.m.m.m.m.m.m.m.m.m.m.m.m.m.m.m.m.m.m.m.m.m.m.m.m.m.m.m.m.m.m.m.m.m.m.m.m.m.m.m.m.m.",
"m.m.m.m.m.m.m.m.m.m.m.m.m.m.m.m.m.m.m.m.m.m.m.m.m.m.m.m.m.m.m.m.m.m.m.m.m.m.m.m.m.m.m.m.m.m.m.m.m.m.m.m.m.m.m.m.m.m.m.m.m.m.m.m.",
"m.m.m.m.m.m.m.m.m.m.m.m.m.m.m.m.m.m.m.m.m.m.m.m.m.m.m.m.m.m.m.m.m.m.m.m.m.m.m.m.m.m.m.m.m.m.m.m.m.m.m.m.m.m.m.m.m.m.m.m.m.m.m.m.",
"m.m.m.m.m.m.m.m.m.m.m.m.m.m.m.m.m.m.m.m.m.m.m.m.m.m.m.m.m.m.m.m.m.m.m.m.m.m.m.m.m.m.m.m.m.m.m.m.m.m.m.m.m.m.m.m.m.m.m.m.m.m.m.m.",
"m.m.m.m.m.m.m.m.m.m.m.m.m.m.m.m.m.m.m.m.m.m.m.m.m.m.m.m.m.m.m.m.m.m.m.m.m.m.m.m.m.m.m.m.m.m.m.m.m.m.m.m.m.m.m.m.m.m.m.m.m.m.m.m."
};
