/* XPM */
static char *player__25_1710156993[] = {
/* columns rows colors chars-per-pixel */
"64 64 156 2 ",
"   c #00035C",
".  c #001564",
"X  c #001B66",
"o  c #001768",
"O  c #001C6A",
"+  c #002066",
"@  c #00236D",
"#  c #01286F",
"$  c #012671",
"%  c #042974",
"&  c #0A2C77",
"*  c #0B2E7A",
"=  c #0E317A",
"-  c #13337D",
";  c #18377E",
":  c #17397F",
">  c #19387E",
",  c #0C2E80",
"<  c #0F3081",
"1  c #153481",
"2  c #1A3682",
"3  c #1E3A85",
"4  c #163489",
"5  c #19368D",
"6  c #1B398D",
"7  c #1B3790",
"8  c #1E3A94",
"9  c #203C85",
"0  c #243D8A",
"q  c #293F8C",
"w  c #233C9A",
"e  c #2A3FA4",
"r  c #244386",
"t  c #2A438B",
"y  c #2D4A8A",
"u  c #314C8C",
"i  c #36518E",
"p  c #2F4591",
"a  c #27409F",
"s  c #334694",
"d  c #354895",
"f  c #384A97",
"g  c #3B4B9A",
"h  c #3C5592",
"j  c #3E5894",
"k  c #2C42A6",
"l  c #2E43A8",
"z  c #3044AA",
"x  c #3C4BBC",
"c  c #3345B0",
"v  c #414E9E",
"b  c #415A95",
"n  c #43519F",
"m  c #465F98",
"M  c #4C639B",
"N  c #51679D",
"B  c #53699F",
"V  c #4552A1",
"C  c #4C55A5",
"Z  c #4E58A7",
"A  c #5057A8",
"S  c #535AAA",
"D  c #595DAE",
"F  c #5B5EB0",
"G  c #556BA0",
"H  c #596FA2",
"J  c #5D72A4",
"K  c #5E60B2",
"L  c #6075A7",
"P  c #6277A8",
"I  c #667AAA",
"U  c #6A7DAC",
"Y  c #6363B5",
"T  c #6665B9",
"R  c #6867B9",
"E  c #6C69BC",
"W  c #716CBF",
"Q  c #434FC4",
"!  c #4750CA",
"~  c #4953CD",
"^  c #4E55D4",
"/  c #5157D6",
"(  c #5559DC",
")  c #746EC2",
"_  c #7770C3",
"`  c #7A72C6",
"'  c #5B5CE5",
"]  c #5E5EE9",
"[  c #605FED",
"{  c #6160EE",
"}  c #6663F5",
"|  c #6864F7",
" . c #6B66FB",
".. c #6E68FF",
"X. c #726AFF",
"o. c #8176CB",
"O. c #8779CE",
"+. c #8D7DD3",
"@. c #907FD5",
"#. c #6D80AE",
"$. c #7384AF",
"%. c #7387B2",
"&. c #7789B3",
"*. c #798AB4",
"=. c #8495BB",
"-. c #8A99BD",
";. c #8E9DC1",
":. c #909FC1",
">. c #9280D6",
",. c #9582D8",
"<. c #9B85DD",
"1. c #9F88DF",
"2. c #94A3C4",
"3. c #98A6C6",
"4. c #9BA9C7",
"5. c #9EABC9",
"6. c #A0ACCA",
"7. c #A5B1CD",
"8. c #ABB6D1",
"9. c #AEB9D2",
"0. c #B3BDD5",
"q. c #9F89E0",
"w. c #A48BE3",
"e. c #AA8FE7",
"r. c #AB8FE8",
"t. c #AE92EB",
"y. c #B294ED",
"u. c #B797F0",
"i. c #B897F1",
"p. c #BB9AF3",
"a. c #C09DF7",
"s. c #C39EF9",
"d. c #C6A0FB",
"f. c #CAA2FD",
"g. c #D1A6FF",
"h. c #B7C0D7",
"j. c #B8C2D7",
"k. c #BCC5DA",
"l. c #C0C7DC",
"z. c #C2CADD",
"x. c #C7CEE0",
"c. c #C8CFE1",
"v. c #CCD3E3",
"b. c #D3D9E6",
"n. c #D6DBE8",
"m. c #D8DEE9",
"M. c #DDE2EC",
"N. c #E1E5EE",
"B. c #E3E7F0",
"V. c #E6E9F1",
"C. c #EBEEF4",
"Z. c #EDF0F6",
"A. c #F1F3F7",
"S. c #F4F5F9",
"D. c #F7F8FB",
"F. c #FFFFFF",
/* pixels */
"F.F.F.F.F.F.F.F.F.F.F.F.F.F.F.F.F.F.F.F.F.F.F.F.F.F.F.F.F.F.F.F.F.F.F.F.F.F.F.F.F.F.F.F.F.F.F.F.F.F.F.F.F.F.F.F.F.F.F.F.F.F.F.F.",
"F.F.F.F.F.F.F.F.F.F.F.F.F.F.F.F.F.F.F.F.F.F.F.F.F.F.F.F.F.F.F.F.F.F.F.F.F.F.F.F.F.F.F.F.F.F.F.F.F.F.F.F.F.F.F.F.F.F.F.F.F.F.F.F.",
"F.F.F.F.F.F.F.F.F.F.F.F.F.F.F.F.F.F.F.F.F.F.F.F.F.F.F.F.F.F.F.F.F.F.F.F.F.F.F.F.F.F.F.F.F.F.F.F.F.F.F.F.F.F.F.F.F.F.F.F.F.F.F.F.",
"F.F.F.F.F.F.F.F.F.F.F.F.F.F.F.F.F.F.F.F.F.F.F.F.F.F.F.F.F.F.F.F.F.F.F.F.F.F.F.F.F.F.F.F.F.F.F.D.F.F.F.F.F.F.F.F.F.F.F.F.F.F.F.F.",
"F.F.F.F.F.F.F.F.F.F.F.F.F.F.F.F.F.F.F.F.F.F.F.F.F.F.F.F.F.F.F.F.F.F.F.F.F.F.F.F.F.D.F.F.D.A.D.F.F.D.F.F.F.F.F.F.F.F.F.F.F.F.F.F.",
"F.F.F.F.F.F.F.F.F.F.F.F.F.F.F.F.F.F.F.F.F.F.F.F.F.F.F.F.F.F.F.F.F.F.F.F.F.F.F.F.F.F.v.I u 3 y I n.F.D.F.F.F.F.F.F.F.F.F.F.F.F.F.",
"F.F.F.F.F.F.F.F.F.F.F.F.F.F.F.F.F.F.F.F.F.F.F.F.F.F.F.F.F.F.F.F.F.F.F.F.F.F.F.F.F.3.$ . + & @ . & 7.F.F.F.F.F.F.F.F.F.F.F.F.F.F.",
"F.F.F.F.F.F.F.F.F.F.F.F.F.F.F.F.F.F.F.F.F.F.F.F.F.F.F.F.F.F.F.F.F.F.F.F.F.F.D.F.9.O @ C ,.w.,.V @ @ k.F.F.F.F.F.F.F.F.F.F.F.F.F.",
"F.F.F.F.F.F.F.F.F.F.F.F.F.F.F.F.F.F.F.F.F.F.F.F.F.F.F.F.F.F.F.F.F.F.F.F.F.F.F.D.r O K f.s.s.s.f.S O i F.F.F.F.F.F.F.F.F.F.F.F.F.",
"F.F.F.F.F.F.F.F.F.F.F.F.F.F.F.F.F.F.F.F.F.F.F.F.F.F.F.F.F.F.F.F.F.F.F.F.F.F.F.0.O 0 p.p.u.p.p.a.u.1 @ c.F.F.F.F.F.F.F.F.F.F.F.F.",
"F.F.F.F.F.F.F.F.F.F.F.F.F.F.F.F.F.F.F.F.F.F.F.F.F.F.F.F.F.F.F.F.F.F.F.F.F.F.F.3.. C f.p.p.p.p.u.d.v . 6.F.D.F.F.F.F.F.F.F.F.F.F.",
"F.F.F.F.F.F.F.F.F.F.F.F.F.F.F.F.F.F.F.F.F.F.F.F.F.F.F.F.F.F.F.F.F.F.F.F.F.D.F.3.. C d.p.a.p.p.p.f.Z . 3.F.F.F.F.F.F.F.F.F.F.F.F.",
"F.F.F.F.F.F.F.F.F.F.F.F.F.F.F.F.F.F.F.F.F.F.F.F.F.F.F.F.F.F.F.F.F.F.F.F.F.F.F.7.. n s.p.p.p.p.u.f.D . =.F.F.F.F.F.F.F.F.F.F.F.F.",
"F.F.F.F.F.F.F.F.F.F.F.F.F.F.F.F.F.F.F.F.F.F.F.F.F.F.F.F.F.F.F.F.F.F.F.F.F.F.F.0.X s s.p.p.p.p.p.f.T . %.F.D.F.F.F.F.F.F.F.F.F.F.",
"F.F.F.F.F.F.F.F.F.F.F.F.F.F.F.F.F.F.F.F.F.F.F.F.F.F.F.F.F.F.F.F.F.F.F.F.F.F.F.z.@ q p.p.a.p.p.u.f.) . P F.F.F.F.F.F.F.F.F.F.F.F.",
"F.F.F.F.F.F.F.F.F.F.F.F.F.F.F.F.F.F.F.F.F.F.F.F.F.F.F.F.F.F.F.F.F.F.F.F.F.D.F.b.$ 3 u.a.p.p.p.u.d.o.. N F.F.F.F.F.F.F.F.F.F.F.F.",
"F.F.F.F.F.F.F.F.F.z.-.D.F.F.F.F.F.F.F.F.F.F.F.F.F.F.F.F.F.F.F.F.F.F.F.F.F.F.F.N.* - y.p.p.s.f.s.g.@.. M F.F.D.F.F.F.F.F.F.F.F.F.",
"F.F.F.F.F.F.F.F.F.M   7.F.F.F.F.F.F.F.F.F.F.F.F.F.F.F.F.F.F.F.F.F.F.F.F.F.F.F.A.9 @ q.f.s.<.K v C f O B D.F.F.F.F.F.F.F.F.F.F.F.",
"F.F.F.F.F.F.F.D.F.:.o m F.D.F.F.F.F.F.F.F.F.F.F.F.F.F.F.F.F.F.F.F.F.F.F.F.F.F.F.H X V w.S $ X + + X # % ; h P 8.F.F.F.F.F.F.F.F.",
"F.F.F.F.F.F.F.F.F.N.- $ b.F.F.F.F.F.F.F.F.F.F.F.F.F.F.F.F.F.F.F.F.F.F.F.D.F.C.U ; @ @ % @ % l ! ! c w 1 % O X O h M.F.F.F.F.F.F.",
"F.F.F.F.F.F.F.F.D.F.I . U l.0.B.F.F.D.F.F.F.F.F.F.F.F.F.F.F.F.F.F.F.F.F.F.V.t . $ t 9 % * ^  . ..... .| ] / x 1 X t C.F.F.F.F.F.",
"F.F.F.F.F.F.F.F.F.F.=.$ $ X O - L N.F.F.F.F.F.F.F.F.F.F.F.F.F.F.F.F.F.F.F.m X 0 >.d.V X x X.} } } } } |  ...X.] 6 X #.F.D.F.F.F.",
"F.F.F.F.F.F.F.F.F.-.@ $ - s t % . > b.F.F.F.F.F.F.F.F.F.F.F.F.F.F.F.D.F.3.O 1 w.f.u.1 $ '  .} | | | | | | } } ..( @ 1 C.F.F.F.F.",
"F.F.F.F.F.F.F.F.k.O $ F y.s.a.1.s O y D.F.F.F.F.F.F.F.F.F.F.F.F.F.F.F.V.2 + _ f.p.y.1 % '  .| | | | | | | | | } | 4 + z.F.F.F.F.",
"F.F.F.F.F.F.F.F.M . D f.a.p.p.f.u.9 o 5.F.F.F.F.F.F.F.F.F.F.F.F.F.D.F.J . f s.p.p.s.q + ~ X.} } | | | | | | | |  .5 @ k.F.F.F.F.",
"F.F.F.F.F.F.F.N.= & e.a.p.p.p.y.f.) . b F.F.F.F.F.F.F.F.F.F.F.F.F.F.0.O * 1.s.p.u.f.T O 5 } ..| | } } } | | }  .] & = M.F.F.F.F.",
"F.F.F.F.F.F.F.v.$ 3 p.p.p.a.p.p.a.y.- $ z.F.F.F.F.F.F.F.F.F.F.F.F.A.t X T f.u.p.p.p.u.9 + 5 / }  ....... .| X...k O m F.F.F.F.F.",
"F.F.F.F.F.F.F.M.& - y.p.p.p.p.p.u.s.S . U F.D.F.F.F.F.F.F.F.F.D.F.&.X q p.p.p.p.p.p.s.q.9 $ $ , 8 l Q / ' { ( w + % c.F.F.F.F.F.",
"F.F.F.F.F.F.F.F.i X ` f.p.p.p.p.p.s.<.$ - V.F.F.F.F.F.F.F.F.F.F.c.% $ >.d.p.p.p.p.p.u.g.W @ * & X X X X & * $ X & 8.F.F.F.F.F.F.",
"F.F.F.F.F.F.D.F.2.. d a.p.p.p.p.p.p.s.f . :.F.D.F.F.F.F.F.F.F.F.b X S f.p.p.p.p.p.p.a.r.- O 2.V.8.:.J h : = 3 L m.F.D.F.F.F.F.F.",
"F.F.F.F.F.F.F.F.B.- $ <.s.p.p.p.p.p.s.` X h F.F.F.F.F.F.F.F.F.k.O 1 y.p.p.p.p.p.p.u.d.C . m F.F.F.F.F.F.C.N.D.F.F.F.F.F.F.F.F.F.",
"F.F.F.F.F.F.F.F.F.I . S f.p.p.p.p.p.s.r.* & M B M B N N M N G u O S f.p.p.p.p.p.p.d.O.@ & b.F.D.F.D.F.F.F.F.F.D.F.F.F.F.F.F.F.F.",
"F.F.F.F.F.F.F.F.F.z.$ - y.p.p.p.p.p.p.u.1 $ X X X X X X X X X @ @ Y f.p.p.p.p.p.p.u.9 o =.F.F.F.F.F.F.F.F.F.F.F.F.F.F.F.F.F.F.F.",
"F.F.F.F.F.F.F.F.F.F.h X _ f.u.p.p.u.d.q.$ = ~ ~ ~ ~ ~ ~ ~ ~ ^ l + V f.u.p.p.p.u.f.D X u D.F.F.F.F.F.F.F.F.F.F.F.F.F.F.F.F.F.F.F.",
"F.F.F.F.F.F.F.F.F.F.5.o 3 y.d.p.p.s.f.v + k X...............X.( $ * w.f.p.p.p.f.,.% @ k.F.D.F.F.F.F.F.F.F.F.F.F.F.F.F.F.F.F.F.F.",
"F.F.F.F.F.F.F.F.F.F.F.u . t >.u.p.w.g + & ' | } } } } } } } }  .w + 3 <.s.s.s.+.1 . #.F.F.F.F.F.F.F.F.F.F.F.F.F.F.F.F.F.F.F.F.F.",
"F.F.F.F.F.F.F.F.F.D.F.N.h O % 3 0 & @ = ^  .| | | | | | | | |  .] 8 @ & s g s $ @ M Z.F.F.F.F.F.F.F.F.F.F.F.F.F.F.F.F.F.F.F.F.F.",
"F.F.F.F.F.F.F.F.F.F.F.F.J $ $ O O @ $ e  .} | | | | | | | | | } X.x $ $ X O + $ & z.F.F.F.F.F.F.F.F.F.F.F.F.F.F.F.F.F.F.F.F.F.F.",
"F.F.F.F.F.F.F.F.F.F.F.J . & A o.` Z & + k  .} | | | | | | | | X.! $ @ s ) +.E 3 O 3 M.F.F.F.F.F.F.F.F.F.F.F.F.F.F.F.F.F.F.F.F.F.",
"F.F.F.F.F.F.F.F.F.F.8.O - @.f.s.f.f.+.* # ~ ..} | } | } | | | { < @ F d.f.d.f.u.s . J F.D.F.F.F.F.F.F.F.F.F.F.F.F.F.F.F.F.F.F.F.",
"F.F.F.F.F.F.F.F.F.F.b . T g.u.p.p.u.f.T + w .. . . ... . . .X.! + t s.p.p.p.u.s.w.& % v.F.F.F.F.F.F.F.F.F.F.F.F.F.F.F.F.F.F.F.F.",
"F.F.F.F.F.F.F.F.F.k.@ - y.p.p.p.p.p.s.q.& * w w w w w w w w w 4 + T d.p.p.p.p.p.f.C . P F.F.F.F.F.F.F.F.F.F.F.F.F.F.F.F.F.F.F.F.",
"F.F.F.F.F.F.F.F.F.B . D f.p.p.p.p.p.p.w.* $ X X X X O X X X X @ @ E f.p.p.p.p.p.a.1.$ & n.F.F.F.F.F.F.F.F.F.F.F.F.F.F.F.F.F.F.F.",
"F.F.F.F.F.F.F.F.v.$ & e.s.p.p.p.p.p.f.o.O u 9.8.8.8.8.8.8.8.j.I X v s.p.p.s.p.p.u.f.V . #.F.D.F.F.F.F.F.F.F.F.F.F.F.F.F.F.F.F.F.",
"F.F.F.F.F.F.F.F.P . A f.p.p.p.p.p.p.s.f . -.F.F.F.F.F.F.F.F.F.M.& % 1.s.p.p.p.p.p.s.<.@ - N.F.F.F.F.F.F.F.F.F.F.F.F.F.F.F.F.F.F.",
"F.F.F.F.F.D.F.m.= $ <.s.p.p.p.p.p.d.@.@ ; B.F.F.D.F.F.D.F.F.D.F.L . A f.u.p.p.p.p.p.s.g . *.F.F.F.F.F.F.F.F.F.F.F.F.F.F.F.F.F.F.",
"F.F.F.F.F.F.F.*.. v s.p.p.p.p.p.u.f.n . %.F.D.F.F.F.F.F.F.F.D.F.v.$ & w.s.p.p.p.p.p.f.+.@ : V.F.F.F.F.F.F.F.F.F.F.F.F.F.F.F.F.F.",
"F.F.F.F.F.F.V.: @ @.f.p.p.p.p.p.a.1.% & m.F.F.F.F.F.F.F.F.F.F.F.F.G . D f.u.p.p.p.p.p.a.d . =.F.F.F.F.F.F.F.F.F.F.F.F.F.F.F.F.F.",
"F.F.F.F.D.F.-.. d s.p.p.p.p.p.p.d.A . L F.F.F.F.F.F.F.F.F.F.F.F.F.k.@ - r.a.p.p.p.p.p.f.O.O r D.F.F.F.F.F.F.F.F.F.F.F.F.F.F.F.F.",
"F.F.F.F.F.F.N X _ f.p.p.p.p.p.a.r.* $ c.F.F.F.F.F.F.F.F.F.F.F.F.F.F.M X Y f.p.p.p.p.p.a.p.3 @ x.F.F.F.F.F.F.F.F.F.F.F.F.F.F.F.F.",
"F.F.F.F.F.F.h O @.s.p.p.p.p.u.f.K X M F.D.F.F.F.F.F.F.F.F.F.F.F.D.F.h.O - y.a.p.p.p.p.p.p.s O h.F.F.F.F.F.F.F.F.F.F.F.F.F.F.F.F.",
"F.F.F.F.F.F.N X ` f.i.p.p.p.a.y.1 O j.F.F.F.F.F.F.F.F.F.F.F.F.F.F.F.F.b . E f.y.p.p.p.p.y.1 $ v.F.D.F.F.F.F.F.F.F.F.F.F.F.F.F.F.",
"F.F.F.F.F.F.:.. t a.s.u.u.p.g.Y . h F.F.F.F.F.F.F.F.F.F.F.F.F.F.F.F.F.8.O 2 t.f.p.p.p.f.E O u F.F.F.F.F.F.F.F.F.F.F.F.F.F.F.F.F.",
"F.F.F.F.F.F.Z.3 O n y.s.f.a.E % O 0.F.F.F.F.F.F.F.F.F.F.F.F.F.F.F.F.F.F.j . t w.s.d.p.W & o 6.F.F.F.F.F.F.F.F.F.F.F.F.F.F.F.F.F.",
"F.F.F.F.F.F.F.z.& . - v C 0 O . %.F.F.F.F.F.F.F.F.F.F.F.F.F.F.F.F.F.D.F.M.9 . & s v 0 O o $.F.F.F.F.F.F.F.F.F.F.F.F.F.F.F.F.F.F.",
"F.F.F.F.F.F.D.F.v.m $ . . O r 3.F.F.F.F.F.F.F.F.F.F.F.F.F.F.F.F.F.F.F.F.F.N.H & O O + r 4.F.F.F.F.F.F.F.F.F.F.F.F.F.F.F.F.F.F.F.",
"F.F.F.F.F.F.F.F.F.F.v.6.3.0.S.F.F.F.F.F.F.F.F.F.F.F.F.F.F.F.F.F.F.F.F.F.F.F.F.M.0.7.z.D.F.F.F.F.F.F.F.F.F.F.F.F.F.F.F.F.F.F.F.F.",
"F.F.F.F.F.F.F.F.F.F.F.F.F.F.F.F.F.F.F.F.F.F.F.F.F.F.F.F.F.F.F.F.F.F.F.F.F.F.F.F.F.F.F.F.D.F.F.F.F.F.F.F.F.F.F.F.F.F.F.F.F.F.F.F.",
"F.F.F.F.F.F.F.F.F.F.F.D.D.F.F.F.F.F.F.F.F.F.F.F.F.F.F.F.F.F.F.F.F.F.F.F.F.F.F.F.F.D.F.F.F.F.F.F.F.F.F.F.F.F.F.F.F.F.F.F.F.F.F.F.",
"F.F.F.F.F.F.F.F.F.F.F.F.F.F.F.F.F.F.F.F.F.F.F.F.F.F.F.F.F.F.F.F.F.F.F.F.F.F.F.F.F.F.F.F.F.F.F.F.F.F.F.F.F.F.F.F.F.F.F.F.F.F.F.F.",
"F.F.F.F.F.F.F.F.F.F.F.F.F.F.F.F.F.F.F.F.F.F.F.F.F.F.F.F.F.F.F.F.F.F.F.F.F.F.F.F.F.F.F.F.F.F.F.F.F.F.F.F.F.F.F.F.F.F.F.F.F.F.F.F.",
"F.F.F.F.F.F.F.F.F.F.F.F.F.F.F.F.F.F.F.F.F.F.F.F.F.F.F.F.F.F.F.F.F.F.F.F.F.F.F.F.F.F.F.F.F.F.F.F.F.F.F.F.F.F.F.F.F.F.F.F.F.F.F.F.",
"F.F.F.F.F.F.F.F.F.F.F.F.F.F.F.F.F.F.F.F.F.F.F.F.F.F.F.F.F.F.F.F.F.F.F.F.F.F.F.F.F.F.F.F.F.F.F.F.F.F.F.F.F.F.F.F.F.F.F.F.F.F.F.F.",
"F.F.F.F.F.F.F.F.F.F.F.F.F.F.F.F.F.F.F.F.F.F.F.F.F.F.F.F.F.F.F.F.F.F.F.F.F.F.F.F.F.F.F.F.F.F.F.F.F.F.F.F.F.F.F.F.F.F.F.F.F.F.F.F."
};
