/* XPM */
static char *_fd9fad39e1d45e1bc42a5a54874cca7jF3ERTZUSoWgypYt[] = {
/* columns rows colors chars-per-pixel */
"128 128 40 1 ",
"  c #BC9AF4",
". c #BD9BF4",
"X c #BE9DF4",
"o c #C09FF4",
"O c #C2A3F5",
"+ c #C3A4F5",
"@ c #C4A6F6",
"# c #C7AAF6",
"$ c #C9AEF6",
"% c #CBB1F7",
"& c #CDB3F7",
"* c #CDB5F7",
"= c #D1B9F7",
"- c #D2BAF8",
"; c #D3BDF8",
": c #D4BEF8",
"> c #D7C3F9",
", c #D8C3F8",
"< c #DAC6F9",
"1 c #DBC9F9",
"2 c #DDCCF9",
"3 c #E1D2FA",
"4 c #E3D5FB",
"5 c #E4D7FB",
"6 c #E5D8FB",
"7 c #E5D8FC",
"8 c #E7DCFC",
"9 c #EADFFB",
"0 c #E9DEFC",
"q c #EAE0FB",
"w c #ECE3FC",
"e c #EDE4FC",
"r c #F1EAFD",
"t c #F3EEFD",
"y c #F4EFFD",
"u c #F7F3FE",
"i c #F9F6FE",
"p c #FBFAFE",
"a c #FCFAFE",
"s c white",
/* pixels */
"ssssssssssssssssssssssssssssssssssssssssssssssssssssssssssssssssssssssssssssssssssssssssssssssssssssssssssssssssssssssssssssssss",
"ssssssssssssaiuuuuuuuuyyyyuuyyuuuuyyyyuuuuuuyuyyuuuuyuyyuuuuyyuuuuuuyyyuuuyyuuyyuyuuuyyyuuuuuuyyyyuuyyuuuuyyyyuuuuipssssssssssss",
"ssssssssssuq2-#O................................................................................................X+&,6rpsssssssss",
"ssssssssu0:O........................................................................................................X%3rasssssss",
"sssssssr<@............................................................................................................X*9issssss",
"ssssspe-X...............................................................................................................#3isssss",
"ssssse*..................................................................................................................+2issss",
"ssssr-....................................................................................................................@4asss",
"sssu<X.....................................................................................................................$wsss",
"sss0@......................................................................................................................X:iss",
"ssu:........................................................................................................................@8ss",
"ss9O........................................................................................................................X;as",
"sa2..........................................................................................................................$ts",
"si-..........................................................................................................................+9s",
"su#..........................................................................................................................O3s",
"suO..........................................................................................................................X1s",
"syX...........................................................................................................................<s",
"sy............................................................................................................................>s",
"sy............................................................................................................................>s",
"sy............................................................................................................................>s",
"st............................................................................................................................>s",
"sy............................................................................................................................>s",
"sy............................................................................................................................>s",
"sy............................................................................................................................>s",
"sy............................................................................................................................>s",
"sy............................................................................................................................>s",
"sy............................................................................................................................>s",
"sy............................................................................................................................>s",
"sy............................................................................................................................>s",
"sy............................................................................................................................>s",
"sy............................................................................................................................>s",
"sy............................................................................................................................>s",
"sy............................................................................................................................>s",
"sy............................................................................................................................>s",
"sy............................................................................................................................>s",
"sy............................................................................................................................>s",
"sy............................................................................................................................>s",
"sy............................................................................................................................>s",
"sy............................................................................................................................>s",
"sy............................................................................................................................>s",
"sy............................................................................................................................>s",
"sy............................................................................................................................>s",
"sy............................................................................................................................>s",
"sy............................................................................................................................>s",
"sy............................................................................................................................>s",
"sy............................................................................................................................>s",
"sy............................................................................................................................>s",
"sy............................................................................................................................>s",
"sy............................................................................................................................>s",
"sy............................................................................................................................>s",
"sy............................................................................................................................>s",
"sy............................................................................................................................>s",
"sy............................................................................................................................>s",
"sy............................................................................................................................>s",
"sy............................................................................................................................>s",
"sy............................................................................................................................>s",
"sy............................................................................................................................>s",
"st............................................................................................................................>s",
"sy............................................................................................................................>s",
"sy............................................................................................................................>s",
"sy............................................................................................................................>s",
"sy............................................................................................................................>s",
"sy............................................................................................................................>s",
"sy............................................................................................................................>s",
"sy............................................................................................................................>s",
"sy............................................................................................................................>s",
"sy............................................................................................................................>s",
"sy............................................................................................................................>s",
"sy............................................................................................................................>s",
"sy............................................................................................................................>s",
"sy............................................................................................................................>s",
"sy............................................................................................................................>s",
"sy............................................................................................................................>s",
"sy............................................................................................................................>s",
"sy............................................................................................................................>s",
"sy............................................................................................................................>s",
"sy............................................................................................................................>s",
"sy............................................................................................................................>s",
"sy............................................................................................................................>s",
"sy............................................................................................................................>s",
"sy............................................................................................................................>s",
"sy............................................................................................................................>s",
"sy............................................................................................................................>s",
"sy............................................................................................................................>s",
"sy............................................................................................................................>s",
"sy............................................................................................................................>s",
"sy............................................................................................................................>s",
"sy............................................................................................................................>s",
"sy............................................................................................................................>s",
"sy............................................................................................................................>s",
"sy............................................................................................................................>s",
"sy............................................................................................................................>s",
"sy............................................................................................................................>s",
"sy............................................................................................................................>s",
"sy............................................................................................................................>s",
"sy............................................................................................................................>s",
"sy............................................................................................................................>s",
"sy............................................................................................................................>s",
"sy............................................................................................................................>s",
"sy............................................................................................................................>s",
"sy............................................................................................................................>s",
"sy............................................................................................................................>s",
"sy............................................................................................................................>s",
"sy............................................................................................................................>s",
"sy............................................................................................................................>s",
"st............................................................................................................................>s",
"sy............................................................................................................................>s",
"sy............................................................................................................................>s",
"sy............................................................................................................................>s",
"sy............................................................................................................................>s",
"sy............................................................................................................................>s",
"sy............................................................................................................................<s",
"syX...........................................................................................................................<s",
"su@..........................................................................................................................X2s",
"si%..........................................................................................................................O6s",
"sp>..........................................................................................................................#es",
"ss7X.........................................................................................................................*is",
"ssr%........................................................................................................................O2ss",
"ssp3X.......................................................................................................................&yss",
"sssr*......................................................................................................................@3sss",
"sssa9#....................................................................................................................O>isss",
"ssssp3+..................................................................................................................X=yssss",
"sssssi2@................................................................................................................o=rsssss",
"ssssssi5$X.............................................................................................................@>yssssss",
"sssssssae:#X.........................................................................................................O&3isssssss",
"sssssssssp0;$+OX................................................................................................XXO#*2usssssssss",
"sssssssssssat931>>>>>>>>>>>>>>>>>>>>>>>>>>>>>>>>>>>>>>>>>>>>>>>>>>>>>>>>>>>>>>>>>>>>>>>>>>>>>>>>>>>>>>>>>>>>>>>><26epsssssssssss",
"ssssssssssssssssssssssssssssssssssssssssssssssssssssssssssssssssssssssssssssssssssssssssssssssssssssssssssssssssssssssssssssssss"
};
