/* XPM */
static char *collectable__29_1710156751[] = {
/* columns rows colors chars-per-pixel */
"64 64 206 2 ",
"   c white",
".  c #FEFFFF",
"X  c #F9FDFD",
"o  c #D4F4F4",
"O  c #A7E9E9",
"+  c #91E3E3",
"@  c #93E4E4",
"#  c #AFEBEB",
"$  c #DAF6F6",
"%  c #FBFEFE",
"&  c #E0F7F7",
"*  c #88E1E1",
"=  c #47D1D1",
"-  c #32CCCC",
";  c #30CBCB",
":  c #34CCCC",
">  c #4CD2D2",
",  c #90E3E3",
"<  c #E6F9F9",
"1  c #D9F6F6",
"2  c #64D8D8",
"3  c #31CBCB",
"4  c #42D0D0",
"5  c #74DCDC",
"6  c #95E4E4",
"7  c #92E4E4",
"8  c #6FDBDB",
"9  c #40CFCF",
"0  c #E4F8F8",
"q  c #EFFBFB",
"w  c #71DCDC",
"e  c #61D7D7",
"r  c #C6F1F1",
"t  c #F6FDFD",
"y  c #F4FCFC",
"u  c #BFEFEF",
"i  c #58D5D5",
"p  c #31CCCC",
"a  c #85E0E0",
"s  c #F7FDFD",
"d  c #B5ECEC",
"f  c #38CDCD",
"g  c #52D4D4",
"h  c #D5F4F4",
"j  c #C7F1F1",
"k  c #7CDEDE",
"l  c #9AE6E6",
"z  c #8EE3E3",
"x  c #FDFEFE",
"c  c #EEFBFB",
"v  c #5DD7D7",
"b  c #3CCECE",
"n  c #C8F1F1",
"m  c #BAEEEE",
"M  c #36CDCD",
"N  c #6CDADA",
"B  c #F5FDFD",
"V  c #E9FAFA",
"C  c #56D5D5",
"Z  c #41D0D0",
"A  c #D2F4F4",
"S  c #E1F7F7",
"D  c #B4ECEC",
"F  c #8AE2E2",
"G  c #63D8D8",
"H  c #F1FCFC",
"J  c #F2FCFC",
"K  c #66D9D9",
"L  c #BCEEEE",
"P  c #FAFEFE",
"I  c #86E1E1",
"U  c #95E5E5",
"Y  c #E8F9F9",
"T  c #2FCBCB",
"R  c #7BDEDE",
"E  c #79DEDE",
"W  c #3ACECE",
"Q  c #33CCCC",
"!  c #6EDBDB",
"~  c #BEEFEF",
"^  c #68D9D9",
"/  c #37CDCD",
"(  c #91E4E4",
")  c #F9FEFE",
"_  c #EBFAFA",
"`  c #B1ECEC",
"'  c #FCFEFE",
"]  c #D3F4F4",
"[  c #7FDFDF",
"{  c #3ECFCF",
"}  c #59D5D5",
"|  c #ACEAEA",
" . c #F0FBFB",
".. c #4AD2D2",
"X. c #98E5E5",
"o. c #4BD2D2",
"O. c #48D1D1",
"+. c #FDFFFF",
"@. c #96E5E5",
"#. c #F1FBFB",
"$. c #B0EBEB",
"%. c #5CD6D6",
"&. c #7ADEDE",
"*. c #CFF3F3",
"=. c #CBF2F2",
"-. c #5AD6D6",
";. c #71DBDB",
":. c #34CDCD",
">. c #E3F8F8",
",. c #D9F5F5",
"<. c #45D1D1",
"1. c #50D4D4",
"2. c #E5F9F9",
"3. c #A2E8E8",
"4. c #EAFAFA",
"5. c #7EDFDF",
"6. c #ABEAEA",
"7. c #3DCECE",
"8. c #EDFAFA",
"9. c #A0E7E7",
"0. c #51D3D3",
"q. c #43D0D0",
"w. c #89E2E2",
"e. c #DBF6F6",
"r. c #9FE7E7",
"t. c #73DCDC",
"y. c #94E4E4",
"u. c #B9EEEE",
"i. c #39CDCD",
"p. c #72DCDC",
"a. c #DEF7F7",
"s. c #3CCFCF",
"d. c #3BCECE",
"f. c #BBEEEE",
"g. c #D0F3F3",
"h. c #5DD6D6",
"j. c #B1EBEB",
"k. c #ECFAFA",
"l. c #A6E9E9",
"z. c #54D4D4",
"x. c #35CDCD",
"c. c #44D0D0",
"v. c #9EE7E7",
"b. c #F8FDFD",
"n. c #F3FCFC",
"m. c #E1F8F8",
"M. c #99E5E5",
"N. c #E5F8F8",
"B. c #6DDBDB",
"V. c #8BE2E2",
"C. c #70DBDB",
"Z. c #77DDDD",
"A. c #35CCCC",
"S. c #76DDDD",
"D. c #80DFDF",
"F. c #A3E8E8",
"G. c #84E0E0",
"H. c #A5E8E8",
"J. c #C4F0F0",
"K. c #67D9D9",
"L. c #49D1D1",
"P. c #CEF3F3",
"I. c #B2EBEB",
"U. c #D6F5F5",
"Y. c #79DDDD",
"T. c #3FCFCF",
"R. c #D8F5F5",
"E. c #41CFCF",
"W. c #CDF3F3",
"Q. c #57D5D5",
"!. c #82E0E0",
"~. c #6ADADA",
"^. c #50D3D3",
"/. c #65D9D9",
"(. c #C3F0F0",
"). c #53D4D4",
"_. c #A9E9E9",
"`. c #5CD7D7",
"'. c #DFF7F7",
"]. c #62D8D8",
"[. c #B6EDED",
"{. c #DCF6F6",
"}. c #65D8D8",
"|. c #C9F1F1",
" X c #B2ECEC",
".X c #5FD7D7",
"XX c #C1F0F0",
"oX c #AAEAEA",
"OX c #89E1E1",
"+X c #D7F5F5",
"@X c #6BDADA",
"#X c #46D1D1",
"$X c #ADEAEA",
"%X c #55D5D5",
"&X c #9BE6E6",
"*X c #BDEFEF",
"=X c #4ED3D3",
"-X c #97E5E5",
";X c #87E1E1",
":X c #B9EDED",
">X c #F5FCFC",
",X c #E2F8F8",
"<X c #A1E8E8",
"1X c #8CE2E2",
"2X c #4DD2D2",
"3X c #39CECE",
/* pixels */
"                                                                                                                                ",
"                                                                                                                                ",
"                                                                                                                                ",
"                                                                                                                                ",
"                                                                                                                                ",
"                                                                                                                                ",
"                                                                                                                                ",
"                                                                                                                                ",
"                                                                                                                                ",
"                                                                                                                                ",
"                                                                                                                                ",
"                                                                                                                                ",
"                                                                                              . .                               ",
"                                                                                        X o O + @ # $ %                         ",
"                                                                                      & * = - ; ; : > , <                       ",
"                                                                                    1 2 3 4 5 6 7 8 9 - 8 0                     ",
"                                                                                  q w ; e r t   . y u i p a s                   ",
"                                                                                  d f g h             j = 9 j                   ",
"                                                                                X k 3 l               % * ; z x                 ",
"                                                                                c v b n                 m M N B                 ",
"                                                                                V C Z A             S D F M G H                 ",
"                                                                                J K f L           P I - - ; 4 U Y               ",
"                                                                                Y N T I %         . L R E v W Q ! S             ",
"                                                                            t ~ ^ / f ( %           . ) X _ ` g 3 R J           ",
"                                                                        ' ] [ { - } |  .                      r ..W m           ",
"                                                                      0 X.o.; O.7 S                           +.@.3 k X         ",
"                                                                  #.$.%.- b &.*.%         . %                   =.{ -._         ",
"                                                              ) r ;.f :.2 m B           . ~ F >.                ,.<.1.2.        ",
"                                                          . $ * 4 3 g 3.4.              P 5.3 6.                n 7.%.8.        ",
"                                                        V 9.0.; q.w.e..                   r.p t.y             +.y.; 5.)         ",
"                                                    B u.G : i.p.n )                     a.5.Q s.| x           j o.d.f.          ",
"                                                ' g.R b - h.j.H                     k.l.z.- b x.c.v.>.t b._ $.g 3 5.n.          ",
"                                              m.@ O.; > M.N.                    t ~ ^ M / B.f.V.W : g C.Z.h.f A.S.0             ",
"                      % '                 q | } - { D.o x                   x ] [ { - } | q   y $.2 9 : Q b %.F.8.              ",
"                y n M.G.* H.o )       b.J.! / x.K.~ s                     N.X.o.; L.@ S           c P.d I.r V .                 ",
"              U.Y.T.; 3 ; - = w.0 . R.a E.3 z.l.k.                    H j.h.- b R g.'                                           ",
"            W.Q.; > !.F.v.S.4 p ~.y.^.; <.z a.                    P n p.i.x./.f.B                                               ",
"          Y /.p B.] %     s (.i ; 3 d.S.=.P                   . e.F q.3 ).F._                                                   ",
"          _.: `.'.            n i ].[.n.                    4.3.g 3 c.V.{..                                                     ",
"        t t.Q l.              +.>._                     B m }.: i.t.|.P                                                         ",
"        4.Q.9 g.                                    ' g.R b - v  XJ                                                             ",
"        N.^.<.R.                                  S @ O.; o.X.2.                                                                ",
"        c .XW XX                              c oXi - { [ ] x                                                                   ",
"        % OX; !.b.  J +Xt                 s XX@XM x.^ ~ t                                                                       ",
"          W.#X{ $Xn.7 L.f.              e.!.9 3 %XO k.                                                                          ",
"          % &X/ 4 S.Z 4 n             X [ T q.z a.                                                                              ",
"            n.6 9 3 p !.X             +.y.; t.y                                                                                 ",
"              ) *X=XA. X                r d..Xq                                                                                 ",
"                y 2 f u                 A E.C 4.                                                                                ",
"                t C.Q $X                u i.2 H                                                                                 ",
"                . -X; 5 y             P ;X; OX'                                                                                 ",
"                  o ..d.| '         . :Xq.9 r                                                                                   ",
"                  ' v./ q.l a.n.>X,X<XO.Q 1Xb.                                                                                  ",
"                    J , d.Q 2XK @Xg : 3XG.k.                                                                                    ",
"                      t [.@Xc.f M 9 2 # n.                                                                                      ",
"                          H h u L P.c                                                                                           ",
"                                                                                                                                ",
"                                                                                                                                ",
"                                                                                                                                ",
"                                                                                                                                ",
"                                                                                                                                ",
"                                                                                                                                ",
"                                                                                                                                ",
"                                                                                                                                "
};
