/* XPM */
static char *collectable__30_1710156751[] = {
/* columns rows colors chars-per-pixel */
"64 64 215 2 ",
"   c white",
".  c #F8FDFD",
"X  c #D5F5F5",
"o  c #ADEBEB",
"O  c #9CE6E6",
"+  c #A4E8E8",
"@  c #C3F0F0",
"#  c #E9FAFA",
"$  c #DAF6F6",
"%  c #82E0E0",
"&  c #46D1D1",
"*  c #33CCCC",
"=  c #30CBCB",
"-  c #31CBCB",
";  c #3ACECE",
":  c #5DD6D6",
">  c #ABEAEA",
",  c #F4FCFC",
"<  c #CCF2F2",
"1  c #59D6D6",
"2  c #30CCCC",
"3  c #45D1D1",
"4  c #72DCDC",
"5  c #8BE2E2",
"6  c #81DFDF",
"7  c #5CD6D6",
"8  c #36CDCD",
"9  c #39CECE",
"0  c #8FE3E3",
"q  c #E3F8F8",
"w  c #5FD7D7",
"e  c #31CCCC",
"r  c #6CDADA",
"t  c #CDF2F2",
"y  c #F6FDFD",
"u  c #FDFFFF",
"i  c #FBFEFE",
"p  c #A1E8E8",
"a  c #42D0D0",
"s  c #39CDCD",
"d  c #A9E9E9",
"f  c #FEFFFF",
"g  c #32CCCC",
"h  c #63D8D8",
"j  c #E2F8F8",
"k  c #FCFEFE",
"l  c #38CDCD",
"z  c #56D5D5",
"x  c #EFFBFB",
"c  c #62D8D8",
"v  c #37CDCD",
"b  c #B5ECEC",
"n  c #EEFBFB",
"m  c #67D9D9",
"M  c #35CCCC",
"N  c #B1EBEB",
"B  c #DBF6F6",
"V  c #48D1D1",
"C  c #4CD2D2",
"Z  c #E0F7F7",
"A  c #98E5E5",
"S  c #8EE3E3",
"D  c #D2F4F4",
"F  c #41CFCF",
"G  c #EAFAFA",
"H  c #D9F5F5",
"J  c #B2ECEC",
"K  c #77DDDD",
"L  c #DEF7F7",
"P  c #4AD2D2",
"I  c #49D2D2",
"U  c #F3FCFC",
"Y  c #6DDBDB",
"T  c #4BD2D2",
"R  c #A2E8E8",
"E  c #E5F9F9",
"W  c #5AD6D6",
"Q  c #A8E9E9",
"!  c #FAFEFE",
"~  c #A9EAEA",
"^  c #79DDDD",
"/  c #78DDDD",
"(  c #35CDCD",
")  c #7CDEDE",
"_  c #CAF2F2",
"`  c #73DCDC",
"'  c #A0E7E7",
"]  c #F9FDFD",
"[  c #E7F9F9",
"{  c #E1F7F7",
"}  c #90E3E3",
"|  c #51D3D3",
" . c #BAEEEE",
".. c #41D0D0",
"X. c #C8F1F1",
"o. c #F1FCFC",
"O. c #AEEBEB",
"+. c #59D5D5",
"@. c #40CFCF",
"#. c #85E1E1",
"$. c #86E1E1",
"%. c #8CE2E2",
"&. c #68D9D9",
"*. c #C0EFEF",
"=. c #BDEFEF",
"-. c #A3E8E8",
";. c #ECFAFA",
":. c #BEEFEF",
">. c #9DE6E6",
",. c #CBF2F2",
"<. c #3DCECE",
"1. c #F0FBFB",
"2. c #ADEAEA",
"3. c #58D5D5",
"4. c #85E0E0",
"5. c #71DBDB",
"6. c #BCEEEE",
"7. c #BBEEEE",
"8. c #69DADA",
"9. c #83E0E0",
"0. c #F9FEFE",
"q. c #FDFEFE",
"w. c #44D0D0",
"e. c #80DFDF",
"r. c #B8EDED",
"t. c #BDEEEE",
"y. c #C9F2F2",
"u. c #F1FBFB",
"i. c #B4ECEC",
"p. c #5ED7D7",
"a. c #34CCCC",
"s. c #A6E9E9",
"d. c #E6F9F9",
"f. c #F7FDFD",
"g. c #A7E9E9",
"h. c #8DE2E2",
"j. c #69D9D9",
"k. c #D0F3F3",
"l. c #65D8D8",
"z. c #74DCDC",
"x. c #82DFDF",
"c. c #EBFAFA",
"v. c #45D0D0",
"b. c #52D4D4",
"n. c #A5E8E8",
"m. c #E5F8F8",
"M. c #96E5E5",
"N. c #49D1D1",
"B. c #4DD3D3",
"V. c #9EE7E7",
"C. c #E9F9F9",
"Z. c #DDF7F7",
"A. c #3DCFCF",
"S. c #D4F4F4",
"D. c #5BD6D6",
"F. c #CFF3F3",
"G. c #64D8D8",
"H. c #ACEAEA",
"J. c #4DD2D2",
"K. c #3BCECE",
"L. c #E4F8F8",
"P. c #4ED3D3",
"I. c #AEEAEA",
"U. c #3ECFCF",
"Y. c #7ADEDE",
"T. c #C2F0F0",
"R. c #DFF7F7",
"E. c #D9F6F6",
"W. c #5DD7D7",
"Q. c #97E5E5",
"!. c #95E5E5",
"~. c #C1F0F0",
"^. c #CEF3F3",
"/. c #6FDBDB",
"(. c #F2FCFC",
"). c #AAEAEA",
"_. c #95E4E4",
"`. c #3CCECE",
"'. c #CDF3F3",
"]. c #76DDDD",
"[. c #61D7D7",
"{. c #C5F1F1",
"}. c #47D1D1",
"|. c #9BE6E6",
" X c #55D4D4",
".X c #DDF6F6",
"XX c #D1F4F4",
"oX c #7BDEDE",
"OX c #99E6E6",
"+X c #B7EDED",
"@X c #4FD3D3",
"#X c #9FE7E7",
"$X c #D1F3F3",
"%X c #99E5E5",
"&X c #54D4D4",
"*X c #D6F5F5",
"=X c #7EDFDF",
"-X c #53D4D4",
";X c #E8F9F9",
":X c #87E1E1",
">X c #75DDDD",
",X c #C7F1F1",
"<X c #7DDFDF",
"1X c #89E2E2",
"2X c #EDFBFB",
"3X c #94E4E4",
"4X c #6BDADA",
"5X c #3FCFCF",
"6X c #7FDFDF",
"7X c #57D5D5",
"8X c #B3ECEC",
"9X c #F5FDFD",
"0X c #C6F1F1",
"qX c #6EDBDB",
"wX c #79DEDE",
/* pixels */
"                                                                                                                                ",
"                                                                                                                                ",
"                                                                                                                                ",
"                                                                                                                                ",
"                                                                                                                                ",
"                                                                                                                                ",
"                                                                                                                                ",
"                                                                                                                                ",
"                                                                                                                                ",
"                                                                                                                                ",
"                                                                                                                                ",
"                                                                                                                                ",
"                                                                                                                                ",
"                                                                                        . X o O + @ #                           ",
"                                                                                      $ % & * = - ; : > ,                       ",
"                                                                                    < 1 2 3 4 5 6 7 8 9 0 ,                     ",
"                                                                                  q w e r t y u i # p a s d f                   ",
"                                                                                f O g h j           k + l z j                   ",
"                                                                                x c v b               n m M N                   ",
"                                                                                B V C Z                 A = S f                 ",
"                                                                                D F z G           f H J K - 6 i                 ",
"                                                                                L P I $           U Y - e = T R n               ",
"                                                                                E W * Q           ! ~ ^ / 1 v ( ) #             ",
"                                                                            i _ ` l 8 ' f           u ] . [ Q C g 5 .           ",
"                                                                          { } 3 = | + x                        .a ..X.          ",
"                                                                      o.O.+.e @.#.H f                         ! $.= %.k         ",
"                                                                  i _ 4 l ( &.*..           f                   =.v m U         ",
"                                                                Z 0 3 = | -.;.          u :.>.n                 ,.<.: n         ",
"                                                            1.2.3.e @.4.H f             y 5.v 6.                7.v 8.U         ",
"                                                        ! X.5.l ( &.*..                 f } = 9.0.            ! $.= S q.        ",
"                                                      Z S w.= | -.;.                    E e.g a r.            t.w.a y.          ",
"                                                  u.o 3.- @.4.H f                   , i.p.a.s * P s.d.f.f.d.g.C * h..           ",
"                                              ! y.4 l ( j.*..                   k k./ ; a.l.N e.v 8 z z.` z ( v x.c.            ",
"                                            Z 0 v.- b.n.;.                    m.M.N.= B.V.C.  o.Q w <.* a.<.p.~ o.              ",
"                  k c.Z.L n k           1.o 3.e @.$.$ f                   U i.p.g A.e.X u         c.X.N J X.G                   ",
"              u S.%.D.I P w S D q.  i _ 4 l ( &.*..                   k F./ ; a.G.7.y                                           ",
"            0.H.J.= K.T P ; = T > B } 3 = | + ;.                    L.M.N.= P.V.#                                               ",
"          f I.U.l Y.T.R.L *.^ s U.P.g @.#.E.f                   U i.W.g U.e.X u                                                 ",
"          B | v Q.U         , !.v ( 8.~..                   k ^.K ; a.G.6.y                                                     ",
"          V.e /.u.            (.+ ).;.                    L._.V = P.V.#                                                         ",
"        y 4 a.O.                                      U J : g U.e.X u                                                           ",
"        x p.`._                                   k '.].; a.G.6.y                                                               ",
"        1.[.; {.                                E _.}.= P.V.#                                                                   ",
"        0.) - |.      f                     U i.p.g U.e.X u                                                                     ",
"          i.l  X$   .X!.XX              i F.K ; a.G.6.y                                                                         ",
"          n /.= r t oX= OX              +XI g @X#XG                                                                             ",
"            S.W e & 9 P $X              %X= &Xk.f                                                                               ",
"              *X].K.= =X0.              ^...-Xd.                                                                                ",
"                1.].= >.                ;X&Xa S.                                                                                ",
"                q.:X= |.                d.b.w.*X                                                                                ",
"                  p e >Xy               ,XA.z ;X                                                                                ",
"                  XX3 a @             , <X= $.!                                                                                 ",
"                  ] 1Xe D.,.i       2X3Xl V ^.                                                                                  ",
"                    L.4X- I :Xb *.g.8.( 5X~ k                                                                                   ",
"                      { 6X5X= M l g * 7X8X!                                                                                     ",
"                        9X0X0 qX&.wXs.{                                                                                         ",
"                            u 9X, ]                                                                                             ",
"                                                                                                                                ",
"                                                                                                                                ",
"                                                                                                                                ",
"                                                                                                                                ",
"                                                                                                                                ",
"                                                                                                                                ",
"                                                                                                                                "
};
