/* XPM */
static char *collectable__31_1710156751[] = {
/* columns rows colors chars-per-pixel */
"64 64 212 2 ",
"   c white",
".  c #FDFEFE",
"X  c #F0FBFB",
"o  c #E3F8F8",
"O  c #E4F8F8",
"+  c #F1FBFB",
"@  c #FDFFFF",
"#  c #FEFFFF",
"$  c #D9F5F5",
"%  c #92E4E4",
"&  c #62D8D8",
"*  c #4FD3D3",
"=  c #65D8D8",
"-  c #94E5E5",
";  c #D7F5F5",
":  c #FAFEFE",
">  c #B0EBEB",
",  c #51D3D3",
"<  c #31CBCB",
"1  c #38CDCD",
"2  c #46D1D1",
"3  c #37CDCD",
"4  c #30CBCB",
"5  c #50D3D3",
"6  c #B3ECEC",
"7  c #FBFEFE",
"8  c #B1ECEC",
"9  c #40CFCF",
"0  c #36CDCD",
"q  c #73DCDC",
"w  c #BBEEEE",
"e  c #DAF6F6",
"r  c #B9EDED",
"t  c #43D0D0",
"y  c #B7EDED",
"u  c #DCF6F6",
"i  c #53D4D4",
"p  c #8FE3E3",
"a  c #35CCCC",
"s  c #57D5D5",
"d  c #E0F7F7",
"f  c #9FE7E7",
"g  c #32CCCC",
"h  c #6EDADA",
"j  c #EFFBFB",
"k  c #ECFAFA",
"l  c #69D9D9",
"z  c #33CCCC",
"x  c #A2E8E8",
"c  c #F6FDFD",
"v  c #72DCDC",
"b  c #ADEAEA",
"n  c #F7FDFD",
"m  c #5FD7D7",
"M  c #3CCECE",
"N  c #C9F1F1",
"B  c #F9FDFD",
"V  c #E2F8F8",
"C  c #A7E9E9",
"Z  c #60D7D7",
"A  c #3BCECE",
"S  c #C6F1F1",
"D  c #AFEBEB",
"F  c #4CD2D2",
"G  c #3DCFCF",
"H  c #31CCCC",
"J  c #41D0D0",
"K  c #94E4E4",
"L  c #F9FEFE",
"P  c #7BDEDE",
"I  c #9EE7E7",
"U  c #56D5D5",
"Y  c #4DD3D3",
"T  c #5ED7D7",
"R  c #CAF2F2",
"E  c #89E1E1",
"W  c #EDFAFA",
"Q  c #F8FDFD",
"!  c #E9F9F9",
"~  c #DEF7F7",
"^  c #B2ECEC",
"/  c #DFF7F7",
"(  c #85E1E1",
")  c #3ECFCF",
"_  c #7ADEDE",
"`  c #F1FCFC",
"'  c #6ADADA",
"]  c #7FDFDF",
"[  c #5AD6D6",
"{  c #47D1D1",
"}  c #9AE6E6",
"|  c #EBFAFA",
" . c #CCF2F2",
".. c #45D1D1",
"X. c #D3F4F4",
"o. c #E1F7F7",
"O. c #87E1E1",
"+. c #69DADA",
"@. c #C8F1F1",
"#. c #FCFEFE",
"$. c #ADEBEB",
"%. c #BAEEEE",
"&. c #5CD6D6",
"*. c #45D0D0",
"=. c #98E5E5",
"-. c #EAFAFA",
";. c #EEFBFB",
":. c #8BE2E2",
">. c #9BE6E6",
",. c #8AE2E2",
"<. c #67D9D9",
"1. c #66D9D9",
"2. c #7EDFDF",
"3. c #F4FCFC",
"4. c #82E0E0",
"5. c #A3E8E8",
"6. c #BCEEEE",
"7. c #44D0D0",
"8. c #95E5E5",
"9. c #42D0D0",
"0. c #D0F3F3",
"q. c #3ACECE",
"w. c #C1F0F0",
"e. c #8DE2E2",
"r. c #65D9D9",
"t. c #C4F0F0",
"y. c #F5FDFD",
"u. c #71DBDB",
"i. c #F2FCFC",
"p. c #A1E8E8",
"a. c #E8F9F9",
"s. c #BEEFEF",
"d. c #E7F9F9",
"f. c #A5E8E8",
"g. c #49D1D1",
"h. c #2FCBCB",
"j. c #A4E8E8",
"k. c #39CECE",
"l. c #ACEAEA",
"z. c #8EE3E3",
"x. c #41CFCF",
"c. c #63D8D8",
"v. c #75DCDC",
"b. c #64D8D8",
"n. c #58D5D5",
"m. c #A1E7E7",
"M. c #90E3E3",
"N. c #F5FCFC",
"B. c #BFEFEF",
"V. c #E6F9F9",
"C. c #4ED3D3",
"Z. c #51D4D4",
"A. c #EDFBFB",
"S. c #61D7D7",
"D. c #AAEAEA",
"F. c #E5F9F9",
"G. c #C0EFEF",
"H. c #D5F4F4",
"J. c #77DDDD",
"K. c #79DDDD",
"L. c #D6F5F5",
"P. c #95E4E4",
"I. c #83E0E0",
"U. c #C1EFEF",
"Y. c #E5F8F8",
"T. c #A9EAEA",
"R. c #91E3E3",
"E. c #D4F4F4",
"W. c #D2F4F4",
"Q. c #6EDBDB",
"!. c #7CDEDE",
"~. c #DBF6F6",
"^. c #C2F0F0",
"/. c #F3FCFC",
"(. c #ABEAEA",
"). c #93E4E4",
"_. c #BDEEEE",
"`. c #D8F5F5",
"'. c #34CCCC",
"]. c #3FCFCF",
"[. c #AEEBEB",
"{. c #8CE2E2",
"}. c #B8EDED",
"|. c #D1F4F4",
" X c #54D4D4",
".X c #99E6E6",
"XX c #B1EBEB",
"oX c #55D4D4",
"OX c #4BD2D2",
"+X c #81DFDF",
"@X c #35CDCD",
"#X c #70DBDB",
"$X c #CFF3F3",
"%X c #86E1E1",
"&X c #B4ECEC",
"*X c #4AD2D2",
"=X c #A0E7E7",
"-X c #9DE7E7",
";X c #6FDBDB",
":X c #CDF2F2",
">X c #6DDADA",
",X c #48D1D1",
"<X c #84E0E0",
"1X c #6CDADA",
"2X c #A6E9E9",
"3X c #A9E9E9",
"4X c #C7F1F1",
"5X c #78DDDD",
"6X c #5DD7D7",
"7X c #7DDEDE",
"8X c #C5F1F1",
"9X c #C3F0F0",
/* pixels */
"                                                                                                                                ",
"                                                                                                                                ",
"                                                                                                                                ",
"                                                                                                                                ",
"                                                                                                                                ",
"                                                                                                                                ",
"                                                                                                                                ",
"                                                                                                                                ",
"                                                                                                                                ",
"                                                                                                                                ",
"                                                                                                                                ",
"                                                                                                                                ",
"                                                                                        . X o O + @                             ",
"                                                                                    # $ % & * * = - ; #                         ",
"                                                                                  : > , < 1 2 2 3 4 5 6 7                       ",
"                                                                                # 8 9 0 q w e $ r q 0 t y                       ",
"                                                                                u i 0 % +         X p a s d                     ",
"                                                                                f g h j             k l z x                     ",
"                                                                              c v z b                 b z q n                   ",
"                                                                              j m M N             B V C 1 m X                   ",
"                                                                              X Z A S             D F G H J K V                 ",
"                                                                              L P g I             b 5 U Y 1 g T R               ",
"                                                                              c E 4 Z W           Q O ! ~ ^ & H s ;             ",
"                                                                            / ( ) a _ `                     d ' 4 ] n           ",
"                                                                        n y [ < { } |                          .....X.          ",
"                                                                      o.O.G z +.@.#.                          c v z $.          ",
"                                                                  Q %.&.< *.=.-.        # ! ;.                @ :.4 >.          ",
"                                                                V ,.) z <.S 7           O 1.2.3.              7 4.< 5.          ",
"                                                            L 6.T H 7.8.!               / F 9.0.              ! &.q.w.          ",
"                                                          O e.9 g r.t.7                 y.u.4 ] i.          #.p.0 &.a.          ",
"                                                      L s.Z g 9.% d.                  X f.g.h.1 ,.o .     ;.j.t k.l.            ",
"                                                    O z.x.g c.w.:                 # X.v.3 q.b.7.z n.,.m.8.r.3 k.M.N.            ",
"                                                : B.Z g J M.V.                  + C C.4 Z.l.A.w S.1 4 4 4 a U D.3.              ",
"                                              F.p J g & G.:                 # H.J.3 1 K.L.      -.6.P.I.e.^ V #                 ",
"                                          : U.& g x.p Y.                  i.T.* 4 * T.i.              7 @                       ",
"                      Q y.L             V.R.9.g Z B.:                   L.K.1 3 J.E.#                                           ",
"                : W.} J.Q.!.5.~.@   : ^.c.g 9 e.O                   /.(.Z.4 C.C +                                               ",
"              k ).{ < z 0 H g * C ~ ).t H m _.L                   `.P k.3 v.X.#                                                 ",
"            ;.2.'.].P [.%.5.' 3 A , '.9 {.o                   3.[.i 4 F j.X                                                     ",
"          @ I a Y }.n       j f ) < T 6.B                   e 2.q.0 v |.#                                                       ",
"          o  Xk.>             B $..XV                   y.XXoX4 OXx j                                                           ",
"          w 3 c.;.                #                   u +XA @X#X$X@                                                             ",
"          p.< %X#.                                c &Xs < *X=X;.                                                                ",
"          -X4 :.@                               u 4.M @X;X:X.                                                                   ",
"          ^ '.>X3.                          c &Xs 4 ,XI A.                                                                      ",
"          e OX9 ^.    ~. .L               / <XM '.1X ..                                                                         ",
"          : e.H m L.Y.c.* ~.            j >X< { >.k                                                                             ",
"            o 1.4 oXu.@X& -.            j 1.4 p 7                                                                               ",
"              e #X3 < a j.                2Xz J.Q                                                                               ",
"                A.3X*.A t.                @.A m j                                                                               ",
"                  + m q.t.                4XA Z X                                                                               ",
"                  n v.H m.                2Xg 5XQ                                                                               ",
"                    3X'.6XO             d.c.'.D.                                                                                ",
"                    V.Z g 7XY.        Y.] z m F.                                                                                ",
"                      t.F g Z x t.8Xj.Z g F 9X                                                                                  ",
"                      # 9Xm '.g q.q.g '.& 8X#                                                                                   ",
"                          V.D.P = c.5X(.a.                                                                                      ",
"                              B i.` Q                                                                                           ",
"                                                                                                                                ",
"                                                                                                                                ",
"                                                                                                                                ",
"                                                                                                                                ",
"                                                                                                                                ",
"                                                                                                                                "
};
