/* XPM */
static char *collectable__4_1710156750[] = {
/* columns rows colors chars-per-pixel */
"64 64 222 2 ",
"   c white",
".  c #FAFEFE",
"X  c #E5F9F9",
"o  c #CFF3F3",
"O  c #CCF2F2",
"+  c #DCF6F6",
"@  c #F3FCFC",
"#  c #FCFEFE",
"$  c #CEF3F3",
"%  c #83E0E0",
"&  c #53D4D4",
"*  c #40CFCF",
"=  c #3DCFCF",
"-  c #49D1D1",
";  c #6FDBDB",
":  c #B7EDED",
">  c #F5FCFC",
",  c #FBFEFE",
"<  c #ACEAEA",
"1  c #30CBCB",
"2  c #58D5D5",
"3  c #5CD6D6",
"4  c #49D2D2",
"5  c #32CCCC",
"6  c #3BCECE",
"7  c #88E1E1",
"8  c #ECFAFA",
"9  c #B9EDED",
"0  c #42D0D0",
"q  c #38CDCD",
"w  c #7FDFDF",
"e  c #CBF2F2",
"r  c #EAFAFA",
"t  c #EEFBFB",
"y  c #DAF6F6",
"u  c #9AE6E6",
"i  c #47D1D1",
"p  c #33CCCC",
"a  c #8AE2E2",
"s  c #F6FDFD",
"d  c #E6F9F9",
"f  c #5DD6D6",
"g  c #34CCCC",
"h  c #90E3E3",
"j  c #F4FCFC",
"k  c #FDFFFF",
"l  c #BBEEEE",
"z  c #46D1D1",
"x  c #BEEFEF",
"c  c #AFEBEB",
"v  c #35CCCC",
"b  c #61D8D8",
"n  c #E9F9F9",
"m  c #31CCCC",
"M  c #5BD6D6",
"N  c #8CE2E2",
"B  c #A4E8E8",
"V  c #D0F3F3",
"C  c #F7FDFD",
"Z  c #85E1E1",
"A  c #9BE6E6",
"S  c #91E3E3",
"D  c #2FCBCB",
"F  c #44D0D0",
"G  c #DFF7F7",
"H  c #F8FDFD",
"J  c #75DDDD",
"K  c #B3ECEC",
"L  c #CDF2F2",
"P  c #70DBDB",
"I  c #93E4E4",
"U  c #95E4E4",
"Y  c #74DCDC",
"T  c #43D0D0",
"R  c #63D8D8",
"E  c #D9F5F5",
"W  c #7EDFDF",
"Q  c #A7E9E9",
"!  c #F2FCFC",
"~  c #B4ECEC",
"^  c #C6F1F1",
"/  c #71DBDB",
"(  c #9EE7E7",
")  c #31CBCB",
"_  c #78DDDD",
"`  c #D4F4F4",
"'  c #52D4D4",
"]  c #B5ECEC",
"[  c #D1F4F4",
"{  c #BAEEEE",
"}  c #99E5E5",
"|  c #7DDFDF",
" . c #F9FEFE",
".. c #4ED3D3",
"X. c #C2F0F0",
"o. c #60D7D7",
"O. c #EFFBFB",
"+. c #E3F8F8",
"@. c #2DCBCB",
"#. c #85E0E0",
"$. c #59D5D5",
"%. c #BCEEEE",
"&. c #41CFCF",
"*. c #C4F0F0",
"=. c #37CDCD",
"-. c #67D9D9",
";. c #E2F8F8",
":. c #5DD7D7",
">. c #95E5E5",
",. c #FEFFFF",
"<. c #F5FDFD",
"1. c #7BDEDE",
"2. c #92E4E4",
"3. c #89E2E2",
"4. c #3ACECE",
"5. c #9FE7E7",
"6. c #AAEAEA",
"7. c #3CCECE",
"8. c #D2F4F4",
"9. c #3ECFCF",
"0. c #45D0D0",
"q. c #C5F1F1",
"w. c #86E1E1",
"e. c #EBFAFA",
"r. c #D3F4F4",
"t. c #91E4E4",
"y. c #41D0D0",
"u. c #E1F8F8",
"i. c #96E5E5",
"p. c #57D5D5",
"a. c #3FCFCF",
"s. c #68D9D9",
"d. c #D6F5F5",
"f. c #51D3D3",
"g. c #77DDDD",
"h. c #BFEFEF",
"j. c #B8EDED",
"k. c #C7F1F1",
"l. c #75DCDC",
"z. c #E0F7F7",
"x. c #98E5E5",
"c. c #A9EAEA",
"v. c #87E1E1",
"b. c #69D9D9",
"n. c #D5F4F4",
"m. c #50D3D3",
"M. c #A6E9E9",
"N. c #C8F1F1",
"B. c #76DDDD",
"V. c #F1FBFB",
"C. c #5AD6D6",
"Z. c #99E6E6",
"A. c #A8E9E9",
"S. c #4FD3D3",
"D. c #6ADADA",
"F. c #CAF2F2",
"G. c #B6EDED",
"H. c #6BDADA",
"J. c #DDF7F7",
"K. c #D5F5F5",
"L. c #A1E7E7",
"P. c #4AD2D2",
"I. c #82E0E0",
"U. c #6CDADA",
"Y. c #F1FCFC",
"T. c #DBF6F6",
"R. c #48D1D1",
"E. c #F0FBFB",
"W. c #79DEDE",
"Q. c #9DE6E6",
"!. c #51D4D4",
"~. c #81DFDF",
"^. c #6EDBDB",
"/. c #EDFAFA",
"(. c #4DD2D2",
"). c #39CECE",
"_. c #ABEAEA",
"`. c #B2ECEC",
"'. c #56D5D5",
"]. c #FDFEFE",
"[. c #36CDCD",
"{. c #D7F5F5",
"}. c #80DFDF",
"|. c #EDFBFB",
" X c #D1F3F3",
".X c #4CD2D2",
"XX c #ADEAEA",
"oX c #B0EBEB",
"OX c #72DCDC",
"+X c #7CDEDE",
"@X c #AEEBEB",
"#X c #55D5D5",
"$X c #35CDCD",
"%X c #A2E8E8",
"&X c #D8F5F5",
"*X c #3DCECE",
"=X c #4BD2D2",
"-X c #65D9D9",
";X c #94E4E4",
":X c #71DCDC",
">X c #7DDEDE",
",X c #30CCCC",
"<X c #54D4D4",
"1X c #D9F6F6",
"2X c #5FD7D7",
"3X c #A3E8E8",
"4X c #8EE3E3",
"5X c #B9EEEE",
"6X c #E5F8F8",
"7X c #BDEFEF",
"8X c #8DE3E3",
"9X c #8FE3E3",
"0X c #DDF6F6",
"qX c #F9FDFD",
"wX c #C1F0F0",
"eX c #CDF3F3",
"rX c #81E0E0",
"tX c #E8F9F9",
"yX c #62D8D8",
"uX c #C0EFEF",
"iX c #E4F8F8",
"pX c #8BE2E2",
/* pixels */
"                                                                                                                                ",
"                                                                          . X o O + @                                           ",
"                                                                      # $ % & * = - ; : >                                       ",
"                                                                    , < - 1 * 2 3 4 5 6 7 8                                     ",
"                                                                    9 0 q w e r t y u i p a s                                   ",
"                                                                  d f g h j         k l z = x                                   ",
"                                                                  c v b n             s w m M N B V C                           ",
"                                                                , Z 1 A             t S z 1 1 D m F % G                         ",
"                                                                H J g K             L 0 * P I U Y T 1 R E                       ",
"                                                                . W 5 Q             ! ~ ^ j     s ^ b 1 / t                     ",
"                                                                  ( ) _ C                           ` ' q ]                     ",
"                                                                  [ z * {                             } ) |  .                  ",
"                                                                  . h v ..X.                          ^ 6 o.O.                  ",
"                                                                    +.2 @.#.,                         V * $.8                   ",
"                                                                    %.&.F *.                          9 =.-.!                   ",
"                                                                  ;.:.p >.,     ,.V { <.            s 1.1 2.k                   ",
"                                                                H 3.m -.n       C Y 4.5.H         , 6.7.4 8.                    ",
"                                                                { 9.0.q.        ,.6.= = w.o e.r r.t.y.q 5.#                     ",
"                                                              u.3 p i.,           > _ 1 1 T 2 p.F ) a.i.j                       ",
"                                                            H 7 ) s.n             d.' q R f.* * ..g.h.H                         ",
"                                                            j.9.0.k.            ! _ 1 l.n +.V o u.C                             ",
"                                                          z.M p x.,           ,.c.q ..r.                                        ",
"                                                        C v.) b.r             n.m.=.M.,.                                        ",
"                                                        : = z N.            ! g.1 B.V.                                          ",
"                                                      G C.g Z.#           ,.A.q S.`                                             ",
"                                                    C Z ) D.e.            ` S.q A.,.                                            ",
"                  # j k                             ] 7.i F.            V.B.1 g.!                                               ",
"                  G.H.$                           J.2 g A #           ,.Q =.m.K.                                                ",
"                ,.L.P.h.                        s I.1 U.8             r...q 6.,.                                                ",
"                  Y.T.H                         K 6 R.e             E.l.1 W.!                                                   ",
"                                              + p.v Q.#           ,.M.=.!.d.                                                    ",
"                                            <.~.) ^./.            8.(.)._.                                                      ",
"                                            `.6 4 O             E.Y 1 1.@                                                       ",
"                                          T.'.v ( ].          ,.B [.' {.                                                        ",
"                                        > }.1 ^.|.             X.X).XX                                  H T.Y.                  ",
"                                ,.,.    oX6 4 L             O.OX1 +Xj                                   h.P.L.,.                ",
"                          H K.< 2.I @X%.#X$X5.].          k %X[.& &X                                    $ H.G.                  ",
"                        z.w.i p 1 1 g *X5 ; |.            o =X4.@X                                      k j #                   ",
"                      + -Xm T Y U ;X:Xy.S.$             t P 1 >Xj                                                               ",
"                    ! _ ,Xb N.s     j e o #           k L.$X<X1X                                                                ",
"                    9 4.m.r.                          $ P.4.c                                                                   ",
"                   .W ) x.,.                        /.; m W j                                                                   ",
"                  O.2X7.k.                        ,.3X$Xm.E                                                                     ",
"                  8 $.a.o                         # 4Xm =XO                                                                     ",
"                  @ s.=.5X                          6XY m U.t                                                                   ",
"                  k h 1 w H     ,.T.[ ,               T.& 4.7X                                                                  ",
"                    $ z = < ,   E.D.<XG               k 8X1 h ,.                                                                ",
"                    , u [.* 9Xd.[ P.R.0X                oXp _ H                                                                 ",
"                      ! U * ) z <X=.4 T.                @Xp _ H                                                                 ",
"                        qXwXB..X9.[.).:               , v.1 I ,.                                                                ",
"                            s G eXrX) ^./.            V =X9.q.                                                                  ",
"                                  E f.g Z tX      ].` -X,X+Xj                                                                   ",
"                                  ,.K F p yX3XuX9 4XS.1 o.+                                                                     ",
"                                    , { 3 g 5 q [.1 6 l.E                                                                       ",
"                                        iX6.1.-.^.pXh.Y.                                                                        ",
"                                            qX@ <.#                                                                             ",
"                                                                                                                                ",
"                                                                                                                                ",
"                                                                                                                                ",
"                                                                                                                                ",
"                                                                                                                                ",
"                                                                                                                                ",
"                                                                                                                                ",
"                                                                                                                                "
};
