/* XPM */
static char *collectable__15_1710156750[] = {
/* columns rows colors chars-per-pixel */
"64 64 216 2 ",
"   c white",
".  c #F9FEFE",
"X  c #DBF6F6",
"o  c #B9EDED",
"O  c #ACEAEA",
"+  c #B7EDED",
"@  c #D1F3F3",
"#  c #F1FCFC",
"$  c #DDF6F6",
"%  c #87E1E1",
"&  c #4BD2D2",
"*  c #36CDCD",
"=  c #32CCCC",
"-  c #35CCCC",
";  c #42D0D0",
":  c #6DDADA",
">  c #C1F0F0",
",  c #FBFEFE",
"<  c #CFF3F3",
"1  c #5DD6D6",
"2  c #30CBCB",
"3  c #67D9D9",
"4  c #7ADEDE",
"5  c #70DBDB",
"6  c #4DD2D2",
"7  c #31CCCC",
"8  c #43D0D0",
"9  c #A7E9E9",
"0  c #FAFEFE",
"q  c #E2F8F8",
"w  c #60D7D7",
"e  c #C8F1F1",
"r  c #F2FCFC",
"t  c #F6FDFD",
"y  c #8AE2E2",
"u  c #39CECE",
"i  c #41D0D0",
"p  c #BAEEEE",
"a  c #FDFEFE",
"s  c #95E5E5",
"d  c #63D8D8",
"f  c #E0F7F7",
"g  c #8FE3E3",
"h  c #33CCCC",
"j  c #61D8D8",
"k  c #EAFAFA",
"l  c #5BD6D6",
"z  c #E6F9F9",
"x  c #5AD6D6",
"c  c #39CDCD",
"v  c #BFEFEF",
"b  c #D3F4F4",
"n  c #53D4D4",
"m  c #DEF7F7",
"M  c #6FDBDB",
"N  c #31CBCB",
"B  c #8CE2E2",
"V  c #EEFBFB",
"C  c #CAF2F2",
"Z  c #3CCECE",
"A  c #5FD7D7",
"S  c #EFFBFB",
"D  c #A2E8E8",
"F  c #4ED3D3",
"G  c #37CDCD",
"H  c #3BCECE",
"J  c #A4E8E8",
"K  c #EDFBFB",
"L  c #52D4D4",
"P  c #E5F9F9",
"I  c #45D0D0",
"U  c #5CD6D6",
"Y  c #64D8D8",
"T  c #4FD3D3",
"R  c #35CDCD",
"E  c #75DDDD",
"W  c #E3F8F8",
"Q  c #EBFAFA",
"!  c #B6EDED",
"~  c #EDFAFA",
"^  c #D9F5F5",
"/  c #ECFAFA",
"(  c #E1F8F8",
")  c #7BDEDE",
"_  c #FEFFFF",
"`  c #97E5E5",
"'  c #62D8D8",
"]  c #E8F9F9",
"[  c #C6F1F1",
"{  c #4CD2D2",
"}  c #38CDCD",
"|  c #B0EBEB",
" . c #7FDFDF",
".. c #D9F6F6",
"X. c #9EE7E7",
"o. c #6DDBDB",
"O. c #F4FCFC",
"+. c #34CCCC",
"@. c #49D1D1",
"#. c #B3ECEC",
"$. c #D6F5F5",
"%. c #45D1D1",
"&. c #4DD3D3",
"*. c #DDF7F7",
"=. c #6EDBDB",
"-. c #50D3D3",
";. c #FDFFFF",
":. c #E7F9F9",
">. c #D5F5F5",
",. c #D4F4F4",
"<. c #59D5D5",
"1. c #DCF6F6",
"2. c #DFF7F7",
"3. c #49D2D2",
"4. c #C9F2F2",
"5. c #C9F1F1",
"6. c #41CFCF",
"7. c #F1FBFB",
"8. c #B5ECEC",
"9. c #BEEFEF",
"0. c #A9E9E9",
"q. c #9BE6E6",
"w. c #B2ECEC",
"e. c #48D1D1",
"r. c #82E0E0",
"t. c #FCFEFE",
"y. c #F7FDFD",
"u. c #D0F3F3",
"i. c #61D7D7",
"p. c #F8FDFD",
"a. c #A5E9E9",
"s. c #86E1E1",
"d. c #84E0E0",
"f. c #8EE3E3",
"g. c #76DDDD",
"h. c #59D6D6",
"j. c #CDF3F3",
"k. c #99E5E5",
"l. c #3ACECE",
"z. c #92E4E4",
"x. c #85E0E0",
"c. c #44D0D0",
"v. c #3ECFCF",
"b. c #9FE7E7",
"n. c #F3FCFC",
"m. c #93E4E4",
"M. c #BDEEEE",
"N. c #A1E7E7",
"B. c #9AE6E6",
"V. c #ABEAEA",
"C. c #D2F4F4",
"Z. c #3FCFCF",
"A. c #A0E7E7",
"S. c #72DCDC",
"D. c #7EDFDF",
"F. c #ADEAEA",
"G. c #D8F5F5",
"H. c #54D4D4",
"J. c #C3F0F0",
"K. c #CEF3F3",
"L. c #5DD7D7",
"P. c #30CCCC",
"I. c #D7F5F5",
"U. c #55D4D4",
"Y. c #C5F0F0",
"T. c #68D9D9",
"R. c #5CD7D7",
"E. c #5ED7D7",
"W. c #75DCDC",
"Q. c #C2F0F0",
"!. c #69DADA",
"~. c #81DFDF",
"^. c #E9FAFA",
"/. c #74DCDC",
"(. c #8DE3E3",
"). c #AAEAEA",
"_. c #80DFDF",
"`. c #E9F9F9",
"'. c #F5FCFC",
"]. c #9DE7E7",
"[. c #78DDDD",
"{. c #A6E9E9",
"}. c #F9FDFD",
"|. c #90E3E3",
" X c #3DCFCF",
".X c #CBF2F2",
"XX c #77DDDD",
"oX c #4AD2D2",
"OX c #B4ECEC",
"+X c #F0FBFB",
"@X c #65D8D8",
"#X c #6CDADA",
"$X c #C0EFEF",
"%X c #CCF2F2",
"&X c #57D5D5",
"*X c #65D9D9",
"=X c #DAF6F6",
"-X c #BCEEEE",
";X c #71DBDB",
":X c #51D3D3",
">X c #E5F8F8",
",X c #73DCDC",
"<X c #B5EDED",
"1X c #58D5D5",
"2X c #3DCECE",
"3X c #85E1E1",
"4X c #96E5E5",
"5X c #E4F8F8",
"6X c #90E4E4",
"7X c #9DE6E6",
"8X c #46D1D1",
"9X c #55D5D5",
"0X c #D5F4F4",
"qX c #A8E9E9",
"wX c #ADEBEB",
"eX c #D1F4F4",
/* pixels */
"                                                                                                                                ",
"                                                                                                                                ",
"                                                                                                                                ",
"                                                                                                                                ",
"                                                                                                                                ",
"                                                                                                                                ",
"                                                                                                                                ",
"                                                                                  . X o O + @ #                                 ",
"                                                                                $ % & * = - ; : > ,                             ",
"                                                                              < 1 2 ; 3 4 5 6 7 8 9 0                           ",
"                                                                            q w 7 3 e r . t X y u i p                           ",
"                                                                          a s = d f           t g h j k                         ",
"                                                                          k l u p               z x c v                         ",
"                                                                          b ; n z             0 m M N B V                       ",
"                                                                          C Z A S           , D F G 2 H w J K                   ",
"                                                                          b ; L P           0 y I U Y T R R E W                 ",
"                                                                          Q U c !             ~ ^ / # ( 9 T N ) #               ",
"                                                                          _ ` 7 ' ]                       [ { } |               ",
"                                                                          ~  .7 { ..                      _ X.= o.O.            ",
"                                                                        P 4 +.@.#.,                         $.%.&.f             ",
"                                                                      *.=.= -.v ;.                          :.n 8 >.            ",
"                                                                    ,.d 2 <.C         O.v 1.                2.& 3.*.            ",
"                                                                  4.<.2 d ,.          5.6.5 7.              8.G ' S             ",
"                                                              ;.9.-.7 =.*.            m L u 0.;.          ( ' = q._             ",
"                                                            , w.e.h 4 P               . r.2 %.J Q t._ y.u.: N i.W               ",
"                                                          p.a.i * s./               , | @.+.- G A d.f.g.e.2 h.j.                ",
"                                                        O.k.Z l.z.#               p.J 6.* x.D x } 2 2 = c. .^                   ",
"                                                      S B } v.b.t               n.` H l.m.r   z M.N.B.V.C.y.                    ",
"                                                    ]  .+.c.V.0               V y G Z.A.y.                                      ",
"                                                  f S.= { + t.              :.D.+.I F.0                                         ",
"                                                G.3 2 H.J._               f S.= 6 o a                                           ",
"                                              K.L.P.L.K.                I.3 2 U.Y._                                             ",
"                                          _ J.H.N T.G.                j.R.2 E.<                                                 ",
"                                        t.+ & = W.q               _ Q.n N !.^                                                   ",
"                                      0 V.c.- ~.^.              t.! & = /.(                                                     ",
"                    0 X + 9 O [ /   t X.v.} (.S               0 ).c.- _.`.                                                      ",
"                  f y { * N = Z ' F.g u Z B.'.              t ].v.} (.S                                                         ",
"                >.' N Z.3  .[.H.+.G +.; {.}.              7.|.u  Xq.'.                                                          ",
"              :.T.7 d Q.# 0 p.W k.c.& w.,               k d.R ; 9 }.                                                            ",
"              N.h L.1.          0 .X@ a               W XXh oXOXt.                                                              ",
"            +X@X* |                                 X #XN L $X_                                                                 ",
"            m oXoX*.                              C.i.2 l %X                                                                    ",
"            $.8 n :.                            e &X2 *X$.                                                                      ",
"            m & e.=X                        a -XT = ;X2.                                                                        ",
"            # T.+.{.      n.r               1.:X7 [.:.                                                                          ",
"              0.R L <   #  .[.~             >XU = q.                                                                            ",
"              K ,X2 &X+ <XH &X]               | G w K                                                                           ",
"                2.M h l.%.7 d.,               q T c.>.                                                                          ",
"                  `.B.1Xu 7 `                 S E.2XC                                                                           ",
"                    ;.] 3X2 % t.              :.H.; b                                                                           ",
"                        p G l :.              9.H h.^.                                                                          ",
"                        z l +.4X.           5X3 N 6Xt.                                                                          ",
"                          | Z  X4X>X0 t.t < =.= l m                                                                             ",
"                          p.7Xv.+.&XD.% 5 8X2 9Xe                                                                               ",
"                            }.! d Z = 2 h c.) 0X                                                                                ",
"                                / [ qXA.wXeXt                                                                                   ",
"                                                                                                                                ",
"                                                                                                                                ",
"                                                                                                                                ",
"                                                                                                                                ",
"                                                                                                                                ",
"                                                                                                                                ",
"                                                                                                                                ",
"                                                                                                                                "
};
