/* XPM */
static char *collectable__11_1710156750[] = {
/* columns rows colors chars-per-pixel */
"64 64 211 2 ",
"   c white",
".  c #FEFFFF",
"X  c #F7FDFD",
"o  c #D0F3F3",
"O  c #A5E9E9",
"+  c #90E3E3",
"@  c #95E5E5",
"#  c #B0EBEB",
"$  c #DAF6F6",
"%  c #FBFEFE",
"&  c #DDF6F6",
"*  c #82E0E0",
"=  c #44D0D0",
"-  c #32CCCC",
";  c #30CBCB",
":  c #34CCCC",
">  c #4CD2D2",
",  c #92E4E4",
"<  c #E9F9F9",
"1  c #D5F5F5",
"2  c #60D7D7",
"3  c #45D1D1",
"4  c #77DDDD",
"5  c #96E5E5",
"6  c #6EDBDB",
"7  c #3FCFCF",
"8  c #33CCCC",
"9  c #74DCDC",
"0  c #E7F9F9",
"q  c #EBFAFA",
"w  c #6CDADA",
"e  c #64D8D8",
"r  c #CAF2F2",
"t  c #F4FCFC",
"y  c #BCEEEE",
"u  c #54D4D4",
"i  c #89E1E1",
"p  c #F8FDFD",
"a  c #ADEBEB",
"s  c #36CDCD",
"d  c #57D5D5",
"f  c #D9F5F5",
"g  c #C2F0F0",
"h  c #41D0D0",
"j  c #C9F1F1",
"k  c #75DCDC",
"l  c #A1E8E8",
"z  c #84E0E0",
"x  c #91E3E3",
"c  c #59D5D5",
"v  c #CDF3F3",
"b  c #FDFFFF",
"n  c #F3FCFC",
"m  c #A2E8E8",
"M  c #6FDBDB",
"N  c #53D4D4",
"B  c #D7F5F5",
"V  c #BFEFEF",
"C  c #65D8D8",
"Z  c #47D1D1",
"A  c #31CCCC",
"S  c #43D0D0",
"D  c #8CE2E2",
"F  c #D4F4F4",
"G  c #EFFBFB",
"H  c #61D7D7",
"J  c #3ACECE",
"K  c #9DE7E7",
"L  c #3DCECE",
"P  c #46D1D1",
"I  c #48D1D1",
"U  c #39CECE",
"Y  c #4DD2D2",
"T  c #AEEAEA",
"R  c #FAFEFE",
"E  c #FCFEFE",
"W  c #8BE2E2",
"Q  c #86E1E1",
"!  c #EDFBFB",
"~  c #CCF2F2",
"^  c #D8F5F5",
"/  c #B9EEEE",
"(  c #72DCDC",
")  c #40CFCF",
"_  c #B3ECEC",
"`  c #4AD2D2",
"'  c #DBF6F6",
"]  c #F0FBFB",
"[  c #8DE2E2",
"{  c #55D4D4",
"}  c #DEF7F7",
"|  c #94E4E4",
" . c #7EDFDF",
".. c #ECFAFA",
"X. c #69D9D9",
"o. c #9FE7E7",
"O. c #98E5E5",
"+. c #ABEAEA",
"@. c #71DBDB",
"#. c #F6FDFD",
"$. c #C1F0F0",
"%. c #5AD6D6",
"&. c #52D4D4",
"*. c #B6EDED",
"=. c #C7F1F1",
"-. c #3BCECE",
";. c #A3E8E8",
":. c #6ADADA",
">. c #D2F4F4",
",. c #CFF3F3",
"<. c #39CDCD",
"1. c #F2FCFC",
"2. c #E5F8F8",
"3. c #38CDCD",
"4. c #88E1E1",
"5. c #8AE2E2",
"6. c #A0E7E7",
"7. c #9CE6E6",
"8. c #31CBCB",
"9. c #67D9D9",
"0. c #A8E9E9",
"q. c #DCF6F6",
"w. c #37CDCD",
"e. c #B2ECEC",
"r. c #F9FEFE",
"t. c #4FD3D3",
"y. c #5ED7D7",
"u. c #C5F1F1",
"i. c #C1EFEF",
"p. c #6DDBDB",
"a. c #FDFEFE",
"s. c #6DDADA",
"d. c #6BDADA",
"f. c #3ECFCF",
"g. c #35CDCD",
"h. c #79DEDE",
"j. c #B5ECEC",
"k. c #51D4D4",
"l. c #50D3D3",
"z. c #B1EBEB",
"x. c #8EE3E3",
"c. c #51D3D3",
"v. c #D1F4F4",
"b. c #75DDDD",
"n. c #EEFBFB",
"m. c #35CCCC",
"M. c #78DDDD",
"N. c #BEEFEF",
"B. c #8FE3E3",
"V. c #76DDDD",
"C. c #F1FCFC",
"Z. c #C4F0F0",
"A. c #5CD6D6",
"S. c #B4ECEC",
"D. c #F5FCFC",
"F. c #A6E9E9",
"G. c #68D9D9",
"H. c #E6F9F9",
"J. c #85E1E1",
"K. c #5DD6D6",
"L. c #C5F0F0",
"P. c #D1F3F3",
"I. c #E8F9F9",
"U. c #93E4E4",
"Y. c #5BD6D6",
"T. c #DDF7F7",
"R. c #9AE6E6",
"E. c #B8EDED",
"W. c #56D5D5",
"Q. c #42D0D0",
"!. c #B7EDED",
"~. c #45D0D0",
"^. c #D3F4F4",
"/. c #6EDADA",
"(. c #C3F0F0",
"). c #E0F7F7",
"_. c #EDFAFA",
"`. c #89E2E2",
"'. c #A9EAEA",
"]. c #F1FBFB",
"[. c #62D8D8",
"{. c #7ADEDE",
"}. c #9EE7E7",
"|. c #AFEBEB",
" X c #59D6D6",
".X c #DFF7F7",
"XX c #BDEFEF",
"oX c #66D9D9",
"OX c #49D1D1",
"+X c #55D5D5",
"@X c #CEF3F3",
"#X c #58D5D5",
"$X c #7BDEDE",
"%X c #7DDEDE",
"&X c #F9FDFD",
"*X c #AEEBEB",
"=X c #C9F2F2",
"-X c #BBEEEE",
";X c #C6F1F1",
":X c #5FD7D7",
">X c #9BE6E6",
",X c #70DBDB",
"<X c #4BD2D2",
"1X c #3DCFCF",
"2X c #C0EFEF",
"3X c #97E5E5",
"4X c #A7E9E9",
"5X c #3CCECE",
"6X c #4ED3D3",
"7X c #B5EDED",
"8X c #EAFAFA",
/* pixels */
"                                                                                                                                ",
"                                                                                                                                ",
"                                                                                                                                ",
"                                                                                                                                ",
"                                                                                                                                ",
"                                                                                                                                ",
"                                                                                          .                                     ",
"                                                                                    X o O + @ # $ %                             ",
"                                                                                  & * = - ; ; : > , <                           ",
"                                                                                1 2 ; 3 4 5 , 6 7 8 9 0                         ",
"                                                                              q w ; e r X   . t y u - i p                       ",
"                                                                              a s d f             g = h j                       ",
"                                                                            X k - l               % z ; x .                     ",
"                                                                            q c 7 v             b n m 8 M t                     ",
"                                                                            0 N = B             V C Z A S D F b                 ",
"                                                                            G H J g           . K L P I U ; Y T R               ",
"                                                                            E W A Q p           ! ~ ^ f / ( s ) _ .             ",
"                                                                            R 5 - ` '                     ] [ : { }             ",
"                                                                          ! | 7 s  .G                       ..X.- o.            ",
"                                                                        ' k : ) O.G                           +.8 @.#.          ",
"                                                                    E $.%.; &.*.R                             =.-.2 ]           ",
"                                                                  t ;.P - :.>.          ,.o.0                 g <.e 1.          ",
"                                                                2.z 3.J 4.0           E 5.- 6.                7.8. .R           ",
"                                                              ,.9.A I 0.#.              _ 3.d q.            q.d w.e.            ",
"                                                          r._ t.; y.u.b                 i.S A p.B a.    b ^ s.; d...            ",
"                                                        ! | f.g.h.}                 R j.k.8 -.- l.[ z.z.x.c.; c v.              ",
"                                                      ' b.: ) O.G                 n.5 7 m.M./ ( -.; 8 8 ; -.9 1                 ",
"                                                  E $.%.; c.*.R                 & 4 m.7 5 n.  ] N.B.V.V.x.V C.                  ",
"                                                t ;.P - :.>.                a.Z.A.; l.S.R         b p p b                       ",
"                                              2.z 3.J 4.0                 D.F.Z - G.o                                           ",
"                                            ,.9.A I 0.#.                H.Q U U J.H.                                            ",
"                                        r._ t.; K.L.b                 P.X.- Z O D.                                              ",
"                    . 1.I.I.1..       ! U.f.g.M.}                 R j.c.; Y.g a.                                                ",
"                  T.R.G.u { G.O.$ . $ 9 : ) O.G                 n.5 7 : V.q.                                                    ",
"              E E.W.A m.h Q.g.8.u U.Y.; &.!.R                 q.4 m.7 @ n.                                                      ",
"              E.~.: w _ >.^._ /.s 8.8 d.^.                a.(.A.; l.S.r.                                                        ",
"            ).d : 5._.        ! B.> `.0                 D.F.Z - G.o                                                             ",
"            ;.8 G.q             #.T.#.                H.Q U U J.H.                                                              ",
"          X k 8 '.                                  o G.- Z O D.                                                                ",
"          ] H -.=.                              R j.l.; A.(.a.                                                                  ",
"          ].[.J Z.                            G 5 7 m.4 q.                                                                      ",
"          p {.8.}.                          & 4 m.7 5 n.                                                                        ",
"            |.s  X.X  % XX/ r.            H.oXA k.j.R                                                                           ",
"            q G.A 9 ).P.OX+X0             ).&.- o.                                                                              ",
"              @Xu A #Xe - $XX             a.5 A %X&X                                                                            ",
"                @Xd.3.; s *X                =XL Y._.                                                                            ",
"                  ! _ t.w.-X                B = N 0                                                                             ",
"                    r.k - 0.                ;X-.:Xn.                                                                            ",
"                      >X8.,X1.            a.+ ; * R                                                                             ",
"                      1 <XU F.E           i.Z 1X2X                                                                              ",
"                      E o.w.h 3X} t #.H.4X> - Q #.                                                                              ",
"                        n , 5X8 6X:.6 +Xs s  .<                                                                                 ",
"                          #.7XG.Q.s m.1Xy.4X]                                                                                   ",
"                              ] >.-XE.r 8X                                                                                      ",
"                                                                                                                                ",
"                                                                                                                                ",
"                                                                                                                                ",
"                                                                                                                                ",
"                                                                                                                                ",
"                                                                                                                                ",
"                                                                                                                                ",
"                                                                                                                                ",
"                                                                                                                                ",
"                                                                                                                                "
};
