/* XPM */
static char *collectable__38_1710156750[] = {
/* columns rows colors chars-per-pixel */
"64 64 227 2 ",
"   c white",
".  c #F8FDFD",
"X  c #E3F8F8",
"o  c #CFF3F3",
"O  c #CCF2F2",
"+  c #DEF7F7",
"@  c #F6FDFD",
"#  c #FBFEFE",
"$  c #C7F1F1",
"%  c #7DDEDE",
"&  c #51D3D3",
"*  c #3FCFCF",
"=  c #3ECFCF",
"-  c #4CD2D2",
";  c #75DCDC",
":  c #BDEFEF",
">  c #F7FDFD",
",  c #FDFFFF",
"<  c #FEFFFF",
"1  c #A0E7E7",
"2  c #44D0D0",
"3  c #30CBCB",
"4  c #42D0D0",
"5  c #59D5D5",
"6  c #5CD6D6",
"7  c #46D1D1",
"8  c #31CBCB",
"9  c #90E3E3",
"0  c #F1FBFB",
"q  c #BFEFEF",
"w  c #78DDDD",
"e  c #D4F4F4",
"r  c #ABEAEA",
"t  c #3CCECE",
"y  c #87E1E1",
"u  c #EBFAFA",
"i  c #EDFBFB",
"p  c #90E4E4",
"a  c #36CDCD",
"s  c #96E5E5",
"d  c #FCFEFE",
"f  c #FDFEFE",
"g  c #8AE2E2",
"h  c #2FCBCB",
"j  c #A2E8E8",
"k  c #DCF6F6",
"l  c #52D4D4",
"z  c #37CDCD",
"x  c #9EE7E7",
"c  c #B0EBEB",
"v  c #40CFCF",
"b  c #B6EDED",
"n  c #C1F0F0",
"m  c #E0F7F7",
"M  c #93E4E4",
"N  c #95E5E5",
"B  c #A1E7E7",
"V  c #32CCCC",
"C  c #6DDADA",
"Z  c #F0FBFB",
"A  c #CBF2F2",
"S  c #50D3D3",
"D  c #34CCCC",
"F  c #39CECE",
"G  c #8EE3E3",
"H  c #2ECBCB",
"J  c #8BE2E2",
"K  c #76DCDC",
"L  c #33CCCC",
"P  c #A9EAEA",
"I  c #CEF3F3",
"U  c #45D1D1",
"Y  c #62D8D8",
"T  c #5BD6D6",
"R  c #31CCCC",
"E  c #5FD7D7",
"W  c #CAF2F2",
"Q  c #65D8D8",
"!  c #B5ECEC",
"~  c #F3FCFC",
"^  c #66D9D9",
"/  c #38CDCD",
"(  c #C2F0F0",
")  c #C6F1F1",
"_  c #53D4D4",
"`  c #7CDEDE",
"'  c #F5FDFD",
"]  c #6FDBDB",
"[  c #35CCCC",
"{  c #FAFEFE",
"}  c #F4FCFC",
"|  c #E1F7F7",
" . c #92E4E4",
".. c #BEEFEF",
"X. c #3BCECE",
"o. c #57D5D5",
"O. c #E8F9F9",
"+. c #47D1D1",
"@. c #EAFAFA",
"#. c #81E0E0",
"$. c #56D5D5",
"%. c #C1EFEF",
"&. c #69DADA",
"*. c #6CDADA",
"=. c #5DD6D6",
"-. c #C8F1F1",
";. c #99E5E5",
":. c #C5F0F0",
">. c #F2FCFC",
",. c #9BE6E6",
"<. c #A6E9E9",
"1. c #E9FAFA",
"2. c #69D9D9",
"3. c #EEFBFB",
"4. c #4FD3D3",
"5. c #D2F4F4",
"6. c #76DDDD",
"7. c #DAF6F6",
"8. c #DBF6F6",
"9. c #B9EDED",
"0. c #AAEAEA",
"q. c #77DDDD",
"w. c #84E0E0",
"e. c #91E3E3",
"r. c #71DBDB",
"t. c #71DCDC",
"y. c #D5F4F4",
"u. c #4BD2D2",
"i. c #CDF3F3",
"p. c #A8E9E9",
"a. c #A4E8E8",
"s. c #B5EDED",
"d. c #D7F5F5",
"f. c #88E1E1",
"g. c #79DDDD",
"h. c #7EDFDF",
"j. c #83E0E0",
"k. c #48D1D1",
"l. c #D1F4F4",
"z. c #80DFDF",
"x. c #81DFDF",
"c. c #8CE2E2",
"v. c #41D0D0",
"b. c #BDEEEE",
"n. c #4DD3D3",
"m. c #D8F5F5",
"M. c #89E1E1",
"N. c #94E4E4",
"B. c #C0EFEF",
"V. c #D5F5F5",
"C. c #F1FCFC",
"Z. c #70DBDB",
"A. c #ECFAFA",
"S. c #9DE7E7",
"D. c #B8EDED",
"F. c #3ACECE",
"G. c #ADEBEB",
"H. c #68D9D9",
"J. c #9AE6E6",
"K. c #AEEBEB",
"L. c #E2F8F8",
"P. c #A5E9E9",
"I. c #60D7D7",
"U. c #E9F9F9",
"Y. c #A3E8E8",
"T. c #58D5D5",
"R. c #35CDCD",
"E. c #5ED7D7",
"W. c #E7F9F9",
"Q. c #9CE7E7",
"!. c #67D9D9",
"~. c #EDFAFA",
"^. c #E4F8F8",
"/. c #5AD6D6",
"(. c #ACEAEA",
"). c #DDF7F7",
"_. c #6EDBDB",
"`. c #39CDCD",
"'. c #B4ECEC",
"]. c #3DCECE",
"[. c #95E4E4",
"{. c #EFFBFB",
"}. c #4ED3D3",
"|. c #BCEEEE",
" X c #41CFCF",
".X c #8DE2E2",
"XX c #74DCDC",
"oX c #7FDFDF",
"OX c #B9EEEE",
"+X c #C3F0F0",
"@X c #BAEEEE",
"#X c #49D1D1",
"$X c #C4F0F0",
"%X c #43D0D0",
"&X c #7BDEDE",
"*X c #CDF2F2",
"=X c #64D8D8",
"-X c #4AD2D2",
";X c #D0F3F3",
":X c #72DCDC",
">X c #8FE3E3",
",X c #63D8D8",
"<X c #E6F9F9",
"1X c #6BDADA",
"2X c #65D9D9",
"3X c #C9F2F2",
"4X c #9FE7E7",
"5X c #6ADADA",
"6X c #B1ECEC",
"7X c #4DD2D2",
"8X c #8DE3E3",
"9X c #F9FEFE",
"0X c #3DCFCF",
"qX c #BBEEEE",
"wX c #DFF7F7",
"eX c #D3F4F4",
"rX c #89E2E2",
"tX c #5DD7D7",
"yX c #B2ECEC",
"uX c #54D4D4",
"iX c #73DCDC",
"pX c #55D5D5",
"aX c #7DDFDF",
"sX c #A5E8E8",
"dX c #A1E8E8",
"fX c #98E5E5",
"gX c #91E4E4",
/* pixels */
"                                                                                                                                ",
"                                                                                                                                ",
"                                                                                                                                ",
"                                                                                                                                ",
"                                                                                                                                ",
"                                                                                                                                ",
"                                                                                                                                ",
"                                                                      . X o O + @                                               ",
"                                                                  # $ % & * = - ; : >                                           ",
"                                                , > <           . 1 2 3 4 5 6 7 8 = 9 0                                         ",
"                                                q w e         < r t t y o u i e p 4 a s d                                       ",
"                                              f g h j         k l z x .         # c v 2 j b n m #                               ",
"                                              < M 3 N         B V C Z           < A S 3 D D F S G m                             ",
"                                                x H J ,     . K L P             I S V U Y C T t R E o                           ",
"                                                W Q !       ~ ^ / (             ) _ ` o Z ' u q ^ R E m                         ",
"                                                d Z #       @ ] [ b             { X }           | ^ R  .d                       ",
"                                                            , 9 3 y #                             ..X.o.O.                      ",
"                                                              ) * +.$                             @.5 = O                       ",
"                                                              @ #.R $.%.d                         } &.z q                       ",
"                                                                X *.3 _ m                         i =.t -.                      ",
"                                                                  ;.R Y u       , <               :.= l X                       ",
"                                                                | o./ c       >.,.<.'           1.] 3 J #                       ",
"                                                              , ;.V 2.3.      | 4./ g k . d ' 5.6.L $.7.                        ",
"                                                              8.S X.9.        # 0.2 L 4.q.w.] +.3 & n                           ",
"                                                            d e.8 r.>.          } t.3 z L 8 [ +.% 5.<                           ",
"                                                            y.u.= %.            i.7 2 p.c a.s.d.>                               ",
"                                                          { f.3 g.'           > h.3 j.{                                         ",
"                                                          I 7 4 -.            :.v k.l.                                          ",
"                                                        . z.3 x..           } ; 8 c.#                                           ",
"                                                        $ v.7 o             b.t n.m.                                            ",
"                                                      ' w 3 M.{           Z C R N.d                                             ",
"                                                      B.= u.V.            ! F _ +                                               ",
"                                                    C.Z.8  .d           A.^ L S.<                                               ",
"                                                    D.F.& k             G.z 5 X                                                 ",
"                                                  i H.V J.,           O.E [ <.                                                  ",
"                                                  K.z o.L.            P.D I.O.                                                  ",
"                                                U.I.D Y.            X T.z K.                                                    ",
"                                                <.R.E.W.          < Q.V !.~.                                                    ",
"                                              ^./.a (.            ).l F.b                                                       ",
"                                            < x L Q A.          d M R _.0                                                       ",
"                                            + _ `.'.            d.- ]...                                                        ",
"                                          f [.R *.{.          { J 3 6.}                                                         ",
"                                          m.}.t |.            l.k. X)                                                           ",
"                                        d .X8 XX~           . j.3 oX>                                                           ",
"                              # X ) OX+X@X#Xv $X            W %XU i.                                                            ",
"                            + .Xl X.[ F.= R ` @           @ &X3 y {                                                             ",
"                          *X6 8 t =.Z.=X2 n.i.            ( * -Xe                                                               ",
"                        | E.R ^ B.A.@ Z l.;X#           >.:X8 >X#                                                               ",
"                      d N.R ,Xm                         @XX.S 7.          { Z d                                                 ",
"                      <X$.X.|.                        {.1X8 M <           '.2XA                                                 ",
"                      3X].5 @.                        ).n.3 6.@.        , g H 4X                                                ",
"                      ..z 5X}                         { 6X7XL 8X9X        N 3 M <                                               ",
"                      W 0X6 A.                            qXv.2 i.        j h g f                                               ",
"                      ^._ = :.        <XwXf               . h.3 s <       eXq.q                                                 ",
"                      # rX3 ] O.    ~ XXtXL.                yXD :X>       < > ,                                                 ",
"                        m.uXL iXo @ W.pXv eX                ( `.^ ~                                                             ",
"                          B.& 3 7 ] ` 4 X.%.                K.L iX>                                                             ",
"                          < eXaX7 L 8 L V y {             } ; 8 ,.                                                              ",
"                              > e c sXM * 4 D.<         d 0.X.- d.                                                              ",
"                                      . g L k.dX^.' } + fX4 z 1 d                                                               ",
"                                        @.x./ D _ C 1Xn.V t gX~                                                                 ",
"                                          >.K.Q  Xa / 2 *.D.>                                                                   ",
"                                              {.;XqXq V.>.                                                                      ",
"                                                                                                                                "
};
