/* XPM */
static char *collectable__21_1710156751[] = {
/* columns rows colors chars-per-pixel */
"64 64 225 2 ",
"   c white",
".  c #FAFEFE",
"X  c #E8F9F9",
"o  c #D7F5F5",
"O  c #D6F5F5",
"+  c #E4F8F8",
"@  c #F7FDFD",
"#  c #FDFFFF",
"$  c #D2F4F4",
"%  c #87E1E1",
"&  c #57D5D5",
"*  c #45D1D1",
"=  c #43D0D0",
"-  c #51D4D4",
";  c #79DEDE",
":  c #C1F0F0",
">  c #F9FEFE",
",  c #FBFEFE",
"<  c #B0EBEB",
"1  c #4CD2D2",
"2  c #30CBCB",
"3  c #3DCECE",
"4  c #51D3D3",
"5  c #53D4D4",
"6  c #42D0D0",
"7  c #31CBCB",
"8  c #40CFCF",
"9  c #95E5E5",
"0  c #F3FCFC",
"q  c #B8EDED",
"w  c #37CDCD",
"e  c #79DDDD",
"r  c #C5F0F0",
"t  c #E5F8F8",
"y  c #E7F9F9",
"u  c #D1F3F3",
"i  c #8EE3E3",
"p  c #99E5E5",
"a  c #E3F8F8",
"s  c #5AD6D6",
"d  c #34CCCC",
"f  c #F2FCFC",
"g  c #ACEAEA",
"h  c #3ECFCF",
"j  c #C9F1F1",
"k  c #ABEAEA",
"l  c #64D8D8",
"z  c #EAFAFA",
"x  c #86E1E1",
"c  c #85E1E1",
"v  c #FCFEFE",
"b  c #81E0E0",
"n  c #9FE7E7",
"m  c #F8FDFD",
"M  c #ADEAEA",
"N  c #58D5D5",
"B  c #D8F5F5",
"V  c #F6FDFD",
"C  c #70DBDB",
"Z  c #35CCCC",
"A  c #E1F8F8",
"S  c #7ADEDE",
"D  c #48D1D1",
"F  c #32CCCC",
"G  c #50D3D3",
"H  c #80DFDF",
"J  c #CDF2F2",
"K  c #75DDDD",
"L  c #33CCCC",
"P  c #C5F1F1",
"I  c #44D0D0",
"U  c #55D5D5",
"Y  c #49D1D1",
"T  c #FEFFFF",
"R  c #93E4E4",
"E  c #84E0E0",
"W  c #F5FCFC",
"Q  c #D3F4F4",
"!  c #C7F1F1",
"~  c #7BDEDE",
"^  c #41D0D0",
"/  c #B7EDED",
"(  c #C9F2F2",
")  c #47D1D1",
"_  c #C8F1F1",
"`  c #90E3E3",
"'  c #5DD6D6",
"]  c #2DCBCB",
"[  c #EBFAFA",
"{  c #65D8D8",
"}  c #EFFBFB",
"|  c #89E1E1",
" . c #45D0D0",
".. c #82E0E0",
"X. c #EDFAFA",
"o. c #B4ECEC",
"O. c #72DCDC",
"+. c #49D2D2",
"@. c #F4FCFC",
"#. c #DFF7F7",
"$. c #ADEBEB",
"%. c #78DDDD",
"&. c #BCEEEE",
"*. c #A9EAEA",
"=. c #4ED3D3",
"-. c #B3ECEC",
";. c #96E5E5",
":. c #E6F9F9",
">. c #77DDDD",
",. c #4FD3D3",
"<. c #C0EFEF",
"1. c #AAEAEA",
"2. c #5CD6D6",
"3. c #DEF7F7",
"4. c #C1EFEF",
"5. c #CBF2F2",
"6. c #73DCDC",
"7. c #52D4D4",
"8. c #C4F0F0",
"9. c #31CCCC",
"0. c #6CDADA",
"q. c #88E2E2",
"w. c #E1F7F7",
"e. c #6FDBDB",
"r. c #55D4D4",
"t. c #4AD2D2",
"y. c #7EDFDF",
"u. c #9CE6E6",
"i. c #98E5E5",
"p. c #3FCFCF",
"a. c #74DCDC",
"s. c #6BDADA",
"d. c #CCF2F2",
"f. c #76DDDD",
"g. c #41CFCF",
"h. c #DBF6F6",
"j. c #67D9D9",
"k. c #5BD6D6",
"l. c #CFF3F3",
"z. c #F5FDFD",
"x. c #A2E8E8",
"c. c #8CE2E2",
"v. c #A9E9E9",
"b. c #5ED7D7",
"n. c #35CDCD",
"m. c #88E1E1",
"M. c #D4F4F4",
"N. c #60D7D7",
"B. c #62D8D8",
"V. c #36CDCD",
"C. c #F1FBFB",
"Z. c #66D9D9",
"A. c #D9F6F6",
"S. c #A8E9E9",
"D. c #38CDCD",
"F. c #CEF3F3",
"G. c #59D6D6",
"H. c #6ADADA",
"J. c #DDF6F6",
"K. c #A4E8E8",
"L. c #39CECE",
"P. c #CAF2F2",
"I. c #56D5D5",
"U. c #6EDBDB",
"Y. c #E0F7F7",
"T. c #3DCFCF",
"R. c #3BCECE",
"E. c #99E6E6",
"W. c #C6F1F1",
"Q. c #9BE6E6",
"!. c #3CCECE",
"~. c #9EE7E7",
"^. c #C2F0F0",
"/. c #97E5E5",
"(. c #3ACECE",
"). c #BDEFEF",
"_. c #4DD2D2",
"`. c #92E4E4",
"'. c #A6E9E9",
"]. c #F9FDFD",
"[. c #B9EDED",
"{. c #7FDFDF",
"}. c #F1FCFC",
"|. c #42CFCF",
" X c #FDFEFE",
".X c #52D3D3",
"XX c #4BD2D2",
"oX c #71DCDC",
"OX c #AFEBEB",
"+X c #89E2E2",
"@X c #AEEBEB",
"#X c #EDFBFB",
"$X c #46D1D1",
"%X c #E9FAFA",
"&X c #D5F5F5",
"*X c #39CDCD",
"=X c #8DE2E2",
"-X c #81DFDF",
";X c #E2F8F8",
":X c #7CDEDE",
">X c #BBEEEE",
",X c #ECFAFA",
"<X c #BFEFEF",
"1X c #C3F0F0",
"2X c #54D4D4",
"3X c #2FCBCB",
"4X c #CDF3F3",
"5X c #A0E7E7",
"6X c #8BE2E2",
"7X c #BDEEEE",
"8X c #F0FBFB",
"9X c #83E0E0",
"0X c #A7E9E9",
"qX c #75DCDC",
"wX c #A1E7E7",
"eX c #E9F9F9",
"rX c #D9F5F5",
"tX c #65D9D9",
"yX c #D5F4F4",
"uX c #5FD7D7",
"iX c #94E4E4",
"pX c #6DDBDB",
"aX c #DCF6F6",
"sX c #4DD3D3",
"dX c #D1F4F4",
/* pixels */
"                                                                                                                                ",
"                                                                                                                                ",
"                                                                                                                                ",
"                                                                                                                                ",
"                                                                                                                                ",
"                                                                                                                                ",
"                                                                                                                                ",
"                                                                                  . X o O + @                                   ",
"                                                                              # $ % & * = - ; : >                               ",
"                                                                            , < 1 2 3 4 5 6 7 8 9 0                             ",
"                                                                            q 6 w e r t y u i 8 w p .                           ",
"                                                                          a s d i f         , g h = j                           ",
"                                                                          k d l z             . x 2 c v                         ",
"                                                                        , b 7 n               m M w N B .                       ",
"                                                                        V C Z q             A S D F d G H J v                   ",
"                                                                        m K L <             P = I N U h 2 Y g ,                 ",
"                                                                        T R 2 E .           W j Q z X ! ~ w ^ /                 ",
"                                                                          ( 6 ) _                       f ` d s a               ",
"                                                                          y ' ] H .                       [ { d M               ",
"                                                                        } | w  ./ T                         n 7 ..,             ",
"                                                                      X.E Z ) o.v                           / Z O.@             ",
"                                                                    [ H d +.q #       @.#.m                 $.L %.m             ",
"                                                                  X ~ L 1 &.T         *.=.-.              > H 2 ;.T             ",
"                                                                :.>.F ,.<.T           1.d 2.3.            4.I 6 5.              ",
"                                                              a 6.F 7.8.              y 2.9.0.$ >     W &.5 F q.m               ",
"                                                            w.e.7 r._               T &.t.2 7 t.y.u.i.O.p.F a.y                 ",
"                                                          3.s.7 & d.              # q t.Z f.%.g.9.2 2 F Y ` X                   ",
"                                                        h.j.2 k.l.              v o.) d E X.z.5.x.c.i v.O .                     ",
"                                                      B l 2 b.Q               v <  .n.m.}         # T                           ",
"                                                    M.N.2 B.O               , g 6 V.c.C.                                        ",
"                                                  u 2.2 Z.A.              . S.8 D.` 0                                           ",
"                                                F.G.2 H.J.              > K.h L.9 @.                                            ",
"                                              P.I.7 U.Y.              m n T.R.E.V                                               ",
"                                            W.5 F 6.a               V Q.R.!.~.@                                                 ",
"                                        T ^.G F >.:.              z./.(.h x.m                                                   ",
"                                      T )._.L ~ X               0 `.D.8 '..                                                     ",
"                      ].+ u l.3.W   T [.t.d {.z               }.i w |.1.,                                                       ",
"                   XJ H .Xg.p.XXoXq OXD d E X.              } +XV.I @X,                                                         ",
"                . g Y 2 8 I.N * 9.R.!.V.m.}               #Xc Z $X-.v                                                           ",
"                o.8 D.y.5.%X[ &XR I *X=XC.              [ -Xd D /  X                                                            ",
"              ;XN Z R @.        , W.o.f               %X:XL XX>X#                                                               ",
"              k d Z.,X                              :.%.F =.<XT                                                                 ",
"            , ..9.n                               + a.F - 1X                                                                    ",
"            @ O.Z /                             w.e.7 2X!                                                                       ",
"            m %.L @X                          #.s.9.& 5.                                                                        ",
"            T /.2 H >       ,               . x 3X,.d.                                                                          ",
"              d.= = 4.    Q c 4X            # 5Xn.5 #.                                                                          ",
"              m 6XF 5 7X8X9X2 n               ,Xj.L 0X                                                                          ",
"                X qXF 8 0.D 3 W.                wX7 {..                                                                         ",
"                  eX` Y F 7 ) rX                q Z C V                                                                         ",
"                    . O 5X$X8 F.                $.L %.m                                                                         ",
"                        @ C F wX              ].y.2 /.                                                                          ",
"                          1.n.U o             ).6 I J                                                                           ",
"                          [ s.2 tXd.@   T 0 / G F =X].                                                                          ",
"                            yXuX2 $X>.iX` pXT.L e eX                                                                            ",
"                              aX-XI F 2 2 d sX;.[                                                                               ",
"                                @ dXv.iX;.< h.v                                                                                 ",
"                                                                                                                                ",
"                                                                                                                                ",
"                                                                                                                                ",
"                                                                                                                                ",
"                                                                                                                                ",
"                                                                                                                                ",
"                                                                                                                                "
};
