/* XPM */
static char *collectable__9_1710156750[] = {
/* columns rows colors chars-per-pixel */
"64 64 204 2 ",
"   c white",
".  c #F8FDFD",
"X  c #F1FBFB",
"o  c #F7FDFD",
"O  c #E9F9F9",
"+  c #ADEAEA",
"@  c #78DDDD",
"#  c #62D8D8",
"$  c #76DDDD",
"%  c #A5E8E8",
"&  c #E2F8F8",
"*  c #CBF2F2",
"=  c #65D9D9",
"-  c #35CDCD",
";  c #31CCCC",
":  c #3ACECE",
">  c #3BCECE",
",  c #33CCCC",
"<  c #59D6D6",
"1  c #BBEEEE",
"2  c #FCFEFE",
"3  c #52D4D4",
"4  c #31CBCB",
"5  c #5BD6D6",
"6  c #A0E7E7",
"7  c #C3F0F0",
"8  c #C8F1F1",
"9  c #ABEAEA",
"0  c #68D9D9",
"q  c #34CCCC",
"w  c #46D1D1",
"e  c #BAEEEE",
"r  c #EBFAFA",
"t  c #67D9D9",
"y  c #75DDDD",
"u  c #E0F7F7",
"i  c #89E1E1",
"p  c #57D5D5",
"a  c #DFF7F7",
"s  c #B3ECEC",
"d  c #36CDCD",
"f  c #6ADADA",
"g  c #32CCCC",
"h  c #9DE6E6",
"j  c #FEFFFF",
"k  c #FBFEFE",
"l  c #83E0E0",
"z  c #30CBCB",
"x  c #9AE6E6",
"c  c #B1EBEB",
"v  c #6BDADA",
"b  c #F6FDFD",
"n  c #F5FCFC",
"m  c #6CDADA",
"M  c #BCEEEE",
"N  c #F3FCFC",
"B  c #7DDFDF",
"V  c #37CDCD",
"C  c #48D1D1",
"Z  c #ADEBEB",
"A  c #E6F9F9",
"S  c #F4FCFC",
"D  c #3CCECE",
"F  c #B2ECEC",
"G  c #F9FDFD",
"H  c #FAFEFE",
"J  c #81E0E0",
"K  c #99E6E6",
"L  c #D9F6F6",
"P  c #80DFDF",
"I  c #8DE2E2",
"U  c #8CE2E2",
"Y  c #3ECFCF",
"T  c #A2E8E8",
"R  c #B5ECEC",
"E  c #38CDCD",
"W  c #58D5D5",
"Q  c #F9FEFE",
"!  c #FDFEFE",
"~  c #FDFFFF",
"^  c #E7F9F9",
"/  c #92E4E4",
"(  c #42D0D0",
")  c #C0EFEF",
"_  c #C6F1F1",
"`  c #43D0D0",
"'  c #AAEAEA",
"]  c #6DDBDB",
"[  c #F2FCFC",
"{  c #5FD7D7",
"}  c #D7F5F5",
"|  c #DAF6F6",
" . c #4CD2D2",
".. c #D0F3F3",
"X. c #B5EDED",
"o. c #6EDBDB",
"O. c #DBF6F6",
"+. c #F5FDFD",
"@. c #35CCCC",
"#. c #B7EDED",
"$. c #A3E8E8",
"%. c #7FDFDF",
"&. c #EFFBFB",
"*. c #90E3E3",
"=. c #92E3E3",
"-. c #F0FBFB",
";. c #8FE3E3",
":. c #EEFBFB",
">. c #61D7D7",
",. c #39CECE",
"<. c #C2F0F0",
"1. c #7EDFDF",
"2. c #A4E8E8",
"3. c #E4F8F8",
"4. c #50D3D3",
"5. c #3DCFCF",
"6. c #BFEFEF",
"7. c #3DCECE",
"8. c #51D3D3",
"9. c #E1F8F8",
"0. c #6DDADA",
"q. c #4DD2D2",
"w. c #B6EDED",
"e. c #D8F5F5",
"r. c #60D7D7",
"t. c #5DD7D7",
"y. c #C7F1F1",
"u. c #82E0E0",
"i. c #AEEBEB",
"p. c #DEF7F7",
"a. c #59D5D5",
"s. c #E3F8F8",
"d. c #D6F5F5",
"f. c #7BDEDE",
"g. c #45D0D0",
"h. c #4BD2D2",
"j. c #A9EAEA",
"k. c #79DDDD",
"l. c #4FD3D3",
"z. c #9FE7E7",
"x. c #47D1D1",
"c. c #40CFCF",
"v. c #63D8D8",
"b. c #EAFAFA",
"n. c #97E5E5",
"m. c #8BE2E2",
"M. c #EDFAFA",
"N. c #5AD6D6",
"B. c #5CD6D6",
"V. c #CAF2F2",
"C. c #E9FAFA",
"Z. c #84E0E0",
"A. c #9EE7E7",
"S. c #72DCDC",
"D. c #49D1D1",
"F. c #B0EBEB",
"G. c #E5F9F9",
"H. c #55D4D4",
"J. c #54D4D4",
"K. c #64D8D8",
"L. c #D2F4F4",
"P. c #AFEBEB",
"I. c #74DCDC",
"U. c #9CE6E6",
"Y. c #3FCFCF",
"T. c #86E1E1",
"R. c #CCF2F2",
"E. c #8EE3E3",
"W. c #B1ECEC",
"Q. c #ECFAFA",
"!. c #8AE2E2",
"~. c #77DDDD",
"^. c #94E4E4",
"/. c #51D4D4",
"(. c #98E5E5",
"). c #61D8D8",
"_. c #CDF2F2",
"`. c #85E0E0",
"'. c #91E4E4",
"]. c #D3F4F4",
"[. c #73DCDC",
"{. c #C1EFEF",
"}. c #B8EDED",
"|. c #6FDBDB",
" X c #D1F4F4",
".X c #39CDCD",
"XX c #EDFBFB",
"oX c #B4ECEC",
"OX c #95E5E5",
"+X c #C4F0F0",
"@X c #CDF3F3",
"#X c #93E4E4",
"$X c #7ADEDE",
"%X c #C5F1F1",
"&X c #A6E9E9",
"*X c #44D0D0",
"=X c #69D9D9",
"-X c #75DCDC",
";X c #7DDEDE",
":X c #99E5E5",
">X c #45D1D1",
",X c #96E5E5",
"<X c #56D5D5",
"1X c #C5F0F0",
/* pixels */
"                                                                                                                                ",
"                                                                                                                                ",
"                                                                                                                                ",
"                                                                                                                                ",
"                                                                                                                                ",
"                                                                                      . X X o                                   ",
"                                                                                  O + @ # # $ % &                               ",
"                                                                                * = - ; : > , , < 1 2                           ",
"                                                                              * 3 4 5 6 7 8 9 0 q w e                           ",
"                                                                            r t ; y u         r i q p a                         ",
"                                                                            s d < u             r f g h j                       ",
"                                                                          k l z x                 c q v b                       ",
"                                                                          n m d M             N 1 B V C Z A                     ",
"                                                                          S v d 1             1 D z , ; d 5 F G                 ",
"                                                                          H J z K             L P I 6 U 5 q Y T H               ",
"                                                                            R E W a             Q !   ~ ^ / : ( )               ",
"                                                                            _ ` , '                       b i ; ] [             ",
"                                                                        j _ < g { }                         |  .( ..            ",
"                                                                      k X. .g o.O.                          +.] @.#.            ",
"                                                                    o $.( @.%.A         o .                 . $ q F             ",
"                                                                  &.*.: : =.-.        &.l ;.n               :.>.,.<.            ",
"                                                                A 1.@.( 2.o           3.4.5.7               6.7.8.9.            ",
"                                                              | 0.g q.w.k             k U 4 # |           e.r.; *.k             ",
"                                                            * t.z < y.j               :.u., z 5 i.p.r a i.a.z = s.              ",
"                                                        2 1 4.4 0 d.                3.f.@.g.p q d h.W  .d q m e.                ",
"                                                      . j.g.q k.s.                } f 4 l.e s.z.# x.c.x.v.T b.                  ",
"                                                    [ n.D E m.M.              j 8 N.z B.V.    j :.| ..| &.                      ",
"                                                  C.Z.d c.A.n               2 #.q.g m L                                         ",
"                                                p.S.g D.F.H               o % ` @.1.G.                                          ",
"                                              ..# z H.<.j               -.=.> : *.&.                                            ",
"                                          ~ ) J.4 K.L.                A %.@.( $.o                                               ",
"                                        H P.C , I.a                 | ] g  .X.k                                                 ",
"                        ! k ~         S U.Y.V T.b.                R.t.z a.y.j                                                   ",
"                    3.c U u.E.W.s.  Q.!.E 5.K N               2 1 4.4 0 d.                                                      ",
"                . W.W @.z 4 z @.W 6 ~., w 9 Q               G ' g.q k.s.                                                        ",
"              H z.5.- v.^.% / # d , ; /.M !               [ (.5.E m.M.                                                          ",
"              M c.5.x Q.    j Q.U.w )._.                C.`.V Y.A.n                                                             ",
"            X v g '.Q           H ].3.                a [., D.F.H                                                               ",
"            ..( l.p.                                L.v.z J.{.~                                                                 ",
"            }.@.|.b                             j <.H.z v. X                                                                    ",
"            F , y .                           H F.D., [.a                                                                       ",
"            {..X{ XX                        n A.c.d Z.C.                                                                        ",
"            9.3 D e     H e.r               oX> ,.OX[                                                                           ",
"            2 ^.g B.d.  +X .;.k             6.Y ( @X                                                                            ",
"              A f z W j.y z #X~             b $X4 (.j                                                                           ",
"                O.o.@.q d Y %X                P., [.o                                                                           ",
"                  r &X= E *X].                6.V =XS                                                                           ",
"                      s.a.: 7                 P., -Xo                                                                           ",
"                      H ;Xz E.2             o f.z :X                                                                            ",
"                        1 > x.<.          ~ W.Y w ..                                                                            ",
"                        S P ; 4.F.r . . A 6 >X- ,XH                                                                             ",
"                          A ~.q .XB.$ -X<X- ,.!.-.                                                                              ",
"                            Q.A.p > , q 7.r.P.S                                                                                 ",
"                              ~ A 1Xc s 8 r                                                                                     ",
"                                                                                                                                ",
"                                                                                                                                ",
"                                                                                                                                ",
"                                                                                                                                ",
"                                                                                                                                ",
"                                                                                                                                ",
"                                                                                                                                ",
"                                                                                                                                ",
"                                                                                                                                ",
"                                                                                                                                "
};
