/* XPM */
static char *collectable__37_1710156750[] = {
/* columns rows colors chars-per-pixel */
"64 64 224 2 ",
"   c white",
".  c #FAFEFE",
"X  c #EEFBFB",
"o  c #E7F9F9",
"O  c #EDFAFA",
"+  c #F9FEFE",
"@  c #F5FCFC",
"#  c #BFEFEF",
"$  c #82E0E0",
"%  c #5FD7D7",
"&  c #53D4D4",
"*  c #5CD6D6",
"=  c #7FDFDF",
"-  c #BDEFEF",
";  c #F4FCFC",
":  c #E6F9F9",
">  c #3CCECE",
",  c #30CBCB",
"<  c #3BCECE",
"1  c #43D0D0",
"2  c #7EDFDF",
"3  c #E2F8F8",
"4  c #78DDDD",
"5  c #31CCCC",
"6  c #48D1D1",
"7  c #8FE3E3",
"8  c #C4F0F0",
"9  c #D6F5F5",
"0  c #C8F1F1",
"q  c #91E4E4",
"w  c #49D2D2",
"e  c #31CBCB",
"r  c #71DBDB",
"t  c #EAFAFA",
"y  c #E3F8F8",
"u  c #AFEBEB",
"i  c #E4F8F8",
"p  c #A4E8E8",
"a  c #35CDCD",
"s  c #4FD3D3",
"d  c #C3F0F0",
"f  c #FCFEFE",
"g  c #FDFFFF",
"h  c #56D5D5",
"j  c #34CCCC",
"k  c #8AE2E2",
"l  c #BDEEEE",
"z  c #D2F4F4",
"x  c #F1FBFB",
"c  c #A0E7E7",
"v  c #9EE7E7",
"b  c #5DD7D7",
"n  c #37CDCD",
"m  c #ACEAEA",
"M  c #83E0E0",
"N  c #32CCCC",
"B  c #6BDADA",
"V  c #BAEEEE",
"C  c #F7FDFD",
"Z  c #9DE7E7",
"A  c #2ECBCB",
"S  c #C7F1F1",
"D  c #59D6D6",
"F  c #E8F9F9",
"G  c #36CDCD",
"H  c #4ED3D3",
"J  c #66D9D9",
"K  c #65D9D9",
"L  c #4BD2D2",
"P  c #3DCFCF",
"I  c #93E4E4",
"U  c #F3FCFC",
"Y  c #CAF2F2",
"T  c #B5EDED",
"R  c #B3ECEC",
"E  c #74DCDC",
"W  c #F8FDFD",
"Q  c #6DDADA",
"!  c #4CD2D2",
"~  c #9FE7E7",
"^  c #DFF7F7",
"/  c #F2FCFC",
"(  c #DBF6F6",
")  c #97E5E5",
"_  c #F0FBFB",
"`  c #B5ECEC",
"'  c #F6FDFD",
"]  c #FEFFFF",
"[  c #E0F7F7",
"{  c #D9F6F6",
"}  c #FDFEFE",
"|  c #ADEBEB",
" . c #CDF3F3",
".. c #40CFCF",
"X. c #52D4D4",
"o. c #77DDDD",
"O. c #9BE6E6",
"+. c #65D8D8",
"@. c #AEEBEB",
"#. c #33CCCC",
"$. c #72DCDC",
"%. c #B1ECEC",
"&. c #3ACECE",
"*. c #44D0D0",
"=. c #39CDCD",
"-. c #64D8D8",
";. c #8BE2E2",
":. c #38CDCD",
">. c #3DCECE",
",. c #B7EDED",
"<. c #F5FDFD",
"1. c #E9FAFA",
"2. c #60D8D8",
"3. c #91E3E3",
"4. c #CEF3F3",
"5. c #45D1D1",
"6. c #CFF3F3",
"7. c #A3E8E8",
"8. c #D5F4F4",
"9. c #42D0D0",
"0. c #CBF2F2",
"q. c #F9FDFD",
"w. c #B2ECEC",
"e. c #57D5D5",
"r. c #FBFEFE",
"t. c #B1EBEB",
"y. c #50D3D3",
"u. c #44D1D1",
"i. c #72DBDB",
"p. c #3ECFCF",
"a. c #85E1E1",
"s. c #62D8D8",
"d. c #84E0E0",
"f. c #81E0E0",
"g. c #D9F5F5",
"h. c #54D4D4",
"j. c #EBFAFA",
"k. c #46D1D1",
"l. c #CCF2F2",
"z. c #B4ECEC",
"x. c #3ACDCD",
"c. c #ABEAEA",
"v. c #A2E8E8",
"b. c #80DFDF",
"n. c #68D9D9",
"m. c #D1F3F3",
"M. c #47D1D1",
"N. c #87E1E1",
"B. c #EFFBFB",
"V. c #69DADA",
"C. c #C9F2F2",
"Z. c #B6EDED",
"A. c #39CECE",
"S. c #55D4D4",
"D. c #E1F7F7",
"F. c #89E1E1",
"G. c #7CDEDE",
"H. c #D4F4F4",
"J. c #49D1D1",
"K. c #41CFCF",
"L. c #B8EDED",
"P. c #7ADEDE",
"I. c #9AE6E6",
"U. c #4AD2D2",
"Y. c #C6F1F1",
"T. c #DEF7F7",
"R. c #8DE2E2",
"E. c #79DDDD",
"W. c #6EDBDB",
"Q. c #98E5E5",
"!. c #3FCFCF",
"~. c #BBEEEE",
"^. c #51D4D4",
"/. c #DDF7F7",
"(. c #8EE3E3",
"). c #70DBDB",
"_. c #96E5E5",
"`. c #D7F5F5",
"'. c #DCF6F6",
"]. c #76DDDD",
"[. c #71DCDC",
"{. c #94E4E4",
"}. c #D8F5F5",
"|. c #C2F0F0",
" X c #73DCDC",
".X c #DAF6F6",
"XX c #C0EFEF",
"oX c #75DCDC",
"OX c #BEEFEF",
"+X c #95E4E4",
"@X c #A8E9E9",
"#X c #2FCBCB",
"$X c #6FDBDB",
"%X c #8EE2E2",
"&X c #6ADADA",
"*X c #C5F0F0",
"=X c #C5F1F1",
"-X c #8CE2E2",
";X c #D5F5F5",
":X c #86E1E1",
">X c #5ED7D7",
",X c #BCEEEE",
"<X c #A9E9E9",
"1X c #A7E9E9",
"2X c #A1E7E7",
"3X c #9DE6E6",
"4X c #A9EAEA",
"5X c #ECFAFA",
"6X c #A1E8E8",
"7X c #41D0D0",
"8X c #58D5D5",
"9X c #51D3D3",
"0X c #A6E9E9",
"qX c #63D8D8",
"wX c #EDFBFB",
"eX c #D1F4F4",
"rX c #B0EBEB",
"tX c #7DDEDE",
"yX c #7CDFDF",
"uX c #35CCCC",
"iX c #88E1E1",
"pX c #90E3E3",
"aX c #CDF2F2",
"sX c #6DDBDB",
/* pixels */
"                                                                                                                                ",
"                                                                                                                                ",
"                                                                                                                                ",
"                                                                                                                                ",
"                                                                                                                                ",
"                                                                                                                                ",
"                                                                                                                                ",
"                                                                      . X o O +                                                 ",
"                                                                  @ # $ % & * = - ;                                             ",
"                                                                : $ > , < 1 > , > 2 3                                           ",
"                                                              X 4 5 6 7 8 9 0 q w e r t                                         ",
"                                                y u i         p a s d f       g 0 h j k - l z x                                 ",
"                                                c a v       t b n m             ; M N j n n 1 B V C                             ",
"                                                Z A k g     S > D F           C 7 < G H J K L N P I U                           ",
"                                                Y K T       R j E W           x Q ! ~ ^ / / ( ) 1 n ~ f                         ",
"                                                f _ .       ` j r '           ] [ { }         f | > L 9                         ",
"                                                             ...X.3                             ' o.e O.                        ",
"                                                            X +.j Z }                             @.#.$.'                       ",
"                                                              %.&.*.@.C                           d =.-./                       ",
"                                                              ; ;.:.>.c }                         ,.a Q <.                      ",
"                                                                1.2.A ;.f                       . M , 3.g                       ",
"                                                                4.5.5.6.      y 7.8.            # 1 9.0.                        ",
"                                                              q.$ , M q.      w.a e.V _ f r.X t.y.N k W                         ",
"                                                              4.5.u. .        i i.j p.K a.M s.&.#.o.F                           ",
"                                                            + d., f.q.          g.H e j e e :.h.O.j.                            ",
"                                                            6.k.1 l.            z.x.h.c.v.p - y }                               ",
"                                                          . a., b.W           X n.#.~                                           ",
"                                                          m.M.1 Y             ` =.h 3                                           ",
"                                                        . N., 2 C           B.V.N Z ]                                           ",
"                                                        z 6 9.C.            Z.A.S.D.                                            ",
"                                                      . F., G.C           _ B N O.]                                             ",
"                                                      H.J.K.S             L.&.& ^                                               ",
"                                                    r.;., P.'           _ Q N I.]                                               ",
"                                                    8.U...Y.            V &.X.T.                                                ",
"                                                  r.R., E.'           x W.5 Q.g                                                 ",
"                                                  9 L !.8             ~.< ^./.                                                  ",
"                                                r.(.e o.<.          / ).5 _.g                                                   ",
"                                                `.L !.d             - > y.'.                                                    ",
"                                              f 7 e ].@           U [.e {.}                                                     ",
"                                              }.! p.|.            # > s (                                                       ",
"                                            f 3.e E ;           U  Xe I f                                                       ",
"                                            .XH >.XX            XX>.H {                                                         ",
"                                          f I e  XU           ; oXe 3.f                                                         ",
"                                          ( s > OX            |.p.! }.                                                          ",
"                                    g } } +Xe [./           @ o., 7 f                                                           ",
"                              . 9 @X;.;.+X! > -             8 !.! `.                                                            ",
"                            y ;.J.N #X, , #X$X/           <.4 e %Xr.                                                            ",
"                          [ &X5 1 E _.I.o.s.*X            =X..U.9                                                               ",
"                        @ = e * *X'     C X }           ' P., -Xr.        . _ f                                                 ",
"                        d p.U.l.                        Y.K.L ;X          T K Y                                                 ",
"                      f ;., ;.f                       r.:XA >Xi         g k A v                                                 ",
"                      ; &XG V                         g m *.j 2 _         v a c                                                 ",
"                      / -.=.|.                          r.,XL G @X        i u y                                                 ",
"                      C oXN <X                              1XG % j.                                                            ",
"                        2XN W.x       t m g.                : h p.C.                                                            ",
"                        ( y.:.3XC     ` n F.f               C  Xj R                                                             ",
"                        g 4X< < d.4.5X7.N 4 q.              C $.j z.                                                            ",
"                          C 6X5., 7X8X! 5 D o               i h.!.0.                                                            ",
"                            r.Y b.9XK.K.&.:.0X]           ] 6Xj qXwX                                                            ",
"                                q.y m.eXI.n J.Z.W       W z.M.A.rX                                                              ",
"                                        x = #.!.tXz.8 rXyX!.uXiX;                                                               ",
"                                          j.pX*., uX&.j , M.+XB.                                                                ",
"                                            + aXI sX-.[.) z .                                                                   ",
"                                                g U B.@ ]                                                                       "
};
