/* XPM */
static char *collectable__35_1710156751[] = {
/* columns rows colors chars-per-pixel */
"64 64 220 2 ",
"   c white",
".  c #FCFEFE",
"X  c #E4F8F8",
"o  c #C5F0F0",
"O  c #B2ECEC",
"+  c #B7EDED",
"@  c #D2F4F4",
"#  c #F4FCFC",
"$  c #E2F8F8",
"%  c #92E4E4",
"&  c #54D4D4",
"*  c #3BCECE",
"=  c #34CCCC",
"-  c #35CCCC",
";  c #44D0D0",
":  c #73DCDC",
">  c #C5F1F1",
",  c #FBFEFE",
"<  c #D6F5F5",
"1  c #64D8D8",
"2  c #31CCCC",
"3  c #3CCECE",
"4  c #5ED6D6",
"5  c #72DCDC",
"6  c #6ADADA",
"7  c #4AD2D2",
"8  c #31CBCB",
"9  c #A6E9E9",
"0  c #FAFEFE",
"q  c #E9FAFA",
"w  c #30CBCB",
"e  c #60D7D7",
"r  c #BDEEEE",
"t  c #EDFAFA",
"y  c #F7FDFD",
"u  c #D8F5F5",
"i  c #89E1E1",
"p  c #3ACECE",
"a  c #40CFCF",
"s  c #B8EDED",
"d  c #A2E8E8",
"f  c #5AD6D6",
"g  c #D9F6F6",
"h  c #F8FDFD",
"j  c #95E5E5",
"k  c #5CD6D6",
"l  c #C2F0F0",
"z  c #EEFBFB",
"x  c #62D8D8",
"c  c #36CDCD",
"v  c #AFEBEB",
"b  c #F5FDFD",
"n  c #A4E8E8",
"m  c #37CDCD",
"M  c #39CDCD",
"N  c #47D1D1",
"B  c #D7F5F5",
"V  c #45D0D0",
"C  c #4ED3D3",
"Z  c #E1F8F8",
"A  c #FDFEFE",
"S  c #9DE7E7",
"D  c #4BD2D2",
"F  c #61D8D8",
"G  c #5FD7D7",
"H  c #46D1D1",
"J  c #42D0D0",
"K  c #9DE6E6",
"L  c #F6FDFD",
"P  c #CDF2F2",
"I  c #3ECFCF",
"U  c #5BD6D6",
"Y  c #EDFBFB",
"T  c #99E6E6",
"R  c #56D5D5",
"E  c #9BE6E6",
"W  c #DBF6F6",
"Q  c #F0FBFB",
"!  c #EFFBFB",
"~  c #D4F4F4",
"^  c #8CE2E2",
"/  c #A8E9E9",
"(  c #FDFFFF",
")  c #45D1D1",
"_  c #4FD3D3",
"`  c #E8F9F9",
"'  c #A3E8E8",
"]  c #51D3D3",
"[  c #DCF6F6",
"{  c #61D7D7",
"}  c #B4ECEC",
"|  c #F2FCFC",
" . c #6FDBDB",
".. c #32CCCC",
"X. c #A5E8E8",
"o. c #FEFFFF",
"O. c #DEF7F7",
"+. c #A7E9E9",
"@. c #7BDEDE",
"#. c #F9FEFE",
"$. c #63D8D8",
"%. c #67D9D9",
"&. c #BDEFEF",
"*. c #6BDADA",
"=. c #F5FCFC",
"-. c #CCF2F2",
";. c #2FCBCB",
":. c #93E4E4",
">. c #41D0D0",
",. c #C4F0F0",
"<. c #F9FDFD",
"1. c #80DFDF",
"2. c #95E4E4",
"3. c #F3FCFC",
"4. c #77DDDD",
"5. c #84E0E0",
"6. c #B9EDED",
"7. c #81E0E0",
"8. c #BEEFEF",
"9. c #CEF3F3",
"0. c #4DD2D2",
"q. c #8AE2E2",
"w. c #2ECBCB",
"e. c #C3F0F0",
"r. c #B5EDED",
"t. c #33CCCC",
"y. c #8FE3E3",
"u. c #EAFAFA",
"i. c #99E5E5",
"p. c #66D9D9",
"a. c #6DDBDB",
"s. c #79DEDE",
"d. c #35CDCD",
"f. c #53D4D4",
"g. c #ECFAFA",
"h. c #DDF6F6",
"j. c #38CDCD",
"k. c #AEEBEB",
"l. c #E7F9F9",
"z. c #8DE2E2",
"x. c #9AE6E6",
"c. c #9CE6E6",
"v. c #8EE3E3",
"b. c #6EDBDB",
"n. c #9EE7E7",
"m. c #50D3D3",
"M. c #39CECE",
"N. c #B3ECEC",
"B. c #7ADEDE",
"V. c #82E0E0",
"C. c #89E2E2",
"Z. c #F1FCFC",
"A. c #BBEEEE",
"S. c #4CD2D2",
"D. c #C9F1F1",
"F. c #C7F1F1",
"G. c #97E5E5",
"H. c #75DCDC",
"J. c #87E1E1",
"K. c #E3F8F8",
"L. c #B6EDED",
"P. c #DFF7F7",
"I. c #ADEAEA",
"U. c #E9F9F9",
"Y. c #91E4E4",
"T. c #6CDADA",
"R. c #A1E7E7",
"E. c #5ED7D7",
"W. c #E6F9F9",
"Q. c #D0F3F3",
"!. c #48D1D1",
"~. c #3FCFCF",
"^. c #C1EFEF",
"/. c #52D4D4",
"(. c #B1ECEC",
"). c #7CDEDE",
"_. c #71DBDB",
"`. c #D3F4F4",
"'. c #CBF2F2",
"]. c #69D9D9",
"[. c #85E1E1",
"{. c #A9EAEA",
"}. c #59D5D5",
"|. c #4DD3D3",
" X c #E1F7F7",
".X c #58D5D5",
"XX c #AAEAEA",
"oX c #94E4E4",
"OX c #5DD6D6",
"+X c #E5F9F9",
"@X c #7FDFDF",
"#X c #7EDFDF",
"$X c #EBFAFA",
"%X c #DAF6F6",
"&X c #49D1D1",
"*X c #D1F3F3",
"=X c #D1F4F4",
"-X c #ACEAEA",
";X c #41CFCF",
":X c #E0F7F7",
">X c #D5F4F4",
",X c #9FE7E7",
"<X c #A9E9E9",
"1X c #ADEBEB",
"2X c #43D0D0",
"3X c #B6ECEC",
"4X c #BAEEEE",
"5X c #96E5E5",
"6X c #74DCDC",
"7X c #C6F1F1",
"8X c #CAF2F2",
"9X c #65D9D9",
"0X c #CFF3F3",
"qX c #6DDADA",
"wX c #C9F2F2",
"eX c #A4E9E9",
"rX c #3DCFCF",
"tX c #90E3E3",
"yX c #BCEEEE",
"uX c #86E1E1",
/* pixels */
"                                                                                                                                ",
"                                                                                                                                ",
"                                                                                                                                ",
"                                                                                                                                ",
"                                                                                                                                ",
"                                                                                                                                ",
"                                                                                                                                ",
"                                                                                                                                ",
"                                                                      . X o O + @ #                                             ",
"                                                                    $ % & * = - ; : > ,                                         ",
"                                                                  < 1 2 3 4 5 6 7 8 ; 9 0                                       ",
"                                                                q 6 w e r t y # u i p a s                                       ",
"                                                                d = f g           h j = k s l u #                               ",
"                                                              z x c v             b n 3 2 m M N : l 0                           ",
"                                                              B V C Z           A S p - D F G H 8 J K L                         ",
"                                                              P I U Y           . T R E W Q ! ~ ^ I p / (                       ",
"                                                              u ) _ $             # ` A         0 ' M ] [                       ",
"                                                              z { m }                             |  ...X.                      ",
"                                                              o.E ..e O.                            +...@.#.                    ",
"                                                                X $...%.<                           &.m *.=.                    ",
"                                                                  -.7 ;.:.o.                        O = 5 y                     ",
"                                                                  -.V >.,.      ( 0               <.1.w 2.o.                    ",
"                                                                3.4.w 5.h     o.6.7.B             8.J ) 9.                      ",
"                                                                s * 0.<       . q.w.G e.# ( A Q r.] t.y.0                       ",
"                                                              u.1 ..i.A         [ p...J a.^ q.%.* = s.u.                        ",
"                                                              n d.k X             n d.d.= w w c f.E g.                          ",
"                                                            h.& j.k.            l.F - z.O x.c.+ Z A                             ",
"                                                          , v.8 b.!           o.n.t.G `                                         ",
"                                                          9.N a l             g m.M.N.                                          ",
"                                                        b B.w V.y           0 C.8 5 Z.                                          ",
"                                                        A.3 S.~             D.; J F.                                            ",
"                                                      g.%...G.A           | H.w J.#.                                            ",
"                                                      +.d.f K.            L.p _ u                                               ",
"                                                    P.R m I.            U.x t.c.(                                               ",
"                                                  , Y.2 T.z           o.R.= E.W.                                                ",
"                                                  Q.!.~.^.            W /.M (.                                                  ",
"                                                L ).w 1.y           0 ^ 8 _.Z.                                                  ",
"                                                &.I 7 `.            '.) J >                                                     ",
"                                              t ]...2..           # 4.w [.<.                                                    ",
"                                              {.c }.$             s * |.<                                                       ",
"                                             X.Xc XX            u.1 t.x.(                                                       ",
"                                          . oX..6 Y             n d.OX+X                                                        ",
"                                          @ 7 I 8.            h.& j.v                                                           ",
"                                        y @Xw #XL           , v.8 b.Q                                                           ",
"                              , $X%XB ` A.~.&X*X            9.N a e.                                                            ",
"                          A =XC.f N ; & S.t.:..           =.B.w V.h                                                             ",
"                        0 -XD w 3 _ f.;Xw }.:X            A.3 S.>X                                                              ",
"                        r.;Xj.@.,.K.l.P ,XF.o.          g.%...G.A                                                               ",
"                      K.}.- % #                         +.d.f K.                                                                ",
"                      <Xt.1 $X                        P.R j.1X                                                                  ",
"                    <.@.2 d                           K 8 ] P.                                                                  ",
"                    # 6 m &.                          } 2Xc ^ L                                                                 ",
"                    y 5 = }                           , 3XV 3 4X                                                                ",
"                    o.Y.w J.,       , Q .               A 5X2 6XL                                                               ",
"                      7X~.!.8X      8.9Xe.                >X) 0.:X                                                              ",
"                      =.@X8 U e.y   y.w.c.                $X}.~.0X                                                              ",
"                        :X6 2 J 4.n.p.w 2.                q R a *X                                                              ",
"                          X q.N ..w 8 w qX|               wX~.f.+X                                                              ",
"                            #.~ eXi ).2XrX+             3.).w [.0                                                               ",
"                                  A y tX..m.yXh       $XY.j.S.@                                                                 ",
"                                      ` : ..>.@.XXr.c.$.= ;Xk.(                                                                 ",
"                                        l.^ H 8 ..= 8 - k + ,                                                                   ",
"                                          #.@ S ).6XuX(.W.                                                                      ",
"                                                h L ,                                                                           "
};
