/* XPM */
static char *collectable__3_1710156750[] = {
/* columns rows colors chars-per-pixel */
"64 64 220 2 ",
"   c white",
".  c #F7FDFD",
"X  c #E8F9F9",
"o  c #E2F8F8",
"O  c #E9F9F9",
"+  c #F0FBFB",
"@  c #B2ECEC",
"#  c #74DCDC",
"$  c #55D5D5",
"%  c #4DD3D3",
"&  c #76DDDD",
"*  c #B5EDED",
"=  c #F1FCFC",
"-  c #E0F7F7",
";  c #38CDCD",
":  c #32CCCC",
">  c #40CFCF",
",  c #49D1D1",
"<  c #31CCCC",
"1  c #39CECE",
"2  c #79DDDD",
"3  c #EAFAFA",
"4  c #6FDBDB",
"5  c #30CBCB",
"6  c #50D3D3",
"7  c #9DE7E7",
"8  c #CFF3F3",
"9  c #DDF6F6",
"0  c #9AE6E6",
"q  c #4FD3D3",
"w  c #31CBCB",
"e  c #6EDADA",
"r  c #E7F9F9",
"t  c #FDFFFF",
"y  c #9CE6E6",
"u  c #33CCCC",
"i  c #56D5D5",
"p  c #CDF2F2",
"a  c #FEFFFF",
"s  c #CEF3F3",
"d  c #59D5D5",
"f  c #97E5E5",
"g  c #E5F8F8",
"h  c #3ACECE",
"j  c #B4ECEC",
"k  c #39CDCD",
"l  c #AFEBEB",
"z  c #C9F2F2",
"x  c #E6F9F9",
"c  c #FDFEFE",
"v  c #C2F0F0",
"b  c #5ED7D7",
"n  c #ECFAFA",
"m  c #D2F4F4",
"M  c #77DDDD",
"N  c #37CDCD",
"B  c #35CCCC",
"V  c #3DCECE",
"C  c #57D5D5",
"Z  c #98E5E5",
"A  c #B0EBEB",
"S  c #78DDDD",
"D  c #F9FDFD",
"F  c #F3FCFC",
"G  c #6BDADA",
"H  c #2FCBCB",
"J  c #46D1D1",
"K  c #62D7D7",
"L  c #69D9D9",
"P  c #D9F5F5",
"I  c #34CCCC",
"U  c #72DCDC",
"Y  c #FAFEFE",
"T  c #ACEAEA",
"R  c #90E3E3",
"E  c #D0F3F3",
"W  c #F4FCFC",
"Q  c #B1EBEB",
"!  c #58D5D5",
"~  c #6ADADA",
"^  c #3FCFCF",
"/  c #51D4D4",
"(  c #E1F8F8",
")  c #D4F4F4",
"_  c #A0E7E7",
"`  c #EEFBFB",
"'  c #65D8D8",
"]  c #FBFEFE",
"[  c #AEEBEB",
"{  c #36CDCD",
"}  c #62D8D8",
"|  c #EFFBFB",
" . c #3CCECE",
".. c #42D0D0",
"X. c #FCFEFE",
"o. c #4DD2D2",
"O. c #D8F5F5",
"+. c #2ECBCB",
"@. c #5DD7D7",
"#. c #EDFAFA",
"$. c #5CD6D6",
"%. c #3ECFCF",
"&. c #CCF2F2",
"*. c #DDF7F7",
"=. c #5AD6D6",
"-. c #96E5E5",
";. c #52D4D4",
":. c #7FDFDF",
">. c #F6FDFD",
",. c #BAEEEE",
"<. c #5BD6D6",
"1. c #ABEAEA",
"2. c #4AD2D2",
"3. c #9FE7E7",
"4. c #E3F8F8",
"5. c #65D9D9",
"6. c #A3E8E8",
"7. c #F5FDFD",
"8. c #6EDBDB",
"9. c #60D7D7",
"0. c #73DCDC",
"q. c #F1FBFB",
"w. c #F8FDFD",
"e. c #89E2E2",
"r. c #35CDCD",
"t. c #7DDFDF",
"y. c #87E1E1",
"u. c #45D1D1",
"i. c #D6F5F5",
"p. c #47D1D1",
"a. c #80DFDF",
"s. c #C9F1F1",
"d. c #48D1D1",
"f. c #3BCECE",
"g. c #53D4D4",
"h. c #C7F1F1",
"j. c #C6F1F1",
"k. c #A7E9E9",
"l. c #B3ECEC",
"z. c #D7F5F5",
"x. c #68D9D9",
"c. c #83E0E0",
"v. c #92E4E4",
"b. c #DFF7F7",
"n. c #BDEFEF",
"m. c #41D0D0",
"M. c #BCEEEE",
"N. c #5DD6D6",
"B. c #BEEFEF",
"V. c #BBEEEE",
"C. c #85E1E1",
"Z. c #66D9D9",
"A. c #F9FEFE",
"S. c #F2FCFC",
"D. c #86E1E1",
"F. c #B6EDED",
"G. c #64D8D8",
"H. c #BDEEEE",
"J. c #54D4D4",
"K. c #9DE6E6",
"L. c #A1E7E7",
"P. c #44D1D1",
"I. c #79DEDE",
"U. c #71DBDB",
"Y. c #A6E9E9",
"T. c #4ED3D3",
"R. c #71DCDC",
"E. c #4BD2D2",
"W. c #A9E9E9",
"Q. c #A5E8E8",
"!. c #6DDBDB",
"~. c #7DDEDE",
"^. c #AAEAEA",
"/. c #DCF6F6",
"(. c #6DDADA",
"). c #C3F0F0",
"_. c #44D0D0",
"`. c #DBF6F6",
"'. c #E4F8F8",
"]. c #8AE2E2",
"[. c #3DCFCF",
"{. c #8BE2E2",
"}. c #61D7D7",
"|. c #67D9D9",
" X c #B7EDED",
".X c #51D3D3",
"XX c #B8EDED",
"oX c #43D0D0",
"OX c #C1F0F0",
"+X c #A4E8E8",
"@X c #C0EFEF",
"#X c #88E1E1",
"$X c #75DDDD",
"%X c #EBFAFA",
"&X c #CBF2F2",
"*X c #9BE6E6",
"=X c #7EDFDF",
"-X c #84E0E0",
";X c #D3F4F4",
":X c #70DBDB",
">X c #D5F5F5",
",X c #95E4E4",
"<X c #75DCDC",
"1X c #93E4E4",
"2X c #CAF2F2",
"3X c #ADEBEB",
"4X c #EDFBFB",
"5X c #5FD7D7",
"6X c #61D8D8",
"7X c #50D4D4",
"8X c #DEF7F7",
"9X c #63D8D8",
"0X c #B5ECEC",
"qX c #9EE7E7",
"wX c #A1E8E8",
"eX c #99E6E6",
"rX c #55D4D4",
"tX c #A9EAEA",
"yX c #E1F7F7",
"uX c #7BDEDE",
/* pixels */
"                                                                                                                                ",
"                                                                            . X o O .                                           ",
"                                                                        + @ # $ % $ & * =                                       ",
"                                                                      - & ; : > , > < 1 2 -                                     ",
"                                                                    3 4 5 6 7 8 9 8 0 q w e r                                   ",
"                                                                  t y u i p         a s d u f                                   ",
"                                                                  g i h j               j k q l z x c                           ",
"                                                                  v h b n           a m M N 5 B V C Z x                         ",
"                                                                  A u S D           F G H J K L i ; : L P                       ",
"                                                                  j I U .           Y T R E + W r Q ! 5 ~ X                     ",
"                                                                  p ^ / (             a c           ) ! u _ a                   ",
"                                                                  ` ' u 0 ]                           [ { } |                   ",
"                                                                    @  ...T X.                        - o.J O.                  ",
"                                                                    W M +.@.#.                        ` $.%.&.                  ",
"                                                                    *.=.I -.]                         x ;...)                   ",
"                                                                  W :.w G 3       n E >.              ,.1 <.3                   ",
"                                                                a 1.1 2.&.      a y ..3.Y           4.5.: -.c                   ",
"                                                                ) q { 6.t         j V ^ f g Y X.7.8 8.< 9.o                     ",
"                                                              | 0.5 M q.          w.e.: r.C t.y.4 u.5 ! &.                      ",
"                                                            X.3.r.;.i.            | # u J V : w I p.a.O.                        ",
"                                                            s.d.f.A             X.3.{ g.h.j.k._ l.z.w.                          ",
"                                                          X x.w c.>.            z d.f.l                                         ",
"                                                        Y v.u $.b.            O x.w c.7.                                        ",
"                                                        n.m.> M.            Y v.u <.b.                                          ",
"                                                      - N.: R Y             B.m.> V.                                            ",
"                                                    >.C.w Z.r             ( b : R A.                                            ",
"                  X.S.X.                            @  .p.h.            >.D.w Z.r                                               ",
"                  F.G.H.                          O.J.r.K.X.            @  .J h.                                                ",
"                a L.P.1.                        S.I.5 U.`             O.J.r.K.X.                                                ",
"                  = O.W                       a Y.N T.m             q.2 5 R.`                                                   ",
"                                              s E.; W.a           t Q.N T.m                                                     ",
"                                            n !.5 ~.F             s E.1 ^.a                                                     ",
"                                          ] Z I C /.            n (.5 ~.F                                                       ",
"                                          )._.%.F.            ] Z I C `.                                                        ",
"                                        '.} : ].w.            )._.[.F.                                  W O.S.                  ",
"                              w.F >.a A.{.: }.'.            g } < e.w.                                  ^.P.L.a                 ",
"                        a /.6.2 |.4 v.f ^ _.v             w.{.: }.'.                                    H.G. X                  ",
"                      w.^..X: : ; B < u B f ]             XX%.oXOX                                      X.S.X.                  ",
"                    X.+X .N (.k.@X X#Xq $X%X            9 ! I -.]                                                               ",
"                    &Xp.f.*X+       Y b.%X            W :.5 G %X                                                                ",
"                  w.=X5 -X.                         a 1.1 2.&.                                                                  ",
"                  o q ..8                           ;Xq N 6.t                                                                   ",
"                  8 ^ d %X                        W M H :X+                                                                     ",
"                  s ^ =.n                         + ~ H 5.x                                                                     ",
"                  - o.u.>X                          ;X<.: ,XX.                                                                  ",
"                  >.<X< 1XX.    S.[ 2Xa               ,.f.J.4.                                                                  ",
"                    H.%...3X.   j. .0..               4X5Xh v                                                                   ",
"                    w.1XN [.:.@X,X: S w.              w.S u A                                                                   ",
"                      F 0 u.5 ; h 5 R.>.              . U I l.                                                                  ",
"                        ] &.e.6X7Xr.q 8X              b.6 > p                                                                   ",
"                            X.q./.9X: v.Y           Y 1X: L +                                                                   ",
"                                  0X .%.qX|       ` wX^ %.,.                                                                    ",
"                                  . -.1 N L y 1.Z Z.N h eXD                                                                     ",
"                                    >.^.rXI 5 : 5 I J.tX>.                                                                      ",
"                                      a yXT y.uX#X[ - a                                                                         ",
"                                            X.D X.                                                                              ",
"                                                                                                                                ",
"                                                                                                                                ",
"                                                                                                                                ",
"                                                                                                                                ",
"                                                                                                                                ",
"                                                                                                                                ",
"                                                                                                                                ",
"                                                                                                                                "
};
