/* XPM */
static char *collectable__28_1710156751[] = {
/* columns rows colors chars-per-pixel */
"64 64 224 2 ",
"   c white",
".  c #F5FCFC",
"X  c #ECFAFA",
"o  c #EEFBFB",
"O  c #F8FDFD",
"+  c #FEFFFF",
"@  c #DDF7F7",
"#  c #9EE7E7",
"$  c #6EDBDB",
"%  c #5AD6D6",
"&  c #5DD7D7",
"*  c #77DDDD",
"=  c #ACEAEA",
"-  c #E9F9F9",
";  c #FAFEFE",
":  c #B1EBEB",
">  c #53D4D4",
",  c #32CCCC",
"<  c #34CCCC",
"1  c #3ECFCF",
"2  c #3CCECE",
"3  c #35CDCD",
"4  c #64D8D8",
"5  c #CAF2F2",
"6  c #FDFFFF",
"7  c #ADEAEA",
"8  c #40CFCF",
"9  c #36CDCD",
"0  c #6DDADA",
"q  c #B0EBEB",
"w  c #CDF2F2",
"e  c #C9F1F1",
"r  c #A5E9E9",
"t  c #60D7D7",
"y  c #CFF3F3",
"u  c #D6F5F5",
"i  c #4ED3D3",
"p  c #37CDCD",
"a  c #94E4E4",
"s  c #EFFBFB",
"d  c #E3F8F8",
"f  c #75DDDD",
"g  c #31CBCB",
"h  c #30CBCB",
"j  c #74DCDC",
"k  c #F1FCFC",
"l  c #DDF6F6",
"z  c #55D4D4",
"x  c #39CDCD",
"c  c #B9EEEE",
"v  c #F1FBFB",
"b  c #65D8D8",
"n  c #88E1E1",
"m  c #FCFEFE",
"M  c #E5F9F9",
"N  c #51D3D3",
"B  c #45D1D1",
"V  c #D7F5F5",
"C  c #72DBDB",
"Z  c #F7FDFD",
"A  c #FDFEFE",
"S  c #B5ECEC",
"D  c #73DCDC",
"F  c #5BD6D6",
"G  c #62D8D8",
"H  c #F3FCFC",
"J  c #66D9D9",
"K  c #B5EDED",
"L  c #F9FDFD",
"P  c #7EDFDF",
"I  c #33CCCC",
"U  c #63D8D8",
"Y  c #C5F0F0",
"T  c #57D5D5",
"R  c #2DCBCB",
"E  c #83E0E0",
"W  c #FBFEFE",
"Q  c #DEF7F7",
"!  c #BAEEEE",
"~  c #B7EDED",
"^  c #56D5D5",
"/  c #4BD2D2",
"(  c #C2F0F0",
")  c #DCF6F6",
"_  c #8AE2E2",
"`  c #43D0D0",
"'  c #52D4D4",
"]  c #B9EDED",
"[  c #31CCCC",
"{  c #5ED7D7",
"}  c #E5F8F8",
"|  c #EBFAFA",
" . c #A4E8E8",
".. c #42D0D0",
"X. c #DAF6F6",
"o. c #E4F8F8",
"O. c #61D7D7",
"+. c #A6E9E9",
"@. c #F6FDFD",
"#. c #BDEFEF",
"$. c #67D9D9",
"%. c #38CDCD",
"&. c #70DBDB",
"*. c #C6F1F1",
"=. c #F9FEFE",
"-. c #AAEAEA",
";. c #F5FDFD",
":. c #D3F4F4",
">. c #7FDFDF",
",. c #AEEBEB",
"<. c #F0FBFB",
"1. c #F2FCFC",
"2. c #E6F9F9",
"3. c #3FCFCF",
"4. c #EAFAFA",
"5. c #99E5E5",
"6. c #48D1D1",
"7. c #93E4E4",
"8. c #E2F8F8",
"9. c #97E5E5",
"0. c #D2F4F4",
"q. c #41CFCF",
"w. c #E9FAFA",
"e. c #B3ECEC",
"r. c #3BCECE",
"t. c #7ADEDE",
"y. c #80DFDF",
"u. c #2FCBCB",
"i. c #6ADADA",
"p. c #CBF2F2",
"a. c #75DCDC",
"s. c #3ACECE",
"d. c #F4FCFC",
"f. c #A1E7E7",
"g. c #5FD7D7",
"h. c #DFF7F7",
"j. c #8FE3E3",
"k. c #46D1D1",
"l. c #E8F9F9",
"z. c #58D5D5",
"x. c #81E0E0",
"c. c #96E5E5",
"v. c #D8F5F5",
"b. c #C8F1F1",
"n. c #71DCDC",
"m. c #68D9D9",
"M. c #ABEAEA",
"N. c #C3F0F0",
"B. c #6CDADA",
"V. c #C1EFEF",
"C. c #8BE2E2",
"Z. c #44D0D0",
"A. c #E7F9F9",
"S. c #BDEEEE",
"D. c #59D5D5",
"F. c #35CCCC",
"G. c #85E1E1",
"H. c #55D5D5",
"J. c #A8E9E9",
"K. c #EDFAFA",
"L. c #54D4D4",
"P. c #87E1E1",
"I. c #DAF5F5",
"U. c #E0F7F7",
"Y. c #9FE7E7",
"T. c #50D3D3",
"R. c #92E4E4",
"E. c #7BDEDE",
"W. c #84E0E0",
"Q. c #EDFBFB",
"!. c #A0E7E7",
"~. c #8EE3E3",
"^. c #C0EFEF",
"/. c #69D9D9",
"(. c #6BDADA",
"). c #CEF3F3",
"_. c #82E0E0",
"`. c #ACEBEB",
"'. c #BEEFEF",
"]. c #49D1D1",
"[. c #A2E8E8",
"{. c #3DCFCF",
"}. c #B2ECEC",
"|. c #9DE6E6",
" X c #4DD3D3",
".X c #E1F8F8",
"XX c #6FDBDB",
"oX c #B6EDED",
"OX c #61D8D8",
"+X c #79DDDD",
"@X c #81DFDF",
"#X c #78DDDD",
"$X c #91E4E4",
"%X c #47D1D1",
"&X c #30CCCC",
"*X c #9DE7E7",
"=X c #D0F3F3",
"-X c #41D0D0",
";X c #6DDBDB",
":X c #D9F5F5",
">X c #86E1E1",
",X c #A7E9E9",
"<X c #9AE6E6",
"1X c #A1E8E8",
"2X c #45D0D0",
"3X c #8DE3E3",
"4X c #91E3E3",
"5X c #39CECE",
"6X c #2ECBCB",
"7X c #4FD3D3",
"8X c #B1ECEC",
"9X c #B4ECEC",
"0X c #AFEBEB",
"qX c #D4F4F4",
"wX c #D9F6F6",
"eX c #BFEFEF",
"rX c #CCF2F2",
"tX c #71DBDB",
"yX c #BCEEEE",
"uX c #E1F7F7",
"iX c #C7F1F1",
"pX c #9BE6E6",
"aX c #4AD2D2",
"sX c #85E0E0",
/* pixels */
"                                                                                                                                ",
"                                                                                                                                ",
"                                                                                                                                ",
"                                                                                                                                ",
"                                                                                                                                ",
"                                                                                                                                ",
"                                                                                                                                ",
"                                                                                                                                ",
"                                                                                                                                ",
"                                                                                                                                ",
"                                                                                                                                ",
"                                                                                                                                ",
"                                                                                            . X o O                             ",
"                                                                                      + @ # $ % & * = -                         ",
"                                                                                    ; : > , < 1 2 , 3 4 5                       ",
"                                                                                  6 7 8 9 0 q w e r t , > y                     ",
"                                                                                  u i p a s         d f g 0 o                   ",
"                                                                                6 a h j k             l z x c                   ",
"                                                                                v b p c                 a h n m                 ",
"                                                                                M N B V             + ; q < C Z                 ",
"                                                                                M N B V           A S D F , G d                 ",
"                                                                                H J p K           L P I 9 , 3 U Y 6             ",
"                                                                              ; Y T R E W           Q ! ~ a ^ g / (             ",
"                                                                          + ) _ ` , ' ] +                 + Q * [ { }           ",
"                                                                        |  .> g ..n X.6                       o.O.< +.          ",
"                                                                    @.#.$.3 %.&.*.=.                            -.I &.;.        ",
"                                                                A :.>.1 , % ,.<.          1.2.m                 y 3.T 4.        ",
"                                                              M 5./ h 6.7.8.            m 9.% 0.                0.q.^ w.        ",
"                                                          1.e.{ , r.t.y m               ; y.u.#                 S 9 i.H         ",
"                                                      W p.a.s.< G ~ d.                    f.I g.}             1.D g 9.+         ",
"                                                    h.j.k.h i # l.                    v q z.[ < x.w.        1.c.p i v.          ",
"                                                o -.T g 8 E V 6                   ; b.n.%.3 F k.I m.q :.V ! j p 1 M.6           ",
"                                            O N.B.9 9 i.V.O                     l C.Z.h N f.A.S.D., F...Z.%.g i = =.            ",
"                    L 1.H W             + v.G.q.g H.J.K.                    X +.L.g ..P.I.+     U.Y.B.> T.G R.V 6               ",
"                l.7 E.b m.W.~ Q.      w.!.T.h B ~.Q                     Z ^./.9 p $ Y L             d.A.} <.A                   ",
"            A ( G F., x p h %.(.).d.! 4 < s.j p.;                   6 u _.3., D.`.s                                             ",
"            '.]., t [.( '.9.^ [ > n.{.I { }.1.                    l.|. Xh 6.R..X                                                ",
"          .X% < W.2.        ) XXh u./ 5.M                     d.oXOXI r.+X).W                                                   ",
"          [.I m.4.            Q * @X:.A                   W ).#Xr.I OX~ d.                                                      ",
"        ;.XX< ,.                ;.L                     U.$X%X&Xi *Xl.                                                          ",
"        | z.8 =X                                    s M.z.[ 8 E u 6                                                             ",
"        - z -X0.                                O N.;Xp 9 i.^.Z                                                                 ",
"        H /.F.e.                            + :X>Xq.g z ,XQ.                                                                    ",
"        + <X[ $ o   2.! 4.                4.1XT.g 2X3XQ                                                                         ",
"          l z 3 4X2._.5X7               5 J 3 5Xj 5 ;                                                                           ",
"          + S ..p & 2 ].y             ; _.6X7X8X1.                                                                              ",
"            W 9XL.I g >XW               = < i.d.                                                                                ",
"                V F < 0X                qX` > A.                                                                                ",
"                @.0 < oX                wXk.T.o.                                                                                ",
"                ; y.h 5.                eXx O.s                                                                                 ",
"                  ,.F.& 2.            Z >.h C.m                                                                                 ",
"                  2.{ I >Xo         O ,X{.B rX                                                                                  ",
"                    '.B F.tXyXQ uXiXE {.%.pXW                                                                                   ",
"                    m K N g x aX X{.h 2XpXd.                                                                                    ",
"                      + v.R.t aX%Xz.sXp.W                                                                                       ",
"                          6 s Q X.w.;                                                                                           ",
"                                                                                                                                ",
"                                                                                                                                ",
"                                                                                                                                ",
"                                                                                                                                ",
"                                                                                                                                ",
"                                                                                                                                ",
"                                                                                                                                ",
"                                                                                                                                "
};
