/* XPM */
static char *collectable__13_1710156750[] = {
/* columns rows colors chars-per-pixel */
"64 64 212 2 ",
"   c white",
".  c #F3FCFC",
"X  c #DDF7F7",
"o  c #D1F4F4",
"O  c #D8F5F5",
"+  c #EBFAFA",
"@  c #FDFEFE",
"#  c #F2FCFC",
"$  c #B0EBEB",
"%  c #6BDADA",
"&  c #4AD2D2",
"*  c #41CFCF",
"=  c #45D1D1",
"-  c #5CD6D6",
";  c #92E4E4",
":  c #DCF6F6",
">  c #E7F9F9",
",  c #7EDFDF",
"<  c #38CDCD",
"1  c #33CCCC",
"2  c #47D1D1",
"3  c #56D5D5",
"4  c #4ED3D3",
"5  c #39CDCD",
"6  c #31CBCB",
"7  c #58D5D5",
"8  c #C3F0F0",
"9  c #FEFFFF",
"0  c #F0FBFB",
"q  c #7CDEDE",
"w  c #32CCCC",
"e  c #4BD2D2",
"r  c #9FE7E7",
"t  c #E9FAFA",
"y  c #E1F8F8",
"u  c #BAEEEE",
"i  c #69DADA",
"p  c #51D3D3",
"a  c #D0F3F3",
"s  c #ACEAEA",
"d  c #37CDCD",
"f  c #C4F0F0",
"g  c #75DDDD",
"h  c #30CCCC",
"j  c #74DCDC",
"k  c #F1FCFC",
"l  c #68D9D9",
"z  c #34CCCC",
"x  c #A4E8E8",
"c  c #D7F5F5",
"v  c #4DD2D2",
"b  c #3ECFCF",
"n  c #C8F1F1",
"m  c #DAF6F6",
"M  c #48D1D1",
"N  c #DDF6F6",
"B  c #FAFEFE",
"V  c #7DDFDF",
"C  c #30CBCB",
"Z  c #A1E8E8",
"A  c #CCF2F2",
"S  c #3DCECE",
"D  c #5DD6D6",
"F  c #EEFBFB",
"G  c #D3F4F4",
"H  c #98E5E5",
"J  c #5AD6D6",
"K  c #6ADADA",
"L  c #F7FDFD",
"P  c #D1F3F3",
"I  c #56D4D4",
"U  c #E9F9F9",
"Y  c #76DDDD",
"T  c #2FCBCB",
"R  c #31CCCC",
"E  c #42D0D0",
"W  c #84E0E0",
"Q  c #E2F8F8",
"!  c #E6F9F9",
"~  c #55D5D5",
"^  c #C6F1F1",
"/  c #FDFFFF",
"(  c #BEEFEF",
")  c #91E4E4",
"_  c #A7E9E9",
"`  c #78DDDD",
"'  c #43D0D0",
"]  c #FBFEFE",
"[  c #82E0E0",
"{  c #79DEDE",
"}  c #F5FCFC",
"|  c #C2F0F0",
" . c #57D5D5",
".. c #83E0E0",
"X. c #F6FDFD",
"o. c #C9F2F2",
"O. c #67D9D9",
"+. c #EFFBFB",
"@. c #40CFCF",
"#. c #F9FDFD",
"$. c #AFEBEB",
"%. c #66D9D9",
"&. c #93E4E4",
"*. c #3DCFCF",
"=. c #36CDCD",
"-. c #7FDFDF",
";. c #E3F8F8",
":. c #AEEBEB",
">. c #77DDDD",
",. c #F8FDFD",
"<. c #DEF7F7",
"1. c #41D0D0",
"2. c #9BE6E6",
"3. c #DFF7F7",
"4. c #B5ECEC",
"5. c #5FD7D7",
"6. c #B7EDED",
"7. c #8CE2E2",
"8. c #53D4D4",
"9. c #CEF3F3",
"0. c #99E5E5",
"q. c #88E1E1",
"w. c #FCFEFE",
"e. c #87E1E1",
"r. c #B3ECEC",
"t. c #C1EFEF",
"y. c #A9EAEA",
"u. c #60D7D7",
"i. c #E8F9F9",
"p. c #9CE6E6",
"a. c #7DDEDE",
"s. c #3FCFCF",
"d. c #89E2E2",
"f. c #CBF2F2",
"g. c #E1F7F7",
"h. c #71DBDB",
"j. c #35CCCC",
"k. c #BFEFEF",
"l. c #64D8D8",
"z. c #44D0D0",
"x. c #4CD2D2",
"c. c #3ACECE",
"v. c #B9EDED",
"b. c #ADEBEB",
"n. c #B5EDED",
"m. c #4FD3D3",
"M. c #CAF2F2",
"N. c #C5F1F1",
"B. c #46D1D1",
"V. c #90E3E3",
"C. c #EDFBFB",
"Z. c #91E3E3",
"A. c #3CCECE",
"S. c #81DFDF",
"D. c #E4F8F8",
"F. c #F1FBFB",
"G. c #99E6E6",
"H. c #35CDCD",
"J. c #79DDDD",
"K. c #DBF6F6",
"L. c #ECFAFA",
"P. c #9DE6E6",
"I. c #95E5E5",
"U. c #5ED7D7",
"Y. c #52D4D4",
"T. c #B8EDED",
"R. c #B1EBEB",
"E. c #F9FEFE",
"W. c #B4ECEC",
"Q. c #61D7D7",
"!. c #80DFDF",
"~. c #E0F7F7",
"^. c #8EE2E2",
"/. c #55D4D4",
"(. c #CDF3F3",
"). c #63D8D8",
"_. c #B2EBEB",
"`. c #61D8D8",
"'. c #BBEEEE",
"]. c #45D0D0",
"[. c #BDEFEF",
"{. c #8BE2E2",
"}. c #2DCBCB",
"|. c #7ADEDE",
" X c #5DD7D7",
".X c #8AE2E2",
"XX c #9EE7E7",
"oX c #96E5E5",
"OX c #86E1E1",
"+X c #9AE6E6",
"@X c #73DCDC",
"#X c #95E4E4",
"$X c #81E0E0",
"%X c #65D8D8",
"&X c #5BD6D6",
"*X c #59D6D6",
"=X c #54D4D4",
"-X c #6EDBDB",
";X c #E5F9F9",
":X c #8FE3E3",
">X c #6CDADA",
",X c #A1E7E7",
"<X c #7BDEDE",
"1X c #D4F4F4",
"2X c #A3E8E8",
"3X c #72DCDC",
"4X c #CFF3F3",
"5X c #51D4D4",
"6X c #9DE7E7",
"7X c #94E4E4",
"8X c #6DDADA",
"9X c #B1ECEC",
/* pixels */
"                                                                                                                                ",
"                                                                                                                                ",
"                                                                                                                                ",
"                                                                                                                                ",
"                                                                                                                                ",
"                                                                                                                                ",
"                                                                                                                                ",
"                                                                                      . X o O + @                               ",
"                                                                                  # $ % & * = - ; :                             ",
"                                                                                > , < 1 2 3 4 5 6 7 8 9                         ",
"                                                                              0 q w e r O t y u i w p a                         ",
"                                                                              s d 4 f 9         > g h j #                       ",
"                                                                            k l z x               c v b n                       ",
"                                                                            m M e N               B V C Z                       ",
"                                                                            A S D F           9 G H J 6 K A L                   ",
"                                                                            P * I U           L Y T 1 1 R E W Q                 ",
"                                                                            ! ~ b ^           / ( ) _ Z ` ' 6 % Q               ",
"                                                                            ] [ T { }             9     L |  .6 ..X.            ",
"                                                                          9 o.J T O.+.                      f = @.n             ",
"                                                                        #.$.e w %.o                         B [ C &.9           ",
"                                                                      F &.*.=.-.;.                            :.1 >.,.          ",
"                                                                    <.>.z 1.2.#         F 3.]                 4.z j L           ",
"                                                                9 o.5.C p 6.]         B 7.8.9.                0.C q.w.          ",
"                                                              #.$.e R %.a             ] e.T [ ,.            > 5.=.r.            ",
"                                                            F &.*.=.-.;.                t.*.b y.B         F q.1 u.i.            ",
"                                                          <.>.z 1.p.#                 ;.a.=.T s.d.f.;.g.( h.j.2 k.              ",
"                                                      9 n 5.C p 6.]                 9.l.R 4 ` z.C s.4 x.c.6 8.v.w.              ",
"                                                    ,.b.& R O.a                 B n.m.C u.M.L N.-.~ B.2 - V.m 9                 ",
"                                                  C.Z.A.d S.D.                F.G.@.H.J.3.      #.i.m K.L.w.                    ",
"                                                <.Y z 1.P.#                 Q a.=.b I.+.                                        ",
"                                            9 n U.C Y.T.]                 9.l.6 x.R.E.                                          ",
"                                          ,.:.e R O.o                 B W.m.C Q.M.9                                             ",
"                                        C.; *.=.!.D.                0 H s.H.{ ~.                                                ",
"                    w.+ K.m > #.      <.Y z 1.p.#                 Q a.=.b I.+.                                                  ",
"                9 c ^.- 2 B./.V f X.n U.C p 6.]                 (.).6 v _.E.                                                    ",
"              w.n.p C c.x.m.s.C ' Y x.R %.a                 B W.m.6 `.f.9                                                       ",
"              '.].j.h.[.~.D.A {.@.}.d !.D.                0 H s.j.|.~.                                                          ",
"            !  X1 .X+.        B $ ).XX#                 y q H.b oX+.                                                            ",
"            R.j.u.i.            @ 0 ]               9 (.).6 v _.E.                                                              ",
"          w.OXC +X                                B W.4 6 `.f.9                                                                 ",
"          L @Xz n.                              F.G.s.j.|.~.                                                                    ",
"          ,.>.1 b.                            Q a.=.b oX+.                                                                      ",
"          9 #XC $XB       9               9 9.).R v _.E.                                                                        ",
"            M.1.= N.  9 '.2.C.            F %XT &Xf.9                                                                           ",
"            L OXR *X^ m =X* P             } J.T $X]                                                                             ",
"              D.-XR = 5.j.O.F               N.b /.;X                                                                            ",
"                D.q.].w R :X9               t 3 * P                                                                             ",
"                  ,.a >XC oX                F D *.A                                                                             ",
"                      ,XC <X#.              N e M K.                                                                            ",
"                      n s.e 1X              2Xz i #                                                                             ",
"                      # j C 3X;X        9 8 v d :.                                                                              ",
"                        4X5Xw O.T.~.i.c 6Xe w a.F.                                                                              ",
"                        9 f *X6 < v /.2 w 5 -.>                                                                                 ",
"                            N 7XU.M E & 8X9X#                                                                                   ",
"                              @ C.K.1XX .                                                                                       ",
"                                                                                                                                ",
"                                                                                                                                ",
"                                                                                                                                ",
"                                                                                                                                ",
"                                                                                                                                ",
"                                                                                                                                ",
"                                                                                                                                ",
"                                                                                                                                ",
"                                                                                                                                "
};
