/* XPM */
static char *collectable__48_1710156750[] = {
/* columns rows colors chars-per-pixel */
"64 64 223 2 ",
"   c white",
".  c #F6FDFD",
"X  c #EDFBFB",
"o  c #ECFBFB",
"O  c #F4FCFC",
"+  c #FEFFFF",
"@  c #E6F9F9",
"#  c #A6E9E9",
"$  c #73DCDC",
"%  c #5BD6D6",
"&  c #5AD6D6",
"*  c #6CDADA",
"=  c #9AE6E6",
"-  c #DAF6F6",
";  c #C7F1F1",
":  c #61D7D7",
">  c #33CCCC",
",  c #3FCFCF",
"<  c #41D0D0",
"1  c #36CDCD",
"2  c #31CCCC",
"3  c #52D4D4",
"4  c #B1ECEC",
"5  c #FAFEFE",
"6  c #CAF2F2",
"7  c #50D3D3",
"8  c #32CCCC",
"9  c #63D8D8",
"0  c #ABEAEA",
"q  c #CFF3F3",
"w  c #D2F4F4",
"e  c #B6EDED",
"r  c #37CDCD",
"t  c #40CFCF",
"y  c #AFEBEB",
"u  c #FDFFFF",
"i  c #EBFAFA",
"p  c #67D9D9",
"a  c #79DDDD",
"s  c #E5F9F9",
"d  c #F1FCFC",
"f  c #94E4E4",
"g  c #4ED3D3",
"h  c #D6F5F5",
"j  c #B4ECEC",
"k  c #E1F7F7",
"l  c #F2FCFC",
"z  c #75DCDC",
"x  c #31CBCB",
"c  c #93E4E4",
"v  c #FBFEFE",
"b  c #85E0E0",
"n  c #30CBCB",
"m  c #98E5E5",
"M  c #62D8D8",
"N  c #E7F9F9",
"B  c #70DBDB",
"V  c #35CCCC",
"C  c #B8EDED",
"Z  c #96E5E5",
"A  c #59D5D5",
"S  c #39CECE",
"D  c #66D9D9",
"F  c #9EE7E7",
"G  c #B5ECEC",
"H  c #C2F0F0",
"J  c #3CCECE",
"K  c #45D0D0",
"L  c #42D0D0",
"P  c #C3F0F0",
"I  c #FCFEFE",
"U  c #89E2E2",
"Y  c #90E3E3",
"T  c #ECFAFA",
"R  c #ACEAEA",
"E  c #B9EEEE",
"W  c #D5F5F5",
"Q  c #D0F3F3",
"!  c #A9E9E9",
"~  c #60D7D7",
"^  c #CBF2F2",
"/  c #BCEEEE",
"(  c #3BCECE",
")  c #51D4D4",
"_  c #D7F5F5",
"`  c #E4F8F8",
"'  c #69D9D9",
"]  c #E9FAFA",
"[  c #5CD6D6",
"{  c #2FCBCB",
"}  c #88E1E1",
"|  c #38CDCD",
" . c #F8FDFD",
".. c #A1E8E8",
"X. c #3ECFCF",
"o. c #3ACECE",
"O. c #A5E9E9",
"+. c #95E4E4",
"@. c #8AE2E2",
"#. c #F7FDFD",
"$. c #9DE6E6",
"%. c #9CE6E6",
"&. c #B3ECEC",
"*. c #34CCCC",
"=. c #75DDDD",
"-. c #F5FDFD",
";. c #3DCFCF",
":. c #A0E7E7",
">. c #F0FBFB",
",. c #FDFEFE",
"<. c #78DDDD",
"1. c #A4E8E8",
"2. c #F9FEFE",
"3. c #B7EDED",
"4. c #65D8D8",
"5. c #C5F1F1",
"6. c #92E4E4",
"7. c #8FE3E3",
"8. c #41CFCF",
"9. c #9FE7E7",
"0. c #6ADADA",
"q. c #4CD2D2",
"w. c #C4F0F0",
"e. c #8BE2E2",
"r. c #43D0D0",
"t. c #ADEBEB",
"y. c #DEF7F7",
"u. c #54D4D4",
"i. c #82E0E0",
"p. c #E5F8F8",
"a. c #D1F4F4",
"s. c #7BDEDE",
"d. c #EEFBFB",
"f. c #86E1E1",
"g. c #35CDCD",
"h. c #46D1D1",
"j. c #D1F3F3",
"k. c #53D4D4",
"l. c #5DD7D7",
"z. c #8EE2E2",
"x. c #4DD2D2",
"c. c #DCF6F6",
"v. c #48D1D1",
"b. c #B5EDED",
"n. c #CEF3F3",
"m. c #5ED7D7",
"M. c #5FD7D7",
"N. c #77DDDD",
"B. c #DBF6F6",
"V. c #EAFAFA",
"C. c #7EDEDE",
"Z. c #4AD2D2",
"A. c #BAEDED",
"S. c #57D5D5",
"D. c #E9F9F9",
"F. c #B1EBEB",
"G. c #84E0E0",
"H. c #BFEFEF",
"J. c #E8F9F9",
"K. c #7ADEDE",
"L. c #BEEFEF",
"P. c #E2F8F8",
"I. c #F1FBFB",
"U. c #76DDDD",
"Y. c #4FD3D3",
"T. c #C1EFEF",
"R. c #72DBDB",
"E. c #C0EFEF",
"W. c #EFFBFB",
"Q. c #6FDBDB",
"!. c #55D5D5",
"~. c #C9F1F1",
"^. c #7DDEDE",
"/. c #D4F4F4",
"(. c #6BDADA",
"). c #58D5D5",
"_. c #CDF2F2",
"`. c #49D2D2",
"'. c #81DFDF",
"]. c #47D1D1",
"[. c #D3F4F4",
"{. c #B0EBEB",
"}. c #A8E9E9",
"|. c #A5E8E8",
" X c #71DBDB",
".X c #DDF6F6",
"XX c #97E5E5",
"oX c #61D8D8",
"OX c #4BD2D2",
"+X c #6EDBDB",
"@X c #E0F7F7",
"#X c #9BE6E6",
"$X c #51D3D3",
"%X c #A9EAEA",
"&X c #72DCDC",
"*X c #5DD6D6",
"=X c #69DADA",
"-X c #E3F8F8",
";X c #F5FCFC",
":X c #DFF7F7",
">X c #F3FCFC",
",X c #8DE3E3",
"<X c #44D0D0",
"1X c #EDFAFA",
"2X c #A7E9E9",
"3X c #65D9D9",
"4X c #D5F4F4",
"5X c #9DE7E7",
"6X c #D9F6F6",
"7X c #39CDCD",
"8X c #BAEEEE",
"9X c #83E0E0",
"0X c #D9F5F5",
"qX c #74DCDC",
"wX c #45D1D1",
"eX c #BDEEEE",
"rX c #68D9D9",
"tX c #8EE3E3",
"yX c #C1F0F0",
"uX c #79DEDE",
"iX c #C9F2F2",
"pX c #89E1E1",
"aX c #8DE2E2",
/* pixels */
"                                                                                                                                ",
"                                                                                                                                ",
"                                                                                                                                ",
"                                                                                                                                ",
"                                                                                    . X o O +                                   ",
"                                                                                @ # $ % & * = - +                               ",
"                                                                            + ; : > > , < 1 2 3 4 5                             ",
"                                                                            6 7 8 9 0 q w e $ r t y u                           ",
"                                                                          i p 2 a s         d f r g h                           ",
"                                                                          j r & k             l z x c +                         ",
"                                                                        v b n m                 y 1 M N                         ",
"                                                                        . B V C             i Z A > S D F k                     ",
"                                                                        . B V G             H J r K L > 8 % P +                 ",
"                                                                        I U n Y +           T R E W Q ! ~ 2 g ^                 ",
"                                                                          / ( ) _                       ` a 2 ' T               ",
"                                                                          ] [ { } v                       k A | C               ",
"                                                                         ...X.o.O.u                         +.n @.I             ",
"                                                                      #.$.J J %..                           &.*.=.#.            ",
"                                                                    -.m o.;.:. .      v >.,.                y > <. .            ",
"                                                                  O f | , 1.2.        3.4.5.              I U n 6.+             ",
"                                                                l 7.r 8.! 5           9.n 0.i             Q q.;.w.              ",
"                                                              >.e.1 r.t.v             y.u.*.i.p.      ,.a.9 n s.O               ",
"                                                            d.f.g.h.4 I               j.k.{ > l.= 3.G z.x.n M c.                ",
"                                                          T i.*.v.b.,.              n.& 8 m.M.1 n V *.n ( N.B.                  ",
"                                                        V.C.> Z.A.u               ^ S.x * y.D.F.G.B B @.H.l                     ",
"                                                      J.K.> x.L.+               ; u.x B P.      v . . I                         ",
"                  I d.@ I.                          s U.8 Y.T.+               P ) 8 z `                                         ",
"                  3.l.7 s.>.                      P.R.x 3 w.              + E.g 8 a N                                           ",
"                + ..L r.=.W.                    k Q.x !.~.              + / q.> ^.]                                             ",
"                  l /._ X                     y.(.x )._.              u C `.*.'.i                                               ",
"                                            B.p n [ Q               ,.j ].V f.d.                                                ",
"                                          _ 9 n m.[.              I {.K 1 @.>.                                                  ",
"                                        /.~ n M h               v R r.r 7.l                                                     ",
"                        . i V.l u     Q [ n D -               5 }.8.| c O                                                       ",
"                    @ |. XA S.p c h 6 ).n 0..X              2.1.X.o.XX-.                              X _ /.l                   ",
"                + ~.oX> > , t 1 x q.OX8 +X@X               .9.;.( #X#.                              W.=.r.L ..+                 ",
"                ^ $X8 ~ %Xn.j.G $ | x &XP.              . #X( ;.9. .                                >.s.7 *X3.                  ",
"              T =Xx N.-X        d ! f s               ;XZ o., 1.2.                                    I.@ d.I                   ",
"              C | S.:X              ,.              >X6.| t }.5                                                                 ",
"            ,.e.n f +                             d ,Xr L 0 v                                                                   ",
"             .=.*.&.                            W.} 1 <Xy I                                                                     ",
"             .N.> {.                          1XG.g.].&.I                                                                       ",
"            u 7.n @.I                       I +.*.h.3.u                                                                         ",
"              T.J x.w     -X2Xy.            I 6.2 A @                                                                           ",
"              l U.n 3X4Xv f *.5X              -X[ 1 F.                                                                          ",
"                6X~ n 7 @.u.7X8X                = n 9Xv                                                                         ",
"                  0XqXo.n 2 wXh                 C V Q..                                                                         ",
"                    I.eX9X, L j.                G *.$ #.                                                                        ",
"                        d rX*.0               ,.tXn tXu                                                                         ",
"                          $.8 M p.            [.g J yX                                                                          ",
"                          @X& 8 uXk       I w 3Xn <.>X                                                                          ",
"                            H g 2 A Z j 4 e.x.n ~ -                                                                             ",
"                            + iXp r n *.> n J N.-                                                                               ",
"                                i e pXqXqXaXH.l                                                                                 ",
"                                    I #.#.,.                                                                                    ",
"                                                                                                                                ",
"                                                                                                                                ",
"                                                                                                                                ",
"                                                                                                                                ",
"                                                                                                                                ",
"                                                                                                                                ",
"                                                                                                                                ",
"                                                                                                                                ",
"                                                                                                                                "
};
