/* XPM */
static char *collectable__0_1710156750[] = {
/* columns rows colors chars-per-pixel */
"64 64 225 2 ",
"   c white",
".  c #FEFFFF",
"X  c #F0FBFB",
"o  c #E0F7F7",
"O  c #DDF6F6",
"+  c #E9F9F9",
"@  c #FAFEFE",
"#  c #DCF6F6",
"$  c #97E5E5",
"%  c #64D8D8",
"&  c #4BD2D2",
"*  c #48D1D1",
"=  c #57D5D5",
"-  c #82E0E0",
";  c #C8F1F1",
":  c #FDFFFF",
">  c #BCEEEE",
",  c #55D5D5",
"<  c #31CBCB",
"1  c #37CDCD",
"2  c #49D2D2",
"3  c #4DD3D3",
"4  c #3ECFCF",
"5  c #30CBCB",
"6  c #43D0D0",
"7  c #99E5E5",
"8  c #F3FCFC",
"9  c #C5F1F1",
"0  c #4AD2D2",
"q  c #34CCCC",
"w  c #6EDADA",
"e  c #B8EDED",
"r  c #E2F8F8",
"t  c #CAF2F2",
"y  c #86E1E1",
"u  c #3FCFCF",
"i  c #EBFAFA",
"p  c #66D9D9",
"a  c #32CCCC",
"s  c #ECFAFA",
"d  c #F9FDFD",
"f  c #ACEAEA",
"g  c #40CFCF",
"h  c #42D0D0",
"j  c #C7F1F1",
"k  c #B7EDED",
"l  c #59D5D5",
"z  c #F7FDFD",
"x  c #7CDEDE",
"c  c #A1E8E8",
"v  c #FCFEFE",
"b  c #8AE2E2",
"n  c #95E4E4",
"m  c #A4E8E8",
"M  c #4FD3D3",
"N  c #2FCBCB",
"B  c #36CDCD",
"V  c #51D3D3",
"C  c #96E5E5",
"Z  c #F8FDFD",
"A  c #77DDDD",
"S  c #33CCCC",
"D  c #B2ECEC",
"F  c #CDF2F2",
"G  c #41CFCF",
"H  c #39CDCD",
"J  c #5FD7D7",
"K  c #7FDFDF",
"L  c #80DFDF",
"P  c #62D8D8",
"I  c #3ACECE",
"U  c #71DBDB",
"Y  c #F9FEFE",
"T  c #7CDFDF",
"R  c #A9E9E9",
"E  c #EDFAFA",
"W  c #A1E7E7",
"Q  c #B5ECEC",
"!  c #FBFEFE",
"~  c #EEFBFB",
"^  c #9AE6E6",
"/  c #7EDFDF",
"(  c #C9F2F2",
")  c #3BCECE",
"_  c #CCF2F2",
"`  c #45D1D1",
"'  c #C6F1F1",
"]  c #91E4E4",
"[  c #84E0E0",
"{  c #58D5D5",
"}  c #CDF3F3",
"|  c #C2F0F0",
" . c #DEF7F7",
".. c #2DCBCB",
"X. c #D0F3F3",
"o. c #46D1D1",
"O. c #B9EEEE",
"+. c #BFEFEF",
"@. c #F1FCFC",
"#. c #68D9D9",
"$. c #31CCCC",
"%. c #88E1E1",
"&. c #85E1E1",
"*. c #5CD6D6",
"=. c #E1F8F8",
"-. c #79DDDD",
";. c #AEEBEB",
":. c #B9EDED",
">. c #C6F0F0",
",. c #45D0D0",
"<. c #BAEEEE",
"1. c #9EE7E7",
"2. c #38CDCD",
"3. c #44D0D0",
"4. c #98E5E5",
"5. c #DFF7F7",
"6. c #F5FCFC",
"7. c #49D1D1",
"8. c #E8F9F9",
"9. c #F1FBFB",
"0. c #74DCDC",
"q. c #6BDADA",
"w. c #6CDADA",
"e. c #51D4D4",
"r. c #34CDCD",
"t. c #85E0E0",
"y. c #EDFBFB",
"u. c #95E5E5",
"i. c #5DD7D7",
"p. c #5BD6D6",
"a. c #35CDCD",
"s. c #54D4D4",
"d. c #F2FCFC",
"f. c #C4F0F0",
"g. c #BBEEEE",
"h. c #69DADA",
"j. c #DDF7F7",
"k. c #D3F4F4",
"l. c #D1F3F3",
"z. c #EFFBFB",
"x. c #E7F9F9",
"c. c #65D9D9",
"v. c #8BE2E2",
"b. c #3CCECE",
"n. c #93E4E4",
"m. c #5ED7D7",
"M. c #E3F8F8",
"N. c #BDEEEE",
"B. c #F6FDFD",
"V. c #6ADADA",
"C. c #8CE2E2",
"Z. c #B4ECEC",
"A. c #47D1D1",
"S. c #60D7D7",
"D. c #E4F8F8",
"F. c #9BE6E6",
"G. c #C1EFEF",
"H. c #41D0D0",
"J. c #BEEFEF",
"K. c #E5F8F8",
"L. c #8FE3E3",
"P. c #B3ECEC",
"I. c #CBF2F2",
"U. c #35CCCC",
"Y. c #9DE6E6",
"T. c #C0EFEF",
"R. c #F5FDFD",
"E. c #81DFDF",
"W. c #6EDBDB",
"Q. c #90E3E3",
"!. c #8EE2E2",
"~. c #63D8D8",
"^. c #E6F9F9",
"/. c #DBF6F6",
"(. c #56D5D5",
"). c #9FE7E7",
"_. c #FDFEFE",
"`. c #C1F0F0",
"'. c #6FDBDB",
"]. c #92E4E4",
"[. c #B0EBEB",
"{. c #CEF3F3",
"}. c #DAF6F6",
"|. c #C3F0F0",
" X c #F4FCFC",
".X c #70DBDB",
"XX c #A7E9E9",
"oX c #A8E9E9",
"OX c #94E4E4",
"+X c #39CECE",
"@X c #CFF3F3",
"#X c #EAFAFA",
"$X c #99E6E6",
"%X c #D8F5F5",
"&X c #53D4D4",
"*X c #A2E8E8",
"=X c #61D8D8",
"-X c #72DCDC",
";X c #55D4D4",
":X c #4CD2D2",
">X c #3DCECE",
",X c #D7F5F5",
"<X c #52D4D4",
"1X c #A3E8E8",
"2X c #7ADEDE",
"3X c #73DCDC",
"4X c #D2F4F4",
"5X c #50D3D3",
"6X c #D6F5F5",
"7X c #67D9D9",
"8X c #89E1E1",
"9X c #3DCFCF",
"0X c #E5F9F9",
"qX c #D9F6F6",
"wX c #AFEBEB",
"eX c #BDEFEF",
"rX c #8DE2E2",
"tX c #8EE3E3",
"yX c #D9F5F5",
"uX c #71DCDC",
"iX c #30CCCC",
"pX c #A5E9E9",
"aX c #A9EAEA",
"sX c #4ED3D3",
"dX c #76DDDD",
/* pixels */
"                                                                                                                                ",
"                                                                          . X o O + @                                           ",
"                                                                        # $ % & * = - ; @                                       ",
"                                                                    : > , < 1 2 3 4 5 6 7 8                                     ",
"                                                                    9 0 q w e # r t y u 1 $ @                                   ",
"                                                                  i p a - s         d f g h j                                   ",
"                                                                  k 1 l r             z x 5 p c e o v                           ",
"                                                                v b 5 n             8 m M 5 N 5 B V C +                         ",
"                                                                Z A S D             F G H J K L P I S U r                       ",
"                                                                Y T a R             E W Q i @ ! ~ Q , < x 8                     ",
"                                                                  ^ 5 / Y                           ( 0 ) >                     ",
"                                                                  _ h ` '                           : ] 5 - @                   ",
"                                                                  z [ a { }                           | I P X                   ",
"                                                                     ., ..[ !                         X.g { i                   ",
"                                                                    ; o.4 O.                          +.H % @.                  ",
"                                                                  + #.$.%.Z       O _ Y             @ &.5 b v                   ",
"                                                                ! C S *.=.      z -.6 ;.v         . :.h 6 t                     ",
"                                                                >.,.4 <.        v 1.2.3.4.5.6.6.r m 7.q ] Y                     ",
"                                                              8.p $.b Z           9.0.5 S M q.w.e.r.2.t.y.                      ",
"                                                            ! u.S i.r             5.p.a.s.6 B B h % ;.d.                        ",
"                                                            f.3.u g.            z [ < h.j.k.> > l.z.                            ",
"                                                          x.c.$.v.d             Q b.o.;                                         ",
"                                                        ! n.S m.M.             .{ q ^ v                                         ",
"                                                        | 6 g N.            B.[ < V.i                                           ",
"                                                      x.% a C.Y             Z.b.A.(                                             ",
"                                                    @ ] a S.D.            O { q F.v                                             ",
"                                                    G.h H.J.            B.- < w.s                                               ",
"                                                  K.P a L.@             P.) * I.                                                ",
"                                                @ L.a P K.            # = U.Y.v                                                 ",
"                                                J.H.H.T.            R.E.< W.E                                                   ",
"                                              D.S.a Q.@             D ) 0 F                                                     ",
"                                            Y !.a ~.^.            /.(.a.)._.                                                    ",
"                                            N.g h `.            6.L 5 '.~                                                       ",
"                                          M.J a ].@             [.I 0 {.                                                        ",
"                                        d C.$.% x.            }.s.a.W :                                                         ",
"                                        > g 6 |.             X/ 5 .X~                                                           ",
"                          _.M.+.XXoX`.{.m.S OX!             ;.+X& @X                                                            ",
"                        #X$Xs.H < a I o.S p 8.            %X&XB *X:                                                             ",
"                      K.0.S ) =XL K J H A.9             8 x 5 -Xz.                                                              ",
"                    R.- $.;Xk ~ ! @ i e `.!             f +X:XX.                                                                ",
"                    +.>X7.j                           ,X<XB 1X.                                                                 ",
"                  @ - 5 Q._.                        d.2X5 3Xz.                                                                  ",
"                  X S.I f.                          f 2.& 4X                                                                    ",
"                  i { g l.                        ! %.N 5X6X                                                                    ",
"                  @.% 2.+.                          /.7X$.A 8                                                                   ",
"                  v 8X5 %.!       x.o _.              4X:X9Xf.                                                                  ",
"                    ' g 6 g..   d.0.m.M.              ! &.5 n .                                                                 ",
"                    z v.S 2 1X0XqX& A.#                 f a 2Xd                                                                 ",
"                      i [ H q s.~.+X0 #                 wXS A Z                                                                 ",
"                        8 ;.~.g a.S ) eX              _.rX5 tX:                                                                 ",
"                            ~ {.:.0.$.-. X            yXV ) +.                                                                  ",
"                                  X.* H 4.d.        o uXiXuXX                                                                   ",
"                                  v pXb.1 0.k 4XI.*Xp.$., 4X                                                                    ",
"                                    Z aXsX< B H.4 a a.c._                                                                       ",
"                                      : ,Xn 7X(.*.dXf +                                                                         ",
"                                          : d.#Xy.z                                                                             ",
"                                                                                                                                ",
"                                                                                                                                ",
"                                                                                                                                ",
"                                                                                                                                ",
"                                                                                                                                ",
"                                                                                                                                ",
"                                                                                                                                ",
"                                                                                                                                "
};
