/* XPM */
static char *collectable__39_1710156750[] = {
/* columns rows colors chars-per-pixel */
"64 64 226 2 ",
"   c white",
".  c #F4FCFC",
"X  c #E2F8F8",
"o  c #D6F5F5",
"O  c #DCF6F6",
"+  c #EFFBFB",
"@  c #FEFFFF",
"#  c #F0FBFB",
"$  c #B0EBEB",
"%  c #6FDBDB",
"&  c #4ED3D3",
"*  c #43D0D0",
"=  c #48D1D1",
"-  c #63D8D8",
";  c #9CE6E6",
":  c #E3F8F8",
">  c #F8FDFD",
",  c #EAFAFA",
"<  c #FBFEFE",
"1  c #E5F8F8",
"2  c #7BDEDE",
"3  c #38CDCD",
"4  c #32CCCC",
"5  c #45D1D1",
"6  c #54D4D4",
"7  c #4CD2D2",
"8  c #37CDCD",
"9  c #5ED7D7",
"0  c #C8F1F1",
"q  c #ACEAEA",
"w  c #5CD6D6",
"e  c #F1FBFB",
"r  c #31CBCB",
"t  c #A0E7E7",
"y  c #E8F9F9",
"u  c #DFF7F7",
"i  c #B5EDED",
"p  c #62D8D8",
"a  c #D3F4F4",
"s  c #FDFEFE",
"d  c #88E1E1",
"f  c #2FCBCB",
"g  c #AEEBEB",
"h  c #4FD3D3",
"j  c #C7F1F1",
"k  c #71DBDB",
"l  c #78DDDD",
"z  c #FCFEFE",
"x  c #93E4E4",
"c  c #30CBCB",
"v  c #95E5E5",
"b  c #67D9D9",
"n  c #34CCCC",
"m  c #A5E9E9",
"M  c #C0EFEF",
"N  c #40CFCF",
"B  c #3CCECE",
"V  c #85E1E1",
"C  c #A6E9E9",
"Z  c #D9F6F6",
"A  c #9EE7E7",
"S  c #2ECBCB",
"D  c #8BE2E2",
"F  c #FDFFFF",
"G  c #D5F5F5",
"H  c #44D0D0",
"J  c #E0F7F7",
"K  c #C2F0F0",
"L  c #5FD7D7",
"P  c #31CCCC",
"I  c #4DD2D2",
"U  c #CAF2F2",
"Y  c #65D8D8",
"T  c #B5ECEC",
"R  c #C6F1F1",
"E  c #3BCECE",
"W  c #61D8D8",
"Q  c #F9FEFE",
"!  c #7EDFDF",
"~  c #33CCCC",
"^  c #5DD6D6",
"/  c #91E3E3",
"(  c #A8E9E9",
")  c #9AE6E6",
"_  c #6BDADA",
"`  c #36CDCD",
"'  c #86E1E1",
"]  c #CCF2F2",
"[  c #3ECFCF",
"{  c #5AD6D6",
"}  c #ECFAFA",
"|  c #D4F4F4",
" . c #B1EBEB",
".. c #E6F9F9",
"X. c #F1FCFC",
"o. c #AFEBEB",
"O. c #49D1D1",
"+. c #A2E8E8",
"@. c #B2ECEC",
"#. c #51D3D3",
"$. c #39CECE",
"%. c #55D5D5",
"&. c #B7EDED",
"*. c #59D6D6",
"=. c #D1F3F3",
"-. c #82E0E0",
";. c #F2FCFC",
":. c #EEFBFB",
">. c #B9EDED",
",. c #6EDBDB",
"<. c #A0E8E8",
"1. c #CFF3F3",
"2. c #4BD2D2",
"3. c #8CE2E2",
"4. c #8AE2E2",
"5. c #9BE6E6",
"6. c #E7F9F9",
"7. c #B8EDED",
"8. c #E5F9F9",
"9. c #95E4E4",
"0. c #5BD6D6",
"q. c #77DDDD",
"w. c #4AD2D2",
"e. c #D0F3F3",
"r. c #47D1D1",
"t. c #D1F4F4",
"y. c #74DCDC",
"u. c #F5FDFD",
"i. c #DEF7F7",
"p. c #C3F0F0",
"a. c #6DDBDB",
"s. c #7FDFDF",
"d. c #F7FDFD",
"f. c #ABEAEA",
"g. c #50D3D3",
"h. c #D7F5F5",
"j. c #58D5D5",
"k. c #D8F5F5",
"l. c #DAF6F6",
"z. c #53D4D4",
"x. c #A7E9E9",
"c. c #57D5D5",
"v. c #49D2D2",
"b. c #61D7D7",
"n. c #70DBDB",
"m. c #BFEFEF",
"M. c #41D0D0",
"N. c #42D0D0",
"B. c #68D9D9",
"V. c #51D4D4",
"C. c #66D9D9",
"Z. c #9FE7E7",
"A. c #E4F8F8",
"S. c #3DCFCF",
"D. c #CBF2F2",
"F. c #D9F5F5",
"G. c #97E5E5",
"H. c #96E5E5",
"J. c #60D7D7",
"K. c #91E4E4",
"L. c #46D1D1",
"P. c #BBEEEE",
"I. c #3FCFCF",
"U. c #BEEFEF",
"Y. c #A5E8E8",
"T. c #55D4D4",
"R. c #A1E7E7",
"E. c #35CCCC",
"W. c #ADEAEA",
"Q. c #3ACECE",
"!. c #7CDEDE",
"~. c #76DDDD",
"^. c #F3FCFC",
"/. c #79DDDD",
"(. c #79DEDE",
"). c #B3ECEC",
"_. c #4DD3D3",
"`. c #DDF7F7",
"'. c #56D5D5",
"]. c #35CDCD",
"[. c #A1E8E8",
"{. c #F9FDFD",
"}. c #69D9D9",
"|. c #EBFAFA",
" X c #87E1E1",
".X c #6CDADA",
"XX c #EDFAFA",
"oX c #41CFCF",
"OX c #C4F0F0",
"+X c #BDEEEE",
"@X c #45D0D0",
"#X c #E9F9F9",
"$X c #65D9D9",
"%X c #8FE3E3",
"&X c #FAFEFE",
"*X c #5DD7D7",
"=X c #CDF2F2",
"-X c #72DCDC",
";X c #80DFDF",
":X c #F6FDFD",
">X c #84E1E1",
",X c #52D4D4",
"<X c #A4E8E8",
"1X c #BCEEEE",
"2X c #84E0E0",
"3X c #59D5D5",
"4X c #7ADEDE",
"5X c #39CDCD",
"6X c #92E4E4",
"7X c #C1EFEF",
"8X c #7DDEDE",
"9X c #6DDADA",
"0X c #90E3E3",
"qX c #CEF3F3",
"wX c #B4ECEC",
"eX c #75DCDC",
"rX c #B1ECEC",
"tX c #6ADADA",
"yX c #DBF6F6",
"uX c #A3E8E8",
"iX c #94E4E4",
"pX c #81E0E0",
"aX c #D2F4F4",
"sX c #C1F0F0",
"dX c #BAEEEE",
"fX c #64D8D8",
/* pixels */
"                                                                                                                                ",
"                                                                                                                                ",
"                                                                                                                                ",
"                                                                                                                                ",
"                                                                                                                                ",
"                                                                                                                                ",
"                                                                                                                                ",
"                                                                          . X o O + @                                           ",
"                                                                      # $ % & * = - ; :                                         ",
"                                                > , <               1 2 3 4 5 6 7 8 4 9 0                                       ",
"                                                q w 0             e 2 r & t o y u i p r 6 a                                     ",
"                                              s d f t             g 8 h j           X k r l # z                                 ",
"                                              @ x c v           # b n m               M N B k V C Z z                           ",
"                                                A S D F         G H & J           @ K L n P P c 4 I ; #                         ",
"                                                U Y T           R E W e           Q ! ~ ^ / ( ) _ E ` ' e                       ",
"                                                z # <           ] [ { }             |  ...@     X.o.O.` +.F                     ",
"                            , @.Z                               : #.N U                           @ q $.%.:                     ",
"                            &.$.*.=.                            Q -.c 2 ;.                          :.- 8 >.                    ",
"                            X ,.` <.                              1.2.8 3.#                         s 4.c 5.                    ",
"                              6.7.8.                              @ C 8 B K                           x c 9.                    ",
"                                                                  s ; n 0.X                         > q.4 (                     ",
"                                                                  1.w.E T       > K 1.@             e.r.H t.                    ",
"                                                                e y.c ! u.      i.& h p.@         X a.c s.d.                    ",
"                                                                f.3 g.h.        ;.s.n 2.) | 8.O @.p P j.k.                      ",
"                                                              l.z.` x.@           J c.f 4 * #.v.` ~ b.]                         ",
"                                                            d.-.c n.+             m.M.N.B.V.5 7 C.Z.A.                          ",
"                                                            >.S.r.D.            6.p 4 x X.A.F.J e                               ",
"                                                          A.L ~ G.z           z H.~ J.8.                                        ",
"                                                        < K.4 - 6.            U L.[ P.                                          ",
"                                                        j H I.U.            :.% r V d.                                          ",
"                                                      } _ r d >           @ Y.` T.O                                             ",
"                                                    F R.E.c.i.            o h 3 W.                                              ",
"                                                    a 7 Q.$             . !.c ~.;.                                              ",
"                                                  ^./.c (.^.            ).Q.2.=.                                                ",
"                                                  o.$._.a             J *.n A s                                                 ",
"                                                `.'.].[.@           {.D r }.|.                                                  ",
"                                              >  Xr .XXX            M oX* OX                                                    ",
"                                              +XI.@Xj             #X$X4 %X&X                                                    ",
"                                            ..p 4 x <           z ) ~ *X:                                                       ",
"                                          < 9.~ J.8.            =X= B &.                                                        ",
"                                          U L.[ P.            # -Xc ;X:X                                                        ",
"                                        :.,.c >Xd.            ( 8 ,Xk.                                                          ",
"                              < X.} ;.&X<X` T.O             k.,X8 (                                                             ",
"                          ;.1X2X- 3Xb -.2.$.W.            :X;Xc -X#                                                             ",
"                        u 4XE c 5XS.` f f ~.;.            &.B = =X                          8.7.6.                              ",
"                      8._ c I 6X7XD.T 8X9XG             : *X~ ) z                           <.` ,.X                             ",
"                    < 0X4 { qXF       > ;.            &X%X4 $X#X                            =.*.$.7.                            ",
"                    Z 2.N M                           OX* oXM                                 l.@.,                             ",
"                    g ~ % .                         , }.4 3.Q             &X# z                                                 ",
"                    H.c / @                         K Q.$.@.              wX$XD.                                                ",
"                    G.c %X@                         6.eX~ { O           F 4.S A                                                 ",
"                    rXn .X^.        F                 ..tXr %Xz           v c x @                                               ",
"                    yX7 I.U.      `.6X1.                m.E c.y           t f d s                                               ",
"                    < 0X4 c.0 z   uXc 6X@               y '.N e.          j 0.q                                                 ",
"                      ..% P = D 1X2 c iX                X.p Q.R           < , >                                                 ",
"                        : pXS.c 8 ` c s.&X              8.z.M.aX                                                                ",
"                          u.sX XB.3X8 g.O               ).3 *X|.                                                                ",
"                              < . : B.r -.+           l.w ~ A @                                                                 ",
"                                    K L.].(.1.X.u., dXL c B.y                                                                   ",
"                                    z @.2.c H fX.X3XQ.4 fXo                                                                     ",
"                                      F 1.s.7 Q.` [ j.9.:                                                                       ",
"                                          > `.OX1XD.y s                                                                         ",
"                                                                                                                                ",
"                                                                                                                                "
};
