/* XPM */
static char *collectable__8_1710156750[] = {
/* columns rows colors chars-per-pixel */
"64 64 221 2 ",
"   c white",
".  c #FEFFFF",
"X  c #F2FCFC",
"o  c #E8F9F9",
"O  c #E9F9F9",
"+  c #F3FCFC",
"@  c #DBF6F6",
"#  c #98E5E5",
"$  c #67D9D9",
"%  c #54D4D4",
"&  c #55D4D4",
"*  c #69D9D9",
"=  c #97E5E5",
"-  c #FCFEFE",
";  c #B8EDED",
":  c #31CBCB",
">  c #36CDCD",
",  c #42D0D0",
"<  c #B7EDED",
"1  c #BAEEEE",
"2  c #45D0D0",
"3  c #35CCCC",
"4  c #6EDBDB",
"5  c #B4ECEC",
"6  c #D4F4F4",
"7  c #6FDBDB",
"8  c #E0F7F7",
"9  c #58D5D5",
"0  c #34CCCC",
"q  c #8BE2E2",
"w  c #EEFBFB",
"e  c #A2E8E8",
"r  c #32CCCC",
"t  c #69DADA",
"y  c #ECFAFA",
"u  c #6ADADA",
"i  c #F7FDFD",
"p  c #73DCDC",
"a  c #33CCCC",
"s  c #ABEAEA",
"d  c #9FE7E7",
"f  c #EAFAFA",
"g  c #F0FBFB",
"h  c #60D7D7",
"j  c #3CCECE",
"k  c #C8F1F1",
"l  c #DEF7F7",
"z  c #85E0E0",
"x  c #50D3D3",
"c  c #3ACECE",
"v  c #62D8D8",
"b  c #F1FBFB",
"n  c #62D7D7",
"m  c #C4F0F0",
"M  c #B2ECEC",
"N  c #38CDCD",
"B  c #3DCECE",
"V  c #4CD2D2",
"C  c #46D1D1",
"Z  c #31CCCC",
"A  c #59D6D6",
"S  c #C3F0F0",
"D  c #F8FDFD",
"F  c #79DDDD",
"G  c #A0E7E7",
"H  c #B5ECEC",
"J  c #D7F5F5",
"K  c #B0EBEB",
"L  c #64D8D8",
"P  c #4FD3D3",
"I  c #CCF2F2",
"U  c #AEEBEB",
"Y  c #5BD6D6",
"T  c #E5F9F9",
"R  c #78DDDD",
"E  c #6CDADA",
"W  c #E1F7F7",
"Q  c #52D4D4",
"!  c #30CBCB",
"~  c #96E5E5",
"^  c #BEEFEF",
"/  c #F6FDFD",
"(  c #99E5E5",
")  c #3BCECE",
"_  c #3FCFCF",
"`  c #FDFFFF",
"'  c #8CE2E2",
"]  c #93E4E4",
"[  c #F5FCFC",
"{  c #95E5E5",
"}  c #39CECE",
"|  c #40CFCF",
" . c #A7E9E9",
".. c #F9FEFE",
"X. c #A9EAEA",
"o. c #80DFDF",
"O. c #FAFEFE",
"+. c #F4FCFC",
"@. c #41CFCF",
"#. c #FBFEFE",
"$. c #FDFEFE",
"%. c #A3E8E8",
"&. c #84E0E0",
"*. c #90E3E3",
"=. c #37CDCD",
"-. c #ACEAEA",
";. c #ADEBEB",
":. c #7ADEDE",
">. c #F1FCFC",
",. c #8DE2E2",
"<. c #44D0D0",
"1. c #AFEBEB",
"2. c #2FCBCB",
"3. c #6DDBDB",
"4. c #EBFAFA",
"5. c #C1F0F0",
"6. c #45D1D1",
"7. c #D0F3F3",
"8. c #8AE2E2",
"9. c #B1EBEB",
"0. c #DAF6F6",
"q. c #E2F8F8",
"w. c #F9FDFD",
"e. c #55D5D5",
"r. c #EFFBFB",
"t. c #87E1E1",
"y. c #CAF2F2",
"u. c #4ED3D3",
"i. c #59D5D5",
"p. c #92E4E4",
"a. c #A8E9E9",
"s. c #7DDFDF",
"d. c #43D0D0",
"f. c #71DCDC",
"g. c #E6F9F9",
"h. c #EDFBFB",
"j. c #48D1D1",
"k. c #B6EDED",
"l. c #65D8D8",
"z. c #89E2E2",
"x. c #81DFDF",
"c. c #4AD1D1",
"v. c #B9EDED",
"b. c #C6F1F1",
"n. c #75DCDC",
"m. c #E4F8F8",
"M. c #79DEDE",
"N. c #7FDFDF",
"B. c #9CE6E6",
"V. c #CEF3F3",
"C. c #7EDFDF",
"Z. c #4BD2D2",
"A. c #BBEEEE",
"S. c #77DDDD",
"D. c #7BDEDE",
"F. c #C0EFEF",
"G. c #E7F9F9",
"H. c #BDEFEF",
"J. c #7CDEDE",
"K. c #E9FAFA",
"L. c #76DDDD",
"P. c #C2F0F0",
"I. c #4AD2D2",
"U. c #C5F0F0",
"Y. c #49D1D1",
"T. c #81E0E0",
"R. c #70DBDB",
"E. c #53D4D4",
"W. c #C7F1F1",
"Q. c #47D1D1",
"!. c #56D5D5",
"~. c #46D0D0",
"^. c #DFF7F7",
"/. c #6BDADA",
"(. c #DDF6F6",
"). c #30CCCC",
"_. c #5AD6D6",
"`. c #CFF3F3",
"'. c #ADEAEA",
"]. c #BCEEEE",
"[. c #66D9D9",
"{. c #A4E8E8",
"}. c #D9F6F6",
"|. c #5CD6D6",
" X c #D1F4F4",
".X c #8FE3E3",
"XX c #DCF6F6",
"oX c #57D5D5",
"OX c #5ED7D7",
"+X c #D3F4F4",
"@X c #65D9D9",
"#X c #BFEFEF",
"$X c #A5E8E8",
"%X c #35CDCD",
"&X c #2ECBCB",
"*X c #61D7D7",
"=X c #D5F5F5",
"-X c #A6E9E9",
";X c #D2F4F4",
":X c #D8F5F5",
">X c #3ECFCF",
",X c #CDF3F3",
"<X c #A1E8E8",
"1X c #3DCFCF",
"2X c #9BE6E6",
"3X c #9DE7E7",
"4X c #82E0E0",
"5X c #88E1E1",
"6X c #D6F5F5",
"7X c #E3F8F8",
"8X c #51D3D3",
"9X c #74DCDC",
"0X c #A5E9E9",
"qX c #72DCDC",
"wX c #E5F8F8",
"eX c #AAEAEA",
"rX c #5FD7D7",
"tX c #61D8D8",
"yX c #A1E7E7",
"uX c #4DD2D2",
"iX c #39CDCD",
/* pixels */
"                                                                                                                                ",
"                                                                                                                                ",
"                                                                                                                                ",
"                                                                                                                                ",
"                                                                                  . X o O + .                                   ",
"                                                                              . @ # $ % & * = @ .                               ",
"                                                                            - ; % : > , , > : % < -                             ",
"                                                                            1 2 3 4 5 6 6 5 7 3 2 1                             ",
"                                                                          8 9 0 q w         w q 0 9 8                           ",
"                                                                          e r t y             y u r e                           ",
"                                                                        i p a s               - d r 4 f .                       ",
"                                                                        g h j k             l z x r c v = l                     ",
"                                                                        b n c m             M N B V C 3 Z A S .                 ",
"                                                                        D F Z G             f H k l J K L r P I                 ",
"                                                                          U > Y 8                       T R : E w               ",
"                                                                          W Q ! ~ .                       l % c ^               ",
"                                                                        / ( ) _ M                         ` ' ! ] .             ",
"                                                                      [ { } |  ...                          X.r o.O.            ",
"                                                                    +.] N @.X.#.      ..w $.                %.: &.#.            ",
"                                                                  X *.=., -.#.      . ;.v k               D :.Z d               ",
"                                                                >.,.> <.1.-         . # 2.3.4.            5., 6.7.              ",
"                                                              g 8.> 2 9.-             0.x 0 o.q..     w.5.e.r q w.              ",
"                                                            r.t.3 C 5 $.              y.u.2.r i.p.U a.s.d.r f.g.                ",
"                                                          h.&.0 j.k.$.              k & a l.v =.! a r : <.z.g.                  ",
"                                                        y x.0 c.v.`               b.Q r n.m.f < ' M.N.B.V.D                     ",
"                                                      f C.a Z.A..               S x r S.g.      $.w.O.                          ",
"                                                    O D.a V ^ .             . F.u.r M.o                                         ",
"                                                  G.F r u.F..             . H.V a J.K.                                          ",
"                                                T L.r x P.              ` 1 I.a N.f                                             ",
"                                              m.p Z Q U.              ` ; Y.0 T.y                                               ",
"                                            q.R.: E.W.              $.H Q.0 &.h.                                                ",
"                                          8 4 : !.y.              - M ~.3 t.r.                                                  ",
"                                        ^./.! 9 I               - 1.<.> 8.g                                                     ",
"                        - [ + D       (.t )._.`.              #.'.d.> ,.>.                                                      ",
"                    X ].t./.[.R {.8 }.$ ! |. X              #.s @.=..XX                                                         ",
"                  XXS.c ! > N r a & oXZ OX+X              #.a.| N p.+                                                           ",
"                ^.@X).u.*.A.#X$Xt %X&X*X=X              O.-X_ } { [                                                             ",
"              / N.: v ;X`       y B.C.:X              ..{.>Xc # /                                                               ",
"              y.| Y.,X            $.w.              w.<X1X) 2Xi                                                                 ",
"              2X! T.O.                            D d j j 3XD                                                                   ",
"            #.4X: -X                            i B.) 1XG D                                                                     ",
"            O.o.Z a.                          [ # c >X%...                                                                      ",
"              ~ ! 5X-                         a.} >X-XO.                                                                        ",
"              S j P 6X    b #X7X            . B.r 8X8                                                                           ",
"              X 9X! 4 ^.  -.) p.`             g.v 0  .                                                                          ",
"                =X9 Z |.e $ a 0X                0Xr L.i                                                                         ",
"                  7.$ %Xr 0 1Xb.                b.) *Xg                                                                         ",
"                    K.s qX>Xj m                 b.) v >.                                                                        ",
"                        b p r e                 $Xr F D                                                                         ",
"                          a.0 OX7X            wXh 0 eX                                                                          ",
"                          T rXZ :.m.        m.J.r tXg.                                                                          ",
"                            P.V r OXyXP.P.e OXr uXm                                                                             ",
"                            ` m h 0 Z iXiXr 0 h U..                                                                             ",
"                                g.eXR L L R X.g.                                                                                ",
"                                    D X X D                                                                                     ",
"                                                                                                                                ",
"                                                                                                                                ",
"                                                                                                                                ",
"                                                                                                                                ",
"                                                                                                                                ",
"                                                                                                                                ",
"                                                                                                                                ",
"                                                                                                                                ",
"                                                                                                                                "
};
