/* XPM */
static char *collectable__24_1710156751[] = {
/* columns rows colors chars-per-pixel */
"64 64 210 2 ",
"   c white",
".  c #FEFFFF",
"X  c #F2FCFC",
"o  c #E8F9F9",
"O  c #E9FAFA",
"+  c #F4FCFC",
"@  c #DBF6F6",
"#  c #97E5E5",
"$  c #67D9D9",
"%  c #54D4D4",
"&  c #56D5D5",
"*  c #6CDADA",
"=  c #9DE6E6",
"-  c #DEF7F7",
";  c #FCFEFE",
":  c #B7EDED",
">  c #31CBCB",
",  c #36CDCD",
"<  c #41D0D0",
"1  c #41CFCF",
"2  c #35CCCC",
"3  c #32CCCC",
"4  c #BAEEEE",
"5  c #B6EDED",
"6  c #44D0D0",
"7  c #B4ECEC",
"8  c #D3F4F4",
"9  c #D2F4F4",
"0  c #B3ECEC",
"q  c #34CCCC",
"w  c #47D1D1",
"e  c #BEEFEF",
"r  c #55D4D4",
"t  c #8CE2E2",
"y  c #EDFAFA",
"u  c #ECFAFA",
"i  c #86E1E1",
"p  c #33CCCC",
"a  c #5DD7D7",
"s  c #E4F8F8",
"d  c #9FE7E7",
"f  c #6BDADA",
"g  c #EDFBFB",
"h  c #62D8D8",
"j  c #A7E9E9",
"k  c #F6FDFD",
"l  c #71DBDB",
"z  c #ADEAEA",
"x  c #77DDDD",
"c  c #F9FDFD",
"v  c #EEFBFB",
"b  c #5DD6D6",
"n  c #3DCECE",
"m  c #CBF2F2",
"M  c #F3FCFC",
"N  c #C9F2F2",
"B  c #8AE2E2",
"V  c #59D5D5",
"C  c #DAF6F6",
"Z  c #EFFBFB",
"A  c #5FD7D7",
"S  c #3CCECE",
"D  c #AAEAEA",
"F  c #30CBCB",
"G  c #9CE6E6",
"H  c #F8FDFD",
"J  c #A4E9E9",
"K  c #C2F0F0",
"L  c #79DEDE",
"P  c #7BDEDE",
"I  c #38CDCD",
"U  c #76DDDD",
"Y  c #E7F9F9",
"T  c #60D7D7",
"R  c #FDFEFE",
"E  c #F5FCFC",
"W  c #F9FEFE",
"Q  c #EBFAFA",
"!  c #AEEBEB",
"~  c #4ED3D3",
"^  c #E0F7F7",
"/  c #49D1D1",
"(  c #D6F5F5",
")  c #BFEFEF",
"_  c #45D1D1",
"`  c #3FCFCF",
"'  c #FDFFFF",
"]  c #C7F1F1",
"[  c #31CCCC",
"{  c #4DD3D3",
"}  c #B0EBEB",
"|  c #FBFEFE",
" . c #8BE2E2",
".. c #84E0E0",
"X. c #A9EAEA",
"o. c #65D9D9",
"O. c #CDF2F2",
"+. c #C0EFEF",
"@. c #39CDCD",
"#. c #F1FBFB",
"$. c #88E1E1",
"%. c #3ACECE",
"&. c #83E0E0",
"*. c #CEF3F3",
"=. c #5AD5D5",
"-. c #D1F4F4",
";. c #69DADA",
":. c #46D1D1",
">. c #A3E8E8",
",. c #ADEBEB",
"<. c #61D7D7",
"1. c #65D8D8",
"2. c #50D3D3",
"3. c #5BD6D6",
"4. c #96E5E5",
"5. c #2FCBCB",
"6. c #7DDFDF",
"7. c #89E1E1",
"8. c #94E4E4",
"9. c #DCF6F6",
"0. c #42D0D0",
"q. c #B2ECEC",
"w. c #BCEEEE",
"e. c #40CFCF",
"r. c #C5F0F0",
"t. c #74DCDC",
"y. c #9BE6E6",
"u. c #E3F8F8",
"i. c #F7FDFD",
"p. c #A6E9E9",
"a. c #4BD2D2",
"s. c #59D6D6",
"d. c #52D4D4",
"f. c #FAFEFE",
"g. c #E1F8F8",
"h. c #7EDFDF",
"j. c #37CDCD",
"k. c #3ECFCF",
"l. c #3BCECE",
"z. c #53D4D4",
"x. c #71DCDC",
"c. c #72DCDC",
"v. c #57D5D5",
"b. c #80DFDF",
"n. c #EAFAFA",
"m. c #A1E7E7",
"M. c #45D0D0",
"N. c #C8F1F1",
"B. c #61D8D8",
"V. c #4CD2D2",
"C. c #AEEAEA",
"Z. c #E2F8F8",
"A. c #4AD2D2",
"S. c #63D8D8",
"D. c #ACEAEA",
"F. c #89E2E2",
"G. c #81DFDF",
"H. c #ACEBEB",
"J. c #CAF2F2",
"K. c #A2E8E8",
"L. c #E9F9F9",
"P. c #B6ECEC",
"I. c #51D3D3",
"U. c #5AD6D6",
"Y. c #D4F4F4",
"T. c #6DDADA",
"R. c #A0E7E7",
"E. c #75DDDD",
"W. c #D8F5F5",
"Q. c #AFEBEB",
"!. c #99E6E6",
"~. c #B5ECEC",
"^. c #95E5E5",
"/. c #E6F9F9",
"(. c #8FE3E3",
"). c #4FD3D3",
"_. c #75DCDC",
"`. c #4DD2D2",
"'. c #7ADEDE",
"]. c #B8EDED",
"[. c #BBEEEE",
"{. c #CFF3F3",
"}. c #81E0E0",
"|. c #F0FBFB",
" X c #C3F0F0",
".X c #43D0D0",
"XX c #9EE7E7",
"oX c #B9EDED",
"OX c #58D5D5",
"+X c #F5FDFD",
"@X c #73DCDC",
"#X c #D9F6F6",
"$X c #CCF2F2",
"%X c #F1FCFC",
"&X c #87E1E1",
"*X c #95E4E4",
"=X c #8CE3E3",
"-X c #A4E8E8",
";X c #69D9D9",
":X c #3DCFCF",
">X c #5ED7D7",
",X c #9AE6E6",
"<X c #35CDCD",
"1X c #DDF6F6",
"2X c #66D9D9",
"3X c #78DDDD",
"4X c #C6F1F1",
"5X c #85E1E1",
"6X c #6ADADA",
"7X c #B1EBEB",
/* pixels */
"                                                                                                                                ",
"                                                                                                                                ",
"                                                                                                                                ",
"                                                                                                                                ",
"                                                                                                                                ",
"                                                                                                                                ",
"                                                                                                                                ",
"                                                                                                                                ",
"                                                                                                                                ",
"                                                                                      . X o O +                                 ",
"                                                                                    @ # $ % & * = -                             ",
"                                                                                ; : % > , < 1 2 3 & 4 ;                         ",
"                                                                              . 5 6 2 * 7 8 9 0 * q w e                         ",
"                                                                              - r 2 t y         u i p a s                       ",
"                                                                              d 3 f g             o h p j                       ",
"                                                                            k l q z                 j 3 x c                     ",
"                                                                            v b n m             M N B 2 V C .                   ",
"                                                                            Z A S N             D n 3 F q % G u                 ",
"                                                                            H x 3 J             K f L P b I q U Y               ",
"                                                                              j p T Y           R E c W Q ! ~ 3 i k             ",
"                                                                            ^ x 3 / (                       ) _ ` K             ",
"                                                                        ' ] A [ { } W                       |  .F ..|           ",
"                                                                      k X./ [ o.O..                           +.@.h #.          ",
"                                                                    Y $.%.I &.s         W g ;                 *.` =.u           ",
"                                                                  -.;.3 :.>.+         . ,.<.N                 e I 1.X           ",
"                                                              W 7 2.F 3.K ;           . 4.5.6.H             | $.F 7.;           ",
"                                                            g 8.` 2 x 9.                O.0.` q.'           w.6 e.r.            ",
"                                                          C t.q e.# Z                 X y.S 5.:.d u.k i.Y p.a.p B i.            ",
"                                                      ; +.s.F d.: f.                g.h.j.k.A l.q z.x.c.v., j.b.n.              ",
"                                                    M m.M.3 * 8                 . N.B.> V.! n.C.h ` 2 q n a j #.                ",
"                                                  Z.b.j.l. .o                 k D A.[ S.m .     y O.5 7 N.n.                    ",
"                                              . m S.> a.D.i.                o F.%.I G.u.                                        ",
"                                            i.H.a.> S.J..                 9 f 3 M.K.M                                           ",
"                                          L.t l.j.b.Z.                f.P.I.F U.+.;                                             ",
"                                        Y.T.p 6 R.M                 v 4.` q E.@                                                 ",
"                  f.W.Q.!.G ~.- ;   f.: d.F s.) ;                 @ E.q ` ^.v                                                   ",
"                /.(.A.p F F 2 ).4.C # e.q _.C                 ; +.U.F I.~.f.                                                    ",
"              ^ T.3 ` T.t B $ S 2 `., ` ^.g                 M m.M.3 f 9                                                         ",
"            X '.> V e M ' R #.].% 5.I.~.f.                Z.b.j.%.F.o                                                           ",
"            [.%.`.O.            {.4.9                 . J.S.> A.D k                                                             ",
"          f.}.F 8..               .                 i.D.a.> B.N..                                                               ",
"          |.h %. X                                L. .l.j.h.g.                                                                  ",
"          u V ` {.                              Y.* 3 .XXXX                                                                     ",
"          X 1.j.[.                          f.oXz.F OXe ;                                                                       ",
"          ; t F b.H     y v               +XG 0.2 @X#X                                                                          ",
"            $XM.k.} . Y T.L %X            Y.M.p &Xy                                                                             ",
"            f.# , M.G *Xp $ |.            y ;.3 R.                                                                              ",
"              %X=Xl.p @.2 -X                z q l k                                                                             ",
"                +X7 ;XI l. X                m :Xb v                                                                             ",
"                    /.>XI +.                N.S A Z                                                                             ",
"                    f.P F ,X                -X3 x H                                                                             ",
"                      ! <Xv.1X            s T q X.                                                                              ",
"                      n.2X> @X-         ^ 3X3 T /.                                                                              ",
"                        $Xz.[ OX# [.w.,XV > ).4X                                                                                ",
"                          O.;Xj.F , , F , $ J..                                                                                 ",
"                            u 5 5X* 6Xb.7Xn.                                                                                    ",
"                                | E + f.                                                                                        ",
"                                                                                                                                ",
"                                                                                                                                ",
"                                                                                                                                ",
"                                                                                                                                ",
"                                                                                                                                ",
"                                                                                                                                ",
"                                                                                                                                "
};
