/* XPM */
static char *collectable__22_1710156751[] = {
/* columns rows colors chars-per-pixel */
"64 64 212 2 ",
"   c white",
".  c #FDFEFE",
"X  c #FEFFFF",
"o  c #E9FAFA",
"O  c #BAEEEE",
"+  c #97E5E5",
"@  c #89E2E2",
"#  c #92E4E4",
"$  c #B5ECEC",
"%  c #E4F8F8",
"&  c #FBFEFE",
"*  c #BBEEEE",
"=  c #61D8D8",
"-  c #38CDCD",
";  c #30CBCB",
":  c #36CDCD",
">  c #59D5D5",
",  c #AFEBEB",
"<  c #F7FDFD",
"1  c #A9E9E9",
"2  c #41D0D0",
"3  c #33CCCC",
"4  c #5BD6D6",
"5  c #8BE2E2",
"6  c #9EE7E7",
"7  c #90E3E3",
"8  c #63D8D8",
"9  c #3CCECE",
"0  c #9CE6E6",
"q  c #F9FDFD",
"w  c #C4F0F0",
"e  c #45D0D0",
"r  c #39CDCD",
"t  c #8EE3E3",
"y  c #E6F9F9",
"u  c #FDFFFF",
"i  c #ECFAFA",
"p  c #9DE7E7",
"a  c #3ECFCF",
"s  c #B7EDED",
"d  c #F4FCFC",
"f  c #72DCDC",
"g  c #31CBCB",
"h  c #86E1E1",
"j  c #F5FDFD",
"k  c #FAFEFE",
"l  c #95E5E5",
"z  c #65D8D8",
"x  c #EDFAFA",
"c  c #D6F5F5",
"v  c #46D1D1",
"b  c #49D2D2",
"n  c #D7F5F5",
"m  c #E5F9F9",
"M  c #55D5D5",
"N  c #3DCECE",
"B  c #CAF2F2",
"V  c #BEEFEF",
"C  c #37CDCD",
"Z  c #68D9D9",
"A  c #F3FCFC",
"S  c #56D5D5",
"D  c #83E0E0",
"F  c #F8FDFD",
"G  c #B8EDED",
"H  c #35CCCC",
"J  c #70DBDB",
"K  c #F6FDFD",
"L  c #F5FCFC",
"P  c #7ADEDE",
"I  c #31CCCC",
"U  c #DDF6F6",
"Y  c #C6F1F1",
"T  c #3BCECE",
"R  c #EBFAFA",
"E  c #84E0E0",
"W  c #6DDBDB",
"Q  c #42D0D0",
"!  c #5FD7D7",
"~  c #D5F5F5",
"^  c #E5F8F8",
"/  c #3ACECE",
"(  c #F2FCFC",
")  c #6CDADA",
"_  c #EAFAFA",
"`  c #D8F5F5",
"'  c #57D5D5",
"]  c #A8EAEA",
"[  c #D9F5F5",
"{  c #64D9D9",
"}  c #E8F9F9",
"|  c #A6E9E9",
" . c #6DDADA",
".. c #D0F3F3",
"X. c #5ED7D7",
"o. c #D1F4F4",
"O. c #D4F4F4",
"+. c #43D0D0",
"@. c #51D4D4",
"#. c #C7F1F1",
"$. c #D9F6F6",
"%. c #DEF7F7",
"&. c #4AD2D2",
"*. c #4CD2D2",
"=. c #E0F7F7",
"-. c #BCEEEE",
";. c #4FD3D3",
":. c #32CCCC",
">. c #E1F7F7",
",. c #E7F9F9",
"<. c #9DE6E6",
"1. c #CEF3F3",
"2. c #CDF3F3",
"3. c #3FCFCF",
"4. c #FCFEFE",
"5. c #B2ECEC",
"6. c #48D1D1",
"7. c #34CCCC",
"8. c #7CDEDE",
"9. c #EEFBFB",
"0. c #95E4E4",
"q. c #F9FEFE",
"w. c #A8E9E9",
"e. c #87E1E1",
"r. c #99E6E6",
"t. c #BFEFEF",
"y. c #47D1D1",
"u. c #3DCFCF",
"i. c #39CECE",
"p. c #79DEDE",
"a. c #88E1E1",
"s. c #F0FBFB",
"d. c #E2F8F8",
"f. c #A4E8E8",
"g. c #4BD2D2",
"h. c #85E0E0",
"j. c #F1FCFC",
"k. c #91E3E3",
"l. c #60D7D7",
"z. c #65D9D9",
"x. c #50D3D3",
"c. c #35CDCD",
"v. c #7FDFDF",
"b. c #E9F9F9",
"n. c #42CFCF",
"m. c #A7E9E9",
"M. c #C0EFEF",
"N. c #75DDDD",
"B. c #49D1D1",
"V. c #AAEAEA",
"C. c #F1FBFB",
"Z. c #7BDEDE",
"A. c #B1EBEB",
"S. c #B3ECEC",
"D. c #DAF6F6",
"F. c #C5F0F0",
"G. c #C2F0F0",
"H. c #D2F4F4",
"J. c #71DBDB",
"K. c #4DD3D3",
"L. c #BEEEEE",
"P. c #55D4D4",
"I. c #67D9D9",
"U. c #5DD7D7",
"Y. c #CFF3F3",
"T. c #30CCCC",
"R. c #C9F1F1",
"E. c #4ED3D3",
"W. c #B5EDED",
"Q. c #7ADDDD",
"!. c #85E1E1",
"~. c #ABEAEA",
"^. c #9FE7E7",
"/. c #91E4E4",
"(. c #3CCFCF",
"). c #9BE6E6",
"_. c #6BDADA",
"`. c #64D8D8",
"'. c #7EDFDF",
"]. c #78DDDD",
"[. c #74DCDC",
"{. c #59D6D6",
"}. c #EFFBFB",
"|. c #B0EBEB",
" X c #AEEBEB",
".X c #53D4D4",
"XX c #A2E8E8",
"oX c #69D9D9",
"OX c #D3F4F4",
"+X c #66D9D9",
"@X c #54D4D4",
"#X c #40CFCF",
"$X c #BDEFEF",
"%X c #DFF7F7",
"&X c #2FCBCB",
"*X c #B4ECEC",
"=X c #8FE3E3",
"-X c #6FDBDB",
";X c #E3F8F8",
":X c #7DDEDE",
">X c #DCF6F6",
",X c #C3F0F0",
"<X c #76DDDD",
"1X c #5AD6D6",
"2X c #81E0E0",
"3X c #C1EFEF",
"4X c #6EDBDB",
"5X c #82E0E0",
"6X c #C5F1F1",
"7X c #D5F4F4",
"8X c #51D3D3",
"9X c #44D0D0",
/* pixels */
"                                                                                                                                ",
"                                                                                                                                ",
"                                                                                                                                ",
"                                                                                                                                ",
"                                                                                                                                ",
"                                                                                                                                ",
"                                                                                                                                ",
"                                                                                        . X                                     ",
"                                                                                  o O + @ # $ %                                 ",
"                                                                              & * = - ; ; ; : > , <                             ",
"                                                                            & 1 2 3 4 5 6 7 8 : 9 0 q                           ",
"                                                                            w e r t y u   X i p a a s                           ",
"                                                                          d f g h j           k l 3 z x                         ",
"                                                                          c v b n               m M N B                         ",
"                                                                          V C Z A             o s S 3 D c F                     ",
"                                                                          G H J K           L P : I ; 3 v D U                   ",
"                                                                          Y T 4 R           < 7 z E @ W Q ; ! ~                 ",
"                                                                          ^ S / s             < ( & . d Y = ; ) R               ",
"                                                                          u t ; = _                       ` ' H ]               ",
"                                                                          [ { ; = }                         | 3  .d             ",
"                                                                        ..X.I ! o.                          O.+.@.m             ",
"                                                                      #.S g Z $.                            %.&.*.=.            ",
"                                                                  u -.;.:.f >.        ,.<.1.                2.3.' _             ",
"                                                                4.5.6.7.8.,.          V - Z 9.            . 0.g P F             ",
"                                                              q.w.Q : e.x             % 4 : r.<           t.y.9 *               ",
"                                                            K 0 u.i.# (               A p.; 9 a.O.s.A d.f.g.:.h.L               ",
"                                                          j.k.i.u.0 K               j.k.T T a g v l.z.x.c.C v.b.                ",
"                                                        i h : n.m.q.              i h : +.m.M.N.B./ r Q 8 V.C.                  ",
"                                                      y Z.7.y.A.&               y Z.3 B.S.4.  L D.F.G.H.9.                      ",
"                                                    =.J.:.K.* u               =.J :.;.L.u                                       ",
"                                                  $.Z ; P.F.                ` I.; S #.                                          ",
"                                                H.l.; U.Y.                Y.X.T.! ..                                            ",
"                                              R.' g I.`                 Y M g Z [                                               ",
"                                          X t.x.:.J.=.              u -.E.:.J.=.                                                ",
"                                        4.W.b 3 Q.y               & A.y.3 Z.y                                                   ",
"                                      k V.+.c.h.i               q.m.n.: !.i                                                     ",
"                    & %.* w.~.w o   < ^.a - 7 C.              K 0 u.r 7 j.                                                      ",
"                  m k.E.C I :.T X.w././ (.).L               j.k.i.u.0 L                                                         ",
"                %._.:.9 `.'.].' c.: 7.2 | q               x h : n.m.q                                                           ",
"              9.[.I {.O }.k q y 6 v &.|.&               ,.8.7.y.A.&                                                             ",
"               XC .Xo.          & 2.Y.4.              >.f :.E.-.u                                                               ",
"            K J.3 XX                                D.oXg P.Y                                                                   ",
"            ,..XQ OX                              o.l.; U.Y.                                                                    ",
"            =.g.&.%.                            #.S ; +X`                                                                       ",
"            ,.@X#XY.                        . $X;.:.J %X                                                                        ",
"            K [.I ).X     K s.X             ^ ' &Xf y                                                                           ",
"              *Xr *.R.  F =X-X;X            }.W ; e.&                                                                           ",
"              ( :XI .X*Xw e b >X              ,X3.x.>.                                                                          ",
"                % <X7.i.b :.J j               }.l./ w                                                                           ",
"                  i ^.1XT ; 2X&               K J.H G                                                                           ",
"                    X _ l :.f K               j.`.r 3X                                                                          ",
"                        1.#X*.`               2.+.g.>X                                                                          ",
"                        ( 4Xg 5X(           i N.; v.F                                                                           ",
"                          6Xy.C h.>XF & K 7X].7.8XOX                                                                            ",
"                          4.A.y.g E.N.E J.&.; ;.V X                                                                             ",
"                            4.Y J 2 7.g 7.9X]...X                                                                               ",
"                                ( ..5.| 5.H.L                                                                                   ",
"                                                                                                                                ",
"                                                                                                                                ",
"                                                                                                                                ",
"                                                                                                                                ",
"                                                                                                                                ",
"                                                                                                                                ",
"                                                                                                                                "
};
