/* XPM */
static char *collectable__36_1710156751[] = {
/* columns rows colors chars-per-pixel */
"64 64 227 2 ",
"   c white",
".  c #FBFEFE",
"X  c #FCFEFE",
"o  c #EDFAFA",
"O  c #BEEFEF",
"+  c #96E5E5",
"@  c #81DFDF",
"#  c #86E1E1",
"$  c #A6E9E9",
"%  c #D7F5F5",
"&  c #C2F0F0",
"*  c #67D9D9",
"=  c #3ACECE",
"-  c #30CBCB",
";  c #31CCCC",
":  c #32CCCC",
">  c #4AD2D2",
",  c #93E4E4",
"<  c #EAFAFA",
"1  c #FEFFFF",
"2  c #B9EEEE",
"3  c #48D1D1",
"4  c #57D5D5",
"5  c #8BE2E2",
"6  c #A7E9E9",
"7  c #A1E8E8",
"8  c #74DCDC",
"9  c #3FCFCF",
"0  c #33CCCC",
"q  c #78DDDD",
"w  c #DAF6F6",
"e  c #53D4D4",
"r  c #34CCCC",
"t  c #83E0E0",
"y  c #E2F8F8",
"u  c #FDFEFE",
"i  c #F5FDFD",
"p  c #BAEEEE",
"a  c #52D4D4",
"s  c #91E4E4",
"d  c #EBFAFA",
"f  c #ECFAFA",
"g  c #F4FCFC",
"h  c #E7F9F9",
"j  c #AFEBEB",
"k  c #E0F7F7",
"l  c #90E3E3",
"z  c #31CBCB",
"x  c #70DBDB",
"c  c #EDFBFB",
"v  c #ACEAEA",
"b  c #38CDCD",
"n  c #3ECFCF",
"m  c #5AD6D6",
"M  c #59D5D5",
"N  c #6CDADA",
"B  c #9AE6E6",
"V  c #DBF6F6",
"C  c #ABEAEA",
"Z  c #94E4E4",
"A  c #3BCECE",
"S  c #BFEFEF",
"D  c #D0F3F3",
"F  c #66D9D9",
"G  c #3DCFCF",
"H  c #B0EBEB",
"J  c #FAFEFE",
"K  c #C9F2F2",
"L  c #65D8D8",
"P  c #B4ECEC",
"I  c #44D0D0",
"U  c #51D3D3",
"Y  c #E4F8F8",
"T  c #84E0E0",
"R  c #5CD6D6",
"E  c #A0E7E7",
"W  c #C5F0F0",
"Q  c #CBF2F2",
"!  c #AEEBEB",
"~  c #36CDCD",
"^  c #FDFFFF",
"/  c #F0FBFB",
"(  c #D3F4F4",
")  c #42D0D0",
"_  c #55D4D4",
"`  c #E9FAFA",
"'  c #CAF2F2",
"]  c #9FE7E7",
"[  c #EEFBFB",
"{  c #37CDCD",
"}  c #4FD3D3",
"|  c #D4F4F4",
" . c #F2FCFC",
".. c #F6FDFD",
"X. c #75DDDD",
"o. c #64D8D8",
"O. c #46D1D1",
"+. c #D8F5F5",
"@. c #50D3D3",
"#. c #F5FCFC",
"$. c #87E1E1",
"%. c #35CCCC",
"&. c #45D1D1",
"*. c #D9F5F5",
"=. c #E3F8F8",
"-. c #6DDADA",
";. c #2DCBCB",
":. c #69D9D9",
">. c #F3FCFC",
",. c #B7EDED",
"<. c #62D8D8",
"1. c #A5E8E8",
"2. c #F8FDFD",
"3. c #D6F5F5",
"4. c #6FDBDB",
"5. c #98E5E5",
"6. c #5DD6D6",
"7. c #CCF2F2",
"8. c #4CD2D2",
"9. c #8CE2E2",
"0. c #E9F9F9",
"q. c #60D7D7",
"w. c #35CDCD",
"e. c #A8E9E9",
"r. c #DDF6F6",
"t. c #5BD6D6",
"y. c #99E5E5",
"u. c #B3ECEC",
"i. c #A9EAEA",
"p. c #5ED7D7",
"a. c #E8F9F9",
"s. c #2FCBCB",
"d. c #39CDCD",
"f. c #B5EDED",
"g. c #AAEAEA",
"h. c #4ED3D3",
"j. c #3CCECE",
"k. c #63D8D8",
"l. c #7ADEDE",
"z. c #E1F8F8",
"x. c #60D8D8",
"c. c #8FE3E3",
"v. c #EFFBFB",
"b. c #F1FCFC",
"n. c #F9FDFD",
"m. c #E6F9F9",
"M. c #A4E8E8",
"N. c #8DE2E2",
"B. c #77DDDD",
"V. c #D5F4F4",
"C. c #C4F0F0",
"Z. c #8AE2E2",
"A. c #79DEDE",
"S. c #B1ECEC",
"D. c #49D1D1",
"F. c #41CFCF",
"G. c #C6F1F1",
"H. c #9EE7E7",
"J. c #88E1E1",
"K. c #7BDEDE",
"L. c #56D5D5",
"P. c #D1F3F3",
"I. c #47D1D1",
"U. c #C8F1F1",
"Y. c #9CE6E6",
"T. c #69DADA",
"R. c #F9FEFE",
"E. c #7EDFDF",
"W. c #F7FDFD",
"Q. c #DFF7F7",
"!. c #54D4D4",
"~. c #39CECE",
"^. c #B6EDED",
"/. c #CFF3F3",
"(. c #43D0D0",
"). c #6BDADA",
"_. c #80DFDF",
"`. c #DEF7F7",
"'. c #CDF3F3",
"]. c #44D1D1",
"[. c #CDF2F2",
"{. c #97E5E5",
"}. c #6EDBDB",
"|. c #F1FBFB",
" X c #81E0E0",
".X c #82E0E0",
"XX c #DCF6F6",
"oX c #BBEEEE",
"OX c #95E4E4",
"+X c #85E1E1",
"@X c #BDEFEF",
"#X c #92E4E4",
"$X c #72DCDC",
"%X c #7CDEDE",
"&X c #4DD3D3",
"*X c #3DCECE",
"=X c #C0EFEF",
"-X c #C7F1F1",
";X c #A2E8E8",
":X c #C1EFEF",
">X c #89E2E2",
",X c #4BD2D2",
"<X c #76DDDD",
"1X c #8EE3E3",
"2X c #58D5D5",
"3X c #E5F8F8",
"4X c #75DCDC",
"5X c #73DCDC",
"6X c #2ECBCB",
"7X c #79DDDD",
"8X c #41D0D0",
"9X c #D1F4F4",
"0X c #48D2D2",
"qX c #C9F1F1",
"wX c #7FDFDF",
"eX c #91E3E3",
"rX c #BCEEEE",
"tX c #C3F0F0",
"yX c #B2ECEC",
"uX c #45D0D0",
"iX c #A1E7E7",
"pX c #ADEBEB",
"aX c #B1EBEB",
"sX c #5DD7D7",
"dX c #D5F5F5",
"fX c #C5F1F1",
"gX c #51D4D4",
/* pixels */
"                                                                                                                                ",
"                                                                                                                                ",
"                                                                                                                                ",
"                                                                                                                                ",
"                                                                                                                                ",
"                                                                                                                                ",
"                                                                                                                                ",
"                                                                          . X                                                   ",
"                                                                    o O + @ # $ % .                                             ",
"                                                                X & * = - ; ; : > , <                                           ",
"                                                              1 2 3 : 4 5 6 7 8 9 0 q <                                         ",
"                                                              w e r t y u     i p a r s d f g 1                                 ",
"                                                h j k       X l z x c             v b n m M N B V 1                             ",
"                                                C r Z 1     < m A S             D F 0 0 A G r z a H J                           ",
"                                                K L P       % I U Y           . T - R E W Q ! N ~ 9 v ^                         ",
"                                                X / J       ( ) _ `             ' ] k         [ , { } %                         ",
"                                                            y } I |                              .8 z Z ^                       ",
"                                                            ..X.z + ^                             p { o./                       ",
"                                                              2 A O.p X                           +.O.@.Y                       ",
"                                                              #.$.%.&.6 .                         *.O.} =.                      ",
"                                                                < -.;.:.>.                        ,.{ o./                       ",
"                                                                d <.r 1.      2.3.d             [ 4.z 5.1                       ",
"                                                                C ~ 6.h       7.8.x w         d 9.%.e V                         ",
"                                                              0.q.w.e.        r.t.: _ y.& W $ F r ) u.1                         ",
"                                                              i.w.p.a.          D a s.z d.= : 0 4 f..                           ",
"                                                            h p.w.g.            *.h.j.4.* k.l.e.z.                              ",
"                                                            $ r x.`           X c.z 8 v.>.b.n.                                  ",
"                                                          m.R ~ v             3.8.n &                                           ",
"                                                          M.r <.d           . N.- B.i                                           ",
"                                                        Y M { j             V.> 9 C.                                            ",
"                                                        7 0 L f           . Z.- A.i                                             ",
"                                                      =.4 b S.            ( D.F.G.                                              ",
"                                                    1 H.0 * c           J J.- K...                                              ",
"                                                    z.L.d.P             P.I.) U.                                                ",
"                                                  1 Y.: T.[           R.# - E.W.                                                ",
"                                                  Q.!.~.^.            /.O.(.Q                                                   ",
"                                                1 B : )./           n.t - _.2.                                                  ",
"                                                `.e = 2             '.].I [.                                                    ",
"                                              ^ {.: }.|.          2. X- .Xn.                                                    ",
"                                              XXU A oX            Q (.&./.                                                      ",
"                                            u OX; x  .          W.E.- +XR.                                                      ",
"                                            w } j.@X            K ) I.P.                                                        ",
"                                          X #Xz $X>.          W.%X- $.J                                                         ",
"                                          +.&X*X=X            -XF.D.(                                                           ",
"                                        u c.- 8 g           ..A.- Z..                                                           ",
"                              J w u.Y.H.;X> n :X            C.9 > V.                                                            ",
"                            k >X,X%.- z 0 s.<Xg           i B.- N..                                                             ",
"                          +.k.; (.x 1XZ.o.2XU.            & n 8.%                                                               ",
"                        c x z L U.i 1 u [ 3XX           g 4Xz c.X         J / X                                                 ",
"                        H { L.*.                        S *X} *.          P L '                                                 ",
"                      ..5X: ;X                        ..<X6X7XW.        1 , r C                                                 ",
"                      h e 8X9X                        .._.0 I H ^         Q.j h                                                 ",
"                      z.&X0XXX                          < 5 ~ &X|                                                               ",
"                      d m *XqX                            |.B.- 5 X                                                             ",
"                      R.wX- eXu       Y rX[                 tXj.m <                                                             ",
"                        O j.I.S       OXA yX                3XU uX%                                                             ",
"                        #.T : ,XiXQ./ .X- ]                 0._ ) (                                                             ",
"                          a.E.{ r h.L > - _.J               D ) @.y                                                             ",
"                            b.pXL 8Xb = 0 8.(             . c.z l.W.                                                            ",
"                                v.P.=XS -.z }.Q.        J aX) 9 :X                                                              ",
"                                        P.e ; sXC dXXXfXJ.F.~ s 2.                                                              ",
"                                          K <.0 r I 3 A - ) , /                                                                 ",
"                                            m.M.).gX@.q.$.U.R.                                                                  ",
"                                                b.z.k f J                                                                       "
};
