/* XPM */
static char *collectable__46_1710156750[] = {
/* columns rows colors chars-per-pixel */
"64 64 213 2 ",
"   c white",
".  c #F7FDFD",
"X  c #F3FCFC",
"o  c #FEFFFF",
"O  c #FDFEFE",
"+  c #D8F5F5",
"@  c #9CE6E6",
"#  c #74DCDC",
"$  c #67D9D9",
"%  c #72DCDC",
"&  c #96E5E5",
"*  c #CDF3F3",
"=  c #F9FEFE",
"-  c #F5FCFC",
";  c #A3E8E8",
":  c #4DD3D3",
">  c #31CBCB",
",  c #33CCCC",
"<  c #38CDCD",
"1  c #35CCCC",
"2  c #44D0D0",
"3  c #8DE3E3",
"4  c #EAFAFA",
"5  c #F8FDFD",
"6  c #39CECE",
"7  c #73DCDC",
"8  c #AEEBEB",
"9  c #C1F0F0",
"0  c #B4ECEC",
"q  c #84E0E0",
"w  c #44D1D1",
"e  c #7DDEDE",
"r  c #EFFBFB",
"t  c #BAEEEE",
"y  c #3ECFCF",
"u  c #40CFCF",
"i  c #A6E9E9",
"p  c #FAFEFE",
"a  c #C0EFEF",
"s  c #50D3D3",
"d  c #35CDCD",
"f  c #A0E7E7",
"g  c #FDFFFF",
"h  c #6EDBDB",
"j  c #32CCCC",
"k  c #94E4E4",
"l  c #FBFEFE",
"z  c #B2ECEC",
"x  c #3ACECE",
"c  c #54D4D4",
"v  c #E2F8F8",
"b  c #47D1D1",
"n  c #4AD2D2",
"m  c #DAF6F6",
"M  c #F1FBFB",
"N  c #66D9D9",
"B  c #36CDCD",
"V  c #B9EDED",
"C  c #C3F0F0",
"Z  c #64D8D8",
"A  c #F2FCFC",
"S  c #E1F8F8",
"D  c #78DDDD",
"F  c #9FE7E7",
"G  c #D1F4F4",
"H  c #A1E7E7",
"J  c #C1EFEF",
"K  c #8CE2E2",
"L  c #4ED3D3",
"P  c #3CCECE",
"I  c #31CCCC",
"U  c #5DD6D6",
"Y  c #B5ECEC",
"T  c #2ECBCB",
"R  c #D4F4F4",
"E  c #4FD3D3",
"W  c #E0F7F7",
"Q  c #F1FCFC",
"!  c #4CD2D2",
"~  c #41D0D0",
"^  c #39CDCD",
"/  c #7CDEDE",
"(  c #E4F8F8",
")  c #D2F4F4",
"_  c #75DDDD",
"`  c #A5E9E9",
"'  c #FCFEFE",
"]  c #EDFAFA",
"[  c #5FD7D7",
"{  c #34CCCC",
"}  c #E7F9F9",
"|  c #DFF7F7",
" . c #CCF2F2",
".. c #95E5E5",
"X. c #49D1D1",
"o. c #79DDDD",
"O. c #F6FDFD",
"+. c #9DE7E7",
"@. c #42D0D0",
"#. c #C2F0F0",
"$. c #4DD2D2",
"%. c #A9EAEA",
"&. c #D6F5F5",
"*. c #3BCECE",
"=. c #86E1E1",
"-. c #A8E9E9",
";. c #62D8D8",
":. c #B1EBEB",
">. c #52D4D4",
",. c #30CBCB",
"<. c #51D4D4",
"1. c #B0EBEB",
"2. c #53D4D4",
"3. c #41CFCF",
"4. c #D0F3F3",
"5. c #E3F8F8",
"6. c #D5F4F4",
"7. c #F4FCFC",
"8. c #69D9D9",
"9. c #BFEFEF",
"0. c #60D7D7",
"q. c #46D1D1",
"w. c #9DE6E6",
"e. c #DBF6F6",
"r. c #77DDDD",
"t. c #AFEBEB",
"y. c #63D8D8",
"u. c #EDFBFB",
"i. c #9AE6E6",
"p. c #C6F1F1",
"a. c #EBFAFA",
"s. c #D5F5F5",
"d. c #49D2D2",
"f. c #70DBDB",
"g. c #3DCFCF",
"h. c #8AE2E2",
"j. c #E5F9F9",
"k. c #58D5D5",
"l. c #37CDCD",
"z. c #75DCDC",
"x. c #F5FDFD",
"c. c #ACEAEA",
"v. c #55D4D4",
"b. c #BCEEEE",
"n. c #2FCBCB",
"m. c #ECFAFA",
"M. c #98E5E5",
"N. c #DEF7F7",
"B. c #83E0E0",
"V. c #71DCDC",
"C. c #A2E8E8",
"Z. c #B6EDED",
"A. c #5CD6D6",
"S. c #51D3D3",
"D. c #57D5D5",
"F. c #CFF3F3",
"G. c #5DD7D7",
"H. c #48D1D1",
"J. c #F0FBFB",
"K. c #CEF3F3",
"L. c #6BDADA",
"P. c #3FCFCF",
"I. c #90E3E3",
"U. c #D9F6F6",
"Y. c #4BD2D2",
"T. c #F9FDFD",
"R. c #61D8D8",
"E. c #C9F1F1",
"W. c #A7E9E9",
"Q. c #D7F5F5",
"!. c #A4E8E8",
"~. c #ADEAEA",
"^. c #6CDADA",
"/. c #8FE3E3",
"(. c #DCF6F6",
"). c #59D5D5",
"_. c #B8EDED",
"`. c #7FDFDF",
"'. c #DDF6F6",
"]. c #76DDDD",
"[. c #82E0E0",
"{. c #D9F5F5",
"}. c #95E4E4",
"|. c #6DDADA",
" X c #A1E8E8",
".X c #BEEFEF",
"XX c #3DCECE",
"oX c #9EE7E7",
"OX c #B3ECEC",
"+X c #71DBDB",
"@X c #99E6E6",
"#X c #61D7D7",
"$X c #45D0D0",
"%X c #43D0D0",
"&X c #9BE6E6",
"*X c #89E1E1",
"=X c #55D5D5",
"-X c #B7EDED",
";X c #C4F0F0",
":X c #E5F8F8",
">X c #EEFBFB",
",X c #87E1E1",
"<X c #85E1E1",
"1X c #AAEAEA",
"2X c #C7F1F1",
"3X c #7BDEDE",
"4X c #E6F9F9",
"5X c #7EDFDF",
"6X c #6ADADA",
"7X c #E1F7F7",
"8X c #ADEBEB",
"9X c #97E5E5",
"0X c #CDF2F2",
/* pixels */
"                                                                                                                                ",
"                                                                                                                                ",
"                                                                                                                                ",
"                                                                                                                                ",
"                                                                                                                                ",
"                                                                                                                                ",
"                                                                                                                                ",
"                                                                                          . X . o                               ",
"                                                                                    O + @ # $ % & * =                           ",
"                                                                                  - ; : > , < 1 > 2 3 4                         ",
"                                                                                5 & < 6 7 8 9 0 q w , e r                       ",
"                                                                                t y u i X       p a s d f g                     ",
"                                                                              X h j k l             z x c v                     ",
"                                                                              + b n m               M N B V                     ",
"                                                                              C 6 Z A             . S D > F                     ",
"                          G H v                                               J < $ X           - K L P I U Y A                 ",
"                        O 3 T q p                                             R 2 E W           Q % 2 ! ~ j ^ / (               ",
"                          ) _ ` '                                             ] [ { ;             } + |  ...X.> o.r             ",
"                            O.l                                             r +.@.> 3 '                   g #.$.B %.            ",
"                                                                          &.# d *.=.(                         -.B ;.]           ",
"                                                                      O.:.>.,.<.1.O.                          ( 2.3.4.          ",
"                                                                    5.=.P d # 6.        o O.'                 7.8.< 9.          ",
"                                                                l #.0.I q.w.r           e.r.t.o               Q y.x C           ",
"                                                              u.i.2 j y.p.'             #.< U a.              s.b d.e.          ",
"                                                          o ) f.{ g.h.j.                } k.l.i o           5 h.> z.x.          ",
"                                                        - c.E ,.v.Y 5                 p b.L n.b t.7.      m.M.*.@.C             ",
"                  ' u.j.N.( '                         W B.x B r.+                   4 k ~ 1 ! l.P V.; z +.N B y C.p             ",
"                  Z.A.S.d.D.F.                    l 9.G.I H.H J.                o K.L., P.I.U.i.Y.j I { > { k.z T.              ",
"                o H @.2 n R.6.                  4 ..@.j $ E.O                 X W.Y.,.k.V =   l Q.!.B.D =.~.5.                  ",
"                  A R Q.| a.g               o K.^., P./.}                   (./ < < e (.            l 5 '                       ",
"                                          X W.! > ).V =                 = _.k.,.! W.X                                           ",
"                      l 5 l             (.e < < `.'.                  } /.P.{ ^.K.o                                             ",
"                  v c.q ].[.W.{.'   = _.k.,.! -.X                 O E.$ j @.}.4                                                 ",
"              5 :.k.{ > { I j ! @ m /.P.{ |.F.o                 J. XH.> U .Xp                                                   ",
"            p H XXd N oXOX; +XP l.$.{ @...a.                  + r.B x [.W                         g m.| Q.s.A                   ",
"            #.@.P @Xm.      7.t.b ,.U 9.p                 . OXc ,.E c.-                           R #Xn $X%XC.o                 ",
"          - 7 > K 5           O 9.&X|                   ( *XXX{ f.) o                             F.=Xd.S.A.-X                  ",
"          m X.H.Q.                                  ' ;X;.I 2 i.u.                                l 5.N.:Xu.'                   ",
"          C x Z Q                                 >X@ $XI 0.#.l                                                                 ",
"          9.l.8.7.                              R % 1 P ,X5.                                                                    ",
"          4.u >.5.                          O.8 s ,.>.:..                                                                       ",
"          ] ;.d -.    r F.A               :X<X*.B _ &.                                                                          ",
"            1Xl.E 2Xp }.%XOX            ' 3 I %Xf J.                                                                            ",
"            J.3XI : h.n P.;X              ; , 0.u.                                                                              ",
"              4X5Xx I ,.6XA               | L 2 R                                                                               ",
"                A -XU n.=.'               X $ < J                                               l O.                            ",
"                    +.,.B.l               A Z 6 C                                             ' ` _ )                           ",
"                    -XB #Xu.              m n b {.                                            = B.T 3 O                         ",
"                    7X>.^ t.            l k j f.X                                               v H G                           ",
"                    g +.{ E 9.p       X i u y b.                                                                                ",
"                      >X/ , 2 q 0 9 8X7 x 6 9X5                                                                                 ",
"                        4 K %X> 1 < , > L !.x.                                                                                  ",
"                          5 0X9X# 8.].w.+ g                                                                                     ",
"                              o . 7.5                                                                                           ",
"                                                                                                                                ",
"                                                                                                                                ",
"                                                                                                                                ",
"                                                                                                                                ",
"                                                                                                                                ",
"                                                                                                                                ",
"                                                                                                                                ",
"                                                                                                                                ",
"                                                                                                                                ",
"                                                                                                                                "
};
