/* XPM */
static char *collectable__33_1710156751[] = {
/* columns rows colors chars-per-pixel */
"64 64 218 2 ",
"   c white",
".  c #FDFFFF",
"X  c #F9FEFE",
"o  c #D4F4F4",
"O  c #A6E9E9",
"+  c #8CE2E2",
"@  c #8BE2E2",
"#  c #A1E7E7",
"$  c #CBF2F2",
"%  c #F5FDFD",
"&  c #E5F9F9",
"*  c #47D1D1",
"=  c #32CCCC",
"-  c #30CBCB",
";  c #31CBCB",
":  c #41CFCF",
">  c #7DDFDF",
",  c #DBF6F6",
"<  c #E3F8F8",
"1  c #6EDBDB",
"2  c #42D0D0",
"3  c #75DCDC",
"4  c #99E5E5",
"5  c #9BE6E6",
"6  c #7CDEDE",
"7  c #49D1D1",
"8  c #5ED7D7",
"9  c #82E0E0",
"0  c #58D5D5",
"q  c #C2F0F0",
"w  c #F7FDFD",
"e  c #F9FDFD",
"r  c #CFF3F3",
"t  c #68D9D9",
"y  c #30CCCC",
"u  c #6BDADA",
"i  c #EBFAFA",
"p  c #C5F0F0",
"a  c #3FCFCF",
"s  c #C6F1F1",
"d  c #59D6D6",
"f  c #35CDCD",
"g  c #ACEAEA",
"h  c #FDFEFE",
"j  c #8FE3E3",
"k  c #86E1E1",
"l  c #FBFEFE",
"z  c #9EE7E7",
"x  c #E8F9F9",
"c  c #FCFEFE",
"v  c #F6FDFD",
"b  c #71DBDB",
"n  c #34CCCC",
"m  c #B3ECEC",
"M  c #F1FBFB",
"N  c #A8E9E9",
"B  c #60D7D7",
"V  c #33CCCC",
"C  c #39CECE",
"Z  c #5DD6D6",
"A  c #CEF3F3",
"S  c #F5FCFC",
"D  c #6CDADA",
"F  c #36CDCD",
"G  c #BCEEEE",
"H  c #C3F0F0",
"J  c #3CCECE",
"K  c #43D0D0",
"L  c #45D1D1",
"P  c #39CDCD",
"I  c #A0E7E7",
"U  c #31CCCC",
"Y  c #A3E8E8",
"T  c #E7F9F9",
"R  c #9AE6E6",
"E  c #ADEAEA",
"W  c #D2F4F4",
"Q  c #D6F5F5",
"!  c #BEEFEF",
"~  c #3ACECE",
"^  c #9FE7E7",
"/  c #A7E9E9",
"(  c #EDFAFA",
")  c #FEFFFF",
"_  c #45D0D0",
"`  c #CAF2F2",
"'  c #E0F7F7",
"]  c #57D5D5",
"[  c #84E0E0",
"{  c #FAFEFE",
"}  c #F3FCFC",
"|  c #74DCDC",
" . c #2DCBCB",
".. c #61D7D7",
"X. c #EFFBFB",
"o. c #5AD6D6",
"O. c #9DE6E6",
"+. c #3BCECE",
"@. c #B1EBEB",
"#. c #DFF7F7",
"$. c #4BD2D2",
"%. c #4AD2D2",
"&. c #3DCFCF",
"*. c #DDF6F6",
"=. c #4CD2D2",
"-. c #42CFCF",
";. c #9CE6E6",
":. c #F1FCFC",
">. c #B5EDED",
",. c #BBEEEE",
"<. c #38CDCD",
"1. c #92E4E4",
"2. c #48D1D1",
"3. c #EDFBFB",
"4. c #6FDBDB",
"5. c #4DD3D3",
"6. c #88E1E1",
"7. c #F2FCFC",
"8. c #81DFDF",
"9. c #5FD7D7",
"0. c #CDF2F2",
"q. c #87E1E1",
"w. c #53D4D4",
"e. c #DAF6F6",
"r. c #54D4D4",
"t. c #2FCBCB",
"y. c #B0EBEB",
"u. c #B8EDED",
"i. c #BAEEEE",
"p. c #5CD6D6",
"a. c #D0F3F3",
"s. c #50D3D3",
"d. c #35CCCC",
"f. c #C0EFEF",
"g. c #DEF7F7",
"h. c #65D8D8",
"j. c #E2F8F8",
"k. c #D8F5F5",
"l. c #70DBDB",
"z. c #8DE3E3",
"x. c #72DCDC",
"c. c #E4F8F8",
"v. c #6DDBDB",
"b. c #62D8D8",
"n. c #DCF6F6",
"m. c #67D9D9",
"M. c #EAFAFA",
"N. c #77DDDD",
"B. c #D9F5F5",
"V. c #CCF2F2",
"C. c #79DDDD",
"Z. c #D1F3F3",
"A. c #F0FBFB",
"S. c #83E0E0",
"D. c #C8F1F1",
"F. c #94E4E4",
"G. c #37CDCD",
"H. c #46D1D1",
"J. c #B9EEEE",
"K. c #F4FCFC",
"L. c #BFEFEF",
"P. c #40CFCF",
"I. c #AFEBEB",
"U. c #F8FDFD",
"Y. c #98E5E5",
"T. c #44D0D0",
"R. c #B6EDED",
"E. c #A9E9E9",
"W. c #3ECFCF",
"Q. c #A5E8E8",
"!. c #A2E8E8",
"~. c #B2ECEC",
"^. c #91E3E3",
"/. c #C5F1F1",
"(. c #4ED3D3",
"). c #8EE3E3",
"_. c #E9FAFA",
"`. c #55D4D4",
"'. c #7DDEDE",
"]. c #C9F1F1",
"[. c #65D9D9",
"{. c #56D5D5",
"}. c #5DD7D7",
"|. c #D1F4F4",
" X c #7ADDDD",
".X c #A5E9E9",
"XX c #D9F6F6",
"oX c #E6F9F9",
"OX c #D5F5F5",
"+X c #AAEAEA",
"@X c #63D8D8",
"#X c #A1E8E8",
"$X c #85E1E1",
"%X c #7FDFDF",
"&X c #7ADEDE",
"*X c #C4F0F0",
"=X c #4FD3D3",
"-X c #B5ECEC",
";X c #EEFBFB",
":X c #61D8D8",
">X c #78DDDD",
",X c #90E3E3",
"<X c #71DCDC",
"1X c #AEEBEB",
"2X c #D5F4F4",
"3X c #51D3D3",
"4X c #89E1E1",
"5X c #E9F9F9",
"6X c #97E5E5",
"7X c #ABEAEA",
"8X c #5BD6D6",
"9X c #D6F4F4",
"0X c #BDEEEE",
"qX c #41D0D0",
"wX c #52D4D4",
"eX c #ECFAFA",
"rX c #73DCDC",
"tX c #C1EFEF",
/* pixels */
"                                                                                                                                ",
"                                                                                                                                ",
"                                                                                                                                ",
"                                                                                                                                ",
"                                                                                                                                ",
"                                                                                                                                ",
"                                                                                                                                ",
"                                                                                                                                ",
"                                                                                                                                ",
"                                                                                    . .                                         ",
"                                                                              X o O + @ # $ %                                   ",
"                                                                            & @ * = - - ; : > ,                                 ",
"                                                                          < 1 = 2 3 4 5 6 7 - 8 o                               ",
"                                                                        % 9 ; 0 q w     e r t y u i                             ",
"                                                                        p a * s             , d f g                             ",
"                                                                      h j - k l               z = 1 x c                         ",
"                                                                      v b n m             M N B V C Z @ A c                     ",
"                                                                      S D F G             H J n K L P - * I v                   ",
"                                                                      X 6 U Y             T R E W Q ! 6 ~ C ^ l                 ",
"                                                                        / V t (             )         % # J _ `                 ",
"                                                                        ' ] F 4 l                       w 9 - [ {               ",
"                                                                        } |  ...X.                        s J o.i               ",
"                                                                      X O.+.2 @.h                         #.$.%.#.              ",
"                                                                    l / &.&.O l       )                   *.7 =.'               ",
"                                                                  h @.-.C ;.X       :.^ >.c               ,.<.B X.              ",
"                                                                  ,.* F 1.v         , * 2.$             3.4.- 1.h               ",
"                                                                p 5.n 6.7.          v 8.= 9.0.l       x q.n w.e.                ",
"                                                              A r.= > 3.              @.C t.%.q.y.u.5 B V 2.i.                  ",
"                                                            Q p.; | x               a.0 n s.a - V d.- d.B f.h                   ",
"                                                          g.h.- u j.              k.8 - l.e.H z.x.4.9 y.x                       ",
"                                                        c.v.- b.n.              #.m.y m.#.    h w v l                           ",
"                                                      M.N.; o.o               & l.- 9.B.                                        ",
"                                                    X.8.V w.V.              i C.U ] Z.                                          ",
"                                                  } @ n =.H               A.S.V s.D.                                            ",
"                                                v F.G.H.J.)             K.z.f %.L.                                              ",
"                                              { z ~ P.I.h             U.Y.<.T.R.)                                               ",
"                                            c E.W.J Q.l             { !.+.a E c                                                 ",
"                                          . ~.2 <.5 U.            c g a +.Y l                                                   ",
"                                          G 2.F ^.S             ) R.T.<.4 U.                                                    ",
"                                        /.(.n q.7.              f.%.f ).S                                                       ",
"                        . :.x _.K.    A `.= '.(               ].s.V [ A.                                                        ",
"                    c W ^.[.r.{.v.Q.H }.; | x               |.] =  Xi                                                           ",
"                  w .X%.; <.K P.V d.P.= u j.              XX9.- l.oX                                                            ",
"                c Y +.+.> ! OXa.+X9.n @Xn.              ' t - m.#.                                                              ",
"                V.* +.#Xv         < I.n.              oXb - 8 k.                                                                ",
"              { $X- %Xv                             i &X= {.a.                                                                  ",
"              i o.J *X                            A.[ V =XD.                                                                    ",
"              g.%.$.#.                          K.).f 7 !                                                                       ",
"              ' =.2.n.                        l 5 <.L -X)                                                                       ",
"              ;X9.<.,.                        X.:X .>Xw                                                                         ",
"              c ,X- <X;X    k.!.<             . 1XJ =.2X                                                                        ",
"                k.3Xd.4X5Xl 9 n 1X              S 3 ; 5                                                                         ",
"                ) R._ V @X6Xs.J p                 7XV N.U.                                                                      ",
"                  c ,.8Xn ; = L 9X                0XG.u S                                                                       ",
"                      < +X&XqX&.s                 I.V 3 w                                                                       ",
"                          K.C.- 1..             w &X- 6X)                                                                       ",
"                            u.~ %.s           ) ~.W.* Z.                                                                        ",
"                            7.6 ; wX~.eXX U.x Q.* d.6Xl                                                                         ",
"                              < rXn C 8 &XN.d F G.q.X.                                                                          ",
"                                i 5 `.P = V +.p.N 7.                                                                            ",
"                                  h < tXE I.p x                                                                                 ",
"                                                                                                                                ",
"                                                                                                                                ",
"                                                                                                                                "
};
