/* XPM */
static char *collectable__19_1710156750[] = {
/* columns rows colors chars-per-pixel */
"64 64 152 2 ",
"   c white",
".  c #FEFFFF",
"X  c #F5FDFD",
"o  c #CDF2F2",
"O  c #A5E8E8",
"+  c #93E4E4",
"@  c #97E5E5",
"#  c #B3ECEC",
"$  c #DEF7F7",
"%  c #FDFEFE",
"&  c #D7F5F5",
"*  c #7ADEDE",
"=  c #41CFCF",
"-  c #32CBCB",
";  c #30CBCB",
":  c #35CCCC",
">  c #51D3D3",
",  c #9EE7E7",
"<  c #F0FBFB",
"1  c #CFF3F3",
"2  c #59D6D6",
"3  c #49D1D1",
"4  c #79DDDD",
"5  c #94E4E4",
"6  c #8DE3E3",
"7  c #67D9D9",
"8  c #3ACECE",
"9  c #35CDCD",
"0  c #83E0E0",
"q  c #EFFBFB",
"w  c #E6F9F9",
"e  c #63D8D8",
"r  c #31CCCC",
"t  c #6DDADA",
"y  c #D1F4F4",
"u  c #F8FDFD",
"i  c #FDFFFF",
"p  c #AFEBEB",
"a  c #4AD2D2",
"s  c #98E5E5",
"d  c #FBFEFE",
"f  c #9FE7E7",
"g  c #33CCCC",
"h  c #60D7D7",
"j  c #E0F7F7",
"k  c #3DCFCF",
"l  c #D6F5F5",
"z  c #F1FBFB",
"x  c #66D9D9",
"c  c #36CDCD",
"v  c #B0EBEB",
"b  c #F7FDFD",
"n  c #74DCDC",
"m  c #32CCCC",
"M  c #A2E8E8",
"N  c #E1F7F7",
"B  c #4DD2D2",
"V  c #48D1D1",
"C  c #DBF6F6",
"Z  c #EDFBFB",
"A  c #B4ECEC",
"S  c #61D8D8",
"D  c #31CBCB",
"F  c #58D5D5",
"G  c #DCF6F6",
"H  c #4DD3D3",
"J  c #E2F8F8",
"K  c #9BE6E6",
"L  c #EEFBFB",
"P  c #52D4D4",
"I  c #41D0D0",
"U  c #BCEEEE",
"Y  c #71DBDB",
"T  c #95E4E4",
"R  c #ACEAEA",
"E  c #70DBDB",
"W  c #3CCECE",
"Q  c #34CCCC",
"!  c #82E0E0",
"~  c #76DDDD",
"^  c #95E5E5",
"/  c #FCFEFE",
"(  c #F6FDFD",
")  c #F3FCFC",
"_  c #BAEEEE",
"`  c #3BCECE",
"'  c #CBF2F2",
"]  c #AEEBEB",
"[  c #AAEAEA",
"{  c #C3F0F0",
"}  c #50D3D3",
"|  c #E9FAFA",
" . c #99E6E6",
".. c #4FD3D3",
"X. c #E9F9F9",
"o. c #CCF2F2",
"O. c #A7E9E9",
"+. c #F9FEFE",
"@. c #7DDFDF",
"#. c #A3E8E8",
"$. c #D2F4F4",
"%. c #42D0D0",
"&. c #CEF3F3",
"*. c #4BD2D2",
"=. c #BFEFEF",
"-. c #DFF7F7",
";. c #6CDADA",
":. c #7BDEDE",
">. c #DDF6F6",
",. c #2FCBCB",
"<. c #DAF6F6",
"1. c #5ED7D7",
"2. c #D8F5F5",
"3. c #7CDEDE",
"4. c #40CFCF",
"5. c #47D1D1",
"6. c #64D8D8",
"7. c #BBEEEE",
"8. c #B9EDED",
"9. c #A1E8E8",
"0. c #C2F0F0",
"q. c #4ED3D3",
"w. c #E5F9F9",
"e. c #F1FCFC",
"r. c #E8F9F9",
"t. c #EAFAFA",
"y. c #7ADDDD",
"u. c #C1F0F0",
"i. c #65D8D8",
"p. c #4CD2D2",
"a. c #75DCDC",
"s. c #62D8D8",
"d. c #5AD6D6",
"f. c #B1ECEC",
"g. c #D0F3F3",
"h. c #CAF2F2",
"j. c #B9EEEE",
"k. c #A0E7E7",
"l. c #B5EDED",
"z. c #72DCDC",
"x. c #E1F8F8",
"c. c #F4FCFC",
"v. c #D5F5F5",
"b. c #4AD1D1",
"n. c #B0ECEC",
"m. c #5FD7D7",
"M. c #96E5E5",
"N. c #49D2D2",
"B. c #6BDADA",
"V. c #64D9D9",
"C. c #78DDDD",
"Z. c #9AE6E6",
/* pixels */
"                                                                                                                                ",
"                                                                                                                                ",
"                                                                                                                                ",
"                                                                                                                                ",
"                                                                                                                                ",
"                                                                                                                                ",
"                                                                                      .                                         ",
"                                                                                X o O + @ # $ %                                 ",
"                                                                              & * = - ; ; : > , <                               ",
"                                                                            1 2 ; 3 4 5 6 7 8 9 0 q                             ",
"                                                                          w e r t y u   i < p a 9 s d                           ",
"                                                                        . f g h j             # k a l                           ",
"                                                                        z x c v               b n m M                           ",
"                                                                        N B V C             Z A S D F M l d                     ",
"                                                                        G V H J           . K : r : m m a @ L                   ",
"                                                                        w P I 1             U Y T R , E W Q ! <                 ",
"                                                                        b ~ r ^ /           i ( .     ) v 3 c f %               ",
"                                                                          _ ` V '                       . ] 8 P j               ",
"                                                                          U I Q [                         < 7 : A               ",
"                                                                        { } g * |                         i 6 ;  .              ",
"                                                                      { ..m * X.                            + ; T               ",
"                                                                    { ..m * |       . o.O.L               u 4 m O.              ",
"                                                                  { ..m * |         +.@.: #..             $.3 %.&.              ",
"                                                                { ..m * |             v 8 *.=.i         -.;.; :.X               ",
"                                                              { ..m * |               >.P ,.V ^ 1 N <.] 1.D 2 2.                ",
"                                                            { ..m :.|               | 3.9 4.` r 4.B 5.9 g 6.1                   ",
"                                                          { ..m :.|               | :.m ..7.8.~ P 5.B 7 9.w                     ",
"                                                        0...m :.|               | :.m q.0.    b w.C N e.                        ",
"                                                      { ..m :.|               | :.m q.0.                                        ",
"                                                    { ..m :.|               | :.m q.0.                                          ",
"                                                  { ..m * |               | :.m q.0.                                            ",
"                                                { } m * |               | :.m q.0.                                              ",
"                                              { } m * |               | :.g q.0.                                                ",
"                                            { ..m 4 r.              t.3.m q.0.                                                  ",
"                                          { } m y.r.              | 3.g q.u.                                                    ",
"                                        { } m y.r.              | :.m q.0.                                                      ",
"                      . < j C w (     { ..m * r.              | :.m q.0.                                                        ",
"                    w., i.p.5.P a.8.U } m * X.              | :.m ..0.                                                          ",
"                  &.s.g c 5.q.I r ` 4.g * X.              | * m ..0.                                                            ",
"                2.d.r h f.<.J g.@ V Q * X.              X.* m ..0.                                                              ",
"              X 3.; ;.j         / h.[ t.              r.* m ..0.                                                                ",
"              &.%.V g.                              r.y.m ..{                                                                   ",
"              O.m 4 u                             r.y.m ..{                                                                     ",
"              T ; 5                             r.y.m ..{                                                                       ",
"               .; 6 i                         | * g } {                                                                         ",
"              A : 7 <       .                 [ Q I U                                                                           ",
"              j P 8 ]     L K U %             h.V ` j.                                                                          ",
"              i k.c a A b l.9 z.b             / ^ D ~ b                                                                         ",
"                < 0 Q k n e m ^ .               g.I P w                                                                         ",
"                  L @ a r D : R                 J H V G                                                                         ",
"                    d l 9.F m f                 <.5.H x.                                                                        ",
"                          9.r E c.              p 9 7 e.                                                                        ",
"                          v.b.W n..           -.m.g k.                                                                          ",
"                          d M.Q N.] q .   u g.B.r V.w                                                                           ",
"                            L ! c 8 x 6 5 C.V ; 2 1                                                                             ",
"                              < f P : ; ; m %.3.2.                                                                              ",
"                                i j A Z.T O.1 (                                                                                 ",
"                                                                                                                                ",
"                                                                                                                                ",
"                                                                                                                                ",
"                                                                                                                                ",
"                                                                                                                                ",
"                                                                                                                                ",
"                                                                                                                                "
};
