/* XPM */
static char *collectable__44_1710156750[] = {
/* columns rows colors chars-per-pixel */
"64 64 220 2 ",
"   c white",
".  c #F8FDFD",
"X  c #EAFAFA",
"o  c #FBFEFE",
"O  c #F9FDFD",
"+  c #F6FDFD",
"@  c #F9FEFE",
"#  c #ABEAEA",
"$  c #5AD6D6",
"%  c #C7F1F1",
"&  c #D5F5F5",
"*  c #9DE6E6",
"=  c #79DEDE",
"-  c #6FDBDB",
";  c #7DDEDE",
":  c #A2E8E8",
">  c #D8F5F5",
",  c #FCFEFE",
"<  c #FEFFFF",
"1  c #A3E8E8",
"2  c #4ED3D3",
"3  c #C1EFEF",
"4  c #EEFBFB",
"5  c #98E5E5",
"6  c #4AD2D2",
"7  c #31CCCC",
"8  c #32CCCC",
"9  c #36CDCD",
"0  c #4DD2D2",
"q  c #A1E7E7",
"w  c #F3FCFC",
"e  c #DFF7F7",
"r  c #F1FCFC",
"t  c #84E0E0",
"y  c #34CCCC",
"u  c #3DCECE",
"i  c #77DDDD",
"p  c #ACEAEA",
"a  c #BAEEEE",
"s  c #A6E9E9",
"d  c #70DBDB",
"f  c #3ACECE",
"g  c #38CDCD",
"h  c #94E4E4",
"j  c #37CDCD",
"k  c #48D1D1",
"l  c #B1ECEC",
"z  c #A7E9E9",
"x  c #41D0D0",
"c  c #3DCFCF",
"v  c #B9EEEE",
"b  c #E8F9F9",
"n  c #5BD6D6",
"m  c #96E5E5",
"M  c #6BDADA",
"N  c #F1FBFB",
"B  c #D1F4F4",
"V  c #E2F8F8",
"C  c #C4F0F0",
"Z  c #3BCECE",
"A  c #E9FAFA",
"S  c #4FD3D3",
"D  c #42D0D0",
"F  c #D1F3F3",
"G  c #FDFEFE",
"H  c #8DE3E3",
"J  c #68D9D9",
"K  c #D6F5F5",
"L  c #7CDEDE",
"P  c #FAFEFE",
"I  c #FDFFFF",
"U  c #EDFAFA",
"Y  c #6ADADA",
"T  c #BBEEEE",
"R  c #D3F4F4",
"E  c #60D7D7",
"W  c #30CBCB",
"Q  c #31CBCB",
"!  c #80DFDF",
"~  c #EFFBFB",
"^  c #6EDBDB",
"/  c #45D1D1",
"(  c #99E6E6",
")  c #F5FDFD",
"_  c #DCF6F6",
"`  c #A1E8E8",
"'  c #BDEFEF",
"]  c #64D8D8",
"[  c #4BD2D2",
"{  c #E7F9F9",
"}  c #B8EDED",
"|  c #E5F8F8",
" . c #C2F0F0",
".. c #B7EDED",
"X. c #B3ECEC",
"o. c #87E1E1",
"O. c #49D1D1",
"+. c #63D8D8",
"@. c #DDF6F6",
"#. c #F0FBFB",
"$. c #A8E9E9",
"%. c #53D4D4",
"&. c #4DD3D3",
"*. c #CCF2F2",
"=. c #CDF2F2",
"-. c #5FD7D7",
";. c #7EDFDF",
":. c #CBF2F2",
">. c #71DBDB",
",. c #73DCDC",
"<. c #CEF3F3",
"1. c #40CFCF",
"2. c #C8F1F1",
"3. c #E6F9F9",
"4. c #47D1D1",
"5. c #AAEAEA",
"6. c #86E1E1",
"7. c #F7FDFD",
"8. c #61D8D8",
"9. c #3ECFCF",
"0. c #DBF6F6",
"q. c #AFEBEB",
"w. c #33CCCC",
"e. c #78DDDD",
"r. c #92E4E4",
"t. c #81E0E0",
"y. c #B2ECEC",
"u. c #75DDDD",
"i. c #46D1D1",
"p. c #95E4E4",
"a. c #C1F0F0",
"s. c #8CE2E2",
"d. c #E4F8F8",
"f. c #CFF3F3",
"g. c #74DCDC",
"h. c #E0F7F7",
"j. c #57D5D5",
"k. c #D0F3F3",
"l. c #66D9D9",
"z. c #52D4D4",
"x. c #E9F9F9",
"c. c #9AE6E6",
"v. c #49D2D2",
"b. c #51D3D3",
"n. c #62D8D8",
"m. c #3CCECE",
"M. c #7BDEDE",
"N. c #67D9D9",
"B. c #ECFAFA",
"V. c #44D0D0",
"C. c #61D7D7",
"Z. c #D4F4F4",
"A. c #BFEFEF",
"S. c #65D9D9",
"D. c #81DFDF",
"F. c #91E4E4",
"G. c #D7F5F5",
"H. c #D9F5F5",
"J. c #EBFAFA",
"K. c #DDF7F7",
"L. c #88E1E1",
"P. c #5ED7D7",
"I. c #89E2E2",
"U. c #39CDCD",
"Y. c #5DD7D7",
"T. c #F2FCFC",
"R. c #AEEBEB",
"E. c #56D5D5",
"W. c #93E4E4",
"Q. c #8DE2E2",
"!. c #50D3D3",
"~. c #A0E7E7",
"^. c #E3F8F8",
"/. c #76DDDD",
"(. c #C9F1F1",
"). c #9EE7E7",
"_. c #9CE6E6",
"`. c #CAF2F2",
"'. c #3FCFCF",
"]. c #75DCDC",
"[. c #D2F4F4",
"{. c #7FDFDF",
"}. c #E5F9F9",
"|. c #9BE6E6",
" X c #4CD2D2",
".X c #54D4D4",
"XX c #83E0E0",
"oX c #D9F6F6",
"OX c #8AE2E2",
"+X c #BCEEEE",
"@X c #F5FCFC",
"#X c #2ECBCB",
"$X c #DAF6F6",
"%X c #E1F8F8",
"&X c #C6F1F1",
"*X c #55D5D5",
"=X c #CDF3F3",
"-X c #99E5E5",
";X c #51D4D4",
":X c #B5EDED",
">X c #DEF7F7",
",X c #B9EDED",
"<X c #B0EBEB",
"1X c #35CDCD",
"2X c #85E0E0",
"3X c #C9F2F2",
"4X c #43D0D0",
"5X c #ADEAEA",
"6X c #B5ECEC",
"7X c #69DADA",
"8X c #C8F2F2",
"9X c #95E5E5",
"0X c #5CD6D6",
"qX c #68DADA",
"wX c #85E1E1",
"eX c #B4ECEC",
"rX c #30CCCC",
"tX c #5AD5D5",
"yX c #F4FCFC",
"uX c #A4E8E8",
/* pixels */
"                                                                                                                                ",
"                                                                                                                                ",
"                                                                                                                                ",
"                                                                                                                                ",
"                                                                                                                                ",
"                                                                                                                                ",
"                                                                                                                                ",
"                                                                                                                                ",
"                                                                                                                                ",
"                                                . X o                                       O + @                               ",
"                                                # $ %                                 o & * = - ; : > ,                         ",
"                                              < 1 2 3                               4 5 6 7 8 9 8 8 0 q w                       ",
"                                                w e O                             r t y u i p a s d f g h .                     ",
"                                                                                < s j k l +       w z x c v                     ",
"                                                                                b n 9 z <           o m 8 M N                   ",
"                          B q V                                                 C Z $ A               e S D F                   ",
"                        G H 7 J K                                               # 8 L P             I U Y 9 T                   ",
"                          R E W $ B                                             z Q ! o           ~ 5 ^ / y ( )                 ",
"                            _ ^ j `                                             ' g ] 4           > [ y 9 7 c = _               ",
"                              { } |                                              .x c C           . C ..X.o.O.W +.@.            ",
"                                                                            #.$.%.8 &.*.                  o =.-.W ;.)           ",
"                                                                        , :.>.j j ,.<.,                       *.O.1.2.          ",
"                                                                      3.m 4.W %.5.#.                          o 6.W h <         ",
"                                                                  7.T 8.8 9.t 0.          . 7.                  q.w.e..         ",
"                                                                0.t 9.8 8.T 7.          7.r.t.U                 y.w.u..         ",
"                                                            N 5.%.W i.p.3.              ~ -.g a.              < r.W s.G         ",
"                  < #.3.e d.,                           , f.g.j 9 d :.,                 G o.W ;.+             h.j.g a           ",
"                  k.l.z.6 j.f.                        x.c.v.W b.z ~                   o % n.W m.` +         { M.Q N.B.          ",
"                  a.6 V.6 C.Z.                    . A.S.w.m.D.> <                   d.F.V.w.6 f Z ;.A.0.G.y.S.8 &.2.            ",
"                  . H.G.h.J.I                   K.L.1.8 -.} +                   + ..P.8 1.I.G.` k W U.4./ 9 w.Y.C <             ",
"                                            T.R.E.Q / W.|                   < > ! m.w.S.A.O   , f.Q.C.2 !.J ~.^.                ",
"                      I G               G k./.U.9 - (.o                   4 s b.W O.c.b           , ~ ^.d.T.                    ",
"                o > 5.s.I.).2.w       X _.6 W !.s 4                   o `.- 9 j g.<.,                                           ",
"              X h [ w.W W Q '.].[.7.3 l.y m.{.G.<                   }.h i.W %.5.N                                               ",
"            3.g.w.'.,.|.~.!  XW .X= D 8 Y...+                   7.a E 8 9.XX0.                    I B.h.G.oX.                   ",
"          . OX8 .X+X@X    P & d Q #XV.F.^.                    $XXXc 8 E a 7.                      Z.C.[ V.6 a.                  ",
"          f.V.V. .            %Xu.d &Xo                   N 5.%.W i.h 3.                          f.*X6 z.S.f.                  ",
"          |.W ;.@               w w                   , =X,.j 9 - `.o                             o ^.e 3.#.<                   ",
"        @ M.8 5.                                    b -Xk W ;Xz ~                                                               ",
"        7.,.y :X                                . A.] w.u D.H.<                                                                 ",
"        o t W |.                              >XL.1.8 -.,X+                                                                     ",
"          <X1X-.{   , K.X                 T.R.E.Q / W.|                                                                         ",
"          { P.w.s.w (.b.2XO             ^.= f 9 ^ 3Xo                                                                           ",
"            T 4Xj i ] Q H o             a j Z * 4                                                                               ",
"            o q. X7 7 6 K               h.%.9.`.                                            | } {                               ",
"              G [.g.Q N.T.              . e.8 5X                                            ~.j ^ _                             ",
"                  6Xy - +               o t.Q z                                             F $ W E R                           ",
"                  C f $ X               w 7X9 }                                               K J 7 H G                         ",
"                  ^..Xf ..              8XD [ 0.                                                V q f.                          ",
"                  , 9X8 0XG.          e qXW wX@                                                                                 ",
"                    }.J W $ R.e U %XeXE rX0X0.                                                                                  ",
"                      H.M y 9 0 tX2 g w.S.k.                              O h.yX                                                ",
"                        A 1 ] i.'./ E ).3.                                a.2 uX<                                               ",
"                            ~ > <.G.4 <                                   % $ #                                                 ",
"                                                                          o X .                                                 ",
"                                                                                                                                ",
"                                                                                                                                ",
"                                                                                                                                ",
"                                                                                                                                ",
"                                                                                                                                ",
"                                                                                                                                ",
"                                                                                                                                ",
"                                                                                                                                ",
"                                                                                                                                "
};
