/* XPM */
static char *collectable__18_1710156750[] = {
/* columns rows colors chars-per-pixel */
"64 64 150 2 ",
"   c white",
".  c #F5FDFD",
"X  c #CDF2F2",
"o  c #A6E9E9",
"O  c #93E4E4",
"+  c #97E5E5",
"@  c #B3ECEC",
"#  c #DEF7F7",
"$  c #FDFEFE",
"%  c #D7F5F5",
"&  c #7ADEDE",
"*  c #41CFCF",
"=  c #32CCCC",
"-  c #30CBCB",
";  c #35CCCC",
":  c #50D3D3",
">  c #9EE7E7",
",  c #F0FBFB",
"<  c #CFF3F3",
"1  c #59D6D6",
"2  c #49D1D1",
"3  c #79DDDD",
"4  c #94E4E4",
"5  c #8DE3E3",
"6  c #67D9D9",
"7  c #3ACECE",
"8  c #35CDCD",
"9  c #83E0E0",
"0  c #EFFBFB",
"q  c #E6F9F9",
"w  c #63D8D8",
"e  c #31CCCC",
"r  c #6DDADA",
"t  c #D2F4F4",
"y  c #F8FDFD",
"u  c #FDFFFF",
"i  c #AFEBEB",
"p  c #4AD2D2",
"a  c #98E5E5",
"s  c #FBFEFE",
"d  c #FEFFFF",
"f  c #9FE7E7",
"g  c #33CCCC",
"h  c #60D7D7",
"j  c #E0F7F7",
"k  c #3DCFCF",
"l  c #D6F5F5",
"z  c #F1FBFB",
"x  c #66D9D9",
"c  c #36CDCD",
"v  c #B0EBEB",
"b  c #F7FDFD",
"n  c #74DCDC",
"m  c #A2E8E8",
"M  c #E1F7F7",
"N  c #4DD2D2",
"B  c #48D1D1",
"V  c #DBF6F6",
"C  c #EDFBFB",
"Z  c #B4ECEC",
"A  c #61D8D8",
"S  c #31CBCB",
"D  c #58D5D5",
"F  c #DCF6F6",
"G  c #4DD3D3",
"H  c #E2F8F8",
"J  c #9BE6E6",
"K  c #EEFBFB",
"L  c #53D4D4",
"P  c #41D0D0",
"I  c #BCEEEE",
"U  c #71DBDB",
"Y  c #ACEAEA",
"T  c #6FDBDB",
"R  c #3CCECE",
"E  c #34CCCC",
"W  c #82E0E0",
"Q  c #76DDDD",
"!  c #95E5E5",
"~  c #FCFEFE",
"^  c #F6FDFD",
"/  c #F3FCFC",
"(  c #BAEEEE",
")  c #3BCECE",
"_  c #CBF2F2",
"`  c #AEEBEB",
"'  c #51D3D3",
"]  c #DFF7F7",
"[  c #AAEAEA",
"{  c #C3F0F0",
"}  c #E9FAFA",
"|  c #99E6E6",
" . c #4FD3D3",
".. c #E9F9F9",
"X. c #95E4E4",
"o. c #CCF2F2",
"O. c #A7E9E9",
"+. c #F9FEFE",
"@. c #7DDFDF",
"#. c #A3E8E8",
"$. c #D1F4F4",
"%. c #42D0D0",
"&. c #CEF3F3",
"*. c #7BDEDE",
"=. c #4BD2D2",
"-. c #BFEFEF",
";. c #6CDADA",
":. c #DDF6F6",
">. c #52D4D4",
",. c #2FCBCB",
"<. c #DAF6F6",
"1. c #5ED7D7",
"2. c #D8F5F5",
"3. c #7CDEDE",
"4. c #40CFCF",
"5. c #4CD2D2",
"6. c #47D1D1",
"7. c #64D8D8",
"8. c #BBEEEE",
"9. c #B9EDED",
"0. c #A1E8E8",
"q. c #C2F0F0",
"w. c #4ED3D3",
"e. c #E5F9F9",
"r. c #F1FCFC",
"t. c #7ADDDD",
"y. c #E8F9F9",
"u. c #EAFAFA",
"i. c #65D8D8",
"p. c #75DCDC",
"a. c #62D8D8",
"s. c #5AD6D6",
"d. c #B1ECEC",
"f. c #D0F3F3",
"g. c #CAF2F2",
"h. c #A0E7E7",
"j. c #B5EDED",
"k. c #72DCDC",
"l. c #E1F8F8",
"z. c #70DBDB",
"x. c #F2FCFC",
"c. c #D5F5F5",
"v. c #5FD7D7",
"b. c #96E5E5",
"n. c #49D2D2",
"m. c #ADEBEB",
"M. c #6BDADA",
"N. c #64D9D9",
"B. c #39CECE",
"V. c #78DDDD",
/* pixels */
"                                                                                                                                ",
"                                                                                                                                ",
"                                                                                                                                ",
"                                                                                                                                ",
"                                                                                                                                ",
"                                                                                                                                ",
"                                                                                                                                ",
"                                                                                . X o O + @ # $                                 ",
"                                                                              % & * = - - ; : > ,                               ",
"                                                                            < 1 - 2 3 4 5 6 7 8 9 0                             ",
"                                                                          q w e r t y   u , i p ; a s                           ",
"                                                                        d f g h j             @ k p l                           ",
"                                                                        z x c v               b n = m                           ",
"                                                                        M N B V             C Z A S D m l s                     ",
"                                                                        F B G H           d J ; e ; = = p + K                   ",
"                                                                        q L P <             I U 4 Y > T R E W ,                 ",
"                                                                        b Q S ! ~           $ ^ d     / v 2 c f $               ",
"                                                                          ( ) B _                       d ` 7 ' ]               ",
"                                                                          I P E [                         , 6 ; Z               ",
"                                                                        { : g & }                         u 5 - |               ",
"                                                                      {  .= & ..                            O - X.              ",
"                                                                    {  .= & ..      d o.O.K               y 3 = O.              ",
"                                                                  {  .= & ..        +.@.; #.d             $.2 %.&.              ",
"                                                                {  .= *...            v 7 =.-.u         ] ;.- *..               ",
"                                                              {  .= *.}               :.>.,.B ! &.M <.` 1.S 1 2.                ",
"                                                            {  .= *.}               } 3.8 4.) e 4.5.6.8 g 7.<                   ",
"                                                          {  .= *.}               } *.=  .8.9.Q >.6.N 6 0.q                     ",
"                                                        q. .= *.}               } *.= w.q.    b e.V M r.                        ",
"                                                      {  .= *.}               } *.= w.q.                                        ",
"                                                    {  .= *.}               } *.= w.q.                                          ",
"                                                  {  .= & }               } *.= w.q.                                            ",
"                                                { : = & }               } *.= w.q.                                              ",
"                                              { : = t...              } *.= w.q.                                                ",
"                                            { : = 3 y.              u.*.= w.q.                                                  ",
"                                          { : = 3 y.              u.3.g w.q.                                                    ",
"                                        { : = t.y.              } *.= w.q.                                                      ",
"                      d , j V q ^     {  .= t.y.              } *.= w.q.                                                        ",
"                    e.> i.5.6.>.p.9.I : = t...              } *.=  .q.                                                          ",
"                  &.a.g c 6.G P e ) 4.g & ..              } *.=  .q.                                                            ",
"                2.s.e h d.<.H f.+ B E & ..              ..& =  .q.                                                              ",
"              . 3.- ;.j         ~ g.[ u.              ..t.=  .q.                                                                ",
"              &.%.B f.                              ..t.=  .{                                                                   ",
"              O.= 3 y                             y.t.=  .{                                                                     ",
"              X.- 4                             y.3 =  .{                                                                       ",
"              | - 5 u                         } & g : {                                                                         ",
"              Z ; 6 ,       d                 [ E P I                                                                           ",
"              j >.7 `     K J I $             g.B ) 9.                                                                          ",
"              u h.c p Z b j.8 k.b             ~ ! S Q b                                                                         ",
"                , 9 E k n w = ! d               f.P L q                                                                         ",
"                  K + p = S ; Y                 H G B F                                                                         ",
"                    s l 0.D = f                 <.6.G l.                                                                        ",
"                          m e z./               i 8 6 x.                                                                        ",
"                          c.2 R v d           ] v.g h.                                                                          ",
"                          s b.E n.m.0 d   y f.M.e N.q                                                                           ",
"                            K W c B.x 5 4 V.B - s.<                                                                             ",
"                              , f >.; - - = %.3.2.                                                                              ",
"                                $ j Z | ! O.< ^                                                                                 ",
"                                                                                                                                ",
"                                                                                                                                ",
"                                                                                                                                ",
"                                                                                                                                ",
"                                                                                                                                ",
"                                                                                                                                ",
"                                                                                                                                "
};
