/* XPM */
static char *collectable__32_1710156751[] = {
/* columns rows colors chars-per-pixel */
"64 64 220 2 ",
"   c white",
".  c #FEFFFF",
"X  c #EEFBFB",
"o  c #D9F5F5",
"O  c #D1F3F3",
"+  c #DAF6F6",
"@  c #EFFBFB",
"#  c #E6F9F9",
"$  c #9CE6E6",
"%  c #60D7D7",
"&  c #46D1D1",
"*  c #40CFCF",
"=  c #47D1D1",
"-  c #63D8D8",
";  c #A1E7E7",
":  c #E9FAFA",
">  c #D2F4F4",
",  c #65D9D9",
"<  c #32CCCC",
"1  c #37CDCD",
"2  c #4DD3D3",
"3  c #57D5D5",
"4  c #4BD2D2",
"5  c #36CDCD",
"6  c #33CCCC",
"7  c #6BDADA",
"8  c #DDF6F6",
"9  c #5ED7D7",
"0  c #31CCCC",
"q  c #B3ECEC",
"w  c #E0F7F7",
"e  c #EAFAFA",
"r  c #DEF7F7",
"t  c #AEEBEB",
"y  c #58D5D5",
"u  c #30CBCB",
"i  c #69DADA",
"p  c #F9FEFE",
"a  c #86E1E1",
"s  c #67D9D9",
"d  c #D5F4F4",
"f  c #5BD6D6",
"g  c #96E5E5",
"h  c #FCFEFE",
"j  c #4AD2D2",
"k  c #42D0D0",
"l  c #C9F2F2",
"z  c #B9EDED",
"x  c #3BCECE",
"c  c #54D4D4",
"v  c #E4F8F8",
"b  c #B8EDED",
"n  c #6ADADA",
"m  c #F3FCFC",
"M  c #E8F9F9",
"N  c #C6F1F1",
"B  c #A7E9E9",
"V  c #81DFDF",
"C  c #FBFEFE",
"Z  c #BAEEEE",
"A  c #7EDFDF",
"S  c #45D1D1",
"D  c #79DDDD",
"F  c #CBF2F2",
"G  c #F7FDFD",
"H  c #ACEAEA",
"J  c #77DDDD",
"K  c #F8FDFD",
"L  c #55D5D5",
"P  c #2FCBCB",
"I  c #35CDCD",
"U  c #31CBCB",
"Y  c #41D0D0",
"T  c #E5F8F8",
"R  c #C8F1F1",
"E  c #3ECFCF",
"W  c #E2F8F8",
"Q  c #B2ECEC",
"!  c #A2E8E8",
"~  c #7DDFDF",
"^  c #43D0D0",
"/  c #72DCDC",
"(  c #EDFBFB",
")  c #61D7D7",
"_  c #9BE6E6",
"`  c #FDFEFE",
"'  c #F9FDFD",
"]  c #C0EFEF",
"[  c #52D4D4",
"{  c #91E4E4",
"}  c #FDFFFF",
"|  c #C2F0F0",
" . c #50D3D3",
".. c #7FDFDF",
"X. c #3FCFCF",
"o. c #49D1D1",
"O. c #D6F5F5",
"+. c #ABEAEA",
"@. c #48D1D1",
"#. c #6FDBDB",
"$. c #DBF6F6",
"%. c #F5FCFC",
"&. c #71DBDB",
"*. c #A8E9E9",
"=. c #93E4E4",
"-. c #3CCECE",
";. c #38CDCD",
":. c #98E5E5",
">. c #8EE3E3",
",. c #7ADEDE",
"<. c #35CCCC",
"1. c #9EE7E7",
"2. c #F4FCFC",
"3. c #8CE2E2",
"4. c #D0F3F3",
"5. c #65D8D8",
"6. c #4FD3D3",
"7. c #B6EDED",
"8. c #F5FDFD",
"9. c #7CDEDE",
"0. c #5CD6D6",
"q. c #DCF6F6",
"w. c #BBEEEE",
"e. c #CCF2F2",
"r. c #76DDDD",
"t. c #41CFCF",
"y. c #F6FDFD",
"u. c #A4E8E8",
"i. c #44D0D0",
"p. c #34CCCC",
"a. c #DFF7F7",
"s. c #B0EBEB",
"d. c #FAFEFE",
"f. c #DCF7F7",
"g. c #EBFAFA",
"h. c #8BE2E2",
"j. c #39CECE",
"k. c #3ACECE",
"l. c #ECFAFA",
"z. c #74DCDC",
"x. c #C4F0F0",
"c. c #D3F4F4",
"v. c #5AD6D6",
"b. c #30CCCC",
"n. c #D8F5F5",
"m. c #DDF7F7",
"M. c #A6E9E9",
"N. c #69D9D9",
"B. c #CAF2F2",
"V. c #5FD7D7",
"C. c #BDEFEF",
"Z. c #B5ECEC",
"A. c #4ED3D3",
"S. c #D1F4F4",
"D. c #C5F1F1",
"F. c #83E0E0",
"G. c #5DD6D6",
"H. c #6EDBDB",
"J. c #4DD2D2",
"K. c #9DE7E7",
"L. c #7BDEDE",
"P. c #EDFAFA",
"I. c #E7F9F9",
"U. c #F2FCFC",
"Y. c #E3F8F8",
"T. c #85E0E0",
"R. c #3DCFCF",
"E. c #F0FBFB",
"W. c #6DDBDB",
"Q. c #4AD1D1",
"!. c #59D6D6",
"~. c #C1F0F0",
"^. c #ADEBEB",
"/. c #95E5E5",
"(. c #82E0E0",
"). c #88E1E1",
"_. c #92E4E4",
"`. c #9AE6E6",
"'. c #99E6E6",
"]. c #4CD2D2",
"[. c #66D9D9",
"{. c #70DBDB",
"}. c #A5E8E8",
"|. c #8AE2E2",
" X c #56D5D5",
".X c #BDEEEE",
"XX c #53D4D4",
"oX c #5DD7D7",
"OX c #62D8D8",
"+X c #45D0D0",
"@X c #B4ECEC",
"#X c #F1FCFC",
"$X c #8DE3E3",
"%X c #AFEBEB",
"&X c #6DDADA",
"*X c #75DCDC",
"=X c #91E3E3",
"-X c #95E4E4",
";X c #CDF2F2",
":X c #9DE6E6",
">X c #B7EDED",
",X c #9FE7E7",
"<X c #C5F0F0",
"1X c #3DCECE",
"2X c #D7F5F5",
"3X c #BFEFEF",
"4X c #2ECBCB",
"5X c #CDF3F3",
"6X c #64D8D8",
"7X c #F1FBFB",
"8X c #CFF3F3",
"9X c #CEF3F3",
"0X c #78DDDD",
"qX c #8DE2E2",
"wX c #84E0E0",
"eX c #C0F0F0",
"rX c #51D3D3",
"tX c #AAEAEA",
"yX c #6CDADA",
"uX c #68D9D9",
/* pixels */
"                                                                                                                                ",
"                                                                                                                                ",
"                                                                                                                                ",
"                                                                                                                                ",
"                                                                                                                                ",
"                                                                                                                                ",
"                                                                                                                                ",
"                                                                                                                                ",
"                                                                                                                                ",
"                                                                                                                                ",
"                                                                                                                                ",
"                                                                                    . X o O + @ .                               ",
"                                                                                  # $ % & * = - ; :                             ",
"                                                                                > , < 1 2 3 4 5 6 7 +                           ",
"                                                                              8 9 0 9 q w e r t y u i #                         ",
"                                                                            p a u s r           d f < g h                       ",
"                                                                            + j k l               z x c v                       ",
"                                                                            b 5 n m               M f x N                       ",
"                                                                            B 0 V C           p Z A S 6 D F G                   ",
"                                                                            H < J K           # L P 1 I U Y a T                 ",
"                                                                            R E c W           K Q ! b H ~ ^ 0 / M               ",
"                                                                            ( ) 6 _ `                   ' ] [ < { C             ",
"                                                                          } |  .P ..'                       Z X.o.O.            ",
"                                                                        K +.@.6 #.$.                        %.&.< *.            ",
"                                                                      @ =.-.;.a M                             :.u >.}           ",
"                                                                    W ,.<.Y 1.2.        e W }                 _ u 3.}           ",
"                                                                  4.5.U 6.7.C         8.9.0.q.              p ~ 0 !             ",
"                                                              h w.[ u ) e.            G r.U =.h             > j t.e.            ",
"                                                            y.u.i.p.r.a.                Q ;.^ s.d.        f.n u ,.2.            ",
"                                                          g.h.j.k.>.l.                r z.p.u t.a x.+ c.B v.b.v.n.              ",
"                                                        m.z.6 S M.y.                F % 0 c ,.k u x & k 6 <.N.>                 ",
"                                                    . B.V.u c C.h               C Z.A.U , S.G D.F.G.6.c H.*.e                   ",
"                                                  d.q J.0 s c.                m K.t.<.L.W       d.P.v I.%.                      ",
"                                                U._ * I ~ Y.                M T.1 -.=.@                                         ",
"                                              # V 5 R.g E.                n.W.< @.+.K                                           ",
"                                            O.7 < Q.t p               } x.!.u 3 | }                                             ",
"                                        } ~.3 u !.x..               ' ^.o.< 7 O.                                                ",
"                        h C .         K +.@.< W.n.                E./.R.5 (.#                                                   ",
"                  h n.B ).(.=.Z g.  @ _.-.;.T.M                 Y.9.I X.`.U.                                                    ",
"                X '.].< u U u ;., s.L.<.Y 1.m                 > [.U ].Q d.                                                      ",
"              X V p.-.{._ }.|. X6 ;.< 6.7.C               h .XXXu oXR .                                                         ",
"            h `.p.].q 2.    ` w F.-.OXe.                y.M.+X6 / q.                                                            ",
"            q.A.-.@X            #Xx.Y.                l.$Xk.j.|.e                                                               ",
"            %Xp.&Xm                                 r *Xp.^ ! 8.                                                                ",
"          . =Xu -X                                ;X) u [ Z h                                                                   ",
"          } |.u :X                            C >X .U 5.4.                                                                      ",
"            $ u (.C                         m ,Xk <.L.W                                                                         ",
"            <X1XA.n.    E.2XG             C :.;.-._.@                                                                           ",
"            #X/ u r.M } -Xj 3X            d.(.4X[.@                                                                             ",
"              4.[ < n M.A.1X<X              5XS @.2X                                                                            ",
"                D.v.0 I 0 9 (               %.W.<.Z.                                                                            ",
"                  r /.c u {.y.              C (.U B                                                                             ",
"                      @X5 6X7X              K *X6 s.                                                                            ",
"                      2X= i.8X              a. .* 9X                                                                            ",
"                      y.0Xu ,.E.          y.qX< 7 7X                                                                            ",
"                        e.j 5 wXm.p . d.w 3.j.^ eX                                                                              ",
"                        } @X@.U rX9.>...XX< ^ tXC                                                                               ",
"                          ` <XyXE < u U -.uX] C                                                                                 ",
"                              E.l B `.}.N X                                                                                     ",
"                                                                                                                                ",
"                                                                                                                                ",
"                                                                                                                                ",
"                                                                                                                                ",
"                                                                                                                                "
};
