/* XPM */
static char *collectable__47_1710156750[] = {
/* columns rows colors chars-per-pixel */
"64 64 210 2 ",
"   c white",
".  c #FBFEFE",
"X  c #E2F8F8",
"o  c #C6F1F1",
"O  c #BCEEEE",
"+  c #E1F8F8",
"@  c #FAFEFE",
"#  c #DFF7F7",
"$  c #8DE2E2",
"%  c #52D4D4",
"&  c #3BCECE",
"*  c #36CDCD",
"=  c #4FD3D3",
"-  c #85E1E1",
";  c #D6F5F5",
":  c #FEFFFF",
">  c #CFF3F3",
",  c #5FD7D7",
"<  c #31CBCB",
"1  c #3CCECE",
"2  c #5CD6D6",
"3  c #6CDADA",
"4  c #60D7D7",
"5  c #41D0D0",
"6  c #30CBCB",
"7  c #53D4D4",
"8  c #C0EFEF",
"9  c #DEF7F7",
"0  c #5DD7D7",
"q  c #31CCCC",
"w  c #67D9D9",
"e  c #ECFAFA",
"r  c #F5FDFD",
"t  c #EFFBFB",
"y  c #CAF2F2",
"u  c #74DCDC",
"i  c #33CCCC",
"p  c #51D3D3",
"a  c #D1F4F4",
"s  c #8CE2E2",
"d  c #69D9D9",
"f  c #EBFAFA",
"g  c #77DDDD",
"h  c #79DEDE",
"j  c #51D4D4",
"k  c #3ECFCF",
"l  c #C4F0F0",
"z  c #D4F4F4",
"x  c #49D1D1",
"c  c #43D0D0",
"v  c #5ED7D7",
"b  c #EEFBFB",
"n  c #AFEBEB",
"m  c #B9EEEE",
"M  c #35CDCD",
"N  c #6FDBDB",
"B  c #F6FDFD",
"V  c #B2ECEC",
"C  c #72DCDC",
"Z  c #45D1D1",
"A  c #65D9D9",
"S  c #B7EDED",
"D  c #C2F0F0",
"F  c #39CECE",
"G  c #63D8D8",
"H  c #F0FBFB",
"J  c #32CCCC",
"K  c #38CDCD",
"L  c #70DBDB",
"P  c #4DD2D2",
"I  c #CCF2F2",
"U  c #FCFEFE",
"Y  c #CBF2F2",
"T  c #B3ECEC",
"R  c #C7F1F1",
"E  c #BFEFEF",
"W  c #94E4E4",
"Q  c #50D3D3",
"!  c #DBF6F6",
"~  c #2FCBCB",
"^  c #7EDFDF",
"/  c #F8FDFD",
"(  c #7CDEDE",
")  c #F5FCFC",
"_  c #B1EBEB",
"`  c #4AD2D2",
"'  c #CDF2F2",
"]  c #3FCFCF",
"[  c #C8F1F1",
"{  c #97E5E5",
"}  c #7DDFDF",
"|  c #E3F8F8",
" . c #82E0E0",
".. c #98E5E5",
"X. c #7DDEDE",
"o. c #A6E8E8",
"O. c #80DFDF",
"+. c #D0F3F3",
"@. c #4CD2D2",
"#. c #B1ECEC",
"$. c #CEF3F3",
"%. c #81E0E0",
"&. c #F7FDFD",
"*. c #48D1D1",
"=. c #83E0E0",
"-. c #9AE6E6",
";. c #F4FCFC",
":. c #A0E8E8",
">. c #42D0D0",
",. c #34CCCC",
"<. c #75DDDD",
"1. c #88E1E1",
"2. c #D2F4F4",
"3. c #4BD2D2",
"4. c #E8F9F9",
"5. c #86E1E1",
"6. c #90E3E3",
"7. c #EDFAFA",
"8. c #BBEEEE",
"9. c #3ACECE",
"0. c #9BE6E6",
"q. c #F2FCFC",
"w. c #78DDDD",
"e. c #D7F5F5",
"r. c #6DDADA",
"t. c #AAEAEA",
"y. c #73DCDC",
"u. c #D8F5F5",
"i. c #FDFEFE",
"p. c #C1F0F0",
"a. c #58D5D5",
"s. c #59D5D5",
"d. c #C3F0F0",
"f. c #FDFFFF",
"g. c #BAEEEE",
"h. c #61D8D8",
"j. c #92E4E4",
"k. c #35CCCC",
"l. c #3DCFCF",
"z. c #37CDCD",
"x. c #EDFBFB",
"c. c #E6F9F9",
"v. c #E1F7F7",
"b. c #F1FCFC",
"n. c #A9EAEA",
"m. c #47D1D1",
"M. c #6EDBDB",
"N. c #76DDDD",
"B. c #61D7D7",
"V. c #B4ECEC",
"C. c #B6EDED",
"Z. c #8FE3E3",
"A. c #F9FEFE",
"S. c #A1E7E7",
"D. c #8EE3E3",
"F. c #DDF6F6",
"G. c #74DDDD",
"H. c #A1E8E8",
"J. c #D5F4F4",
"K. c #C1EFEF",
"L. c #B0EBEB",
"P. c #A8E9E9",
"I. c #96E5E5",
"U. c #87E1E1",
"Y. c #E5F8F8",
"T. c #F1FBFB",
"R. c #E4F8F8",
"E. c #9EE7E7",
"W. c #68D9D9",
"Q. c #4ED3D3",
"!. c #C9F2F2",
"~. c #64D8D8",
"^. c #44D0D0",
"/. c #46D1D1",
"(. c #66D9D9",
"). c #D5F5F5",
"_. c #62D8D8",
"`. c #2ECBCB",
"'. c #8DE3E3",
"]. c #A2E8E8",
"[. c #ADEBEB",
"{. c #DCF6F6",
"}. c #E0F7F7",
"|. c #95E5E5",
" X c #8AE2E2",
".X c #B8EDED",
"XX c #A0E7E7",
"oX c #A3E8E8",
"OX c #9DE6E6",
"+X c #7ADEDE",
"@X c #6DDBDB",
"#X c #54D4D4",
"$X c #89E2E2",
"%X c #E9F9F9",
"&X c #55D5D5",
"*X c #D9F5F5",
"=X c #40CFCF",
"-X c #71DBDB",
";X c #6ADADA",
":X c #F3FCFC",
">X c #EAFAFA",
",X c #5AD6D6",
"<X c #3DCECE",
"1X c #C9F1F1",
"2X c #56D5D5",
"3X c #5BD6D6",
"4X c #DAF6F6",
"5X c #ABEAEA",
"6X c #69DADA",
"7X c #E5F9F9",
/* pixels */
"                                                                                                                                ",
"                                                                                                                                ",
"                                                                                                                                ",
"                                                                                                                                ",
"                                                                                                                                ",
"                                                                                                                                ",
"                                                                                    . X o O o + @                               ",
"                                                                                  # $ % & * & = - ; :                           ",
"                                                                                > , < 1 2 3 4 5 6 7 8 :                         ",
"                                                                              9 0 q w 8 e r t y u i p a                         ",
"                                                                            . s < d X           f g 6 h r                       ",
"                                                                            X j k l               z x c a                       ",
"                                                                            o & v b               b 3 i n                       ",
"                                                                            m M N B           @ V C Z q A S b                   ",
"                                                                            D F G H           H A J 1 & q K L ;                 ",
"                                                                            9 P c I           U Y T R E W Q 6 , !               ",
"                                                                            B u ~ ^ /                   : z G 6 ( )             ",
"                                                                          @ _ ` < ( B                       ' x ] [             ",
"                                                                        H { k * } |                         @  .6 ..            ",
"                                                                      | X.M ] ..H                             o.< O.@           ",
"                                                                    +.A q @.#.@         # $.@                 o.< %..           ",
"                                                                . m % 6 , y :         &.h *.Y               . =.6 -.            ",
"                                                              ;.:.>.,.<.9             . 1.6 ^ r             2.3.k R             ",
"                                                            4.5.K & 6.7.                8.& 9.0.q.      : ; w 6 w.;.            ",
"                                                          e.r.J *.t.&.                a w i J F y.V Y l ..% 6 0 u.              ",
"                                                      i.p.a.6 s.d.f.              . g.% < h.j.p < k.l.9.< z.L ;                 ",
"                  U x.c.v.b.                        &.n.m.J M.u.                ;.:.>.,.N.# f.u.0.L v B.X.V.b                   ",
"                  C.2 % ` 1./                     e Z.& K 5.4.                4.5.K & 6.x.        B t H A.                      ",
"                : S.>.Z ` D./                   F.G.,.c H.;.                e.r.J *.t.&.                                        ",
"                  q.J.u.+ ;.                : [ v 6 7 g..               i.K.a.6 s.D f.                                          ",
"                                          A.L.3.< w 2.                &.P.m.J M.u.                                              ",
"                                        H I.k * ^ |                 e D.& K U.4.                                                ",
"                    : q.Y.| b .       X ( M ] ..T.                F.u ,.c H.;.                                                  ",
"                  R.E.W.Q Q.v 5.!./ > ~.< P V @               : [ v 6 % g.U                                                     ",
"                [ , J k.^.*.& 6 /.X.% 6 4 y :               A.L.@.< (.a                             ;.+ u.).q.                  ",
"              $.% J _.n ; ! l =.k `.,.N.9                 H I.k * ^ |                             / '.` Z c ].:                 ",
"            t M.< g R.        / [.2 j.x.                X ( M ] ..T.                              &.U.` % 2 S                   ",
"            8 & 7 {.            i.e A.                +.A < @.V @                                   H }.c.x.U                   ",
"            |.6  Xi.                              . .Xp 6 , y :                                                                 ",
"          @ O.q P.                              ;.XX>.,.<.9                                                                     ",
"          .  .< oX                            4.5.K & Z.7.                                                                      ",
"            OX< +X/                         u.@Xi *.t.&.                                                                        ",
"            > ^.c d.    ' oXf             r u ~ #Xd.i.                                                                          ",
"            / $Xq a.[ %Xw & l             @ 1.6 C B                                                                             ",
"              Y.r.< *.r.9.&X|               z m.x *X                                                                            ",
"                X  .=X< 6 +XA.              q.(.K 8                                                                             ",
"                  B y -X6  ..               B M.* g.                                                                            ",
"                      T ,.;X:X              >X,X<X1X                                                                            ",
"                      ; m.>.[               .X9.2Xc.                                                                            ",
"                      /  .6 w #           z 3XJ I.U                                                                             ",
"                        4X,Xq h.C.| e 9 5X2X6 6X7X                                                                              ",
"                          ' 4 J K = ,X3.M ,.M.!                                                                                 ",
"                            X { v Z ] Z _.oX>X                                                                                  ",
"                              f.e u.$.e.b                                                                                       ",
"                                                                                                                                ",
"                                                                                                                                ",
"                                                                                                                                ",
"                                                                                                                                ",
"                                                                                                                                ",
"                                                                                                                                ",
"                                                                                                                                ",
"                                                                                                                                ",
"                                                                                                                                ",
"                                                                                                                                "
};
