/* XPM */
static char *collectable__12_1710156750[] = {
/* columns rows colors chars-per-pixel */
"64 64 221 2 ",
"   c white",
".  c #EEFBFB",
"X  c #D1F4F4",
"o  c #C0EFEF",
"O  c #C3F0F0",
"+  c #D8F5F5",
"@  c #F3FCFC",
"#  c #F2FCFC",
"$  c #AEEBEB",
"%  c #64D8D8",
"&  c #42D0D0",
"*  c #38CDCD",
"=  c #39CECE",
"-  c #47D1D1",
";  c #70DBDB",
":  c #BDEFEF",
">  c #F9FEFE",
",  c #EAFAFA",
"<  c #81DFDF",
"1  c #34CDCD",
"2  c #4FD3D3",
"3  c #66D9D9",
"4  c #62D8D8",
"5  c #48D1D1",
"6  c #31CCCC",
"7  c #40CFCF",
"8  c #9CE6E6",
"9  c #F7FDFD",
"0  c #F5FDFD",
"q  c #87E1E1",
"w  c #32CCCC",
"e  c #4AD2D2",
"r  c #A3E8E8",
"t  c #E1F8F8",
"y  c #F1FBFB",
"u  c #D7F5F5",
"i  c #8EE3E3",
"p  c #3DCFCF",
"a  c #3BCECE",
"s  c #A9EAEA",
"d  c #FEFFFF",
"f  c #BEEFEF",
"g  c #3DCECE",
"h  c #46D1D1",
"j  c #9EE7E7",
"k  c #37CDCD",
"l  c #51D3D3",
"z  c #DCF6F6",
"x  c #7FDFDF",
"c  c #30CBCB",
"v  c #90E3E3",
"b  c #FCFEFE",
"n  c #F0FBFB",
"m  c #6CDADA",
"M  c #EDFAFA",
"N  c #5BD6D6",
"B  c #3CCECE",
"V  c #C8F1F1",
"C  c #A1E7E7",
"Z  c #7BDEDE",
"A  c #FBFEFE",
"S  c #E5F8F8",
"D  c #50D3D3",
"F  c #D9F6F6",
"G  c #92E4E4",
"H  c #60D7D7",
"J  c #53D4D4",
"K  c #B9EDED",
"L  c #EFFBFB",
"P  c #57D5D5",
"I  c #3FCFCF",
"U  c #CEF3F3",
"Y  c #FDFFFF",
"T  c #93E4E4",
"R  c #31CBCB",
"E  c #34CCCC",
"W  c #36CDCD",
"Q  c #3ACECE",
"!  c #6FDBDB",
"~  c #D2F4F4",
"^  c #77DDDD",
"/  c #9FE7E7",
"(  c #B1ECEC",
")  c #B0EBEB",
"_  c #89E1E1",
"`  c #4DD3D3",
"'  c #E4F8F8",
"]  c #D4F4F4",
"[  c #69DADA",
"{  c #BCEEEE",
"}  c #55D4D4",
"|  c #61D8D8",
" . c #E5F9F9",
".. c #54D4D4",
"X. c #B3ECEC",
"o. c #9DE7E7",
"O. c #33CCCC",
"+. c #9AE6E6",
"@. c #7DDFDF",
"#. c #E2F8F8",
"$. c #C1F0F0",
"%. c #CBF2F2",
"&. c #63D8D8",
"*. c #4BD2D2",
"=. c #ADEBEB",
"-. c #E7F9F9",
";. c #C5F1F1",
":. c #F1FCFC",
">. c #F8FDFD",
",. c #4CD2D2",
"<. c #CAF2F2",
"1. c #FDFEFE",
"2. c #B7EDED",
"3. c #EBFAFA",
"4. c #8FE3E3",
"5. c #7DDEDE",
"6. c #ECFAFA",
"7. c #69D9D9",
"8. c #A5E9E9",
"9. c #71DBDB",
"0. c #9DE6E6",
"q. c #CCF2F2",
"w. c #43D0D0",
"e. c #8DE3E3",
"r. c #35CCCC",
"t. c #E1F7F7",
"y. c #55D5D5",
"u. c #BBEEEE",
"i. c #71DCDC",
"p. c #35CDCD",
"a. c #D9F5F5",
"s. c #DAF6F6",
"d. c #BAEEEE",
"f. c #6EDBDB",
"g. c #D6F5F5",
"h. c #56D5D5",
"j. c #8BE2E2",
"k. c #E3F8F8",
"l. c #80DFDF",
"z. c #8CE2E2",
"x. c #A0E7E7",
"c. c #44D0D0",
"v. c #6DDBDB",
"b. c #D5F5F5",
"n. c #D5F4F4",
"m. c #4ED3D3",
"M. c #5FD7D7",
"N. c #65D9D9",
"B. c #ABEAEA",
"V. c #E9FAFA",
"C. c #B2ECEC",
"Z. c #CDF2F2",
"A. c #49D2D2",
"S. c #AAEAEA",
"D. c #F6FDFD",
"F. c #EDFBFB",
"G. c #3ECFCF",
"H. c #DFF7F7",
"J. c #4DD2D2",
"K. c #C7F1F1",
"L. c #DBF6F6",
"P. c #75DCDC",
"I. c #9BE6E6",
"U. c #91E3E3",
"Y. c #7ADEDE",
"T. c #C2F0F0",
"R. c #73DCDC",
"E. c #41CFCF",
"W. c #99E6E6",
"Q. c #85E1E1",
"!. c #F5FCFC",
"~. c #A4E8E8",
"^. c #59D6D6",
"/. c #B8EDED",
"(. c #FAFEFE",
"). c #86E1E1",
"_. c #8AE2E2",
"`. c #F4FCFC",
"'. c #A2E8E8",
"]. c #45D0D0",
"[. c #6BDADA",
"{. c #D3F4F4",
"}. c #7EDFDF",
"|. c #7CDEDE",
" X c #41D0D0",
".X c #49D1D1",
"XX c #83E0E0",
"oX c #E8F9F9",
"OX c #75DDDD",
"+X c #F9FDFD",
"@X c #CFF3F3",
"#X c #A8E9E9",
"$X c #AFEBEB",
"%X c #5ED7D7",
"&X c #84E0E0",
"*X c #95E4E4",
"=X c #79DDDD",
"-X c #DEF7F7",
";X c #67D9D9",
":X c #BFEFEF",
">X c #98E5E5",
",X c #61D7D7",
"<X c #C6F1F1",
"1X c #52D4D4",
"2X c #B6EDED",
"3X c #A6E9E9",
"4X c #6ADADA",
"5X c #E0F7F7",
"6X c #ACEAEA",
"7X c #C1EFEF",
"8X c #2FCBCB",
"9X c #82E0E0",
"0X c #45D1D1",
"qX c #81E0E0",
"wX c #5AD6D6",
"eX c #E6F9F9",
"rX c #44D1D1",
"tX c #CDF3F3",
"yX c #74DCDC",
"uX c #D0F3F3",
"iX c #95E5E5",
/* pixels */
"                                                                                                                                ",
"                                                                                                                                ",
"                                                                                                                                ",
"                                                                                                                                ",
"                                                                                                                                ",
"                                                                                                                                ",
"                                                                                                                                ",
"                                                                                      . X o O + @                               ",
"                                                                                  # $ % & * = - ; : >                           ",
"                                                                                , < * 1 2 3 4 5 6 7 8 9                         ",
"                                                                              0 q w e r t @ y u i p a s d                       ",
"                                                                              f g h f d         > j k l z                       ",
"                                                                            > x c v b             n m w r                       ",
"                                                                            M N B V                 C 6 Z A                     ",
"                                                                            S D h F             + G H w J K L                   ",
"                                                                            , P I U           Y T R E W 6 Q ! ~                 ",
"                                                                            9 ^ w j d           + / ( ) _ ` c P X               ",
"                                                                              j w P '                   b ] [ c m M             ",
"                                                                          A { } R |  .                      + ..k X.            ",
"                                                                        # o.& O.; u                           +.R @.>           ",
"                                                                      #.x k B i ,                             $.* % #           ",
"                                                                  d %.&.R *.=.9         -.%.0                 ;.Q &.:.          ",
"                                                                >.$ ,.R 4 <.d         1.G & 2.                s O.^ >.          ",
"                                                              3.4.B W 5.t               j w m .             6.7.O.8.            ",
"                                                            + 9.O.& 0.:.                q.w.k T #         L e.r.P t.            ",
"                                                        A f P c y.u.A                 + i.p.6 * ^ { a.s.d.i.W w.2.              ",
"                                                      # / w.O.f.g.                b f P c h.j.2 c * h - * c l X.A               ",
"                                                    k.l.k a z.,                 @ x.c.w v.b.b n.v 4 m.,.M.v u d                 ",
"                                                  U N.6 e B.9                 k.< k a j.V.      1.n #.t.. b                     ",
"                                              > C.2 R H V d               d Z.% 6 A.S.D.                                        ",
"                                            F.T G.W Z H.                >.) J.c M.K.Y                                           ",
"                                          L.P.E & I.n                 6.U.p p.Y.H.                                              ",
"                        b b           1.T.N c ..d.A                 s.R.E E.W.n                                                 ",
"                  D.q.o.Q.q x.Z.D.  !.~.h O.v.b.                b o ^.c J /.(.                                                  ",
"                H.< & c c c R & x V ).= Q _.V.                `.'.].w [.{.                                                      ",
"              L.% R - }.C x.|.5 w  XO..Xs D.                ' XX* Q _ oX                                                        ",
"            y OXc 4 %.>     +XU 3 E M.K.Y                 @X3 6 5 #XD.                                                          ",
"            u.Q l ]             t.$XH.                > C.2 c %X;.Y                                                             ",
"          A &Xc *Xd                                 F.T G.p.=X-X                                                                ",
"          @ ;X* :X                                L.P.E 7 >XL                                                                   ",
"          n ,Xa <X                            1.O N c 1X2X(.                                                                    ",
"          D.; O.$                           !.3X- w 4X~                                                                         ",
"            I.6 ! n     k.5XY             # z.Q Q q -.                                                                          ",
"            s.l k 8 >.-.3 % V.            z e w i D.                                                                            ",
"            d 6Xp a ).4.p.% .             9 l.c j.b                                                                             ",
"              >.~.h R p.O.j                 7XQ M..                                                                             ",
"                A %.l.I k 2.                + ].D S                                                                             ",
"                    # f.O.$                 ~  Xy.oX                                                                            ",
"                    d 4.8X9X(.              B.E ! 0                                                                             ",
"                      ;.I 0X<X            #.H E 8.                                                                              ",
"                      D.qXR wX<X>.    b g.9.6 4 eX                                                                              ",
"                        #.m 6 rXZ '.~.).m.c h.tX                                                                                ",
"                          k.q c.6 6 R c g yX]                                                                                   ",
"                            >.uX'.).qXiXO #                                                                                     ",
"                                  b A d                                                                                         ",
"                                                                                                                                ",
"                                                                                                                                ",
"                                                                                                                                ",
"                                                                                                                                ",
"                                                                                                                                ",
"                                                                                                                                ",
"                                                                                                                                ",
"                                                                                                                                ",
"                                                                                                                                "
};
