/* XPM */
static char *collectable__17_1710156750[] = {
/* columns rows colors chars-per-pixel */
"64 64 227 2 ",
"   c white",
".  c #F7FDFD",
"X  c #D1F4F4",
"o  c #A8E9E9",
"O  c #94E4E4",
"+  c #96E5E5",
"@  c #B0EBEB",
"#  c #DBF6F6",
"$  c #FBFEFE",
"%  c #DDF6F6",
"&  c #82E0E0",
"*  c #45D0D0",
"=  c #32CCCC",
"-  c #30CBCB",
";  c #34CCCC",
":  c #4DD2D2",
">  c #95E5E5",
",  c #EBFAFA",
"<  c #D5F4F4",
"1  c #5FD7D7",
"2  c #31CBCB",
"3  c #47D1D1",
"4  c #7ADEDE",
"5  c #98E5E5",
"6  c #93E4E4",
"7  c #70DBDB",
"8  c #3FCFCF",
"9  c #33CCCC",
"0  c #78DDDD",
"q  c #E8F9F9",
"w  c #6BDADA",
"e  c #67D9D9",
"r  c #CFF3F3",
"t  c #F8FDFD",
"y  c #F4FCFC",
"u  c #BBEEEE",
"i  c #52D4D4",
"p  c #8AE2E2",
"a  c #AAEAEA",
"s  c #35CCCC",
"d  c #59D5D5",
"f  c #C0EFEF",
"g  c #43D0D0",
"h  c #42D0D0",
"j  c #CBF2F2",
"k  c #F6FDFD",
"l  c #71DBDB",
"z  c #A6E8E8",
"x  c #FCFEFE",
"c  c #E9F9F9",
"v  c #56D5D5",
"b  c #41CFCF",
"n  c #D1F3F3",
"m  c #F0FBFB",
"M  c #BCEEEE",
"N  c #31CCCC",
"B  c #53D4D4",
"V  c #9FE7E7",
"C  c #D4F4F4",
"Z  c #FAFEFE",
"A  c #E5F9F9",
"S  c #50D3D3",
"D  c #45D1D1",
"F  c #D8F5F5",
"G  c #A7E9E9",
"H  c #38CDCD",
"J  c #48D1D1",
"K  c #92E4E4",
"L  c #EDFAFA",
"P  c #5DD6D6",
"I  c #3BCECE",
"U  c #C4F0F0",
"Y  c #C5F0F0",
"T  c #72DCDC",
"R  c #8FE3E3",
"E  c #A9E9E9",
"W  c #9DE7E7",
"Q  c #3DCFCF",
"!  c #7BDEDE",
"~  c #ECFAFA",
"^  c #83E0E0",
"/  c #89E1E1",
"(  c #FEFFFF",
")  c #FDFFFF",
"_  c #B4ECEC",
"`  c #4DD3D3",
"'  c #97E5E5",
"]  c #C5F1F1",
"[  c #40CFCF",
"{  c #BFEFEF",
"}  c #B5EDED",
"|  c #3DCECE",
" . c #4CD2D2",
".. c #D9F6F6",
"X. c #A2E8E8",
"o. c #F3FCFC",
"O. c #6EDBDB",
"+. c #ACEAEA",
"@. c #C3F0F0",
"#. c #90E3E3",
"$. c #C2F0F0",
"%. c #4FD3D3",
"&. c #9DE6E6",
"*. c #8CE2E2",
"=. c #C1F0F0",
"-. c #4ED3D3",
";. c #E9FAFA",
":. c #CDF2F2",
">. c #EAFAFA",
",. c #7CDEDE",
"<. c #84E0E0",
"1. c #9AE6E6",
"2. c #3ECFCF",
"3. c #C7F1F1",
"4. c #7DDEDE",
"5. c #B8EDED",
"6. c #BAEEEE",
"7. c #E4F8F8",
"8. c #73DCDC",
"9. c #F2FCFC",
"0. c #BEEFEF",
"q. c #7EDFDF",
"w. c #E0F7F7",
"e. c #55D4D4",
"r. c #2FCBCB",
"t. c #46D1D1",
"y. c #D0F3F3",
"u. c #DCF6F6",
"i. c #B3ECEC",
"p. c #63D8D8",
"a. c #D2F4F4",
"s. c #BDEEEE",
"d. c #7FDFDF",
"f. c #35CDCD",
"g. c #41D0D0",
"h. c #3CCECE",
"j. c #49D2D2",
"k. c #36CDCD",
"l. c #5ED7D7",
"z. c #4BD2D2",
"x. c #80DFDF",
"c. c #76DDDD",
"v. c #E2F8F8",
"b. c #4AD1D1",
"n. c #81DFDF",
"m. c #79DEDE",
"M. c #B9EDED",
"N. c #49D1D1",
"B. c #E7F9F9",
"V. c #EDFBFB",
"C. c #77DDDD",
"Z. c #51D4D4",
"A. c #EEFBFB",
"S. c #E6F9F9",
"D. c #C6F1F1",
"F. c #B7EDED",
"G. c #85E1E1",
"H. c #75DCDC",
"J. c #87E1E1",
"K. c #EFFBFB",
"L. c #E5F8F8",
"P. c #74DCDC",
"I. c #54D4D4",
"U. c #C8F1F1",
"Y. c #FDFEFE",
"T. c #88E2E2",
"R. c #C9F2F2",
"E. c #46D0D0",
"W. c #E3F8F8",
"Q. c #55D5D5",
"!. c #B1EBEB",
"~. c #F1FCFC",
"^. c #F9FDFD",
"/. c #CCF2F2",
"(. c #44D0D0",
"). c #8BE2E2",
"_. c #6FDBDB",
"`. c #57D5D5",
"'. c #A6E9E9",
"]. c #8DE2E2",
"[. c #E1F8F8",
"{. c #5AD6D6",
"}. c #61D7D7",
"|. c #37CDCD",
" X c #8DE3E3",
".X c #6DDADA",
"XX c #58D5D5",
"oX c #CEF3F3",
"OX c #CAF2F2",
"+X c #ABEAEA",
"@X c #8EE3E3",
"#X c #6CDADA",
"$X c #59D6D6",
"%X c #68D9D9",
"&X c #D9F5F5",
"*X c #C1EFEF",
"=X c #DFF7F7",
"-X c #3ACECE",
";X c #E1F7F7",
":X c #DEF7F7",
">X c #6ADADA",
",X c #30CCCC",
"<X c #88E1E1",
"1X c #69DADA",
"2X c #5BD6D6",
"3X c #9EE7E7",
"4X c #DDF7F7",
"5X c #5CD6D6",
"6X c #5DD7D7",
"7X c #B2ECEC",
"8X c #66D9D9",
"9X c #A4E8E8",
"0X c #A0E7E7",
"qX c #92E3E3",
"wX c #39CECE",
"eX c #60D7D7",
"rX c #B9EEEE",
"tX c #9CE6E6",
"yX c #F5FCFC",
"uX c #D3F4F4",
"iX c #AFEBEB",
"pX c #39CDCD",
"aX c #B5ECEC",
"sX c #F1FBFB",
"dX c #89E2E2",
"fX c #38CECE",
"gX c #AEEBEB",
/* pixels */
"                                                                                                                                ",
"                                                                                                                                ",
"                                                                                                                                ",
"                                                                                                                                ",
"                                                                                                                                ",
"                                                                                                                                ",
"                                                                                                                                ",
"                                                                                . X o O + @ # $                                 ",
"                                                                              % & * = - - ; : > ,                               ",
"                                                                            < 1 2 3 4 5 6 7 8 9 0 q                             ",
"                                                                          , w - e r t     y u i = p t                           ",
"                                                                          a s d #             f g h j                           ",
"                                                                        k l 9 z               x & - O                           ",
"                                                                        c v b n             m M w N B V C Z                     ",
"                                                                        A S D F             G H N ; = N J K ,                   ",
"                                                                        L P I U             Y T R E W l Q 9 ! ~                 ",
"                                                                        Z ^ - / Z           ( . )     y _ ` ; ' $               ",
"                                                                          ] [ h {                         } |  ...              ",
"                                                                          { g 9 X.                        o.O.9 +.              ",
"                                                                        @.S 9 4 c                           + - #.(             ",
"                                                                      $.%.= 4 c                             &.- *.)             ",
"                                                                    =.-.9 ! ;.        :.X.>.              $ & 2 V               ",
"                                                                ( f -.9 ,.>.        $ <.= 1.)             F -.2.3.              ",
"                                                              ( { : 9 4.>.            5.| 3 6.x         7.8.2 8.9.              ",
"                                                            ( 0. .9 q.,               w.e.r.t.6 y.7.u.i.p.N B a.                ",
"                                                          ( s. .9 d.,               ;.4.f.g.h.2 g.%.j.k.= l.3.                  ",
"                                                        ( u z.9 x.~               c ! = %.u u c.i 3 z.p.1.v.                    ",
"                                                      ( 6.b.; n.~               q m.= %.$.    k A # w.m (                       ",
"                                                    ) M.N.; & L               B.0 = S U                                         ",
"                                                  ) 5.N.; ^ V.              B.C.= Z.Y                                           ",
"                                                ) 5.J ; <.A.              S.c.= i D.                                            ",
"                                              ) F.J s G.A.              A H.= B 3.                                              ",
"                                            ) } 3 s J.K.              L.P.= I.U.                                                ",
"                                          Y._ t.f.T.m               7.T 2 e.R.                                                  ",
"                                        x i.E.f.p m               W.l 2 Q.j                                                     ",
"                                      x !.* k.p ~.              W.7 2 v j                                                       ",
"                      ^.v./.D.< A.  Y.@ (.k.).~.              v._.2 `./.                                                        ",
"                  ( a.& S 2.I (.p.'.'.(.k.].9.              [.O.2 `.:.                                                          ",
"                Y.F.-.- [ {.}.%.k.f.H |. X9.              w..X2 XXoX                                                            ",
"                ] N.f.0 OX~ m v.+XI.I @X9.              w.#X- $Xr                                                               ",
"              V.%X= <.K.          &X*Xo.              =Xw - {.r                                                                 ",
"              f -Xv ;X                              :X>X,X{.y.                                                                  ",
"              1.- <Xx                             :X1X- 2XX                                                                     ",
"            Y.).- 3X                            4X%X- 5Xa.                                                                      ",
"            ( 6 - K (                         =X%XN 6Xa.                                                                        ",
"              7Xs 8XK.      ^.Y.              W - 3 OX                                                                          ",
"              ;XI.H '.Y.  w.x.i.)             R.J | s.                                                                          ",
"              ( G H g 9XL 0X- q.Z             x qX- ,.^.                                                                        ",
"                y #.wX|.eXZ.; G                 U.h.{.~                                                                         ",
"                  y E XX|.N H rX                F * Z.A                                                                         ",
"                    ( L.5.P 9 o                 /.2.d ,                                                                         ",
"                          tX- P.yX              1.N 0 t                                                                         ",
"                          uXJ h.iX(           :.-.pXaX                                                                          ",
"                          $ 5 f.3 '.>.Z Z K.6.`.2 4 sX                                                                          ",
"                            m dXfXk.2X,.q.p.h.9 7 [.                                                                            ",
"                              y +X6XI 9 = H i + q                                                                               ",
"                                  ;.D.gX+X0.;Xx                                                                                 ",
"                                                                                                                                ",
"                                                                                                                                ",
"                                                                                                                                ",
"                                                                                                                                ",
"                                                                                                                                ",
"                                                                                                                                ",
"                                                                                                                                "
};
