/* XPM */
static char *collectable__7_1710156750[] = {
/* columns rows colors chars-per-pixel */
"64 64 223 2 ",
"   c white",
".  c #F1FCFC",
"X  c #DDF6F6",
"o  c #D1F4F4",
"O  c #D7F5F5",
"+  c #ECFAFA",
"@  c #FDFFFF",
"#  c #A7E9E9",
"$  c #68D9D9",
"%  c #4AD2D2",
"&  c #41CFCF",
"*  c #45D0D0",
"=  c #5ED7D7",
"-  c #98E5E5",
";  c #E2F8F8",
":  c #DFF7F7",
">  c #72DCDC",
",  c #35CDCD",
"<  c #34CCCC",
"1  c #49D2D2",
"2  c #56D5D5",
"3  c #4ED3D3",
"4  c #38CDCD",
"5  c #32CCCC",
"6  c #60D7D7",
"7  c #CDF2F2",
"8  c #EAFAFA",
"9  c #70DBDB",
"0  c #30CBCB",
"q  c #53D4D4",
"w  c #DBF6F6",
"e  c #E1F8F8",
"r  c #B6EDED",
"t  c #62D8D8",
"y  c #31CCCC",
"u  c #59D6D6",
"i  c #D8F5F5",
"p  c #FEFFFF",
"a  c #9EE7E7",
"s  c #33CCCC",
"d  c #55D5D5",
"f  c #CFF3F3",
"g  c #6CDADA",
"h  c #7EDFDF",
"j  c #F7FDFD",
"k  c #E9F9F9",
"l  c #5AD6D6",
"z  c #B1EBEB",
"x  c #D1F3F3",
"c  c #47D1D1",
"v  c #45D1D1",
"b  c #CCF2F2",
"n  c #3ECFCF",
"m  c #E7F9F9",
"M  c #F0FBFB",
"N  c #4DD3D3",
"B  c #66D9D9",
"V  c #CBF2F2",
"C  c #BEEFEF",
"Z  c #37CDCD",
"A  c #69D9D9",
"S  c #F4FCFC",
"D  c #F9FEFE",
"F  c #8BE2E2",
"G  c #42D0D0",
"H  c #85E0E0",
"J  c #E3F8F8",
"K  c #C4F0F0",
"L  c #3ACECE",
"P  c #61D7D7",
"I  c #FAFEFE",
"U  c #95E4E4",
"Y  c #8EE3E3",
"T  c #AAEAEA",
"R  c #A2E8E8",
"E  c #7ADDDD",
"W  c #43D0D0",
"Q  c #31CBCB",
"!  c #DCF6F6",
"~  c #44D0D0",
"^  c #F6FDFD",
"/  c #EEFBFB",
"(  c #FDFEFE",
")  c #F8FDFD",
"_  c #C2F0F0",
"`  c #58D5D5",
"'  c #84E0E0",
"]  c #7ADEDE",
"[  c #7FDFDF",
"{  c #F2FCFC",
"}  c #C7F1F1",
"|  c #46D1D1",
" . c #41D0D0",
".. c #C8F1F1",
"X. c #ACEAEA",
"o. c #80DFDF",
"O. c #99E5E5",
"+. c #B7EDED",
"@. c #40CFCF",
"#. c #39CECE",
"$. c #B0EBEB",
"%. c #7DDFDF",
"&. c #35CCCC",
"*. c #8DE2E2",
"=. c #77DDDD",
"-. c #D6F5F5",
";. c #7CDEDE",
":. c #D5F5F5",
">. c #93E4E4",
",. c #8AE2E2",
"<. c #FCFEFE",
"1. c #67D9D9",
"2. c #E5F9F9",
"3. c #BFEFEF",
"4. c #48D1D1",
"5. c #8FE3E3",
"6. c #59D5D5",
"7. c #EBFAFA",
"8. c #DAF6F6",
"9. c #3FCFCF",
"0. c #ABEAEA",
"q. c #F9FDFD",
"w. c #81DFDF",
"e. c #65D9D9",
"r. c #F3FCFC",
"t. c #87E1E1",
"y. c #52D4D4",
"u. c #86E1E1",
"i. c #E1F7F7",
"p. c #B9EEEE",
"a. c #6EDBDB",
"s. c #C5F1F1",
"d. c #E6F9F9",
"f. c #36CDCD",
"g. c #3DCFCF",
"h. c #4CD3D3",
"j. c #BDEFEF",
"k. c #A9EAEA",
"l. c #AEEBEB",
"z. c #ADEAEA",
"x. c #82E0E0",
"c. c #4CD2D2",
"v. c #63D8D8",
"b. c #BAEEEE",
"n. c #9DE7E7",
"m. c #F5FDFD",
"M. c #8DE3E3",
"N. c #E8F9F9",
"B. c #E0F7F7",
"V. c #C9F1F1",
"C. c #4FD3D3",
"Z. c #8CE2E2",
"A. c #F5FCFC",
"S. c #B9EDED",
"D. c #7BDEDE",
"F. c #AFEBEB",
"G. c #3CCFCF",
"H. c #E4F8F8",
"J. c #97E5E5",
"K. c #5DD7D7",
"L. c #CEF3F3",
"P. c #89E1E1",
"I. c #51D4D4",
"U. c #5FD7D7",
"Y. c #76DDDD",
"T. c #9AE6E6",
"R. c #6DDADA",
"E. c #32CBCB",
"W. c #BBEEEE",
"Q. c #CAF2F2",
"!. c #9FE7E7",
"~. c #B8EDED",
"^. c #5BD6D6",
"/. c #EDFBFB",
"(. c #3CCECE",
"). c #A8E9E9",
"_. c #FBFEFE",
"`. c #69DADA",
"'. c #6BDADA",
"]. c #C0EFEF",
"[. c #90E3E3",
"{. c #74DCDC",
"}. c #6FDBDB",
"|. c #79DDDD",
" X c #D9F6F6",
".X c #DDF7F7",
"XX c #50D3D3",
"oX c #75DCDC",
"OX c #4BD2D2",
"+X c #B2ECEC",
"@X c #BDEEEE",
"#X c #E5F8F8",
"$X c #A3E8E8",
"%X c #EFFBFB",
"&X c #D5F4F4",
"*X c #4DD2D2",
"=X c #A1E8E8",
"-X c #78DEDE",
";X c #C6F1F1",
":X c #49D1D1",
">X c #91E3E3",
",X c #D4F4F4",
"<X c #39CDCD",
"1X c #57D5D5",
"2X c #64D8D8",
"3X c #EDFAFA",
"4X c #79DEDE",
"5X c #D2F4F4",
"6X c #54D4D4",
"7X c #92E4E4",
"8X c #6ADADA",
"9X c #3BCECE",
"0X c #DEF7F7",
"qX c #88E1E1",
"wX c #E9FAFA",
"eX c #D3F4F4",
"rX c #55D4D4",
"tX c #76DCDC",
"yX c #83E0E0",
"uX c #71DBDB",
"iX c #51D3D3",
"pX c #A4E8E8",
"aX c #B4ECEC",
/* pixels */
"                                                                                                                                ",
"                                                                                                                                ",
"                                                                                                                                ",
"                                                                                . X o O + @                                     ",
"                                                                            + # $ % & * = - ;                                   ",
"                                                                          : > , < 1 2 3 4 5 6 7                                 ",
"                                                                        8 9 0 q # w 8 e r t y u i                               ",
"                                                                      p a s d f           e g 0 h j                             ",
"                                                                      k l 4 z               x c v o                             ",
"                                                                      b n d m             M r N s B - V j                       ",
"                                                                      C Z A S           D F 4 5 < y 0 G H J                     ",
"                                                                      K L P M           I U = Y T R E W Q g J                   ",
"                                                                      ! % ~ x             ^ / (     ) _ ` Q ' j                 ",
"                                                                      j ] y [ {                         } |  .V                 ",
"                                                                        ..W 4 X.                        I o.0 O.                ",
"                                                                        +.@.#.$.                          T 5 %.I               ",
"                                                                      ..3 &.*.S                           $.s =.)               ",
"                                                                    -.l Q ;./       ^ :.M               p >.0 ,.<.              ",
"                                                                  ; 1.0 g 2.        3.4.5.D             e 6.Z r                 ",
"                                                                7.=.Q = 8.          V ~ 9.0.q.        + w.5 e.8                 ",
"                                                              r.t.s y.7             I F y 9.u.} i.X p.a.< % s.                  ",
"                                                            q.O.Z c C               d.g 5 f.Q g.h.1 4 Q d j.@                   ",
"                                                          <.k.g.9.l.@             / ;.5 l z.x.2 4.c.v.>.w                       ",
"                                                          b.* 4 n.I             m.M.< 3 ..  D N.! B.M @                         ",
"                                                        V.C.< Z.A.            I a #.~ S.                                        ",
"                                                      O l Q D./             @ F.9.G.k.<.                                        ",
"                                                    ; $ 0 g H.              3.4.Z J.q.                                          ",
"                                                  + =.Q K.8.              L.y.s u.r.                                            ",
"                                                S P.s I.7               w U.Q Y.7.                                              ",
"                                              D T.4 c C               2.R.0 1.e                                                 ",
"                                            ( 0.g.9.l.@             / ;.E.u -.                                                  ",
"                                            W.* 4 n.I             m.M.< N }                                                     ",
"                                          Q.C.< Z.A.            I !.#.~ ~.p                                                     ",
"                                        i ^.y D./.            @ $.9.(.).<.                                                      ",
"                          @ j ^ _.    J `.0 '.H.              ].4.Z J.)                                                         ",
"                      r._ [.{.}.x.$.-.|.Q K. X              f q s u.{                                                           ",
"                    .XD.g.0 < &.0 f.1 &.XXb               ! 6 Q oX8                                                             ",
"                  B.B 0 OXP.+X~.T.= s c @X              d.a.0 B i.                                                              ",
"                ^ o.Q 6 L.<.      #X$XC <.            %Xh 5 ` &X                                                                ",
"                } 9.4.b                             ^ 5.&.*X}                                                                   ",
"              p U 0 ' _.                          _.=X#.W +.p                                                                   ",
"              D D.5 0.                          @ z @.(.# <.                                                                    ",
"              q.-Xs F.                          ;X:XZ J.)                                                                       ",
"              @ Y 0 >Xp                         n.Q 4.,X                                                                        ",
"                b.<X1XB.    q.;X&Xp             e 2X5 [.<.                                                                      ",
"                3X`.y 4XH.  5Xc R.S               C (.6X#X                                                                      ",
"                  V XX5 t F.7X5 oXj               7.l g.Q.                                                                      ",
"                  p ;X= 5 < #.Q P.(               S 8XZ C                                                                       ",
"                      J !.A 1 Q |.q.              / = 9X}                                                                       ",
"                        p S p.(.XX0X              } 9.C.e                                                                       ",
"                            %X1.5 qXS           wX9 0 t.I                                                                       ",
"                              @XG 4 qXX ) _.^ eXY.s rXi                                                                         ",
"                              _.# W Q C.tXyXuX:X0 iX_                                                                           ",
"                                _.].8Xn 5 Q < v D.5Xp                                                                           ",
"                                    %XV.0.pXaX&X^                                                                               ",
"                                                                                                                                ",
"                                                                                                                                ",
"                                                                                                                                ",
"                                                                                                                                ",
"                                                                                                                                ",
"                                                                                                                                ",
"                                                                                                                                ",
"                                                                                                                                ",
"                                                                                                                                "
};
