/* XPM */
static char *collectable__14_1710156750[] = {
/* columns rows colors chars-per-pixel */
"64 64 228 2 ",
"   c white",
".  c #FAFEFE",
"X  c #E4F8F8",
"o  c #CFF3F3",
"O  c #CAF2F2",
"+  c #D9F6F6",
"@  c #F0FBFB",
"#  c #FEFFFF",
"$  c #D6F4F4",
"%  c #86E1E1",
"&  c #52D4D4",
"*  c #3FCFCF",
"=  c #3DCECE",
"-  c #47D1D1",
";  c #66D9D9",
":  c #A9EAEA",
">  c #EFFBFB",
",  c #FDFEFE",
"<  c #B9EDED",
"1  c #51D3D3",
"2  c #30CBCB",
"3  c #56D4D4",
"4  c #5CD6D6",
"5  c #4BD2D2",
"6  c #34CCCC",
"7  c #36CDCD",
"8  c #79DEDE",
"9  c #E5F8F8",
"0  c #C4F0F0",
"q  c #49D1D1",
"w  c #35CCCC",
"e  c #74DCDC",
"r  c #C5F0F0",
"t  c #E9F9F9",
"y  c #EEFBFB",
"u  c #DDF6F6",
"i  c #A6E8E8",
"p  c #4FD3D3",
"a  c #31CCCC",
"s  c #7CDEDE",
"d  c #F2FCFC",
"f  c #EDFBFB",
"g  c #68D9D9",
"h  c #32CCCC",
"j  c #84E0E0",
"k  c #C6F1F1",
"l  c #4DD2D2",
"z  c #38CDCD",
"x  c #B1EBEB",
"c  c #C0EFEF",
"v  c #3ACECE",
"b  c #57D5D5",
"n  c #E1F8F8",
"m  c #A1E7E7",
"M  c #33CCCC",
"N  c #6DDADA",
"B  c #F3FCFC",
"V  c #99E6E6",
"C  c #89E2E2",
"Z  c #D1F4F4",
"A  c #45D1D1",
"S  c #4AD2D2",
"D  c #DDF7F7",
"F  c #FCFEFE",
"G  c #88E1E1",
"H  c #31CBCB",
"J  c #A0E7E7",
"K  c #9FE7E7",
"L  c #39CECE",
"P  c #C1F0F0",
"I  c #F5FCFC",
"U  c #8FE3E3",
"Y  c #95E5E5",
"T  c #D2F4F4",
"R  c #3DCFCF",
"E  c #39CDCD",
"W  c #81E0E0",
"Q  c #AEEBEB",
"!  c #69D9D9",
"~  c #F4FCFC",
"^  c #B6EDED",
"/  c #B4ECEC",
"(  c #C8F1F1",
")  c #B9EEEE",
"_  c #46D1D1",
"`  c #73DCDC",
"'  c #EAFAFA",
"]  c #DEF7F7",
"[  c #4ED3D3",
"{  c #FBFEFE",
"}  c #C2F0F0",
"|  c #51D4D4",
" . c #97E5E5",
".. c #B5EDED",
"X. c #3BCECE",
"o. c #F5FDFD",
"O. c #A1E8E8",
"+. c #42D0D0",
"@. c #35CDCD",
"#. c #7BDEDE",
"$. c #65D9D9",
"%. c #ECFAFA",
"&. c #8BE2E2",
"*. c #91E3E3",
"=. c #E0F7F7",
"-. c #76DDDD",
";. c #44D0D0",
":. c #A6E9E9",
">. c #F7FDFD",
",. c #DFF7F7",
"<. c #87E1E1",
"1. c #D0F3F3",
"2. c #63D8D8",
"3. c #BBEEEE",
"4. c #6BDADA",
"5. c #5ED7D7",
"6. c #F1FCFC",
"7. c #B7EDED",
"8. c #BDEEEE",
"9. c #53D4D4",
"0. c #62D8D8",
"q. c #CEF3F3",
"w. c #99E5E5",
"e. c #BAEEEE",
"r. c #F8FDFD",
"t. c #75DCDC",
"y. c #A7E9E9",
"u. c #B0EBEB",
"i. c #55D5D5",
"p. c #93E4E4",
"a. c #3CCECE",
"s. c #8AE2E2",
"d. c #EBFAFA",
"f. c #D7F5F5",
"g. c #6ADADA",
"h. c #80DFDF",
"j. c #B8EDED",
"k. c #CCF2F2",
"l. c #C1EFEF",
"z. c #8DE3E3",
"x. c #72DCDC",
"c. c #E8F9F9",
"v. c #7DDEDE",
"b. c #41CFCF",
"n. c #58D5D5",
"m. c #30CCCC",
"M. c #5DD7D7",
"N. c #3ECFCF",
"B. c #D6F5F5",
"V. c #69DADA",
"C. c #6EDBDB",
"Z. c #DAF6F6",
"A. c #F9FEFE",
"S. c #8EE3E3",
"D. c #64D8D8",
"F. c #83E0E0",
"G. c #BFEFEF",
"H. c #FDFFFF",
"J. c #C3F0F0",
"K. c #9BE6E6",
"L. c #82E0E0",
"P. c #E7F9F9",
"I. c #EDFAFA",
"U. c #49D2D2",
"Y. c #85E0E0",
"T. c #37CDCD",
"R. c #98E5E5",
"E. c #9CE6E6",
"W. c #DBF6F6",
"Q. c #70DBDB",
"!. c #48D1D1",
"~. c #ADEBEB",
"^. c #E9FAFA",
"/. c #56D5D5",
"(. c #67D9D9",
"). c #D4F4F4",
"_. c #5FD7D7",
"`. c #A2E8E8",
"'. c #E3F8F8",
"]. c #F6FDFD",
"[. c #8CE2E2",
"{. c #90E3E3",
"}. c #CDF3F3",
"|. c #78DDDD",
" X c #A4E8E8",
".X c #43D0D0",
"XX c #E1F7F7",
"oX c #77DDDD",
"OX c #B5ECEC",
"+X c #61D7D7",
"@X c #7ADEDE",
"#X c #45D0D0",
"$X c #54D4D4",
"%X c #60D7D7",
"&X c #F1FBFB",
"*X c #9DE7E7",
"=X c #ABEAEA",
"-X c #CBF2F2",
";X c #3CCFCF",
":X c #AAEAEA",
">X c #79DDDD",
",X c #F9FDFD",
"<X c #E6F9F9",
"1X c #40CFCF",
"2X c #6CDADA",
"3X c #B2ECEC",
"4X c #59D5D5",
"5X c #5AD6D6",
"6X c #C7F1F1",
"7X c #BEEFEF",
"8X c #D8F5F5",
"9X c #89E1E1",
"0X c #C9F2F2",
"qX c #6FDBDB",
"wX c #91E4E4",
"eX c #2FCBCB",
"rX c #DCF6F6",
"tX c #D5F4F4",
"yX c #ACEAEA",
"uX c #7FDFDF",
"iX c #9EE7E7",
"pX c #B3ECEC",
"aX c #E5F9F9",
"sX c #A8E9E9",
"dX c #D5F5F5",
"fX c #55D4D4",
"gX c #ADEAEA",
"hX c #96E5E5",
/* pixels */
"                                                                                                                                ",
"                                                                                                                                ",
"                                                                                                                                ",
"                                                                                                                                ",
"                                                                                                                                ",
"                                                                                                                                ",
"                                                                                                                                ",
"                                                                                    . X o O + @                                 ",
"                                                                                # $ % & * = - ; : >                             ",
"                                                                              , < 1 2 = 3 4 5 6 7 8 9                           ",
"                                                                              0 q w e r t y u i p a s d                         ",
"                                                                            f g h j y           k l z x                         ",
"                                                                            c v b n               m M N B                       ",
"                                                                            V 2 C ,               Z A S D                       ",
"                                                                          F G H J             @ K g L z s P I                   ",
"                                                                          # U 2 Y             T A 6 R E 2 R W X                 ",
"                                                                            Q 6 ! @           ~ ^ / ( ) G _ H ` '               ",
"                                                                            ] [ E x                     { } | M  .F             ",
"                                                                          { / A H Y #                       ..X.p ]             ",
"                                                                        o.O.+.@.#.9                         @ $.@.^             ",
"                                                                      %.&.L X.*.y                           F % 2 J             ",
"                                                                    =.-.M ;.:.>.      # n ,.#               F <.H J             ",
"                                                                  1.2.H | 3.F         y 4.5.n               6.g 7 7.            ",
"                                                              , 8.9.2 0.q.            d 4.h w.F             e.R [ ]             ",
"                                                            r.: _ M t.,.                y.@.;.u.r.      F k i.h p.{             ",
"                                                          @ p.a.z s.d.                f.g.h 2 * h.j.k.l.z.- a x.c.              ",
"                                                        X v.@.b.K I               # 0 n.m.M.W A 2 7 N.E 2 = W X                 ",
"                                                      B.V.H l / {               . u.S h C.Z.A.k.S.g 4 D.F.G.I                   ",
"                                                  H.J.n.2 4 ( #               B K.* 7 L.P.      , B I.6.{                       ",
"                                                . u.U.h C.Z.                c.Y.T.N.R.d                                         ",
"                                              ~ E.* 7 F.P.                W.Q.h !.~.A.                                          ",
"                                            ^.% z N.w.d                 O 5.2 /.} H.                                            ",
"                                          u x.M !.~..               { 7.[ H (.).                                                ",
"                                        k._.2 /.l.H.              o.`.+.6 #.'.                                                  ",
"                    ].B.3./ c ,..   F j.p H (.).                %.[.L X.{.y                                                     ",
"                H.}.|._ 7 6 E [ s.). X.Xw #.'.                XXoX6 ;.:.>.                                                      ",
"              , OX5 2 _ g ` +X* h q v X.*.y                 Z D.H 1 e.F                                                         ",
"              k !.@.@XT B >.> 0 g a #Xy.>.              , G.$X2 %Xq.                                                            ",
"            &XC.H W @           '.*X} F               r.=X- M ` ]                                                               ",
"            -X* p W.                                &XY ;Xz G '                                                                 ",
"            :Xh >X,X                              <Xh.7 1X*X~                                                                   ",
"            *X2 &.H.                            f.2Xh 5 3X.                                                                     ",
"            y.a #.A.                        , r 4X2 5Xk #                                                                       ",
"            6X= & ,.    # o.F               7X5 M 2X8X                                                                          ",
"            > g.h 9X~   0XqXG.            H.wXeX9.rX                                                                            ",
"              } #Xz G tX-.2 J               T S +.k.                                                                            ",
"              F yX#Xh q X.#XT               . uXH K                                                                             ",
"                F J.C.1X2 b ^.                iX2 C ,                                                                           ",
"                    B pXR | aX                V 2 z.H.                                                                          ",
"                      <X9.a.0               I x.h sX                                                                            ",
"                      A.F.2 oX6.            7X1X!.dX                                                                            ",
"                        o 5 7 S.'       . J.fXh U .                                                                             ",
"                        , Q +.6 0.K.^ yXW ;.h ` c.                                                                              ",
"                          { 7.5X6 2 6 h 2 .Xs.P.                                                                                ",
"                              '.gXj x.oXhXk.r.                                                                                  ",
"                                  { >.r.#                                                                                       ",
"                                                                                                                                ",
"                                                                                                                                ",
"                                                                                                                                ",
"                                                                                                                                ",
"                                                                                                                                ",
"                                                                                                                                ",
"                                                                                                                                ",
"                                                                                                                                "
};
