/* XPM */
static char *collectable__34_1710156751[] = {
/* columns rows colors chars-per-pixel */
"64 64 207 2 ",
"   c white",
".  c #FAFEFE",
"X  c #F7FDFD",
"o  c #F9FEFE",
"O  c #FDFEFE",
"+  c #DAF6F6",
"@  c #A5E8E8",
"#  c #7FDFDF",
"$  c #72DCDC",
"%  c #7CDEDE",
"&  c #9FE7E7",
"*  c #D6F5F5",
"=  c #FCFEFE",
"-  c #F5FDFD",
";  c #A4E8E8",
":  c #4FD3D3",
">  c #32CCCC",
",  c #31CCCC",
"<  c #34CCCC",
"1  c #4BD2D2",
"2  c #9CE6E6",
"3  c #F0FBFB",
"4  c #98E6E6",
"5  c #39CECE",
"6  c #39CDCD",
"7  c #6EDBDB",
"8  c #A3E8E8",
"9  c #B6EDED",
"0  c #A8E9E9",
"q  c #74DCDC",
"w  c #3CCECE",
"e  c #36CDCD",
"r  c #88E1E1",
"t  c #F2FCFC",
"y  c #BEEFEF",
"u  c #40CFCF",
"i  c #3FCFCF",
"p  c #F1FCFC",
"a  c #F4FCFC",
"s  c #B0EBEB",
"d  c #48D1D1",
"f  c #37CDCD",
"g  c #91E4E4",
"h  c #A9EAEA",
"j  c #59D6D6",
"k  c #D3F4F4",
"l  c #EDFAFA",
"z  c #43D0D0",
"x  c #4CD2D2",
"c  c #DCF6F6",
"v  c #EEFBFB",
"b  c #A1E8E8",
"n  c #3DCFCF",
"m  c #4AD2D2",
"M  c #5BD6D6",
"N  c #80DFDF",
"B  c #C2F0F0",
"V  c #BCEEEE",
"C  c #6BDADA",
"Z  c #F8FDFD",
"A  c #86E1E1",
"S  c #35CDCD",
"D  c #35CCCC",
"F  c #41D0D0",
"G  c #45D0D0",
"H  c #3BCECE",
"J  c #30CBCB",
"K  c #8DE2E2",
"L  c #BAEEEE",
"P  c #F9FDFD",
"I  c #8FE3E3",
"U  c #60D7D7",
"Y  c #A1E7E7",
"T  c #CEF2F2",
"R  c #D7F5F5",
"E  c #C4F0F0",
"W  c #87E1E1",
"Q  c #42D0D0",
"!  c #CDF2F2",
"~  c #55D5D5",
"^  c #E6F9F9",
"/  c #B8EDED",
"(  c #47D1D1",
")  c #3ACECE",
"_  c #B2ECEC",
"`  c #EBFAFA",
"'  c #5ED7D7",
"]  c #ACEAEA",
"[  c #FDFFFF",
"{  c #33CCCC",
"}  c #FEFFFF",
"|  c #50D3D3",
" . c #C7F1F1",
".. c #DBF6F6",
"X. c #DAF5F5",
"o. c #71DBDB",
"O. c #2FCBCB",
"+. c #61D7D7",
"@. c #ECFAFA",
"#. c #77DDDD",
"$. c #F3FCFC",
"%. c #C9F2F2",
"&. c #A0E7E7",
"*. c #51D3D3",
"=. c #D5F4F4",
"-. c #EFFBFB",
";. c #D2F4F4",
":. c #DEF7F7",
">. c #AEEBEB",
",. c #B5EDED",
"<. c #62D8D8",
"1. c #31CBCB",
"2. c #7ADEDE",
"3. c #E8F9F9",
"4. c #68D9D9",
"5. c #83E0E0",
"6. c #9AE6E6",
"7. c #45D1D1",
"8. c #C8F1F1",
"9. c #91E3E3",
"0. c #5CD6D6",
"q. c #E0F7F7",
"w. c #7BDEDE",
"e. c #ABEAEA",
"r. c #B9EDED",
"t. c #69D9D9",
"y. c #3DCECE",
"u. c #FBFEFE",
"i. c #BDEEEE",
"p. c #8EE3E3",
"a. c #52D4D4",
"s. c #DFF7F7",
"d. c #92E4E4",
"f. c #BFEFEF",
"g. c #9DE7E7",
"h. c #9BE6E6",
"j. c #78DDDD",
"k. c #70DBDB",
"l. c #81E0E0",
"z. c #A7E9E9",
"x. c #DDF6F6",
"c. c #F5FCFC",
"v. c #82E0E0",
"b. c #E2F8F8",
"n. c #5FD7D7",
"m. c #F6FDFD",
"M. c #CAF2F2",
"N. c #65D9D9",
"B. c #46D1D1",
"V. c #75DDDD",
"C. c #53D4D4",
"Z. c #9DE6E6",
"A. c #F1FBFB",
"S. c #AFEBEB",
"D. c #CCF2F2",
"F. c #5DD6D6",
"G. c #EAFAFA",
"H. c #6ADADA",
"J. c #BBEEEE",
"K. c #BDEFEF",
"L. c #94E4E4",
"P. c #5AD6D6",
"I. c #93E4E4",
"U. c #69DADA",
"Y. c #E9F9F9",
"T. c #E1F7F7",
"R. c #ADEBEB",
"E. c #49D1D1",
"W. c #85E1E1",
"Q. c #E7F9F9",
"!. c #D4F4F4",
"~. c #B1ECEC",
"^. c #73DCDC",
"/. c #76DDDD",
"(. c #9EE7E7",
"). c #C0EFEF",
"_. c #8BE2E2",
"`. c #B4ECEC",
"'. c #C1F0F0",
"]. c #66D9D9",
"[. c #84E0E0",
"{. c #55D4D4",
"}. c #64D8D8",
"|. c #85E0E0",
" X c #D9F6F6",
".X c #CBF2F2",
"XX c #C6F1F1",
"oX c #2ECBCB",
"OX c #D5F5F5",
"+X c #44D0D0",
"@X c #63D8D8",
"#X c #E3F8F8",
"$X c #67D9D9",
"%X c #54D4D4",
"&X c #4ED3D3",
"*X c #D1F4F4",
"=X c #6DDADA",
"-X c #CFF3F3",
";X c #65D8D8",
":X c #97E5E5",
">X c #51D4D4",
",X c #E9FAFA",
"<X c #8CE2E2",
"1X c #CDF3F3",
"2X c #E4F8F8",
"3X c #3ECFCF",
"4X c #5AD5D5",
/* pixels */
"                                                                                                                                ",
"                                                                                                                                ",
"                                                                                                                                ",
"                                                                                                                                ",
"                                                                                                                                ",
"                                                                                                                                ",
"                                                                                                                                ",
"                                                                                                                                ",
"                                                                              . X o                                             ",
"                                                                        O + @ # $ % & * =                                       ",
"                                                                      - ; : > , < > , 1 2 3                                     ",
"                                                                    o 4 5 6 7 8 9 0 q w e r t                                   ",
"                                                                    y u i ; p       a s d f 0                                   ",
"                                                                  t 7 > g .             h f j k l o                             ",
"                                                                  k z x c             v b n < m M N B X                         ",
"                                                                  V f C a           Z A S D F G H J i K l                       ",
"                                                                  L e 7 -           P I U Y T R E W Q < A a                     ",
"                                                                  ! i ~ ^             a v         . / ( ) _                     ",
"                                                                  ` ' f ]                           [ 2 { C t                   ",
"                                                                  } 8 e |  .}                         ..m ( X.                  ",
"                                                                    v o.O.+.@.                        3 U H  .                  ",
"                                                                    3 $ J #.$.                        v ' w %.                  ",
"                                                                  O &.e *.=.      . -.O               ;.G x :.                  ",
"                                                                  %.d ) >.        ,.<.V             X A 1.2.X                   ",
"                                                                3.4.1.5.-         @ { : V Z       v 6.H 7.8.                    ",
"                                                              . 9.{ 0.q.          l #., Q w.e.r.8 t.e y.8 u.                    ",
"                                                              V u F i.            u.p.{ S 1.> D , { a.] Z                       ",
"                                                            s.M { d..             f.z u g.h.j.k.l.z.x.}                         ",
"                                                          c.v., 4.3.            b.n.> p..   Z m..                               ",
"                                                          >.) d M.            m.A , N.^                                         ",
"                                                        =.*.e b O             _ w B. .                                          ",
"                                                      -.q J V.3             R C.S Z.=                                           ",
"                                                    O &.e a.*             A.#.J $ v                                             ",
"                                                    %.d H S.            [ 8 f : k                                               ",
"                                                  3.4.1.5.-             D.m 5 ] }                                               ",
"                                                . 9.{ F.q.            G.H.1.N a                                                 ",
"                                                J.u F K.            . L.{ P.:.                                                  ",
"                                              s.M { I..             y Q i L                                                     ",
"                                            c.v.1.U.Y.            T.' > I o                                                     ",
"                                            R.) E.M.            m.W.1.N.Q.                                                      ",
"                                          !.| e b O             ~.H (  .                                                        ",
"                                        -.^.J /.3             R C.S (.=                                                         ",
"                                [     [ & S a.*             A.#.J $ v                                                           ",
"                          @.).h._.L.9 `.d H s             [ 8 f | k                                                             ",
"                      = '.].) J J J e y.{ [.m.            D.m 5 ] }                                                             ",
"                    } ,.B.> {.W g.9.}.H +.q.            G.H.1.N a                                                               ",
"                    !.: S |.T.=   } l '. X            . L.{ P.:.                                                                ",
"                  . W.J #.3                           f.Q i L                                                                   ",
"                  b.| u %.                          T.' > I o                                                                   ",
"                  .Xy.M @.                        X A , N.Q.                                                                    ",
"                  XX) <.A.                        Y.j oXw.c.                                                                    ",
"                  OX+X: b.                        = _ +XH _                                                                     ",
"                  v @Xe ]       X .X#X              = h.{ $X-.                                                                  ",
"                    @ D %XD.    8.G A .               s.&XQ *X                                                                  ",
"                    @.q 1.| 8 :.(.1.# .               a C e J.                                                                  ",
"                      b.#.e < m ( J N .               - =Xe J.                                                                  ",
"                        -.e.$X( n , U l               #Xa.u -X                                                                  ",
"                            3 ..K.: ) _             } &.< ;Xv                                                                   ",
"                                } :X{ >XB =       . / d 6 s                                                                     ",
"                                  ,X$ 1.B.<X).1XJ.A Q { |.$.                                                                    ",
"                                    2Xl.n J 6 3Xf J F p.@.                                                                      ",
"                                      - '.5.U 4X4._.8.Z                                                                         ",
"                                          . -.@.$.=                                                                             ",
"                                                                                                                                "
};
