/* XPM */
static char *collectable__1_1710156750[] = {
/* columns rows colors chars-per-pixel */
"64 64 220 2 ",
"   c white",
".  c #F7FDFD",
"X  c #D7F5F5",
"o  c #B9EDED",
"O  c #ACEAEA",
"+  c #B5ECEC",
"@  c #D2F4F4",
"#  c #F4FCFC",
"$  c #FEFFFF",
"%  c #7CDEDE",
"&  c #47D1D1",
"*  c #36CDCD",
"=  c #32CCCC",
"-  c #34CCCC",
";  c #44D0D0",
":  c #76DDDD",
">  c #CDF2F2",
",  c #C0EFEF",
"<  c #51D3D3",
"1  c #30CBCB",
"2  c #46D1D1",
"3  c #6BDADA",
"4  c #7BDEDE",
"5  c #6DDBDB",
"6  c #4CD2D2",
"7  c #B8EDED",
"8  c #FDFFFF",
"9  c #D4F4F4",
"0  c #52D4D4",
"q  c #33CCCC",
"w  c #75DCDC",
"e  c #D1F3F3",
"r  c #F9FEFE",
"t  c #F5FCFC",
"y  c #D3F4F4",
"u  c #7ADEDE",
"i  c #35CCCC",
"p  c #CCF2F2",
"a  c #F8FDFD",
"s  c #80DFDF",
"d  c #72DCDC",
"f  c #EAFAFA",
"g  c #EEFBFB",
"h  c #7DDEDE",
"j  c #31CCCC",
"k  c #F5FDFD",
"l  c #DAF6F6",
"z  c #4AD2D2",
"x  c #43D0D0",
"c  c #48D1D1",
"v  c #C5F1F1",
"b  c #F6FDFD",
"n  c #BEEFEF",
"m  c #38CDCD",
"M  c #65D8D8",
"N  c #F1FCFC",
"B  c #8BE2E2",
"V  c #40CFCF",
"C  c #6FDBDB",
"Z  c #A6E9E9",
"A  c #E7F9F9",
"S  c #B4ECEC",
"D  c #73DCDC",
"F  c #70DBDB",
"G  c #2FCBCB",
"H  c #3ACECE",
"J  c #45D0D0",
"K  c #3FCFCF",
"L  c #64D8D8",
"P  c #CDF3F3",
"I  c #63D8D8",
"U  c #F0FBFB",
"Y  c #FBFEFE",
"T  c #89E1E1",
"R  c #BDEEEE",
"E  c #D5F4F4",
"W  c #A2E8E8",
"Q  c #59D6D6",
"!  c #30CCCC",
"~  c #57D5D5",
"^  c #DCF6F6",
"/  c #4BD2D2",
"(  c #42D0D0",
")  c #CBF2F2",
"_  c #FCFEFE",
"`  c #DDF7F7",
"'  c #6EDBDB",
"]  c #83E0E0",
"[  c #E9FAFA",
"{  c #4FD3D3",
"}  c #3CCECE",
"|  c #C3F0F0",
" . c #A8E9E9",
".. c #87E1E1",
"X. c #97E5E5",
"o. c #99E6E6",
"O. c #37CDCD",
"+. c #C6F1F1",
"@. c #A7E9E9",
"#. c #81DFDF",
"$. c #FDFEFE",
"%. c #ABEAEA",
"&. c #3DCFCF",
"*. c #3ECFCF",
"=. c #ADEAEA",
"-. c #A4E8E8",
";. c #31CBCB",
":. c #BCEEEE",
">. c #9CE6E6",
",. c #FAFEFE",
"<. c #E9F9F9",
"1. c #B2ECEC",
"2. c #E1F8F8",
"3. c #7DDFDF",
"4. c #9BE6E6",
"5. c #50D3D3",
"6. c #89E2E2",
"7. c #B1EBEB",
"8. c #79DEDE",
"9. c #C8F1F1",
"0. c #45D1D1",
"q. c #5DD7D7",
"w. c #78DDDD",
"e. c #ECFAFA",
"r. c #D5F5F5",
"t. c #8EE3E3",
"y. c #E5F8F8",
"u. c #6CDADA",
"i. c #68D9D9",
"p. c #E2F8F8",
"a. c #8EE2E2",
"s. c #35CDCD",
"d. c #65D9D9",
"f. c #B7EDED",
"g. c #8CE2E2",
"h. c #69D9D9",
"j. c #5AD6D6",
"k. c #CFF3F3",
"l. c #54D4D4",
"z. c #DFF7F7",
"x. c #4ED3D3",
"c. c #60D7D7",
"v. c #A9EAEA",
"b. c #6ADADA",
"n. c #8DE3E3",
"m. c #C2F0F0",
"M. c #A0E7E7",
"N. c #39CECE",
"B. c #E0F7F7",
"V. c #49D1D1",
"C. c #95E5E5",
"Z. c #92E4E4",
"A. c #C5F0F0",
"S. c #55D4D4",
"D. c #A3E8E8",
"F. c #B5EDED",
"G. c #5CD6D6",
"H. c #DEF7F7",
"J. c #62D8D8",
"K. c #E8F9F9",
"L. c #A1E8E8",
"P. c #41CFCF",
"I. c #51D4D4",
"U. c #F2FCFC",
"Y. c #3BCECE",
"T. c #F3FCFC",
"R. c #86E1E1",
"E. c #53D4D4",
"W. c #F9FDFD",
"Q. c #98E5E5",
"!. c #BFEFEF",
"~. c #EFFBFB",
"^. c #D6F5F5",
"/. c #AAEAEA",
"(. c #AEEBEB",
"). c #EBFAFA",
"_. c #AFEBEB",
"`. c #79DDDD",
"'. c #5ED7D7",
"]. c #59D5D5",
"[. c #95E4E4",
"{. c #BBEEEE",
"}. c #9DE6E6",
"|. c #3DCECE",
" X c #D8F5F5",
".X c #5BD6D6",
"XX c #9FE7E7",
"oX c #CEF3F3",
"OX c #D9F6F6",
"+X c #EDFAFA",
"@X c #77DDDD",
"#X c #69DADA",
"$X c #DBF6F6",
"%X c #E3F8F8",
"&X c #C4F0F0",
"*X c #96E5E5",
"=X c #85E0E0",
"-X c #C9F1F1",
";X c #A0E8E8",
":X c #82E0E0",
">X c #A5E8E8",
",X c #41D0D0",
"<X c #82DFDF",
"1X c #ADEBEB",
"2X c #7EDFDF",
"3X c #D9F5F5",
"4X c #71DCDC",
"5X c #67D9D9",
"6X c #BDEFEF",
"7X c #7FDFDF",
"8X c #39CDCD",
"9X c #E6F9F9",
"0X c #E1F7F7",
"qX c #32CBCB",
"wX c #EDFBFB",
"eX c #66D9D9",
"rX c #56D5D5",
"tX c #88E1E1",
"yX c #91E4E4",
"uX c #C7F1F1",
/* pixels */
"                                                                                                                                ",
"                                                                                                                                ",
"                                                                                                                                ",
"                                                                              . X o O + @ #                                     ",
"                                                                          $ @ % & * = - ; : > $                                 ",
"                                                                          , < 1 2 3 4 5 & 1 6 7 8                               ",
"                                                                        9 0 q w e # r t y u i 6 p                               ",
"                                                                      a s 1 d f           g h j : k                             ",
"                                                                      l z x p               9 c x v b                           ",
"                                                                      n m M N           $ X B V = 6 C Z A                       ",
"                                                                      S - D .           # F G H J K = - L P                     ",
"                                                                      , m I U           Y O T R E p W Q ! ~ y                   ",
"                                                                      ^ / ( )             8 _         ` ' 1 D N                 ",
"                                                                      a ] j F [                         X { } |                 ",
"                                                                        > ; -  .                        _ ..1 X.                ",
"                                                                      r o.O.& +.                          @.j #.Y               ",
"                                                                    $.%.&.*.=._                           -.;.#.Y               ",
"                                                                    :.2 m >.,.      <.1.2.              r 3.1 4.                ",
"                                                                  ) 5.q 6.#         7.m 8.N             9.0.( )                 ",
"                                                                l q.;.w.e.          r.5.O.t.f       _ P q.;.] .                 ",
"                                                              y.u.1 i.p.            _ a.j s.d.W :.f.g./ ;.h.2.                  ",
"                                                            g % ;.j.X               k.l.s.2 - j * i 1 &.3.z.                    ",
"                                                          b t.- x.9.              ^ c.;.w e v.% b.F n.m.#                       ",
"                                                        Y M.N.x 7 $             A C 1 d.B.    r # b $.                          ",
"                                                      $ 7.V } @._             U s = ~ 9                                         ",
"                                                      m.V.* C.a             . Z.i 6 A.                                          ",
"                  _ g g 8                           e S.= ] N             Y D.H ( F.$                                           ",
"                  f.G.I y                         H.J.1 d K.            $ S ( H -.Y                                             ",
"                $ L.P.I.p                       [ d 1 I H.              A./ i Z..                                               ",
"                  U.9 z.Y                     N ] = S.e               9 ~ = s U                                                 ",
"                                            a C.* z m.              B.M 1 C A                                                   ",
"                                          _ @.Y.V 7.$             f w 1 c.^                                                     ",
"                                        $ 7 x N.M.Y             T.R.q E.k.                                                      ",
"                                        9.x.- t.b             W.Q.O.c !.                                                        ",
"                          a ~.e.T.8   ^.j.;.% g             _ /.&.K (.8                               Y z.9 U.                  ",
"                      )._.`.'.].i.[., i.1 u.y.              {.J m }.,.                                p I.P.L.$                 ",
"                    y b.* = } K i ;.|.= q.l               ) 5.- B #                                   y I G.f.                  ",
"                   X.X1 ~ XX9.oXS w Y.E.)               OXq.;.`.+X                                    8 g g _                   ",
"                T.@X1 #X$X        U.!.@ $             y.u.1 #X%X                                                                ",
"                &X&.6 @                             g % ;..XX                                                                   ",
"                *X1 =XY                           b t.- x.-X                                                                    ",
"              ,.s ;.@.                          ,.;XN.; o                                                                       ",
"              Y :X;.>X                          n ,XH @._                                                                       ",
"                4.;.<X,.                        1XO.( 9.                                                                        ",
"                -XV V.oX    a + !._             U 2Xj u b                                                                       ",
"                k 3.1 L y   y ; c.~.              @ 2 c 3X                                                                      ",
"                  ^ J.j { *XT q 4Xb               T.5XO.6X                                                                      ",
"                    $X@XH 1 - 1 7X,.              . D - F.                                                                      ",
"                      N {.R.G.= b.T.              ~.J.8Xm.                                                                      ",
"                          8 k.2 ; p               &XK { B.                                                                      ",
"                            . h 1 C 9X          0X5X;.B ,.                                                                      ",
"                              y E.qXu.v wXt )., eXj q.H.                                                                        ",
"                                | rX1 K q.b.j.} j '.k.                                                                          ",
"                                  OXtX{ Y.m *.~ yXB.                                                                            ",
"                                    ,.B.uX!.p A _                                                                               ",
"                                                                                                                                ",
"                                                                                                                                ",
"                                                                                                                                ",
"                                                                                                                                ",
"                                                                                                                                ",
"                                                                                                                                ",
"                                                                                                                                ",
"                                                                                                                                ",
"                                                                                                                                "
};
