/* XPM */
static char *collectable__2_1710156750[] = {
/* columns rows colors chars-per-pixel */
"64 64 226 2 ",
"   c white",
".  c #EDFAFA",
"X  c #C9F1F1",
"o  c #AEEBEB",
"O  c #A8E9E9",
"+  c #B8EDED",
"@  c #DAF6F6",
"#  c #F9FEFE",
"$  c #F8FDFD",
"%  c #B5EDED",
"&  c #64D8D8",
"*  c #3ECECE",
"=  c #33CCCC",
"-  c #31CCCC",
";  c #36CDCD",
":  c #4BD2D2",
">  c #88E1E1",
",  c #DEF7F7",
"<  c #9BE6E6",
"1  c #3DCFCF",
"2  c #52D4D4",
"3  c #75DCDC",
"4  c #80DFDF",
"5  c #69DADA",
"6  c #41CFCF",
"7  c #31CBCB",
"8  c #5ED7D7",
"9  c #D0F3F3",
"0  c #B2ECEC",
"q  c #3DCECE",
"w  c #94E4E4",
"e  c #E1F7F7",
"r  c #FAFEFE",
"t  c #F3FCFC",
"y  c #C7F1F1",
"u  c #67D9D9",
"i  c #62D8D8",
"p  c #E4F8F8",
"a  c #E6F9F9",
"s  c #5BD6D6",
"d  c #35CDCD",
"f  c #9AE6E6",
"g  c #E0F7F7",
"h  c #63D8D8",
"j  c #32CCCC",
"k  c #B6EDED",
"l  c #60D7D7",
"z  c #EAFAFA",
"x  c #FEFFFF",
"c  c #A4E8E8",
"v  c #35CCCC",
"b  c #A3E8E8",
"n  c #C2F0F0",
"m  c #E7F9F9",
"M  c #93E4E4",
"N  c #2FCBCB",
"B  c #8FE3E3",
"V  c #F4FCFC",
"C  c #9EE7E7",
"Z  c #50D3D3",
"A  c #3ACECE",
"S  c #A9EAEA",
"D  c #FDFEFE",
"F  c #89E2E2",
"G  c #30CBCB",
"H  c #4ED3D3",
"J  c #3BCECE",
"K  c #7BDEDE",
"L  c #77DDDD",
"P  c #57D5D5",
"I  c #38CDCD",
"U  c #F0FBFB",
"Y  c #98E5E5",
"T  c #BFEFEF",
"R  c #C1F0F0",
"E  c #EEFBFB",
"W  c #A2E8E8",
"Q  c #47D1D1",
"!  c #FBFEFE",
"~  c #BCEEEE",
"^  c #59D5D5",
"/  c #E5F8F8",
"(  c #3ECFCF",
")  c #49D1D1",
"_  c #D4F4F4",
"`  c #E9FAFA",
"'  c #8DE3E3",
"]  c #F5FCFC",
"[  c #F6FDFD",
"{  c #39CECE",
"}  c #AFEBEB",
"|  c #AAEAEA",
" . c #7ADEDE",
".. c #F9FDFD",
"X. c #43D0D0",
"o. c #B0EBEB",
"O. c #B9EEEE",
"+. c #6EDBDB",
"@. c #E3F8F8",
"#. c #81DFDF",
"$. c #A7E9E9",
"%. c #83E0E0",
"&. c #E2F8F8",
"*. c #BDEFEF",
"=. c #F2FCFC",
"-. c #70DBDB",
";. c #A1E7E7",
":. c #FDFFFF",
">. c #A6E9E9",
",. c #C8F1F1",
"<. c #D9F5F5",
"1. c #49D2D2",
"2. c #C4F0F0",
"3. c #4FD3D3",
"4. c #48D1D1",
"5. c #84E0E0",
"6. c #34CCCC",
"7. c #ABEAEA",
"8. c #96E5E5",
"9. c #41D0D0",
"0. c #A5E9E9",
"q. c #E1F8F8",
"w. c #60D8D8",
"e. c #85E1E1",
"r. c #CDF2F2",
"t. c #45D0D0",
"y. c #37CDCD",
"u. c #6ADADA",
"i. c #95E5E5",
"p. c #F5FDFD",
"a. c #7FDFDF",
"s. c #65D9D9",
"d. c #53D4D4",
"f. c #F7FDFD",
"g. c #FCFEFE",
"h. c #4CD2D2",
"j. c #CCF2F2",
"k. c #4AD2D2",
"l. c #ECFAFA",
"z. c #CBF2F2",
"x. c #BAEEEE",
"c. c #D3F4F4",
"v. c #F1FCFC",
"b. c #C3F0F0",
"n. c #46D1D1",
"m. c #ACEAEA",
"M. c #5DD7D7",
"N. c #DFF7F7",
"B. c #87E1E1",
"V. c #F1FBFB",
"C. c #68D9D9",
"Z. c #7DDEDE",
"A. c #66D9D9",
"S. c #E5F9F9",
"D. c #CFF3F3",
"F. c #9FE7E7",
"G. c #4DD2D2",
"H. c #EFFBFB",
"J. c #BEEFEF",
"K. c #3CCECE",
"L. c #C0EFEF",
"P. c #44D0D0",
"I. c #ADEBEB",
"U. c #B7EDED",
"Y. c #95E4E4",
"T. c #59D6D6",
"R. c #8DE2E2",
"E. c #DCF6F6",
"W. c #8BE2E2",
"Q. c #A1E8E8",
"!. c #40CFCF",
"~. c #76DDDD",
"^. c #6CDADA",
"/. c #E9F9F9",
"(. c #78DDDD",
"). c #E8F9F9",
"_. c #D5F5F5",
"`. c #EBFAFA",
"'. c #99E6E6",
"]. c #51D3D3",
"[. c #D2F4F4",
"{. c #BBEEEE",
"}. c #B4ECEC",
"|. c #42D0D0",
" X c #B1ECEC",
".X c #D8F5F5",
"XX c #56D5D5",
"oX c #92E4E4",
"OX c #EDFBFB",
"+X c #73DCDC",
"@X c #71DBDB",
"#X c #74DCDC",
"$X c #6DDADA",
"%X c #55D5D5",
"&X c #D6F5F5",
"*X c #3FCFCF",
"=X c #B5ECEC",
"-X c #D5F4F4",
";X c #CDF3F3",
":X c #97E5E5",
">X c #54D4D4",
",X c #C6F1F1",
"<X c #79DDDD",
"1X c #4DD3D3",
"2X c #72DBDB",
"3X c #58D5D5",
"4X c #5CD6D6",
"5X c #2DCBCB",
"6X c #D9F6F6",
"7X c #D7F5F5",
"8X c #6DDBDB",
"9X c #52D3D3",
"0X c #7DDFDF",
"qX c #8EE3E3",
"wX c #B9EDED",
"eX c #BDEEEE",
"rX c #DDF6F6",
"tX c #9CE6E6",
"yX c #9DE7E7",
"uX c #8AE2E2",
"iX c #99E5E5",
"pX c #B1EBEB",
"aX c #7EDFDF",
"sX c #75DDDD",
"dX c #CAF2F2",
"fX c #90E3E3",
/* pixels */
"                                                                                                                                ",
"                                                                                                                                ",
"                                                                            . X o O + @ #                                       ",
"                                                                        $ % & * = - ; : > ,                                     ",
"                                                                      $ < 1 = 2 3 4 5 6 7 8 9                                   ",
"                                                                      0 q 1 w e $ r t y u - i p                                 ",
"                                                                    a s d f r           g h j f                                 ",
"                                                                    k ; l z             x c v 2 b n m x                         ",
"                                                                  x M N B x           V C Z - N - A s S t                       ",
"                                                                  D F G C             , H J i K L P d I F U                     ",
"                                                                    Y G F D           $ T R E # $ a W Q d Y !                   ",
"                                                                    ~ I ^ /                         x 0 ( ) _                   ",
"                                                                    ` l = ' ]                         [ L - C                   ",
"                                                                      + ( { }                           | j  ...                ",
"                                                                      y X.I o.                          O.d +.[                 ",
"                                                                    @.& j #.t                           $.j  ...                ",
"                                                                  V %.- i &.      t O *.D             =.-.j ;.                  ",
"                                                                :.>.{ ) ,.        <.Q 1.2.          ! >.{ 3.@                   ",
"                                                                y 4.{ O :.        V 5.6.3.7.m [ V , 8.9.{ 0.:.                  ",
"                                                              q.w.- e.]             r.t.N y.P +.u.H j q i.p.                    ",
"                                                            t a.7 s.p             V %.6.d.8 ( v ; X.u.+ f.                      ",
"                                                          g.W I h.j.            D c I k.,.l.z.+ x.c.v.                          ",
"                                                          b.n.J m.x             2.Q A S x                                       ",
"                                                        , M.j F [             N.8 j B.[                                         ",
"                                                      V.K 7 C.m             =.Z.7 A.S.                                          ",
"                                                    g.C ; H D.            g.F.y.G.r.                                            ",
"                  g.H.$                             J.X.K.} x             L.P.J I.x                                             ",
"                  U.M.Y...                        @ T.= R.f.            E.s j W.f.                                              ",
"                x Q.!.4 f.                      H.~.G ^./.            H.(.G u.).                                                ",
"                  =._.`.                      ! '.v ].[.            ! f d 3.9                                                   ",
"                                              {.9.( }.              ~ |.1  X                                                    ",
"                                            .XXX6.oX..            <.P = B $                                                     ",
"                                          OX+XG @Xl.            OX#XG $Xz                                                       ",
"                                        r i.6.%X&X            r 8.6.2 c.                                                        ",
"                                        U.*X!.O.              + !.*X=X                                  `.-X=.                  ",
"                          f.g ;Xj.E.p._ d.6.:Xr             &X>X6.M #                                 [ a.!.Q.x                 ",
"                      ! ,X<X1X( 1 k.-.l - #XE             l.@XG 2Xl.                                  ..w M.U.                  ",
"                    # b P.G 9.3X4XQ j 5X3X6X            # oX6.%X7X                                      $ H.g.                  ",
"                     X( A 5.;X`.E 7XY 8Xn               }.( 9.x.                                                                ",
"                  g XX; :X[         D V x             c.9Xv Y r                                                                 ",
"                  $.= C.OX                          z $XG ~.E                                                                   ",
"                # 0X- W                           $ qX= T.@                                                                     ",
"                [ +.v wX                          + 1 !.eX                                                                      ",
"                $ L = o                           $.d |.b.                                                                      ",
"                  :XG a...      ..f.              H.4 j u.E                                                                     ",
"                  j.|.X.T     [ oXe.H.              , d.J n                                                                     ",
"                  $ F j ].k V rX1.: e               ! 5.G tX                                                                    ",
"                    m L 6.K.$X .I ^ l.                yXG uXD                                                                   ",
"                      l.iXH 6.G G ].@.              x oXG oXx                                                                   ",
"                        g.E.pXB ) A x.              E s.v 0                                                                     ",
"                              ! ' G 5 a           :.$.I >Xq.                                                                    ",
"                                @ %Xj #X7Xr   x E $.t.I >.x                                                                     ",
"                                  L.Z G G.aXY qX& I I qXV                                                                       ",
"                                  x 9 sX*X- G G ; P $.V                                                                         ",
"                                      t dXW fXY U.@.x                                                                           ",
"                                            x                                                                                   ",
"                                                                                                                                ",
"                                                                                                                                ",
"                                                                                                                                ",
"                                                                                                                                ",
"                                                                                                                                ",
"                                                                                                                                ",
"                                                                                                                                ",
"                                                                                                                                "
};
