/* XPM */
static char *collectable__20_1710156751[] = {
/* columns rows colors chars-per-pixel */
"64 64 214 2 ",
"   c white",
".  c #FBFEFE",
"X  c #DFF7F7",
"o  c #BCEEEE",
"O  c #A9E9E9",
"+  c #ABEAEA",
"@  c #C4F0F0",
"#  c #E9F9F9",
"$  c #E7F9F9",
"%  c #93E4E4",
"&  c #50D3D3",
"*  c #37CDCD",
"=  c #32CCCC",
"-  c #3BCECE",
";  c #5CD6D6",
":  c #AAEAEA",
">  c #F3FCFC",
",  c #E0F7F7",
"<  c #6EDADA",
"1  c #3DCECE",
"2  c #63D8D8",
"3  c #7EDFDF",
"4  c #7ADEDE",
"5  c #5BD6D6",
"6  c #36CDCD",
"7  c #38CDCD",
"8  c #89E2E2",
"9  c #F0FBFB",
"0  c #78DDDD",
"q  c #31CBCB",
"w  c #59D5D5",
"e  c #BBEEEE",
"r  c #EFFBFB",
"t  c #FAFEFE",
"y  c #F9FEFE",
"u  c #E9FAFA",
"i  c #A5E8E8",
"p  c #46D1D1",
"a  c #35CDCD",
"s  c #99E5E5",
"d  c #B3ECEC",
"f  c #CEF3F3",
"g  c #FEFFFF",
"h  c #B0EBEB",
"j  c #49D1D1",
"k  c #D4F4F4",
"l  c #F7FDFD",
"z  c #76DDDD",
"x  c #9DE6E6",
"c  c #F8FDFD",
"v  c #79DDDD",
"b  c #9DE7E7",
"n  c #EAFAFA",
"m  c #57D5D5",
"M  c #40CFCF",
"N  c #F6FDFD",
"B  c #CDF3F3",
"V  c #74DCDC",
"C  c #5CD7D7",
"Z  c #B4ECEC",
"A  c #E2F8F8",
"S  c #E4F8F8",
"D  c #4FD3D3",
"F  c #DAF6F6",
"G  c #AEEBEB",
"H  c #31CCCC",
"J  c #30CBCB",
"K  c #55D4D4",
"L  c #EBFAFA",
"P  c #3DCFCF",
"I  c #CAF2F2",
"U  c #B9EDED",
"Y  c #5FD7D7",
"T  c #7CDEDE",
"R  c #94E4E4",
"E  c #88E1E1",
"W  c #8CE2E2",
"Q  c #7BDEDE",
"!  c #FCFEFE",
"~  c #A2E8E8",
"^  c #43D0D0",
"/  c #FDFFFF",
"(  c #3CCECE",
")  c #FDFEFE",
"_  c #A7E9E9",
"`  c #53D4D4",
"'  c #C8F1F1",
"]  c #9FE7E7",
"[  c #67D9D9",
"{  c #35CCCC",
"}  c #B2ECEC",
"|  c #D0F3F3",
" . c #69DADA",
".. c #92E4E4",
"X. c #CFF3F3",
"o. c #5AD6D6",
"O. c #30CCCC",
"+. c #6ADADA",
"@. c #DEF7F7",
"#. c #9CE6E6",
"$. c #59D6D6",
"%. c #6BDADA",
"&. c #D9F6F6",
"*. c #B6EDED",
"=. c #F1FCFC",
"-. c #86E1E1",
";. c #6CDADA",
":. c #A9EAEA",
">. c #54D4D4",
",. c #C2F0F0",
"<. c #CDF2F2",
"1. c #58D5D5",
"2. c #6DDADA",
"3. c #ADEBEB",
"4. c #EDFAFA",
"5. c #80DFDF",
"6. c #EEFBFB",
"7. c #6EDBDB",
"8. c #E1F8F8",
"9. c #2FCBCB",
"0. c #A6E9E9",
"q. c #C7F1F1",
"w. c #73DCDC",
"e. c #34CCCC",
"r. c #4AD2D2",
"t. c #CCF2F2",
"y. c #6FDBDB",
"u. c #3ACECE",
"i. c #34CDCD",
"p. c #4DD3D3",
"a. c #5ED7D7",
"s. c #3ECFCF",
"d. c #52D4D4",
"f. c #CBF2F2",
"g. c #56D5D5",
"h. c #70DBDB",
"j. c #E3F8F8",
"k. c #8BE2E2",
"l. c #A8E9E9",
"z. c #64D8D8",
"x. c #44D0D0",
"c. c #89E1E1",
"v. c #D7F5F5",
"b. c #55D5D5",
"n. c #71DBDB",
"m. c #F1FBFB",
"M. c #8AE2E2",
"N. c #D6F5F5",
"B. c #E5F9F9",
"V. c #C9F2F2",
"C. c #72DCDC",
"Z. c #47D1D1",
"A. c #B5EDED",
"S. c #75DCDC",
"D. c #87E1E1",
"F. c #C6F1F1",
"G. c #E6F9F9",
"H. c #48D1D1",
"J. c #B7EDED",
"K. c #C5F0F0",
"L. c #51D4D4",
"P. c #76DCDC",
"I. c #85E1E1",
"U. c #B8EDED",
"Y. c #85E0E0",
"T. c #C3F0F0",
"R. c #84E0E0",
"E. c #B9EEEE",
"W. c #E8F9F9",
"Q. c #83E0E0",
"!. c #BAEEEE",
"~. c #DBF6F6",
"^. c #82DFDF",
"/. c #9BE6E6",
"(. c #4BD2D2",
"). c #77DDDD",
"_. c #ECFAFA",
"`. c #81DFDF",
"'. c #33CCCC",
"]. c #41CFCF",
"[. c #7FDFDF",
"{. c #D2F4F4",
"}. c #4CD2D2",
"|. c #BDEFEF",
" X c #7DDEDE",
".X c #4DD2D2",
"XX c #BFEFEF",
"oX c #4ED3D3",
"OX c #C0EFEF",
"+X c #C1F0F0",
"@X c #91E3E3",
"#X c #95E5E5",
"$X c #ADEAEA",
"%X c #6DDBDB",
"&X c #BEEFEF",
"*X c #98E5E5",
"=X c #C1EFEF",
"-X c #42D0D0",
";X c #ACEAEA",
":X c #82E0E0",
">X c #EDFBFB",
",X c #3FCFCF",
"<X c #A0E7E7",
"1X c #C5F1F1",
"2X c #D1F3F3",
"3X c #F5FDFD",
"4X c #41D0D0",
"5X c #F2FCFC",
"6X c #65D9D9",
"7X c #8FE3E3",
"8X c #95E4E4",
"9X c #AFEBEB",
"0X c #96E5E5",
"qX c #A4E8E8",
/* pixels */
"                                                                                                                                ",
"                                                                                                                                ",
"                                                                                                                                ",
"                                                                                                                                ",
"                                                                                                                                ",
"                                                                                                                                ",
"                                                                                                                                ",
"                                                                                . X o O + @ #                                   ",
"                                                                              $ % & * = = - ; : >                               ",
"                                                                            , < = 1 2 3 4 5 6 7 8 9                             ",
"                                                                          9 0 q w e r t y u i p a s .                           ",
"                                                                          d 7 & f           g h 1 j k                           ",
"                                                                        l z = x               c v q b                           ",
"                                                                        n m M f             N B V q C Z A g                     ",
"                                                                        S D p F             G M = H J 6 K i >                   ",
"                                                                        L w P I             U Y T R E Y * 7 W >                 ",
"                                                                        c Q q R !           . r c   ! L ~ ^ 7 i /               ",
"                                                                          o ( j I                       ) _ 7 ` ,               ",
"                                                                          ' p q ]                         r [ { }               ",
"                                                                        | 5 =  .,                         g ..J % g             ",
"                                                                      X.o.O.+.@.                            #.J W /             ",
"                                                                    X.$.J %.X         &.*.=.              ! -.J #.              ",
"                                                                  f w J ;.,         . -.7 :.              X >.- ,.              ",
"                                                                <.1.q 2.,             3.7 & I           4.5.H +.6.              ",
"                                                              <.m q 7.8.              A K 9.& 0.X r n q.w.e.r.q.                ",
"                                                            t.m q y.A               =.W 7 u.6 i.p.a.1.s.J d.e /                 ",
"                                                          f.g.q h.j.              =.k.6 p : l.z.x.( M >.c.v.g                   ",
"                                                        f.b.q n.j.              m.M.a p Z /   r N.I X.B..                       ",
"                                                      V.K q C.S               9 8 a p Z )                                       ",
"                                                    ' >.= V S               9 E a Z.A./                                         ",
"                                                  q.` = S.B.              r D.{ Z.*.)                                           ",
"                                                F.d.= S.G.              r -.{ H.J./                                             ",
"                                              K.L.= P.G.              r I.e.H.U./                                               ",
"                                            @ L.= z G.              6.Y.e.j U /                                                 ",
"                                          T.& = 0 $               6.R.e.j E.g                                                   ",
"                                        T.D = v W.              4.Q.e.r.!.g                                                     ",
"                      g 9 X ~.G.l     ,.D = 4 W.              4.^.e.r.e g                                                       ",
"                    A /.2 (.Z.` ).o e D = Q #               _.`.'.(.o g                                                         ",
"                  V.Y = 6 H.p.].q ( M e.T u               L [.'.(.o g                                                           ",
"                {.K H z.d ~.A X.% p { 3 n               L 3 '.}.|.g                                                             ",
"              > S.J C.S         ! q.+ _.              n  X'..XXXg                                                               ",
"              ' s.p.N.                              u Q '.p.XXg                                                                 ",
"              ] q `.t                             W.4 = oXOX                                                                    ",
"            / W J #.                            W.v = oX+X                                                                      ",
"            g @XJ #X                          W.0 '.D ,.                                                                        ",
"              $X'.%X>       g                 ~ '.^ &X                                                                          ",
"              ~.p.( Z     n *X+Xg             =X-XM @                                                                           ",
"              ! s e.p.J.l ;X'.T y             t c.J :Xt                                                                         ",
"                >X3 e.,XS.C '.<X                1X- ; 4.                                                                        ",
"                  _.R H.H q 7 U.                &.p D S                                                                         ",
"                    . k <X` e.+                 2X].b.#                                                                         ",
"                          #XJ T c               i '.n.3X                                                                        ",
"                          t.^ 4Xo             F 1.a +                                                                           ",
"                          c k.= & J.5Xg   l t.6XJ ;.L                                                                           ",
"                            W.0 '.1 %.7XR ).p J a.k                                                                             ",
"                              L 8X.Xe.J J H -X3 ~.                                                                              ",
"                                . ~.9X0X..qXf N                                                                                 ",
"                                        g                                                                                       ",
"                                                                                                                                ",
"                                                                                                                                ",
"                                                                                                                                ",
"                                                                                                                                ",
"                                                                                                                                ",
"                                                                                                                                "
};
