/* XPM */
static char *collectable__26_1710156751[] = {
/* columns rows colors chars-per-pixel */
"64 64 217 2 ",
"   c white",
".  c #FDFFFF",
"X  c #ECFAFA",
"o  c #D8F5F5",
"O  c #D3F4F4",
"+  c #E0F7F7",
"@  c #F4FCFC",
"#  c #DFF7F7",
"$  c #95E4E4",
"%  c #5ED7D7",
"&  c #45D0D0",
"*  c #41D0D0",
"=  c #4DD3D3",
"-  c #6FDBDB",
";  c #B1EBEB",
":  c #F2FCFC",
">  c #FEFFFF",
",  c #C2F0F0",
"<  c #59D6D6",
"1  c #31CCCC",
"2  c #39CECE",
"3  c #4FD3D3",
"4  c #56D5D5",
"5  c #46D1D1",
"6  c #33CCCC",
"7  c #38CDCD",
"8  c #7EDEDE",
"9  c #E6F9F9",
"0  c #CDF3F3",
"q  c #69DADA",
"w  c #BAEEEE",
"e  c #E3F8F8",
"r  c #EAFAFA",
"t  c #D7F5F5",
"y  c #9FE7E7",
"u  c #4CD2D2",
"i  c #32CCCC",
"p  c #71DCDC",
"a  c #78DDDD",
"s  c #E8F9F9",
"d  c #C5F0F0",
"f  c #B0EBEB",
"g  c #C9F1F1",
"h  c #3ECFCF",
"j  c #4ED3D3",
"k  c #D9F6F6",
"l  c #A0E7E7",
"z  c #6ADADA",
"x  c #F1FCFC",
"c  c #A2E8E8",
"v  c #7FDFDF",
"b  c #FAFEFE",
"n  c #4BD2D2",
"m  c #47D1D1",
"M  c #DAF6F6",
"N  c #8EE3E3",
"B  c #30CCCC",
"V  c #99E6E6",
"C  c #FCFEFE",
"Z  c #E2F8F8",
"A  c #52D4D4",
"S  c #CBF2F2",
"D  c #94E4E4",
"F  c #30CBCB",
"G  c #91E4E4",
"H  c #D1F4F4",
"J  c #3DCFCF",
"K  c #36CDCD",
"L  c #7CDEDE",
"P  c #D5F5F5",
"I  c #B4ECEC",
"U  c #35CCCC",
"Y  c #67D9D9",
"T  c #EEFBFB",
"R  c #63D8D8",
"E  c #58D5D5",
"W  c #54D4D4",
"Q  c #31CBCB",
"!  c #B5ECEC",
"~  c #F0FBFB",
"^  c #98E5E5",
"/  c #37CDCD",
"(  c #3FCFCF",
")  c #CCF2F2",
"_  c #EDFBFB",
"`  c #EBFAFA",
"'  c #C0EFEF",
"]  c #71DBDB",
"[  c #34CCCC",
"{  c #FDFEFE",
"}  c #CEF3F3",
"|  c #72DCDC",
" . c #39CDCD",
".. c #7ADEDE",
"X. c #E7F9F9",
"o. c #EDFAFA",
"O. c #81E0E0",
"+. c #66D9D9",
"@. c #9CE6E6",
"#. c #49D2D2",
"$. c #AAEAEA",
"%. c #F1FBFB",
"&. c #E1F8F8",
"*. c #BCEEEE",
"=. c #69D9D9",
"-. c #3BCECE",
";. c #D9F5F5",
":. c #8FE3E3",
">. c #E5F8F8",
",. c #43D0D0",
"<. c #5AD6D6",
"1. c #F5FDFD",
"2. c #DDF7F7",
"3. c #A8E9E9",
"4. c #F7FDFD",
"5. c #5FD7D7",
"6. c #40CFCF",
"7. c #8AE2E2",
"8. c #68D9D9",
"9. c #60D7D7",
"0. c #9DE7E7",
"q. c #88E1E1",
"w. c #DCF6F6",
"e. c #85E0E0",
"r. c #BFEFEF",
"t. c #F9FDFD",
"y. c #EFFBFB",
"u. c #62D8D8",
"i. c #B6EDED",
"p. c #A9E9E9",
"a. c #F3FCFC",
"s. c #AFEBEB",
"d. c #96E5E5",
"f. c #83E0E0",
"g. c #2FCBCB",
"h. c #E5F9F9",
"j. c #D4F4F4",
"k. c #79DEDE",
"l. c #35CDCD",
"z. c #6DDADA",
"x. c #C9F2F2",
"c. c #FBFEFE",
"v. c #95E5E5",
"b. c #45D1D1",
"n. c #75DDDD",
"m. c #B2EBEB",
"M. c #4DD2D2",
"N. c #97E5E5",
"B. c #A3E8E8",
"V. c #74DCDC",
"C. c #50D3D3",
"Z. c #82E0E0",
"A. c #3ACECE",
"S. c #77DDDD",
"D. c #F5FCFC",
"F. c #51D3D3",
"G. c #9EE7E7",
"H. c #E9F9F9",
"J. c #99E5E5",
"K. c #53D4D4",
"L. c #ACEAEA",
"P. c #B3ECEC",
"I. c #44D0D0",
"U. c #E4F8F8",
"Y. c #C7F1F1",
"T. c #DEF7F7",
"R. c #3CCECE",
"E. c #81DFDF",
"W. c #7EDFDF",
"Q. c #89E2E2",
"!. c #85E1E1",
"~. c #9AE6E6",
"^. c #C3F0F0",
"/. c #42D0D0",
"(. c #5BD6D6",
"). c #F6FDFD",
"_. c #4AD2D2",
"`. c #6CDADA",
"'. c #CAF2F2",
"]. c #B8EDED",
"[. c #5DD7D7",
"{. c #8CE2E2",
"}. c #CFF3F3",
"|. c #6EDBDB",
" X c #A1E7E7",
".X c #86E1E1",
"XX c #51D4D4",
"oX c #64D8D8",
"OX c #F9FEFE",
"+X c #2ECBCB",
"@X c #73DCDC",
"#X c #F8FDFD",
"$X c #BBEEEE",
"%X c #80DFDF",
"&X c #57D5D5",
"*X c #92E4E4",
"=X c #8DE2E2",
"-X c #D6F5F5",
";X c #BDEFEF",
":X c #E1F7F7",
">X c #A6E9E9",
",X c #A1E8E8",
"<X c #59D5D5",
"1X c #76DDDD",
"2X c #D2F4F4",
"3X c #C6F1F1",
"4X c #49D1D1",
"5X c #70DBDB",
"6X c #7BDEDE",
"7X c #C5F1F1",
"8X c #55D4D4",
"9X c #93E4E4",
"0X c #48D1D1",
"qX c #7DDFDF",
"wX c #65D9D9",
"eX c #D1F3F3",
"rX c #C8F1F1",
/* pixels */
"                                                                                                                                ",
"                                                                                                                                ",
"                                                                                                                                ",
"                                                                                                                                ",
"                                                                                                                                ",
"                                                                                                                                ",
"                                                                                                                                ",
"                                                                                                                                ",
"                                                                                                                                ",
"                                                                                                                                ",
"                                                                                                                                ",
"                                                                                        . X o O + @                             ",
"                                                                                      # $ % & * = - ; :                         ",
"                                                                                  > , < 1 2 3 4 5 6 7 8 9                       ",
"                                                                                  0 3 6 q w e r t y u i 8 :                     ",
"                                                                                : p 1 a s           d u 7 f                     ",
"                                                                                g h j k               l 6 z x                   ",
"                                                                                c 1 v b               # n m M                   ",
"                                                                              > N B V             C Z , A h S                   ",
"                                                                              > D F G >           H 4 J 6 K L P >               ",
"                                                                                I U Y T           P R E W J Q j ! C             ",
"                                                                              ~ ^ / ( )           . _ ` 9 ' ] [ m ,             ",
"                                                                          { } | /  ...X.                    o.O.1 +.X           ",
"                                                                        ` @.#.F A $.%.                        &.E  .*.          ",
"                                                                    b d =.[ -.v ;.                            > :.F G >         ",
"                                                                  >.G ,.Q <.I 1.        > # 2.>                 3.1 v b         ",
"                                                              4.w 5.i 6.7.+             _ 8.9.9                 0.F q.C         ",
"                                                            w.e.h 6 R r.t.              y.u.K i.              @ ] 6 p.          ",
"                                                        a.s.4 Q 5 d.X.                  t.f.g.+.h.            i.h u ;.          ",
"                                                    > j.k.2 l.z.x.c.                  X.v.b.F 6 n.;.c.    x m.M.[ N.c.          ",
"                                                  T B.j F M.c _                   t.r.R 6 ( V.C.Q 3 Z.@.v.z A.l.v _             ",
"                                              C S - K 7 S.O >                   + 7.6.i 5.w D.} p h F F F [ F.G.T               ",
"                                            H.J.m F K.L.:                   D.P.< Q I.G U.      : Y.G.7.G f T.{                 ",
"                      { C               b , +.6 R.E.M                   > t W.-.[ =.d b               { >                       ",
"                C k 3.Q.!.~.^.y.      e N /.1 (.i.).                  ~ 3.F.F _.0.`                                             ",
"              o.^ u i F F F R.`.'.@ ].[.1 * {.&.                  { } | / / V.}.{                                               ",
"            ` L [ R.|.^  X.XXX1 = ] h 6 oX' OX                  ` @.#.F A p.%.                                                  ",
"          c.D 6 j ! a.    C w...6 +Xm N.s                   b d =.[ -.v o                                                       ",
"          t _.h ].            H.Z.n.'.C                   >.G ,.Q <.I 1.                                                        ",
"          3.i @XD.              4.).                  #X$X5.i 6.7.+                                                             ",
"        C q.F G.                                    2..Xh 6 R r.t.                                                              ",
"        b %X1 3.                                @ ; &XQ 5 d.X.                                                                  ",
"        > *XF =X.                           > -XL A.l.z.x.c.                                                                    ",
"          ;XA.4 +   > :X9                 y.>XC.F u ,X_                                                                         ",
"          T =.i f.~ -X<XV.a.            X.S.7  .1X2X.                                                                           ",
"            3X4XU V.5XQ 6X4.            ) 6./ ~.:                                                                               ",
"            { ].F.Q i 6.7X              y.8.U P.                                                                                ",
"              > o W.[ 8XX.              > *XF 9X>                                                                               ",
"                  x.R.< X                 V B :.>                                                                               ",
"                  o 5 0Xk               OXqX1 B.                                                                                ",
"                  x 8.i @.>             -Xu 6.S                                                                                 ",
"                    s.7 _.' >         >.V.F n.a.                                                                                ",
"                    : v i _.J.O X.+ i.wXi K.eX                                                                                  ",
"                      X.v  .1 I.K.M.7 i [.rX                                                                                    ",
"                        : ! | C.,.5 5.V Z                                                                                       ",
"                            1.e -Xk _ >                                                                                         ",
"                                                                                                                                ",
"                                                                                                                                ",
"                                                                                                                                ",
"                                                                                                                                ",
"                                                                                                                                ",
"                                                                                                                                ",
"                                                                                                                                ",
"                                                                                                                                "
};
