/* XPM */
static char *collectable__6_1710156750[] = {
/* columns rows colors chars-per-pixel */
"64 64 216 2 ",
"   c white",
".  c #FEFFFF",
"X  c #F0FBFB",
"o  c #DFF7F7",
"O  c #D8F5F5",
"+  c #E3F8F8",
"@  c #F5FCFC",
"#  c #9DE6E6",
"$  c #64D8D8",
"%  c #4BD2D2",
"&  c #45D1D1",
"*  c #4FD3D3",
"=  c #71DCDC",
"-  c #B5EDED",
";  c #F4FCFC",
":  c #CCF2F2",
">  c #60D7D7",
",  c #32CCCC",
"<  c #36CDCD",
"1  c #48D1D1",
"2  c #51D3D3",
"3  c #44D0D0",
"4  c #3ACECE",
"5  c #83E0E0",
"6  c #E8F9F9",
"7  c #D7F5F5",
"8  c #58D5D5",
"9  c #31CCCC",
"0  c #63D8D8",
"q  c #B3ECEC",
"w  c #DCF6F6",
"e  c #E5F9F9",
"r  c #D4F4F4",
"t  c #99E6E6",
"y  c #49D2D2",
"u  c #7EDFDF",
"i  c #F1FBFB",
"p  c #F5FDFD",
"a  c #7BDEDE",
"s  c #30CBCB",
"d  c #6FDBDB",
"f  c #C2F0F0",
"g  c #4DD3D3",
"h  c #37CDCD",
"j  c #ADEAEA",
"k  c #CDF2F2",
"l  c #42CFCF",
"z  c #49D1D1",
"x  c #D2F4F4",
"c  c #A3E8E8",
"v  c #34CCCC",
"b  c #62D8D8",
"n  c #ECFAFA",
"m  c #FCFEFE",
"M  c #A5E9E9",
"N  c #7ADEDE",
"B  c #F8FDFD",
"V  c #FDFEFE",
"C  c #CFF3F3",
"Z  c #79DEDE",
"A  c #46D1D1",
"S  c #5BD6D6",
"D  c #8BE2E2",
"F  c #D5F5F5",
"G  c #93E4E4",
"H  c #30CCCC",
"J  c #95E5E5",
"K  c #E6F9F9",
"L  c #59D6D6",
"P  c #2FCBCB",
"I  c #3ECFCF",
"U  c #4CD2D2",
"Y  c #4AD2D2",
"T  c #39CDCD",
"R  c #4ED3D3",
"E  c #B1ECEC",
"W  c #FBFEFE",
"Q  c #9AE6E6",
"!  c #FDFFFF",
"~  c #F1FCFC",
"^  c #90E3E3",
"/  c #88E1E1",
"(  c #C5F1F1",
")  c #DDF7F7",
"_  c #BCEEEE",
"`  c #71DBDB",
"'  c #35CDCD",
"]  c #42D0D0",
"[  c #B6EDED",
"{  c #B7EDED",
"}  c #EEFBFB",
"|  c #FAFEFE",
" . c #EFFBFB",
".. c #8CE2E2",
"X. c #E2F8F8",
"o. c #E1F8F8",
"O. c #54D4D4",
"+. c #38CDCD",
"@. c #AAEAEA",
"#. c #EAFAFA",
"$. c #65D8D8",
"%. c #33CCCC",
"&. c #A9EAEA",
"*. c #A2E8E8",
"=. c #C1EFEF",
"-. c #7DDFDF",
";. c #DAF5F5",
":. c #4DD2D2",
">. c #BDEFEF",
",. c #6ADADA",
"<. c #F6FDFD",
"1. c #89E2E2",
"2. c #5DD7D7",
"3. c #DEF7F7",
"4. c #B8EDED",
"5. c #35CCCC",
"6. c #6DDADA",
"7. c #C3F0F0",
"8. c #8EE3E3",
"9. c #89E1E1",
"0. c #CAF2F2",
"q. c #E0F7F7",
"w. c #57D5D5",
"e. c #65D9D9",
"r. c #E1F7F7",
"t. c #3CCECE",
"y. c #BFEFEF",
"u. c #81DFDF",
"i. c #F3FCFC",
"p. c #EBFAFA",
"a. c #67D9D9",
"s. c #70DBDB",
"d. c #82E0E0",
"f. c #43D0D0",
"g. c #50D3D3",
"h. c #8AE2E2",
"j. c #ABEAEA",
"k. c #A8E9E9",
"l. c #81E0E0",
"z. c #A4E8E8",
"x. c #C9F2F2",
"c. c #3BCECE",
"v. c #40CFCF",
"b. c #C4F0F0",
"n. c #47D1D1",
"m. c #C8F1F1",
"M. c #39CECE",
"N. c #9DE7E7",
"B. c #94E4E4",
"V. c #7FDFDF",
"C. c #87E1E1",
"Z. c #61D8D8",
"A. c #68D9D9",
"S. c #80DFDF",
"D. c #31CBCB",
"F. c #CEF3F3",
"G. c #BEEFEF",
"H. c #B0EBEB",
"J. c #DAF6F6",
"K. c #5CD6D6",
"L. c #75DCDC",
"P. c #6EDBDB",
"I. c #96E5E5",
"U. c #53D4D4",
"Y. c #9BE6E6",
"T. c #3FCFCF",
"R. c #3DCECE",
"E. c #D6F5F5",
"W. c #D9F5F5",
"Q. c #8FE3E3",
"!. c #74DCDC",
"~. c #EDFBFB",
"^. c #73DCDC",
"/. c #3DCFCF",
"(. c #D0F3F3",
"). c #E7F9F9",
"_. c #69D9D9",
"`. c #6EDADA",
"'. c #5AD6D6",
"]. c #6BDADA",
"[. c #98E5E5",
"{. c #7DDEDE",
"}. c #5DD6D6",
"|. c #D9F6F6",
" X c #C7F1F1",
".X c #CDF3F3",
"XX c #D1F3F3",
"oX c #B2ECEC",
"OX c #A6E9E9",
"+X c #E9FAFA",
"@X c #CBF2F2",
"#X c #A5E8E8",
"$X c #6CDADA",
"%X c #BAEEEE",
"&X c #86E1E1",
"*X c #F9FEFE",
"=X c #56D5D5",
"-X c #DDF6F6",
";X c #41D0D0",
":X c #EDFAFA",
">X c #52D4D4",
",X c #AEEBEB",
"<X c #55D5D5",
"1X c #99E5E5",
"2X c #91E3E3",
"3X c #B4ECEC",
"4X c #45D0D0",
"5X c #D1F4F4",
"6X c #72DCDC",
"7X c #F9FDFD",
"8X c #A0E7E7",
"9X c #F2FCFC",
"0X c #C9F1F1",
"qX c #92E4E4",
"wX c #B9EEEE",
"eX c #E4F8F8",
/* pixels */
"                                                                                                                                ",
"                                                                                                                                ",
"                                                                            . X o O + @                                         ",
"                                                                          + # $ % & * = - ;                                     ",
"                                                                        : > , < 1 2 3 , 4 5 6                                   ",
"                                                                      7 8 9 0 q w e r t y , u i                                 ",
"                                                                    p a s d +         . f g h j                                 ",
"                                                                    k l z x               c v b x n m                           ",
"                                                                    M 9 N B           V C Z < v A S D F .                       ",
"                                                                  . G H J             K L P I U Y T s R E W                     ",
"                                                                    Q s D !           ~ ^ / ( o ) _ ` ' ] [                     ",
"                                                                    { < 0 }             | W          ...v 8 X.                  ",
"                                                                    o.O.+.@.!                         #.$.%.&.                  ",
"                                                                    ! *.+.1 =.                          *.9 -.|                 ",
"                                                                      ;.:.s t                           >.h ,.;                 ",
"                                                                    <.1.%.2.3.                          4.5.6.@                 ",
"                                                                  . @.4 A 7.      m O X.              V 8.s 9.m                 ",
"                                                                  0.Y +.c V       q.w.e.r.            C U t.y.                  ",
"                                                                + 0 9 u.i.        p.a.9 s.7 m     | k > s N i.                  ",
"                                                              ; d.9 b X.            ( f.9 g.h.j.k.l.1 s e.)                     ",
"                                                            V z.+.Y x.            ! k.c.4 t.s , 9 s v.u 3.                      ",
"                                                            b.n.4 &..             m.y M.N.f B.-.V.Q 0.p                         ",
"                                                          3.2., C.<.            X.Z.9 l.;   . | |                               ",
"                                                        i a s A.K             i.S.D.0 +                                         ",
"                                                      W # < R F.            m *.+.Y 0.                                          ",
"                                                      G.f.t.H..             7.A 4 @..                                           ",
"                                                    J.L %.8.B             ) K., / <.                                            ",
"                                                  } L.s P.#.            X Z s A.K                                               ",
"                                                | I.v U.r             W Y.< * C                                                 ",
"                                                4.v.T.[               _ ] R.H..                                                 ",
"                                              E.O.v J |             W.w.%.Q.B                                                   ",
"                                            p.d s !.~.            ~.^.s P.#.                                                    ",
"                                          B ^ %.w.W.            | J v U.r                                                       ",
"                                          E /.] _               [ T.v.[                                                         ",
"                                        (.* < Y.W             r U.v J |                                                         ",
"                            <.n #.i.  )._.s N X             #.`.s !.~.                                                          ",
"                        + c = '.w.].[.{.%.}.3.            B 8.%.8 |.                                                            ",
"                    . f K.%.%.I v.5.D.D.n.7.            . H.R.f.>.                                                              ",
"                     X:., $.j..XXXoXd Y OXm             C R < # W                                                               ",
"                  +X$ 9 -.).        X J.B             K A.D.a i                                                                 ",
"                  H.< S X.                          <./ , 2.3.                                                                  ",
"                | V.D.Y.                          ! @.4 n.b.                                                                    ",
"                ; ,.< _                           @XY M.#XV                                                                     ",
"                @ $X< %X                        . I.P U O                                                                       ",
"                W &Xs I.                          7 }.%.h.*X                                                                    ",
"                  { +.=X-X    *XoXH.B               7.;X1 E.                                                                    ",
"                  :X].D.` w   q.% >XK               ; d %.,X                                                                    ",
"                    C <XD.=XQ 1XM.}.}               . 2Xs I.                                                                    ",
"                      (.$Xh s 5.s K.:X              . 2Xs I.                                                                    ",
"                        :X3XV.0 c.4X5X              i.P.%.,X                                                                    ",
"                            | p.6XD.h.7X            _ I % |.                                                                    ",
"                                y.v./.8X9X      m 0Xw.%.qXW                                                                     ",
"                                7X1XM.T 6Xj b.wX..y 9 6X6                                                                       ",
"                                  p #XR D.%.M.< s I d.eX                                                                        ",
"                                    ! O Y.= 0 $X..b.@                                                                           ",
"                                          <.~ @ V                                                                               ",
"                                                                                                                                ",
"                                                                                                                                ",
"                                                                                                                                ",
"                                                                                                                                ",
"                                                                                                                                ",
"                                                                                                                                ",
"                                                                                                                                ",
"                                                                                                                                "
};
