/* XPM */
static char *collectable__27_1710156751[] = {
/* columns rows colors chars-per-pixel */
"64 64 214 2 ",
"   c white",
".  c #F9FDFD",
"X  c #D8F5F5",
"o  c #B5EDED",
"O  c #A5E9E9",
"+  c #AEEBEB",
"@  c #CDF2F2",
"#  c #F0FBFB",
"$  c #D9F5F5",
"%  c #84E0E0",
"&  c #49D2D2",
"*  c #35CCCC",
"=  c #31CBCB",
"-  c #33CCCC",
";  c #40CFCF",
":  c #6ADADA",
">  c #BBEEEE",
",  c #F9FEFE",
"<  c #C9F1F1",
"1  c #57D5D5",
"2  c #30CBCB",
"3  c #44D0D0",
"4  c #6DDBDB",
"5  c #83E0E0",
"6  c #77DDDD",
"7  c #51D4D4",
"8  c #3FCFCF",
"9  c #A0E7E7",
"0  c #DFF7F7",
"q  c #5BD6D6",
"w  c #32CCCC",
"e  c #6EDBDB",
"r  c #CCF2F2",
"t  c #F4FCFC",
"y  c #FBFEFE",
"u  c #F8FDFD",
"i  c #E1F7F7",
"p  c #93E4E4",
"a  c #3DCECE",
"s  c #B7EDED",
"d  c #FDFEFE",
"f  c #31CCCC",
"g  c #68D9D9",
"h  c #E4F8F8",
"j  c #96E5E5",
"k  c #34CCCC",
"l  c #61D8D8",
"z  c #EAFAFA",
"x  c #3ACECE",
"c  c #BCEEEE",
"v  c #E6F9F9",
"b  c #5AD6D6",
"n  c #39CDCD",
"m  c #BDEEEE",
"M  c #D3F4F4",
"N  c #42D0D0",
"B  c #53D4D4",
"V  c #8AE2E2",
"C  c #99E6E6",
"Z  c #3CCECE",
"A  c #5FD7D7",
"S  c #FDFFFF",
"D  c #74DCDC",
"F  c #30CCCC",
"G  c #8CE2E2",
"H  c #FEFFFF",
"J  c #D5F5F5",
"K  c #51D3D3",
"L  c #E3F8F8",
"P  c #EFFBFB",
"I  c #67D9D9",
"U  c #ABEAEA",
"Y  c #F2FCFC",
"T  c #E2F8F8",
"R  c #54D4D4",
"E  c #37CDCD",
"W  c #B4ECEC",
"Q  c #F7FDFD",
"!  c #9CE6E6",
"~  c #71DCDC",
"^  c #70DBDB",
"/  c #35CDCD",
"(  c #38CDCD",
")  c #EEFBFB",
"_  c #D2F4F4",
"`  c #79DEDE",
"'  c #A3E8E8",
"]  c #F6FDFD",
"[  c #A1E8E8",
"{  c #47D1D1",
"}  c #94E4E4",
"|  c #FAFEFE",
" . c #E8F9F9",
".. c #9AE6E6",
"X. c #4BD2D2",
"o. c #4CD2D2",
"O. c #9DE6E6",
"+. c #EDFAFA",
"@. c #B2ECEC",
"#. c #3ECFCF",
"$. c #46D1D1",
"%. c #CFF3F3",
"&. c #BAEEEE",
"*. c #62D8D8",
"=. c #3BCECE",
"-. c #7CDEDE",
";. c #7DDFDF",
":. c #92E4E4",
">. c #D5F4F4",
",. c #7FDFDF",
"<. c #B6EDED",
"1. c #F5FCFC",
"2. c #6CDADA",
"3. c #9FE7E7",
"4. c #4ED3D3",
"5. c #49D1D1",
"6. c #97E5E5",
"7. c #E5F9F9",
"8. c #C3F0F0",
"9. c #A8E9E9",
"0. c #C7F1F1",
"q. c #61D7D7",
"w. c #F1FBFB",
"e. c #BEEFEF",
"r. c #66D9D9",
"t. c #FCFEFE",
"y. c #F5FDFD",
"u. c #C4F0F0",
"i. c #5CD6D6",
"p. c #F3FCFC",
"a. c #88E1E1",
"s. c #8BE2E2",
"d. c #82E0E0",
"f. c #91E4E4",
"g. c #ECFAFA",
"h. c #50D3D3",
"j. c #EBFAFA",
"k. c #C0EFEF",
"l. c #CBF2F2",
"z. c #C2F0F0",
"x. c #BFEFEF",
"c. c #36CDCD",
"v. c #4FD3D3",
"b. c #E9FAFA",
"n. c #A9E9E9",
"m. c #DCF6F6",
"M. c #41CFCF",
"N. c #58D5D5",
"B. c #F1FCFC",
"V. c #A6E9E9",
"C. c #76DDDD",
"Z. c #7BDEDE",
"A. c #8EE3E3",
"S. c #E0F7F7",
"D. c #A4E8E8",
"F. c #9DE7E7",
"G. c #5ED7D7",
"H. c #A8EAEA",
"J. c #C6F1F1",
"K. c #73DCDC",
"L. c #ADEBEB",
"P. c #ADEAEA",
"I. c #ACEAEA",
"U. c #43D0D0",
"Y. c #55D4D4",
"T. c #41D0D0",
"R. c #CAF2F2",
"E. c #89E2E2",
"W. c #DDF6F6",
"Q. c #8DE3E3",
"!. c #C8F1F1",
"~. c #65D8D8",
"^. c #6BDADA",
"/. c #6FDBDB",
"(. c #E9F9F9",
"). c #64D8D8",
"_. c #E1F8F8",
"`. c #7EDFDF",
"'. c #2FCBCB",
"]. c #52D3D3",
"[. c #A5E8E8",
"{. c #8DE2E2",
"}. c #A9EAEA",
"|. c #B0EBEB",
" X c #5DD6D6",
".X c #87E1E1",
"XX c #D9F6F6",
"oX c #9EE7E7",
"OX c #72DCDC",
"+X c #52D4D4",
"@X c #EDFBFB",
"#X c #63D8D8",
"$X c #B1ECEC",
"%X c #86E1E1",
"&X c #DAF6F6",
"*X c #7ADDDD",
"=X c #A2E8E8",
"-X c #CEF3F3",
";X c #39CECE",
":X c #69D9D9",
">X c #C1EFEF",
",X c #48D1D1",
"<X c #98E5E5",
"1X c #80DFDF",
"2X c #D7F5F5",
"3X c #5DD7D7",
"4X c #3DCFCF",
"5X c #CDF3F3",
"6X c #8FE3E3",
"7X c #4AD2D2",
"8X c #DDF7F7",
"9X c #58D6D6",
"0X c #89E1E1",
"qX c #56D5D5",
/* pixels */
"                                                                                                                                ",
"                                                                                                                                ",
"                                                                                                                                ",
"                                                                                                                                ",
"                                                                                                                                ",
"                                                                                                                                ",
"                                                                                                                                ",
"                                                                                                                                ",
"                                                                                                                                ",
"                                                                                                                                ",
"                                                                                                                                ",
"                                                                                                                                ",
"                                                                                        . X o O + @ #                           ",
"                                                                                      $ % & * = - ; : > ,                       ",
"                                                                                    < 1 2 3 4 5 6 7 - 8 9 ,                     ",
"                                                                                  0 q w e r t y u i p a 8 s                     ",
"                                                                                d p f g h           . j k l z                   ",
"                                                                                z q x c               v b n m                   ",
"                                                                                M N B v                 V 2 C                   ",
"                                                                                < Z A #           S $ s D F G H                 ",
"                                                                                J 3 K L           P I - w 2 7 U Y               ",
"                                                                                T R E W           Q ! ~ ^ R / ( % )             ",
"                                                                            d _ ` n / '             y Q ] L [ { k } |           ",
"                                                                           ...X.2 o.O.+.                    H @.#.$.%.          ",
"                                                                      ] &.*.- =.-.M S                         Q ;.2 :.S         ",
"                                                                  H >.,.a w A <.1.                              o * 2.1.        ",
"                                                                z 3.4.2 5.6.7.          S 8.9.Y                 0.=.q.w.        ",
"                                                            Q e.r.k x 6 %.t.            y.e =.u.                <./ e 1.        ",
"                                                        H X 5 8 w i.@.p.                t.a.2 s.y             | d.2 f.S         ",
"                                                      g.' h.2 $.p L                     j.5 w $.k.            > N N l.          ",
"                                                  . z.: / ( D r y                   u x.I c.c.w v.+ j.| , b.n.o.- G u           ",
"                                                m.a.M.= N.+ B.                  H $ % 8 w i.V.C.k ( i.-.Z.b c.E ,.z             ",
"                                            ) 9.B 2 3 A.S.                    +.D.K 2 $.:.T   g.F.N.=.- w =.G.H.#               ",
"                    | p.p.,             | J.e c.E e 0.|                   , 8.: / ( K.l.y       S v u.L.P.u.z                   ",
"                j.@.,.I I -.I.v       0 G U.= Y.n.P                     m.a.T.= N.L.B.                                          ",
"            H R.I E = ( ( = k A z.) P.1 = T.E.W.                    P n.R = 3 Q.S.                                              ",
"            !.v.f b O.k.k.O.i.w & ~.n / ^.8.,                   | J.e c.E /.0.|                                                 ",
"          (.).w ` _.        h `.w '.].[.+.                    0 {.U.= Y.}.P                                                     ",
"          |.c. XL              ..Xa.XXH                   w.P.1 = N E.W.                                                        ",
"        | `.f oX                , |                   y l.OX( c.^.u.,                                                           ",
"        Y ~.n z.                                    T f.$.= +XV.@X                                                              ",
"        Y #Xx u.                                Y $Xq w ; %X&XH                                                                 ",
"        u *Xw =X                            t.-XC.;X/ :X>Xu                                                                     ",
"          P./ A v   ) &._.                h } ,X2 h.' g.                                                                        ",
"           .q.w 5 v <X( } H             r G.k #.1X2XH                                                                           ",
"            z.& k 3X3 4X>               F.2 5.s Q                                                                               ",
"            S x.q k '.^.Y               5XN v.L                                                                                 ",
"                _.^ '.6XH               g.b #.@                                                                                 ",
"                  6X'.}                 )  Xa l.                                                                                ",
"                  ' f D Q               $ ,X7X8X                                                                                ",
"                  %.U.3 R.            S ..w ^ t                                                                                 ",
"                  ] 1X2 r.&X        | <.$.=.s                                                                                   ",
"                    m.G.F 9X' %.&X0.0XN k V 1.                                                                                  ",
"                      M : / w ; { Z 2 N f.P                                                                                     ",
"                        j.P.K.qX4.q % 0.,                                                                                       ",
"                            ] (.L g.|                                                                                           ",
"                                                                                                                                ",
"                                                                                                                                ",
"                                                                                                                                ",
"                                                                                                                                ",
"                                                                                                                                ",
"                                                                                                                                ",
"                                                                                                                                ",
"                                                                                                                                "
};
