/* XPM */
static char *collectable__40_1710156750[] = {
/* columns rows colors chars-per-pixel */
"64 64 225 2 ",
"   c white",
".  c #F0FBFB",
"X  c #CFF3F3",
"o  c #B4ECEC",
"O  c #ACEAEA",
"+  c #BAEEEE",
"@  c #DBF6F6",
"#  c #FAFEFE",
"$  c #F8FDFD",
"%  c #EAFAFA",
"&  c #FBFEFE",
"*  c #BDEEEE",
"=  c #6ADADA",
"-  c #41D0D0",
";  c #34CCCC",
":  c #32CCCC",
">  c #36CDCD",
",  c #4CD2D2",
"<  c #89E2E2",
"1  c #DFF7F7",
"2  c #5CD6D6",
"3  c #C8F1F1",
"4  c #A3E8E8",
"5  c #41CFCF",
"6  c #4ED3D3",
"7  c #70DBDB",
"8  c #7BDEDE",
"9  c #65D8D8",
"0  c #3FCFCF",
"q  c #31CBCB",
"w  c #5FD7D7",
"e  c #D1F3F3",
"r  c #FDFEFE",
"t  c #88E1E1",
"y  c #2FCBCB",
"u  c #A0E7E7",
"i  c #B8EDED",
"p  c #40CFCF",
"a  c #3BCECE",
"s  c #8EE3E3",
"d  c #DDF7F7",
"f  c #F6FDFD",
"g  c #F9FEFE",
"h  c #F1FBFB",
"j  c #C3F0F0",
"k  c #64D9D9",
"l  c #30CCCC",
"z  c #62D8D8",
"x  c #E3F8F8",
"c  c #FEFFFF",
"v  c #93E4E4",
"b  c #30CBCB",
"n  c #95E5E5",
"m  c #E9F9F9",
"M  c #33CCCC",
"N  c #94E4E4",
"B  c #DEF7F7",
"V  c #61D8D8",
"C  c #99E5E5",
"Z  c #9EE7E7",
"A  c #2ECBCB",
"S  c #8BE2E2",
"D  c #FDFFFF",
"F  c #38CDCD",
"G  c #E7F9F9",
"H  c #B2ECEC",
"J  c #37CDCD",
"K  c #5AD6D6",
"L  c #D6F5F5",
"P  c #F3FCFC",
"I  c #CAF2F2",
"U  c #B5ECEC",
"Y  c #98E5E5",
"T  c #C1EFEF",
"R  c #A4E8E8",
"E  c #E8F9F9",
"W  c #E4F8F8",
"Q  c #FCFEFE",
"!  c #8DE2E2",
"~  c #9BE6E6",
"^  c #E0F7F7",
"/  c #50D4D4",
"(  c #42D0D0",
")  c #43D0D0",
"_  c #68D9D9",
"`  c #D4F4F4",
"'  c #B9EEEE",
"]  c #3ECFCF",
"[  c #67D9D9",
"{  c #D5F5F5",
"}  c #9AE6E6",
"|  c #87E1E1",
" . c #F2FCFC",
".. c #CEF3F3",
"X. c #A6E9E9",
"o. c #57D5D5",
"O. c #5ED7D7",
"+. c #DCF6F6",
"@. c #60D7D7",
"#. c #D1F4F4",
"$. c #BEEFEF",
"%. c #39CDCD",
"&. c #59D5D5",
"*. c #E5F8F8",
"=. c #D9F5F5",
"-. c #65D9D9",
";. c #83E0E0",
":. c #6DDBDB",
">. c #A1E8E8",
",. c #8FE3E3",
"<. c #44D0D0",
"1. c #47D1D1",
"2. c #D5F4F4",
"3. c #AFEBEB",
"4. c #C5F1F1",
"5. c #F5FDFD",
"6. c #F5FCFC",
"7. c #54D4D4",
"8. c #D9F6F6",
"9. c #8CE2E2",
"0. c #9FE7E7",
"q. c #46D1D1",
"w. c #86E1E1",
"e. c #B3ECEC",
"r. c #3CCECE",
"t. c #A9EAEA",
"y. c #ECFAFA",
"u. c #61D7D7",
"i. c #B9EDED",
"p. c #C6F1F1",
"a. c #4BD2D2",
"s. c #35CDCD",
"d. c #95E4E4",
"f. c #35CCCC",
"g. c #A8E9E9",
"h. c #56D5D5",
"j. c #D8F5F5",
"k. c #31CCCC",
"l. c #7FDFDF",
"z. c #96E5E5",
"x. c #48D1D1",
"c. c #E5F9F9",
"v. c #6BDADA",
"b. c #6CDADA",
"n. c #E6F9F9",
"m. c #7DDFDF",
"M. c #9CE6E6",
"N. c #73DCDC",
"B. c #3DCFCF",
"V. c #F1FCFC",
"C. c #5BD6D6",
"Z. c #C2F0F0",
"A. c #4AD2D2",
"S. c #EFFBFB",
"D. c #C7F1F1",
"F. c #D3F4F4",
"G. c #85E1E1",
"H. c #D7F5F5",
"J. c #84E0E0",
"K. c #75DDDD",
"L. c #81E0E0",
"P. c #E2F8F8",
"I. c #66D9D9",
"U. c #71DBDB",
"Y. c #BCEEEE",
"T. c #45D0D0",
"R. c #39CECE",
"E. c #EDFBFB",
"W. c #7ADEDE",
"Q. c #52D4D4",
"!. c #4FD3D3",
"~. c #CCF2F2",
"^. c #76DDDD",
"/. c #3ACECE",
"(. c #74DCDC",
"). c #64D8D8",
"_. c #A5E8E8",
"`. c #89E1E1",
"'. c #53D4D4",
"]. c #CBF2F2",
"[. c #F7FDFD",
"{. c #EEFBFB",
"}. c #3CCFCF",
"|. c #AAEAEA",
" X c #59D6D6",
".X c #99E6E6",
"XX c #49D1D1",
"oX c #AEEBEB",
"OX c #7EDFDF",
"+X c #9DE7E7",
"@X c #ABEAEA",
"#X c #58D5D5",
"$X c #63D8D8",
"%X c #A0E8E8",
"&X c #B0EBEB",
"*X c #97E5E5",
"=X c #5DD6D6",
"-X c #BEEEEE",
";X c #A5E9E9",
":X c #6EDBDB",
">X c #A1E7E7",
",X c #DAF6F6",
"<X c #8DE3E3",
"1X c #7CDEDE",
"2X c #B5EDED",
"3X c #D0F3F3",
"4X c #6DDADA",
"5X c #78DDDD",
"6X c #DDF6F6",
"7X c #52D3D3",
"8X c #C4F0F0",
"9X c #8AE2E2",
"0X c #D2F4F4",
"qX c #69DADA",
"wX c #C0EFEF",
"eX c #45D1D1",
"rX c #EDFAFA",
"tX c #92E4E4",
"yX c #A2E8E8",
"uX c #F9FDFD",
"iX c #EBFAFA",
"pX c #51D3D3",
"aX c #4DD2D2",
"sX c #91E4E4",
"dX c #BBEEEE",
/* pixels */
"                                                                                                                                ",
"                                                                                                                                ",
"                                                                                                                                ",
"                                                                                                                                ",
"                                                                                                                                ",
"                                                                                                                                ",
"                                                                                                                                ",
"                                                                                                                                ",
"                                                                              . X o O + @ #                                     ",
"                                                $ % &                     # * = - ; : > , < 1                                   ",
"                                                O 2 3                   # 4 5 : 6 7 8 9 0 q w e                                 ",
"                                              r t y u                   i p a s d f g h j k l z x                               ",
"                                              c v b n                 m w M N $           B V : C                               ",
"                                                Z A S D               + F 2 G               H J K L P                           ",
"                                                I 9 U                 Y b S r           # T 7 > ; , = R E                       ",
"                          . j W                 Q . &               D ! b ~             ^ / b ( , ) M ; _ `                     ",
"                          ' ] [ {                                     } b | Q            .Z ~ ..1 ` X.o.b O.+.                  ",
"                          @ @.b K #.                                  $.%.&.*.            D           =.-.b ;.$                 ",
"                            @ :.J >.                                  % z ; ,.f                         I <.1.2.                ",
"                              G i *.                                    3.F 0 4.                        5.7 M 3.                ",
"                                                                      6.< M 7.8.                        D 9.b ~                 ",
"                                                                    & 0.F q.*                           Q w.b 0.                ",
"                                                                  c e.p r.t.r       1 3.E               y.u.J i.                ",
"                                                                  p.a.s.d.$         ~ f.t f           c g.F h.x                 ",
"                                                                j.K k.l..           3 1.a z.y.      6.H x.J R c                 ",
"                                                              c.v.b b.n.            $ m.b > 9 M.H 4 N.B.f.w.V.                  ",
"                                                            . l.: C.j.              Z.A.F A.f.b M k.: a.C S.                    ",
"                                                          $ v s., D.              F.h.: G.H.O J.K.L.R H.&                       ",
"                                                        Q g.r.5 o c             P.I.b U.m     & $ &                             ",
"                                                        Y.T.R.u &             E.W.q w +.                                        ",
"                                                      X Q.M S 6.            f s ; !.~.                                          ",
"                                                    B z q ^.y.            Q R /.) i.                                            ",
"                                                  % (.b ).^               i ) /._.Q                                             ",
"                                                6.`.M '.e               ].!.; ,.[.                                              ",
"                                              & 0.F q.$.              @ O.q W.{.                                                ",
"                                            c e.p }.|.r             E 7 b [ x                                                   ",
"                                            p.a.s.N $              .J.: h.`                                                     ",
"                                          H. X: l..             # .XJ XXZ.                                                      ",
"                                        c.= b b.n.            D oX] ] oXD                                                       ",
"                              c       S.OXk.C.j.              Z.XXJ } #                                                         ",
"                      c W ' C ,.+XZ.n.v s., D.              ` h.: G.P                                                           ",
"                    f @X#XJ b b b r.&.r.- o c             P.[ b 7 m                                                             ",
"                  [.z./.J $Xs .X;.'.q R.%X&             {.W.q w +.                                                              ",
"                  &Xa - 4 E.c   & B *X4 6.            f s ; !.~.                                                                ",
"                E =Xs.+XQ           c c             Q R /.) i.                              *.i G                               ",
"                -X%.C.E                             i ) /.;XQ                               u J :X@                             ",
"                >Xb ;.&                           ].!.; ,.[.                                e  Xb @.,X                          ",
"                } b <XD                         ^ w : 1X{.                                    2.I.] '                           ",
"                O M ^.$                         Z.a R.2X                  # . Q                 W j .                           ",
"                3X) A.`       n.+.Q             V.L.: 4XS.                o -.].                                                ",
"                6.5Xb N.n.  P (. X1               6X7Xr.8X              D 9XA Z                                                 ",
"                  0X'.: qXwXD.eXa.1               & ;.b Z                 n b v c                                               ",
"                    D.C.q r.a.; 2 rX                } l <XD               u y t r                                               ",
"                      1 tX X- : Q.*.              c s b n                 D.C.O                                                 ",
"                        Q % p.Q./.Y.              y.z s.o                 & % $                                                 ",
"                            D <Xb qXn.          Q yXJ h.x                                                                       ",
"                              ,Xh.: (.H.uXc Q iXyX( R.|.c                                                                       ",
"                                Z.pXb aX8 sXt @.J R.v 5.                                                                        ",
"                                c e ^.p : b b F &.|.6.                                                                          ",
"                                    P ~.X.*XZ dXc.c                                                                             ",
"                                                                                                                                ",
"                                                                                                                                ",
"                                                                                                                                ",
"                                                                                                                                "
};
