/* XPM */
static char *collectable__43_1710156750[] = {
/* columns rows colors chars-per-pixel */
"64 64 232 2 ",
"   c white",
".  c #F8FDFD",
"X  c #EAFAFA",
"o  c #FBFEFE",
"O  c #ACEAEA",
"+  c #5CD6D6",
"@  c #C8F1F1",
"#  c #E5F8F8",
"$  c #CCF2F2",
"%  c #C4F0F0",
"&  c #D3F4F4",
"*  c #EDFBFB",
"=  c #FEFFFF",
"-  c #FCFEFE",
";  c #87E1E1",
":  c #2ECBCB",
">  c #A0E7E7",
",  c #DBF6F6",
"<  c #8CE2E2",
"1  c #54D4D4",
"2  c #3ECFCF",
"3  c #3ACECE",
"4  c #42D0D0",
"5  c #60D7D7",
"6  c #9EE7E7",
"7  c #E7F9F9",
"8  c #A2E8E8",
"9  c #3DCFCF",
"0  c #AAEAEA",
"q  c #C2F0F0",
"w  c #57D5D5",
"e  c #30CBCB",
"r  c #3DCECE",
"t  c #5AD6D6",
"y  c #65D8D8",
"u  c #53D4D4",
"i  c #38CDCD",
"p  c #33CCCC",
"a  c #68D9D9",
"s  c #D8F5F5",
"d  c #EBFAFA",
"f  c #CFF3F3",
"g  c #50D3D3",
"h  c #6DDBDB",
"j  c #C3F0F0",
"k  c #F3FCFC",
"l  c #E5F9F9",
"z  c #B4ECEC",
"x  c #5DD6D6",
"c  c #69D9D9",
"v  c #E8F9F9",
"b  c #F5FCFC",
"n  c #77DDDD",
"m  c #78DDDD",
"M  c #E9FAFA",
"N  c #5BD6D6",
"B  c #9DE7E7",
"V  c #D1F4F4",
"C  c #A1E7E7",
"Z  c #E2F8F8",
"A  c #D0F3F3",
"S  c #43D0D0",
"D  c #4AD2D2",
"F  c #D6F5F5",
"G  c #E9F9F9",
"H  c #FDFEFE",
"J  c #8DE3E3",
"K  c #31CCCC",
"L  c #76DDDD",
"P  c #F7FDFD",
"I  c #3FCFCF",
"U  c #CDF3F3",
"Y  c #9BE6E6",
"T  c #8DE2E2",
"R  c #FDFFFF",
"E  c #DCF6F6",
"W  c #BDEEEE",
"Q  c #58D5D5",
"!  c #6EDBDB",
"~  c #37CDCD",
"^  c #A1E8E8",
"/  c #A3E8E8",
"(  c #81E0E0",
")  c #39CDCD",
"_  c #B8EDED",
"`  c #3BCECE",
"'  c #E4F8F8",
"]  c #E0F7F7",
"[  c #72DBDB",
"{  c #62D8D8",
"}  c #5ED7D7",
"|  c #44D0D0",
" . c #45D0D0",
".. c #A5E9E9",
"X. c #F9FEFE",
"o. c #91E3E3",
"O. c #F1FCFC",
"+. c #EEFBFB",
"@. c #CEF3F3",
"#. c #81DFDF",
"$. c #F9FDFD",
"%. c #C0EFEF",
"&. c #65D9D9",
"*. c #34CCCC",
"=. c #85E0E0",
"-. c #E6F9F9",
";. c #8BE2E2",
":. c #41CFCF",
">. c #32CCCC",
",. c #5DD7D7",
"<. c #F6FDFD",
"1. c #61D8D8",
"2. c #35CCCC",
"3. c #B1EBEB",
"4. c #F4FCFC",
"5. c #B2ECEC",
"6. c #59D6D6",
"7. c #31CBCB",
"8. c #90E3E3",
"9. c #E3F8F8",
"0. c #99E6E6",
"q. c #88E1E1",
"w. c #7CDEDE",
"e. c #C5F0F0",
"r. c #FAFEFE",
"t. c #D5F4F4",
"y. c #B0EBEB",
"u. c #79DDDD",
"i. c #A4E8E8",
"p. c #4FD3D3",
"a. c #4BD2D2",
"s. c #64D8D8",
"d. c #DEF7F7",
"f. c #82E0E0",
"g. c #C9F1F1",
"h. c #36CDCD",
"j. c #D1F3F3",
"k. c #6BDADA",
"l. c #ABEAEA",
"z. c #73DCDC",
"x. c #A5E8E8",
"c. c #F2FCFC",
"v. c #84E0E0",
"b. c #51D3D3",
"n. c #49D2D2",
"m. c #56D5D5",
"M. c #94E4E4",
"N. c #46D1D1",
"B. c #D7F5F5",
"V. c #EFFBFB",
"C. c #70DBDB",
"Z. c #D5F5F5",
"A. c #BCEEEE",
"S. c #61D7D7",
"D. c #85E1E1",
"F. c #97E5E5",
"G. c #DFF7F7",
"H. c #EDFAFA",
"J. c #DDF7F7",
"K. c #86E1E1",
"L. c #5FD7D7",
"P. c #B9EEEE",
"I. c #ADEAEA",
"U. c #55D4D4",
"Y. c #48D1D1",
"T. c #45D1D1",
"R. c #91E4E4",
"E. c #83E0E0",
"W. c #AFEBEB",
"Q. c #92E4E4",
"!. c #6FDBDB",
"~. c #CBF2F2",
"^. c #D9F6F6",
"/. c #7FDFDF",
"(. c #F0FBFB",
"). c #D2F4F4",
"_. c #39CECE",
"`. c #35CDCD",
"'. c #6CDADA",
"]. c #95E5E5",
"[. c #B7EDED",
"{. c #ECFAFA",
"}. c #4CD2D2",
"|. c #4ED3D3",
" X c #7DDFDF",
".X c #7ADEDE",
"XX c #C6F1F1",
"oX c #6ADADA",
"OX c #7BDEDE",
"+X c #D4F4F4",
"@X c #8FE3E3",
"#X c #6AD9D9",
"$X c #3CCECE",
"%X c #B1ECEC",
"&X c #B6EDED",
"*X c #41D0D0",
"=X c #E1F7F7",
"-X c #71DBDB",
";X c #40CFCF",
":X c #8AE2E2",
">X c #80DFDF",
",X c #66D9D9",
"<X c #72DCDC",
"1X c #F1FBFB",
"2X c #99E5E5",
"3X c #A8E9E9",
"4X c #52D4D4",
"5X c #D9F5F5",
"6X c #A6E9E9",
"7X c #89E2E2",
"8X c #9AE6E6",
"9X c #49D1D1",
"0X c #A9E9E9",
"qX c #C1EFEF",
"wX c #B9EDED",
"eX c #7DDEDE",
"rX c #67D9D9",
"tX c #F5FDFD",
"yX c #DAF6F6",
"uX c #9DE6E6",
"iX c #CAF2F2",
"pX c #4DD2D2",
"aX c #DDF6F6",
"sX c #69DADA",
"dX c #96E5E5",
"fX c #63D8D8",
"gX c #9FE7E7",
"hX c #6DDADA",
"jX c #BAEEEE",
"kX c #C5F1F1",
"lX c #BBEEEE",
"zX c #75DCDC",
/* pixels */
"                                                                                                                                ",
"                                                                                                                                ",
"                                                                                                                                ",
"                                                                                                                                ",
"                                                                                                                                ",
"                                                                                                                                ",
"                                                                                                                                ",
"                                                                                                                                ",
"                                                                                                                                ",
"                                                . X o                                                                           ",
"                                                O + @                                   o # $ % & * =                           ",
"                                              - ; : >                                 , < 1 2 3 4 5 6 7                         ",
"                                                8 9 0                             = q w e r t y u i p a s                       ",
"                                                d % *                             f g p h j d k l z x e c v                     ",
"                                                                                b n e m M           s N p B =                   ",
"                          V C Z                                                 A S D F               z i N G                   ",
"                        H J K a F                                               O p L P               X w I U                   ",
"                          & 5 e t V                                             Y e T R           - E W Q i W                   ",
"                            E ! ~ ^                                             / K ( o           F 1 ) p p h @ o               ",
"                              7 _ #                                             j ` Q '           ] [ { } | K  ...X.            ",
"                                                                              G o.i 3 q           = k O.+.@.#.i I z             ",
"                                                                          $.%.&.*.2 =.M                     b o.*.N -.          ",
"                                                                        ] ;.:.>.,._ <.                        G 1.2.3.          ",
"                                                                    4.5.6.7.S 8.9.                              0.e q.-         ",
"                                                                = F w.3 *.c e.r.        R t.A -                 y.p u..         ",
"                                                              +.i.p.e a.6 d             +.s.u d.                8 K f.o         ",
"                    b -.d.9.o                             o g.! h.i L j.H               k k.*.l.              b z.>.x.          ",
"                  c.v.b.n.m.f                           -.M.N.e 1 O c.                  <.v.e N E             z r D B.          ",
"                  V.C.S D { Z.                      . A.S.>.9 v.,                     E D.I K >.a $ <.= R +.l.D *.F.o           ",
"                  = v s G.H.R                     J.K.2 >.L.P.P                   c.I.U.e Y.=.t e T.z.R.;.s.i h.E.+.            ",
"                                              k W.m.7. .Q.#                   H j.L i h.!.~.o ^./.T.p e e h.m.i.(.              ",
"                                          R ).m _.`.'.@ o                   d 6 a.e g ..V.      P & O ].0.[.' =                 ",
"                    . V.* b =           {.> }.e |.8 *                   r.% c *.`  XF =                                         ",
"                {.3..X} N h 0.s R   r.XXoX`.3 OX+X=                   9.@XS 7.t z b                                             ",
"              f #Xh.>.$XI *.7.|.0 J.o.| 7.Q %X4.                  <.&X+ K *X< =X                  R {.G.s v =                   ",
"            ).m.7.t > @ @.5.-X~ 9 p.p ;X:XG.                    s >X$X*.,Xq X.                    Z.{ D S C.+.                  ",
"          O.<Xe C.d.        1X2X_.p &.%.$.                  (.3X4Xe n.Y M                         f m.n.b.v.c.                  ",
"          j $Xg 5X            b 6XC v                   - U <X~ ~ z.@.-                           o 9.d.-.b                     ",
"        = M.e 7X-               =                     G 8X9Xe 4X0X(.                                                            ",
"        X.OX>.O                                   X.qX&.p $X#.^.                                                                ",
"        X.OX>.O                                 =X;.*X>.,.[.<.                                                                  ",
"        = M.e K.o                           b z t 7.4 @X9.                                                                      ",
"          XXI a.j.  <.wX$ R             = B.eX` *.a % r.                                                                        ",
"          4.OXe rXs z $X! tX            Z.m.>.a.B d                                                                             ",
"            yX} e b.p.*.uXR             iX;X9 _ =                                           # _ 7                               ",
"              F C._.e pXaX              1XsXh.&X                                            > ~ ! E                             ",
"                (.dX*.fXO.              H :Xe 6                                             j.t e 5 &                           ",
"                  q i { O.              - q.e gX                                              F a K J H                         ",
"                  Z. .n.s               (.,Xh._                                                 Z C f                           ",
"                  c.hX7.Q.o             _ $Xb.]                                                                                 ",
"                    jX2 *Xl.tX      o j u p F.-                           H.% d                                                 ",
"                    . M.~ $Xn y.kXlXq.T.>.zXX                             0 9 8                                                 ",
"                      k uXn.7.*.3 ~ e *Xq.7                               > : ; -                                               ",
"                        - +X8Xz.s.oXJ @ P                                 @ + O                                                 ",
"                              P c.4.-                                     o X .                                                 ",
"                                                                                                                                ",
"                                                                                                                                ",
"                                                                                                                                ",
"                                                                                                                                ",
"                                                                                                                                ",
"                                                                                                                                ",
"                                                                                                                                ",
"                                                                                                                                ",
"                                                                                                                                "
};
