/* XPM */
static char *collectable__25_1710156751[] = {
/* columns rows colors chars-per-pixel */
"64 64 217 2 ",
"   c white",
".  c #FBFEFE",
"X  c #EEFBFB",
"o  c #E5F8F8",
"O  c #E8F9F9",
"+  c #F5FDFD",
"@  c #FAFEFE",
"#  c #CAF2F2",
"$  c #87E1E1",
"%  c #5ED7D7",
"&  c #50D3D3",
"*  c #55D4D4",
"=  c #6FDBDB",
"-  c #A7E9E9",
";  c #E7F9F9",
":  c #F0FBFB",
">  c #94E4E4",
",  c #43D0D0",
"<  c #30CBCB",
"1  c #3BCECE",
"2  c #46D1D1",
"3  c #41CFCF",
"4  c #33CCCC",
"5  c #34CCCC",
"6  c #65D9D9",
"7  c #CEF3F3",
"8  c #F6FDFD",
"9  c #8DE3E3",
"0  c #35CDCD",
"q  c #3FCFCF",
"w  c #84E0E0",
"e  c #C3F0F0",
"r  c #D9F6F6",
"t  c #D2F4F4",
"y  c #A9E9E9",
"u  c #5DD7D7",
"i  c #31CCCC",
"p  c #58D6D6",
"a  c #D7F5F5",
"s  c #BBEEEE",
"d  c #3DCECE",
"f  c #B0EBEB",
"g  c #F9FDFD",
"h  c #DFF7F7",
"j  c #6CDADA",
"k  c #7CDEDE",
"l  c #75DCDC",
"z  c #31CBCB",
"x  c #93E4E4",
"c  c #FCFEFE",
"v  c #4AD2D2",
"b  c #CBF2F2",
"n  c #E1F8F8",
"m  c #4ED3D3",
"M  c #44D0D0",
"N  c #D3F4F4",
"B  c #80DFDF",
"V  c #A0E7E7",
"C  c #D1F4F4",
"Z  c #57D5D5",
"A  c #EAFAFA",
"S  c #7FDFDF",
"D  c #86E1E1",
"F  c #42D0D0",
"G  c #54D4D4",
"H  c #F8FDFD",
"J  c #36CDCD",
"K  c #97E5E5",
"L  c #E3F8F8",
"P  c #56D5D5",
"I  c #3ECFCF",
"U  c #C7F1F1",
"Y  c #8FE3E3",
"T  c #61D7D7",
"R  c #52D4D4",
"E  c #38CDCD",
"W  c #32CCCC",
"Q  c #62D8D8",
"!  c #6DDADA",
"~  c #2FCBCB",
"^  c #85E0E0",
"/  c #F5FCFC",
"(  c #EBFAFA",
")  c #B3ECEC",
"_  c #61D8D8",
"`  c #E0F7F7",
"'  c #84E1E1",
"]  c #3CCECE",
"[  c #DAF6F6",
"{  c #60D7D7",
"}  c #91E3E3",
"|  c #BDEFEF",
" . c #5DD6D6",
".. c #48D1D1",
"X. c #9FE7E7",
"o. c #EFFBFB",
"O. c #BEEFEF",
"+. c #51D4D4",
"@. c #92E4E4",
"#. c #41D0D0",
"$. c #67D9D9",
"%. c #C8F1F1",
"&. c #39CECE",
"*. c #C2F0F0",
"=. c #FDFEFE",
"-. c #68DADA",
";. c #40CFCF",
":. c #E9F9F9",
">. c #F3FCFC",
",. c #F7FDFD",
"<. c #74DCDC",
"1. c #B5ECEC",
"2. c #5BD6D6",
"3. c #BCEEEE",
"4. c #D6F5F5",
"5. c #69D9D9",
"6. c #37CDCD",
"7. c #D5F4F4",
"8. c #3ACECE",
"9. c #82E0E0",
"0. c #CFF3F3",
"q. c #DEF7F7",
"w. c #49D1D1",
"e. c #47D1D1",
"r. c #AEEBEB",
"t. c #51D3D3",
"y. c #63D8D8",
"u. c #8CE2E2",
"i. c #F4FCFC",
"p. c #75DDDD",
"a. c #F1FCFC",
"s. c #A4E8E8",
"d. c #89E1E1",
"f. c #F9FEFE",
"g. c #49D2D2",
"h. c #A1E8E8",
"j. c #D8F5F5",
"k. c #79DEDE",
"l. c #58D5D5",
"z. c #85E1E1",
"x. c #96E5E5",
"c. c #83E0E0",
"v. c #ADEAEA",
"b. c #FDFFFF",
"n. c #B2ECEC",
"m. c #4FD3D3",
"M. c #ABEAEA",
"N. c #EDFAFA",
"B. c #B7EDED",
"V. c #60D8D8",
"C. c #C0EFEF",
"Z. c #C5F1F1",
"A. c #64D9D9",
"S. c #E2F8F8",
"D. c #72DCDC",
"F. c #FEFFFF",
"G. c #9DE7E7",
"H. c #9DE6E6",
"J. c #EDFBFB",
"K. c #9BE6E6",
"L. c #45D1D1",
"P. c #BFEFEF",
"I. c #5FD7D7",
"U. c #D1F3F3",
"Y. c #70DBDB",
"T. c #4DD3D3",
"R. c #CCF2F2",
"E. c #6ADADA",
"W. c #E5F9F9",
"Q. c #DBF6F6",
"!. c #7DDEDE",
"~. c #7ADEDE",
"^. c #D9F5F5",
"/. c #A3E8E8",
"(. c #5AD6D6",
"). c #BAEEEE",
"_. c #4DD2D2",
"`. c #65D8D8",
"'. c #4CD2D2",
"]. c #F2FCFC",
"[. c #76DDDD",
"{. c #81E0E0",
"}. c #AFEBEB",
"|. c #E1F7F7",
" X c #B1EBEB",
".X c #6EDBDB",
"XX c #ADEBEB",
"oX c #DCF6F6",
"OX c #99E6E6",
"+X c #ECFAFA",
"@X c #E4F8F8",
"#X c #5ED6D6",
"$X c #90E3E3",
"%X c #73DCDC",
"&X c #66D9D9",
"*X c #6BDADA",
"=X c #9EE7E7",
"-X c #45D0D0",
";X c #88E1E1",
":X c #C4F0F0",
">X c #B6EDED",
",X c #95E5E5",
"<X c #2DCACA",
"1X c #D4F4F4",
"2X c #A8E9E9",
"3X c #64D8D8",
"4X c #B8EDED",
"5X c #30CCCC",
"6X c #9CE6E6",
"7X c #59D5D5",
"8X c #D0F3F3",
"9X c #5CD6D6",
"0X c #E6F9F9",
"qX c #3DCFCF",
"wX c #91E4E4",
"eX c #F1FBFB",
"rX c #7BDEDE",
/* pixels */
"                                                                                                                                ",
"                                                                                                                                ",
"                                                                                                                                ",
"                                                                                                                                ",
"                                                                                                                                ",
"                                                                                                                                ",
"                                                                                                                                ",
"                                                                                                                                ",
"                                                                                                                                ",
"                                                                                                                                ",
"                                                                                        . X o O +                               ",
"                                                                                    @ # $ % & * = - ;                           ",
"                                                                                  : > , < 1 2 3 4 5 6 7                         ",
"                                                                                8 9 0 q w e r t y u i p a                       ",
"                                                                                s d , f g         h j < k +                     ",
"                                                                              8 l z x c             t v 3 b                     ",
"                                                                              n m M N               c B z V                     ",
"                                                                              C 3 Z A             : t S < D .                   ",
"                                                                              N F G O           H $ q J < v K L                 ",
"                                                                              ; P I U           g Y P T R E W Q t               ",
"                                                                              : ! ~ ^ @           / ( : L ) u < _ n             ",
"                                                                            ` ' ] J Y @                     [ { i } c           ",
"                                                                        @ |  .i ..X.o.                        O.d +.n           ",
"                                                                      O @.#.4 $.%.c                           X { &.*.          ",
"                                                                  =.# -.4 ;.} O         c :.>.                ,.<.5 1.          ",
"                                                                : V ..i 2.3.@           4.% @.@               >.5.6.3.          ",
"                                                              7.l J 8.9.h               0.q m q.              4.w.e.a           ",
"                                                          / r.t.< +.r.+                 X y.W u.,.          i.^ z p.+           ",
"                                                        h 9.8.J p.4.                  a.s.2 ~ 1 @.o c   . ` d.E e.U             ",
"                                                    f.s 2.z g.h.:                   j.k.6.1 y.3 4 l.z.x.c.G W M v.c             ",
"                                                  ; Y ;.4 5.# b.                ,.n.G < m.M.N.B.V.8.< < < 8.$.C.c               ",
"                                              c Z.A.W F x :.                  S.D ] 0 D.N F.    A C.G.@.H.C.J.                  ",
"                                            J.K.L.z % O.@                 @ P.I.i 2 G.X               F.                        ",
"                                        F.U.Y.5 ] D n                   A > F W 6 U c                                           ",
"                    o.j.7 j.X F.      >.y T.< * ) ,.                b.R.E.4 q Y ;                                               ",
"                A s.y.L.q 2 Q H.W.  Q.!.E E ~.^.                  : /.v z (.).f.                                                ",
"              j.j 5 J m (._.J W `.H.p < '.- ].                  4.[.J 8.{.q.                                                    ",
"            L 6 < (.}.|.N.h  Xu i W 0 .X0.F.                + }.R < & XX/                                                       ",
"          c @.i { ^.          oXE.v OX+X                  h c.1 J <.7.                                                          ",
"          @XG ] O.              O ^..                 f.s 2.i ..V o.                                                            ",
"          Z.1 #XN.                                  ; $X;.4 -.# =.                                                              ",
"          1.5 %X,.                              c U &XW #.x :.                                                                  ",
"          s J *Xi.                            X =Xe.z u O.@                                                                     ",
"          7.-Xv j.      c                 F.t D.0 1 z.n                                                                         ",
"          i.<.z ;X,.  :Xu.h             b.>Xm.W R f 8                                                                           ",
"            U L.8.,X7.V.6.3.            H [.<Xu 1X                                                                              ",
"            c 2X;.0 m J u ;               r.J 3X:                                                                               ",
"              @ 4X{ 6.z u.b.              ` T.e.^.                                                                              ",
"                  ; %X5X6X                +X7X;.8X                                                                              ",
"                    @.~ u.b.              ` _.e.[                                                                               ",
"                    1.J 9X;                XJ Q o.                                                                              ",
"                    0X9X5 K g           oX% 4 X.F.                                                                              ",
"                      ) I qXwXq.8 f.eX*.Q < &X0X                                                                                ",
"                      g X.;.W m.D.rX`.q i y.1X                                                                                  ",
"                        f.s E.#.5 W E m.$XS.                                                                                    ",
"                            : 0. Xv.O.h .                                                                                       ",
"                                                                                                                                ",
"                                                                                                                                ",
"                                                                                                                                ",
"                                                                                                                                ",
"                                                                                                                                ",
"                                                                                                                                ",
"                                                                                                                                ",
"                                                                                                                                "
};
