/* XPM */
static char *collectable__5_1710156750[] = {
/* columns rows colors chars-per-pixel */
"64 64 219 2 ",
"   c white",
".  c #FBFEFE",
"X  c #F8FDFD",
"o  c #FDFFFF",
"O  c #DDF7F7",
"+  c #AAEAEA",
"@  c #84E0E0",
"#  c #76DDDD",
"$  c #81E0E0",
"%  c #A6E9E9",
"&  c #DCF6F6",
"*  c #F5FDFD",
"=  c #52D3D3",
"-  c #33CCCC",
";  c #31CCCC",
":  c #32CCCC",
">  c #50D3D3",
",  c #A5E8E8",
"<  c #F4FCFC",
"1  c #98E5E5",
"2  c #39CECE",
"3  c #6DDADA",
"4  c #A1E7E7",
"5  c #B3ECEC",
"6  c #A2E8E8",
"7  c #38CDCD",
"8  c #91E4E4",
"9  c #F6FDFD",
"0  c #BAEEEE",
"q  c #3ECFCF",
"w  c #40CFCF",
"e  c #A5E9E9",
"r  c #F1FCFC",
"t  c #F1FBFB",
"y  c #A7E9E9",
"u  c #43D0D0",
"i  c #3BCECE",
"p  c #B1EBEB",
"a  c #F0FBFB",
"s  c #6ADADA",
"d  c #95E4E4",
"f  c #FEFFFF",
"g  c #A0E7E7",
"h  c #35CDCD",
"j  c #60D7D7",
"k  c #D8F5F5",
"l  c #EFFBFB",
"z  c #CEF3F3",
"x  c #DFF7F7",
"c  c #EEFBFB",
"v  c #9FE7E7",
"b  c #3CCECE",
"n  c #4CD2D2",
"m  c #5FD7D7",
"M  c #86E1E1",
"N  c #C8F1F1",
"B  c #F9FEFE",
"V  c #B6EDED",
"C  c #35CCCC",
"Z  c #70DBDB",
"A  c #82E0E0",
"S  c #36CDCD",
"D  c #39CDCD",
"F  c #30CBCB",
"G  c #42D0D0",
"H  c #92E4E4",
"J  c #34CCCC",
"K  c #74DCDC",
"L  c #F7FDFD",
"P  c #87E1E1",
"I  c #5ED7D7",
"U  c #CBF2F2",
"Y  c #D5F5F5",
"T  c #BFEFEF",
"R  c #3FCFCF",
"E  c #8BE2E2",
"W  c #F6FCFC",
"Q  c #C6F1F1",
"!  c #5BD6D6",
"~  c #EBFAFA",
"^  c #F2FCFC",
"/  c #ECFAFA",
"(  c #F9FDFD",
")  c #44D0D0",
"_  c #B7EDED",
"`  c #E6F9F9",
"'  c #57D5D5",
"]  c #B4ECEC",
"[  c #FCFEFE",
"{  c #96E5E5",
"}  c #9AE6E6",
"|  c #56D5D5",
" . c #CDF3F3",
".. c #D7F5F5",
"X. c #47D1D1",
"o. c #4AD2D2",
"O. c #E9F9F9",
"+. c #69DADA",
"@. c #2FCBCB",
"#. c #66D9D9",
"$. c #5CD6D6",
"%. c #3DCECE",
"&. c #CCF2F2",
"*. c #6FDBDB",
"=. c #79DEDE",
"-. c #5AD6D6",
";. c #CDF2F2",
":. c #FDFEFE",
">. c #52D4D4",
",. c #D6F5F5",
"<. c #D0F3F3",
"1. c #4ED3D3",
"2. c #E1F7F7",
"3. c #C9F2F2",
"4. c #48D1D1",
"5. c #3ACECE",
"6. c #AFEBEB",
"7. c #B5EDED",
"8. c #C1EFEF",
"9. c #7DDEDE",
"0. c #68DADA",
"q. c #53D4D4",
"w. c #C1F0F0",
"e. c #46D1D1",
"r. c #CAF2F2",
"t. c #FAFEFE",
"y. c #93E4E4",
"u. c #E9FAFA",
"i. c #72DCDC",
"p. c #80DFDF",
"a. c #B0EBEB",
"s. c #BBEEEE",
"d. c #68D9D9",
"f. c #A4E8E8",
"g. c #BEEFEF",
"h. c #41D0D0",
"j. c #8CE2E2",
"k. c #31CBCB",
"l. c #ACEAEA",
"z. c #E1F8F8",
"x. c #5DD7D7",
"c. c #90E3E3",
"v. c #C0EFEF",
"b. c #9CE6E6",
"n. c #97E5E5",
"m. c #7EDFDF",
"M. c #DDF6F6",
"N. c #85E1E1",
"B. c #E7F9F9",
"V. c #E2F8F8",
"C. c #8DE3E3",
"Z. c #B1ECEC",
"A. c #C7F1F1",
"S. c #64D8D8",
"D. c #54D4D4",
"F. c #9DE6E6",
"G. c #C5F1F1",
"H. c #79DDDD",
"J. c #71DCDC",
"K. c #D9F5F5",
"L. c #55D4D4",
"P. c #37CDCD",
"I. c #D2F4F4",
"U. c #7ADEDE",
"Y. c #EDFBFB",
"T. c #4DD3D3",
"R. c #D1F4F4",
"E. c #6CDADA",
"W. c #CFF3F3",
"Q. c #A9E9E9",
"!. c #58D5D5",
"~. c #6EDBDB",
"^. c #7CDEDE",
"/. c #F3FCFC",
"(. c #C2F0F0",
"). c #B8EDED",
"_. c #99E6E6",
"`. c #DBF6F6",
"'. c #E4F8F8",
"]. c #61D7D7",
"[. c #C4F0F0",
"{. c #45D0D0",
"}. c #3DCFCF",
"|. c #8AE2E2",
" X c #63D8D8",
".X c #E5F8F8",
"XX c #62D8D8",
"oX c #89E2E2",
"OX c #C3F0F0",
"+X c #E3F8F8",
"@X c #A8E9E9",
"#X c #4BD2D2",
"$X c #73DCDC",
"%X c #DAF5F5",
"&X c #78DDDD",
"*X c #E8F9F9",
"=X c #6BDADA",
"-X c #B2ECEC",
";X c #65D9D9",
":X c #55D5D5",
">X c #2ECBCB",
",X c #45D1D1",
"<X c #E0F7F7",
"1X c #ADEAEA",
"2X c #A3E8E8",
"3X c #D1F3F3",
"4X c #4DD2D2",
"5X c #51D4D4",
"6X c #EAFAFA",
"7X c #77DDDD",
"8X c #4FD3D3",
"9X c #5DD6D6",
"0X c #B5ECEC",
"qX c #71DBDB",
"wX c #C9F1F1",
"eX c #49D1D1",
"rX c #B9EEEE",
"tX c #7FDFDF",
"yX c #BCEEEE",
/* pixels */
"                                                                                                                                ",
"                                                                              . X .                                             ",
"                                                                        o O + @ # $ % & o                                       ",
"                                                                      * % = - ; - ; : > , <                                     ",
"                                                                    X 1 2 2 3 4 5 6 3 2 7 8 9                                   ",
"                                                                    0 q w e r       t y u i p                                   ",
"                                                                  a s : d .           f g h j k l .                             ",
"                                                                  z w > x             c v b h n m M N B                         ",
"                                                                  V C Z 9           9 A S C w u D F G H l                       ",
"                                                                  5 J K X           L P I v U Y T A R C E W                     ",
"                                                                  Q i ! ~             ^ /         ( p ) i _                     ",
"                                                                  ` ' 2 ]                           [ { : Z <                   ",
"                                                                  o } - |  .                          ..X.o.O                   ",
"                                                                    O.+.@.#.c                         c $.%.&.                  ",
"                                                                    l *.F =.<                         / -.q ;.                  ",
"                                                                  :.g S >.,.      . r o               <.u 1.2.                  ",
"                                                                  3.4.5.6.        7.#.8.            9 @ F 9.X                   ",
"                                                                O.0.; A *         g ; q.w.B       c 1 5.e.r.                    ",
"                                                              t.y.- ! x           u.i.; ) p.a.s.4 d.S b f.[                     ",
"                                                              g.h.w s.            . j.- J k.- S k.: >.l.X                       ",
"                                                            z.x.: c.B             v.u w b.n.K 3 m.e M.f                         ",
"                                                          9 N.k.#.B.            V.m : C.t.  L * t.                              ",
"                                                          Z.b e.A.            L P ; S.`                                         ",
"                                                        k D.h F.[             5 b e.G.                                          ",
"                                                      t H.F J.c             K.L.C b.[                                           ",
"                                                    o , P.1.I.            ^ U.F Z Y.                                            ",
"                                                     .o.2 + f           f % P.T.R.                                              ",
"                                                  ~ E.F m.<             W.n 7 Q.f                                               ",
"                                                . n.J !.&             / ~.F ^./.                                                ",
"                                                (.) q ).            . _.J | `.                                                  ",
"                                              '.].: j.X             [.{.}.7.                                                    ",
"                                            X |.:  X.X            .XXX; oXX                                                     ",
"                                            V }.) OX            X E : ].+X                                                      ",
"                                          `.| J _..             _ q u w.                                                        ",
"                                        /.^.F ~./             & !.J n..                                                         ",
"                                        @X7 n W.            < m.F E.~                                                           ",
"                          /.&.y 1 g (.w.1.7 y f           f + 2 #X .                                                            ",
"                      f  .$Xw : F k.i G : U.^             I.1.P.f.o                                                             ",
"                      8.1.F n U.c.N.$.P.!.%X            c J.F &Xt                                                               ",
"                    M.' - &X..( f [ *X_ <.f           [ b.h D.k                                                                 ",
"                  [ c.k.=XO.                          A.e.b -X                                                                  ",
"                  B.' i T                           B.;X; M 9                                                                   ",
"                  <.w :X*X                        t.c.- m V.                                                                    ",
"                  r.b I l                         / $.>X&X<                                                                     ",
"                  ..,X1.<X                        [ a.) i Z.                                                                    ",
"                  l  XS 1X      t.,.B.              [ F.J S.c                                                                   ",
"                    2XJ :X3X    W.4X@ B               V.5Xw z                                                                   ",
"                    6X~.F :X6.*X@X: 7XX               9 Z C V                                                                   ",
"                      O Z C P.D.8XF U.(               L K J 5                                                                   ",
"                        / f.].G D ; 9X~               u.-.b Q                                                                   ",
"                            Y.I.0X8X2 -X              l.P.! *X                                                                  ",
"                                  1 - >.Q o       :.[.8Xh 2Xf                                                                   ",
"                                  O.qXk.o.y.wX,.A.y.eX; H.c                                                                     ",
"                                    V.^.i F %.) b F i p.`                                                                       ",
"                                      /.rXU.-.>.! tXyX<                                                                         ",
"                                          X / ` / B                                                                             ",
"                                                                                                                                ",
"                                                                                                                                ",
"                                                                                                                                ",
"                                                                                                                                ",
"                                                                                                                                ",
"                                                                                                                                ",
"                                                                                                                                ",
"                                                                                                                                "
};
