/* XPM */
static char *collectable__16_1710156750[] = {
/* columns rows colors chars-per-pixel */
"64 64 223 2 ",
"   c white",
".  c #FDFFFF",
"X  c #E0F7F7",
"o  c #B7EDED",
"O  c #9BE6E6",
"+  c #98E5E5",
"@  c #ABEAEA",
"#  c #D2F4F4",
"$  c #F7FDFD",
"%  c #F0FBFB",
"&  c #9FE7E7",
"*  c #52D4D4",
"=  c #36CDCD",
"-  c #30CBCB",
";  c #32CCCC",
":  c #44D0D0",
">  c #80DFDF",
",  c #DBF6F6",
"<  c #EDFAFA",
"1  c #81DFDF",
"2  c #3ACECE",
"3  c #65D9D9",
"4  c #8AE2E2",
"5  c #90E3E3",
"6  c #75DDDD",
"7  c #46D1D1",
"8  c #5CD6D6",
"9  c #D1F4F4",
"0  c #FBFEFE",
"q  c #95E4E4",
"w  c #34CCCC",
"e  c #4BD2D2",
"r  c #AFEBEB",
"t  c #EFFBFB",
"y  c #FDFEFE",
"u  c #FEFFFF",
"i  c #CDF2F2",
"p  c #68D9D9",
"a  c #30CCCC",
"s  c #66D9D9",
"d  c #E7F9F9",
"f  c #D3F4F4",
"g  c #48D1D1",
"h  c #3FCFCF",
"j  c #DDF7F7",
"k  c #5DD7D7",
"l  c #33CCCC",
"z  c #A2E8E8",
"x  c #A0E7E7",
"c  c #31CBCB",
"v  c #77DDDD",
"b  c #35CCCC",
"n  c #69D9D9",
"m  c #F4FCFC",
"M  c #FAFEFE",
"N  c #A5E9E9",
"B  c #D6F5F5",
"V  c #91E4E4",
"C  c #39CECE",
"Z  c #A3E8E8",
"A  c #DAF6F6",
"S  c #F8FDFD",
"D  c #78DDDD",
"F  c #4FD3D3",
"G  c #31CCCC",
"H  c #92E4E4",
"J  c #E9F9F9",
"K  c #FCFEFE",
"L  c #87E1E1",
"P  c #DDF6F6",
"I  c #70DBDB",
"U  c #76DDDD",
"Y  c #95E5E5",
"T  c #8FE3E3",
"R  c #69DADA",
"E  c #3CCECE",
"W  c #73DCDC",
"Q  c #E6F9F9",
"!  c #60D8D8",
"~  c #E8F9F9",
"^  c #F1FCFC",
"/  c #B6EDED",
"(  c #51D4D4",
")  c #E4F8F8",
"_  c #57D5D5",
"`  c #C1F0F0",
"'  c #45D1D1",
"]  c #41CFCF",
"[  c #C9F1F1",
"{  c #54D4D4",
"}  c #2FCBCB",
"|  c #81E0E0",
" . c #F9FEFE",
".. c #84E0E0",
"X. c #CEF3F3",
"o. c #5BD6D6",
"O. c #67D9D9",
"+. c #B2ECEC",
"@. c #CAF2F2",
"#. c #6CDADA",
"$. c #DEF7F7",
"%. c #BCEEEE",
"&. c #6DDADA",
"*. c #F5FDFD",
"=. c #C5F1F1",
"-. c #53D4D4",
";. c #E1F8F8",
":. c #DCF6F6",
">. c #A4E8E8",
",. c #E2F8F8",
"<. c #A6E9E9",
"1. c #7BDEDE",
"2. c #C1EFEF",
"3. c #50D3D3",
"4. c #9EE7E7",
"5. c #88E1E1",
"6. c #4CD2D2",
"7. c #7ADEDE",
"8. c #C8F1F1",
"9. c #40CFCF",
"0. c #F6FDFD",
"q. c #9AE6E6",
"w. c #37CDCD",
"e. c #49D1D1",
"r. c #7FDFDF",
"t. c #EAFAFA",
"y. c #EBFAFA",
"u. c #63D8D8",
"i. c #97E5E5",
"p. c #D9F5F5",
"a. c #EEFBFB",
"s. c #ECFAFA",
"d. c #CFF3F3",
"f. c #3DCFCF",
"g. c #ADEAEA",
"h. c #35CDCD",
"j. c #85E0E0",
"k. c #8BE2E2",
"l. c #5DD6D6",
"z. c #5AD6D6",
"x. c #42D0D0",
"c. c #F9FDFD",
"v. c #ACEAEA",
"b. c #43D0D0",
"n. c #EDFBFB",
"m. c #86E1E1",
"M. c #6FDBDB",
"N. c #49D2D2",
"B. c #3ECFCF",
"V. c #A7E9E9",
"C. c #38CDCD",
"Z. c #F2FCFC",
"A. c #F3FCFC",
"S. c #CCF2F2",
"D. c #BBEEEE",
"F. c #3BCECE",
"G. c #E5F9F9",
"H. c #C0EFEF",
"J. c #99E5E5",
"K. c #71DBDB",
"L. c #C5F0F0",
"P. c #93E4E4",
"I. c #DFF7F7",
"U. c #56D5D5",
"Y. c #C9F2F2",
"T. c #8DE3E3",
"R. c #AAEAEA",
"E. c #45D0D0",
"W. c #D8F5F5",
"Q. c #64D8D8",
"!. c #5ED7D7",
"~. c #83E0E0",
"^. c #B5ECEC",
"/. c #5FD7D7",
"(. c #62D8D8",
"). c #E9FAFA",
"_. c #7DDEDE",
"`. c #BAEEEE",
"'. c #CBF2F2",
"]. c #96E5E5",
"[. c #C2F0F0",
"{. c #4ED3D3",
"}. c #BFEFEF",
"|. c #6BDADA",
" X c #82E0E0",
".X c #41D0D0",
"XX c #6EDBDB",
"oX c #6ADADA",
"OX c #C4F0F0",
"+X c #C6F1F1",
"@X c #E1F7F7",
"#X c #47D1D1",
"$X c #A5E8E8",
"%X c #2ECBCB",
"&X c #75DCDC",
"*X c #7ADDDD",
"=X c #CDF3F3",
"-X c #F5FCFC",
";X c #8EE3E3",
":X c #72DCDC",
">X c #B4ECEC",
",X c #ADEBEB",
"<X c #89E1E1",
"1X c #7EDFDF",
"2X c #A1E8E8",
"3X c #F1FBFB",
"4X c #D0F3F3",
"5X c #2DCBCB",
"6X c #E3F8F8",
"7X c #8CE2E2",
"8X c #B0EBEB",
"9X c #4AD2D2",
"0X c #A8E9E9",
"qX c #D4F4F4",
"wX c #58D5D5",
"eX c #AEEBEB",
"rX c #91E3E3",
"tX c #8DE2E2",
"yX c #59D5D5",
"uX c #B8EDED",
"iX c #66D8D8",
"pX c #B9EDED",
"aX c #60D7D7",
/* pixels */
"                                                                                                                                ",
"                                                                                                                                ",
"                                                                                                                                ",
"                                                                                                                                ",
"                                                                                                                                ",
"                                                                                                                                ",
"                                                                                                                                ",
"                                                                                . X o O + @ # $                                 ",
"                                                                              % & * = - - ; : > ,                               ",
"                                                                            < 1 = 2 3 4 5 6 7 - 8 9                             ",
"                                                                          0 q w e r t y u $ i p a s d                           ",
"                                                                          f g h o             j k l z                           ",
"                                                                          x c v $               r b n m                         ",
"                                                                        M > c N             0 B V C : Z A 0                     ",
"                                                                        S D l r             # F ; ; G l e H J                   ",
"                                                                        K L - +             P I U Y T R E l W Q                 ",
"                                                                          r b ! ~           u m $   u ^ / ( ; L $               ",
"                                                                          ) _ w O y                       ` ' ] [               ",
"                                                                          9 { } |  .                      M ..- H u             ",
"                                                                        X.o.G O.,                           +.w W $             ",
"                                                                      @._ c #.$.                            %.= &.*.            ",
"                                                                    =.-.c I ;.        :.>.,.                <.; 1. .            ",
"                                                                u 2.3.; 6 )           4.; 5. .            % #.; >.              ",
"                                                              u %.6.l 7.d             8.: 9.+.K         0.q.w.* P               ",
"                                                            y o e.w r.t.              y.u.} : i.p.a.s.d...2 f.g.u               ",
"                                                          K +.7 h.j.<               % k.C E 2 ; e.l.z.x.- 7 <.c.                ",
"                                                        0 v.b.= 4 t               n.m.b 7 v.o M.N.f.B.F 1.8.K                   ",
"                                                      M V.9.C.5 Z.              y.> w g / .   A.:.S.X.,.S                       ",
"                                                    c.z B.C Y m               ~ 1.l e D..                                       ",
"                                                  $ 4.E F.O 0.              G.U ; F H.u                                         ",
"                                                *.J.F.f.x S               ,.K.c * L.                                            ",
"                                              A.P.C.h N  .              I.&.c U.Y.                                              ",
"                                            ^ T.w.x.R.0               , p - z.X.                                                ",
"                                          t 5.= E.r 0               W.Q.- !.#                                                   ",
"                                        s.~.w g ^.K               f /.- (.B                                                     ",
"                          0 M         )._.l e `..               d.o.- O.A                                                       ",
"                    0.'.O 1 > ].[.^ Q D ; {.}.u               '._ c |.$.                                                        ",
"                  ;. X.X- c c - E XXoX; * OX                +X-.c I @X                                                          ",
"                X R c #X> $XV.L {.- %XU.8.              u 2.3.; &X)                                                             ",
"              m _.c k Y.M     K B 7.n i               u %.6.l *Xd                                                               ",
"              [.f.e =X            -X%               y o e.l r.t.                                                                ",
"            . ;X- k.K                             K +.7 b ..<                                                                   ",
"            0.:Xw >X                            0 ,Xb.= <Xt                                                                     ",
"            *.&.= D.                          M R..Xw.;X^                                                                       ",
"            M 1XG 2X                        . v.9.2 P.A.                                                                        ",
"              R.w Q.t.    3X4XZ.            S 1.5Xu.<                                                                           ",
"              6Xo.w 7X3X  2X: 8X              +X' : X.                                                                          ",
"                `.: = U / !.= o                .r.- q.                                                                          ",
"                0 +.{.- C.w 9X,                 0X; 1XM                                                                         ",
"                  u qX7XwXh.6.I.                eXl 7.c.                                                                        ",
"                      y , { E +X              u rX- tX.                                                                         ",
"                        M r.- j.c.            ,.yXw.uX                                                                          ",
"                          L.x.B.R.M         y.r.; iXy.                                                                          ",
"                           .i.w.h <X[ X P pX&.l e +X                                                                            ",
"                            A.i..X- B.e N.C.c _ }..                                                                             ",
"                               .OX> _ 9X6.aXq P                                                                                 ",
"                                   .J $.@Xt .                                                                                   ",
"                                                                                                                                ",
"                                                                                                                                ",
"                                                                                                                                ",
"                                                                                                                                ",
"                                                                                                                                ",
"                                                                                                                                ",
"                                                                                                                                "
};
