/* XPM */
static char *collectable__42_1710156750[] = {
/* columns rows colors chars-per-pixel */
"64 64 218 2 ",
"   c white",
".  c #F8FDFD",
"X  c #EAFAFA",
"o  c #FBFEFE",
"O  c #ACEAEA",
"+  c #5CD6D6",
"@  c #C8F1F1",
"#  c #FDFEFE",
"$  c #E5F8F8",
"%  c #C6F1F1",
"&  c #B9EEEE",
"*  c #BFEFEF",
"=  c #D9F5F5",
"-  c #F5FDFD",
";  c #FCFEFE",
":  c #87E1E1",
">  c #2FCBCB",
",  c #A0E7E7",
"<  c #E5F9F9",
"1  c #96E5E5",
"2  c #56D4D4",
"3  c #3BCECE",
"4  c #35CCCC",
"5  c #38CDCD",
"6  c #48D1D1",
"7  c #76DDDD",
"8  c #C7F1F1",
"9  c #FEFFFF",
"0  c #92E4E4",
"q  c #94E4E4",
"w  c #D6F5F5",
"e  c #66D9D9",
"r  c #32CCCC",
"t  c #70DBDB",
"y  c #47D1D1",
"u  c #30CBCB",
"i  c #AEEBEB",
"p  c #ADEAEA",
"a  c #3ECFCF",
"s  c #E6F9F9",
"d  c #67D9D9",
"f  c #30CCCC",
"g  c #5ED7D7",
"h  c #BAEEEE",
"j  c #ECFAFA",
"k  c #F6FDFD",
"l  c #F2FCFC",
"z  c #D5F4F4",
"x  c #83E0E0",
"c  c #45D0D0",
"v  c #C0F0F0",
"b  c #EFFBFB",
"n  c #EBFAFA",
"m  c #9DE6E6",
"M  c #33CCCC",
"N  c #5DD7D7",
"B  c #DAF6F6",
"V  c #F4FCFC",
"C  c #8AE2E2",
"Z  c #EDFBFB",
"A  c #D1F4F4",
"S  c #A1E7E7",
"D  c #E2F8F8",
"F  c #60D7D7",
"G  c #B4ECEC",
"H  c #56D5D5",
"J  c #C1EFEF",
"K  c #8DE3E3",
"L  c #31CCCC",
"P  c #68D9D9",
"I  c #44D0D0",
"U  c #50D3D3",
"Y  c #E3F8F8",
"T  c #FDFFFF",
"R  c #86E1E1",
"E  c #9EE7E7",
"W  c #D3F4F4",
"Q  c #5AD6D6",
"!  c #CAF2F2",
"~  c #3CCECE",
"^  c #63D8D8",
"/  c #7CDEDE",
"(  c #DCF6F6",
")  c #6EDBDB",
"_  c #37CDCD",
"`  c #A1E8E8",
"'  c #42D0D0",
"]  c #53D4D4",
"[  c #6DDBDB",
"{  c #2ECBCB",
"}  c #39CDCD",
"|  c #BEEFEF",
" . c #E7F9F9",
".. c #B8EDED",
"X. c #39CECE",
"o. c #B9EDED",
"O. c #88E1E1",
"+. c #7FDFDF",
"@. c #51D3D3",
"#. c #31CBCB",
"$. c #DBF6F6",
"%. c #5FD7D7",
"&. c #2DCACA",
"*. c #7DDEDE",
"=. c #F9FEFE",
"-. c #FAFEFE",
";. c #DDF7F7",
":. c #36CDCD",
">. c #49D1D1",
",. c #CCF2F2",
"<. c #BBEEEE",
"1. c #5BD6D6",
"2. c #49D2D2",
"3. c #B3ECEC",
"4. c #F1FBFB",
"5. c #7DDFDF",
"6. c #7ADEDE",
"7. c #E8F9F9",
"8. c #91E3E3",
"9. c #40CFCF",
"0. c #69D9D9",
"q. c #CBF2F2",
"w. c #46D1D1",
"e. c #41D0D0",
"r. c #93E4E4",
"t. c #E9F9F9",
"y. c #F3FCFC",
"u. c #9FE7E7",
"i. c #5DD6D6",
"p. c #74DCDC",
"a. c #84E0E0",
"s. c #E0F7F7",
"d. c #C9F1F1",
"f. c #78DDDD",
"g. c #DEF7F7",
"h. c #F5FCFC",
"j. c #52D4D4",
"k. c #AFEBEB",
"l. c #D8F5F5",
"z. c #CDF2F2",
"x. c #BDEEEE",
"c. c #54D4D4",
"v. c #D0F3F3",
"b. c #CFF3F3",
"n. c #82E0E0",
"m. c #3ACECE",
"M. c #75DCDC",
"N. c #D5F5F5",
"B. c #61D8D8",
"V. c #6DDADA",
"C. c #91E4E4",
"Z. c #4AD2D2",
"A. c #62D8D8",
"S. c #F0FBFB",
"D. c #BDEFEF",
"F. c #B6EDED",
"G. c #DFF7F7",
"H. c #EDFAFA",
"J. c #51D4D4",
"K. c #55D5D5",
"L. c #61D7D7",
"P. c #C9F2F2",
"I. c #90E3E3",
"U. c #75DDDD",
"Y. c #58D5D5",
"T. c #9CE6E6",
"R. c #D2F4F4",
"E. c #D4F4F4",
"W. c #A3E8E8",
"Q. c #81E0E0",
"!. c #73DCDC",
"~. c #D7F5F5",
"^. c #77DDDD",
"/. c #6BDADA",
"(. c #43D0D0",
"). c #B2ECEC",
"_. c #7EDFDF",
"`. c #2DCBCB",
"'. c #41CFCF",
"]. c #35CDCD",
"[. c #72DCDC",
"{. c #F9FDFD",
"}. c #8EE3E3",
"|. c #BCEEEE",
" X c #C0EFEF",
".X c #9DE7E7",
"XX c #EEFBFB",
"oX c #4DD2D2",
"OX c #95E5E5",
"+X c #65D9D9",
"@X c #C3F0F0",
"#X c #CDF3F3",
"$X c #3FCFCF",
"%X c #71DBDB",
"&X c #F7FDFD",
"*X c #A4E8E8",
"=X c #59D6D6",
"-X c #C2F0F0",
";X c #DDF6F6",
":X c #4ED3D3",
">X c #AAEAEA",
",X c #3DCECE",
"<X c #B5EDED",
"1X c #65D8D8",
"2X c #C4F0F0",
"3X c #D1F3F3",
"4X c #E9FAFA",
"5X c #57D5D5",
"6X c #5ED6D6",
"7X c #4BD2D2",
"8X c #A5E9E9",
"9X c #34CCCC",
"0X c #F1FCFC",
"qX c #4FD3D3",
"wX c #7BDEDE",
"eX c #C1F0F0",
"rX c #6CDBDB",
"tX c #B1ECEC",
/* pixels */
"                                                                                                                                ",
"                                                                                                                                ",
"                                                                                                                                ",
"                                                                                                                                ",
"                                                                                                                                ",
"                                                                                                                                ",
"                                                                                                                                ",
"                                                                                                                                ",
"                                                                                                                                ",
"                                                . X o                                                                           ",
"                                                O + @                                 # $ % & * = -                             ",
"                                              ; : > ,                               < 1 2 3 4 5 6 7 8 ;                         ",
"                                              9 0 > q                             w e r 3 + t e y u y i ;                       ",
"                                                p a ,                           s d f g h j k l z x 5 c v                       ",
"                                                b % n                         9 m M N B           V C r d Z                     ",
"                          A S D                                               Z F 5 G               D H 3 J                     ",
"                        # K L P w                                             w I U Y               T R u E                     ",
"                          W F u Q A                                           ! ~ g b           9 A E ^ L / j                   ",
"                            ( ) _ `                                           W ' ] s           V [ { L u } e | o               ",
"                               ...$                                           n + X.o.          o G O.q +.@.#.I i ;             ",
"                                                                              $.%.&.*.=.          9 #   -.;.x :.>.,.            ",
"                                                                          -.<.1.r 2.3.9                     4.5.u 6.k           ",
"                                                                        7.8.9.M 0.q.;                         W w.6 =           ",
"                                                                    # @ d M e.r.t.                            y.d 5 *           ",
"                                                                  b u.6 L i.| -.        V J ;.                k t 4 ..          ",
"                                                                z p.:.3 a.s.            d.' f.k               j + ~ 8           ",
"                    # n g.Y o                               h.i @.u j.k.k               l.2.I z.              x.~ c.$           ",
"                    v.g 6 H b.                            g.n.m.:.M.N.                  7.B.> V.Y           B F L C.;           ",
"                    ! c.Z.A.N.                        -.<.1.#.6 , S.                  z M.5 r M e D.7.4. .F.N u ^ D             ",
"                    o D G.H.T                       7.8.9.r d @ #                 - k.J.u ] r.+ L 3 K.L.c.X.M d N.              ",
"                                                # P.P M 9.I. .                  s.x 3 :.U.w 9 g.C.Y.e.3 9.+ T. .                ",
"                                              b , 6 L 1.<.=.                -.D.i.#.6 , S.      ; 7.R.8 v.n 9                   ",
"                                            z p.:.m.n.G.                  t.r.e.r d d.#                                         ",
"                                        - i @.u j.i h.                T q.0.M 9.8.7.                                            ",
"                  . = ..O F.E.V       s.x m.:.U.w                   4.W.2.#.1.<.-.                T j G.D o                     ",
"                w Q.2.:.r 4 I !.d.k D.+ L 6 , S.                  ~.^.:.m.Q.g.                    N.A.Z.c.!                     ",
"              J ] u I /./ V.2.u Z.U.(.M P P.#                 k ).] u U O h.                      b.H >.g v.                    ",
"            N.] M !.z.V -.h.w _.:.`.'.8.7.                  D R ~ ].[.E.                          o Y g.n #                     ",
"          {.x u !.X           S.}.P |.-.                o  X%.L w..XXX                                                          ",
"          G.oX' q.              . l                   X OX' r +X8 ;                                                             ",
"          @XX.A.S.                                T #X/.M $X}.s                                                                 ",
"          ..4 %X&X                              4.*XZ.#.=X& =.                                                                  ",
"          -XX.A.S.                            l.f._ X.+.;X                                                                      ",
"          G.:X9.8     o S.#               &X3.c.u :X>XV                                                                         ",
"          -.O.#.V. .  p e #X            ; u.,X:.t A 9                                       $ .. .                              ",
"            $.Y.r %X<Xc.5 x.            -.n.{ +X .                                          , _ ) (                             ",
"              % K.L 3 r 1XH.              2Xa H  .                                          3XQ u F W                           ",
"                ~.x (.u K T               4X5X9.v.                                            w P L K #                         ",
"                  &Xx u 1                 b 6X,Xq.                                              D S b.                          ",
"                    u.u / =.              ;X7X6 B                         n 8 b                                                 ",
"                    % a 7XN.              8X9X0.0X                        , a p                                                 ",
"                    l [.u ^.4X          8 qX_ O                           q > r.                                                ",
"                      b.U M [ | Y X B , oXr wXS.                          , > : ;                                               ",
"                      9 eXH #.m.qX5X6 M } _.s                             @ + O                                                 ",
"                          $.C.1.c 9.Z.rXtXl                               o X .                                                 ",
"                            ; n ~.A ;.y.                                                                                        ",
"                                                                                                                                ",
"                                                                                                                                ",
"                                                                                                                                ",
"                                                                                                                                ",
"                                                                                                                                ",
"                                                                                                                                ",
"                                                                                                                                ",
"                                                                                                                                "
};
