/* XPM */
static char *collectable__45_1710156750[] = {
/* columns rows colors chars-per-pixel */
"64 64 229 2 ",
"   c white",
".  c #FCFEFE",
"X  c #FBFEFE",
"o  c #D8F5F5",
"O  c #A7E9E9",
"+  c #89E1E1",
"@  c #85E1E1",
"#  c #9BE6E6",
"$  c #C5F1F1",
"%  c #F0FBFB",
"&  c #EAFAFA",
"*  c #94E4E4",
"=  c #4BD2D2",
"-  c #32CCCC",
";  c #30CBCB",
":  c #31CBCB",
">  c #3DCECE",
",  c #6EDBDB",
"<  c #CAF2F2",
"1  c #FEFFFF",
"2  c #E9F9F9",
"3  c #77DDDD",
"4  c #33CCCC",
"5  c #3ECFCF",
"6  c #72DCDC",
"7  c #9DE7E7",
"8  c #A4E8E8",
"9  c #85E0E0",
"0  c #51D3D3",
"q  c #4ED3D3",
"w  c #C3F0F0",
"e  c #FAFEFE",
"r  c #8FE3E3",
"t  c #B9EDED",
"y  c #F4FCFC",
"u  c #DAF6F6",
"i  c #5CD6D6",
"p  c #E1F8F8",
"a  c #D4F4F4",
"s  c #47D1D1",
"d  c #40CFCF",
"f  c #BCEEEE",
"g  c #E7F9F9",
"h  c #67D9D9",
"j  c #9AE6E6",
"k  c #A3E8E8",
"l  c #31CCCC",
"z  c #76DDDD",
"x  c #F7FDFD",
"c  c #B7EDED",
"v  c #38CDCD",
"b  c #62D8D8",
"n  c #EFFBFB",
"m  c #D1F4F4",
"M  c #A1E7E7",
"N  c #E2F8F8",
"B  c #84E0E0",
"V  c #A1E8E8",
"C  c #4AD2D2",
"Z  c #DFF7F7",
"A  c #FDFEFE",
"S  c #8DE3E3",
"D  c #7DDFDF",
"F  c #ABEAEA",
"G  c #E4F8F8",
"H  c #95E4E4",
"J  c #3DCFCF",
"K  c #B9EEEE",
"L  c #D2F4F4",
"P  c #5FD7D7",
"I  c #2FCBCB",
"U  c #8CE2E2",
"Y  c #90E3E3",
"T  c #FDFFFF",
"R  c #39CECE",
"E  c #45D1D1",
"W  c #E8F9F9",
"Q  c #DBF6F6",
"!  c #C8F1F1",
"~  c #AEEBEB",
"^  c #35CDCD",
"/  c #59D5D5",
"(  c #E5F9F9",
")  c #EBFAFA",
"_  c #B0EBEB",
"`  c #ADEAEA",
"'  c #75DCDC",
"]  c #3FCFCF",
"[  c #F8FDFD",
"{  c #BDEEEE",
"}  c #5ED7D7",
"|  c #4FD3D3",
" . c #F6FDFD",
".. c #96E5E5",
"X. c #E0F7F7",
"o. c #89E2E2",
"O. c #64D8D8",
"+. c #C2F0F0",
"@. c #B4ECEC",
"#. c #3CCECE",
"$. c #4DD3D3",
"%. c #B6EDED",
"&. c #5BD6D6",
"*. c #45D0D0",
"=. c #F3FCFC",
"-. c #6FDBDB",
";. c #DCF6F6",
":. c #82E0E0",
">. c #34CCCC",
",. c #69D9D9",
"<. c #C7F1F1",
"1. c #98E6E6",
"2. c #8EE3E3",
"3. c #AFEBEB",
"4. c #55D5D5",
"5. c #48D1D1",
"6. c #9CE6E6",
"7. c #8AE2E2",
"8. c #D7F5F5",
"9. c #7CDEDE",
"0. c #3ACECE",
"q. c #CCF2F2",
"w. c #D6F5F5",
"e. c #7FDFDF",
"r. c #9FE7E7",
"t. c #F1FBFB",
"y. c #A8E9E9",
"u. c #50D3D3",
"i. c #4CD2D2",
"p. c #EEFBFB",
"a. c #73DCDC",
"s. c #4DD2D2",
"d. c #C9F1F1",
"f. c #E6F9F9",
"g. c #D0F3F3",
"h. c #74DCDC",
"j. c #37CDCD",
"k. c #46D1D1",
"l. c #B8EDED",
"z. c #E3F8F8",
"x. c #F2FCFC",
"c. c #5DD6D6",
"v. c #52D4D4",
"b. c #57D5D5",
"n. c #CFF3F3",
"m. c #EDFBFB",
"M. c #AAEAEA",
"N. c #35CCCC",
"B. c #91E4E4",
"V. c #CEF3F3",
"C. c #61D8D8",
"Z. c #53D4D4",
"A. c #A5E8E8",
"S. c #42D0D0",
"D. c #61D7D7",
"F. c #D5F4F4",
"G. c #7BDEDE",
"H. c #D3F4F4",
"J. c #36CDCD",
"K. c #8BE2E2",
"L. c #60D7D7",
"P. c #C9F2F2",
"I. c #D5F5F5",
"U. c #55D4D4",
"Y. c #A6E9E9",
"T. c #BFEFEF",
"R. c #7DDEDE",
"E. c #65D9D9",
"W. c #A0E7E7",
"Q. c #E5F8F8",
"!. c #C6F1F1",
"~. c #81E0E0",
"^. c #71DBDB",
"/. c #79DDDD",
"(. c #F9FDFD",
"). c #F5FCFC",
"_. c #93E4E4",
"`. c #44D0D0",
"'. c #ECFAFA",
"]. c #49D2D2",
"[. c #54D4D4",
"{. c #BAEEEE",
"}. c #80DFDF",
"|. c #63D8D8",
" X c #97E5E5",
".X c #F9FEFE",
"XX c #87E1E1",
"oX c #6BDADA",
"OX c #3BCECE",
"+X c #A2E8E8",
"@X c #D9F5F5",
"#X c #BBEEEE",
"$X c #59D6D6",
"%X c #DEF7F7",
"&X c #96E4E4",
"*X c #CBF2F2",
"=X c #65D8D8",
"-X c #88E1E1",
";X c #43D0D0",
":X c #D1F3F3",
">X c #41D0D0",
",X c #56D5D5",
"<X c #5DD7D7",
"1X c #A5E9E9",
"2X c #78DDDD",
"3X c #C1F0F0",
"4X c #95E5E5",
"5X c #81DFDF",
"6X c #6ADADA",
"7X c #49D1D1",
"8X c #C4F0F0",
"9X c #CDF2F2",
"0X c #E1F7F7",
"qX c #83E0E0",
"wX c #A9E9E9",
"eX c #75DDDD",
"rX c #4CD3D3",
"tX c #7EDFDF",
"yX c #BEEFEF",
"uX c #9DE6E6",
"iX c #F1FCFC",
"pX c #92E4E4",
"aX c #EDFAFA",
"sX c #B1EBEB",
"dX c #68D9D9",
"fX c #B5ECEC",
"gX c #7ADEDE",
"hX c #DDF6F6",
"jX c #C1EFEF",
/* pixels */
"                                                                                                                                ",
"                                                                                                                                ",
"                                                                                                                                ",
"                                                                                                                                ",
"                                                                                                                                ",
"                                                                                                                                ",
"                                                                                                                                ",
"                                                                                                                                ",
"                                                                                            . .                                 ",
"                                                                                      X o O + @ # $ %                           ",
"                                                                                    & * = - ; : : > , < 1                       ",
"                                                                                  2 3 4 5 6 7 8 9 0 ; q w                       ",
"                                                                                e r - 0 t y     X u 3 - i p                     ",
"                                                                                a s d f             g h - j 1                   ",
"                                                                                k l z x               c v b n                   ",
"                          m M N                                               X B l V                 u C C Z                   ",
"                        A S : h o                                             e D - F             G H 6 J d K e                 ",
"                          L P I U .                                           1 Y ; Y T           t R - 4 l E S W               ",
"                            Q * !                                               ~ ^ / (           ) _ ` k ' ] - 3 &             ",
"                              1                                             [ { } l | u                    .t q 4 ...           ",
"                                                                          X.o.] 4 O.+.X                       @.#.$.u           ",
"                                                                       .%.&.: *.H g                           =.-.4 F           ",
"                                                                    ;.:.#.>.,.<.X         . A                   1.; 2.1         ",
"                                                                y 3.4.; 5.# )           y 6.V x                 7 ; 7.A         ",
"                                                            1 8.9.0.^ -.q..             G | E w.              e e.l r.          ",
"                                                          t.y.u.; i.V p.                 .a.- ..A             w.s.] d.          ",
"                  . p.f.Z G .                         T g.h.j.j.' m T                   8.h I k.l..         z.a.; a.x.          ",
"                  K c.v.C b.n.                      m.M i.; u.y.t.                  x.M.v.- ] N.E B.V.N Q _ C.l Z.g.            ",
"                  A.S.E C D.F.                  . q., ^ 0.G.w.1                 1 H.3 v J.a.+.K.5 : d $.5.J.4 L.P.              ",
"                  =.I.o X.) T                 & # 5.; U.3.=.                  n 8 $.; | Y.n   x T.R.4.5.i.E.W.Q.                ",
"                                          X !.,.>.#.~.Q                   A V.^.J.R /.F.1         (.g ;.X.t.                    ",
"                    e t.n ).1           g _.`.: / @. .                  '.7 ].; [.` =.                                          ",
"                x.{.}.|.} ,  Xa .   .XT.|.- 5 XXZ                   X ! oX>.OX}.u                                               ",
"              Q 3 0.; 0.> >.; C +X@XU d - P #X[                   W ..k.: $X@. .                                                ",
"            %X|.; | &Xw *X_ 6 R 0.i.- S.r G                   e +.=X4 ] -XZ                       T '.X.o w.=.                  ",
"          x :.; C.L 1       x.W.J 4 E.+.e                   G r S.- P #X[                         a D.= E ;XY.                  ",
"          :X`.E <             [ _ +XW                   [ #XP - >Xr G                             n.,XC v.<X{.                  ",
"          1X- 2X[                                     Z XX5 4 O.3Xe                               X z.Z f.p..                   ",
"        T U ; #                                    .@.$X: E 4XW                                                                 ",
"        T K.; 6.                                Q 5XOX>.6X<.X                                                                   ",
"          8 l /.[                           =.~ U.; 7X6.)                                                                       ",
"          m E `.<.  X 8X!.X             1 8.G.R ^ -.9X.                                                                         ",
"          [ XX: P H.*X5.i )             Z i l s.+Xp.                                                                            ",
"            0XE.; u.$X- qX[             Z u.N.wX                                                                                ",
"              Q eX0.; ] !.              X XX:  X                                                1                               ",
"                x.O #.rXX.                wX- tXe                                             <.* Q                             ",
"                  ;.s = Z                 1X: 5XX                                           . K.I P L                           ",
"                  & $X0.yX              e e.: uX                                              o h : S A                         ",
"                  X K.; ' iX            q.5.S.9X                                                N M m                           ",
"                    F.q j.pXaX      . n.D.: }. .                                                                                ",
"                    1 sXS.^ dX8 yX{.S = ; =XZ                                                                                   ",
"                      X fXb.4 - j.J.; #.gXhX                                                                                    ",
"                          p y.G.h 6X7.jX=.                                                                                      ",
"                              (.=.y .                                                                                           ",
"                                                                                                                                ",
"                                                                                                                                ",
"                                                                                                                                ",
"                                                                                                                                ",
"                                                                                                                                ",
"                                                                                                                                ",
"                                                                                                                                ",
"                                                                                                                                ",
"                                                                                                                                ",
"                                                                                                                                "
};
