/* XPM */
static char *collectable__10_1710156750[] = {
/* columns rows colors chars-per-pixel */
"64 64 217 2 ",
"   c white",
".  c #F7FDFD",
"X  c #E5F9F9",
"o  c #DBF6F6",
"O  c #E1F8F8",
"+  c #F1FCFC",
"@  c #FEFFFF",
"#  c #F5FCFC",
"$  c #BAEEEE",
"%  c #76DDDD",
"&  c #52D4D4",
"*  c #47D1D1",
"=  c #4DD3D3",
"-  c #67D9D9",
";  c #9FE7E7",
":  c #E4F8F8",
">  c #E9F9F9",
",  c #85E0E0",
"<  c #3BCECE",
"1  c #31CBCB",
"2  c #41CFCF",
"3  c #48D1D1",
"4  c #36CDCD",
"5  c #33CCCC",
"6  c #61D8D8",
"7  c #CDF2F2",
"8  c #80DFDF",
"9  c #32CCCC",
"0  c #95E5E5",
"q  c #CFF3F3",
"w  c #E2F8F8",
"e  c #B2ECEC",
"r  c #63D8D8",
"t  c #31CCCC",
"y  c #58D5D5",
"u  c #D6F5F5",
"i  c #AEEBEB",
"p  c #38CDCD",
"a  c #4BD2D2",
"s  c #C0EFEF",
"d  c #FDFFFF",
"f  c #6FDBDB",
"g  c #30CBCB",
"h  c #7ADEDE",
"j  c #69DADA",
"k  c #34CCCC",
"l  c #A2E8E8",
"z  c #D3F4F4",
"x  c #4AD2D2",
"c  c #CCF2F2",
"v  c #DAF6F6",
"b  c #DDF6F6",
"n  c #FAFEFE",
"m  c #7BDEDE",
"M  c #A4E8E8",
"N  c #CBF2F2",
"B  c #3DCECE",
"V  c #5ED7D7",
"C  c #EFFBFB",
"Z  c #D8F5F5",
"A  c #A0E7E7",
"S  c #5DD6D6",
"D  c #70DBDB",
"F  c #D4F4F4",
"G  c #3FCFCF",
"H  c #EBFAFA",
"J  c #2FCBCB",
"K  c #8DE2E2",
"L  c #E7F9F9",
"P  c #40CFCF",
"I  c #CAF2F2",
"U  c #FCFEFE",
"Y  c #B6EDED",
"T  c #86E1E1",
"R  c #9EE7E7",
"E  c #97E5E5",
"W  c #3ECFCF",
"Q  c #72DCDC",
"!  c #7EDFDF",
"~  c #7FDFDF",
"^  c #F4FCFC",
"/  c #B9EDED",
"(  c #51D4D4",
")  c #8BE2E2",
"_  c #F9FDFD",
"`  c #D1F3F3",
"'  c #60D7D7",
"]  c #64D8D8",
"[  c #EEFBFB",
"{  c #BEEFEF",
"}  c #42D0D0",
"|  c #44D0D0",
" . c #FBFEFE",
".. c #B8EDED",
"X. c #C9F1F1",
"o. c #F2FCFC",
"O. c #9DE6E6",
"+. c #41D0D0",
"@. c #ABEAEA",
"#. c #79DEDE",
"$. c #81DFDF",
"%. c #37CDCD",
"&. c #3CCECE",
"*. c #91E3E3",
"=. c #EDFBFB",
"-. c #F1FBFB",
";. c #E6F9F9",
":. c #FDFEFE",
">. c #B4ECEC",
",. c #74DCDC",
"<. c #D1F4F4",
"1. c #ADEAEA",
"2. c #F8FDFD",
"3. c #5AD6D6",
"4. c #9BE6E6",
"5. c #C8F1F1",
"6. c #84E0E0",
"7. c #89E2E2",
"8. c #E9FAFA",
"9. c #62D8D8",
"0. c #35CCCC",
"q. c #B0EBEB",
"w. c #DDF7F7",
"e. c #8EE3E3",
"r. c #5BD6D6",
"t. c #E5F8F8",
"y. c #92E4E4",
"u. c #E8F9F9",
"i. c #43D0D0",
"p. c #93E4E4",
"a. c #EAFAFA",
"s. c #C6F1F1",
"d. c #79DDDD",
"f. c #B9EEEE",
"g. c #ADEBEB",
"h. c #6CDADA",
"j. c #56D5D5",
"k. c #53D4D4",
"l. c #4CD2D2",
"z. c #B1EBEB",
"x. c #B7EDED",
"c. c #51D3D3",
"v. c #C4F0F0",
"b. c #F3FCFC",
"n. c #BCEEEE",
"m. c #75DCDC",
"M. c #50D3D3",
"N. c #9CE6E6",
"B. c #A3E8E8",
"V. c #F6FDFD",
"C. c #E3F8F8",
"Z. c #D2F4F4",
"A. c #3DCFCF",
"S. c #87E1E1",
"D. c #39CECE",
"F. c #3ACECE",
"G. c #A9E9E9",
"H. c #C3F0F0",
"J. c #71DBDB",
"K. c #D9F6F6",
"L. c #8CE2E2",
"P. c #E0F7F7",
"I. c #9AE6E6",
"U. c #66D8D8",
"Y. c #4ED3D3",
"T. c #5FD7D7",
"R. c #89E1E1",
"E. c #F9FEFE",
"W. c #6DDADA",
"Q. c #A8E9E9",
"!. c #C2F0F0",
"~. c #45D0D0",
"^. c #81E0E0",
"/. c #C7F1F1",
"(. c #BFEFEF",
"). c #59D5D5",
"_. c #D7F5F5",
"`. c #2ECBCB",
"'. c #F5FDFD",
"]. c #A5E8E8",
"[. c #D9F5F5",
"{. c #65D9D9",
"}. c #A6E9E9",
"|. c #6EDBDB",
" X c #A7E9E9",
".X c #8AE2E2",
"XX c #96E5E5",
"oX c #57D5D5",
"OX c #59D6D6",
"+X c #75DDDD",
"@X c #B3ECEC",
"#X c #A5E9E9",
"$X c #46D1D1",
"%X c #77DDDD",
"&X c #AFEBEB",
"*X c #49D1D1",
"=X c #C5F1F1",
"-X c #F0FBFB",
";X c #55D5D5",
":X c #C1F0F0",
">X c #D0F3F3",
",X c #82E0E0",
"<X c #69D9D9",
"1X c #61D7D7",
"2X c #DFF7F7",
"3X c #66D9D9",
"4X c #7DDEDE",
"5X c #C5F0F0",
"6X c #AAEAEA",
"7X c #35CDCD",
"8X c #CDF3F3",
"9X c #73DCDC",
"0X c #ECFAFA",
"qX c #BDEEEE",
"wX c #4FD3D3",
"eX c #E1F7F7",
"rX c #EDFAFA",
/* pixels */
"                                                                                                                                ",
"                                                                                                                                ",
"                                                                                                                                ",
"                                                                                                                                ",
"                                                                                                                                ",
"                                                                                                                                ",
"                                                                                      . X o O + @                               ",
"                                                                                  # $ % & * = - ; :                             ",
"                                                                                > , < 1 2 = 3 4 5 6 7                           ",
"                                                                              + 8 9 3 0 q w o e r t y u                         ",
"                                                                              i p a s d         w f g h #                       ",
"                                                                            + j k l               z x 2 c                       ",
"                                                                            v 3 a b               n m t M                       ",
"                                                                            N B V C           @ Z A S 1 D F n                   ",
"                                                                            q G y H           . % J 9 9 9 3 K L                 ",
"                                                                            : & P I           U Y T R E f W 9 Q L               ",
"                                                                            n ! g ~ .           @ U     ^ / ( 9 ) _             ",
"                                                                            ` ' J ] [                       { } | 7             ",
"                                                                         ...& t V X.@                       _ ! g E             ",
"                                                                      o.O.+.k % b                             @.9 #._           ",
"                                                                    : $.%.&.*.=.        -.;.:.                >.k ,..           ",
"                                                                  <.- t x 1.2.         .*.3.z                 4.g T U           ",
"                                                               ...& g V 5.@            .6.J 7.n             8.9.0.q.            ",
"                                                            o.O.+.k % w.                s &.} e U         o.e.k r.t.            ",
"                                                          : $.%.&.y.=.                u.T %.J i.p.z a.L s.d.%.i.f.              ",
"                                                        ` - t x g.2.                u h.9 x f G 1 | j.k.W g l.z. .              ",
"                                                     .x.c.g V 5.@               U { j.g 3.v.b.n.m.M.} +.k.6.<.d                 ",
"                                                  o.N.+.k % w.                # B.| 5 Q v       V.C.z Z.t.n                     ",
"                                                : 8 4 A.y.=.                u.S.D.F.K H                                         ",
"                                              <.- t a i 2.                u h.9 * G..                                           ",
"                                           ...& g V 5.@               U { j.g 3.H.:.                                            ",
"                                        o.O.+.k % w.                # B.| 5 J.K.                                                ",
"                    @ -.: C.[  .      : $.%.&.*.=.                u.S.D.F.L.a.                                                  ",
"                  P.I.U.M.Y.T.R.7 E.<.- t x 1.2.                u W.9 * Q.V.                                                    ",
"              @ !.3.t 4 ~.* F.g 3 ^.k.g V /.@               U (.j.g ).!.:.                                                      ",
"              s.l.5 - e _.o !.^.&.`.0.% b                 '.].~.5 D [.                                                          ",
"            H {.9 8 >         . }.y p.=.                8.7.D.F.) a.                                                            ",
"            x.%.r.C.             .8.E.                _.|.5 *  XV.                                                              ",
"          U .Xg XX                                :.s oXg OX!.:.                                                                ",
"          . +Xk @X                              '.#X$X5 D K.                                                                    ",
"          2.%X5 &X                            8.7.D.F.) a.                                                                      ",
"          @ y.g T  .                        K.f 5 * Q.V.                                                                        ",
"            s.G *Xc   @ =X X-X            -Xh.g ;X:X:.                                                                          ",
"            '.~ 1 T.q w r.2 >X            ^ ,.J ,X .                                                                            ",
"              P.- 1 l.<X4 1XH               :X&.j.L                                                                             ",
"                2X! G t t ) d               u.;XP >X                                                                            ",
"                  # s.3Xg XX                C V B I                                                                             ",
"                      ; g 4XE.              P.= $XZ                                                                             ",
"                      5XB = Z               6X7X] C                                                                             ",
"                      -X|.g h H           8Xk.7X#X                                                                              ",
"                        I l.k Q =X> C w @.k.1 9X0X                                                                              ",
"                        @ qX& g A.j.T.wX4 7X,.eX                                                                                ",
"                          @ _.7.;X+.&.i.9.].rX                                                                                  ",
"                               .L Z.X.F [                                                                                       ",
"                                                                                                                                ",
"                                                                                                                                ",
"                                                                                                                                ",
"                                                                                                                                ",
"                                                                                                                                ",
"                                                                                                                                ",
"                                                                                                                                ",
"                                                                                                                                ",
"                                                                                                                                ",
"                                                                                                                                "
};
