/* XPM */
static char *collectable__23_1710156751[] = {
/* columns rows colors chars-per-pixel */
"64 64 225 2 ",
"   c white",
".  c #F9FEFE",
"X  c #F1FCFC",
"o  c #F0FBFB",
"O  c #F7FDFD",
"+  c #EEFBFB",
"@  c #B4ECEC",
"#  c #7DDEDE",
"$  c #63D8D8",
"%  c #61D7D7",
"&  c #73DCDC",
"*  c #9CE6E6",
"=  c #DAF6F6",
"-  c #FEFFFF",
";  c #D6F5F5",
":  c #70DBDB",
">  c #38CDCD",
",  c #31CBCB",
"<  c #39CDCD",
"1  c #3BCECE",
"2  c #33CCCC",
"3  c #31CCCC",
"4  c #51D3D3",
"5  c #AEEBEB",
"6  c #FAFEFE",
"7  c #D8F5F5",
"8  c #5DD6D6",
"9  c #30CBCB",
"0  c #53D4D4",
"q  c #99E5E5",
"w  c #C1EFEF",
"e  c #C7F1F1",
"r  c #ACEAEA",
"t  c #6EDBDB",
"y  c #36CDCD",
"u  c #3FCFCF",
"i  c #ABEAEA",
"p  c #FDFEFE",
"a  c #F3FCFC",
"s  c #77DDDD",
"d  c #68D9D9",
"f  c #D7F5F5",
"g  c #96E5E5",
"h  c #4BD2D2",
"j  c #D1F4F4",
"k  c #C5F1F1",
"l  c #3DCFCF",
"z  c #4CD2D2",
"x  c #D3F4F4",
"c  c #7BDEDE",
"v  c #89E1E1",
"b  c #FBFEFE",
"n  c #97E5E5",
"m  c #86E1E1",
"M  c #C4F0F0",
"N  c #5AD6D6",
"B  c #EDFAFA",
"V  c #7FDFDF",
"C  c #32CCCC",
"Z  c #A8E9E9",
"A  c #F8FDFD",
"S  c #C9F1F1",
"D  c #8FE3E3",
"F  c #41D0D0",
"G  c #E7F9F9",
"H  c #7EDFDF",
"J  c #CCF2F2",
"K  c #46D1D1",
"L  c #37CDCD",
"P  c #5BD6D6",
"I  c #B0EBEB",
"U  c #85E0E0",
"Y  c #E2F8F8",
"T  c #82E0E0",
"R  c #87E1E1",
"E  c #34CCCC",
"W  c #3CCECE",
"Q  c #9DE7E7",
"!  c #FCFEFE",
"~  c #E6F9F9",
"^  c #94E5E5",
"/  c #BAEEEE",
"(  c #D0F3F3",
")  c #2FCBCB",
"_  c #99E6E6",
"`  c #92E4E4",
"'  c #65D9D9",
"]  c #EDFBFB",
"[  c #CAF2F2",
"{  c #5DD7D7",
"}  c #CFF3F3",
"|  c #3DCECE",
" . c #B7EDED",
".. c #4ED3D3",
"X. c #6ADADA",
"o. c #F9FDFD",
"O. c #78DDDD",
"+. c #F6FDFD",
"@. c #A3E8E8",
"#. c #42D0D0",
"$. c #35CCCC",
"%. c #E4F8F8",
"&. c #A5E8E8",
"*. c #8EE3E3",
"=. c #3ACECE",
"-. c #91E3E3",
";. c #EFFBFB",
":. c #F2FCFC",
">. c #8AE2E2",
",. c #88E1E1",
"<. c #F4FCFC",
"1. c #6CDADA",
"2. c #B5EDED",
"3. c #E3F8F8",
"4. c #7ADEDE",
"5. c #43D0D0",
"6. c #A5E9E9",
"7. c #EAFAFA",
"8. c #58D5D5",
"9. c #39CECE",
"0. c #44D0D0",
"q. c #48D1D1",
"w. c #D5F4F4",
"e. c #67D9D9",
"r. c #4FD3D3",
"t. c #B9EDED",
"y. c #95E4E4",
"u. c #5ED7D7",
"i. c #81E0E0",
"p. c #57D5D5",
"a. c #CBF2F2",
"s. c #88E2E2",
"d. c #B2ECEC",
"f. c #BBEEEE",
"g. c #59D6D6",
"h. c #4AD2D2",
"j. c #DBF6F6",
"k. c #E5F9F9",
"l. c #55D5D5",
"z. c #50D3D3",
"x. c #54D4D4",
"c. c #5FD7D7",
"v. c #6BDADA",
"b. c #4DD2D2",
"n. c #B6EDED",
"m. c #95E5E5",
"M. c #F1FBFB",
"N. c #C8F1F1",
"B. c #ECFAFA",
"V. c #D4F4F4",
"C. c #D2F4F4",
"Z. c #E9FAFA",
"A. c #DEF7F7",
"S. c #AAEAEA",
"D. c #D9F5F5",
"F. c #D1F3F3",
"G. c #62D8D8",
"H. c #BEEFEF",
"J. c #F5FCFC",
"K. c #A0E7E7",
"L. c #41CFCF",
"P. c #35CDCD",
"I. c #BFEFEF",
"U. c #8BE2E2",
"Y. c #93E4E4",
"T. c #47D1D1",
"R. c #75DCDC",
"E. c #DFF7F7",
"W. c #E0F7F7",
"Q. c #76DDDD",
"!. c #45D0D0",
"~. c #EBFAFA",
"^. c #64D8D8",
"/. c #FDFFFF",
"(. c #40CFCF",
"). c #9EE7E7",
"_. c #C0EFEF",
"`. c #60D7D7",
"'. c #CDF2F2",
"]. c #90E3E3",
"[. c #6FDBDB",
"{. c #71DBDB",
"}. c #DDF6F6",
"|. c #98E5E5",
" X c #85E1E1",
".X c #E9F9F9",
"XX c #89E2E2",
"oX c #69DADA",
"OX c #E8F9F9",
"+X c #83E0E0",
"@X c #3ECFCF",
"#X c #9AE6E6",
"$X c #9BE6E6",
"%X c #DCF6F6",
"&X c #B3ECEC",
"*X c #66D9D9",
"=X c #80DFDF",
"-X c #A6E9E9",
";X c #E1F8F8",
":X c #8CE2E2",
">X c #BCEEEE",
",X c #7DDFDF",
"<X c #A1E8E8",
"1X c #F5FDFD",
"2X c #B8EDED",
"3X c #E1F7F7",
"4X c #9DE6E6",
"5X c #C2F0F0",
"6X c #A2E8E8",
"7X c #7ADDDD",
"8X c #84E0E0",
"9X c #B1ECEC",
"0X c #72DCDC",
"qX c #A4E8E8",
"wX c #C5F0F0",
"eX c #38CECE",
"rX c #7CDEDE",
"tX c #CEF3F3",
"yX c #8DE3E3",
"uX c #74DCDC",
"iX c #A1E7E7",
"pX c #81DFDF",
"aX c #59D5D5",
"sX c #AFEBEB",
"dX c #51D4D4",
/* pixels */
"                                                                                                                                ",
"                                                                                                                                ",
"                                                                                                                                ",
"                                                                                                                                ",
"                                                                                                                                ",
"                                                                                                                                ",
"                                                                                                                                ",
"                                                                                                                                ",
"                                                                                      . X o O                                   ",
"                                                                                  + @ # $ % & * = -                             ",
"                                                                                ; : > , < 1 2 3 4 5 6                           ",
"                                                                              7 8 9 0 q w e r t y u i p                         ",
"                                                                            a s 9 d f         o g > h j                         ",
"                                                                            k l z x             a c 9 v b                       ",
"                                                                            n 9 m b               M 1 N B                       ",
"                                                                          6 V C Z             A S D l F Z G                     ",
"                                                                          6 H 3 Z             J K 9 C 3 L P I A                 ",
"                                                                            g 9 U b           Y T U q R N E W Q .               ",
"                                                                            e u h x             . b   ! ~ ^ W u /               ",
"                                                                            ( h ) _                       A ` 2 ' ]             ",
"                                                                          [ { C N }                         Y 0 | e             ",
"                                                                      b  ...3 X.f                           o.O.C i             ",
"                                                                    +.@.#.$.# %.        A A                 b T , &.            ",
"                                                                  + *.=.1 -.;.        :.>.,.X               <.1.$.2.            ",
"                                                                3.4.E 5.6.O           7.8.9./               J 0.q.f             ",
"                                                              w.e., r.t.!             p y.C u.7           Y 1.9 i.A             ",
"                                                          - M p.9 { a.                o s.E 9 N d.Y ;.G f.' 3 g.7               ",
"                                                        6 I h.C t j.                k.H y #.l.E L z.u.x.=.C c.J                 ",
"                                                      <.* u y T G                 7 v.C b.n.Y * { 5.W #.N m.Y                   ",
"                                                    7.R > W g M.              - e N 9 P N.-   - B.V.[ C.Z.p                     ",
"                                                  A.& 2 K S.A               b @ z C 1.D.                                        ",
"                                                F.G.9 0 H.p               J.K.L.P.V ~                                           ",
"                                            p I.0 , $ (                 B.U.< 1 Y.o                                             ",
"                                          o.i T.2 R.E.                W.Q.2 !.Z A                                               ",
"                                        X n l > >.~.                j ^., 4 f.!                                                 ",
"                      ! a o <./.      G T y (.).J.              p _.x.9 `.'.                                                    ",
"                  O M ,.e.c.1.].J 6 j.[.C h d.b               . r T.C {.}.                                                      ",
"                G ,.u 9 L W y 9 K T u.9 8.k -               :.|.l L  X.X                                                        ",
"              B.O.C !.XXf.S t.i.(.) C oX;                 OX+Xy @X#Xa                                                           ",
"            p $XE z._.b       o.@ N V %.                %X: C q.5 6                                                             ",
"            3.x.=.&X            /.OX<.                J u.9 l.w /.                                                              ",
"            H.> % +                               ! t.r., *Xx                                                                   ",
"            Z , =Xb                             A -X5.E O.;X                                                                    ",
"            -X, V 6                           ;.` 1 9.:XB                                                                       ",
"            >XL % ]                         ~ ,Xy #.<X1X                                                                        ",
"            Y 0 9.I     + 2X3X              4XC 5.d.b                                                                           ",
"            p * E z.5Xb 6X> m.-             / | q.;                                                                             ",
"              B 7XC T.8Xp.y 9X              <.0XC qX                                                                            ",
"                OXR u 9 3 h.j.                K., 8Xb                                                                           ",
"                  +.wXV eX..Y                 i C rX6                                                                           ",
"                      3.z.(.tX              - Y.9 yX/.                                                                          ",
"                      +.uX, Y.!             ~ 8 y 2.                                                                            ",
"                        2X1 K H.          X U.2 c.OX                                                                            ",
"                        <.8XC h iX}.+ ~.a.4.y 0.>X                                                                              ",
"                          Z.pX> 2 h 8 aX(.9 b.d.b                                                                               ",
"                            :.sXX.q.| u dX+Xj /.                                                                                ",
"                                :.= [ tX3.6                                                                                     ",
"                                                                                                                                ",
"                                                                                                                                ",
"                                                                                                                                ",
"                                                                                                                                ",
"                                                                                                                                ",
"                                                                                                                                ",
"                                                                                                                                "
};
